<?xml version='1.0' encoding='ascii'?>
<svg xmlns="http://www.w3.org/2000/svg" xmlns:inkscape="http://www.inkscape.org/namespaces/inkscape" height="891" version="1.1" width="1260">
    <g id="fressstylelayer_LineSet" inkscape:groupmode="lineset" inkscape:label="fressstylelayer_LineSet">
        <g id="strokes" inkscape:groupmode="layer" inkscape:label="strokes">
            <path d=" M 27.255, 767.304 27.346, 766.757 20.280, 759.681 13.214, 752.606 6.147, 745.530 -0.919, 738.454 -7.985, 731.378 -15.052, 724.302 -22.118, 717.226 -29.184, 710.151 -35.215, 704.112 " fill="none" stroke="rgb(157, 20, 170)" stroke-linecap="butt" stroke-linejoin="round" stroke-opacity="1.0" stroke-width="3.0" />
            <path d=" M 17.893, 759.797 24.196, 764.438 " fill="none" stroke="rgb(157, 20, 170)" stroke-linecap="butt" stroke-linejoin="round" stroke-opacity="1.0" stroke-width="3.0" />
            <path d=" M 109.907, 850.360 110.050, 849.573 102.984, 842.497 95.917, 835.421 88.851, 828.345 81.785, 821.269 74.718, 814.193 67.652, 807.118 60.586, 800.042 53.519, 792.966 46.453, 785.890 39.387, 778.814 37.144, 776.569 29.847, 769.732 27.255, 767.304 24.196, 764.438 27.346, 766.757 " fill="none" stroke="rgb(157, 20, 170)" stroke-linecap="butt" stroke-linejoin="round" stroke-opacity="1.0" stroke-width="3.0" />
            <path d=" M 110.050, 849.573 106.685, 847.391 106.685, 847.391 " fill="none" stroke="rgb(157, 20, 170)" stroke-linecap="butt" stroke-linejoin="round" stroke-opacity="1.0" stroke-width="3.0" />
            <path d=" M 50.047, 856.590 59.793, 854.352 69.539, 852.113 79.285, 849.874 84.725, 848.624 94.471, 846.385 102.346, 844.576 " fill="none" stroke="rgb(157, 20, 170)" stroke-linecap="butt" stroke-linejoin="round" stroke-opacity="1.0" stroke-width="3.0" />
            <path d=" M 6.042, 873.880 9.813, 872.398 19.121, 868.742 25.586, 866.203 " fill="none" stroke="rgb(157, 20, 170)" stroke-linecap="butt" stroke-linejoin="round" stroke-opacity="1.0" stroke-width="3.0" />
            <path d=" M 25.586, 866.203 21.697, 875.416 19.383, 880.896 17.074, 886.366 16.088, 892.249 " fill="none" stroke="rgb(157, 20, 170)" stroke-linecap="butt" stroke-linejoin="round" stroke-opacity="1.0" stroke-width="3.0" />
            <path d=" M 207.582, 947.236 200.516, 940.161 193.449, 933.085 186.383, 926.009 179.317, 918.933 172.251, 911.857 165.184, 904.781 158.118, 897.706 151.052, 890.630 143.985, 883.554 136.919, 876.478 129.853, 869.402 122.786, 862.326 121.536, 861.074 114.182, 854.298 109.907, 850.360 106.685, 847.391 99.331, 840.615 92.617, 834.429 87.997, 830.172 " fill="none" stroke="rgb(157, 20, 170)" stroke-linecap="butt" stroke-linejoin="round" stroke-opacity="1.0" stroke-width="3.0" />
            <path d=" M 92.617, 834.429 99.971, 841.205 106.685, 847.391 109.907, 850.360 117.261, 857.136 121.536, 861.074 " fill="none" stroke="rgb(157, 20, 170)" stroke-linecap="butt" stroke-linejoin="round" stroke-opacity="1.0" stroke-width="3.0" />
            <path d=" M 102.346, 844.576 109.403, 851.661 109.630, 851.888 116.687, 858.973 123.744, 866.058 130.802, 873.143 137.859, 880.227 144.917, 887.312 151.974, 894.397 159.032, 901.481 166.089, 908.566 173.146, 915.651 176.036, 918.552 " fill="none" stroke="rgb(157, 20, 170)" stroke-linecap="butt" stroke-linejoin="round" stroke-opacity="1.0" stroke-width="3.0" />
            <path d=" M 35.979, 841.586 34.423, 845.272 34.103, 846.031 33.442, 847.595 29.553, 856.808 29.201, 857.642 " fill="none" stroke="rgb(157, 20, 170)" stroke-linecap="butt" stroke-linejoin="round" stroke-opacity="1.0" stroke-width="3.0" />
            <path d=" M 99.255, 909.077 92.415, 901.782 85.576, 894.487 78.736, 887.192 78.021, 886.428 72.093, 880.105 67.564, 875.275 60.725, 867.980 53.885, 860.685 50.047, 856.590 " fill="none" stroke="rgb(157, 20, 170)" stroke-linecap="butt" stroke-linejoin="round" stroke-opacity="1.0" stroke-width="3.0" />
        </g>
    </g>
    <g id="fressstylelayer_hidden lines" inkscape:groupmode="lineset" inkscape:label="fressstylelayer_hidden lines" xmlns:inkscape="http://www.inkscape.org/namespaces/inkscape">
        <g id="strokes" inkscape:groupmode="layer" inkscape:label="strokes" xmlns:inkscape="http://www.inkscape.org/namespaces/inkscape">
            <path d=" M 0.128, 896.163 4.070, 886.973 5.223, 884.285 9.164, 875.095 9.493, 874.328 9.813, 872.398 11.451, 862.533 11.597, 861.649 13.235, 851.784 14.872, 841.919 16.509, 832.054 16.873, 829.863 17.127, 828.332 18.764, 818.467 20.402, 808.602 22.039, 798.736 23.676, 788.871 25.313, 779.006 26.951, 769.141 27.255, 767.304 " fill="none" stroke="rgb(0, 119, 0)" stroke-linecap="butt" stroke-linejoin="round" stroke-opacity="1.0" stroke-width="3.0" />
            <path d=" M 9.493, 874.328 2.861, 866.844 0.705, 864.412 0.496, 864.176 -6.136, 856.692 -12.769, 849.208 -19.401, 841.724 -26.034, 834.240 -29.864, 829.918 " fill="none" stroke="rgb(0, 119, 0)" stroke-linecap="butt" stroke-linejoin="round" stroke-opacity="1.0" stroke-width="3.0" />
            <path d=" M -4.933, 858.053 0.495, 864.176 0.705, 864.413 7.338, 871.897 9.493, 874.328 2.860, 866.845 0.705, 864.413 0.496, 864.176 -6.137, 856.692 -12.770, 849.208 -19.402, 841.725 -26.035, 834.241 -27.157, 832.974 " fill="none" stroke="rgb(0, 119, 0)" stroke-linecap="butt" stroke-linejoin="round" stroke-opacity="1.0" stroke-width="3.0" />
            <path d=" M 17.893, 759.797 16.271, 769.664 14.650, 779.532 13.029, 789.400 11.408, 799.267 9.787, 809.135 8.166, 819.003 7.997, 820.030 7.783, 821.333 6.162, 831.200 4.540, 841.068 2.919, 850.936 1.298, 860.804 0.754, 864.117 0.705, 864.412 0.705, 864.413 0.705, 864.413 -0.916, 874.281 -2.537, 884.149 -3.059, 887.324 " fill="none" stroke="rgb(0, 119, 0)" stroke-linecap="butt" stroke-linejoin="round" stroke-opacity="1.0" stroke-width="3.0" />
            <path d=" M 73.470, 872.285 66.876, 865.310 67.564, 875.275 67.976, 881.239 71.271, 884.770 72.093, 880.105 73.470, 872.285 " fill="none" stroke="rgb(0, 119, 0)" stroke-linecap="butt" stroke-linejoin="round" stroke-opacity="1.0" stroke-width="3.0" />
            <path d=" M -41.757, 827.059 -31.956, 825.076 -22.155, 823.093 -12.353, 821.109 -2.552, 819.126 4.015, 817.797 7.783, 821.333 8.994, 822.469 16.286, 829.312 16.873, 829.863 24.165, 836.705 31.457, 843.548 34.103, 846.031 35.073, 846.940 42.349, 853.768 35.527, 846.456 35.212, 846.118 34.423, 845.272 27.602, 837.960 26.960, 837.272 19.561, 830.545 17.127, 828.332 13.133, 824.700 7.997, 820.030 0.598, 813.302 -4.254, 808.890 " fill="none" stroke="rgb(0, 119, 0)" stroke-linecap="butt" stroke-linejoin="round" stroke-opacity="1.0" stroke-width="3.0" />
            <path d=" M 38.947, 855.424 33.423, 856.681 29.201, 857.642 19.450, 859.862 11.597, 861.649 1.847, 863.869 0.754, 864.117 0.496, 864.176 0.496, 864.176 0.495, 864.176 -4.469, 865.306 " fill="none" stroke="rgb(0, 119, 0)" stroke-linecap="butt" stroke-linejoin="round" stroke-opacity="1.0" stroke-width="3.0" />
            <path d=" M 38.947, 855.424 42.708, 859.474 49.512, 866.803 54.738, 872.433 55.419, 882.410 56.100, 892.386 56.780, 902.363 57.461, 912.340 57.645, 915.037 50.969, 907.592 44.293, 900.147 37.617, 892.702 33.403, 888.002 35.081, 878.144 35.259, 877.095 36.937, 867.237 37.939, 861.349 38.947, 855.424 " fill="none" stroke="rgb(0, 119, 0)" stroke-linecap="butt" stroke-linejoin="round" stroke-opacity="1.0" stroke-width="3.0" />
            <path d=" M 54.738, 872.433 45.013, 874.761 35.259, 877.095 29.743, 878.416 20.018, 880.744 19.383, 880.896 9.658, 883.224 5.223, 884.285 3.395, 884.723 " fill="none" stroke="rgb(0, 119, 0)" stroke-linecap="butt" stroke-linejoin="round" stroke-opacity="1.0" stroke-width="3.0" />
            <path d=" M -0.974, 740.857 6.324, 747.694 6.573, 747.928 13.871, 754.765 21.168, 761.602 24.196, 764.438 " fill="none" stroke="rgb(0, 119, 0)" stroke-linecap="butt" stroke-linejoin="round" stroke-opacity="1.0" stroke-width="3.0" />
            <path d=" M 106.685, 847.391 102.346, 844.576 " fill="none" stroke="rgb(0, 119, 0)" stroke-linecap="butt" stroke-linejoin="round" stroke-opacity="1.0" stroke-width="3.0" />
            <path d=" M 25.586, 866.203 25.587, 866.203 32.255, 863.582 37.939, 861.349 42.708, 859.474 50.047, 856.590 " fill="none" stroke="rgb(0, 119, 0)" stroke-linecap="butt" stroke-linejoin="round" stroke-opacity="1.0" stroke-width="3.0" />
            <path d=" M 35.979, 841.586 35.212, 846.118 35.073, 846.940 33.423, 856.681 32.255, 863.582 30.585, 873.442 29.743, 878.416 28.073, 888.276 27.891, 889.354 26.221, 899.214 24.552, 909.073 22.882, 918.933 21.945, 924.466 " fill="none" stroke="rgb(0, 119, 0)" stroke-linecap="butt" stroke-linejoin="round" stroke-opacity="1.0" stroke-width="3.0" />
            <path d=" M -2.990, 888.399 3.395, 884.723 " fill="none" stroke="rgb(0, 119, 0)" stroke-linecap="butt" stroke-linejoin="round" stroke-opacity="1.0" stroke-width="3.0" />
            <path d=" M 16.088, 892.249 25.800, 889.867 27.891, 889.354 33.403, 888.002 " fill="none" stroke="rgb(0, 119, 0)" stroke-linecap="butt" stroke-linejoin="round" stroke-opacity="1.0" stroke-width="3.0" />
            <path d=" M 29.201, 857.642 25.586, 866.203 " fill="none" stroke="rgb(0, 119, 0)" stroke-linecap="butt" stroke-linejoin="round" stroke-opacity="1.0" stroke-width="3.0" />
            <path d=" M 68.383, 940.780 70.129, 930.933 71.875, 921.087 73.621, 911.241 75.367, 901.394 77.113, 891.548 78.021, 886.428 79.767, 876.582 81.513, 866.736 83.259, 856.889 84.725, 848.624 86.471, 838.778 87.997, 830.172 " fill="none" stroke="rgb(0, 119, 0)" stroke-linecap="butt" stroke-linejoin="round" stroke-opacity="1.0" stroke-width="3.0" />
            <path d=" M 99.255, 909.077 101.040, 899.238 102.825, 889.399 104.610, 879.559 106.395, 869.720 108.180, 859.880 109.630, 851.888 109.907, 850.360 109.907, 850.360 " fill="none" stroke="rgb(0, 119, 0)" stroke-linecap="butt" stroke-linejoin="round" stroke-opacity="1.0" stroke-width="3.0" />
        </g>
    </g>
</svg>
