<?xml version='1.0' encoding='ascii'?>
<svg xmlns="http://www.w3.org/2000/svg" height="360" version="1.1" width="360">
    <g id="fs_solid_solid" inkscape:groupmode="lineset" inkscape:label="fs_solid_solid" xmlns:inkscape="http://www.inkscape.org/namespaces/inkscape">
        <g id="strokes" inkscape:groupmode="layer" inkscape:label="strokes" xmlns:inkscape="http://www.inkscape.org/namespaces/inkscape">
            <path d=" M 232.872, 234.955 241.423, 229.771 249.974, 224.587 258.526, 219.403 267.077, 214.219 275.628, 209.035 282.974, 204.581 " fill="none" stroke="rgb(0, 0, 0)" stroke-dasharray="" stroke-linecap="butt" stroke-linejoin="round" stroke-opacity="1.0" stroke-width="3.0" />
            <path d=" M 282.974, 204.581 284.305, 194.670 285.635, 184.759 286.965, 174.848 288.296, 164.937 289.626, 155.026 290.956, 145.115 292.286, 135.204 292.888, 130.723 " fill="none" stroke="rgb(0, 0, 0)" stroke-dasharray="" stroke-linecap="butt" stroke-linejoin="round" stroke-opacity="1.0" stroke-width="3.0" />
            <path d=" M 213.906, 224.780 222.718, 229.507 231.530, 234.235 231.849, 234.407 " fill="none" stroke="rgb(0, 0, 0)" stroke-dasharray="" stroke-linecap="butt" stroke-linejoin="round" stroke-opacity="1.0" stroke-width="3.0" />
            <path d=" M 216.841, 121.936 207.318, 124.989 197.796, 128.042 188.273, 131.094 182.301, 133.009 " fill="none" stroke="rgb(0, 0, 0)" stroke-dasharray="" stroke-linecap="butt" stroke-linejoin="round" stroke-opacity="1.0" stroke-width="3.0" />
            <path d=" M 182.301, 133.009 191.719, 136.371 201.137, 139.734 210.555, 143.096 219.972, 146.459 229.390, 149.821 238.741, 153.160 " fill="none" stroke="rgb(0, 0, 0)" stroke-dasharray="" stroke-linecap="butt" stroke-linejoin="round" stroke-opacity="1.0" stroke-width="3.0" />
            <path d=" M 79.054, 226.832 86.963, 232.952 94.871, 239.071 102.780, 245.191 110.689, 251.311 118.598, 257.431 124.900, 262.308 " fill="none" stroke="rgb(0, 0, 0)" stroke-dasharray="" stroke-linecap="butt" stroke-linejoin="round" stroke-opacity="1.0" stroke-width="3.0" />
            <path d=" M 124.900, 262.308 124.126, 252.338 123.512, 244.435 " fill="none" stroke="rgb(0, 0, 0)" stroke-dasharray="" stroke-linecap="butt" stroke-linejoin="round" stroke-opacity="1.0" stroke-width="3.0" />
            <path d=" M 80.336, 122.757 87.638, 129.588 94.941, 136.420 102.243, 143.252 104.420, 145.288 " fill="none" stroke="rgb(0, 0, 0)" stroke-dasharray="" stroke-linecap="butt" stroke-linejoin="round" stroke-opacity="1.0" stroke-width="3.0" />
            <path d=" M 129.251, 60.682 123.062, 68.536 116.872, 76.391 110.683, 84.245 104.494, 92.100 98.304, 99.954 92.115, 107.809 85.926, 115.663 80.336, 122.757 " fill="none" stroke="rgb(0, 0, 0)" stroke-dasharray="" stroke-linecap="butt" stroke-linejoin="round" stroke-opacity="1.0" stroke-width="3.0" />
            <path d=" M 80.336, 122.757 89.488, 126.785 98.641, 130.813 107.794, 134.841 116.947, 138.869 126.100, 142.897 130.645, 144.898 " fill="none" stroke="rgb(0, 0, 0)" stroke-dasharray="" stroke-linecap="butt" stroke-linejoin="round" stroke-opacity="1.0" stroke-width="3.0" />
            <path d=" M 130.645, 144.898 136.623, 136.882 142.602, 128.866 148.581, 120.850 154.560, 112.834 160.539, 104.819 166.518, 96.803 172.497, 88.787 178.476, 80.771 184.755, 72.353 " fill="none" stroke="rgb(0, 0, 0)" stroke-dasharray="" stroke-linecap="butt" stroke-linejoin="round" stroke-opacity="1.0" stroke-width="3.0" />
            <path d=" M 173.164, 204.341 173.254, 214.341 173.343, 224.340 173.432, 234.340 173.521, 244.340 173.610, 254.339 173.699, 264.339 173.788, 274.338 173.847, 281.023 " fill="none" stroke="rgb(0, 0, 0)" stroke-dasharray="" stroke-linecap="butt" stroke-linejoin="round" stroke-opacity="1.0" stroke-width="3.0" />
            <path d=" M 187.872, 157.450 182.020, 159.660 " fill="none" stroke="rgb(0, 0, 0)" stroke-dasharray="" stroke-linecap="butt" stroke-linejoin="round" stroke-opacity="1.0" stroke-width="3.0" />
            <path d=" M 184.755, 72.353 174.969, 70.295 165.183, 68.237 155.397, 66.180 145.611, 64.122 135.825, 62.064 129.251, 60.682 " fill="none" stroke="rgb(0, 0, 0)" stroke-dasharray="" stroke-linecap="butt" stroke-linejoin="round" stroke-opacity="1.0" stroke-width="3.0" />
            <path d=" M 173.164, 204.341 182.232, 200.124 191.299, 195.907 200.366, 191.690 209.434, 187.473 215.733, 184.543 " fill="none" stroke="rgb(0, 0, 0)" stroke-dasharray="" stroke-linecap="butt" stroke-linejoin="round" stroke-opacity="1.0" stroke-width="3.0" />
            <path d=" M 215.733, 184.543 206.596, 180.478 197.460, 176.413 188.324, 172.347 187.730, 172.083 " fill="none" stroke="rgb(0, 0, 0)" stroke-dasharray="" stroke-linecap="butt" stroke-linejoin="round" stroke-opacity="1.0" stroke-width="3.0" />
            <path d=" M 69.414, 155.690 78.123, 160.605 86.832, 165.519 95.541, 170.433 104.250, 175.348 112.960, 180.262 118.784, 183.548 " fill="none" stroke="rgb(0, 0, 0)" stroke-dasharray="" stroke-linecap="butt" stroke-linejoin="round" stroke-opacity="1.0" stroke-width="3.0" />
            <path d=" M 292.888, 130.723 283.253, 128.046 273.618, 125.369 263.983, 122.692 254.348, 120.015 244.713, 117.338 235.077, 114.661 227.767, 112.630 " fill="none" stroke="rgb(0, 0, 0)" stroke-dasharray="" stroke-linecap="butt" stroke-linejoin="round" stroke-opacity="1.0" stroke-width="3.0" />
            <path d=" M 292.888, 130.723 283.649, 134.551 274.411, 138.379 265.173, 142.207 255.934, 146.035 246.696, 149.863 238.741, 153.160 " fill="none" stroke="rgb(0, 0, 0)" stroke-dasharray="" stroke-linecap="butt" stroke-linejoin="round" stroke-opacity="1.0" stroke-width="3.0" />
            <path d=" M 238.741, 153.160 238.025, 163.134 237.309, 173.108 236.594, 183.083 235.878, 193.057 235.162, 203.031 234.447, 213.006 233.731, 222.980 233.015, 232.954 232.872, 234.955 " fill="none" stroke="rgb(0, 0, 0)" stroke-dasharray="" stroke-linecap="butt" stroke-linejoin="round" stroke-opacity="1.0" stroke-width="3.0" />
            <path d=" M 215.733, 184.543 215.279, 194.533 214.826, 204.523 214.372, 214.513 213.906, 224.780 " fill="none" stroke="rgb(0, 0, 0)" stroke-dasharray="" stroke-linecap="butt" stroke-linejoin="round" stroke-opacity="1.0" stroke-width="3.0" />
            <path d=" M 182.301, 133.009 182.274, 143.009 182.246, 153.009 182.246, 153.290 " fill="none" stroke="rgb(0, 0, 0)" stroke-dasharray="" stroke-linecap="butt" stroke-linejoin="round" stroke-opacity="1.0" stroke-width="3.0" />
            <path d=" M 182.241, 155.140 187.872, 157.450 " fill="none" stroke="rgb(0, 0, 0)" stroke-dasharray="" stroke-linecap="butt" stroke-linejoin="round" stroke-opacity="1.0" stroke-width="3.0" />
            <path d=" M 187.872, 157.450 187.849, 159.781 " fill="none" stroke="rgb(0, 0, 0)" stroke-dasharray="" stroke-linecap="butt" stroke-linejoin="round" stroke-opacity="1.0" stroke-width="3.0" />
            <path d=" M 227.767, 112.630 218.206, 115.563 213.626, 116.968 " fill="none" stroke="rgb(0, 0, 0)" stroke-dasharray="" stroke-linecap="butt" stroke-linejoin="round" stroke-opacity="1.0" stroke-width="3.0" />
            <path d=" M 69.414, 155.690 70.757, 165.600 72.099, 175.509 73.442, 185.419 74.785, 195.328 76.128, 205.238 77.470, 215.147 78.813, 225.057 79.054, 226.832 " fill="none" stroke="rgb(0, 0, 0)" stroke-dasharray="" stroke-linecap="butt" stroke-linejoin="round" stroke-opacity="1.0" stroke-width="3.0" />
            <path d=" M 106.005, 144.817 104.420, 145.288 " fill="none" stroke="rgb(0, 0, 0)" stroke-dasharray="" stroke-linecap="butt" stroke-linejoin="round" stroke-opacity="1.0" stroke-width="3.0" />
            <path d=" M 124.900, 262.308 133.724, 257.603 138.283, 255.172 " fill="none" stroke="rgb(0, 0, 0)" stroke-dasharray="" stroke-linecap="butt" stroke-linejoin="round" stroke-opacity="1.0" stroke-width="3.0" />
            <path d=" M 106.005, 144.817 115.049, 149.083 124.093, 153.349 133.138, 157.615 142.182, 161.882 151.226, 166.148 151.716, 166.379 " fill="none" stroke="rgb(0, 0, 0)" stroke-dasharray="" stroke-linecap="butt" stroke-linejoin="round" stroke-opacity="1.0" stroke-width="3.0" />
            <path d=" M 151.716, 166.379 144.714, 159.240 137.711, 152.101 130.645, 144.898 " fill="none" stroke="rgb(0, 0, 0)" stroke-dasharray="" stroke-linecap="butt" stroke-linejoin="round" stroke-opacity="1.0" stroke-width="3.0" />
            <path d=" M 231.100, 245.069 231.801, 235.094 231.849, 234.407 " fill="none" stroke="rgb(0, 0, 0)" stroke-dasharray="" stroke-linecap="butt" stroke-linejoin="round" stroke-opacity="1.0" stroke-width="3.0" />
            <path d=" M 173.847, 281.023 182.316, 275.705 190.785, 270.387 199.253, 265.068 207.722, 259.750 216.190, 254.432 224.659, 249.114 231.100, 245.069 " fill="none" stroke="rgb(0, 0, 0)" stroke-dasharray="" stroke-linecap="butt" stroke-linejoin="round" stroke-opacity="1.0" stroke-width="3.0" />
            <path d=" M 173.164, 204.341 164.365, 199.590 155.566, 194.838 146.767, 190.087 145.474, 189.388 " fill="none" stroke="rgb(0, 0, 0)" stroke-dasharray="" stroke-linecap="butt" stroke-linejoin="round" stroke-opacity="1.0" stroke-width="3.0" />
            <path d=" M 145.474, 189.388 145.915, 199.379 146.356, 209.369 146.797, 219.359 147.238, 229.349 147.678, 239.340 148.145, 249.914 " fill="none" stroke="rgb(0, 0, 0)" stroke-dasharray="" stroke-linecap="butt" stroke-linejoin="round" stroke-opacity="1.0" stroke-width="3.0" />
            <path d=" M 151.716, 166.379 161.100, 162.924 170.485, 159.469 176.397, 157.292 " fill="none" stroke="rgb(0, 0, 0)" stroke-dasharray="" stroke-linecap="butt" stroke-linejoin="round" stroke-opacity="1.0" stroke-width="3.0" />
            <path d=" M 216.841, 121.936 213.626, 116.968 " fill="none" stroke="rgb(0, 0, 0)" stroke-dasharray="" stroke-linecap="butt" stroke-linejoin="round" stroke-opacity="1.0" stroke-width="3.0" />
            <path d=" M 145.474, 189.388 154.728, 185.598 163.982, 181.809 173.236, 178.019 182.490, 174.229 187.730, 172.083 " fill="none" stroke="rgb(0, 0, 0)" stroke-dasharray="" stroke-linecap="butt" stroke-linejoin="round" stroke-opacity="1.0" stroke-width="3.0" />
            <path d=" M 104.420, 145.288 94.834, 148.136 85.248, 150.985 75.663, 153.834 69.414, 155.690 " fill="none" stroke="rgb(0, 0, 0)" stroke-dasharray="" stroke-linecap="butt" stroke-linejoin="round" stroke-opacity="1.0" stroke-width="3.0" />
            <path d=" M 122.558, 232.146 121.783, 222.176 121.009, 212.206 120.235, 202.236 119.461, 192.266 118.784, 183.548 " fill="none" stroke="rgb(0, 0, 0)" stroke-dasharray="" stroke-linecap="butt" stroke-linejoin="round" stroke-opacity="1.0" stroke-width="3.0" />
            <path d=" M 123.512, 244.435 122.738, 234.465 122.558, 232.146 " fill="none" stroke="rgb(0, 0, 0)" stroke-dasharray="" stroke-linecap="butt" stroke-linejoin="round" stroke-opacity="1.0" stroke-width="3.0" />
            <path d=" M 138.283, 255.172 147.108, 250.467 148.145, 249.914 " fill="none" stroke="rgb(0, 0, 0)" stroke-dasharray="" stroke-linecap="butt" stroke-linejoin="round" stroke-opacity="1.0" stroke-width="3.0" />
            <path d=" M 138.283, 255.172 146.372, 261.052 154.461, 266.931 162.550, 272.811 170.639, 278.691 173.847, 281.023 " fill="none" stroke="rgb(0, 0, 0)" stroke-dasharray="" stroke-linecap="butt" stroke-linejoin="round" stroke-opacity="1.0" stroke-width="3.0" />
            <path d=" M 176.397, 157.292 182.241, 155.140 " fill="none" stroke="rgb(0, 0, 0)" stroke-dasharray="" stroke-linecap="butt" stroke-linejoin="round" stroke-opacity="1.0" stroke-width="3.0" />
            <path d=" M 182.246, 153.290 182.241, 155.140 " fill="none" stroke="rgb(0, 0, 0)" stroke-dasharray="" stroke-linecap="butt" stroke-linejoin="round" stroke-opacity="1.0" stroke-width="3.0" />
            <path d=" M 182.020, 159.660 172.665, 163.194 163.311, 166.728 153.956, 170.262 144.601, 173.796 135.246, 177.329 125.891, 180.863 118.784, 183.548 " fill="none" stroke="rgb(0, 0, 0)" stroke-dasharray="" stroke-linecap="butt" stroke-linejoin="round" stroke-opacity="1.0" stroke-width="3.0" />
            <path d=" M 187.849, 159.781 187.752, 169.780 187.730, 172.083 " fill="none" stroke="rgb(0, 0, 0)" stroke-dasharray="" stroke-linecap="butt" stroke-linejoin="round" stroke-opacity="1.0" stroke-width="3.0" />
            <path d=" M 213.626, 116.968 208.193, 108.572 202.760, 100.177 197.327, 91.781 191.894, 83.386 186.461, 74.990 184.755, 72.353 " fill="none" stroke="rgb(0, 0, 0)" stroke-dasharray="" stroke-linecap="butt" stroke-linejoin="round" stroke-opacity="1.0" stroke-width="3.0" />
            <path d=" M 231.849, 234.407 232.872, 234.955 " fill="none" stroke="rgb(0, 0, 0)" stroke-dasharray="" stroke-linecap="butt" stroke-linejoin="round" stroke-opacity="1.0" stroke-width="3.0" />
        </g>
    </g>
</svg>
