<?xml version='1.0' encoding='ascii'?>
<svg xmlns="http://www.w3.org/2000/svg" xmlns:inkscape="http://www.inkscape.org/namespaces/inkscape" height="1485" version="1.1" width="2100">
    <g id="fressstylelayer_LineSet" inkscape:groupmode="lineset" inkscape:label="fressstylelayer_LineSet">
        <g id="strokes" inkscape:groupmode="layer" inkscape:label="strokes">
            <path d=" M 1525.376, 1435.885 1525.742, 1432.763 1523.761, 1429.873 " fill="none" stroke="rgb(157, 20, 170)" stroke-linecap="butt" stroke-linejoin="round" stroke-opacity="1.0" stroke-width="3.0" />
            <path d=" M 1536.099, 1450.028 1534.616, 1447.870 1534.381, 1447.528 1532.258, 1444.438 1531.422, 1443.221 1530.780, 1442.287 1530.715, 1442.279 1524.714, 1441.536 1514.790, 1440.308 1514.575, 1440.282 1510.858, 1439.822 1504.806, 1439.073 1497.922, 1438.221 1496.454, 1438.040 1491.227, 1437.393 1488.418, 1437.046 1488.061, 1439.908 1486.864, 1449.498 1485.625, 1459.425 1485.520, 1460.270 1485.456, 1460.786 1484.624, 1467.452 1484.599, 1467.652 1484.103, 1471.625 1483.495, 1476.500 1483.080, 1479.820 1489.218, 1487.715 1492.089, 1491.408 " fill="none" stroke="rgb(157, 20, 170)" stroke-linecap="butt" stroke-linejoin="round" stroke-opacity="1.0" stroke-width="3.0" />
            <path d=" M 1530.780, 1442.287 1530.682, 1443.130 1529.972, 1449.262 1529.844, 1450.365 1528.751, 1459.804 1527.600, 1469.738 1526.611, 1478.269 1525.780, 1485.446 1515.866, 1484.139 1511.539, 1483.570 1510.075, 1483.377 1507.838, 1483.082 1497.923, 1481.776 1492.723, 1481.091 1483.080, 1479.820 " fill="none" stroke="rgb(157, 20, 170)" stroke-linecap="butt" stroke-linejoin="round" stroke-opacity="1.0" stroke-width="3.0" />
            <path d=" M 1592.363, 1402.275 1593.397, 1392.329 1593.782, 1388.621 1588.787, 1379.958 1587.877, 1378.379 1577.938, 1377.277 1567.999, 1376.175 1558.060, 1375.073 1554.251, 1374.651 1553.133, 1384.588 1552.014, 1394.525 1550.896, 1404.462 1550.525, 1407.754 1550.656, 1407.959 " fill="none" stroke="rgb(157, 20, 170)" stroke-linecap="butt" stroke-linejoin="round" stroke-opacity="1.0" stroke-width="3.0" />
            <path d=" M 1587.877, 1378.379 1586.829, 1388.324 1585.780, 1398.269 1585.672, 1399.294 " fill="none" stroke="rgb(157, 20, 170)" stroke-linecap="butt" stroke-linejoin="round" stroke-opacity="1.0" stroke-width="3.0" />
            <path d=" M 1547.734, 1433.928 1548.927, 1435.733 1554.439, 1444.077 1555.084, 1445.054 1565.009, 1446.281 1574.933, 1447.509 1575.731, 1447.607 1580.530, 1448.201 1585.021, 1448.756 1589.059, 1449.256 1593.815, 1449.844 1594.836, 1439.896 1595.857, 1429.948 1596.877, 1420.001 1597.754, 1411.457 1592.691, 1402.833 1592.363, 1402.275 1590.970, 1399.902 1585.672, 1399.294 1575.738, 1398.154 1565.803, 1397.015 1559.231, 1396.261 1552.065, 1395.439 1550.947, 1405.376 1550.677, 1407.772 1550.656, 1407.959 1550.294, 1411.176 1549.641, 1416.977 1549.243, 1420.522 1548.312, 1428.792 1547.734, 1433.928 " fill="none" stroke="rgb(157, 20, 170)" stroke-linecap="butt" stroke-linejoin="round" stroke-opacity="1.0" stroke-width="3.0" />
            <path d=" M 1590.970, 1399.902 1589.933, 1409.848 1588.896, 1419.794 1588.723, 1421.456 1588.592, 1422.706 1587.555, 1432.652 1586.924, 1438.702 " fill="none" stroke="rgb(157, 20, 170)" stroke-linecap="butt" stroke-linejoin="round" stroke-opacity="1.0" stroke-width="3.0" />
            <path d=" M 1547.734, 1433.928 1557.661, 1435.137 1567.587, 1436.346 1577.514, 1437.556 1586.082, 1438.599 1586.924, 1438.702 1589.689, 1443.173 1593.815, 1449.844 " fill="none" stroke="rgb(157, 20, 170)" stroke-linecap="butt" stroke-linejoin="round" stroke-opacity="1.0" stroke-width="3.0" />
            <path d=" M 1549.641, 1416.977 1546.717, 1416.630 1541.930, 1416.061 1534.327, 1415.159 1533.863, 1415.104 1532.712, 1425.038 1532.098, 1430.340 1532.036, 1430.879 1531.370, 1436.620 1530.715, 1442.279 " fill="none" stroke="rgb(157, 20, 170)" stroke-linecap="butt" stroke-linejoin="round" stroke-opacity="1.0" stroke-width="3.0" />
            <path d=" M 1573.832, 1465.454 1574.667, 1466.730 1580.141, 1475.098 1581.977, 1477.903 " fill="none" stroke="rgb(157, 20, 170)" stroke-linecap="butt" stroke-linejoin="round" stroke-opacity="1.0" stroke-width="3.0" />
            <path d=" M 1569.684, 1476.317 1579.602, 1477.597 1581.977, 1477.903 1582.770, 1470.309 1583.033, 1467.794 1583.555, 1462.797 1583.772, 1460.712 1584.811, 1450.766 1585.021, 1448.756 " fill="none" stroke="rgb(157, 20, 170)" stroke-linecap="butt" stroke-linejoin="round" stroke-opacity="1.0" stroke-width="3.0" />
            <path d=" M 1575.731, 1447.607 1574.673, 1457.551 1574.461, 1459.540 1573.832, 1465.454 1570.886, 1465.080 1566.248, 1464.491 " fill="none" stroke="rgb(157, 20, 170)" stroke-linecap="butt" stroke-linejoin="round" stroke-opacity="1.0" stroke-width="3.0" />
            <path d=" M 1485.520, 1460.270 1478.868, 1459.418 1475.790, 1459.024 1475.724, 1459.538 1474.881, 1466.191 1474.742, 1467.283 1473.735, 1475.221 1472.477, 1485.141 1471.970, 1489.141 " fill="none" stroke="rgb(157, 20, 170)" stroke-linecap="butt" stroke-linejoin="round" stroke-opacity="1.0" stroke-width="3.0" />
            <path d=" M 1471.421, 1431.619 1470.592, 1430.509 1468.841, 1430.294 1458.915, 1429.074 1456.333, 1428.756 1446.408, 1427.536 1445.252, 1427.394 1442.639, 1427.073 1441.305, 1436.984 1439.971, 1446.894 1438.817, 1455.469 1445.101, 1463.249 1445.260, 1463.447 1455.178, 1464.732 1465.095, 1466.018 1465.340, 1466.050 1473.124, 1467.059 1473.261, 1465.982 1473.328, 1465.459 1474.107, 1459.331 1474.280, 1457.973 1475.541, 1448.053 1475.665, 1447.075 " fill="none" stroke="rgb(157, 20, 170)" stroke-linecap="butt" stroke-linejoin="round" stroke-opacity="1.0" stroke-width="3.0" />
            <path d=" M 1470.592, 1430.509 1469.316, 1440.427 1468.040, 1450.346 1467.175, 1457.064 1466.917, 1459.074 " fill="none" stroke="rgb(157, 20, 170)" stroke-linecap="butt" stroke-linejoin="round" stroke-opacity="1.0" stroke-width="3.0" />
            <path d=" M 1438.817, 1455.469 1448.736, 1456.742 1458.655, 1458.014 1465.156, 1458.849 1466.917, 1459.074 1473.055, 1466.969 1473.124, 1467.059 " fill="none" stroke="rgb(157, 20, 170)" stroke-linecap="butt" stroke-linejoin="round" stroke-opacity="1.0" stroke-width="3.0" />
            <path d=" M 1510.858, 1439.822 1506.422, 1433.560 1505.613, 1432.418 1498.738, 1431.576 " fill="none" stroke="rgb(157, 20, 170)" stroke-linecap="butt" stroke-linejoin="round" stroke-opacity="1.0" stroke-width="3.0" />
            <path d=" M 1505.613, 1432.418 1505.488, 1433.445 1504.806, 1439.073 " fill="none" stroke="rgb(157, 20, 170)" stroke-linecap="butt" stroke-linejoin="round" stroke-opacity="1.0" stroke-width="3.0" />
            <path d=" M 1465.340, 1466.050 1471.520, 1473.912 1472.412, 1475.047 1473.735, 1475.221 " fill="none" stroke="rgb(157, 20, 170)" stroke-linecap="butt" stroke-linejoin="round" stroke-opacity="1.0" stroke-width="3.0" />
            <path d=" M 1550.294, 1411.176 1542.591, 1410.269 1541.930, 1416.061 " fill="none" stroke="rgb(157, 20, 170)" stroke-linecap="butt" stroke-linejoin="round" stroke-opacity="1.0" stroke-width="3.0" />
            <path d=" M 1596.323, 1510.820 1597.326, 1500.871 1598.329, 1490.921 1599.332, 1480.971 1600.183, 1472.532 1594.866, 1464.063 1593.534, 1461.941 1587.819, 1461.222 " fill="none" stroke="rgb(157, 20, 170)" stroke-linecap="butt" stroke-linejoin="round" stroke-opacity="1.0" stroke-width="3.0" />
            <path d=" M 1593.534, 1461.941 1592.515, 1471.889 1591.496, 1481.837 1590.478, 1491.785 1589.570, 1500.643 " fill="none" stroke="rgb(157, 20, 170)" stroke-linecap="butt" stroke-linejoin="round" stroke-opacity="1.0" stroke-width="3.0" />
            <path d=" M 1570.723, 1455.563 1565.996, 1448.293 1556.072, 1447.062 1547.771, 1446.033 1540.521, 1445.133 1540.333, 1445.110 1539.663, 1445.027 1538.638, 1444.900 1538.617, 1444.897 1534.739, 1444.416 1534.381, 1447.528 " fill="none" stroke="rgb(157, 20, 170)" stroke-linecap="butt" stroke-linejoin="round" stroke-opacity="1.0" stroke-width="3.0" />
            <path d=" M 1565.996, 1448.293 1564.918, 1458.235 1564.907, 1458.338 1564.522, 1461.887 1564.142, 1465.391 1563.064, 1475.333 1563.051, 1475.461 1562.577, 1479.832 " fill="none" stroke="rgb(157, 20, 170)" stroke-linecap="butt" stroke-linejoin="round" stroke-opacity="1.0" stroke-width="3.0" />
            <path d=" M 1531.136, 1475.749 1536.589, 1476.457 1538.022, 1476.643 1542.345, 1477.205 1552.262, 1478.492 1552.830, 1478.566 1553.846, 1478.698 1562.577, 1479.832 1564.537, 1482.716 1568.392, 1488.387 1569.456, 1478.444 1569.684, 1476.317 1570.495, 1468.743 " fill="none" stroke="rgb(157, 20, 170)" stroke-linecap="butt" stroke-linejoin="round" stroke-opacity="1.0" stroke-width="3.0" />
            <path d=" M 1535.909, 1482.427 1537.166, 1484.185 1537.248, 1484.300 1544.973, 1485.313 " fill="none" stroke="rgb(157, 20, 170)" stroke-linecap="butt" stroke-linejoin="round" stroke-opacity="1.0" stroke-width="3.0" />
            <path d=" M 1541.820, 1368.845 1547.735, 1369.496 1557.675, 1370.590 1567.615, 1371.684 1573.676, 1372.352 1574.755, 1362.410 1575.834, 1352.468 1576.912, 1342.527 1577.060, 1341.167 1572.138, 1332.463 1571.249, 1330.890 1561.301, 1329.869 1551.353, 1328.849 1541.405, 1327.828 1539.275, 1327.610 1538.114, 1337.542 1537.974, 1338.746 1536.813, 1348.678 1536.714, 1349.528 1536.320, 1352.892 1535.623, 1358.859 1536.775, 1360.715 1539.797, 1365.584 " fill="none" stroke="rgb(157, 20, 170)" stroke-linecap="butt" stroke-linejoin="round" stroke-opacity="1.0" stroke-width="3.0" />
            <path d=" M 1571.249, 1330.890 1570.155, 1340.830 1569.062, 1350.770 1567.969, 1360.710 1567.789, 1362.344 " fill="none" stroke="rgb(157, 20, 170)" stroke-linecap="butt" stroke-linejoin="round" stroke-opacity="1.0" stroke-width="3.0" />
            <path d=" M 1535.623, 1358.859 1540.308, 1359.366 1548.785, 1360.285 1558.727, 1361.362 1567.789, 1362.344 1572.859, 1370.964 1573.676, 1372.352 " fill="none" stroke="rgb(157, 20, 170)" stroke-linecap="butt" stroke-linejoin="round" stroke-opacity="1.0" stroke-width="3.0" />
            <path d=" M 1534.327, 1415.159 1535.477, 1405.225 1535.671, 1403.551 1530.250, 1395.232 1520.315, 1394.088 1510.381, 1392.944 1502.739, 1392.064 1501.518, 1401.990 1500.298, 1411.915 1499.696, 1416.809 1499.581, 1417.745 1499.561, 1417.907 1499.365, 1419.501 1500.094, 1420.534 1505.077, 1427.600 1515.003, 1428.808 1515.930, 1428.920 1523.761, 1429.873 1532.036, 1430.879 " fill="none" stroke="rgb(157, 20, 170)" stroke-linecap="butt" stroke-linejoin="round" stroke-opacity="1.0" stroke-width="3.0" />
            <path d=" M 1530.250, 1395.232 1529.087, 1405.164 1527.923, 1415.096 1527.018, 1422.826 " fill="none" stroke="rgb(157, 20, 170)" stroke-linecap="butt" stroke-linejoin="round" stroke-opacity="1.0" stroke-width="3.0" />
            <path d=" M 1499.365, 1419.501 1500.209, 1419.602 1510.137, 1420.796 1518.206, 1421.766 1527.018, 1422.826 1532.098, 1430.340 " fill="none" stroke="rgb(157, 20, 170)" stroke-linecap="butt" stroke-linejoin="round" stroke-opacity="1.0" stroke-width="3.0" />
            <path d=" M 1537.974, 1338.746 1528.028, 1337.705 1518.082, 1336.664 1508.137, 1335.623 1506.375, 1335.439 1505.148, 1345.364 1504.855, 1347.732 " fill="none" stroke="rgb(157, 20, 170)" stroke-linecap="butt" stroke-linejoin="round" stroke-opacity="1.0" stroke-width="3.0" />
            <path d=" M 1539.797, 1365.584 1538.654, 1375.452 1539.627, 1377.002 1544.948, 1385.468 1545.765, 1386.767 " fill="none" stroke="rgb(157, 20, 170)" stroke-linecap="butt" stroke-linejoin="round" stroke-opacity="1.0" stroke-width="3.0" />
            <path d=" M 1538.593, 1385.955 1545.765, 1386.767 1546.898, 1376.832 1547.735, 1369.496 " fill="none" stroke="rgb(157, 20, 170)" stroke-linecap="butt" stroke-linejoin="round" stroke-opacity="1.0" stroke-width="3.0" />
            <path d=" M 1536.320, 1352.892 1535.137, 1350.970 1525.194, 1349.907 1515.250, 1348.843 1513.586, 1348.665 1504.855, 1347.732 1502.771, 1347.509 1501.539, 1357.433 1500.307, 1367.356 1499.075, 1377.280 1498.801, 1379.490 1504.395, 1387.779 1505.516, 1389.440 1515.451, 1390.579 1525.386, 1391.717 1535.321, 1392.855 1537.763, 1393.135 1538.593, 1385.955 1539.627, 1377.002 " fill="none" stroke="rgb(157, 20, 170)" stroke-linecap="butt" stroke-linejoin="round" stroke-opacity="1.0" stroke-width="3.0" />
            <path d=" M 1535.137, 1350.970 1533.973, 1360.902 1532.809, 1370.834 1531.646, 1380.766 1531.365, 1383.166 " fill="none" stroke="rgb(157, 20, 170)" stroke-linecap="butt" stroke-linejoin="round" stroke-opacity="1.0" stroke-width="3.0" />
            <path d=" M 1498.801, 1379.490 1508.034, 1380.532 1517.971, 1381.654 1527.908, 1382.776 1531.365, 1383.166 1532.728, 1385.291 1537.763, 1393.135 " fill="none" stroke="rgb(157, 20, 170)" stroke-linecap="butt" stroke-linejoin="round" stroke-opacity="1.0" stroke-width="3.0" />
            <path d=" M 1499.696, 1416.809 1493.948, 1408.627 1491.445, 1405.065 1481.514, 1403.896 1471.583, 1402.726 1461.651, 1401.557 1451.720, 1400.387 1448.916, 1400.057 1447.587, 1409.968 1446.259, 1419.880 1445.252, 1427.394 " fill="none" stroke="rgb(157, 20, 170)" stroke-linecap="butt" stroke-linejoin="round" stroke-opacity="1.0" stroke-width="3.0" />
            <path d=" M 1491.445, 1405.065 1490.205, 1414.988 1489.984, 1416.758 1488.744, 1426.681 1488.292, 1430.297 1487.051, 1440.219 1486.031, 1448.380 " fill="none" stroke="rgb(157, 20, 170)" stroke-linecap="butt" stroke-linejoin="round" stroke-opacity="1.0" stroke-width="3.0" />
            <path d=" M 1469.535, 1446.303 1475.665, 1447.075 1485.587, 1448.324 1486.031, 1448.380 1486.864, 1449.498 " fill="none" stroke="rgb(157, 20, 170)" stroke-linecap="butt" stroke-linejoin="round" stroke-opacity="1.0" stroke-width="3.0" />
            <path d=" M 1498.738, 1431.576 1498.994, 1429.497 1500.094, 1420.534 " fill="none" stroke="rgb(157, 20, 170)" stroke-linecap="butt" stroke-linejoin="round" stroke-opacity="1.0" stroke-width="3.0" />
            <path d=" M 1474.881, 1466.191 1473.785, 1466.049 1473.261, 1465.982 " fill="none" stroke="rgb(157, 20, 170)" stroke-linecap="butt" stroke-linejoin="round" stroke-opacity="1.0" stroke-width="3.0" />
            <path d=" M 1515.930, 1428.920 1515.248, 1434.642 " fill="none" stroke="rgb(157, 20, 170)" stroke-linecap="butt" stroke-linejoin="round" stroke-opacity="1.0" stroke-width="3.0" />
            <path d=" M 1531.370, 1436.620 1525.376, 1435.885 1515.451, 1434.667 1515.248, 1434.642 1506.422, 1433.560 " fill="none" stroke="rgb(157, 20, 170)" stroke-linecap="butt" stroke-linejoin="round" stroke-opacity="1.0" stroke-width="3.0" />
            <path d=" M 1535.234, 1488.362 1535.909, 1482.427 1536.240, 1479.525 " fill="none" stroke="rgb(157, 20, 170)" stroke-linecap="butt" stroke-linejoin="round" stroke-opacity="1.0" stroke-width="3.0" />
            <path d=" M 1550.677, 1407.772 1550.525, 1407.754 " fill="none" stroke="rgb(157, 20, 170)" stroke-linecap="butt" stroke-linejoin="round" stroke-opacity="1.0" stroke-width="3.0" />
            <path d=" M 1583.555, 1462.797 1587.085, 1468.309 " fill="none" stroke="rgb(157, 20, 170)" stroke-linecap="butt" stroke-linejoin="round" stroke-opacity="1.0" stroke-width="3.0" />
            <path d=" M 1587.819, 1461.222 1588.850, 1451.275 1589.059, 1449.256 " fill="none" stroke="rgb(157, 20, 170)" stroke-linecap="butt" stroke-linejoin="round" stroke-opacity="1.0" stroke-width="3.0" />
        </g>
    </g>
    <g id="fressstylelayer_hidden lines" inkscape:groupmode="lineset" inkscape:label="fressstylelayer_hidden lines" xmlns:inkscape="http://www.inkscape.org/namespaces/inkscape">
        <g id="strokes" inkscape:groupmode="layer" inkscape:label="strokes" xmlns:inkscape="http://www.inkscape.org/namespaces/inkscape">
            <path d=" M 1523.761, 1429.873 1518.206, 1421.766 1516.994, 1419.998 1507.065, 1418.807 1506.159, 1418.699 1500.404, 1418.008 1499.561, 1417.907 1489.984, 1416.758 1480.055, 1415.568 1473.583, 1414.791 1472.309, 1424.710 1471.850, 1428.283 1471.489, 1431.092 1471.421, 1431.619 1470.607, 1437.957 1469.535, 1446.303 1468.261, 1456.222 1468.137, 1457.187 1467.963, 1458.543 1473.328, 1465.459 1473.588, 1465.795 1473.785, 1466.049 1474.742, 1467.283 1477.438, 1470.758 1481.667, 1471.308 1484.103, 1471.625 1486.930, 1471.994 1494.351, 1472.960 1496.867, 1473.287 1504.046, 1474.222 1504.618, 1474.297 1508.823, 1474.844 1509.315, 1474.908 1511.057, 1475.135 1512.519, 1475.325 1513.245, 1475.420 1514.276, 1475.554 1517.307, 1475.949 1520.633, 1476.382 1521.315, 1470.559 1522.478, 1460.626 1522.686, 1458.852 1522.855, 1457.408 1523.439, 1452.427 1523.769, 1449.604 1523.776, 1449.549 1523.898, 1448.503 1524.126, 1446.562 1524.616, 1442.378 1524.714, 1441.536 1525.376, 1435.885 " fill="none" stroke="rgb(0, 119, 0)" stroke-linecap="butt" stroke-linejoin="round" stroke-opacity="1.0" stroke-width="3.0" />
            <path d=" M 1473.583, 1414.791 1479.483, 1422.865 1482.892, 1427.531 " fill="none" stroke="rgb(0, 119, 0)" stroke-linecap="butt" stroke-linejoin="round" stroke-opacity="1.0" stroke-width="3.0" />
            <path d=" M 1525.742, 1432.763 1515.816, 1431.551 1505.889, 1430.339 1498.994, 1429.497 1489.067, 1428.285 1482.892, 1427.531 1482.630, 1429.603 1481.379, 1439.525 1480.127, 1449.446 1478.975, 1458.574 1478.868, 1459.418 1477.616, 1469.339 1477.438, 1470.758 " fill="none" stroke="rgb(0, 119, 0)" stroke-linecap="butt" stroke-linejoin="round" stroke-opacity="1.0" stroke-width="3.0" />
            <path d=" M 1516.994, 1419.998 1515.930, 1428.920 " fill="none" stroke="rgb(0, 119, 0)" stroke-linecap="butt" stroke-linejoin="round" stroke-opacity="1.0" stroke-width="3.0" />
            <path d=" M 1511.728, 1464.153 1513.549, 1466.654 1519.436, 1474.738 1520.633, 1476.382 " fill="none" stroke="rgb(0, 119, 0)" stroke-linecap="butt" stroke-linejoin="round" stroke-opacity="1.0" stroke-width="3.0" />
            <path d=" M 1515.248, 1434.642 1514.575, 1440.282 1514.475, 1441.122 1513.615, 1448.333 1512.431, 1458.262 1511.728, 1464.153 1510.617, 1464.011 1510.126, 1463.948 1509.051, 1463.810 1505.847, 1463.399 1495.928, 1462.128 1488.277, 1461.147 1485.456, 1460.786 1475.724, 1459.538 1474.107, 1459.331 1467.963, 1458.543 " fill="none" stroke="rgb(0, 119, 0)" stroke-linecap="butt" stroke-linejoin="round" stroke-opacity="1.0" stroke-width="3.0" />
            <path d=" M 1488.418, 1437.046 1490.857, 1440.376 1496.682, 1448.329 1497.273, 1449.137 " fill="none" stroke="rgb(0, 119, 0)" stroke-linecap="butt" stroke-linejoin="round" stroke-opacity="1.0" stroke-width="3.0" />
            <path d=" M 1539.100, 1454.396 1533.670, 1453.714 1529.451, 1453.183 1523.439, 1452.427 1515.361, 1451.411 1512.171, 1451.010 1511.681, 1450.948 1510.609, 1450.814 1500.687, 1449.566 1497.273, 1449.137 1496.056, 1459.062 1495.747, 1461.580 1494.530, 1471.505 1494.351, 1472.960 1493.752, 1477.845 1493.267, 1481.800 1492.089, 1491.408 " fill="none" stroke="rgb(0, 119, 0)" stroke-linecap="butt" stroke-linejoin="round" stroke-opacity="1.0" stroke-width="3.0" />
            <path d=" M 1536.240, 1479.525 1536.589, 1476.457 1536.966, 1473.141 1537.130, 1471.707 1538.261, 1461.771 1538.320, 1461.249 1538.354, 1460.950 1538.366, 1460.843 1539.100, 1454.396 1538.668, 1453.767 1536.941, 1451.254 1536.899, 1451.193 1536.099, 1450.028 " fill="none" stroke="rgb(0, 119, 0)" stroke-linecap="butt" stroke-linejoin="round" stroke-opacity="1.0" stroke-width="3.0" />
            <path d=" M 1554.251, 1374.651 1559.464, 1383.184 1560.496, 1384.872 " fill="none" stroke="rgb(0, 119, 0)" stroke-linecap="butt" stroke-linejoin="round" stroke-opacity="1.0" stroke-width="3.0" />
            <path d=" M 1593.782, 1388.621 1583.845, 1387.502 1573.908, 1386.383 1563.971, 1385.264 1560.496, 1384.872 1559.392, 1394.811 1559.231, 1396.261 1558.128, 1406.200 1557.482, 1412.021 1556.854, 1417.675 " fill="none" stroke="rgb(0, 119, 0)" stroke-linecap="butt" stroke-linejoin="round" stroke-opacity="1.0" stroke-width="3.0" />
            <path d=" M 1584.364, 1411.713 1589.524, 1420.278 1590.350, 1421.650 " fill="none" stroke="rgb(0, 119, 0)" stroke-linecap="butt" stroke-linejoin="round" stroke-opacity="1.0" stroke-width="3.0" />
            <path d=" M 1550.656, 1407.959 1552.904, 1411.482 1556.854, 1417.675 1558.100, 1417.823 1568.030, 1419.001 1577.960, 1420.179 1583.415, 1420.827 1587.768, 1421.343 1588.723, 1421.456 1590.350, 1421.650 1591.384, 1411.703 1591.485, 1410.726 1592.363, 1402.275 " fill="none" stroke="rgb(0, 119, 0)" stroke-linecap="butt" stroke-linejoin="round" stroke-opacity="1.0" stroke-width="3.0" />
            <path d=" M 1585.672, 1399.294 1584.624, 1409.239 1584.364, 1411.713 1574.431, 1410.551 1564.499, 1409.389 1554.567, 1408.227 1550.677, 1407.772 " fill="none" stroke="rgb(0, 119, 0)" stroke-linecap="butt" stroke-linejoin="round" stroke-opacity="1.0" stroke-width="3.0" />
            <path d=" M 1553.001, 1486.367 1553.846, 1478.698 1554.327, 1474.335 1555.423, 1464.396 1555.435, 1464.284 1555.529, 1463.435 1555.562, 1463.134 1555.573, 1463.027 1554.691, 1461.718 1549.730, 1454.361 1548.678, 1452.802 1548.620, 1452.716 1547.043, 1452.519 1545.152, 1452.282 1540.849, 1451.743 1539.784, 1451.610 1539.649, 1451.593 1538.926, 1451.502 1537.899, 1451.374 1536.941, 1451.254 1533.995, 1450.885 1531.549, 1450.579 1529.844, 1450.365 1529.779, 1450.357 1523.769, 1449.604 1517.444, 1448.812 1516.694, 1448.719 1515.696, 1448.593 1513.615, 1448.333 1512.507, 1448.194 1512.018, 1448.133 1511.681, 1450.948 1510.493, 1460.878 1510.126, 1463.948 1509.583, 1468.485 1509.518, 1469.035 1509.382, 1470.173 1509.301, 1470.850 1508.823, 1474.844 1508.663, 1476.178 1508.298, 1479.231 1508.237, 1479.744 1507.838, 1483.082 1507.607, 1485.011 " fill="none" stroke="rgb(0, 119, 0)" stroke-linecap="butt" stroke-linejoin="round" stroke-opacity="1.0" stroke-width="3.0" />
            <path d=" M 1512.018, 1448.133 1512.443, 1448.729 1515.218, 1452.615 1519.371, 1458.431 " fill="none" stroke="rgb(0, 119, 0)" stroke-linecap="butt" stroke-linejoin="round" stroke-opacity="1.0" stroke-width="3.0" />
            <path d=" M 1555.573, 1463.027 1554.560, 1462.898 1544.903, 1461.672 1544.106, 1461.571 1539.795, 1461.024 1538.366, 1460.843 1532.930, 1460.153 1528.706, 1459.616 1522.686, 1458.852 1519.371, 1458.431 1518.201, 1468.363 1517.307, 1475.949 1517.179, 1477.039 1516.008, 1486.971 1515.959, 1487.391 " fill="none" stroke="rgb(0, 119, 0)" stroke-linecap="butt" stroke-linejoin="round" stroke-opacity="1.0" stroke-width="3.0" />
            <path d=" M 1548.620, 1452.716 1547.508, 1462.654 1547.440, 1463.267 1546.317, 1473.302 1545.205, 1483.240 1544.973, 1485.313 " fill="none" stroke="rgb(0, 119, 0)" stroke-linecap="butt" stroke-linejoin="round" stroke-opacity="1.0" stroke-width="3.0" />
            <path d=" M 1552.065, 1395.439 1557.380, 1403.909 1559.302, 1406.971 " fill="none" stroke="rgb(0, 119, 0)" stroke-linecap="butt" stroke-linejoin="round" stroke-opacity="1.0" stroke-width="3.0" />
            <path d=" M 1597.754, 1411.457 1591.485, 1410.726 1581.552, 1409.567 1571.620, 1408.408 1561.687, 1407.250 1559.302, 1406.971 1558.726, 1412.167 1558.100, 1417.823 1558.083, 1417.979 1556.982, 1427.918 1555.881, 1437.857 1555.084, 1445.054 " fill="none" stroke="rgb(0, 119, 0)" stroke-linecap="butt" stroke-linejoin="round" stroke-opacity="1.0" stroke-width="3.0" />
            <path d=" M 1508.442, 1468.896 1509.382, 1470.173 1509.811, 1470.756 1509.942, 1470.933 1511.333, 1472.822 1512.610, 1474.557 1513.245, 1475.420 1514.147, 1476.644 1517.179, 1477.039 1522.189, 1477.693 1526.611, 1478.269 1528.325, 1478.493 1533.588, 1479.179 1536.240, 1479.525 1537.673, 1479.712 1537.767, 1479.724 1541.999, 1480.276 1542.345, 1477.205 1542.835, 1472.853 1543.955, 1462.915 1544.060, 1461.978 1544.094, 1461.678 1544.106, 1461.571 1544.209, 1460.661 1544.985, 1453.766 1545.144, 1452.360 1545.152, 1452.282 1545.159, 1452.227 1544.369, 1451.062 1540.496, 1445.351 1540.333, 1445.110 1539.752, 1444.253 1538.726, 1444.126 1538.034, 1444.040 1532.385, 1443.341 1531.422, 1443.221 1530.682, 1443.130 1530.617, 1443.122 1524.616, 1442.378 1514.692, 1441.149 1514.475, 1441.122 1511.809, 1440.792 1511.771, 1441.111 1511.565, 1442.829 1511.309, 1444.964 1510.609, 1450.814 1509.419, 1460.742 1509.051, 1463.810 1508.644, 1467.206 1508.442, 1468.896 " fill="none" stroke="rgb(0, 119, 0)" stroke-linecap="butt" stroke-linejoin="round" stroke-opacity="1.0" stroke-width="3.0" />
            <path d=" M 1511.809, 1440.792 1516.626, 1447.594 1517.450, 1448.757 " fill="none" stroke="rgb(0, 119, 0)" stroke-linecap="butt" stroke-linejoin="round" stroke-opacity="1.0" stroke-width="3.0" />
            <path d=" M 1545.159, 1452.227 1540.855, 1451.688 1537.905, 1451.319 1536.899, 1451.193 1534.002, 1450.830 1529.785, 1450.302 1523.776, 1449.549 1517.450, 1448.757 1517.444, 1448.812 1516.267, 1458.743 1515.091, 1468.673 1514.276, 1475.554 1514.147, 1476.644 " fill="none" stroke="rgb(0, 119, 0)" stroke-linecap="butt" stroke-linejoin="round" stroke-opacity="1.0" stroke-width="3.0" />
            <path d=" M 1539.752, 1444.253 1539.663, 1445.027 1539.526, 1446.234 1539.052, 1450.398 1538.926, 1451.502 1538.783, 1452.753 1538.668, 1453.767 1537.536, 1463.702 1536.694, 1471.088 1536.530, 1472.523 " fill="none" stroke="rgb(0, 119, 0)" stroke-linecap="butt" stroke-linejoin="round" stroke-opacity="1.0" stroke-width="3.0" />
            <path d=" M 1508.442, 1468.896 1509.518, 1469.035 1510.009, 1469.099 1510.037, 1469.102 1513.210, 1469.512 1521.315, 1470.559 1531.233, 1471.839 1531.581, 1471.884 1536.530, 1472.523 1536.966, 1473.141 1538.218, 1474.916 1541.999, 1480.276 " fill="none" stroke="rgb(0, 119, 0)" stroke-linecap="butt" stroke-linejoin="round" stroke-opacity="1.0" stroke-width="3.0" />
            <path d=" M 1530.715, 1442.279 1530.617, 1443.122 1530.132, 1447.311 1529.906, 1449.254 1529.785, 1450.302 1529.779, 1450.357 1529.451, 1453.183 1528.706, 1459.616 1528.693, 1459.723 1528.751, 1459.804 1528.928, 1460.056 1530.239, 1461.919 1532.377, 1464.956 1536.694, 1471.088 1537.130, 1471.707 1537.446, 1472.157 1538.516, 1472.295 1538.609, 1472.307 1542.835, 1472.853 1546.317, 1473.302 1553.312, 1474.204 1554.327, 1474.335 1556.134, 1474.568 1561.466, 1475.256 1563.051, 1475.461 1565.289, 1475.750 1569.684, 1476.317 " fill="none" stroke="rgb(0, 119, 0)" stroke-linecap="butt" stroke-linejoin="round" stroke-opacity="1.0" stroke-width="3.0" />
            <path d=" M 1533.863, 1415.104 1534.263, 1415.708 1539.785, 1424.045 1540.837, 1425.634 1542.460, 1428.085 " fill="none" stroke="rgb(0, 119, 0)" stroke-linecap="butt" stroke-linejoin="round" stroke-opacity="1.0" stroke-width="3.0" />
            <path d=" M 1586.623, 1433.423 1576.695, 1432.223 1566.767, 1431.023 1556.840, 1429.823 1548.312, 1428.792 1542.460, 1428.085 1541.330, 1438.021 1540.521, 1445.133 1540.496, 1445.351 1540.271, 1447.330 1539.910, 1450.505 1539.784, 1451.610 1539.530, 1453.842 1538.400, 1463.778 1537.446, 1472.157 " fill="none" stroke="rgb(0, 119, 0)" stroke-linecap="butt" stroke-linejoin="round" stroke-opacity="1.0" stroke-width="3.0" />
            <path d=" M 1585.021, 1448.756 1586.060, 1438.810 1586.082, 1438.599 1586.623, 1433.423 1582.751, 1427.128 1582.147, 1426.145 1578.624, 1420.417 1568.693, 1419.238 1558.763, 1418.059 1558.083, 1417.979 1549.641, 1416.977 " fill="none" stroke="rgb(0, 119, 0)" stroke-linecap="butt" stroke-linejoin="round" stroke-opacity="1.0" stroke-width="3.0" />
            <path d=" M 1578.624, 1420.417 1577.566, 1430.360 1576.508, 1440.304 1575.731, 1447.607 " fill="none" stroke="rgb(0, 119, 0)" stroke-linecap="butt" stroke-linejoin="round" stroke-opacity="1.0" stroke-width="3.0" />
            <path d=" M 1475.790, 1459.024 1481.875, 1466.959 1482.164, 1467.337 " fill="none" stroke="rgb(0, 119, 0)" stroke-linecap="butt" stroke-linejoin="round" stroke-opacity="1.0" stroke-width="3.0" />
            <path d=" M 1511.533, 1471.139 1509.942, 1470.933 1509.792, 1470.914 1509.301, 1470.850 1499.383, 1469.566 1489.466, 1468.282 1487.424, 1468.018 1484.599, 1467.652 1482.164, 1467.337 1481.667, 1471.308 1481.056, 1476.180 1479.813, 1486.103 1478.570, 1496.025 1478.422, 1497.203 " fill="none" stroke="rgb(0, 119, 0)" stroke-linecap="butt" stroke-linejoin="round" stroke-opacity="1.0" stroke-width="3.0" />
            <path d=" M 1509.845, 1485.307 1510.075, 1483.377 1510.898, 1476.469 1511.057, 1475.135 1511.333, 1472.822 1511.533, 1471.139 1510.037, 1469.102 1510.013, 1469.069 1509.583, 1468.485 1508.644, 1467.206 1505.847, 1463.399 1505.421, 1462.819 1501.978, 1462.378 1498.257, 1461.901 1495.747, 1461.580 1488.341, 1460.631 1485.520, 1460.270 " fill="none" stroke="rgb(0, 119, 0)" stroke-linecap="butt" stroke-linejoin="round" stroke-opacity="1.0" stroke-width="3.0" />
            <path d=" M 1505.421, 1462.819 1504.223, 1472.747 1504.046, 1474.222 1503.455, 1479.117 1502.669, 1485.633 " fill="none" stroke="rgb(0, 119, 0)" stroke-linecap="butt" stroke-linejoin="round" stroke-opacity="1.0" stroke-width="3.0" />
            <path d=" M 1442.639, 1427.073 1444.904, 1429.989 1449.008, 1435.273 " fill="none" stroke="rgb(0, 119, 0)" stroke-linecap="butt" stroke-linejoin="round" stroke-opacity="1.0" stroke-width="3.0" />
            <path d=" M 1476.728, 1438.718 1470.607, 1437.957 1467.895, 1437.620 1457.972, 1436.387 1449.008, 1435.273 1447.690, 1445.185 1447.288, 1448.202 1445.970, 1458.115 1445.260, 1463.447 " fill="none" stroke="rgb(0, 119, 0)" stroke-linecap="butt" stroke-linejoin="round" stroke-opacity="1.0" stroke-width="3.0" />
            <path d=" M 1475.665, 1447.075 1476.728, 1438.718 1471.421, 1431.619 " fill="none" stroke="rgb(0, 119, 0)" stroke-linecap="butt" stroke-linejoin="round" stroke-opacity="1.0" stroke-width="3.0" />
            <path d=" M 1498.738, 1431.576 1488.813, 1430.361 1488.292, 1430.297 1482.630, 1429.603 1472.705, 1428.388 1471.850, 1428.283 1469.143, 1427.951 1468.841, 1430.294 1467.895, 1437.620 1466.819, 1445.962 1465.539, 1455.879 1465.415, 1456.839 1465.156, 1458.849 1464.384, 1464.833 1465.340, 1466.050 " fill="none" stroke="rgb(0, 119, 0)" stroke-linecap="butt" stroke-linejoin="round" stroke-opacity="1.0" stroke-width="3.0" />
            <path d=" M 1469.143, 1427.951 1471.489, 1431.092 1477.052, 1438.540 " fill="none" stroke="rgb(0, 119, 0)" stroke-linecap="butt" stroke-linejoin="round" stroke-opacity="1.0" stroke-width="3.0" />
            <path d=" M 1513.125, 1443.023 1511.565, 1442.829 1501.642, 1441.596 1497.570, 1441.090 1490.872, 1440.257 1488.061, 1439.908 1478.137, 1438.675 1477.052, 1438.540 1475.791, 1448.460 1474.577, 1458.011 1473.588, 1465.795 1472.412, 1475.047 " fill="none" stroke="rgb(0, 119, 0)" stroke-linecap="butt" stroke-linejoin="round" stroke-opacity="1.0" stroke-width="3.0" />
            <path d=" M 1473.735, 1475.221 1481.056, 1476.180 1483.495, 1476.500 1489.841, 1477.332 1493.752, 1477.845 1496.270, 1478.175 1503.455, 1479.117 1508.237, 1479.744 1508.729, 1479.809 1509.156, 1476.242 1509.315, 1474.908 1509.792, 1470.914 1509.811, 1470.756 1510.009, 1469.099 1510.013, 1469.069 1510.617, 1464.011 1511.804, 1454.081 1512.171, 1451.010 1512.443, 1448.729 1512.507, 1448.194 1512.870, 1445.159 1513.125, 1443.023 1511.771, 1441.111 1510.858, 1439.822 " fill="none" stroke="rgb(0, 119, 0)" stroke-linecap="butt" stroke-linejoin="round" stroke-opacity="1.0" stroke-width="3.0" />
            <path d=" M 1501.104, 1469.585 1504.618, 1474.297 1508.298, 1479.231 1508.729, 1479.809 " fill="none" stroke="rgb(0, 119, 0)" stroke-linecap="butt" stroke-linejoin="round" stroke-opacity="1.0" stroke-width="3.0" />
            <path d=" M 1504.806, 1439.073 1503.601, 1449.000 1502.397, 1458.927 1501.978, 1462.378 1501.104, 1469.585 1491.186, 1468.302 1487.449, 1467.818 1484.624, 1467.452 1474.881, 1466.191 " fill="none" stroke="rgb(0, 119, 0)" stroke-linecap="butt" stroke-linejoin="round" stroke-opacity="1.0" stroke-width="3.0" />
            <path d=" M 1541.930, 1416.061 1540.837, 1425.634 1539.703, 1435.569 1538.726, 1444.126 1538.638, 1444.900 1538.635, 1444.924 1538.247, 1448.322 1538.127, 1449.369 1538.025, 1450.269 1537.905, 1451.319 1537.899, 1451.374 1537.890, 1451.451 1538.783, 1452.753 1539.530, 1453.842 1540.457, 1455.193 1540.538, 1455.312 1544.209, 1460.661 1544.903, 1461.672 1544.984, 1461.791 1545.213, 1462.124 1545.859, 1463.066 1547.440, 1463.267 1554.422, 1464.155 1555.435, 1464.284 1557.238, 1464.513 1560.428, 1464.919 1564.142, 1465.391 1566.377, 1465.676 1570.763, 1466.233 1574.667, 1466.730 1583.033, 1467.794 1587.085, 1468.309 1587.819, 1461.222 " fill="none" stroke="rgb(0, 119, 0)" stroke-linecap="butt" stroke-linejoin="round" stroke-opacity="1.0" stroke-width="3.0" />
            <path d=" M 1542.591, 1410.269 1546.717, 1416.630 1549.243, 1420.522 1550.429, 1422.350 " fill="none" stroke="rgb(0, 119, 0)" stroke-linecap="butt" stroke-linejoin="round" stroke-opacity="1.0" stroke-width="3.0" />
            <path d=" M 1591.339, 1427.245 1582.147, 1426.145 1572.218, 1424.957 1562.289, 1423.769 1552.360, 1422.581 1550.429, 1422.350 1549.313, 1432.288 1548.927, 1435.733 1547.811, 1445.671 1547.771, 1446.033 1547.167, 1451.412 1547.043, 1452.519 1545.927, 1462.456 1545.859, 1463.066 " fill="none" stroke="rgb(0, 119, 0)" stroke-linecap="butt" stroke-linejoin="round" stroke-opacity="1.0" stroke-width="3.0" />
            <path d=" M 1589.059, 1449.256 1589.689, 1443.173 1590.720, 1433.226 1591.339, 1427.245 1588.592, 1422.706 1587.768, 1421.343 1584.015, 1415.142 1574.083, 1413.973 1564.151, 1412.805 1558.726, 1412.167 1557.482, 1412.021 1552.904, 1411.482 1550.294, 1411.176 " fill="none" stroke="rgb(0, 119, 0)" stroke-linecap="butt" stroke-linejoin="round" stroke-opacity="1.0" stroke-width="3.0" />
            <path d=" M 1584.015, 1415.142 1583.415, 1420.827 1582.751, 1427.128 1581.703, 1437.073 1580.655, 1447.017 1580.530, 1448.201 1579.637, 1456.680 " fill="none" stroke="rgb(0, 119, 0)" stroke-linecap="butt" stroke-linejoin="round" stroke-opacity="1.0" stroke-width="3.0" />
            <path d=" M 1537.890, 1451.451 1540.840, 1451.821 1545.144, 1452.360 1548.678, 1452.802 1558.601, 1454.045 1559.391, 1454.144 1569.314, 1455.387 1570.723, 1455.563 1579.637, 1456.680 1582.083, 1460.500 1583.555, 1462.797 " fill="none" stroke="rgb(0, 119, 0)" stroke-linecap="butt" stroke-linejoin="round" stroke-opacity="1.0" stroke-width="3.0" />
            <path d=" M 1587.819, 1461.222 1583.772, 1460.712 1582.083, 1460.500 1574.461, 1459.540 1571.519, 1459.170 1564.907, 1458.338 1561.921, 1457.962 1558.012, 1457.470 1555.199, 1457.116 1554.691, 1461.718 1554.560, 1462.898 1554.548, 1463.006 1554.515, 1463.306 1554.422, 1464.155 1553.324, 1474.095 1553.312, 1474.204 1552.830, 1478.566 1551.983, 1486.234 " fill="none" stroke="rgb(0, 119, 0)" stroke-linecap="butt" stroke-linejoin="round" stroke-opacity="1.0" stroke-width="3.0" />
            <path d=" M 1555.199, 1457.116 1560.428, 1464.919 1562.288, 1467.695 " fill="none" stroke="rgb(0, 119, 0)" stroke-linecap="butt" stroke-linejoin="round" stroke-opacity="1.0" stroke-width="3.0" />
            <path d=" M 1600.183, 1472.532 1590.263, 1471.266 1582.770, 1470.309 1572.850, 1469.043 1570.495, 1468.743 1566.106, 1468.183 1562.288, 1467.695 1561.466, 1475.256 1560.385, 1485.198 1560.155, 1487.306 " fill="none" stroke="rgb(0, 119, 0)" stroke-linecap="butt" stroke-linejoin="round" stroke-opacity="1.0" stroke-width="3.0" />
            <path d=" M 1534.381, 1447.528 1534.346, 1447.836 1534.122, 1449.781 1534.002, 1450.830 1533.995, 1450.885 1533.670, 1453.714 1532.930, 1460.153 1532.917, 1460.259 1532.883, 1460.558 1532.377, 1464.956 1531.581, 1471.884 1531.136, 1475.749 1533.588, 1479.179 1535.909, 1482.427 " fill="none" stroke="rgb(0, 119, 0)" stroke-linecap="butt" stroke-linejoin="round" stroke-opacity="1.0" stroke-width="3.0" />
            <path d=" M 1534.739, 1444.416 1538.127, 1449.369 1538.810, 1450.367 1539.649, 1451.593 1540.693, 1453.119 1540.774, 1453.238 " fill="none" stroke="rgb(0, 119, 0)" stroke-linecap="butt" stroke-linejoin="round" stroke-opacity="1.0" stroke-width="3.0" />
            <path d=" M 1571.738, 1457.123 1561.816, 1455.878 1560.425, 1455.704 1550.503, 1454.458 1549.730, 1454.361 1544.985, 1453.766 1540.774, 1453.238 1540.538, 1455.312 1539.411, 1465.248 1538.609, 1472.307 1537.767, 1479.724 1537.248, 1484.300 " fill="none" stroke="rgb(0, 119, 0)" stroke-linecap="butt" stroke-linejoin="round" stroke-opacity="1.0" stroke-width="3.0" />
            <path d=" M 1570.495, 1468.743 1570.763, 1466.233 1570.886, 1465.080 1571.519, 1459.170 1571.738, 1457.123 1570.723, 1455.563 " fill="none" stroke="rgb(0, 119, 0)" stroke-linecap="butt" stroke-linejoin="round" stroke-opacity="1.0" stroke-width="3.0" />
            <path d=" M 1539.275, 1327.610 1544.399, 1336.197 1545.393, 1337.863 " fill="none" stroke="rgb(0, 119, 0)" stroke-linecap="butt" stroke-linejoin="round" stroke-opacity="1.0" stroke-width="3.0" />
            <path d=" M 1577.060, 1341.167 1567.114, 1340.129 1557.168, 1339.092 1547.222, 1338.054 1545.393, 1337.863 1544.848, 1342.591 1543.702, 1352.525 1542.557, 1362.459 1541.820, 1368.845 1540.766, 1367.147 1539.797, 1365.584 " fill="none" stroke="rgb(0, 119, 0)" stroke-linecap="butt" stroke-linejoin="round" stroke-opacity="1.0" stroke-width="3.0" />
            <path d=" M 1563.988, 1487.809 1564.537, 1482.716 1565.289, 1475.750 1566.106, 1468.183 1566.377, 1465.676 1566.469, 1464.824 1566.248, 1464.491 1564.522, 1461.887 1561.921, 1457.962 1560.425, 1455.704 1559.391, 1454.144 1558.521, 1452.832 1548.599, 1451.591 1547.167, 1451.412 1544.369, 1451.062 1540.974, 1450.638 1539.910, 1450.505 1539.052, 1450.398 1538.810, 1450.367 1538.025, 1450.269 1536.099, 1450.028 1534.122, 1449.781 1531.676, 1449.475 1529.972, 1449.262 1529.906, 1449.254 1523.898, 1448.503 1516.626, 1447.594 1515.826, 1447.494 1515.696, 1448.593 1515.361, 1451.411 1515.218, 1452.615 1514.038, 1462.545 1513.549, 1466.654 1513.210, 1469.512 1512.610, 1474.557 1512.519, 1475.325 1512.360, 1476.660 1511.539, 1483.570 1511.310, 1485.501 " fill="none" stroke="rgb(0, 119, 0)" stroke-linecap="butt" stroke-linejoin="round" stroke-opacity="1.0" stroke-width="3.0" />
            <path d=" M 1515.826, 1447.494 1516.694, 1448.719 1522.478, 1456.876 1522.855, 1457.408 1524.317, 1459.470 " fill="none" stroke="rgb(0, 119, 0)" stroke-linecap="butt" stroke-linejoin="round" stroke-opacity="1.0" stroke-width="3.0" />
            <path d=" M 1566.469, 1464.824 1556.548, 1463.564 1555.529, 1463.435 1554.515, 1463.306 1545.213, 1462.124 1544.060, 1461.978 1539.749, 1461.430 1538.320, 1461.249 1532.883, 1460.558 1528.928, 1460.056 1524.317, 1459.470 1523.157, 1469.403 1522.189, 1477.693 1521.029, 1487.625 1520.979, 1488.056 " fill="none" stroke="rgb(0, 119, 0)" stroke-linecap="butt" stroke-linejoin="round" stroke-opacity="1.0" stroke-width="3.0" />
            <path d=" M 1558.521, 1452.832 1558.012, 1457.470 1557.238, 1464.513 1556.146, 1474.454 1556.134, 1474.568 1555.042, 1484.509 1554.811, 1486.605 " fill="none" stroke="rgb(0, 119, 0)" stroke-linecap="butt" stroke-linejoin="round" stroke-opacity="1.0" stroke-width="3.0" />
            <path d=" M 1502.739, 1392.064 1508.387, 1400.371 " fill="none" stroke="rgb(0, 119, 0)" stroke-linecap="butt" stroke-linejoin="round" stroke-opacity="1.0" stroke-width="3.0" />
            <path d=" M 1535.671, 1403.551 1525.738, 1402.393 1515.805, 1401.236 1508.387, 1400.371 1507.180, 1410.298 1506.159, 1418.699 1505.077, 1427.600 " fill="none" stroke="rgb(0, 119, 0)" stroke-linecap="butt" stroke-linejoin="round" stroke-opacity="1.0" stroke-width="3.0" />
            <path d=" M 1532.036, 1430.879 1532.500, 1430.935 1533.651, 1421.002 1534.263, 1415.708 1534.327, 1415.159 " fill="none" stroke="rgb(0, 119, 0)" stroke-linecap="butt" stroke-linejoin="round" stroke-opacity="1.0" stroke-width="3.0" />
            <path d=" M 1504.855, 1347.732 1504.544, 1350.246 1503.317, 1360.171 1502.089, 1370.095 1501.932, 1371.363 1506.829, 1378.721 1508.034, 1380.532 1509.446, 1382.654 1519.383, 1383.779 1529.319, 1384.905 1532.728, 1385.291 1538.593, 1385.955 " fill="none" stroke="rgb(0, 119, 0)" stroke-linecap="butt" stroke-linejoin="round" stroke-opacity="1.0" stroke-width="3.0" />
            <path d=" M 1506.375, 1335.439 1511.741, 1343.878 1513.779, 1347.082 " fill="none" stroke="rgb(0, 119, 0)" stroke-linecap="butt" stroke-linejoin="round" stroke-opacity="1.0" stroke-width="3.0" />
            <path d=" M 1549.852, 1350.929 1539.909, 1349.869 1536.714, 1349.528 1526.770, 1348.467 1516.826, 1347.407 1513.779, 1347.082 1513.586, 1348.665 1512.377, 1358.592 1511.168, 1368.519 1509.959, 1378.445 1509.446, 1382.654 " fill="none" stroke="rgb(0, 119, 0)" stroke-linecap="butt" stroke-linejoin="round" stroke-opacity="1.0" stroke-width="3.0" />
            <path d=" M 1547.735, 1369.496 1548.785, 1360.285 1549.852, 1350.929 1544.848, 1342.591 1542.846, 1339.256 1537.974, 1338.746 " fill="none" stroke="rgb(0, 119, 0)" stroke-linecap="butt" stroke-linejoin="round" stroke-opacity="1.0" stroke-width="3.0" />
            <path d=" M 1542.846, 1339.256 1541.696, 1349.189 1540.545, 1359.123 1540.484, 1359.652 1539.797, 1365.584 " fill="none" stroke="rgb(0, 119, 0)" stroke-linecap="butt" stroke-linejoin="round" stroke-opacity="1.0" stroke-width="3.0" />
            <path d=" M 1538.654, 1375.452 1528.715, 1374.345 1518.776, 1373.239 1508.838, 1372.132 1501.932, 1371.363 " fill="none" stroke="rgb(0, 119, 0)" stroke-linecap="butt" stroke-linejoin="round" stroke-opacity="1.0" stroke-width="3.0" />
            <path d=" M 1506.422, 1433.560 1505.488, 1433.445 1498.613, 1432.602 1491.924, 1431.781 1491.227, 1437.393 1490.872, 1440.257 1490.857, 1440.376 1489.625, 1450.299 1489.315, 1452.788 1488.446, 1459.785 1488.341, 1460.631 1488.277, 1461.147 1487.449, 1467.818 1487.424, 1468.018 1486.930, 1471.994 1486.765, 1473.321 1489.841, 1477.332 1492.723, 1481.091 1493.267, 1481.800 1495.476, 1484.681 1502.669, 1485.633 " fill="none" stroke="rgb(0, 119, 0)" stroke-linecap="butt" stroke-linejoin="round" stroke-opacity="1.0" stroke-width="3.0" />
            <path d=" M 1491.924, 1431.781 1496.454, 1438.040 1497.729, 1439.800 1500.490, 1443.616 " fill="none" stroke="rgb(0, 119, 0)" stroke-linecap="butt" stroke-linejoin="round" stroke-opacity="1.0" stroke-width="3.0" />
            <path d=" M 1541.196, 1448.690 1538.247, 1448.322 1534.616, 1447.870 1534.346, 1447.836 1530.132, 1447.311 1524.126, 1446.562 1514.202, 1445.325 1512.870, 1445.159 1511.309, 1444.964 1501.386, 1443.727 1500.490, 1443.616 1499.278, 1453.542 1498.257, 1461.901 1497.045, 1471.827 1496.867, 1473.287 1496.270, 1478.175 1495.476, 1484.681 " fill="none" stroke="rgb(0, 119, 0)" stroke-linecap="butt" stroke-linejoin="round" stroke-opacity="1.0" stroke-width="3.0" />
            <path d=" M 1536.636, 1488.846 1537.166, 1484.185 1537.673, 1479.712 1538.022, 1476.643 1538.218, 1474.916 1538.516, 1472.295 1539.644, 1462.359 1539.749, 1461.430 1539.783, 1461.131 1539.795, 1461.024 1540.457, 1455.193 1540.693, 1453.119 1540.840, 1451.821 1540.849, 1451.743 1540.855, 1451.688 1540.974, 1450.638 1541.196, 1448.690 1540.271, 1447.330 1539.526, 1446.234 1538.635, 1444.924 1538.617, 1444.897 1538.034, 1444.040 1533.136, 1436.837 1531.370, 1436.620 " fill="none" stroke="rgb(0, 119, 0)" stroke-linecap="butt" stroke-linejoin="round" stroke-opacity="1.0" stroke-width="3.0" />
            <path d=" M 1533.136, 1436.837 1532.385, 1443.341 1532.258, 1444.438 1531.676, 1449.475 1531.549, 1450.579 1530.402, 1460.513 1530.239, 1461.919 1529.092, 1471.853 1528.325, 1478.493 1528.297, 1478.739 " fill="none" stroke="rgb(0, 119, 0)" stroke-linecap="butt" stroke-linejoin="round" stroke-opacity="1.0" stroke-width="3.0" />
            <path d=" M 1486.765, 1473.321 1496.681, 1474.614 1506.597, 1475.908 1508.663, 1476.178 1509.156, 1476.242 1510.898, 1476.469 1512.360, 1476.660 1522.276, 1477.953 1528.297, 1478.739 1534.144, 1486.851 1535.234, 1488.362 " fill="none" stroke="rgb(0, 119, 0)" stroke-linecap="butt" stroke-linejoin="round" stroke-opacity="1.0" stroke-width="3.0" />
            <path d=" M 1502.771, 1347.509 1504.544, 1350.246 1509.398, 1357.739 " fill="none" stroke="rgb(0, 119, 0)" stroke-linecap="butt" stroke-linejoin="round" stroke-opacity="1.0" stroke-width="3.0" />
            <path d=" M 1541.451, 1361.223 1536.775, 1360.715 1526.833, 1359.634 1516.892, 1358.554 1509.398, 1357.739 1508.183, 1367.665 1506.967, 1377.591 1506.829, 1378.721 1505.614, 1388.647 1505.516, 1389.440 " fill="none" stroke="rgb(0, 119, 0)" stroke-linecap="butt" stroke-linejoin="round" stroke-opacity="1.0" stroke-width="3.0" />
            <path d=" M 1539.627, 1377.002 1540.766, 1367.147 1541.451, 1361.223 1540.484, 1359.652 1540.308, 1359.366 1536.320, 1352.892 " fill="none" stroke="rgb(0, 119, 0)" stroke-linecap="butt" stroke-linejoin="round" stroke-opacity="1.0" stroke-width="3.0" />
            <path d=" M 1445.252, 1427.394 1444.904, 1429.989 1443.575, 1439.900 1443.162, 1442.984 1447.288, 1448.202 1452.846, 1455.232 1462.766, 1456.500 1465.415, 1456.839 1467.175, 1457.064 1468.137, 1457.187 1474.280, 1457.973 1474.577, 1458.011 1478.975, 1458.574 1485.625, 1459.425 1488.446, 1459.785 1495.169, 1460.645 1496.388, 1450.720 1496.682, 1448.329 1497.570, 1441.090 1497.729, 1439.800 1497.922, 1438.221 1498.613, 1432.602 1498.738, 1431.576 " fill="none" stroke="rgb(0, 119, 0)" stroke-linecap="butt" stroke-linejoin="round" stroke-opacity="1.0" stroke-width="3.0" />
            <path d=" M 1448.916, 1400.057 1454.896, 1408.071 1458.433, 1412.810 " fill="none" stroke="rgb(0, 119, 0)" stroke-linecap="butt" stroke-linejoin="round" stroke-opacity="1.0" stroke-width="3.0" />
            <path d=" M 1500.424, 1417.846 1499.581, 1417.745 1489.652, 1416.554 1479.724, 1415.363 1469.795, 1414.173 1459.866, 1412.982 1458.433, 1412.810 1457.127, 1422.724 1456.333, 1428.756 1455.027, 1438.671 1453.722, 1448.585 1452.846, 1455.232 " fill="none" stroke="rgb(0, 119, 0)" stroke-linecap="butt" stroke-linejoin="round" stroke-opacity="1.0" stroke-width="3.0" />
            <path d=" M 1500.094, 1420.534 1500.209, 1419.602 1500.404, 1418.008 1500.424, 1417.846 1499.696, 1416.809 " fill="none" stroke="rgb(0, 119, 0)" stroke-linecap="butt" stroke-linejoin="round" stroke-opacity="1.0" stroke-width="3.0" />
            <path d=" M 1469.535, 1446.303 1466.819, 1445.962 1456.897, 1444.713 1446.976, 1443.464 1443.162, 1442.984 " fill="none" stroke="rgb(0, 119, 0)" stroke-linecap="butt" stroke-linejoin="round" stroke-opacity="1.0" stroke-width="3.0" />
            <path d=" M 1486.864, 1449.498 1489.315, 1452.788 1495.169, 1460.645 " fill="none" stroke="rgb(0, 119, 0)" stroke-linecap="butt" stroke-linejoin="round" stroke-opacity="1.0" stroke-width="3.0" />
            <path d=" M 1473.261, 1465.982 1464.384, 1464.833 " fill="none" stroke="rgb(0, 119, 0)" stroke-linecap="butt" stroke-linejoin="round" stroke-opacity="1.0" stroke-width="3.0" />
            <path d=" M 1532.098, 1430.340 1532.500, 1430.935 " fill="none" stroke="rgb(0, 119, 0)" stroke-linecap="butt" stroke-linejoin="round" stroke-opacity="1.0" stroke-width="3.0" />
            <path d=" M 1566.248, 1464.491 1556.328, 1463.232 1555.562, 1463.134 1554.548, 1463.006 1544.984, 1461.791 1544.094, 1461.678 1539.783, 1461.131 1538.354, 1460.950 1532.917, 1460.259 1528.693, 1459.723 " fill="none" stroke="rgb(0, 119, 0)" stroke-linecap="butt" stroke-linejoin="round" stroke-opacity="1.0" stroke-width="3.0" />
        </g>
    </g>
</svg>
