<?xml version='1.0' encoding='ascii'?>
<svg xmlns="http://www.w3.org/2000/svg" xmlns:inkscape="http://www.inkscape.org/namespaces/inkscape" height="1485" version="1.1" width="2100">
    <g id="fressstylelayer_LineSet" inkscape:groupmode="lineset" inkscape:label="fressstylelayer_LineSet">
        <g id="strokes" inkscape:groupmode="layer" inkscape:label="strokes">
            <path d=" M 1497.446, 1443.052 1503.724, 1435.268 1505.670, 1432.854 1498.104, 1426.315 1490.539, 1419.776 1482.973, 1413.237 1476.986, 1408.063 1474.304, 1405.988 1468.012, 1413.760 1466.264, 1415.920 " fill="none" stroke="rgb(157, 20, 170)" stroke-linecap="butt" stroke-linejoin="round" stroke-opacity="1.0" stroke-width="3.0" />
            <path d=" M 1469.040, 1464.465 1471.270, 1461.702 1471.571, 1461.329 1476.266, 1455.512 1476.486, 1455.239 1482.766, 1447.457 1485.210, 1444.429 1485.320, 1444.293 1490.894, 1437.386 1490.899, 1437.380 1490.950, 1437.316 1488.171, 1434.900 1480.613, 1428.352 1473.055, 1421.804 1468.829, 1418.142 1466.264, 1415.920 1461.156, 1411.494 1454.862, 1419.265 1448.568, 1427.036 1442.274, 1434.807 1439.588, 1438.123 1441.654, 1440.582 1443.711, 1442.376 1446.892, 1445.150 1454.429, 1451.723 1459.023, 1455.729 1461.847, 1458.192 1464.701, 1460.681 1467.658, 1463.260 1469.040, 1464.465 " fill="none" stroke="rgb(157, 20, 170)" stroke-linecap="butt" stroke-linejoin="round" stroke-opacity="1.0" stroke-width="3.0" />
            <path d=" M 1441.654, 1440.582 1447.946, 1432.810 1454.239, 1425.038 1460.532, 1417.266 1463.532, 1413.561 " fill="none" stroke="rgb(157, 20, 170)" stroke-linecap="butt" stroke-linejoin="round" stroke-opacity="1.0" stroke-width="3.0" />
            <path d=" M 1490.950, 1437.316 1483.393, 1430.768 1475.835, 1424.220 1468.277, 1417.672 1466.260, 1415.925 1463.532, 1413.561 1461.156, 1411.494 " fill="none" stroke="rgb(157, 20, 170)" stroke-linecap="butt" stroke-linejoin="round" stroke-opacity="1.0" stroke-width="3.0" />
            <path d=" M 1501.137, 1505.175 1507.400, 1497.379 1513.663, 1489.583 1519.926, 1481.787 1522.428, 1478.673 1519.278, 1475.739 1511.727, 1469.183 1506.312, 1464.482 " fill="none" stroke="rgb(157, 20, 170)" stroke-linecap="butt" stroke-linejoin="round" stroke-opacity="1.0" stroke-width="3.0" />
            <path d=" M 1522.428, 1478.673 1514.877, 1472.118 1507.325, 1465.562 1506.217, 1464.600 " fill="none" stroke="rgb(157, 20, 170)" stroke-linecap="butt" stroke-linejoin="round" stroke-opacity="1.0" stroke-width="3.0" />
            <path d=" M 1546.703, 1428.195 1552.970, 1420.403 1554.676, 1418.282 1555.095, 1417.761 1561.362, 1409.969 1567.381, 1402.486 1568.018, 1401.693 1560.414, 1395.199 1552.810, 1388.705 1548.483, 1385.010 1545.045, 1382.075 1543.130, 1380.439 1540.943, 1378.571 1540.331, 1378.297 1538.986, 1377.693 1537.530, 1377.040 1534.647, 1380.612 1534.026, 1381.380 1527.745, 1389.162 1527.241, 1389.786 1526.595, 1390.587 1525.739, 1391.647 1525.528, 1391.909 1519.247, 1399.690 1516.538, 1403.046 1523.385, 1408.932 1526.818, 1411.883 1527.534, 1412.498 1530.483, 1415.032 1538.066, 1421.551 1539.627, 1422.892 1541.427, 1424.439 1542.291, 1425.181 1543.192, 1425.956 1545.638, 1427.516 1546.703, 1428.195 " fill="none" stroke="rgb(157, 20, 170)" stroke-linecap="butt" stroke-linejoin="round" stroke-opacity="1.0" stroke-width="3.0" />
            <path d=" M 1516.538, 1403.046 1519.656, 1404.951 " fill="none" stroke="rgb(157, 20, 170)" stroke-linecap="butt" stroke-linejoin="round" stroke-opacity="1.0" stroke-width="3.0" />
            <path d=" M 1546.703, 1428.195 1545.750, 1427.377 1539.997, 1422.432 1532.413, 1415.914 1530.853, 1414.573 1523.755, 1408.473 1519.656, 1404.951 1525.936, 1397.169 1529.992, 1392.142 1536.271, 1384.360 1537.398, 1382.964 1540.306, 1379.360 1540.943, 1378.571 " fill="none" stroke="rgb(157, 20, 170)" stroke-linecap="butt" stroke-linejoin="round" stroke-opacity="1.0" stroke-width="3.0" />
            <path d=" M 1586.609, 1449.109 1594.199, 1455.619 1601.789, 1462.130 1603.433, 1463.540 1607.750, 1466.281 1613.993, 1458.469 1620.235, 1450.657 1626.478, 1442.845 1628.704, 1440.059 1628.029, 1439.483 1624.500, 1436.476 1616.890, 1429.989 1609.279, 1423.502 1603.413, 1418.502 1601.774, 1417.105 1599.878, 1416.184 1597.560, 1415.058 1594.178, 1419.275 " fill="none" stroke="rgb(157, 20, 170)" stroke-linecap="butt" stroke-linejoin="round" stroke-opacity="1.0" stroke-width="3.0" />
            <path d=" M 1535.522, 1440.092 1543.097, 1446.621 1550.671, 1453.150 1552.920, 1455.089 1556.078, 1457.387 1562.337, 1449.588 1568.595, 1441.789 1568.925, 1441.378 " fill="none" stroke="rgb(157, 20, 170)" stroke-linecap="butt" stroke-linejoin="round" stroke-opacity="1.0" stroke-width="3.0" />
            <path d=" M 1529.772, 1435.135 1532.635, 1437.180 " fill="none" stroke="rgb(157, 20, 170)" stroke-linecap="butt" stroke-linejoin="round" stroke-opacity="1.0" stroke-width="3.0" />
            <path d=" M 1556.078, 1457.387 1548.504, 1450.858 1540.929, 1444.329 1535.723, 1439.842 1532.635, 1437.180 1538.905, 1429.389 1540.728, 1427.123 1542.291, 1425.181 " fill="none" stroke="rgb(157, 20, 170)" stroke-linecap="butt" stroke-linejoin="round" stroke-opacity="1.0" stroke-width="3.0" />
            <path d=" M 1460.538, 1459.812 1463.392, 1462.302 1466.349, 1464.882 1473.885, 1471.456 1476.192, 1473.468 1477.451, 1474.567 1479.048, 1475.960 1481.314, 1477.937 1488.849, 1484.511 1489.637, 1485.198 1493.180, 1480.797 1493.481, 1480.422 1499.752, 1472.632 1506.022, 1464.842 1506.217, 1464.600 1506.312, 1464.482 1512.582, 1456.692 1512.827, 1456.389 1509.550, 1453.539 1501.992, 1446.991 1497.446, 1443.052 1494.441, 1440.449 1490.899, 1437.380 " fill="none" stroke="rgb(157, 20, 170)" stroke-linecap="butt" stroke-linejoin="round" stroke-opacity="1.0" stroke-width="3.0" />
            <path d=" M 1460.538, 1459.812 1461.847, 1458.192 " fill="none" stroke="rgb(157, 20, 170)" stroke-linecap="butt" stroke-linejoin="round" stroke-opacity="1.0" stroke-width="3.0" />
            <path d=" M 1512.827, 1456.389 1505.269, 1449.840 1497.711, 1443.292 1497.441, 1443.058 1490.894, 1437.386 " fill="none" stroke="rgb(157, 20, 170)" stroke-linecap="butt" stroke-linejoin="round" stroke-opacity="1.0" stroke-width="3.0" />
            <path d=" M 1628.029, 1439.483 1631.173, 1435.549 1623.560, 1429.065 1615.946, 1422.582 1608.333, 1416.099 1606.554, 1414.584 1602.637, 1412.743 1599.878, 1416.184 " fill="none" stroke="rgb(157, 20, 170)" stroke-linecap="butt" stroke-linejoin="round" stroke-opacity="1.0" stroke-width="3.0" />
            <path d=" M 1576.787, 1404.796 1577.551, 1403.846 1583.815, 1396.051 1590.079, 1388.256 1594.070, 1383.290 1594.928, 1382.223 1599.169, 1376.946 1591.541, 1370.479 1583.913, 1364.013 1576.286, 1357.546 1568.658, 1351.079 1568.074, 1350.585 1563.742, 1349.285 1557.462, 1357.068 1551.182, 1364.850 1544.902, 1372.632 1540.331, 1378.297 " fill="none" stroke="rgb(157, 20, 170)" stroke-linecap="butt" stroke-linejoin="round" stroke-opacity="1.0" stroke-width="3.0" />
            <path d=" M 1543.762, 1380.725 1550.040, 1372.941 1556.319, 1365.158 1562.597, 1357.374 1568.074, 1350.585 " fill="none" stroke="rgb(157, 20, 170)" stroke-linecap="butt" stroke-linejoin="round" stroke-opacity="1.0" stroke-width="3.0" />
            <path d=" M 1543.130, 1380.439 1543.762, 1380.725 1545.167, 1381.924 1552.771, 1388.418 1560.376, 1394.912 1567.980, 1401.406 1572.515, 1405.279 " fill="none" stroke="rgb(157, 20, 170)" stroke-linecap="butt" stroke-linejoin="round" stroke-opacity="1.0" stroke-width="3.0" />
            <path d=" M 1443.711, 1442.376 1437.419, 1450.149 1431.972, 1456.878 1434.520, 1460.440 1442.044, 1467.026 1449.569, 1473.613 1452.317, 1476.018 1455.272, 1478.605 1462.797, 1485.191 1470.228, 1491.695 1476.502, 1483.909 1476.623, 1483.759 1477.008, 1483.281 1481.314, 1477.937 " fill="none" stroke="rgb(157, 20, 170)" stroke-linecap="butt" stroke-linejoin="round" stroke-opacity="1.0" stroke-width="3.0" />
            <path d=" M 1434.520, 1460.440 1440.810, 1452.666 1446.892, 1445.150 " fill="none" stroke="rgb(157, 20, 170)" stroke-linecap="butt" stroke-linejoin="round" stroke-opacity="1.0" stroke-width="3.0" />
            <path d=" M 1583.632, 1410.276 1589.894, 1402.478 1596.155, 1394.681 1601.607, 1387.892 1594.928, 1382.223 " fill="none" stroke="rgb(157, 20, 170)" stroke-linecap="butt" stroke-linejoin="round" stroke-opacity="1.0" stroke-width="3.0" />
            <path d=" M 1486.154, 1403.928 1492.443, 1396.153 1498.731, 1388.378 1503.739, 1382.187 1496.151, 1375.674 1488.562, 1369.161 1481.657, 1363.235 1479.531, 1362.150 1473.232, 1369.917 1466.932, 1377.683 1462.167, 1383.556 1469.739, 1390.089 1477.310, 1396.622 1483.967, 1402.366 1486.154, 1403.928 " fill="none" stroke="rgb(157, 20, 170)" stroke-linecap="butt" stroke-linejoin="round" stroke-opacity="1.0" stroke-width="3.0" />
            <path d=" M 1462.167, 1383.556 1464.093, 1384.893 " fill="none" stroke="rgb(157, 20, 170)" stroke-linecap="butt" stroke-linejoin="round" stroke-opacity="1.0" stroke-width="3.0" />
            <path d=" M 1486.154, 1403.928 1478.582, 1397.395 1471.011, 1390.862 1464.093, 1384.893 1470.391, 1377.126 1476.690, 1369.359 1481.657, 1363.235 " fill="none" stroke="rgb(157, 20, 170)" stroke-linecap="butt" stroke-linejoin="round" stroke-opacity="1.0" stroke-width="3.0" />
            <path d=" M 1583.453, 1410.122 1584.044, 1409.386 1581.172, 1406.936 1577.551, 1403.846 " fill="none" stroke="rgb(157, 20, 170)" stroke-linecap="butt" stroke-linejoin="round" stroke-opacity="1.0" stroke-width="3.0" />
            <path d=" M 1527.241, 1389.786 1526.190, 1388.885 1521.794, 1385.119 1517.820, 1383.067 1516.964, 1384.126 1516.564, 1384.621 1510.279, 1392.399 1504.304, 1399.794 1503.983, 1400.191 1497.698, 1407.969 1491.413, 1415.747 1491.237, 1415.965 1498.805, 1422.502 1506.372, 1429.039 1513.940, 1435.576 1521.508, 1442.112 1524.868, 1445.015 1528.995, 1448.206 1535.263, 1440.414 1535.522, 1440.092 " fill="none" stroke="rgb(157, 20, 170)" stroke-linecap="butt" stroke-linejoin="round" stroke-opacity="1.0" stroke-width="3.0" />
            <path d=" M 1491.237, 1415.965 1494.737, 1418.617 " fill="none" stroke="rgb(157, 20, 170)" stroke-linecap="butt" stroke-linejoin="round" stroke-opacity="1.0" stroke-width="3.0" />
            <path d=" M 1528.995, 1448.206 1521.427, 1441.670 1513.859, 1435.133 1506.291, 1428.597 1498.723, 1422.060 1494.737, 1418.617 1501.021, 1410.838 1507.309, 1403.053 1513.592, 1395.273 1519.892, 1387.474 1521.794, 1385.119 " fill="none" stroke="rgb(157, 20, 170)" stroke-linecap="butt" stroke-linejoin="round" stroke-opacity="1.0" stroke-width="3.0" />
            <path d=" M 1538.986, 1377.693 1544.207, 1371.223 1536.598, 1364.735 1528.989, 1358.246 1522.319, 1352.558 1519.757, 1351.611 1513.466, 1359.384 1507.175, 1367.157 1502.676, 1372.715 1509.433, 1378.508 1511.984, 1380.694 " fill="none" stroke="rgb(157, 20, 170)" stroke-linecap="butt" stroke-linejoin="round" stroke-opacity="1.0" stroke-width="3.0" />
            <path d=" M 1502.676, 1372.715 1505.043, 1373.908 " fill="none" stroke="rgb(157, 20, 170)" stroke-linecap="butt" stroke-linejoin="round" stroke-opacity="1.0" stroke-width="3.0" />
            <path d=" M 1516.964, 1384.126 1509.833, 1378.013 1505.043, 1373.908 1511.334, 1366.134 1517.624, 1358.360 1522.319, 1352.558 " fill="none" stroke="rgb(157, 20, 170)" stroke-linecap="butt" stroke-linejoin="round" stroke-opacity="1.0" stroke-width="3.0" />
            <path d=" M 1509.433, 1378.508 1503.145, 1386.283 1496.857, 1394.059 1503.983, 1400.191 " fill="none" stroke="rgb(157, 20, 170)" stroke-linecap="butt" stroke-linejoin="round" stroke-opacity="1.0" stroke-width="3.0" />
            <path d=" M 1496.857, 1394.059 1499.727, 1395.855 " fill="none" stroke="rgb(157, 20, 170)" stroke-linecap="butt" stroke-linejoin="round" stroke-opacity="1.0" stroke-width="3.0" />
            <path d=" M 1504.304, 1399.794 1499.727, 1395.855 1506.014, 1388.079 1511.984, 1380.694 " fill="none" stroke="rgb(157, 20, 170)" stroke-linecap="butt" stroke-linejoin="round" stroke-opacity="1.0" stroke-width="3.0" />
            <path d=" M 1583.468, 1453.029 1586.609, 1449.109 1587.065, 1448.540 1591.540, 1442.953 1592.018, 1442.356 1598.270, 1434.552 1603.877, 1427.553 1599.294, 1423.641 1597.655, 1422.243 1596.090, 1420.907 1594.178, 1419.275 1586.571, 1412.784 1583.632, 1410.276 1583.453, 1410.122 1580.641, 1407.723 1580.581, 1407.671 1577.769, 1405.272 1576.787, 1404.796 1576.336, 1404.577 1573.993, 1403.440 1573.215, 1404.408 1572.600, 1405.174 1572.515, 1405.279 1572.044, 1405.865 1565.778, 1413.659 1559.468, 1421.510 1559.048, 1422.031 1553.881, 1428.459 1558.665, 1432.567 1562.668, 1436.005 1565.966, 1438.837 1568.925, 1441.378 1576.512, 1447.892 1579.598, 1450.542 1583.468, 1453.029 " fill="none" stroke="rgb(157, 20, 170)" stroke-linecap="butt" stroke-linejoin="round" stroke-opacity="1.0" stroke-width="3.0" />
            <path d=" M 1553.881, 1428.459 1557.387, 1430.636 " fill="none" stroke="rgb(157, 20, 170)" stroke-linecap="butt" stroke-linejoin="round" stroke-opacity="1.0" stroke-width="3.0" />
            <path d=" M 1583.468, 1453.029 1575.881, 1446.515 1569.322, 1440.883 1563.065, 1435.511 1557.387, 1430.636 1562.578, 1424.176 1568.842, 1416.381 1575.106, 1408.586 1575.712, 1407.831 1577.769, 1405.272 " fill="none" stroke="rgb(157, 20, 170)" stroke-linecap="butt" stroke-linejoin="round" stroke-opacity="1.0" stroke-width="3.0" />
            <path d=" M 1589.898, 1508.675 1596.136, 1500.859 1602.374, 1493.044 1608.613, 1485.228 1612.151, 1480.796 1604.565, 1474.280 1596.979, 1467.764 1589.394, 1461.248 1583.650, 1456.314 1579.451, 1453.569 1573.198, 1461.373 1566.945, 1469.177 1560.692, 1476.981 1557.551, 1480.901 1565.115, 1487.442 1572.679, 1493.983 1580.243, 1500.523 1585.586, 1505.143 " fill="none" stroke="rgb(157, 20, 170)" stroke-linecap="butt" stroke-linejoin="round" stroke-opacity="1.0" stroke-width="3.0" />
            <path d=" M 1557.551, 1480.901 1561.429, 1484.059 " fill="none" stroke="rgb(157, 20, 170)" stroke-linecap="butt" stroke-linejoin="round" stroke-opacity="1.0" stroke-width="3.0" />
            <path d=" M 1589.898, 1508.675 1582.333, 1502.134 1574.769, 1495.593 1567.205, 1489.053 1561.429, 1484.059 1567.680, 1476.254 1573.932, 1468.448 1580.183, 1460.643 1583.650, 1456.314 " fill="none" stroke="rgb(157, 20, 170)" stroke-linecap="butt" stroke-linejoin="round" stroke-opacity="1.0" stroke-width="3.0" />
            <path d=" M 1446.316, 1489.701 1452.597, 1481.919 1455.272, 1478.605 " fill="none" stroke="rgb(157, 20, 170)" stroke-linecap="butt" stroke-linejoin="round" stroke-opacity="1.0" stroke-width="3.0" />
            <path d=" M 1499.469, 1486.278 1493.180, 1480.797 " fill="none" stroke="rgb(157, 20, 170)" stroke-linecap="butt" stroke-linejoin="round" stroke-opacity="1.0" stroke-width="3.0" />
            <path d=" M 1452.317, 1476.018 1446.034, 1483.798 1444.020, 1486.293 " fill="none" stroke="rgb(157, 20, 170)" stroke-linecap="butt" stroke-linejoin="round" stroke-opacity="1.0" stroke-width="3.0" />
            <path d=" M 1468.829, 1418.142 1475.120, 1410.369 1476.986, 1408.063 " fill="none" stroke="rgb(157, 20, 170)" stroke-linecap="butt" stroke-linejoin="round" stroke-opacity="1.0" stroke-width="3.0" />
            <path d=" M 1559.468, 1421.510 1555.095, 1417.761 " fill="none" stroke="rgb(157, 20, 170)" stroke-linecap="butt" stroke-linejoin="round" stroke-opacity="1.0" stroke-width="3.0" />
            <path d=" M 1597.655, 1422.243 1601.774, 1417.105 " fill="none" stroke="rgb(157, 20, 170)" stroke-linecap="butt" stroke-linejoin="round" stroke-opacity="1.0" stroke-width="3.0" />
            <path d=" M 1603.413, 1418.502 1606.554, 1414.584 " fill="none" stroke="rgb(157, 20, 170)" stroke-linecap="butt" stroke-linejoin="round" stroke-opacity="1.0" stroke-width="3.0" />
            <path d=" M 1587.065, 1448.540 1594.655, 1455.050 1602.246, 1461.560 1607.750, 1466.281 " fill="none" stroke="rgb(157, 20, 170)" stroke-linecap="butt" stroke-linejoin="round" stroke-opacity="1.0" stroke-width="3.0" />
        </g>
    </g>
    <g id="fressstylelayer_hidden lines" inkscape:groupmode="lineset" inkscape:label="fressstylelayer_hidden lines" xmlns:inkscape="http://www.inkscape.org/namespaces/inkscape">
        <g id="strokes" inkscape:groupmode="layer" inkscape:label="strokes" xmlns:inkscape="http://www.inkscape.org/namespaces/inkscape">
            <path d=" M 1466.264, 1415.920 1466.260, 1415.925 1460.637, 1422.872 1460.614, 1422.900 1454.323, 1430.673 1451.815, 1433.772 1454.114, 1436.226 1454.158, 1436.273 1461.702, 1442.838 1466.245, 1446.791 1469.070, 1449.250 1473.485, 1453.092 1476.266, 1455.512 1482.808, 1461.204 1489.085, 1453.420 1491.755, 1450.109 1491.865, 1449.973 1497.441, 1443.058 1497.446, 1443.052 " fill="none" stroke="rgb(0, 119, 0)" stroke-linecap="butt" stroke-linejoin="round" stroke-opacity="1.0" stroke-width="3.0" />
            <path d=" M 1482.808, 1461.204 1480.025, 1458.319 " fill="none" stroke="rgb(0, 119, 0)" stroke-linecap="butt" stroke-linejoin="round" stroke-opacity="1.0" stroke-width="3.0" />
            <path d=" M 1451.815, 1433.772 1459.358, 1440.336 1466.464, 1446.519 1474.008, 1453.084 1476.486, 1455.239 1480.025, 1458.319 1486.304, 1450.536 1488.861, 1447.366 1494.441, 1440.449 1500.720, 1432.666 1502.548, 1430.400 " fill="none" stroke="rgb(0, 119, 0)" stroke-linecap="butt" stroke-linejoin="round" stroke-opacity="1.0" stroke-width="3.0" />
            <path d=" M 1474.304, 1405.988 1481.870, 1412.527 1489.435, 1419.066 1497.001, 1425.605 1502.548, 1430.400 1505.670, 1432.854 " fill="none" stroke="rgb(0, 119, 0)" stroke-linecap="butt" stroke-linejoin="round" stroke-opacity="1.0" stroke-width="3.0" />
            <path d=" M 1454.158, 1436.273 1460.448, 1428.499 1463.201, 1425.097 1468.829, 1418.142 " fill="none" stroke="rgb(0, 119, 0)" stroke-linecap="butt" stroke-linejoin="round" stroke-opacity="1.0" stroke-width="3.0" />
            <path d=" M 1469.040, 1464.465 1466.573, 1461.653 " fill="none" stroke="rgb(0, 119, 0)" stroke-linecap="butt" stroke-linejoin="round" stroke-opacity="1.0" stroke-width="3.0" />
            <path d=" M 1439.588, 1438.123 1444.023, 1441.990 1451.560, 1448.563 1459.097, 1455.135 1459.335, 1455.342 1465.013, 1460.294 1466.573, 1461.653 1468.791, 1458.906 1473.485, 1453.092 1479.767, 1445.311 1482.538, 1441.878 1488.116, 1434.969 1488.171, 1434.900 " fill="none" stroke="rgb(0, 119, 0)" stroke-linecap="butt" stroke-linejoin="round" stroke-opacity="1.0" stroke-width="3.0" />
            <path d=" M 1498.282, 1501.864 1504.547, 1494.069 1510.811, 1486.275 1517.075, 1478.480 1519.278, 1475.739 " fill="none" stroke="rgb(0, 119, 0)" stroke-linecap="butt" stroke-linejoin="round" stroke-opacity="1.0" stroke-width="3.0" />
            <path d=" M 1506.312, 1464.482 1503.031, 1461.634 1497.981, 1457.251 1494.115, 1453.895 1492.855, 1452.800 1486.578, 1460.585 1480.302, 1468.370 1480.033, 1468.703 1479.732, 1469.077 1476.541, 1473.035 1476.192, 1473.468 1471.887, 1478.807 1472.977, 1480.118 1474.358, 1481.780 1476.623, 1483.759 1484.154, 1490.338 1487.805, 1493.528 " fill="none" stroke="rgb(0, 119, 0)" stroke-linecap="butt" stroke-linejoin="round" stroke-opacity="1.0" stroke-width="3.0" />
            <path d=" M 1474.358, 1481.780 1479.048, 1475.960 1482.890, 1471.193 1489.166, 1463.407 1495.441, 1455.621 1495.619, 1455.400 " fill="none" stroke="rgb(0, 119, 0)" stroke-linecap="butt" stroke-linejoin="round" stroke-opacity="1.0" stroke-width="3.0" />
            <path d=" M 1506.217, 1464.600 1498.666, 1458.044 1497.887, 1457.368 1495.619, 1455.400 1492.855, 1452.800 " fill="none" stroke="rgb(0, 119, 0)" stroke-linecap="butt" stroke-linejoin="round" stroke-opacity="1.0" stroke-width="3.0" />
            <path d=" M 1543.192, 1425.956 1549.461, 1418.165 1551.953, 1415.068 1553.911, 1412.635 1560.179, 1404.844 1564.213, 1399.831 " fill="none" stroke="rgb(0, 119, 0)" stroke-linecap="butt" stroke-linejoin="round" stroke-opacity="1.0" stroke-width="3.0" />
            <path d=" M 1537.530, 1377.040 1538.704, 1378.043 1544.384, 1382.895 1551.988, 1389.389 1559.592, 1395.884 1564.213, 1399.831 1564.354, 1399.900 1568.018, 1401.693 " fill="none" stroke="rgb(0, 119, 0)" stroke-linecap="butt" stroke-linejoin="round" stroke-opacity="1.0" stroke-width="3.0" />
            <path d=" M 1603.433, 1463.540 1608.414, 1457.309 1614.658, 1449.498 1620.903, 1441.687 1624.102, 1437.686 " fill="none" stroke="rgb(0, 119, 0)" stroke-linecap="butt" stroke-linejoin="round" stroke-opacity="1.0" stroke-width="3.0" />
            <path d=" M 1597.560, 1415.058 1599.473, 1416.689 1607.083, 1423.177 1614.692, 1429.665 1622.302, 1436.152 1624.102, 1437.686 1627.900, 1439.645 1628.704, 1440.059 " fill="none" stroke="rgb(0, 119, 0)" stroke-linecap="butt" stroke-linejoin="round" stroke-opacity="1.0" stroke-width="3.0" />
            <path d=" M 1594.178, 1419.275 1593.514, 1420.103 1587.257, 1427.904 1581.001, 1435.705 1576.918, 1440.796 1583.135, 1446.129 1586.609, 1449.109 " fill="none" stroke="rgb(0, 119, 0)" stroke-linecap="butt" stroke-linejoin="round" stroke-opacity="1.0" stroke-width="3.0" />
            <path d=" M 1576.918, 1440.796 1580.848, 1443.208 " fill="none" stroke="rgb(0, 119, 0)" stroke-linecap="butt" stroke-linejoin="round" stroke-opacity="1.0" stroke-width="3.0" />
            <path d=" M 1587.065, 1448.540 1580.848, 1443.208 1585.323, 1437.627 1591.577, 1429.824 1597.655, 1422.243 " fill="none" stroke="rgb(0, 119, 0)" stroke-linecap="butt" stroke-linejoin="round" stroke-opacity="1.0" stroke-width="3.0" />
            <path d=" M 1552.920, 1455.089 1559.180, 1447.291 1565.439, 1439.492 1565.966, 1438.837 1571.136, 1432.395 " fill="none" stroke="rgb(0, 119, 0)" stroke-linecap="butt" stroke-linejoin="round" stroke-opacity="1.0" stroke-width="3.0" />
            <path d=" M 1547.967, 1412.530 1553.723, 1417.465 1554.676, 1418.282 1559.048, 1422.031 1566.640, 1428.540 1567.838, 1429.567 1571.136, 1432.395 1574.516, 1434.410 " fill="none" stroke="rgb(0, 119, 0)" stroke-linecap="butt" stroke-linejoin="round" stroke-opacity="1.0" stroke-width="3.0" />
            <path d=" M 1555.095, 1417.761 1554.142, 1416.944 1551.953, 1415.068 1551.051, 1414.294 1550.052, 1413.723 1547.967, 1412.530 1541.697, 1420.320 1539.997, 1422.432 1539.627, 1422.892 1538.484, 1424.311 1538.064, 1424.833 1531.794, 1432.622 1529.772, 1435.135 1531.571, 1436.686 1535.522, 1440.092 " fill="none" stroke="rgb(0, 119, 0)" stroke-linecap="butt" stroke-linejoin="round" stroke-opacity="1.0" stroke-width="3.0" />
            <path d=" M 1568.925, 1441.378 1569.322, 1440.883 1574.516, 1434.410 1568.257, 1429.045 1564.253, 1425.612 1562.578, 1424.176 1559.468, 1421.510 " fill="none" stroke="rgb(0, 119, 0)" stroke-linecap="butt" stroke-linejoin="round" stroke-opacity="1.0" stroke-width="3.0" />
            <path d=" M 1489.637, 1485.198 1486.709, 1481.904 " fill="none" stroke="rgb(0, 119, 0)" stroke-linecap="butt" stroke-linejoin="round" stroke-opacity="1.0" stroke-width="3.0" />
            <path d=" M 1458.064, 1456.916 1463.741, 1461.869 1471.277, 1468.443 1476.541, 1473.035 1481.664, 1477.503 1486.709, 1481.904 1490.203, 1477.565 1496.474, 1469.776 1502.746, 1461.988 1503.031, 1461.634 1509.303, 1453.846 1509.550, 1453.539 " fill="none" stroke="rgb(0, 119, 0)" stroke-linecap="butt" stroke-linejoin="round" stroke-opacity="1.0" stroke-width="3.0" />
            <path d=" M 1490.899, 1437.380 1488.116, 1434.969 1480.870, 1428.691 1475.294, 1435.592 1475.184, 1435.728 1468.899, 1443.506 1466.464, 1446.519 1466.245, 1446.791 1459.960, 1454.569 1459.335, 1455.342 1459.023, 1455.729 1458.064, 1456.916 1460.538, 1459.812 " fill="none" stroke="rgb(0, 119, 0)" stroke-linecap="butt" stroke-linejoin="round" stroke-opacity="1.0" stroke-width="3.0" />
            <path d=" M 1483.693, 1431.147 1480.870, 1428.691 " fill="none" stroke="rgb(0, 119, 0)" stroke-linecap="butt" stroke-linejoin="round" stroke-opacity="1.0" stroke-width="3.0" />
            <path d=" M 1599.878, 1416.184 1599.473, 1416.689 1596.090, 1420.907 1595.427, 1421.735 1589.171, 1429.537 1583.759, 1436.287 1585.323, 1437.627 1588.066, 1439.976 1591.540, 1442.953 1599.135, 1449.458 1606.730, 1455.963 1608.030, 1457.077 1608.414, 1457.309 1612.034, 1459.498 1618.277, 1451.686 1624.520, 1443.874 1627.900, 1439.645 1628.029, 1439.483 " fill="none" stroke="rgb(0, 119, 0)" stroke-linecap="butt" stroke-linejoin="round" stroke-opacity="1.0" stroke-width="3.0" />
            <path d=" M 1608.030, 1457.077 1614.275, 1449.266 1620.519, 1441.456 1624.500, 1436.476 1626.931, 1433.436 " fill="none" stroke="rgb(0, 119, 0)" stroke-linecap="butt" stroke-linejoin="round" stroke-opacity="1.0" stroke-width="3.0" />
            <path d=" M 1602.637, 1412.743 1610.250, 1419.227 1617.863, 1425.711 1625.475, 1432.196 1626.931, 1433.436 1631.173, 1435.549 " fill="none" stroke="rgb(0, 119, 0)" stroke-linecap="butt" stroke-linejoin="round" stroke-opacity="1.0" stroke-width="3.0" />
            <path d=" M 1583.759, 1436.287 1587.438, 1438.433 " fill="none" stroke="rgb(0, 119, 0)" stroke-linecap="butt" stroke-linejoin="round" stroke-opacity="1.0" stroke-width="3.0" />
            <path d=" M 1612.034, 1459.498 1604.439, 1452.993 1596.843, 1446.488 1592.018, 1442.356 1587.438, 1438.433 1593.692, 1430.631 1599.294, 1423.641 1603.413, 1418.502 " fill="none" stroke="rgb(0, 119, 0)" stroke-linecap="butt" stroke-linejoin="round" stroke-opacity="1.0" stroke-width="3.0" />
            <path d=" M 1540.331, 1378.297 1539.813, 1378.939 1540.306, 1379.360 1544.409, 1382.864 1547.846, 1385.800 1555.450, 1392.295 1563.053, 1398.790 1564.354, 1399.900 1567.381, 1402.486 1570.354, 1405.025 1572.044, 1405.865 1574.818, 1407.245 1574.903, 1407.140 1575.518, 1406.374 1576.296, 1405.406 1576.708, 1404.894 1576.787, 1404.796 " fill="none" stroke="rgb(0, 119, 0)" stroke-linecap="butt" stroke-linejoin="round" stroke-opacity="1.0" stroke-width="3.0" />
            <path d=" M 1570.354, 1405.025 1571.197, 1403.976 1573.845, 1400.684 1580.111, 1392.890 1586.377, 1385.097 1591.219, 1379.074 1594.320, 1375.217 " fill="none" stroke="rgb(0, 119, 0)" stroke-linecap="butt" stroke-linejoin="round" stroke-opacity="1.0" stroke-width="3.0" />
            <path d=" M 1563.742, 1349.285 1571.369, 1355.753 1578.995, 1362.221 1586.622, 1368.689 1594.320, 1375.217 1599.169, 1376.946 " fill="none" stroke="rgb(0, 119, 0)" stroke-linecap="butt" stroke-linejoin="round" stroke-opacity="1.0" stroke-width="3.0" />
            <path d=" M 1539.813, 1378.939 1543.130, 1380.439 " fill="none" stroke="rgb(0, 119, 0)" stroke-linecap="butt" stroke-linejoin="round" stroke-opacity="1.0" stroke-width="3.0" />
            <path d=" M 1431.972, 1456.878 1439.497, 1463.464 1447.022, 1470.049 1452.948, 1475.235 1460.474, 1481.821 1467.000, 1487.532 1472.977, 1480.118 1477.451, 1474.567 1481.293, 1469.801 1487.569, 1462.016 1493.845, 1454.230 1494.115, 1453.895 1495.049, 1452.737 " fill="none" stroke="rgb(0, 119, 0)" stroke-linecap="butt" stroke-linejoin="round" stroke-opacity="1.0" stroke-width="3.0" />
            <path d=" M 1481.314, 1477.937 1481.664, 1477.503 1484.855, 1473.542 1485.156, 1473.168 1491.431, 1465.381 1497.705, 1457.594 1497.887, 1457.368 1497.981, 1457.251 1498.806, 1456.228 1495.049, 1452.737 1491.865, 1449.973 1488.861, 1447.366 1485.320, 1444.293 1482.538, 1441.878 1478.121, 1438.045 1475.294, 1435.592 1467.742, 1429.037 1463.201, 1425.097 1460.637, 1422.872 1459.969, 1422.292 1453.677, 1430.065 1447.385, 1437.837 1444.023, 1441.990 1443.711, 1442.376 " fill="none" stroke="rgb(0, 119, 0)" stroke-linecap="butt" stroke-linejoin="round" stroke-opacity="1.0" stroke-width="3.0" />
            <path d=" M 1463.043, 1425.190 1460.614, 1422.900 1459.969, 1422.292 " fill="none" stroke="rgb(0, 119, 0)" stroke-linecap="butt" stroke-linejoin="round" stroke-opacity="1.0" stroke-width="3.0" />
            <path d=" M 1498.806, 1456.228 1491.755, 1450.109 1485.210, 1444.429 1477.658, 1437.874 1475.184, 1435.728 1467.632, 1429.173 1463.043, 1425.190 1456.753, 1432.964 1454.114, 1436.226 1447.823, 1443.999 1446.892, 1445.150 " fill="none" stroke="rgb(0, 119, 0)" stroke-linecap="butt" stroke-linejoin="round" stroke-opacity="1.0" stroke-width="3.0" />
            <path d=" M 1594.928, 1382.223 1591.219, 1379.074 1583.595, 1372.603 1576.774, 1366.813 1573.192, 1365.563 1566.918, 1373.350 1560.645, 1381.138 1556.690, 1386.046 1555.848, 1387.091 1554.045, 1389.329 1561.650, 1395.823 1569.254, 1402.317 1571.197, 1403.976 1572.600, 1405.174 1574.903, 1407.140 1575.712, 1407.831 1577.388, 1409.263 1578.524, 1410.232 1581.975, 1411.963 1582.191, 1412.071 1582.969, 1411.102 1583.632, 1410.276 " fill="none" stroke="rgb(0, 119, 0)" stroke-linecap="butt" stroke-linejoin="round" stroke-opacity="1.0" stroke-width="3.0" />
            <path d=" M 1578.524, 1410.232 1580.581, 1407.671 1581.172, 1406.936 1587.434, 1399.139 1593.697, 1391.343 1597.694, 1386.367 " fill="none" stroke="rgb(0, 119, 0)" stroke-linecap="butt" stroke-linejoin="round" stroke-opacity="1.0" stroke-width="3.0" />
            <path d=" M 1573.192, 1365.563 1580.815, 1372.036 1588.438, 1378.508 1594.070, 1383.290 1597.694, 1386.367 1601.607, 1387.892 " fill="none" stroke="rgb(0, 119, 0)" stroke-linecap="butt" stroke-linejoin="round" stroke-opacity="1.0" stroke-width="3.0" />
            <path d=" M 1554.045, 1389.329 1557.382, 1390.890 " fill="none" stroke="rgb(0, 119, 0)" stroke-linecap="butt" stroke-linejoin="round" stroke-opacity="1.0" stroke-width="3.0" />
            <path d=" M 1582.191, 1412.071 1582.011, 1411.918 1575.518, 1406.374 1573.215, 1404.408 1565.610, 1397.915 1558.005, 1391.422 1557.382, 1390.890 1559.412, 1388.369 1565.685, 1380.581 1571.957, 1372.793 1576.774, 1366.813 " fill="none" stroke="rgb(0, 119, 0)" stroke-linecap="butt" stroke-linejoin="round" stroke-opacity="1.0" stroke-width="3.0" />
            <path d=" M 1483.967, 1402.366 1490.257, 1394.592 1496.547, 1386.818 1501.351, 1380.880 " fill="none" stroke="rgb(0, 119, 0)" stroke-linecap="butt" stroke-linejoin="round" stroke-opacity="1.0" stroke-width="3.0" />
            <path d=" M 1479.531, 1362.150 1487.119, 1368.664 1494.707, 1375.177 1501.351, 1380.880 1503.739, 1382.187 " fill="none" stroke="rgb(0, 119, 0)" stroke-linecap="butt" stroke-linejoin="round" stroke-opacity="1.0" stroke-width="3.0" />
            <path d=" M 1577.551, 1403.846 1573.845, 1400.684 1566.237, 1394.193 1559.412, 1388.369 1556.690, 1386.046 1551.333, 1381.475 1547.053, 1379.585 1545.167, 1381.924 1545.045, 1382.075 1544.409, 1382.864 1544.384, 1382.895 1541.500, 1386.470 1540.879, 1387.240 1534.602, 1395.024 1534.092, 1395.656 1533.446, 1396.457 1527.168, 1404.241 1523.755, 1408.473 1523.385, 1408.932 1521.824, 1410.867 1525.973, 1414.435 1528.921, 1416.970 1536.503, 1423.490 1538.064, 1424.833 1539.865, 1426.381 1540.728, 1427.123 1543.817, 1429.780 1551.400, 1436.300 1553.923, 1438.469 1558.345, 1441.388 1562.668, 1436.005 1563.065, 1435.511 1567.838, 1429.567 1568.257, 1429.045 1574.519, 1421.248 1580.780, 1413.451 1581.975, 1411.963 1582.011, 1411.918 1582.789, 1410.949 1583.453, 1410.122 " fill="none" stroke="rgb(0, 119, 0)" stroke-linecap="butt" stroke-linejoin="round" stroke-opacity="1.0" stroke-width="3.0" />
            <path d=" M 1553.923, 1438.469 1558.665, 1432.567 1564.253, 1425.612 1570.516, 1417.816 1576.779, 1410.020 1577.388, 1409.263 1579.193, 1407.015 " fill="none" stroke="rgb(0, 119, 0)" stroke-linecap="butt" stroke-linejoin="round" stroke-opacity="1.0" stroke-width="3.0" />
            <path d=" M 1547.053, 1379.585 1554.660, 1386.077 1555.848, 1387.091 1563.454, 1393.583 1571.061, 1400.075 1576.336, 1404.577 1576.708, 1404.894 1579.193, 1407.015 1580.641, 1407.723 1584.044, 1409.386 " fill="none" stroke="rgb(0, 119, 0)" stroke-linecap="butt" stroke-linejoin="round" stroke-opacity="1.0" stroke-width="3.0" />
            <path d=" M 1521.824, 1410.867 1525.677, 1413.299 " fill="none" stroke="rgb(0, 119, 0)" stroke-linecap="butt" stroke-linejoin="round" stroke-opacity="1.0" stroke-width="3.0" />
            <path d=" M 1558.345, 1441.388 1550.763, 1434.869 1544.237, 1429.258 1538.484, 1424.311 1530.901, 1417.792 1529.341, 1416.450 1525.677, 1413.299 1526.818, 1411.883 1533.095, 1404.098 1537.528, 1398.599 1543.804, 1390.814 1544.937, 1389.408 1547.846, 1385.800 1548.483, 1385.010 1551.333, 1381.475 " fill="none" stroke="rgb(0, 119, 0)" stroke-linecap="butt" stroke-linejoin="round" stroke-opacity="1.0" stroke-width="3.0" />
            <path d=" M 1524.868, 1445.015 1531.138, 1437.224 1531.571, 1436.686 1537.841, 1428.895 1539.865, 1426.381 1541.427, 1424.439 1547.697, 1416.649 1550.052, 1413.723 1551.497, 1411.926 " fill="none" stroke="rgb(0, 119, 0)" stroke-linecap="butt" stroke-linejoin="round" stroke-opacity="1.0" stroke-width="3.0" />
            <path d=" M 1517.820, 1383.067 1525.413, 1389.574 1526.595, 1390.587 1527.768, 1391.592 1533.446, 1396.457 1540.547, 1402.543 1548.140, 1409.050 1551.497, 1411.926 1556.099, 1414.511 " fill="none" stroke="rgb(0, 119, 0)" stroke-linecap="butt" stroke-linejoin="round" stroke-opacity="1.0" stroke-width="3.0" />
            <path d=" M 1535.522, 1440.092 1535.723, 1439.842 1541.991, 1432.050 1543.817, 1429.780 1544.237, 1429.258 1545.638, 1427.516 1545.750, 1427.377 1552.018, 1419.585 1553.723, 1417.465 1554.142, 1416.944 1556.099, 1414.511 1553.911, 1412.635 1546.317, 1406.129 1541.194, 1401.740 1538.244, 1399.213 1537.528, 1398.599 1534.092, 1395.656 1529.992, 1392.142 1528.415, 1390.791 1527.241, 1389.786 " fill="none" stroke="rgb(0, 119, 0)" stroke-linecap="butt" stroke-linejoin="round" stroke-opacity="1.0" stroke-width="3.0" />
            <path d=" M 1511.984, 1380.694 1516.564, 1384.621 1519.892, 1387.474 1524.288, 1391.242 1525.528, 1391.909 1526.912, 1392.653 1527.768, 1391.592 1528.415, 1390.791 1534.695, 1383.009 1535.200, 1382.384 1535.821, 1381.615 1538.704, 1378.043 1538.986, 1377.693 " fill="none" stroke="rgb(0, 119, 0)" stroke-linecap="butt" stroke-linejoin="round" stroke-opacity="1.0" stroke-width="3.0" />
            <path d=" M 1524.288, 1391.242 1526.190, 1388.885 1532.472, 1381.104 1533.595, 1379.713 1539.877, 1371.932 1541.388, 1370.059 " fill="none" stroke="rgb(0, 119, 0)" stroke-linecap="butt" stroke-linejoin="round" stroke-opacity="1.0" stroke-width="3.0" />
            <path d=" M 1519.757, 1351.611 1527.366, 1358.100 1534.974, 1364.589 1541.388, 1370.059 1544.207, 1371.223 " fill="none" stroke="rgb(0, 119, 0)" stroke-linecap="butt" stroke-linejoin="round" stroke-opacity="1.0" stroke-width="3.0" />
            <path d=" M 1503.983, 1400.191 1507.309, 1403.053 1514.889, 1409.575 1522.469, 1416.098 1523.747, 1417.197 1527.016, 1419.335 1528.921, 1416.970 1529.341, 1416.450 1530.483, 1415.032 1530.853, 1414.573 1537.127, 1406.787 1540.547, 1402.543 1541.194, 1401.740 1547.469, 1393.954 1548.604, 1392.544 1544.937, 1389.408 1541.500, 1386.470 1537.398, 1382.964 1535.821, 1381.615 1534.647, 1380.612 1533.595, 1379.713 1525.994, 1373.215 1521.285, 1369.189 1518.113, 1367.774 1511.825, 1375.550 1509.833, 1378.013 1509.433, 1378.508 " fill="none" stroke="rgb(0, 119, 0)" stroke-linecap="butt" stroke-linejoin="round" stroke-opacity="1.0" stroke-width="3.0" />
            <path d=" M 1523.747, 1417.197 1525.973, 1414.435 1527.534, 1412.498 1533.810, 1404.713 1538.244, 1399.213 1544.520, 1391.427 1545.033, 1390.791 " fill="none" stroke="rgb(0, 119, 0)" stroke-linecap="butt" stroke-linejoin="round" stroke-opacity="1.0" stroke-width="3.0" />
            <path d=" M 1518.113, 1367.774 1525.714, 1374.273 1533.314, 1380.772 1534.026, 1381.380 1535.200, 1382.384 1540.879, 1387.240 1545.033, 1390.791 1548.604, 1392.544 " fill="none" stroke="rgb(0, 119, 0)" stroke-linecap="butt" stroke-linejoin="round" stroke-opacity="1.0" stroke-width="3.0" />
            <path d=" M 1579.598, 1450.542 1583.135, 1446.129 1588.066, 1439.976 1594.319, 1432.173 1599.736, 1425.414 " fill="none" stroke="rgb(0, 119, 0)" stroke-linecap="butt" stroke-linejoin="round" stroke-opacity="1.0" stroke-width="3.0" />
            <path d=" M 1573.993, 1403.440 1576.296, 1405.406 1582.789, 1410.949 1582.969, 1411.102 1590.575, 1417.594 1593.514, 1420.103 1595.427, 1421.735 1599.736, 1425.414 1603.877, 1427.553 " fill="none" stroke="rgb(0, 119, 0)" stroke-linecap="butt" stroke-linejoin="round" stroke-opacity="1.0" stroke-width="3.0" />
            <path d=" M 1585.586, 1505.143 1591.826, 1497.329 1598.066, 1489.515 1604.306, 1481.701 1607.517, 1477.680 " fill="none" stroke="rgb(0, 119, 0)" stroke-linecap="butt" stroke-linejoin="round" stroke-opacity="1.0" stroke-width="3.0" />
            <path d=" M 1579.451, 1453.569 1587.036, 1460.086 1594.622, 1466.602 1602.207, 1473.118 1607.517, 1477.680 1612.151, 1480.796 " fill="none" stroke="rgb(0, 119, 0)" stroke-linecap="butt" stroke-linejoin="round" stroke-opacity="1.0" stroke-width="3.0" />
            <path d=" M 1499.469, 1486.278 1496.344, 1482.917 1493.481, 1480.422 1490.203, 1477.565 1485.156, 1473.168 1482.890, 1471.193 1481.293, 1469.801 1480.033, 1468.703 1472.494, 1462.134 1471.571, 1461.329 1468.791, 1458.906 1467.231, 1457.547 1465.013, 1460.294 1464.701, 1460.681 1463.741, 1461.869 1463.392, 1462.302 1457.110, 1470.082 1452.948, 1475.235 1452.317, 1476.018 " fill="none" stroke="rgb(0, 119, 0)" stroke-linecap="butt" stroke-linejoin="round" stroke-opacity="1.0" stroke-width="3.0" />
            <path d=" M 1469.888, 1460.498 1467.231, 1457.547 " fill="none" stroke="rgb(0, 119, 0)" stroke-linecap="butt" stroke-linejoin="round" stroke-opacity="1.0" stroke-width="3.0" />
            <path d=" M 1455.272, 1478.605 1461.553, 1470.823 1466.349, 1464.882 1467.658, 1463.260 1469.888, 1460.498 1471.270, 1461.702 1478.808, 1468.272 1479.732, 1469.077 1484.855, 1473.542 1492.394, 1480.112 1493.180, 1480.797 " fill="none" stroke="rgb(0, 119, 0)" stroke-linecap="butt" stroke-linejoin="round" stroke-opacity="1.0" stroke-width="3.0" />
            <path d=" M 1461.847, 1458.192 1468.131, 1450.413 1469.070, 1449.250 1475.354, 1441.471 1478.121, 1438.045 1483.693, 1431.147 1490.894, 1437.386 " fill="none" stroke="rgb(0, 119, 0)" stroke-linecap="butt" stroke-linejoin="round" stroke-opacity="1.0" stroke-width="3.0" />
            <path d=" M 1487.805, 1493.528 1494.074, 1485.737 1496.344, 1482.917 " fill="none" stroke="rgb(0, 119, 0)" stroke-linecap="butt" stroke-linejoin="round" stroke-opacity="1.0" stroke-width="3.0" />
            <path d=" M 1491.616, 1496.041 1484.085, 1489.462 1477.008, 1483.281 1471.887, 1478.807 " fill="none" stroke="rgb(0, 119, 0)" stroke-linecap="butt" stroke-linejoin="round" stroke-opacity="1.0" stroke-width="3.0" />
            <path d=" M 1511.984, 1380.694 1518.271, 1372.918 1521.285, 1369.189 " fill="none" stroke="rgb(0, 119, 0)" stroke-linecap="butt" stroke-linejoin="round" stroke-opacity="1.0" stroke-width="3.0" />
            <path d=" M 1516.964, 1384.126 1524.556, 1390.634 1525.739, 1391.647 1526.912, 1392.653 " fill="none" stroke="rgb(0, 119, 0)" stroke-linecap="butt" stroke-linejoin="round" stroke-opacity="1.0" stroke-width="3.0" />
            <path d=" M 1504.304, 1399.794 1511.884, 1406.316 1519.465, 1412.838 1527.016, 1419.335 " fill="none" stroke="rgb(0, 119, 0)" stroke-linecap="butt" stroke-linejoin="round" stroke-opacity="1.0" stroke-width="3.0" />
            <path d=" M 1542.291, 1425.181 1548.560, 1417.391 1551.051, 1414.294 " fill="none" stroke="rgb(0, 119, 0)" stroke-linecap="butt" stroke-linejoin="round" stroke-opacity="1.0" stroke-width="3.0" />
            <path d=" M 1572.515, 1405.279 1574.818, 1407.245 " fill="none" stroke="rgb(0, 119, 0)" stroke-linecap="butt" stroke-linejoin="round" stroke-opacity="1.0" stroke-width="3.0" />
        </g>
    </g>
</svg>
