<?xml version='1.0' encoding='ascii'?>
<svg xmlns="http://www.w3.org/2000/svg" xmlns:inkscape="http://www.inkscape.org/namespaces/inkscape" height="297" version="1.1" width="420">
    <g id="fressstylelayer_LineSet" inkscape:groupmode="lineset" inkscape:label="fressstylelayer_LineSet">
        <g id="strokes" inkscape:groupmode="layer" inkscape:label="strokes">
            <path d=" M 334.576, 82.005 326.418, 76.222 319.343, 71.207 315.059, 68.171 307.423, 74.627 299.786, 81.083 292.150, 87.540 288.135, 90.934 " fill="none" stroke="rgb(157, 20, 170)" stroke-linecap="butt" stroke-linejoin="round" stroke-opacity="1.0" stroke-width="3.0" />
            <path d=" M 328.593, 107.817 325.362, 98.353 322.950, 91.287 319.720, 81.824 316.816, 73.317 315.059, 68.171 " fill="none" stroke="rgb(157, 20, 170)" stroke-linecap="butt" stroke-linejoin="round" stroke-opacity="1.0" stroke-width="3.0" />
            <path d=" M 366.089, 132.453 365.391, 131.994 357.033, 126.503 348.676, 121.012 347.124, 119.992 338.767, 114.501 330.409, 109.010 328.593, 107.817 320.652, 113.895 318.004, 115.922 " fill="none" stroke="rgb(157, 20, 170)" stroke-linecap="butt" stroke-linejoin="round" stroke-opacity="1.0" stroke-width="3.0" />
            <path d=" M 339.404, 150.778 347.648, 145.117 355.891, 139.456 364.135, 133.795 366.089, 132.453 365.795, 131.716 362.093, 122.427 358.390, 113.137 357.983, 112.115 " fill="none" stroke="rgb(157, 20, 170)" stroke-linecap="butt" stroke-linejoin="round" stroke-opacity="1.0" stroke-width="3.0" />
            <path d=" M 357.983, 112.115 349.730, 106.468 341.652, 100.940 " fill="none" stroke="rgb(157, 20, 170)" stroke-linecap="butt" stroke-linejoin="round" stroke-opacity="1.0" stroke-width="3.0" />
            <path d=" M 344.668, 98.645 341.652, 100.940 338.151, 91.572 334.651, 82.205 334.576, 82.005 " fill="none" stroke="rgb(157, 20, 170)" stroke-linecap="butt" stroke-linejoin="round" stroke-opacity="1.0" stroke-width="3.0" />
            <path d=" M 200.853, 100.559 199.685, 99.917 198.283, 99.148 196.768, 98.317 190.922, 95.109 188.545, 93.805 187.081, 93.001 186.430, 92.644 184.930, 91.821 184.445, 92.316 177.443, 99.456 176.280, 100.642 173.594, 103.381 166.592, 110.521 163.413, 113.763 162.989, 114.196 159.850, 117.396 159.559, 117.693 157.341, 119.955 156.397, 120.918 149.395, 128.058 144.356, 133.196 143.737, 133.828 141.931, 135.669 136.632, 141.073 136.113, 151.059 135.692, 159.142 135.564, 161.616 135.171, 169.172 134.651, 179.159 134.602, 180.112 134.083, 190.098 133.563, 200.085 133.319, 204.776 133.128, 208.452 135.332, 209.249 144.736, 212.651 154.140, 216.052 156.982, 217.080 " fill="none" stroke="rgb(157, 20, 170)" stroke-linecap="butt" stroke-linejoin="round" stroke-opacity="1.0" stroke-width="3.0" />
            <path d=" M 133.128, 208.452 140.650, 201.863 147.019, 196.284 154.541, 189.695 155.818, 188.577 163.340, 181.988 163.800, 181.585 166.471, 179.245 169.323, 176.747 173.421, 173.157 180.943, 166.568 188.068, 160.327 " fill="none" stroke="rgb(157, 20, 170)" stroke-linecap="butt" stroke-linejoin="round" stroke-opacity="1.0" stroke-width="3.0" />
            <path d=" M 261.445, 193.792 258.296, 192.356 257.978, 192.211 256.714, 191.634 250.688, 188.886 249.587, 188.384 240.901, 184.422 232.980, 180.810 232.324, 180.511 223.226, 176.361 214.127, 172.211 211.475, 171.002 202.377, 166.853 193.279, 162.703 188.068, 160.327 187.611, 150.337 187.153, 140.348 186.714, 130.760 186.633, 129.000 186.176, 119.011 186.072, 116.734 185.614, 106.745 185.177, 97.202 185.077, 95.031 185.033, 94.062 184.930, 91.821 " fill="none" stroke="rgb(157, 20, 170)" stroke-linecap="butt" stroke-linejoin="round" stroke-opacity="1.0" stroke-width="3.0" />
            <path d=" M 253.455, 199.425 255.335, 198.100 256.090, 197.568 256.214, 197.480 260.233, 194.646 261.445, 193.792 260.882, 190.517 " fill="none" stroke="rgb(157, 20, 170)" stroke-linecap="butt" stroke-linejoin="round" stroke-opacity="1.0" stroke-width="3.0" />
            <path d=" M 191.344, 261.015 185.236, 259.073 179.287, 257.183 169.757, 254.154 160.226, 251.125 156.620, 249.979 156.726, 240.294 156.836, 230.294 156.887, 225.693 156.982, 217.080 156.993, 216.030 164.293, 210.080 169.628, 205.732 177.379, 199.414 181.517, 196.042 189.269, 189.724 190.052, 189.085 197.804, 182.768 202.690, 178.785 204.117, 177.622 " fill="none" stroke="rgb(157, 20, 170)" stroke-linecap="butt" stroke-linejoin="round" stroke-opacity="1.0" stroke-width="3.0" />
            <path d=" M 206.696, 212.770 206.235, 206.481 205.874, 201.570 205.463, 195.969 205.429, 195.502 204.697, 185.529 204.117, 177.622 213.264, 181.664 222.410, 185.706 224.405, 186.587 225.059, 186.876 232.957, 190.367 242.104, 194.409 248.733, 197.339 253.455, 199.425 " fill="none" stroke="rgb(157, 20, 170)" stroke-linecap="butt" stroke-linejoin="round" stroke-opacity="1.0" stroke-width="3.0" />
            <path d=" M 260.882, 190.517 260.563, 190.370 257.556, 188.984 252.167, 186.501 250.179, 185.585 248.936, 185.013 " fill="none" stroke="rgb(157, 20, 170)" stroke-linecap="butt" stroke-linejoin="round" stroke-opacity="1.0" stroke-width="3.0" />
            <path d=" M 200.941, 101.683 200.853, 100.559 " fill="none" stroke="rgb(157, 20, 170)" stroke-linecap="butt" stroke-linejoin="round" stroke-opacity="1.0" stroke-width="3.0" />
            <path d=" M 294.430, 151.503 286.379, 157.434 278.327, 163.364 274.390, 166.264 274.080, 166.492 266.028, 172.423 257.977, 178.353 256.025, 179.791 254.359, 181.018 249.973, 184.249 248.936, 185.013 248.033, 179.085 246.583, 169.569 245.535, 162.686 245.197, 160.469 243.701, 150.650 242.195, 140.764 241.667, 137.295 241.469, 135.996 239.991, 126.296 239.891, 125.634 241.000, 124.683 241.769, 124.025 246.155, 120.268 251.495, 115.694 259.090, 109.189 266.685, 102.684 268.849, 100.831 276.444, 94.326 279.229, 91.940 279.569, 91.649 283.988, 94.439 290.102, 98.301 292.480, 99.802 300.935, 105.142 303.539, 106.786 311.994, 112.126 318.004, 115.922 325.704, 120.784 330.370, 123.731 332.633, 130.505 335.801, 139.990 338.969, 149.475 339.159, 150.044 339.404, 150.778 342.573, 160.263 345.741, 169.748 348.909, 179.232 349.810, 181.928 346.778, 183.834 344.970, 184.971 336.504, 190.294 331.367, 193.523 328.747, 195.171 320.527, 200.339 317.667, 202.137 309.201, 207.460 308.515, 207.891 305.934, 209.514 297.468, 214.837 296.847, 215.227 294.385, 216.775 292.331, 218.066 290.613, 219.147 287.502, 217.789 284.554, 216.502 277.842, 213.572 275.378, 212.496 274.220, 211.990 270.338, 210.295 269.017, 209.719 268.580, 209.528 264.283, 207.652 " fill="none" stroke="rgb(157, 20, 170)" stroke-linecap="butt" stroke-linejoin="round" stroke-opacity="1.0" stroke-width="3.0" />
            <path d=" M 134.706, 169.618 135.171, 169.172 " fill="none" stroke="rgb(157, 20, 170)" stroke-linecap="butt" stroke-linejoin="round" stroke-opacity="1.0" stroke-width="3.0" />
            <path d=" M 179.937, 283.247 188.360, 277.857 192.737, 275.056 " fill="none" stroke="rgb(157, 20, 170)" stroke-linecap="butt" stroke-linejoin="round" stroke-opacity="1.0" stroke-width="3.0" />
            <path d=" M 179.287, 257.183 179.536, 267.179 179.785, 277.176 179.937, 283.247 189.560, 285.964 199.184, 288.681 208.808, 291.398 218.432, 294.115 228.055, 296.832 228.648, 297.000 237.386, 292.137 246.124, 287.273 254.862, 282.410 258.980, 280.118 267.718, 275.254 271.116, 273.363 270.679, 270.726 " fill="none" stroke="rgb(157, 20, 170)" stroke-linecap="butt" stroke-linejoin="round" stroke-opacity="1.0" stroke-width="3.0" />
            <path d=" M 271.116, 273.363 267.912, 272.279 261.204, 270.011 " fill="none" stroke="rgb(157, 20, 170)" stroke-linecap="butt" stroke-linejoin="round" stroke-opacity="1.0" stroke-width="3.0" />
            <path d=" M 270.679, 270.726 263.967, 268.430 " fill="none" stroke="rgb(157, 20, 170)" stroke-linecap="butt" stroke-linejoin="round" stroke-opacity="1.0" stroke-width="3.0" />
            <path d=" M 225.703, 246.834 218.534, 251.517 210.162, 256.985 201.790, 262.454 193.418, 267.923 185.711, 272.957 " fill="none" stroke="rgb(157, 20, 170)" stroke-linecap="butt" stroke-linejoin="round" stroke-opacity="1.0" stroke-width="3.0" />
            <path d=" M 185.236, 259.073 185.578, 269.067 185.711, 272.957 192.737, 275.056 202.318, 277.919 211.899, 280.782 221.481, 283.645 227.531, 285.453 231.920, 286.765 240.600, 281.799 249.279, 276.833 255.004, 273.558 261.204, 270.011 263.967, 268.430 272.632, 263.473 272.231, 261.122 270.548, 251.265 269.529, 245.294 269.297, 243.936 268.355, 238.416 268.310, 238.150 " fill="none" stroke="rgb(157, 20, 170)" stroke-linecap="butt" stroke-linejoin="round" stroke-opacity="1.0" stroke-width="3.0" />
            <path d=" M 272.632, 263.473 263.207, 260.131 253.782, 256.789 250.250, 255.537 240.825, 252.195 231.400, 248.854 225.703, 246.834 224.877, 238.560 " fill="none" stroke="rgb(157, 20, 170)" stroke-linecap="butt" stroke-linejoin="round" stroke-opacity="1.0" stroke-width="3.0" />
            <path d=" M 263.080, 200.689 263.241, 201.620 264.066, 206.398 264.283, 207.652 264.639, 209.713 265.019, 211.911 265.093, 212.341 266.494, 220.455 267.143, 224.208 268.404, 231.512 268.619, 232.755 269.431, 237.455 268.310, 238.150 268.064, 238.302 259.565, 243.572 251.768, 248.408 242.377, 244.969 232.987, 241.530 224.877, 238.560 216.568, 244.124 209.943, 248.560 201.634, 254.124 193.325, 259.689 191.344, 261.015 " fill="none" stroke="rgb(157, 20, 170)" stroke-linecap="butt" stroke-linejoin="round" stroke-opacity="1.0" stroke-width="3.0" />
            <path d=" M 237.909, 65.878 236.248, 56.017 236.068, 54.950 234.407, 45.089 232.746, 35.228 231.085, 25.367 230.573, 22.326 " fill="none" stroke="rgb(157, 20, 170)" stroke-linecap="butt" stroke-linejoin="round" stroke-opacity="1.0" stroke-width="3.0" />
            <path d=" M 290.102, 98.301 288.135, 90.934 285.555, 81.272 282.976, 71.611 280.396, 61.949 278.649, 55.409 270.411, 49.740 262.173, 44.071 253.935, 38.402 245.697, 32.733 237.459, 27.065 230.573, 22.326 223.718, 29.607 216.863, 36.887 210.008, 44.168 203.153, 51.449 198.009, 56.913 196.534, 58.480 " fill="none" stroke="rgb(157, 20, 170)" stroke-linecap="butt" stroke-linejoin="round" stroke-opacity="1.0" stroke-width="3.0" />
            <path d=" M 196.534, 58.480 197.292, 68.451 198.050, 78.423 198.222, 80.675 198.980, 90.646 199.685, 99.917 " fill="none" stroke="rgb(157, 20, 170)" stroke-linecap="butt" stroke-linejoin="round" stroke-opacity="1.0" stroke-width="3.0" />
            <path d=" M 241.769, 124.025 232.997, 119.224 224.224, 114.424 219.243, 111.698 210.470, 106.898 201.698, 102.097 201.383, 101.925 200.941, 101.683 208.125, 94.726 210.432, 92.491 217.615, 85.534 224.798, 78.577 231.981, 71.620 233.278, 70.364 237.909, 65.878 246.367, 71.213 254.825, 76.548 262.616, 81.462 271.075, 86.797 279.229, 91.940 " fill="none" stroke="rgb(157, 20, 170)" stroke-linecap="butt" stroke-linejoin="round" stroke-opacity="1.0" stroke-width="3.0" />
            <path d=" M 162.014, 40.036 153.444, 34.883 144.874, 29.730 136.303, 24.577 127.733, 19.425 119.163, 14.272 111.936, 9.926 107.928, 7.517 102.999, 4.553 97.276, 12.753 91.552, 20.954 85.829, 29.154 80.105, 37.354 74.382, 45.554 68.658, 53.754 65.185, 58.730 62.978, 68.483 60.771, 78.236 58.564, 87.990 56.357, 97.743 54.150, 107.497 53.259, 111.436 62.408, 115.474 71.556, 119.512 73.079, 120.184 82.228, 124.222 89.288, 127.338 98.437, 131.376 107.585, 135.414 116.734, 139.451 122.727, 142.097 126.662, 143.833 129.088, 141.318 136.031, 134.121 136.812, 133.310 138.610, 131.447 139.226, 130.808 146.169, 123.611 151.213, 118.382 154.362, 115.117 157.441, 111.925 159.910, 109.366 162.997, 106.165 163.414, 105.733 168.341, 100.626 171.017, 97.852 171.880, 96.957 171.816, 93.352 " fill="none" stroke="rgb(157, 20, 170)" stroke-linecap="butt" stroke-linejoin="round" stroke-opacity="1.0" stroke-width="3.0" />
            <path d=" M 53.259, 111.436 59.255, 103.433 65.250, 95.430 68.813, 90.674 71.288, 87.371 77.283, 79.368 83.279, 71.365 89.275, 63.362 94.821, 55.958 " fill="none" stroke="rgb(157, 20, 170)" stroke-linecap="butt" stroke-linejoin="round" stroke-opacity="1.0" stroke-width="3.0" />
            <path d=" M 171.880, 96.957 169.550, 95.718 163.012, 92.239 154.184, 87.542 147.218, 83.836 138.390, 79.139 129.562, 74.442 120.733, 69.745 111.905, 65.048 106.319, 62.076 106.009, 61.911 97.180, 57.214 94.821, 55.958 96.392, 46.082 97.963, 36.207 98.459, 33.094 100.030, 23.218 100.968, 17.321 102.539, 7.445 102.999, 4.553 " fill="none" stroke="rgb(157, 20, 170)" stroke-linecap="butt" stroke-linejoin="round" stroke-opacity="1.0" stroke-width="3.0" />
            <path d=" M 171.816, 93.352 163.016, 88.627 160.006, 87.011 " fill="none" stroke="rgb(157, 20, 170)" stroke-linecap="butt" stroke-linejoin="round" stroke-opacity="1.0" stroke-width="3.0" />
            <path d=" M 164.958, 81.644 163.021, 83.743 160.006, 87.011 160.075, 77.899 160.151, 67.899 160.226, 57.899 160.302, 47.900 160.326, 44.719 160.347, 42.001 162.014, 40.036 164.816, 36.733 173.360, 41.928 173.561, 42.050 176.548, 43.866 185.093, 49.061 193.638, 54.256 198.009, 56.913 " fill="none" stroke="rgb(157, 20, 170)" stroke-linecap="butt" stroke-linejoin="round" stroke-opacity="1.0" stroke-width="3.0" />
            <path d=" M 320.612, 245.544 327.707, 241.592 336.443, 236.726 341.208, 234.072 340.832, 232.783 " fill="none" stroke="rgb(157, 20, 170)" stroke-linecap="butt" stroke-linejoin="round" stroke-opacity="1.0" stroke-width="3.0" />
            <path d=" M 359.406, 222.395 350.410, 218.028 341.413, 213.662 332.417, 209.296 323.420, 204.930 321.528, 204.011 317.667, 202.137 " fill="none" stroke="rgb(157, 20, 170)" stroke-linecap="butt" stroke-linejoin="round" stroke-opacity="1.0" stroke-width="3.0" />
            <path d=" M 272.836, 223.996 277.972, 226.137 287.203, 229.984 289.854, 231.089 290.422, 233.816 289.221, 234.542 287.586, 235.530 285.120, 237.021 " fill="none" stroke="rgb(157, 20, 170)" stroke-linecap="butt" stroke-linejoin="round" stroke-opacity="1.0" stroke-width="3.0" />
            <path d=" M 315.532, 246.934 320.290, 244.273 327.367, 240.315 336.095, 235.433 339.722, 233.404 340.832, 232.783 349.560, 227.902 354.602, 225.082 359.406, 222.395 356.294, 212.891 353.182, 203.388 350.426, 194.974 347.618, 186.400 346.778, 183.834 " fill="none" stroke="rgb(157, 20, 170)" stroke-linecap="butt" stroke-linejoin="round" stroke-opacity="1.0" stroke-width="3.0" />
            <path d=" M 184.445, 92.316 175.674, 87.513 166.903, 82.709 164.958, 81.644 164.926, 71.644 164.895, 61.644 164.863, 51.644 164.849, 47.404 164.841, 44.686 164.831, 41.730 164.816, 36.733 " fill="none" stroke="rgb(157, 20, 170)" stroke-linecap="butt" stroke-linejoin="round" stroke-opacity="1.0" stroke-width="3.0" />
            <path d=" M 370.716, 232.757 361.688, 228.457 354.602, 225.082 " fill="none" stroke="rgb(157, 20, 170)" stroke-linecap="butt" stroke-linejoin="round" stroke-opacity="1.0" stroke-width="3.0" />
            <path d=" M 321.802, 250.251 331.005, 253.995 339.823, 249.279 348.641, 244.563 357.459, 239.847 366.277, 235.130 370.716, 232.757 367.493, 223.290 364.270, 213.824 361.046, 204.358 357.823, 194.891 356.577, 191.231 347.775, 186.485 347.618, 186.400 " fill="none" stroke="rgb(157, 20, 170)" stroke-linecap="butt" stroke-linejoin="round" stroke-opacity="1.0" stroke-width="3.0" />
            <path d=" M 349.810, 181.928 345.352, 179.479 336.588, 174.664 329.886, 170.982 321.122, 166.167 312.357, 161.352 303.593, 156.537 294.829, 151.722 294.430, 151.503 292.021, 141.798 290.510, 135.714 288.100, 126.009 285.691, 116.303 283.281, 106.598 282.888, 105.014 280.909, 97.043 279.569, 91.649 " fill="none" stroke="rgb(157, 20, 170)" stroke-linecap="butt" stroke-linejoin="round" stroke-opacity="1.0" stroke-width="3.0" />
            <path d=" M 326.138, 267.402 316.791, 263.846 307.445, 260.291 299.537, 257.283 292.391, 254.565 287.097, 252.551 " fill="none" stroke="rgb(157, 20, 170)" stroke-linecap="butt" stroke-linejoin="round" stroke-opacity="1.0" stroke-width="3.0" />
            <path d=" M 283.950, 236.548 285.880, 246.360 287.097, 252.551 278.434, 257.546 272.231, 261.122 " fill="none" stroke="rgb(157, 20, 170)" stroke-linecap="butt" stroke-linejoin="round" stroke-opacity="1.0" stroke-width="3.0" />
            <path d=" M 258.980, 280.118 268.500, 283.178 278.020, 286.239 285.265, 288.568 294.145, 283.970 303.025, 279.371 311.905, 274.772 320.785, 270.174 326.138, 267.402 323.687, 257.707 321.802, 250.251 320.612, 245.544 320.290, 244.273 " fill="none" stroke="rgb(157, 20, 170)" stroke-linecap="butt" stroke-linejoin="round" stroke-opacity="1.0" stroke-width="3.0" />
            <path d=" M 285.120, 237.021 283.950, 236.548 275.399, 241.734 269.529, 245.294 " fill="none" stroke="rgb(157, 20, 170)" stroke-linecap="butt" stroke-linejoin="round" stroke-opacity="1.0" stroke-width="3.0" />
            <path d=" M 269.431, 237.455 268.102, 236.932 258.796, 233.270 249.491, 229.609 249.087, 229.450 239.781, 225.788 230.476, 222.127 221.170, 218.465 219.884, 217.959 210.579, 214.298 209.647, 213.931 206.696, 212.770 205.171, 213.903 200.623, 217.283 194.889, 221.543 188.872, 226.014 187.433, 227.083 186.517, 227.764 184.223, 229.469 178.698, 233.573 170.672, 239.537 162.645, 245.502 156.620, 249.979 " fill="none" stroke="rgb(157, 20, 170)" stroke-linecap="butt" stroke-linejoin="round" stroke-opacity="1.0" stroke-width="3.0" />
            <path d=" M 176.548, 43.866 176.391, 38.806 167.872, 33.569 159.353, 28.332 150.834, 23.095 142.314, 17.859 133.795, 12.622 125.276, 7.385 116.757, 2.148 113.263, 0.000 107.928, 7.517 " fill="none" stroke="rgb(157, 20, 170)" stroke-linecap="butt" stroke-linejoin="round" stroke-opacity="1.0" stroke-width="3.0" />
            <path d=" M 108.933, 208.898 101.593, 215.690 94.254, 222.482 86.914, 229.274 79.575, 236.066 74.254, 240.990 " fill="none" stroke="rgb(157, 20, 170)" stroke-linecap="butt" stroke-linejoin="round" stroke-opacity="1.0" stroke-width="3.0" />
            <path d=" M 100.515, 166.879 93.606, 174.109 86.698, 181.339 82.206, 186.040 80.774, 195.937 79.342, 205.834 77.909, 215.731 76.477, 225.628 75.045, 235.524 74.254, 240.990 83.840, 243.839 93.425, 246.688 103.011, 249.537 112.596, 252.386 122.182, 255.235 131.768, 258.084 132.963, 258.439 140.911, 252.370 148.859, 246.301 156.726, 240.294 " fill="none" stroke="rgb(157, 20, 170)" stroke-linecap="butt" stroke-linejoin="round" stroke-opacity="1.0" stroke-width="3.0" />
            <path d=" M 113.419, 160.834 112.490, 170.791 111.560, 180.748 110.631, 190.704 109.702, 200.661 108.933, 208.898 118.371, 212.203 127.809, 215.509 137.246, 218.814 146.684, 222.120 156.122, 225.425 156.887, 225.693 " fill="none" stroke="rgb(157, 20, 170)" stroke-linecap="butt" stroke-linejoin="round" stroke-opacity="1.0" stroke-width="3.0" />
            <path d=" M 134.706, 169.618 125.462, 165.804 121.005, 163.965 113.419, 160.834 106.450, 168.006 105.582, 168.898 100.515, 166.879 91.226, 163.176 81.936, 159.474 72.647, 155.771 67.001, 153.521 68.795, 143.683 70.588, 133.846 72.382, 124.008 73.079, 120.184 " fill="none" stroke="rgb(157, 20, 170)" stroke-linecap="butt" stroke-linejoin="round" stroke-opacity="1.0" stroke-width="3.0" />
            <path d=" M 365.795, 131.716 374.033, 126.047 379.164, 122.517 375.192, 113.340 371.220, 104.162 367.248, 94.985 363.368, 86.018 355.325, 80.076 347.283, 74.133 339.240, 68.190 331.197, 62.247 330.602, 61.807 322.925, 68.216 319.343, 71.207 " fill="none" stroke="rgb(157, 20, 170)" stroke-linecap="butt" stroke-linejoin="round" stroke-opacity="1.0" stroke-width="3.0" />
            <path d=" M 379.164, 122.517 370.941, 116.827 362.718, 111.136 354.495, 105.446 346.271, 99.755 344.668, 98.645 341.100, 89.303 337.533, 79.961 333.966, 70.619 330.602, 61.807 " fill="none" stroke="rgb(157, 20, 170)" stroke-linecap="butt" stroke-linejoin="round" stroke-opacity="1.0" stroke-width="3.0" />
            <path d=" M 290.422, 233.816 287.416, 232.575 278.497, 228.894 269.253, 225.079 267.143, 224.208 " fill="none" stroke="rgb(157, 20, 170)" stroke-linecap="butt" stroke-linejoin="round" stroke-opacity="1.0" stroke-width="3.0" />
            <path d=" M 284.554, 216.502 282.833, 217.602 277.052, 221.299 276.089, 221.915 272.836, 223.996 271.042, 214.159 270.712, 212.346 270.338, 210.295 " fill="none" stroke="rgb(157, 20, 170)" stroke-linecap="butt" stroke-linejoin="round" stroke-opacity="1.0" stroke-width="3.0" />
            <path d=" M 341.208, 234.072 339.722, 233.404 " fill="none" stroke="rgb(157, 20, 170)" stroke-linecap="butt" stroke-linejoin="round" stroke-opacity="1.0" stroke-width="3.0" />
            <path d=" M 67.001, 153.521 73.483, 145.906 79.965, 138.291 86.447, 130.677 89.288, 127.338 " fill="none" stroke="rgb(157, 20, 170)" stroke-linecap="butt" stroke-linejoin="round" stroke-opacity="1.0" stroke-width="3.0" />
            <path d=" M 111.936, 9.926 113.263, 0.000 " fill="none" stroke="rgb(157, 20, 170)" stroke-linecap="butt" stroke-linejoin="round" stroke-opacity="1.0" stroke-width="3.0" />
            <path d=" M 138.610, 131.447 143.737, 133.828 " fill="none" stroke="rgb(157, 20, 170)" stroke-linecap="butt" stroke-linejoin="round" stroke-opacity="1.0" stroke-width="3.0" />
            <path d=" M 256.090, 197.568 263.080, 200.689 " fill="none" stroke="rgb(157, 20, 170)" stroke-linecap="butt" stroke-linejoin="round" stroke-opacity="1.0" stroke-width="3.0" />
            <path d=" M 287.586, 235.530 296.845, 239.309 300.596, 240.839 309.881, 244.628 315.532, 246.934 " fill="none" stroke="rgb(157, 20, 170)" stroke-linecap="butt" stroke-linejoin="round" stroke-opacity="1.0" stroke-width="3.0" />
        </g>
    </g>
    <g id="fressstylelayer_hidden lines" inkscape:groupmode="lineset" inkscape:label="fressstylelayer_hidden lines" xmlns:inkscape="http://www.inkscape.org/namespaces/inkscape">
        <g id="strokes" inkscape:groupmode="layer" inkscape:label="strokes" xmlns:inkscape="http://www.inkscape.org/namespaces/inkscape">
            <path d=" M 288.135, 90.934 283.988, 94.439 283.648, 94.727 280.909, 97.043 274.520, 102.445 276.371, 110.418 278.632, 120.159 280.893, 129.900 282.467, 136.680 283.737, 142.155 289.459, 145.330 290.334, 145.815 293.199, 147.405 292.417, 144.251 290.334, 145.815 289.692, 146.297 281.696, 152.302 273.700, 158.308 272.645, 159.100 267.664, 162.841 267.354, 163.074 259.358, 169.079 258.146, 169.990 254.810, 172.495 249.654, 176.367 248.849, 176.972 249.091, 178.539 249.423, 180.689 249.973, 184.249 250.179, 185.585 250.463, 187.425 250.507, 187.713 250.688, 188.886 250.926, 190.422 250.926, 190.424 251.669, 195.240 251.873, 196.558 255.633, 193.881 256.767, 193.073 257.978, 192.211 260.563, 190.370 261.557, 189.662 265.350, 186.960 266.000, 186.497 265.198, 186.119 260.564, 183.939 260.150, 183.743 257.595, 182.541 256.388, 181.973 254.359, 181.018 253.486, 180.607 251.065, 179.468 249.091, 178.539 248.889, 178.444 248.033, 179.085 244.074, 182.047 242.042, 183.568 240.901, 184.422 232.957, 190.367 231.964, 191.110 223.958, 197.101 220.950, 199.352 219.663, 200.316 218.226, 201.391 218.376, 202.982 219.691, 202.002 221.130, 200.930 219.663, 200.316 216.271, 198.894 209.010, 204.383 208.906, 204.461 207.157, 205.784 206.507, 206.274 206.235, 206.481 204.727, 207.620 203.420, 208.608 202.535, 209.277 200.231, 211.018 192.254, 217.048 191.156, 217.878 189.151, 219.394 188.610, 219.803 186.573, 221.342 184.011, 223.279 181.722, 225.009 180.809, 225.699 178.545, 227.410 178.698, 233.573 178.948, 243.570 179.197, 253.567 179.287, 257.183 " fill="none" stroke="rgb(0, 119, 0)" stroke-linecap="butt" stroke-linejoin="round" stroke-opacity="1.0" stroke-width="3.0" />
            <path d=" M 283.737, 142.155 291.449, 136.251 299.390, 130.172 307.330, 124.093 315.271, 118.015 318.004, 115.922 " fill="none" stroke="rgb(0, 119, 0)" stroke-linecap="butt" stroke-linejoin="round" stroke-opacity="1.0" stroke-width="3.0" />
            <path d=" M 293.199, 147.405 297.454, 144.236 " fill="none" stroke="rgb(0, 119, 0)" stroke-linecap="butt" stroke-linejoin="round" stroke-opacity="1.0" stroke-width="3.0" />
            <path d=" M 311.610, 199.198 309.116, 189.514 306.621, 179.830 306.156, 178.025 306.031, 177.538 304.486, 171.538 301.991, 161.854 299.497, 152.170 297.454, 144.236 306.164, 149.149 314.874, 154.061 323.584, 158.974 325.717, 160.177 " fill="none" stroke="rgb(0, 119, 0)" stroke-linecap="butt" stroke-linejoin="round" stroke-opacity="1.0" stroke-width="3.0" />
            <path d=" M 346.778, 183.834 345.352, 179.479 342.240, 169.976 341.041, 166.317 332.348, 161.375 327.765, 158.771 325.837, 157.674 324.778, 157.072 325.717, 160.177 326.446, 159.677 327.765, 158.771 336.009, 153.110 339.404, 150.778 " fill="none" stroke="rgb(0, 119, 0)" stroke-linecap="butt" stroke-linejoin="round" stroke-opacity="1.0" stroke-width="3.0" />
            <path d=" M 310.037, 124.092 311.982, 122.610 " fill="none" stroke="rgb(0, 119, 0)" stroke-linecap="butt" stroke-linejoin="round" stroke-opacity="1.0" stroke-width="3.0" />
            <path d=" M 296.005, 112.801 304.527, 118.034 311.982, 122.610 314.837, 132.194 317.585, 141.421 " fill="none" stroke="rgb(0, 119, 0)" stroke-linecap="butt" stroke-linejoin="round" stroke-opacity="1.0" stroke-width="3.0" />
            <path d=" M 357.983, 112.115 349.888, 117.987 347.124, 119.992 339.030, 125.865 332.633, 130.505 329.598, 132.707 321.503, 138.579 317.585, 141.421 326.206, 146.490 334.826, 151.558 335.976, 152.234 339.159, 150.044 347.397, 144.375 355.635, 138.707 363.874, 133.038 365.391, 131.994 365.795, 131.716 " fill="none" stroke="rgb(0, 119, 0)" stroke-linecap="butt" stroke-linejoin="round" stroke-opacity="1.0" stroke-width="3.0" />
            <path d=" M 320.560, 159.993 318.058, 151.456 315.245, 141.860 312.432, 132.264 310.037, 124.092 301.498, 118.888 292.959, 113.684 284.420, 108.479 281.129, 106.473 274.520, 102.445 " fill="none" stroke="rgb(0, 119, 0)" stroke-linecap="butt" stroke-linejoin="round" stroke-opacity="1.0" stroke-width="3.0" />
            <path d=" M 324.778, 157.072 320.560, 159.993 311.833, 155.111 303.106, 150.230 294.378, 145.348 292.417, 144.251 " fill="none" stroke="rgb(0, 119, 0)" stroke-linecap="butt" stroke-linejoin="round" stroke-opacity="1.0" stroke-width="3.0" />
            <path d=" M 188.983, 228.656 189.900, 227.979 " fill="none" stroke="rgb(0, 119, 0)" stroke-linecap="butt" stroke-linejoin="round" stroke-opacity="1.0" stroke-width="3.0" />
            <path d=" M 191.344, 261.015 190.908, 251.024 190.471, 241.034 190.056, 231.534 189.900, 227.979 188.940, 227.630 187.433, 227.083 184.100, 225.873 181.722, 225.009 172.322, 221.596 169.785, 220.675 160.386, 217.261 156.993, 216.030 " fill="none" stroke="rgb(0, 119, 0)" stroke-linecap="butt" stroke-linejoin="round" stroke-opacity="1.0" stroke-width="3.0" />
            <path d=" M 260.882, 190.517 258.296, 192.356 257.085, 193.218 255.686, 194.213 252.945, 196.163 253.092, 197.101 253.455, 199.425 " fill="none" stroke="rgb(0, 119, 0)" stroke-linecap="butt" stroke-linejoin="round" stroke-opacity="1.0" stroke-width="3.0" />
            <path d=" M 239.891, 125.634 240.426, 125.925 241.263, 126.380 248.363, 130.237 250.739, 131.528 250.247, 128.664 248.363, 130.237 242.605, 135.047 241.469, 135.996 240.592, 136.728 241.667, 137.295 241.946, 137.442 242.469, 137.718 242.962, 137.978 243.067, 138.033 247.923, 134.007 248.343, 133.659 253.888, 129.061 256.701, 126.728 264.399, 120.345 271.804, 114.205 276.371, 110.418 281.129, 106.473 282.888, 105.014 290.262, 98.899 290.102, 98.301 " fill="none" stroke="rgb(0, 119, 0)" stroke-linecap="butt" stroke-linejoin="round" stroke-opacity="1.0" stroke-width="3.0" />
            <path d=" M 250.247, 128.664 242.305, 124.318 241.769, 124.025 " fill="none" stroke="rgb(0, 119, 0)" stroke-linecap="butt" stroke-linejoin="round" stroke-opacity="1.0" stroke-width="3.0" />
            <path d=" M 143.737, 133.828 152.807, 138.039 154.534, 138.841 155.786, 139.422 158.364, 140.618 159.091, 140.956 162.778, 142.668 169.669, 145.867 169.646, 143.968 169.528, 133.969 169.450, 127.321 169.437, 126.263 163.409, 132.176 158.399, 137.091 158.383, 138.710 158.373, 139.720 158.364, 140.618 158.338, 143.229 158.300, 146.967 158.278, 149.209 158.262, 150.820 158.162, 160.819 158.063, 170.819 158.059, 171.142 158.013, 175.818 158.790, 176.142 158.799, 175.111 158.830, 171.468 158.915, 161.468 159.001, 151.469 159.004, 151.154 159.017, 149.543 159.045, 146.251 159.068, 143.566 159.091, 140.956 159.098, 140.058 159.107, 139.048 159.121, 137.430 163.409, 133.233 169.450, 127.321 170.165, 126.621 170.124, 123.480 163.410, 130.096 157.138, 136.275 155.159, 138.225 154.534, 138.841 152.711, 140.636 148.503, 144.783 148.457, 146.401 148.450, 146.622 148.160, 156.702 147.872, 166.698 147.868, 166.826 147.580, 176.822 147.338, 185.194 147.050, 195.189 147.043, 195.455 147.019, 196.284 146.810, 203.529 156.174, 207.038 164.293, 210.080 169.695, 212.104 179.059, 215.612 186.485, 218.395 188.584, 219.181 189.151, 219.394 194.889, 221.543 201.034, 223.846 207.998, 226.455 208.169, 226.333 210.488, 224.676 210.933, 224.357 213.878, 222.252 218.136, 219.209 219.884, 217.959 222.635, 215.993 228.045, 212.126 232.596, 208.873 233.919, 207.928 236.660, 205.968 243.838, 200.838 248.389, 197.585 248.733, 197.339 249.508, 196.785 251.496, 195.364 251.669, 195.240 255.419, 192.560 255.503, 192.500 256.714, 191.634 257.861, 190.815 257.556, 188.984 257.056, 185.984 256.603, 183.264 256.388, 181.973 256.129, 180.414 256.025, 179.791 254.810, 172.495 253.167, 162.631 252.727, 159.988 252.297, 157.403 251.864, 154.803 251.347, 151.699 250.683, 147.709 249.040, 137.845 248.343, 133.659 248.322, 133.532 248.223, 132.939 247.699, 132.656 247.804, 133.287 247.902, 133.881 247.923, 134.007 249.556, 143.873 250.146, 147.431 250.806, 151.422 251.320, 154.526 251.854, 157.749 252.282, 160.334 252.727, 159.988 255.975, 157.468 256.112, 157.362 256.421, 157.122 258.608, 155.425 258.573, 155.231 258.144, 152.836 257.897, 151.451 256.134, 141.607 254.372, 131.763 253.888, 129.061 253.114, 124.736 251.495, 115.694 251.479, 115.605 245.876, 112.421 243.731, 111.202 238.448, 108.202 238.410, 108.180 229.715, 103.240 222.598, 99.197 217.302, 96.188 211.400, 92.835 211.009, 92.613 210.494, 93.112 203.306, 100.064 201.383, 101.925 198.677, 104.541 197.298, 105.876 193.222, 109.818 192.833, 110.195 192.656, 110.366 192.274, 110.735 186.072, 116.734 180.074, 122.535 178.140, 124.406 178.230, 127.492 178.481, 136.047 178.499, 136.659 185.779, 129.804 186.633, 129.000 186.881, 128.768 194.161, 121.913 198.562, 117.769 199.576, 116.815 201.090, 115.389 201.474, 115.028 201.651, 114.861 202.043, 114.492 202.324, 114.228 206.398, 110.392 201.825, 107.927 202.324, 114.228 202.358, 114.660 202.406, 115.260 202.428, 115.532 202.474, 116.120 202.914, 121.674 203.093, 123.929 203.282, 126.321 203.533, 129.486 203.624, 130.638 207.846, 126.808 211.064, 123.889 213.703, 121.495 213.882, 121.333 213.918, 121.300 214.276, 120.975 213.863, 120.757 211.008, 119.243 206.991, 117.115 202.358, 114.660 202.043, 114.492 199.300, 113.038 197.742, 112.213 197.481, 112.075 193.222, 109.818 191.990, 109.165 191.373, 108.838 191.408, 109.441 191.424, 109.714 191.600, 109.543 191.990, 109.165 197.175, 104.130 198.550, 102.795 200.853, 100.559 " fill="none" stroke="rgb(0, 119, 0)" stroke-linecap="butt" stroke-linejoin="round" stroke-opacity="1.0" stroke-width="3.0" />
            <path d=" M 206.398, 110.392 206.991, 117.115 207.465, 122.489 207.846, 126.808 208.475, 133.931 " fill="none" stroke="rgb(0, 119, 0)" stroke-linecap="butt" stroke-linejoin="round" stroke-opacity="1.0" stroke-width="3.0" />
            <path d=" M 208.475, 133.931 212.867, 130.012 214.641, 128.428 223.515, 133.038 226.153, 134.409 228.860, 135.815 235.858, 139.450 236.243, 142.187 236.331, 142.817 236.509, 144.086 232.041, 147.786 230.225, 149.290 230.962, 155.096 231.067, 155.924 232.328, 165.844 232.875, 170.150 233.155, 172.357 234.025, 179.205 234.118, 179.937 232.980, 180.810 225.059, 186.876 224.069, 187.634 216.130, 193.715 213.091, 196.042 208.521, 199.542 206.145, 201.363 205.874, 201.570 204.563, 202.574 204.381, 202.714 202.209, 204.377 199.754, 203.388 190.478, 199.651 181.517, 196.042 175.635, 193.672 173.297, 192.730 169.475, 191.190 163.804, 188.906 163.800, 181.585 163.800, 180.747 163.798, 178.129 163.796, 173.571 163.796, 173.118 163.795, 171.653 163.015, 171.321 163.017, 168.688 163.021, 164.678 163.030, 154.678 163.031, 152.969 164.188, 151.885 168.449, 147.888 171.638, 144.898 178.932, 138.057 179.462, 137.561 179.770, 137.272 186.714, 130.760 188.159, 129.405 189.020, 128.597 189.788, 128.981 192.925, 126.047 196.328, 127.772 199.267, 129.262 199.785, 129.525 203.447, 131.382 207.194, 133.282 208.475, 133.931 " fill="none" stroke="rgb(0, 119, 0)" stroke-linecap="butt" stroke-linejoin="round" stroke-opacity="1.0" stroke-width="3.0" />
            <path d=" M 214.641, 128.428 213.918, 121.300 213.863, 120.757 213.480, 116.978 212.471, 107.029 211.978, 102.159 211.009, 92.613 " fill="none" stroke="rgb(0, 119, 0)" stroke-linecap="butt" stroke-linejoin="round" stroke-opacity="1.0" stroke-width="3.0" />
            <path d=" M 247.699, 132.656 241.946, 137.442 236.243, 142.187 228.555, 148.583 220.868, 154.979 219.252, 156.323 " fill="none" stroke="rgb(0, 119, 0)" stroke-linecap="butt" stroke-linejoin="round" stroke-opacity="1.0" stroke-width="3.0" />
            <path d=" M 178.499, 136.659 179.770, 137.272 188.776, 141.618 197.782, 145.964 206.789, 150.309 215.795, 154.655 219.252, 156.323 219.039, 154.294 " fill="none" stroke="rgb(0, 119, 0)" stroke-linecap="butt" stroke-linejoin="round" stroke-opacity="1.0" stroke-width="3.0" />
            <path d=" M 246.141, 120.178 246.155, 120.268 246.266, 120.931 242.305, 124.318 241.103, 125.346 240.426, 125.925 239.991, 126.296 233.417, 131.918 228.860, 135.815 226.567, 137.776 225.019, 139.100 221.234, 142.337 222.265, 151.597 219.039, 154.294 210.043, 149.928 209.120, 149.481 200.124, 145.115 196.885, 143.543 196.467, 137.038 196.284, 134.192 195.818, 133.960 195.770, 133.204 199.316, 129.955 199.785, 129.525 200.373, 128.986 200.933, 128.473 203.282, 126.321 207.465, 122.489 208.565, 121.482 210.436, 119.767 210.614, 119.604 211.008, 119.243 213.480, 116.978 213.834, 116.653 219.243, 111.698 222.984, 108.270 223.651, 107.660 232.388, 112.523 238.404, 115.872 239.713, 116.601 239.752, 116.623 240.545, 117.064 246.141, 120.178 " fill="none" stroke="rgb(0, 119, 0)" stroke-linecap="butt" stroke-linejoin="round" stroke-opacity="1.0" stroke-width="3.0" />
            <path d=" M 246.141, 120.178 251.479, 115.605 " fill="none" stroke="rgb(0, 119, 0)" stroke-linecap="butt" stroke-linejoin="round" stroke-opacity="1.0" stroke-width="3.0" />
            <path d=" M 195.770, 133.204 188.159, 129.405 186.881, 128.768 178.140, 124.406 " fill="none" stroke="rgb(0, 119, 0)" stroke-linecap="butt" stroke-linejoin="round" stroke-opacity="1.0" stroke-width="3.0" />
            <path d=" M 135.171, 169.172 140.753, 163.813 147.966, 156.888 148.160, 156.702 155.373, 149.777 155.557, 149.601 156.706, 148.497 158.300, 146.967 159.045, 146.251 160.943, 144.429 162.778, 142.668 163.407, 142.064 163.407, 141.056 163.409, 133.233 163.409, 132.176 163.410, 130.096 163.411, 120.096 163.413, 113.763 163.414, 105.733 163.415, 102.125 163.416, 98.043 163.416, 95.267 163.009, 95.052 160.028, 93.477 160.007, 96.255 159.988, 98.897 159.937, 105.757 159.910, 109.366 159.850, 117.396 159.847, 117.835 159.812, 122.589 162.983, 119.390 162.989, 114.196 162.997, 106.165 163.001, 102.557 163.006, 97.828 163.008, 95.699 163.009, 95.052 163.011, 93.606 163.012, 92.239 163.016, 88.627 163.021, 83.743 163.025, 79.519 160.075, 77.899 159.055, 77.339 150.290, 72.526 148.052, 71.297 139.286, 66.483 130.521, 61.670 121.755, 56.857 113.480, 52.313 107.337, 60.204 106.009, 61.911 103.335, 65.346 97.192, 73.237 91.050, 81.128 84.786, 89.175 83.659, 95.833 82.936, 100.102 89.144, 92.262 89.700, 91.559 95.908, 83.719 99.697, 78.934 102.263, 75.693 103.607, 65.784 103.644, 65.509 106.319, 62.076 112.466, 54.188 113.401, 52.988 122.170, 57.795 130.938, 62.602 139.707, 67.409 147.646, 71.761 147.292, 81.755 147.218, 83.836 146.864, 93.830 146.740, 97.317 146.544, 102.859 146.358, 108.107 146.252, 111.097 143.125, 114.424 143.023, 116.858 143.023, 116.860 142.772, 122.893 146.790, 118.691 143.023, 116.860 143.022, 116.859 139.692, 115.241 137.221, 114.040 133.239, 118.336 132.989, 122.414 132.662, 127.752 130.263, 130.293 129.733, 130.854 127.408, 133.316 123.557, 131.563 114.455, 127.420 105.354, 123.277 96.267, 119.140 96.736, 115.683 97.558, 109.635 95.522, 108.683 86.464, 104.446 79.461, 101.171 70.402, 96.935 69.470, 96.499 71.288, 87.371 73.240, 77.564 75.193, 67.756 75.902, 64.196 81.773, 56.101 82.874, 54.583 88.745, 46.488 94.616, 38.393 98.459, 33.094 104.330, 24.999 110.201, 16.903 111.184, 15.547 119.783, 20.651 128.382, 25.756 136.981, 30.861 145.580, 35.965 154.179, 41.070 160.326, 44.719 164.849, 47.404 167.513, 48.985 167.738, 49.118 167.767, 52.082 176.381, 57.161 176.972, 57.509 176.661, 47.514 176.548, 43.866 " fill="none" stroke="rgb(0, 119, 0)" stroke-linecap="butt" stroke-linejoin="round" stroke-opacity="1.0" stroke-width="3.0" />
            <path d=" M 135.138, 161.436 127.987, 168.426 127.235, 169.162 " fill="none" stroke="rgb(0, 119, 0)" stroke-linecap="butt" stroke-linejoin="round" stroke-opacity="1.0" stroke-width="3.0" />
            <path d=" M 106.458, 160.658 115.713, 164.446 120.803, 166.529 127.235, 169.162 127.899, 159.184 128.563, 149.206 129.088, 141.318 129.752, 131.340 129.783, 130.877 " fill="none" stroke="rgb(0, 119, 0)" stroke-linecap="butt" stroke-linejoin="round" stroke-opacity="1.0" stroke-width="3.0" />
            <path d=" M 156.726, 240.294 164.674, 234.225 169.886, 230.245 169.796, 221.715 169.785, 220.675 169.695, 212.104 169.628, 205.732 169.523, 195.732 169.505, 194.039 169.475, 191.190 169.370, 181.191 169.362, 180.451 169.323, 176.747 169.314, 175.907 163.796, 173.571 163.452, 173.425 162.343, 172.955 161.564, 172.625 160.004, 171.965 158.830, 171.468 158.059, 171.142 148.851, 167.242 147.868, 166.826 140.753, 163.813 135.564, 161.616 135.138, 161.436 134.706, 169.618 " fill="none" stroke="rgb(0, 119, 0)" stroke-linecap="butt" stroke-linejoin="round" stroke-opacity="1.0" stroke-width="3.0" />
            <path d=" M 75.666, 105.996 84.752, 110.173 93.838, 114.350 96.736, 115.683 105.822, 119.860 114.908, 124.038 123.826, 128.138 129.733, 130.854 129.783, 130.877 136.650, 123.607 143.022, 116.859 143.023, 116.858 149.890, 109.589 156.756, 102.319 159.988, 98.897 163.008, 95.699 163.416, 95.267 " fill="none" stroke="rgb(0, 119, 0)" stroke-linecap="butt" stroke-linejoin="round" stroke-opacity="1.0" stroke-width="3.0" />
            <path d=" M 107.928, 7.517 102.139, 15.671 100.968, 17.321 95.179, 25.476 89.391, 33.630 83.603, 41.784 77.814, 49.939 76.790, 51.383 74.800, 61.183 74.349, 63.404 72.360, 73.204 70.370, 83.004 68.813, 90.674 66.959, 99.806 76.036, 104.003 76.914, 104.409 85.991, 108.605 94.951, 112.748 95.522, 108.683 95.871, 106.193 97.261, 96.290 97.400, 95.296 98.790, 85.393 99.697, 78.934 100.293, 74.683 94.111, 82.544 87.929, 90.404 87.760, 90.618 83.659, 95.833 79.461, 101.171 76.914, 104.409 75.666, 105.996 73.872, 115.834 73.079, 120.184 " fill="none" stroke="rgb(0, 119, 0)" stroke-linecap="butt" stroke-linejoin="round" stroke-opacity="1.0" stroke-width="3.0" />
            <path d=" M 100.293, 74.683 102.263, 75.693 " fill="none" stroke="rgb(0, 119, 0)" stroke-linecap="butt" stroke-linejoin="round" stroke-opacity="1.0" stroke-width="3.0" />
            <path d=" M 132.172, 123.288 132.989, 122.414 139.692, 115.241 146.358, 108.107 153.185, 100.800 160.028, 93.477 " fill="none" stroke="rgb(0, 119, 0)" stroke-linecap="butt" stroke-linejoin="round" stroke-opacity="1.0" stroke-width="3.0" />
            <path d=" M 82.936, 100.102 91.983, 104.362 95.871, 106.193 104.918, 110.454 113.965, 114.714 123.012, 118.975 129.021, 121.805 132.172, 123.288 132.501, 118.042 132.849, 112.498 " fill="none" stroke="rgb(0, 119, 0)" stroke-linecap="butt" stroke-linejoin="round" stroke-opacity="1.0" stroke-width="3.0" />
            <path d=" M 232.847, 52.871 225.781, 59.948 222.222, 63.512 218.609, 67.130 217.176, 68.565 215.686, 70.058 208.868, 76.885 208.892, 77.121 209.889, 87.071 210.432, 92.491 210.494, 93.112 211.367, 101.820 211.978, 102.159 212.376, 102.381 221.119, 107.235 222.984, 108.270 231.727, 113.124 237.734, 116.459 239.875, 117.648 239.907, 117.620 240.545, 117.064 245.876, 112.421 253.416, 105.853 260.957, 99.285 265.602, 95.238 265.018, 92.542 264.390, 89.647 262.616, 81.462 260.572, 72.028 260.252, 70.555 251.850, 65.133 243.447, 59.711 236.068, 54.950 232.847, 52.871 " fill="none" stroke="rgb(0, 119, 0)" stroke-linecap="butt" stroke-linejoin="round" stroke-opacity="1.0" stroke-width="3.0" />
            <path d=" M 211.367, 101.820 217.302, 96.188 224.556, 89.305 231.810, 82.421 236.852, 77.636 " fill="none" stroke="rgb(0, 119, 0)" stroke-linecap="butt" stroke-linejoin="round" stroke-opacity="1.0" stroke-width="3.0" />
            <path d=" M 265.602, 95.238 257.074, 90.017 248.545, 84.795 240.017, 79.574 236.852, 77.636 235.943, 72.016 234.346, 62.145 232.847, 52.871 " fill="none" stroke="rgb(0, 119, 0)" stroke-linecap="butt" stroke-linejoin="round" stroke-opacity="1.0" stroke-width="3.0" />
            <path d=" M 239.875, 117.648 239.713, 116.601 238.410, 108.180 236.880, 98.297 236.043, 92.887 " fill="none" stroke="rgb(0, 119, 0)" stroke-linecap="butt" stroke-linejoin="round" stroke-opacity="1.0" stroke-width="3.0" />
            <path d=" M 208.868, 76.885 217.485, 81.960 226.102, 87.034 234.719, 92.108 236.043, 92.887 243.393, 86.107 249.536, 80.441 256.886, 73.660 260.252, 70.555 " fill="none" stroke="rgb(0, 119, 0)" stroke-linecap="butt" stroke-linejoin="round" stroke-opacity="1.0" stroke-width="3.0" />
            <path d=" M 239.030, 220.910 230.779, 226.558 222.527, 232.207 214.275, 237.855 206.023, 243.504 202.418, 245.971 " fill="none" stroke="rgb(0, 119, 0)" stroke-linecap="butt" stroke-linejoin="round" stroke-opacity="1.0" stroke-width="3.0" />
            <path d=" M 347.618, 186.400 344.970, 184.971 336.168, 180.225 332.017, 177.987 327.266, 175.424 325.798, 174.632 319.047, 179.114 320.516, 179.887 328.599, 184.134 334.895, 187.443 332.017, 177.987 330.573, 173.238 329.886, 170.982 326.975, 161.416 326.446, 159.677 325.837, 157.674 325.184, 155.528 318.058, 151.456 309.376, 146.495 303.836, 143.329 295.154, 138.367 291.449, 136.251 290.510, 135.714 286.594, 133.476 282.467, 136.680 274.568, 142.813 266.669, 148.945 261.221, 153.175 258.573, 155.231 258.437, 155.337 256.250, 157.035 255.941, 157.275 256.112, 157.362 265.027, 161.892 267.354, 163.074 274.080, 166.492 277.328, 168.142 279.891, 169.445 280.007, 169.504 280.293, 169.649 280.201, 169.220 279.915, 169.075 277.638, 167.916 274.390, 166.264 267.664, 162.841 258.751, 158.307 256.421, 157.122 256.250, 157.035 254.142, 155.962 251.864, 154.803 251.320, 154.526 243.701, 150.650 239.752, 148.641 239.209, 148.365 236.910, 150.242 235.091, 151.727 230.962, 155.096 230.369, 155.580 228.900, 156.779 227.288, 158.095 219.541, 164.419 211.794, 170.742 211.475, 171.002 208.252, 173.633 204.332, 176.832 202.649, 178.206 202.690, 178.785 203.395, 188.760 203.824, 194.833 203.985, 197.118 204.365, 202.494 204.381, 202.714 204.412, 203.161 204.523, 204.720 204.727, 207.620 205.171, 213.903 205.772, 222.400 205.992, 225.517 207.984, 226.264 208.169, 226.333 210.691, 227.279 210.488, 224.676 210.448, 224.174 210.310, 222.411 209.647, 213.931 209.070, 206.556 208.906, 204.461 208.896, 204.337 208.556, 199.991 208.521, 199.542 208.299, 196.700 208.082, 193.933 205.842, 195.675 205.731, 195.761 205.463, 195.969 203.985, 197.118 199.576, 200.546 199.754, 203.388 200.231, 211.018 200.623, 217.283 200.891, 221.557 201.034, 223.846 201.217, 226.770 201.778, 235.734 202.402, 245.714 202.418, 245.971 209.943, 248.560 218.534, 251.517 221.186, 252.429 224.442, 253.549 228.639, 254.994 238.095, 258.247 243.019, 259.942 250.250, 255.537 252.290, 254.294 257.304, 251.240 265.845, 246.039 269.297, 243.936 274.446, 240.800 280.105, 237.353 279.871, 236.123 278.497, 228.894 277.972, 226.137 277.579, 224.072 277.052, 221.299 275.767, 214.538 275.378, 212.496 273.510, 202.672 271.642, 192.848 271.542, 192.322 270.417, 191.798 270.634, 192.953 272.485, 202.781 274.220, 211.990 274.605, 214.034 276.089, 221.915 276.611, 224.686 277.579, 224.072 279.820, 222.651 285.771, 218.876 285.535, 218.774 282.833, 217.602 278.238, 215.610 275.767, 214.538 274.605, 214.034 270.712, 212.346 267.299, 210.867 266.863, 210.677 264.639, 209.713 261.313, 208.271 253.487, 204.877 252.924, 204.633 252.366, 204.391 245.290, 201.323 245.603, 203.535 246.322, 208.607 246.484, 209.747 246.836, 212.235 246.998, 213.375 247.218, 214.931 247.876, 219.572 254.183, 215.308 254.300, 215.229 254.532, 215.072 254.667, 214.981 254.508, 214.914 254.234, 214.799 254.300, 215.229 254.321, 215.365 254.641, 217.447 254.837, 218.725 255.112, 218.839 255.272, 218.905 258.165, 216.972 264.026, 213.055 265.093, 212.341 267.299, 210.867 269.017, 209.719 269.420, 209.449 267.639, 199.609 266.904, 195.547 266.695, 194.394 266.449, 193.035 265.350, 186.960 265.198, 186.119 264.917, 184.570 271.325, 179.976 273.851, 178.166 280.794, 173.188 287.487, 168.390 295.636, 172.595 298.491, 174.069 306.156, 178.025 315.043, 182.611 315.803, 183.003 318.432, 192.651 319.650, 197.119 320.527, 200.339 321.528, 204.011 323.526, 211.340 326.155, 220.988 327.319, 225.261 328.118, 228.192 324.672, 230.183 316.013, 235.184 313.078, 236.880 314.349, 242.090 315.532, 246.934 " fill="none" stroke="rgb(0, 119, 0)" stroke-linecap="butt" stroke-linejoin="round" stroke-opacity="1.0" stroke-width="3.0" />
            <path d=" M 280.105, 237.353 270.821, 233.636 268.619, 232.755 267.298, 232.226 258.015, 228.510 248.731, 224.793 248.410, 224.665 239.127, 220.948 239.030, 220.910 237.775, 210.989 237.435, 208.304 " fill="none" stroke="rgb(0, 119, 0)" stroke-linecap="butt" stroke-linejoin="round" stroke-opacity="1.0" stroke-width="3.0" />
            <path d=" M 243.019, 259.942 241.778, 250.019 240.537, 240.096 239.296, 230.173 238.055, 220.251 237.521, 215.980 " fill="none" stroke="rgb(0, 119, 0)" stroke-linecap="butt" stroke-linejoin="round" stroke-opacity="1.0" stroke-width="3.0" />
            <path d=" M 199.576, 200.546 204.365, 202.494 204.563, 202.574 208.896, 204.337 209.010, 204.383 218.273, 208.151 227.536, 211.919 228.045, 212.126 237.308, 215.894 237.521, 215.980 245.731, 210.271 246.318, 209.863 246.484, 209.747 251.665, 206.144 253.487, 204.877 261.697, 199.168 266.904, 195.547 270.634, 192.953 271.542, 192.322 " fill="none" stroke="rgb(0, 119, 0)" stroke-linecap="butt" stroke-linejoin="round" stroke-opacity="1.0" stroke-width="3.0" />
            <path d=" M 245.044, 209.499 246.156, 208.723 246.322, 208.607 250.544, 205.662 252.366, 204.391 260.567, 198.669 266.695, 194.394 270.417, 191.798 " fill="none" stroke="rgb(0, 119, 0)" stroke-linecap="butt" stroke-linejoin="round" stroke-opacity="1.0" stroke-width="3.0" />
            <path d=" M 208.082, 193.933 212.441, 195.768 213.091, 196.042 220.950, 199.352 230.166, 203.233 236.660, 205.968 245.044, 209.499 243.838, 200.838 243.170, 196.042 " fill="none" stroke="rgb(0, 119, 0)" stroke-linecap="butt" stroke-linejoin="round" stroke-opacity="1.0" stroke-width="3.0" />
            <path d=" M 276.611, 224.686 267.385, 220.828 266.494, 220.455 265.197, 219.913 258.165, 216.972 254.321, 215.365 254.183, 215.308 246.836, 212.235 246.641, 212.154 237.435, 208.304 229.279, 214.091 221.124, 219.877 212.968, 225.664 210.691, 227.279 " fill="none" stroke="rgb(0, 119, 0)" stroke-linecap="butt" stroke-linejoin="round" stroke-opacity="1.0" stroke-width="3.0" />
            <path d=" M 221.569, 256.606 221.186, 252.429 220.272, 242.471 219.357, 232.513 218.443, 222.555 218.136, 219.209 217.222, 209.251 216.308, 199.293 216.271, 198.894 " fill="none" stroke="rgb(0, 119, 0)" stroke-linecap="butt" stroke-linejoin="round" stroke-opacity="1.0" stroke-width="3.0" />
            <path d=" M 223.469, 243.505 231.807, 237.984 240.145, 232.463 248.711, 226.791 255.141, 222.534 " fill="none" stroke="rgb(0, 119, 0)" stroke-linecap="butt" stroke-linejoin="round" stroke-opacity="1.0" stroke-width="3.0" />
            <path d=" M 247.876, 219.572 255.141, 222.534 255.735, 226.417 " fill="none" stroke="rgb(0, 119, 0)" stroke-linecap="butt" stroke-linejoin="round" stroke-opacity="1.0" stroke-width="3.0" />
            <path d=" M 283.454, 237.564 279.871, 236.123 270.593, 232.392 268.404, 231.512 267.086, 230.981 257.808, 227.251 255.735, 226.417 249.258, 230.657 248.985, 230.836 " fill="none" stroke="rgb(0, 119, 0)" stroke-linecap="butt" stroke-linejoin="round" stroke-opacity="1.0" stroke-width="3.0" />
            <path d=" M 270.679, 270.726 267.912, 272.279 259.193, 277.176 255.784, 279.090 258.980, 280.118 " fill="none" stroke="rgb(0, 119, 0)" stroke-linecap="butt" stroke-linejoin="round" stroke-opacity="1.0" stroke-width="3.0" />
            <path d=" M 276.670, 241.670 274.446, 240.800 268.355, 238.416 268.064, 238.302 258.752, 234.658 249.300, 230.960 248.985, 230.836 250.380, 240.738 251.775, 250.640 252.290, 254.294 253.685, 264.197 255.004, 273.558 255.784, 279.090 " fill="none" stroke="rgb(0, 119, 0)" stroke-linecap="butt" stroke-linejoin="round" stroke-opacity="1.0" stroke-width="3.0" />
            <path d=" M 228.648, 297.000 227.685, 287.046 227.531, 285.453 226.567, 275.500 225.603, 265.546 224.640, 255.593 224.442, 253.549 223.469, 243.505 214.055, 240.132 204.641, 236.760 201.778, 235.734 192.364, 232.361 190.056, 231.534 184.222, 229.444 178.545, 227.410 " fill="none" stroke="rgb(0, 119, 0)" stroke-linecap="butt" stroke-linejoin="round" stroke-opacity="1.0" stroke-width="3.0" />
            <path d=" M 261.199, 267.483 259.697, 257.596 258.816, 251.792 " fill="none" stroke="rgb(0, 119, 0)" stroke-linecap="butt" stroke-linejoin="round" stroke-opacity="1.0" stroke-width="3.0" />
            <path d=" M 269.529, 245.294 260.979, 250.480 258.816, 251.792 257.304, 251.240 247.910, 247.812 238.517, 244.383 229.123, 240.954 224.977, 239.441 " fill="none" stroke="rgb(0, 119, 0)" stroke-linecap="butt" stroke-linejoin="round" stroke-opacity="1.0" stroke-width="3.0" />
            <path d=" M 255.179, 219.270 248.298, 223.866 239.982, 229.420 231.666, 234.974 224.977, 239.441 223.983, 229.491 222.989, 219.540 222.635, 215.993 221.641, 206.043 221.130, 200.930 " fill="none" stroke="rgb(0, 119, 0)" stroke-linecap="butt" stroke-linejoin="round" stroke-opacity="1.0" stroke-width="3.0" />
            <path d=" M 251.364, 165.900 250.301, 159.342 250.246, 159.006 249.886, 156.785 248.059, 158.220 245.197, 160.469 243.318, 161.945 241.854, 163.095 241.389, 163.460 233.526, 169.638 232.875, 170.150 230.747, 171.821 229.084, 173.128 231.018, 174.027 233.155, 172.357 241.036, 166.201 241.709, 165.675 242.176, 165.310 245.261, 162.900 245.535, 162.686 250.005, 159.194 250.246, 159.006 251.854, 157.749 252.297, 157.403 254.142, 155.962 256.328, 154.255 258.144, 152.836 259.111, 152.080 266.991, 145.924 274.872, 139.768 277.074, 138.048 274.916, 128.283 272.758, 118.519 271.804, 114.205 269.646, 104.440 268.849, 100.831 266.692, 91.074 264.390, 89.647 255.891, 84.379 250.662, 81.139 249.536, 80.441 241.036, 75.173 235.943, 72.016 233.278, 70.364 224.778, 65.096 222.222, 63.512 217.819, 60.783 212.783, 65.895 211.296, 67.404 204.278, 74.528 198.222, 80.675 191.203, 87.799 186.430, 92.644 185.944, 93.137 185.033, 94.062 178.015, 101.185 177.771, 101.433 177.258, 101.954 177.283, 102.820 177.836, 102.259 178.349, 101.739 177.771, 101.433 176.280, 100.642 171.017, 97.852 168.689, 96.617 163.011, 93.606 157.704, 90.793 155.055, 93.657 148.265, 100.998 147.355, 101.982 146.544, 102.859 139.754, 110.200 132.964, 117.542 132.501, 118.042 129.021, 121.805 123.888, 127.355 123.826, 128.138 123.557, 131.563 122.772, 141.532 122.727, 142.097 121.942, 152.066 121.157, 162.035 121.005, 163.965 120.803, 166.529 120.187, 174.360 129.475, 178.066 134.602, 180.112 143.890, 183.818 147.338, 185.194 155.172, 188.320 155.818, 188.577 161.535, 190.858 169.505, 194.039 173.346, 195.571 175.635, 193.672 183.330, 187.286 184.137, 186.617 191.170, 180.781 181.982, 176.834 173.421, 173.157 172.956, 172.958 166.890, 170.352 163.017, 168.688 160.033, 167.406 160.004, 171.965 159.990, 174.040 159.984, 175.071 159.974, 176.533 163.798, 178.129 165.821, 178.973 166.471, 179.245 169.362, 180.451 173.112, 182.016 182.341, 185.867 184.137, 186.617 190.052, 189.085 199.281, 192.937 203.824, 194.833 205.429, 195.502 205.721, 195.624 205.842, 195.675 208.299, 196.700 210.195, 197.492 212.441, 195.768 220.374, 189.681 223.415, 187.347 224.405, 186.587 232.324, 180.511 234.025, 179.205 241.959, 173.117 242.702, 172.547 243.175, 172.184 246.583, 169.569 251.364, 165.900 " fill="none" stroke="rgb(0, 119, 0)" stroke-linecap="butt" stroke-linejoin="round" stroke-opacity="1.0" stroke-width="3.0" />
            <path d=" M 210.195, 197.492 209.384, 187.525 208.572, 177.558 208.252, 173.633 207.441, 163.666 206.629, 153.699 206.471, 151.762 " fill="none" stroke="rgb(0, 119, 0)" stroke-linecap="butt" stroke-linejoin="round" stroke-opacity="1.0" stroke-width="3.0" />
            <path d=" M 189.318, 143.525 198.333, 147.854 206.471, 151.762 209.120, 149.481 216.697, 142.954 224.274, 136.428 224.660, 136.095 " fill="none" stroke="rgb(0, 119, 0)" stroke-linecap="butt" stroke-linejoin="round" stroke-opacity="1.0" stroke-width="3.0" />
            <path d=" M 211.584, 129.350 212.867, 130.012 221.754, 134.596 224.660, 136.095 225.019, 139.100 226.205, 149.029 227.288, 158.095 228.474, 168.025 229.084, 173.128 " fill="none" stroke="rgb(0, 119, 0)" stroke-linecap="butt" stroke-linejoin="round" stroke-opacity="1.0" stroke-width="3.0" />
            <path d=" M 191.170, 180.781 190.673, 170.793 190.177, 160.806 189.681, 150.818 189.318, 143.525 196.467, 137.038 199.615, 134.182 " fill="none" stroke="rgb(0, 119, 0)" stroke-linecap="butt" stroke-linejoin="round" stroke-opacity="1.0" stroke-width="3.0" />
            <path d=" M 255.941, 157.275 255.975, 157.468 257.683, 167.321 258.146, 169.990 259.854, 179.843 260.016, 180.775 260.564, 183.939 261.557, 189.662 262.608, 195.725 " fill="none" stroke="rgb(0, 119, 0)" stroke-linecap="butt" stroke-linejoin="round" stroke-opacity="1.0" stroke-width="3.0" />
            <path d=" M 262.608, 195.725 266.449, 193.035 267.108, 192.573 272.972, 188.467 281.163, 182.730 281.991, 182.151 282.615, 181.714 290.807, 175.977 295.636, 172.595 295.989, 172.348 298.844, 173.824 306.031, 177.538 314.915, 182.129 316.155, 182.770 320.735, 185.136 325.031, 182.333 320.454, 179.928 319.071, 179.201 310.218, 174.550 304.486, 171.538 303.147, 170.835 294.528, 166.307 285.991, 161.821 279.394, 166.635 277.638, 167.916 277.328, 168.142 269.250, 174.037 261.171, 179.931 260.016, 180.775 258.787, 181.671 257.595, 182.541 256.603, 183.264 254.199, 185.019 252.167, 186.501 250.732, 187.549 250.507, 187.713 250.336, 187.837 249.587, 188.384 248.379, 189.266 250.720, 190.329 250.926, 190.422 250.928, 190.423 255.402, 192.454 255.503, 192.500 256.767, 193.073 257.085, 193.218 260.233, 194.646 262.608, 195.725 " fill="none" stroke="rgb(0, 119, 0)" stroke-linecap="butt" stroke-linejoin="round" stroke-opacity="1.0" stroke-width="3.0" />
            <path d=" M 295.989, 172.348 294.528, 166.307 292.179, 156.587 289.830, 146.867 289.692, 146.297 289.459, 145.330 287.109, 135.609 286.594, 133.476 " fill="none" stroke="rgb(0, 119, 0)" stroke-linecap="butt" stroke-linejoin="round" stroke-opacity="1.0" stroke-width="3.0" />
            <path d=" M 325.184, 155.528 316.971, 161.233 308.757, 166.938 303.147, 170.835 298.844, 173.824 298.491, 174.069 290.278, 179.774 284.844, 183.548 " fill="none" stroke="rgb(0, 119, 0)" stroke-linecap="butt" stroke-linejoin="round" stroke-opacity="1.0" stroke-width="3.0" />
            <path d=" M 294.692, 228.949 292.572, 219.176 292.331, 218.066 291.694, 215.130 289.574, 205.357 287.455, 195.584 285.335, 185.811 284.844, 183.548 281.991, 182.151 273.851, 178.166 270.672, 176.610 " fill="none" stroke="rgb(0, 119, 0)" stroke-linecap="butt" stroke-linejoin="round" stroke-opacity="1.0" stroke-width="3.0" />
            <path d=" M 279.584, 222.551 278.238, 215.610 277.842, 213.572 275.938, 203.755 274.034, 193.938 272.972, 188.467 271.325, 179.976 270.672, 176.610 278.774, 170.748 280.293, 169.649 " fill="none" stroke="rgb(0, 119, 0)" stroke-linecap="butt" stroke-linejoin="round" stroke-opacity="1.0" stroke-width="3.0" />
            <path d=" M 279.584, 222.551 279.820, 222.651 287.436, 225.876 294.692, 228.949 296.792, 227.672 305.335, 222.475 308.604, 220.487 299.476, 216.403 296.847, 215.227 293.736, 213.835 291.694, 215.130 289.986, 216.213 287.502, 217.789 285.971, 218.760 285.725, 218.653 285.535, 218.774 279.584, 222.551 " fill="none" stroke="rgb(0, 119, 0)" stroke-linecap="butt" stroke-linejoin="round" stroke-opacity="1.0" stroke-width="3.0" />
            <path d=" M 231.920, 286.765 230.893, 276.818 229.866, 266.870 228.839, 256.923 228.639, 254.994 227.612, 245.047 226.700, 236.216 " fill="none" stroke="rgb(0, 119, 0)" stroke-linecap="butt" stroke-linejoin="round" stroke-opacity="1.0" stroke-width="3.0" />
            <path d=" M 183.911, 220.356 186.573, 221.342 188.708, 222.134 198.085, 225.609 201.217, 226.770 210.593, 230.246 219.970, 233.721 226.700, 236.216 235.001, 230.640 243.302, 225.063 248.019, 221.895 254.641, 217.447 262.942, 211.871 263.733, 211.339 " fill="none" stroke="rgb(0, 119, 0)" stroke-linecap="butt" stroke-linejoin="round" stroke-opacity="1.0" stroke-width="3.0" />
            <path d=" M 268.310, 238.150 268.102, 236.932 267.298, 232.226 267.086, 230.981 265.838, 223.670 265.197, 219.913 264.026, 213.055 263.952, 212.625 263.733, 211.339 259.487, 209.512 253.263, 206.832 251.665, 206.144 250.544, 205.662 245.603, 203.535 245.411, 203.452 246.156, 208.723 246.318, 209.863 246.641, 212.154 246.803, 213.294 247.023, 214.850 248.019, 221.895 248.298, 223.866 248.410, 224.665 248.711, 226.791 249.087, 229.450 249.258, 230.657 249.300, 230.960 250.700, 240.861 251.768, 248.408 " fill="none" stroke="rgb(0, 119, 0)" stroke-linecap="butt" stroke-linejoin="round" stroke-opacity="1.0" stroke-width="3.0" />
            <path d=" M 156.982, 217.080 166.386, 220.482 169.796, 221.715 179.200, 225.117 180.809, 225.699 184.135, 226.902 186.517, 227.764 188.983, 228.656 188.940, 227.630 188.872, 226.014 188.708, 222.134 188.610, 219.803 188.584, 219.181 188.486, 216.870 186.485, 218.395 183.911, 220.356 184.011, 223.279 184.100, 225.873 184.135, 226.902 184.222, 229.444 184.223, 229.469 184.565, 239.463 184.907, 249.457 185.236, 259.073 " fill="none" stroke="rgb(0, 119, 0)" stroke-linecap="butt" stroke-linejoin="round" stroke-opacity="1.0" stroke-width="3.0" />
            <path d=" M 203.418, 222.512 204.325, 221.851 " fill="none" stroke="rgb(0, 119, 0)" stroke-linecap="butt" stroke-linejoin="round" stroke-opacity="1.0" stroke-width="3.0" />
            <path d=" M 203.116, 204.153 203.420, 208.608 204.102, 218.585 204.325, 221.851 205.772, 222.400 210.448, 224.174 210.933, 224.357 214.158, 225.581 " fill="none" stroke="rgb(0, 119, 0)" stroke-linecap="butt" stroke-linejoin="round" stroke-opacity="1.0" stroke-width="3.0" />
            <path d=" M 188.486, 216.870 191.156, 217.878 200.510, 221.413 200.891, 221.557 203.418, 222.512 202.753, 212.534 202.535, 209.277 202.209, 204.377 " fill="none" stroke="rgb(0, 119, 0)" stroke-linecap="butt" stroke-linejoin="round" stroke-opacity="1.0" stroke-width="3.0" />
            <path d=" M 212.679, 208.013 213.518, 217.978 213.878, 222.252 214.158, 225.581 222.320, 219.802 230.481, 214.023 238.642, 208.245 245.411, 203.452 " fill="none" stroke="rgb(0, 119, 0)" stroke-linecap="butt" stroke-linejoin="round" stroke-opacity="1.0" stroke-width="3.0" />
            <path d=" M 199.744, 100.695 192.576, 107.668 191.373, 108.838 " fill="none" stroke="rgb(0, 119, 0)" stroke-linecap="butt" stroke-linejoin="round" stroke-opacity="1.0" stroke-width="3.0" />
            <path d=" M 290.262, 98.899 283.648, 94.727 279.229, 91.940 " fill="none" stroke="rgb(0, 119, 0)" stroke-linecap="butt" stroke-linejoin="round" stroke-opacity="1.0" stroke-width="3.0" />
            <path d=" M 243.067, 138.033 242.605, 135.047 241.263, 126.380 241.103, 125.346 241.000, 124.683 239.907, 117.620 239.752, 116.623 238.448, 108.202 236.918, 98.319 236.302, 94.341 " fill="none" stroke="rgb(0, 119, 0)" stroke-linecap="butt" stroke-linejoin="round" stroke-opacity="1.0" stroke-width="3.0" />
            <path d=" M 209.975, 78.889 218.599, 83.951 227.224, 89.012 235.848, 94.074 236.302, 94.341 243.664, 87.573 250.662, 81.139 258.024, 74.371 260.572, 72.028 267.933, 65.260 275.295, 58.493 278.649, 55.409 " fill="none" stroke="rgb(0, 119, 0)" stroke-linecap="butt" stroke-linejoin="round" stroke-opacity="1.0" stroke-width="3.0" />
            <path d=" M 214.276, 120.975 213.834, 116.653 212.818, 106.705 212.376, 102.381 211.400, 92.835 210.384, 82.887 209.975, 78.889 217.062, 71.834 217.652, 71.246 " fill="none" stroke="rgb(0, 119, 0)" stroke-linecap="butt" stroke-linejoin="round" stroke-opacity="1.0" stroke-width="3.0" />
            <path d=" M 196.534, 58.480 205.092, 63.653 211.296, 67.404 215.686, 70.058 215.850, 70.157 217.652, 71.246 217.340, 68.665 217.176, 68.565 212.783, 65.895 204.238, 60.700 198.009, 56.913 " fill="none" stroke="rgb(0, 119, 0)" stroke-linecap="butt" stroke-linejoin="round" stroke-opacity="1.0" stroke-width="3.0" />
            <path d=" M 240.426, 135.624 233.417, 131.918 224.577, 127.244 215.736, 122.570 213.703, 121.495 210.436, 119.767 202.428, 115.532 201.474, 115.028 192.656, 110.366 191.424, 109.714 " fill="none" stroke="rgb(0, 119, 0)" stroke-linecap="butt" stroke-linejoin="round" stroke-opacity="1.0" stroke-width="3.0" />
            <path d=" M 240.592, 136.728 240.426, 135.624 235.858, 139.450 " fill="none" stroke="rgb(0, 119, 0)" stroke-linecap="butt" stroke-linejoin="round" stroke-opacity="1.0" stroke-width="3.0" />
            <path d=" M 126.662, 143.833 127.369, 133.858 127.408, 133.316 " fill="none" stroke="rgb(0, 119, 0)" stroke-linecap="butt" stroke-linejoin="round" stroke-opacity="1.0" stroke-width="3.0" />
            <path d=" M 171.816, 93.352 169.550, 95.718 168.689, 96.617 166.017, 99.407 163.415, 102.125 163.001, 102.557 159.937, 105.757 157.486, 108.317 152.064, 113.978 148.921, 117.260 142.005, 124.483 136.959, 129.753 136.344, 130.395 138.610, 131.447 " fill="none" stroke="rgb(0, 119, 0)" stroke-linecap="butt" stroke-linejoin="round" stroke-opacity="1.0" stroke-width="3.0" />
            <path d=" M 137.221, 114.040 136.686, 124.026 136.344, 130.395 " fill="none" stroke="rgb(0, 119, 0)" stroke-linecap="butt" stroke-linejoin="round" stroke-opacity="1.0" stroke-width="3.0" />
            <path d=" M 160.347, 42.001 164.841, 44.686 169.063, 47.207 169.288, 47.342 171.019, 48.376 170.967, 45.419 170.742, 45.283 164.831, 41.730 162.014, 40.036 " fill="none" stroke="rgb(0, 119, 0)" stroke-linecap="butt" stroke-linejoin="round" stroke-opacity="1.0" stroke-width="3.0" />
            <path d=" M 170.967, 45.419 169.288, 47.342 167.738, 49.118 " fill="none" stroke="rgb(0, 119, 0)" stroke-linecap="butt" stroke-linejoin="round" stroke-opacity="1.0" stroke-width="3.0" />
            <path d=" M 75.902, 64.196 74.349, 63.404 65.441, 58.860 65.185, 58.730 " fill="none" stroke="rgb(0, 119, 0)" stroke-linecap="butt" stroke-linejoin="round" stroke-opacity="1.0" stroke-width="3.0" />
            <path d=" M 287.487, 168.390 285.991, 161.821 " fill="none" stroke="rgb(0, 119, 0)" stroke-linecap="butt" stroke-linejoin="round" stroke-opacity="1.0" stroke-width="3.0" />
            <path d=" M 249.716, 198.171 245.290, 201.323 " fill="none" stroke="rgb(0, 119, 0)" stroke-linecap="butt" stroke-linejoin="round" stroke-opacity="1.0" stroke-width="3.0" />
            <path d=" M 254.667, 214.981 255.272, 218.905 " fill="none" stroke="rgb(0, 119, 0)" stroke-linecap="butt" stroke-linejoin="round" stroke-opacity="1.0" stroke-width="3.0" />
            <path d=" M 248.379, 189.266 249.508, 196.785 249.716, 198.171 248.389, 197.585 246.177, 196.609 " fill="none" stroke="rgb(0, 119, 0)" stroke-linecap="butt" stroke-linejoin="round" stroke-opacity="1.0" stroke-width="3.0" />
            <path d=" M 320.290, 244.273 319.061, 239.413 314.349, 242.090 309.881, 244.628 309.088, 245.079 300.393, 250.019 293.245, 254.080 292.391, 254.565 287.340, 257.435 294.485, 260.097 299.537, 257.283 308.273, 252.417 316.230, 247.985 320.612, 245.544 " fill="none" stroke="rgb(0, 119, 0)" stroke-linecap="butt" stroke-linejoin="round" stroke-opacity="1.0" stroke-width="3.0" />
            <path d=" M 294.485, 260.097 293.245, 254.080 291.228, 244.285 289.221, 234.542 288.660, 231.817 287.436, 225.876 285.971, 218.760 " fill="none" stroke="rgb(0, 119, 0)" stroke-linecap="butt" stroke-linejoin="round" stroke-opacity="1.0" stroke-width="3.0" />
            <path d=" M 340.832, 232.783 338.035, 223.183 336.997, 219.619 328.358, 224.655 327.319, 225.261 323.894, 227.257 315.255, 232.294 306.616, 237.330 300.596, 240.839 299.802, 241.302 309.088, 245.079 316.230, 247.985 321.802, 250.251 " fill="none" stroke="rgb(0, 119, 0)" stroke-linecap="butt" stroke-linejoin="round" stroke-opacity="1.0" stroke-width="3.0" />
            <path d=" M 293.736, 213.835 294.385, 216.775 296.542, 226.540 296.792, 227.672 298.949, 237.437 299.802, 241.302 " fill="none" stroke="rgb(0, 119, 0)" stroke-linecap="butt" stroke-linejoin="round" stroke-opacity="1.0" stroke-width="3.0" />
            <path d=" M 287.340, 257.435 285.421, 247.621 283.501, 237.806 283.454, 237.564 276.670, 241.670 278.473, 251.506 280.275, 261.342 282.078, 271.178 283.881, 281.015 285.265, 288.568 " fill="none" stroke="rgb(0, 119, 0)" stroke-linecap="butt" stroke-linejoin="round" stroke-opacity="1.0" stroke-width="3.0" />
            <path d=" M 285.771, 218.876 285.725, 218.653 " fill="none" stroke="rgb(0, 119, 0)" stroke-linecap="butt" stroke-linejoin="round" stroke-opacity="1.0" stroke-width="3.0" />
            <path d=" M 317.667, 202.137 311.610, 199.198 303.186, 204.586 294.761, 209.974 286.337, 215.361 284.554, 216.502 " fill="none" stroke="rgb(0, 119, 0)" stroke-linecap="butt" stroke-linejoin="round" stroke-opacity="1.0" stroke-width="3.0" />
            <path d=" M 289.854, 231.089 288.660, 231.817 287.416, 232.575 284.581, 234.304 285.120, 237.021 " fill="none" stroke="rgb(0, 119, 0)" stroke-linecap="butt" stroke-linejoin="round" stroke-opacity="1.0" stroke-width="3.0" />
            <path d=" M 284.581, 234.304 287.586, 235.530 " fill="none" stroke="rgb(0, 119, 0)" stroke-linecap="butt" stroke-linejoin="round" stroke-opacity="1.0" stroke-width="3.0" />
            <path d=" M 315.803, 183.003 316.155, 182.770 320.454, 179.928 320.516, 179.887 327.266, 175.424 330.573, 173.238 338.914, 167.723 341.041, 166.317 " fill="none" stroke="rgb(0, 119, 0)" stroke-linecap="butt" stroke-linejoin="round" stroke-opacity="1.0" stroke-width="3.0" />
            <path d=" M 264.917, 184.570 258.787, 181.671 256.129, 180.414 248.849, 176.972 " fill="none" stroke="rgb(0, 119, 0)" stroke-linecap="butt" stroke-linejoin="round" stroke-opacity="1.0" stroke-width="3.0" />
            <path d=" M 199.685, 99.917 199.744, 100.695 190.973, 95.892 188.059, 94.296 186.595, 93.494 185.944, 93.137 184.445, 92.316 " fill="none" stroke="rgb(0, 119, 0)" stroke-linecap="butt" stroke-linejoin="round" stroke-opacity="1.0" stroke-width="3.0" />
            <path d=" M 169.669, 145.867 176.956, 139.020 184.244, 132.172 188.976, 127.725 " fill="none" stroke="rgb(0, 119, 0)" stroke-linecap="butt" stroke-linejoin="round" stroke-opacity="1.0" stroke-width="3.0" />
            <path d=" M 189.020, 128.597 188.976, 127.725 189.743, 128.110 " fill="none" stroke="rgb(0, 119, 0)" stroke-linecap="butt" stroke-linejoin="round" stroke-opacity="1.0" stroke-width="3.0" />
            <path d=" M 189.788, 128.981 189.743, 128.110 192.874, 125.175 " fill="none" stroke="rgb(0, 119, 0)" stroke-linecap="butt" stroke-linejoin="round" stroke-opacity="1.0" stroke-width="3.0" />
            <path d=" M 192.925, 126.047 192.874, 125.175 200.373, 128.986 203.624, 130.638 " fill="none" stroke="rgb(0, 119, 0)" stroke-linecap="butt" stroke-linejoin="round" stroke-opacity="1.0" stroke-width="3.0" />
            <path d=" M 217.340, 68.665 215.850, 70.157 208.892, 77.121 201.824, 84.196 194.757, 91.271 190.922, 95.109 183.855, 102.184 179.541, 106.501 " fill="none" stroke="rgb(0, 119, 0)" stroke-linecap="butt" stroke-linejoin="round" stroke-opacity="1.0" stroke-width="3.0" />
            <path d=" M 180.273, 128.503 180.074, 122.535 179.742, 112.540 179.541, 106.501 173.594, 103.381 168.341, 100.626 166.017, 99.407 163.416, 98.043 163.006, 97.828 160.007, 96.255 155.055, 93.657 147.766, 89.833 " fill="none" stroke="rgb(0, 119, 0)" stroke-linecap="butt" stroke-linejoin="round" stroke-opacity="1.0" stroke-width="3.0" />
            <path d=" M 167.767, 52.082 171.019, 48.376 " fill="none" stroke="rgb(0, 119, 0)" stroke-linecap="butt" stroke-linejoin="round" stroke-opacity="1.0" stroke-width="3.0" />
            <path d=" M 146.790, 118.691 147.128, 108.696 147.355, 101.982 147.693, 91.988 147.766, 89.833 154.470, 82.413 159.055, 77.339 165.759, 69.919 172.463, 62.499 176.972, 57.509 " fill="none" stroke="rgb(0, 119, 0)" stroke-linecap="butt" stroke-linejoin="round" stroke-opacity="1.0" stroke-width="3.0" />
            <path d=" M 319.047, 179.114 319.071, 179.201 320.735, 185.136 " fill="none" stroke="rgb(0, 119, 0)" stroke-linecap="butt" stroke-linejoin="round" stroke-opacity="1.0" stroke-width="3.0" />
            <path d=" M 325.031, 182.333 327.811, 191.938 328.747, 195.171 331.527, 204.777 334.307, 214.383 335.637, 218.978 " fill="none" stroke="rgb(0, 119, 0)" stroke-linecap="butt" stroke-linejoin="round" stroke-opacity="1.0" stroke-width="3.0" />
            <path d=" M 336.997, 219.619 335.637, 218.978 338.396, 217.363 " fill="none" stroke="rgb(0, 119, 0)" stroke-linecap="butt" stroke-linejoin="round" stroke-opacity="1.0" stroke-width="3.0" />
            <path d=" M 354.602, 225.082 345.574, 220.782 338.396, 217.363 335.568, 207.772 332.740, 198.180 331.367, 193.523 328.599, 184.134 325.798, 174.632 " fill="none" stroke="rgb(0, 119, 0)" stroke-linecap="butt" stroke-linejoin="round" stroke-opacity="1.0" stroke-width="3.0" />
            <path d=" M 331.005, 253.995 328.435, 244.331 327.707, 241.592 327.367, 240.315 324.797, 230.651 324.672, 230.183 323.894, 227.257 321.324, 217.593 320.199, 213.364 " fill="none" stroke="rgb(0, 119, 0)" stroke-linecap="butt" stroke-linejoin="round" stroke-opacity="1.0" stroke-width="3.0" />
            <path d=" M 305.156, 206.318 308.515, 207.891 317.571, 212.133 320.199, 213.364 323.526, 211.340 332.069, 206.142 340.612, 200.945 349.155, 195.747 350.426, 194.974 356.577, 191.231 " fill="none" stroke="rgb(0, 119, 0)" stroke-linecap="butt" stroke-linejoin="round" stroke-opacity="1.0" stroke-width="3.0" />
            <path d=" M 308.604, 220.487 306.239, 210.771 305.934, 209.514 305.156, 206.318 313.599, 200.959 319.650, 197.119 328.093, 191.760 334.895, 187.443 " fill="none" stroke="rgb(0, 119, 0)" stroke-linecap="butt" stroke-linejoin="round" stroke-opacity="1.0" stroke-width="3.0" />
            <path d=" M 252.945, 196.163 256.090, 197.568 " fill="none" stroke="rgb(0, 119, 0)" stroke-linecap="butt" stroke-linejoin="round" stroke-opacity="1.0" stroke-width="3.0" />
            <path d=" M 263.080, 200.689 262.324, 201.212 257.371, 204.634 263.028, 207.104 264.283, 207.652 " fill="none" stroke="rgb(0, 119, 0)" stroke-linecap="butt" stroke-linejoin="round" stroke-opacity="1.0" stroke-width="3.0" />
            <path d=" M 290.613, 219.147 289.986, 216.213 287.897, 206.434 285.807, 196.655 283.718, 186.875 282.615, 181.714 280.794, 173.188 280.007, 169.504 279.915, 169.075 279.394, 166.635 278.425, 162.097 " fill="none" stroke="rgb(0, 119, 0)" stroke-linecap="butt" stroke-linejoin="round" stroke-opacity="1.0" stroke-width="3.0" />
            <path d=" M 238.714, 141.502 247.591, 146.106 250.146, 147.431 250.683, 147.709 257.897, 151.451 259.111, 152.080 261.221, 153.175 270.098, 157.779 272.645, 159.100 278.425, 162.097 286.468, 156.156 294.512, 150.215 302.556, 144.274 303.836, 143.329 311.880, 137.388 319.924, 131.447 327.967, 125.506 330.370, 123.731 " fill="none" stroke="rgb(0, 119, 0)" stroke-linecap="butt" stroke-linejoin="round" stroke-opacity="1.0" stroke-width="3.0" />
            <path d=" M 243.348, 173.376 243.175, 172.184 242.176, 165.310 241.854, 163.095 240.415, 153.199 239.752, 148.641 238.714, 141.502 242.962, 137.978 247.902, 133.881 248.322, 133.532 250.739, 131.528 " fill="none" stroke="rgb(0, 119, 0)" stroke-linecap="butt" stroke-linejoin="round" stroke-opacity="1.0" stroke-width="3.0" />
            <path d=" M 253.062, 177.983 249.654, 176.367 243.348, 173.376 235.406, 179.451 227.463, 185.527 219.521, 191.603 211.578, 197.679 208.556, 199.991 204.412, 203.161 203.116, 204.153 204.523, 204.720 207.157, 205.784 209.070, 206.556 212.679, 208.013 220.703, 202.046 228.728, 196.079 236.752, 190.111 244.777, 184.144 249.423, 180.689 251.065, 179.468 253.062, 177.983 253.486, 180.607 254.199, 185.019 255.402, 192.454 255.419, 192.560 255.633, 193.881 255.686, 194.213 256.214, 197.480 257.371, 204.634 " fill="none" stroke="rgb(0, 119, 0)" stroke-linecap="butt" stroke-linejoin="round" stroke-opacity="1.0" stroke-width="3.0" />
            <path d=" M 319.061, 239.413 313.078, 236.880 " fill="none" stroke="rgb(0, 119, 0)" stroke-linecap="butt" stroke-linejoin="round" stroke-opacity="1.0" stroke-width="3.0" />
            <path d=" M 111.184, 15.547 111.936, 9.926 " fill="none" stroke="rgb(0, 119, 0)" stroke-linecap="butt" stroke-linejoin="round" stroke-opacity="1.0" stroke-width="3.0" />
            <path d=" M 66.959, 99.806 69.470, 96.499 " fill="none" stroke="rgb(0, 119, 0)" stroke-linecap="butt" stroke-linejoin="round" stroke-opacity="1.0" stroke-width="3.0" />
            <path d=" M 176.391, 38.806 173.561, 42.050 170.742, 45.283 169.063, 47.207 167.513, 48.985 160.939, 56.521 154.366, 64.057 148.052, 71.297 147.646, 71.761 " fill="none" stroke="rgb(0, 119, 0)" stroke-linecap="butt" stroke-linejoin="round" stroke-opacity="1.0" stroke-width="3.0" />
            <path d=" M 103.644, 65.509 103.335, 65.346 94.485, 60.690 85.634, 56.035 82.874, 54.583 76.790, 51.383 " fill="none" stroke="rgb(0, 119, 0)" stroke-linecap="butt" stroke-linejoin="round" stroke-opacity="1.0" stroke-width="3.0" />
            <path d=" M 113.401, 52.988 113.480, 52.313 " fill="none" stroke="rgb(0, 119, 0)" stroke-linecap="butt" stroke-linejoin="round" stroke-opacity="1.0" stroke-width="3.0" />
            <path d=" M 84.786, 89.175 87.760, 90.618 89.700, 91.559 97.400, 95.296 106.397, 99.662 115.394, 104.028 124.391, 108.393 132.849, 112.498 139.600, 105.120 146.350, 97.743 146.740, 97.317 153.491, 89.939 160.242, 82.561 163.025, 79.519 " fill="none" stroke="rgb(0, 119, 0)" stroke-linecap="butt" stroke-linejoin="round" stroke-opacity="1.0" stroke-width="3.0" />
            <path d=" M 205.992, 225.517 210.310, 222.411 218.428, 216.571 226.546, 210.731 234.664, 204.892 242.781, 199.052 246.177, 196.609 244.748, 186.712 244.074, 182.047 242.702, 172.547 241.709, 165.675 241.389, 163.460 239.960, 153.563 239.209, 148.365 " fill="none" stroke="rgb(0, 119, 0)" stroke-linecap="butt" stroke-linejoin="round" stroke-opacity="1.0" stroke-width="3.0" />
            <path d=" M 280.201, 169.220 279.891, 169.445 271.792, 175.311 263.693, 181.177 260.150, 183.743 257.056, 185.984 250.928, 190.423 250.926, 190.424 243.170, 196.042 234.017, 192.013 231.964, 191.110 224.069, 187.634 223.415, 187.347 214.263, 183.318 205.110, 179.289 202.649, 178.206 " fill="none" stroke="rgb(0, 119, 0)" stroke-linecap="butt" stroke-linejoin="round" stroke-opacity="1.0" stroke-width="3.0" />
            <path d=" M 169.886, 230.245 160.448, 226.940 156.887, 225.693 " fill="none" stroke="rgb(0, 119, 0)" stroke-linecap="butt" stroke-linejoin="round" stroke-opacity="1.0" stroke-width="3.0" />
            <path d=" M 132.963, 258.439 133.444, 248.451 133.925, 238.462 134.406, 228.474 134.887, 218.485 135.332, 209.249 135.509, 205.578 " fill="none" stroke="rgb(0, 119, 0)" stroke-linecap="butt" stroke-linejoin="round" stroke-opacity="1.0" stroke-width="3.0" />
            <path d=" M 82.206, 186.040 91.595, 189.482 100.984, 192.923 110.373, 196.365 119.762, 199.806 129.151, 203.248 133.319, 204.776 135.509, 205.578 143.025, 198.982 147.043, 195.455 154.558, 188.859 155.172, 188.320 162.688, 181.723 163.800, 180.747 165.821, 178.973 169.314, 175.907 " fill="none" stroke="rgb(0, 119, 0)" stroke-linecap="butt" stroke-linejoin="round" stroke-opacity="1.0" stroke-width="3.0" />
            <path d=" M 105.582, 168.898 106.458, 160.658 100.515, 166.879 " fill="none" stroke="rgb(0, 119, 0)" stroke-linecap="butt" stroke-linejoin="round" stroke-opacity="1.0" stroke-width="3.0" />
            <path d=" M 195.777, 84.193 188.751, 91.309 187.081, 93.001 186.595, 93.494 185.077, 95.031 178.352, 101.843 177.905, 102.296 177.352, 102.856 176.965, 103.248 178.420, 104.015 178.807, 103.625 179.361, 103.066 185.177, 97.202 188.059, 94.296 188.545, 93.805 195.587, 86.704 195.929, 86.360 197.249, 85.029 195.777, 84.193 " fill="none" stroke="rgb(0, 119, 0)" stroke-linecap="butt" stroke-linejoin="round" stroke-opacity="1.0" stroke-width="3.0" />
            <path d=" M 176.965, 103.248 177.246, 113.245 177.527, 123.241 177.807, 133.237 177.902, 136.593 " fill="none" stroke="rgb(0, 119, 0)" stroke-linecap="butt" stroke-linejoin="round" stroke-opacity="1.0" stroke-width="3.0" />
            <path d=" M 179.456, 137.342 177.902, 136.593 178.481, 136.047 185.757, 129.188 193.033, 122.328 198.116, 117.536 " fill="none" stroke="rgb(0, 119, 0)" stroke-linecap="butt" stroke-linejoin="round" stroke-opacity="1.0" stroke-width="3.0" />
            <path d=" M 199.689, 118.358 198.562, 117.769 198.116, 117.536 197.742, 112.213 197.298, 105.876 197.175, 104.130 196.768, 98.317 196.068, 88.341 195.929, 86.360 195.777, 84.193 " fill="none" stroke="rgb(0, 119, 0)" stroke-linecap="butt" stroke-linejoin="round" stroke-opacity="1.0" stroke-width="3.0" />
            <path d=" M 179.806, 148.605 179.495, 138.610 179.462, 137.561 179.456, 137.342 186.748, 130.500 194.041, 123.658 199.689, 118.358 199.576, 116.815 199.300, 113.038 198.677, 104.541 198.550, 102.795 198.283, 99.148 197.552, 89.175 197.249, 85.029 " fill="none" stroke="rgb(0, 119, 0)" stroke-linecap="butt" stroke-linejoin="round" stroke-opacity="1.0" stroke-width="3.0" />
            <path d=" M 319.343, 71.207 316.816, 73.317 309.140, 79.726 301.463, 86.134 293.787, 92.543 291.116, 94.773 292.480, 99.802 295.097, 109.454 296.005, 112.801 303.539, 106.786 306.381, 104.517 314.196, 98.277 322.011, 92.038 322.950, 91.287 330.765, 85.048 334.576, 82.005 " fill="none" stroke="rgb(0, 119, 0)" stroke-linecap="butt" stroke-linejoin="round" stroke-opacity="1.0" stroke-width="3.0" />
            <path d=" M 335.976, 152.234 332.871, 142.729 329.766, 133.223 329.598, 132.707 326.493, 123.201 325.704, 120.784 324.080, 115.813 " fill="none" stroke="rgb(0, 119, 0)" stroke-linecap="butt" stroke-linejoin="round" stroke-opacity="1.0" stroke-width="3.0" />
            <path d=" M 291.116, 94.773 299.545, 100.153 306.381, 104.517 314.811, 109.897 323.240, 115.277 324.080, 115.813 332.048, 109.771 340.016, 103.728 347.983, 97.686 355.951, 91.643 363.368, 86.018 " fill="none" stroke="rgb(0, 119, 0)" stroke-linecap="butt" stroke-linejoin="round" stroke-opacity="1.0" stroke-width="3.0" />
            <path d=" M 120.187, 174.360 127.324, 167.355 134.461, 160.351 135.692, 159.142 142.829, 152.138 148.450, 146.622 155.587, 139.617 155.786, 139.422 157.115, 138.118 " fill="none" stroke="rgb(0, 119, 0)" stroke-linecap="butt" stroke-linejoin="round" stroke-opacity="1.0" stroke-width="3.0" />
            <path d=" M 180.270, 148.928 171.638, 144.898 169.646, 143.968 163.407, 141.056 159.107, 139.048 158.383, 138.710 157.115, 138.118 157.138, 136.275 157.262, 126.276 157.341, 119.955 157.441, 111.925 157.486, 108.317 157.610, 98.317 157.704, 90.793 " fill="none" stroke="rgb(0, 119, 0)" stroke-linecap="butt" stroke-linejoin="round" stroke-opacity="1.0" stroke-width="3.0" />
            <path d=" M 160.033, 167.406 163.021, 164.678 170.406, 157.935 177.790, 151.192 180.270, 148.928 180.267, 148.821 " fill="none" stroke="rgb(0, 119, 0)" stroke-linecap="butt" stroke-linejoin="round" stroke-opacity="1.0" stroke-width="3.0" />
            <path d=" M 196.284, 134.192 188.900, 140.936 181.516, 147.680 180.267, 148.821 179.806, 148.605 187.185, 141.856 194.564, 135.107 195.818, 133.960 " fill="none" stroke="rgb(0, 119, 0)" stroke-linecap="butt" stroke-linejoin="round" stroke-opacity="1.0" stroke-width="3.0" />
            <path d=" M 178.420, 104.015 178.352, 101.843 178.349, 101.739 " fill="none" stroke="rgb(0, 119, 0)" stroke-linecap="butt" stroke-linejoin="round" stroke-opacity="1.0" stroke-width="3.0" />
            <path d=" M 123.888, 127.355 130.263, 130.293 136.812, 133.310 141.931, 135.669 151.013, 139.854 152.711, 140.636 158.338, 143.229 159.068, 143.566 160.943, 144.429 168.449, 147.888 172.557, 149.781 " fill="none" stroke="rgb(0, 119, 0)" stroke-linecap="butt" stroke-linejoin="round" stroke-opacity="1.0" stroke-width="3.0" />
            <path d=" M 206.574, 118.285 202.914, 121.674 196.328, 127.772 188.990, 134.566 181.652, 141.360 174.315, 148.154 172.557, 149.781 172.729, 159.780 172.902, 169.778 172.956, 172.958 173.112, 182.016 173.284, 192.015 173.297, 192.730 173.346, 195.571 " fill="none" stroke="rgb(0, 119, 0)" stroke-linecap="butt" stroke-linejoin="round" stroke-opacity="1.0" stroke-width="3.0" />
            <path d=" M 267.143, 224.208 265.838, 223.670 256.594, 219.855 255.179, 219.270 255.112, 218.839 254.532, 215.072 254.508, 214.914 253.263, 206.832 252.924, 204.633 251.496, 195.364 250.720, 190.329 250.336, 187.837 248.889, 178.444 " fill="none" stroke="rgb(0, 119, 0)" stroke-linecap="butt" stroke-linejoin="round" stroke-opacity="1.0" stroke-width="3.0" />
            <path d=" M 223.651, 107.660 222.598, 99.197 221.363, 89.273 220.129, 79.350 218.894, 69.426 218.609, 67.130 217.819, 60.783 " fill="none" stroke="rgb(0, 119, 0)" stroke-linecap="butt" stroke-linejoin="round" stroke-opacity="1.0" stroke-width="3.0" />
            <path d=" M 231.018, 174.027 230.747, 171.821 229.528, 161.896 228.900, 156.779 227.682, 146.854 226.567, 137.776 226.153, 134.409 225.289, 127.368 " fill="none" stroke="rgb(0, 119, 0)" stroke-linecap="butt" stroke-linejoin="round" stroke-opacity="1.0" stroke-width="3.0" />
            <path d=" M 177.258, 101.954 177.836, 102.259 177.905, 102.296 179.361, 103.066 188.200, 107.743 191.408, 109.441 191.600, 109.543 192.833, 110.195 201.651, 114.861 202.406, 115.260 210.614, 119.604 213.882, 121.333 222.721, 126.010 225.289, 127.368 232.809, 120.777 237.734, 116.459 238.404, 115.872 243.731, 111.202 251.250, 104.611 258.770, 98.019 265.018, 92.542 266.692, 91.074 " fill="none" stroke="rgb(0, 119, 0)" stroke-linecap="butt" stroke-linejoin="round" stroke-opacity="1.0" stroke-width="3.0" />
            <path d=" M 203.833, 136.292 207.194, 133.282 211.584, 129.350 211.064, 123.889 210.954, 122.736 " fill="none" stroke="rgb(0, 119, 0)" stroke-linecap="butt" stroke-linejoin="round" stroke-opacity="1.0" stroke-width="3.0" />
            <path d=" M 203.313, 129.686 203.533, 129.486 210.954, 122.736 208.565, 121.482 206.771, 120.540 " fill="none" stroke="rgb(0, 119, 0)" stroke-linecap="butt" stroke-linejoin="round" stroke-opacity="1.0" stroke-width="3.0" />
            <path d=" M 199.147, 127.564 203.093, 123.929 206.771, 120.540 206.574, 118.285 202.474, 116.120 201.090, 115.389 192.274, 110.735 183.431, 106.066 178.807, 103.625 177.352, 102.856 177.283, 102.820 " fill="none" stroke="rgb(0, 119, 0)" stroke-linecap="butt" stroke-linejoin="round" stroke-opacity="1.0" stroke-width="3.0" />
            <path d=" M 207.998, 226.455 207.984, 226.264 207.247, 216.291 206.507, 206.274 206.145, 201.363 205.731, 195.761 205.721, 195.624 204.984, 185.651 204.332, 176.832 203.815, 169.827 " fill="none" stroke="rgb(0, 119, 0)" stroke-linecap="butt" stroke-linejoin="round" stroke-opacity="1.0" stroke-width="3.0" />
            <path d=" M 148.503, 144.783 156.706, 148.497 158.278, 149.209 159.017, 149.543 164.188, 151.885 173.298, 156.009 182.407, 160.134 191.517, 164.259 200.627, 168.384 203.815, 169.827 211.507, 163.437 219.200, 157.048 226.892, 150.658 234.584, 144.268 236.331, 142.817 242.469, 137.718 247.804, 133.287 248.223, 132.939 " fill="none" stroke="rgb(0, 119, 0)" stroke-linecap="butt" stroke-linejoin="round" stroke-opacity="1.0" stroke-width="3.0" />
            <path d=" M 170.124, 123.480 178.230, 127.492 180.273, 128.503 187.506, 121.597 194.739, 114.692 197.481, 112.075 201.825, 107.927 " fill="none" stroke="rgb(0, 119, 0)" stroke-linecap="butt" stroke-linejoin="round" stroke-opacity="1.0" stroke-width="3.0" />
            <path d=" M 158.399, 137.091 159.121, 137.430 " fill="none" stroke="rgb(0, 119, 0)" stroke-linecap="butt" stroke-linejoin="round" stroke-opacity="1.0" stroke-width="3.0" />
            <path d=" M 203.833, 136.292 203.447, 131.382 203.313, 129.686 200.933, 128.473 199.147, 127.564 199.267, 129.262 199.316, 129.955 199.615, 134.182 203.833, 136.292 " fill="none" stroke="rgb(0, 119, 0)" stroke-linecap="butt" stroke-linejoin="round" stroke-opacity="1.0" stroke-width="3.0" />
            <path d=" M 143.125, 114.424 148.921, 117.260 151.213, 118.382 156.397, 120.918 159.812, 122.589 " fill="none" stroke="rgb(0, 119, 0)" stroke-linecap="butt" stroke-linejoin="round" stroke-opacity="1.0" stroke-width="3.0" />
            <path d=" M 162.983, 119.390 159.847, 117.835 159.559, 117.693 154.362, 115.117 152.064, 113.978 146.252, 111.097 " fill="none" stroke="rgb(0, 119, 0)" stroke-linecap="butt" stroke-linejoin="round" stroke-opacity="1.0" stroke-width="3.0" />
            <path d=" M 170.165, 126.621 169.437, 126.263 " fill="none" stroke="rgb(0, 119, 0)" stroke-linecap="butt" stroke-linejoin="round" stroke-opacity="1.0" stroke-width="3.0" />
            <path d=" M 158.013, 175.818 158.799, 175.111 159.990, 174.040 161.564, 172.625 163.015, 171.321 " fill="none" stroke="rgb(0, 119, 0)" stroke-linecap="butt" stroke-linejoin="round" stroke-opacity="1.0" stroke-width="3.0" />
            <path d=" M 251.873, 196.558 253.092, 197.101 255.335, 198.100 262.324, 201.212 263.241, 201.620 267.987, 203.733 " fill="none" stroke="rgb(0, 119, 0)" stroke-linecap="butt" stroke-linejoin="round" stroke-opacity="1.0" stroke-width="3.0" />
            <path d=" M 268.983, 209.258 267.987, 203.733 264.066, 206.398 263.028, 207.104 261.313, 208.271 259.487, 209.512 251.219, 215.134 " fill="none" stroke="rgb(0, 119, 0)" stroke-linecap="butt" stroke-linejoin="round" stroke-opacity="1.0" stroke-width="3.0" />
            <path d=" M 251.449, 216.684 251.219, 215.134 246.998, 213.375 246.803, 213.294 237.571, 209.449 233.919, 207.928 224.688, 204.083 219.691, 202.002 218.226, 201.391 " fill="none" stroke="rgb(0, 119, 0)" stroke-linecap="butt" stroke-linejoin="round" stroke-opacity="1.0" stroke-width="3.0" />
            <path d=" M 269.420, 209.449 268.983, 209.258 268.580, 209.528 266.863, 210.677 265.019, 211.911 263.952, 212.625 255.642, 218.187 254.837, 218.725 " fill="none" stroke="rgb(0, 119, 0)" stroke-linecap="butt" stroke-linejoin="round" stroke-opacity="1.0" stroke-width="3.0" />
            <path d=" M 254.234, 214.799 251.449, 216.684 247.218, 214.931 247.023, 214.850 237.784, 211.023 232.596, 208.873 223.358, 205.045 218.376, 202.982 " fill="none" stroke="rgb(0, 119, 0)" stroke-linecap="butt" stroke-linejoin="round" stroke-opacity="1.0" stroke-width="3.0" />
            <path d=" M 133.239, 118.336 142.261, 122.649 142.772, 122.893 " fill="none" stroke="rgb(0, 119, 0)" stroke-linecap="butt" stroke-linejoin="round" stroke-opacity="1.0" stroke-width="3.0" />
            <path d=" M 94.951, 112.748 97.558, 109.635 " fill="none" stroke="rgb(0, 119, 0)" stroke-linecap="butt" stroke-linejoin="round" stroke-opacity="1.0" stroke-width="3.0" />
            <path d=" M 163.407, 142.064 159.098, 140.058 158.373, 139.720 155.159, 138.225 146.093, 134.005 144.356, 133.196 139.226, 130.808 136.959, 129.753 132.662, 127.752 " fill="none" stroke="rgb(0, 119, 0)" stroke-linecap="butt" stroke-linejoin="round" stroke-opacity="1.0" stroke-width="3.0" />
            <path d=" M 159.974, 176.533 163.452, 173.425 163.796, 173.118 166.890, 170.352 174.346, 163.688 181.802, 157.024 189.258, 150.360 196.885, 143.543 " fill="none" stroke="rgb(0, 119, 0)" stroke-linecap="butt" stroke-linejoin="round" stroke-opacity="1.0" stroke-width="3.0" />
            <path d=" M 251.364, 165.900 245.261, 162.900 243.318, 161.945 234.343, 157.534 231.067, 155.924 230.369, 155.580 222.265, 151.597 " fill="none" stroke="rgb(0, 119, 0)" stroke-linecap="butt" stroke-linejoin="round" stroke-opacity="1.0" stroke-width="3.0" />
            <path d=" M 246.266, 120.931 253.114, 124.736 256.701, 126.728 265.442, 131.585 274.184, 136.442 277.074, 138.048 " fill="none" stroke="rgb(0, 119, 0)" stroke-linecap="butt" stroke-linejoin="round" stroke-opacity="1.0" stroke-width="3.0" />
            <path d=" M 221.234, 142.337 230.163, 146.839 232.041, 147.786 236.910, 150.242 245.839, 154.744 249.886, 156.785 " fill="none" stroke="rgb(0, 119, 0)" stroke-linecap="butt" stroke-linejoin="round" stroke-opacity="1.0" stroke-width="3.0" />
            <path d=" M 236.509, 144.086 245.406, 148.651 250.806, 151.422 251.347, 151.699 256.328, 154.255 258.437, 155.337 258.608, 155.425 " fill="none" stroke="rgb(0, 119, 0)" stroke-linecap="butt" stroke-linejoin="round" stroke-opacity="1.0" stroke-width="3.0" />
            <path d=" M 230.225, 149.290 235.091, 151.727 244.032, 156.204 248.059, 158.220 250.005, 159.194 250.301, 159.342 252.282, 160.334 " fill="none" stroke="rgb(0, 119, 0)" stroke-linecap="butt" stroke-linejoin="round" stroke-opacity="1.0" stroke-width="3.0" />
            <path d=" M 146.810, 203.529 154.390, 197.007 161.535, 190.858 163.804, 188.906 " fill="none" stroke="rgb(0, 119, 0)" stroke-linecap="butt" stroke-linejoin="round" stroke-opacity="1.0" stroke-width="3.0" />
            <path d=" M 163.795, 171.653 162.343, 172.955 159.984, 175.071 158.790, 176.142 " fill="none" stroke="rgb(0, 119, 0)" stroke-linecap="butt" stroke-linejoin="round" stroke-opacity="1.0" stroke-width="3.0" />
            <path d=" M 163.031, 152.969 159.004, 151.154 158.262, 150.820 155.557, 149.601 148.457, 146.401 139.340, 142.293 136.632, 141.073 " fill="none" stroke="rgb(0, 119, 0)" stroke-linecap="butt" stroke-linejoin="round" stroke-opacity="1.0" stroke-width="3.0" />
            <path d=" M 257.861, 190.815 250.732, 187.549 250.463, 187.425 242.042, 183.568 234.118, 179.937 " fill="none" stroke="rgb(0, 119, 0)" stroke-linecap="butt" stroke-linejoin="round" stroke-opacity="1.0" stroke-width="3.0" />
            <path d=" M 89.288, 127.338 95.770, 119.723 96.267, 119.140 " fill="none" stroke="rgb(0, 119, 0)" stroke-linecap="butt" stroke-linejoin="round" stroke-opacity="1.0" stroke-width="3.0" />
            <path d=" M 192.737, 275.056 201.160, 269.666 209.583, 264.276 218.006, 258.886 221.569, 256.606 231.042, 259.810 240.515, 263.014 249.988, 266.217 259.461, 269.421 261.204, 270.011 " fill="none" stroke="rgb(0, 119, 0)" stroke-linecap="butt" stroke-linejoin="round" stroke-opacity="1.0" stroke-width="3.0" />
            <path d=" M 263.967, 268.430 261.199, 267.483 269.862, 262.488 272.231, 261.122 " fill="none" stroke="rgb(0, 119, 0)" stroke-linecap="butt" stroke-linejoin="round" stroke-opacity="1.0" stroke-width="3.0" />
            <path d=" M 270.338, 210.295 268.545, 200.458 267.108, 192.573 266.000, 186.497 " fill="none" stroke="rgb(0, 119, 0)" stroke-linecap="butt" stroke-linejoin="round" stroke-opacity="1.0" stroke-width="3.0" />
            <path d=" M 339.722, 233.404 330.600, 229.307 328.118, 228.192 " fill="none" stroke="rgb(0, 119, 0)" stroke-linecap="butt" stroke-linejoin="round" stroke-opacity="1.0" stroke-width="3.0" />
        </g>
    </g>
</svg>
