<?xml version='1.0' encoding='ascii'?>
<svg xmlns="http://www.w3.org/2000/svg" xmlns:inkscape="http://www.inkscape.org/namespaces/inkscape" height="1485" version="1.1" width="2100">
    <g id="fressstylelayer_LineSet" inkscape:groupmode="lineset" inkscape:label="fressstylelayer_LineSet">
        <g id="strokes" inkscape:groupmode="layer" inkscape:label="strokes">
            <path d=" M 1973.790, 562.498 1982.803, 558.167 1991.816, 553.835 1998.354, 550.693 1996.672, 545.576 1993.578, 536.165 1990.454, 526.666 1987.331, 517.166 1984.207, 507.666 1981.084, 498.167 1977.960, 488.667 1974.837, 479.167 1971.713, 469.668 1968.590, 460.168 1965.466, 450.668 1962.343, 441.169 1959.219, 431.669 1956.096, 422.169 1952.973, 412.670 1949.849, 403.170 1946.725, 393.670 1943.602, 384.171 1940.479, 374.671 1937.355, 365.171 1934.232, 355.672 1931.108, 346.172 1927.984, 336.672 1924.861, 327.172 1921.738, 317.673 1918.614, 308.173 1915.491, 298.673 1912.367, 289.174 1909.244, 279.674 1906.120, 270.174 1902.997, 260.675 1899.873, 251.175 1896.750, 241.675 1893.626, 232.176 1890.503, 222.676 1887.379, 213.176 1884.256, 203.677 1881.132, 194.177 1878.009, 184.677 1874.885, 175.178 1871.762, 165.678 1868.638, 156.178 1865.515, 146.679 1862.391, 137.179 1859.268, 127.679 1856.144, 118.180 1853.021, 108.680 1849.897, 99.180 1846.774, 89.681 1844.394, 82.443 1834.846, 85.416 1825.298, 88.389 1815.751, 91.362 1806.203, 94.335 1796.655, 97.308 1787.107, 100.281 1777.559, 103.254 1768.011, 106.227 1758.463, 109.200 1748.916, 112.172 1739.368, 115.145 1729.820, 118.118 1720.272, 121.091 1710.724, 124.064 1701.176, 127.037 1691.628, 130.010 1682.080, 132.983 1672.532, 135.956 1662.985, 138.929 1653.437, 141.902 1643.889, 144.875 1634.341, 147.847 1624.793, 150.820 1615.245, 153.793 1605.697, 156.766 1596.150, 159.739 1586.602, 162.712 1577.054, 165.685 1567.506, 168.658 1557.958, 171.631 1548.410, 174.604 1538.862, 177.576 1529.314, 180.549 1519.767, 183.522 1510.219, 186.495 1500.671, 189.468 1491.123, 192.441 1481.575, 195.414 1472.027, 198.387 1462.479, 201.360 1452.932, 204.333 1443.384, 207.306 1433.836, 210.278 1424.288, 213.251 1414.740, 216.224 1405.192, 219.197 1395.644, 222.170 1386.096, 225.143 1376.549, 228.116 1369.684, 230.253 1367.570, 230.911 1358.022, 233.884 1348.474, 236.857 1338.926, 239.830 1329.378, 242.803 1319.830, 245.776 1317.506, 246.500 1307.958, 249.473 1298.411, 252.446 1295.511, 253.348 1285.963, 256.321 1276.415, 259.294 1266.867, 262.267 1257.319, 265.240 1247.771, 268.213 1238.224, 271.186 1228.676, 274.159 1219.128, 277.132 1209.580, 280.105 1200.032, 283.078 1190.484, 286.050 1180.936, 289.023 1171.388, 291.996 1161.841, 294.969 1152.293, 297.942 1142.745, 300.915 1133.197, 303.888 1123.649, 306.861 1112.428, 310.355 1102.880, 313.328 1093.332, 316.301 1083.784, 319.273 1074.236, 322.246 1068.640, 323.989 " fill="none" stroke="rgb(157, 20, 170)" stroke-linecap="butt" stroke-linejoin="round" stroke-opacity="1.0" stroke-width="3.0" />
            <path d=" M 1068.640, 323.989 1078.359, 326.342 1088.078, 328.696 1097.798, 331.050 1107.517, 333.404 1117.236, 335.757 1126.955, 338.111 1136.674, 340.465 1146.393, 342.818 1156.112, 345.172 1165.831, 347.526 1175.550, 349.879 1185.269, 352.233 1194.988, 354.587 1204.707, 356.941 1214.426, 359.294 1224.145, 361.648 1233.864, 364.002 1243.583, 366.355 1253.302, 368.709 1263.021, 371.063 1272.741, 373.417 1282.460, 375.770 1292.179, 378.124 1301.898, 380.478 1311.617, 382.831 1321.336, 385.185 1331.055, 387.539 1340.774, 389.892 1350.493, 392.246 1360.212, 394.600 1369.931, 396.953 1379.650, 399.307 1389.369, 401.661 1399.088, 404.015 1408.807, 406.368 1418.526, 408.722 1428.245, 411.076 1437.965, 413.429 1447.684, 415.783 1457.403, 418.137 1467.122, 420.491 1476.841, 422.844 1486.560, 425.198 1496.279, 427.552 1505.998, 429.905 1515.717, 432.259 1525.436, 434.613 1535.155, 436.967 1544.874, 439.320 1554.593, 441.674 1564.312, 444.028 1574.031, 446.381 1583.750, 448.735 1593.469, 451.089 1603.188, 453.443 1612.908, 455.796 1622.627, 458.150 1632.346, 460.504 1644.874, 463.538 " fill="none" stroke="rgb(157, 20, 170)" stroke-linecap="butt" stroke-linejoin="round" stroke-opacity="1.0" stroke-width="3.0" />
            <path d=" M 132.803, 110.928 142.542, 113.199 152.281, 115.470 162.019, 117.741 171.758, 120.012 181.497, 122.283 191.235, 124.554 200.974, 126.825 210.713, 129.096 220.451, 131.367 230.190, 133.639 239.929, 135.910 249.668, 138.181 259.406, 140.452 269.145, 142.723 278.884, 144.994 288.622, 147.265 298.361, 149.536 308.100, 151.807 317.839, 154.078 327.577, 156.349 337.316, 158.620 347.055, 160.891 356.793, 163.162 366.532, 165.433 376.271, 167.704 386.009, 169.975 395.748, 172.246 405.487, 174.517 409.461, 175.444 419.199, 177.715 428.938, 179.986 438.677, 182.257 448.415, 184.528 458.154, 186.799 467.893, 189.070 477.632, 191.341 487.370, 193.612 497.109, 195.883 506.848, 198.154 516.586, 200.425 526.325, 202.696 536.064, 204.967 545.802, 207.238 555.541, 209.509 565.280, 211.780 575.019, 214.051 584.757, 216.322 594.496, 218.593 604.235, 220.864 613.973, 223.135 623.712, 225.406 633.451, 227.677 643.190, 229.948 652.928, 232.219 662.667, 234.490 672.406, 236.761 682.144, 239.033 691.883, 241.304 701.622, 243.575 711.361, 245.846 721.099, 248.117 730.838, 250.388 740.577, 252.659 750.315, 254.930 760.054, 257.201 769.793, 259.472 779.531, 261.743 789.270, 264.014 799.009, 266.285 808.748, 268.556 818.486, 270.827 828.225, 273.098 837.964, 275.369 847.702, 277.640 857.441, 279.911 867.180, 282.182 876.919, 284.453 886.657, 286.724 896.396, 288.995 906.135, 291.266 915.873, 293.537 925.612, 295.808 935.351, 298.079 945.089, 300.350 954.828, 302.621 964.567, 304.892 974.306, 307.163 984.044, 309.435 993.783, 311.706 1003.522, 313.977 1013.260, 316.248 1022.999, 318.519 1032.738, 320.790 1042.477, 323.061 1052.215, 325.332 1061.954, 327.603 1071.693, 329.874 1081.431, 332.145 1091.170, 334.416 1100.909, 336.687 1110.647, 338.958 1120.386, 341.229 1130.125, 343.500 1139.864, 345.771 1149.602, 348.042 1159.341, 350.313 1169.080, 352.584 1178.818, 354.855 1188.557, 357.126 1198.296, 359.397 1208.035, 361.668 1217.773, 363.939 1227.512, 366.210 1237.251, 368.481 1246.989, 370.752 1256.728, 373.023 1266.467, 375.294 1276.206, 377.565 1285.944, 379.837 1295.683, 382.108 1305.422, 384.379 1315.160, 386.650 1324.899, 388.921 1334.638, 391.192 1344.376, 393.463 1354.115, 395.734 1363.854, 398.005 1373.593, 400.276 1383.331, 402.547 1393.070, 404.818 1402.809, 407.089 1412.547, 409.360 1422.286, 411.631 1432.025, 413.902 1441.764, 416.173 1451.502, 418.444 1461.241, 420.715 1470.980, 422.986 1480.718, 425.257 1490.457, 427.528 1500.196, 429.799 1509.934, 432.070 1519.673, 434.341 1529.412, 436.612 1539.151, 438.883 1548.889, 441.154 1558.628, 443.425 1568.367, 445.696 1578.105, 447.967 1587.844, 450.238 1597.583, 452.510 1607.322, 454.781 1617.060, 457.052 1626.799, 459.323 1644.874, 463.538 1636.022, 468.189 1627.169, 472.841 1618.317, 477.493 1609.465, 482.145 1600.613, 486.796 1591.761, 491.448 1582.909, 496.100 1574.056, 500.752 1565.204, 505.404 1556.352, 510.055 1547.500, 514.707 1538.648, 519.359 1529.796, 524.011 1520.943, 528.662 1512.091, 533.314 1503.239, 537.966 1494.387, 542.618 1485.535, 547.269 1476.682, 551.921 1467.830, 556.573 1458.978, 561.225 1450.126, 565.877 1441.274, 570.528 1432.422, 575.180 1423.569, 579.832 1414.717, 584.484 1405.865, 589.135 1397.013, 593.787 1388.161, 598.439 1379.308, 603.091 1370.456, 607.742 1361.604, 612.394 1352.752, 617.046 1343.900, 621.698 1335.048, 626.350 1326.195, 631.001 1317.343, 635.653 1308.491, 640.305 1299.639, 644.957 1290.787, 649.608 1281.935, 654.260 1273.082, 658.912 1264.230, 663.564 1255.378, 668.216 1246.526, 672.867 1237.674, 677.519 1228.822, 682.171 1219.969, 686.823 1211.117, 691.474 1202.265, 696.126 1193.413, 700.778 1184.561, 705.430 1175.708, 710.081 1166.856, 714.733 1158.004, 719.385 1149.152, 724.037 1140.300, 728.689 1131.448, 733.340 1122.595, 737.992 1113.743, 742.644 1104.891, 747.296 1096.039, 751.947 1087.187, 756.599 1078.334, 761.251 1069.482, 765.903 1060.630, 770.554 1051.778, 775.206 1042.926, 779.858 1034.074, 784.510 1025.221, 789.162 1016.369, 793.813 1007.517, 798.465 998.665, 803.117 989.813, 807.769 980.961, 812.420 972.108, 817.072 963.256, 821.724 954.404, 826.376 945.552, 831.027 936.700, 835.679 927.848, 840.331 918.995, 844.983 910.143, 849.635 901.291, 854.286 892.439, 858.938 883.587, 863.590 874.734, 868.242 865.882, 872.893 857.030, 877.545 848.178, 882.197 839.326, 886.849 828.049, 892.775 " fill="none" stroke="rgb(157, 20, 170)" stroke-linecap="butt" stroke-linejoin="round" stroke-opacity="1.0" stroke-width="3.0" />
            <path d=" M 1973.790, 562.498 1964.181, 565.268 1954.572, 568.038 1944.964, 570.808 1935.355, 573.578 1925.746, 576.348 1916.137, 579.117 1906.529, 581.887 1896.920, 584.657 1887.311, 587.427 1877.703, 590.197 1868.094, 592.967 1858.485, 595.737 1848.876, 598.506 1839.267, 601.276 1829.659, 604.046 1820.050, 606.816 1810.441, 609.586 1800.833, 612.356 1791.224, 615.126 1781.615, 617.895 1772.006, 620.665 1761.085, 623.813 1751.477, 626.583 1741.868, 629.353 1732.259, 632.123 1722.650, 634.893 1713.042, 637.663 1703.433, 640.433 1693.824, 643.203 1684.215, 645.972 1674.607, 648.742 1664.998, 651.512 1655.389, 654.282 1645.780, 657.052 1636.172, 659.822 1626.563, 662.591 1616.954, 665.361 1607.345, 668.131 1597.737, 670.901 1588.128, 673.671 1578.519, 676.441 1568.910, 679.211 1559.302, 681.981 1549.693, 684.750 1540.084, 687.520 1530.475, 690.290 1520.867, 693.060 1511.258, 695.830 1501.649, 698.600 1492.041, 701.370 1482.432, 704.139 1472.823, 706.909 1463.214, 709.679 1453.606, 712.449 1443.997, 715.219 1434.388, 717.989 1424.779, 720.759 1415.171, 723.528 1405.562, 726.298 1395.953, 729.068 1386.344, 731.838 1376.736, 734.608 1367.127, 737.378 1357.518, 740.148 1347.909, 742.917 1338.301, 745.687 1328.692, 748.457 1319.083, 751.227 1309.474, 753.997 1299.866, 756.767 1290.257, 759.537 1280.648, 762.306 1271.040, 765.076 1261.431, 767.846 1251.822, 770.616 1242.213, 773.386 1232.605, 776.156 1222.996, 778.926 1213.387, 781.695 1203.778, 784.465 1194.170, 787.235 1184.561, 790.005 1174.952, 792.775 1165.343, 795.545 1155.735, 798.315 1146.126, 801.084 1136.517, 803.854 1126.908, 806.624 1117.300, 809.394 1107.691, 812.164 1098.082, 814.934 1088.474, 817.704 1078.865, 820.473 1069.256, 823.243 1059.647, 826.013 1050.038, 828.783 1040.430, 831.553 1030.821, 834.323 1021.212, 837.093 1011.604, 839.862 1001.995, 842.632 992.386, 845.402 982.777, 848.172 973.169, 850.942 963.560, 853.712 953.951, 856.482 944.342, 859.251 934.734, 862.021 925.125, 864.791 915.516, 867.561 905.907, 870.331 896.299, 873.101 886.690, 875.871 877.081, 878.640 867.472, 881.410 857.864, 884.180 848.255, 886.950 838.646, 889.720 828.049, 892.775 837.647, 889.969 847.246, 887.164 856.844, 884.358 866.442, 881.552 876.041, 878.747 885.639, 875.941 895.237, 873.135 904.836, 870.330 914.434, 867.524 924.032, 864.719 933.631, 861.913 943.229, 859.107 952.828, 856.302 962.426, 853.496 972.024, 850.690 981.623, 847.885 991.221, 845.079 1000.819, 842.274 1010.418, 839.468 1020.016, 836.662 1029.614, 833.857 1039.213, 831.051 1048.811, 828.246 1058.409, 825.440 1068.008, 822.634 1077.606, 819.829 1087.205, 817.023 1096.803, 814.218 1106.401, 811.412 1116.000, 808.606 1125.598, 805.801 1135.196, 802.995 1144.795, 800.189 1154.393, 797.384 1163.991, 794.578 1173.590, 791.773 1183.188, 788.967 1192.786, 786.161 1202.385, 783.356 1211.983, 780.550 1221.582, 777.745 1231.180, 774.939 1240.778, 772.133 1250.377, 769.328 1259.975, 766.522 1269.573, 763.716 1279.172, 760.911 1288.770, 758.105 1298.369, 755.300 1307.967, 752.494 1317.565, 749.688 1327.164, 746.883 1336.762, 744.077 1346.360, 741.272 1355.959, 738.466 1365.557, 735.660 1375.155, 732.855 1384.754, 730.049 1394.352, 727.244 1403.950, 724.438 1413.549, 721.632 1423.147, 718.827 1432.745, 716.021 1442.344, 713.215 1451.942, 710.410 1461.541, 707.604 1471.139, 704.799 1480.737, 701.993 1490.336, 699.187 1499.934, 696.382 1509.532, 693.576 1519.131, 690.771 1528.729, 687.965 1538.328, 685.159 1547.926, 682.354 1557.524, 679.548 1567.123, 676.742 1576.721, 673.937 1586.319, 671.131 1595.918, 668.326 1605.516, 665.520 1615.114, 662.714 1624.713, 659.909 1634.311, 657.103 1643.909, 654.298 1653.508, 651.492 1663.106, 648.686 1672.705, 645.881 1682.303, 643.075 1691.901, 640.270 1701.500, 637.464 1711.098, 634.658 1720.696, 631.853 1730.295, 629.047 1739.893, 626.241 1749.491, 623.436 1760.061, 620.346 1769.659, 617.541 1779.257, 614.735 1788.856, 611.930 1798.454, 609.124 1808.052, 606.318 1817.651, 603.513 1827.249, 600.707 1836.847, 597.902 1846.446, 595.096 1856.044, 592.290 1865.642, 589.485 1875.241, 586.679 1884.839, 583.873 1894.438, 581.068 1904.036, 578.262 1913.634, 575.457 1923.233, 572.651 1932.831, 569.845 1942.429, 567.040 1952.028, 564.234 1961.626, 561.429 1972.865, 558.144 1982.463, 555.338 1992.061, 552.532 1998.354, 550.693 " fill="none" stroke="rgb(157, 20, 170)" stroke-linecap="butt" stroke-linejoin="round" stroke-opacity="1.0" stroke-width="3.0" />
            <path d=" M 642.758, 1184.845 648.337, 1193.144 653.917, 1201.443 659.496, 1209.742 665.075, 1218.041 670.654, 1226.340 676.233, 1234.639 681.812, 1242.938 687.392, 1251.237 692.971, 1259.536 698.745, 1268.125 708.737, 1267.720 718.729, 1267.315 728.721, 1266.911 738.712, 1266.506 748.704, 1266.101 758.696, 1265.696 768.688, 1265.292 778.680, 1264.887 788.671, 1264.482 798.663, 1264.077 808.655, 1263.672 818.647, 1263.268 828.639, 1262.863 838.630, 1262.458 848.622, 1262.053 858.614, 1261.648 868.606, 1261.244 878.598, 1260.839 888.589, 1260.434 898.581, 1260.029 908.573, 1259.625 918.565, 1259.220 928.557, 1258.815 938.548, 1258.410 948.540, 1258.005 958.532, 1257.601 968.524, 1257.196 978.516, 1256.791 988.507, 1256.386 998.499, 1255.982 1010.827, 1255.482 " fill="none" stroke="rgb(157, 20, 170)" stroke-linecap="butt" stroke-linejoin="round" stroke-opacity="1.0" stroke-width="3.0" />
            <path d=" M 416.355, 143.350 406.420, 142.214 396.484, 141.078 386.549, 139.942 376.614, 138.806 366.679, 137.670 356.743, 136.534 346.808, 135.398 336.873, 134.262 326.937, 133.126 317.002, 131.990 307.067, 130.854 297.132, 129.718 287.196, 128.582 277.261, 127.446 267.326, 126.310 257.391, 125.174 247.455, 124.038 237.520, 122.902 227.585, 121.766 217.650, 120.630 207.714, 119.494 197.779, 118.358 187.844, 117.222 177.909, 116.086 167.973, 114.950 158.038, 113.814 148.103, 112.678 138.167, 111.542 132.803, 110.928 131.419, 120.832 130.036, 130.736 128.652, 140.640 127.268, 150.543 125.885, 160.447 124.501, 170.351 123.118, 180.255 121.734, 190.159 120.350, 200.062 118.967, 209.966 117.583, 219.870 116.199, 229.774 114.816, 239.678 113.432, 249.582 112.048, 259.485 110.665, 269.389 109.281, 279.293 107.897, 289.197 106.514, 299.101 105.130, 309.004 103.746, 318.908 102.363, 328.812 100.979, 338.716 99.595, 348.620 98.212, 358.523 96.828, 368.427 95.444, 378.331 94.061, 388.235 92.677, 398.139 91.293, 408.043 89.910, 417.946 88.526, 427.850 87.142, 437.754 85.759, 447.658 84.375, 457.562 82.992, 467.465 81.608, 477.369 80.224, 487.273 78.841, 497.177 77.457, 507.081 76.073, 516.984 74.690, 526.888 73.306, 536.792 71.922, 546.696 70.539, 556.600 69.155, 566.504 67.771, 576.407 66.388, 586.311 65.004, 596.215 63.620, 606.119 62.237, 616.023 60.853, 625.926 59.469, 635.830 58.086, 645.734 56.702, 655.638 55.318, 665.542 53.935, 675.445 52.551, 685.349 51.167, 695.253 49.784, 705.157 48.400, 715.061 47.016, 724.965 45.633, 734.868 44.249, 744.772 42.866, 754.676 41.482, 764.580 40.098, 774.484 38.715, 784.387 37.331, 794.291 35.947, 804.195 34.564, 814.099 33.180, 824.003 31.796, 833.906 30.413, 843.810 29.029, 853.714 27.645, 863.618 26.262, 873.522 24.878, 883.426 23.494, 893.329 22.111, 903.233 20.727, 913.137 19.343, 923.041 17.960, 932.945 16.576, 942.848 15.192, 952.752 13.809, 962.656 12.425, 972.560 11.041, 982.464 9.658, 992.367 8.274, 1002.271 6.890, 1012.175 5.507, 1022.079 4.123, 1031.983 2.740, 1041.887 1.356, 1051.790 0.001, 1061.491 9.821, 1063.376 19.642, 1065.260 29.463, 1067.145 39.284, 1069.030 49.105, 1070.914 58.925, 1072.799 68.746, 1074.684 78.567, 1076.569 88.388, 1078.453 98.208, 1080.338 108.029, 1082.223 117.850, 1084.108 127.671, 1085.992 137.492, 1087.877 147.312, 1089.762 157.133, 1091.647 166.954, 1093.531 176.775, 1095.416 186.595, 1097.301 196.416, 1099.186 206.237, 1101.070 216.058, 1102.955 225.879, 1104.840 235.699, 1106.725 245.520, 1108.609 255.341, 1110.494 265.162, 1112.379 274.983, 1114.264 284.803, 1116.148 294.624, 1118.033 304.445, 1119.918 314.266, 1121.803 324.086, 1123.687 333.907, 1125.572 343.728, 1127.457 353.549, 1129.342 363.370, 1131.226 373.190, 1133.111 383.011, 1134.996 392.832, 1136.880 402.653, 1138.765 412.473, 1140.650 422.294, 1142.535 432.115, 1144.419 441.936, 1146.304 451.757, 1148.189 461.577, 1150.074 471.398, 1151.958 481.219, 1153.843 491.040, 1155.728 500.860, 1157.613 510.681, 1159.497 520.502, 1161.382 530.323, 1163.267 540.144, 1165.152 549.964, 1167.036 559.785, 1168.921 569.606, 1170.806 579.427, 1172.691 589.247, 1174.575 599.068, 1176.460 608.889, 1178.345 618.710, 1180.230 628.531, 1182.114 642.758, 1184.845 652.579, 1186.730 662.400, 1188.614 672.221, 1190.499 682.041, 1192.384 691.862, 1194.268 701.683, 1196.153 711.504, 1198.038 721.325, 1199.923 725.511, 1200.726 735.332, 1202.611 745.153, 1204.496 754.974, 1206.380 764.794, 1208.265 774.615, 1210.150 784.436, 1212.035 794.257, 1213.919 804.078, 1215.804 813.898, 1217.689 823.719, 1219.574 833.540, 1221.458 843.361, 1223.343 853.181, 1225.228 863.002, 1227.113 872.823, 1228.997 882.644, 1230.882 892.465, 1232.767 902.285, 1234.652 912.106, 1236.536 921.927, 1238.421 931.748, 1240.306 941.568, 1242.191 951.389, 1244.075 961.210, 1245.960 971.031, 1247.845 980.852, 1249.730 990.672, 1251.614 1000.493, 1253.499 1010.827, 1255.482 1020.647, 1257.367 1030.468, 1259.252 1040.289, 1261.136 1050.110, 1263.021 1059.931, 1264.906 1069.751, 1266.791 1079.572, 1268.675 1089.393, 1270.560 1099.214, 1272.445 1109.034, 1274.330 1118.855, 1276.214 1128.676, 1278.099 1138.497, 1279.984 1148.318, 1281.869 1158.138, 1283.753 1167.959, 1285.638 1177.780, 1287.523 1187.601, 1289.408 1197.422, 1291.292 1207.242, 1293.177 1217.063, 1295.062 1226.884, 1296.946 1236.705, 1298.831 1246.525, 1300.716 1256.346, 1302.601 1266.167, 1304.485 1275.988, 1306.370 1285.809, 1308.255 1295.629, 1310.140 1305.450, 1312.024 1315.271, 1313.909 1325.092, 1315.794 1334.912, 1317.679 1344.733, 1319.563 1354.554, 1321.448 1364.375, 1323.333 1374.196, 1325.218 1384.016, 1327.102 1393.837, 1328.987 1403.658, 1330.872 1413.479, 1332.757 1423.299, 1334.641 1433.120, 1336.526 1442.941, 1338.411 1452.762, 1340.296 1462.583, 1342.180 1472.403, 1344.065 1482.224, 1345.950 1492.045, 1347.835 1501.866, 1349.719 1511.687, 1351.604 1521.507, 1353.489 1531.328, 1355.374 1541.149, 1357.258 1550.970, 1359.143 1560.790, 1361.028 1570.611, 1362.912 1580.432, 1364.797 1590.253, 1366.682 1600.073, 1368.567 1609.894, 1370.451 1619.715, 1372.336 1629.536, 1374.221 1639.357, 1376.106 1649.177, 1377.990 1658.998, 1379.875 1668.819, 1381.760 1678.640, 1383.645 1688.461, 1385.529 1698.281, 1387.414 1708.102, 1389.299 1717.923, 1391.184 1727.744, 1393.068 1737.564, 1394.953 1747.385, 1396.838 1757.206, 1398.723 1767.027, 1400.607 1776.848, 1402.492 1786.668, 1404.377 1796.489, 1406.262 1806.310, 1408.146 1819.329, 1410.645 1822.495, 1401.159 1825.660, 1391.673 1828.826, 1382.188 1831.992, 1372.702 1835.158, 1363.216 1838.323, 1353.731 1841.489, 1344.245 1844.655, 1334.760 1847.821, 1325.274 1850.987, 1315.788 1854.153, 1306.303 1857.318, 1296.817 1860.484, 1287.331 1863.650, 1277.846 1866.816, 1268.360 1869.982, 1258.874 1873.147, 1249.389 1876.313, 1239.903 1879.479, 1230.417 1882.645, 1220.932 1885.811, 1211.446 1888.976, 1201.960 1892.142, 1192.475 1895.308, 1182.989 1898.474, 1173.503 1901.640, 1164.018 1904.805, 1154.532 1907.971, 1145.046 1911.137, 1135.561 1914.303, 1126.075 1917.469, 1116.589 1920.634, 1107.104 1923.800, 1097.618 1926.966, 1088.132 1930.132, 1078.647 1933.297, 1069.161 1936.463, 1059.675 1939.629, 1050.190 1942.795, 1040.704 1945.961, 1031.218 1949.126, 1021.733 1952.292, 1012.247 1955.458, 1002.761 1958.624, 993.276 1961.790, 983.790 1964.956, 974.305 1968.121, 964.819 1971.287, 955.333 1974.453, 945.848 1977.619, 936.362 1980.785, 926.876 1983.950, 917.391 1987.116, 907.905 1990.282, 898.419 1993.448, 888.934 1996.614, 879.448 1999.779, 869.962 2002.945, 860.477 2006.111, 850.991 2009.277, 841.505 2012.443, 832.020 2015.608, 822.534 2018.774, 813.048 2021.940, 803.563 2025.106, 794.077 2028.271, 784.591 2031.437, 775.106 2034.603, 765.620 2037.769, 756.134 2040.935, 746.649 2044.100, 737.163 2047.266, 727.677 2050.432, 718.192 2053.598, 708.706 2056.764, 699.220 2059.929, 689.735 2063.095, 680.249 2066.261, 670.763 2069.427, 661.278 2072.593, 651.792 2075.759, 642.306 2078.924, 632.821 2082.090, 623.335 2085.256, 613.849 2088.422, 604.364 2091.587, 594.878 2094.753, 585.393 2100.000, 569.671 2090.462, 566.668 2080.923, 563.665 2071.385, 560.662 2061.846, 557.659 2052.308, 554.656 2042.770, 551.653 2033.231, 548.650 2023.693, 545.647 2014.154, 542.644 2004.616, 539.641 1995.078, 536.637 1993.578, 536.165 " fill="none" stroke="rgb(157, 20, 170)" stroke-linecap="butt" stroke-linejoin="round" stroke-opacity="1.0" stroke-width="3.0" />
            <path d=" M 819.950, 911.195 829.948, 911.017 839.947, 910.839 849.945, 910.661 859.944, 910.483 869.942, 910.305 879.940, 910.127 889.939, 909.949 899.937, 909.771 909.936, 909.593 919.934, 909.415 929.932, 909.237 939.931, 909.059 949.929, 908.881 959.928, 908.703 969.926, 908.525 979.925, 908.346 985.291, 908.251 " fill="none" stroke="rgb(157, 20, 170)" stroke-linecap="butt" stroke-linejoin="round" stroke-opacity="1.0" stroke-width="3.0" />
            <path d=" M 951.563, 939.800 958.866, 932.969 966.169, 926.137 973.472, 919.306 980.775, 912.475 985.291, 908.251 984.530, 918.222 983.769, 928.193 983.008, 938.164 982.246, 948.135 981.485, 958.106 980.724, 968.077 979.963, 978.048 979.202, 988.019 978.441, 997.990 977.680, 1007.961 976.919, 1017.932 976.632, 1021.691 976.422, 1024.440 969.441, 1031.600 962.459, 1038.759 955.478, 1045.919 952.987, 1048.473 943.257, 1046.164 933.527, 1043.855 923.797, 1041.546 914.068, 1039.236 910.913, 1038.488 903.318, 1036.685 893.588, 1034.376 883.858, 1032.067 874.128, 1029.758 864.399, 1027.448 861.499, 1026.760 " fill="none" stroke="rgb(157, 20, 170)" stroke-linecap="butt" stroke-linejoin="round" stroke-opacity="1.0" stroke-width="3.0" />
            <path d=" M 861.499, 1026.760 858.116, 1017.350 854.733, 1007.940 851.349, 998.529 847.966, 989.119 844.583, 979.709 841.199, 970.299 837.816, 960.888 834.433, 951.478 831.050, 942.068 827.666, 932.657 824.283, 923.247 820.900, 913.837 819.950, 911.195 829.722, 913.319 839.494, 915.443 849.266, 917.567 859.037, 919.691 868.809, 921.814 878.581, 923.938 888.353, 926.062 898.125, 928.186 907.897, 930.310 917.669, 932.433 927.440, 934.557 937.212, 936.681 946.984, 938.805 951.563, 939.800 951.694, 949.799 951.825, 959.798 951.956, 969.797 952.087, 979.796 952.218, 989.796 952.349, 999.795 952.480, 1009.794 952.611, 1019.793 952.672, 1024.443 952.678, 1024.920 952.809, 1034.919 952.940, 1044.918 952.987, 1048.473 " fill="none" stroke="rgb(157, 20, 170)" stroke-linecap="butt" stroke-linejoin="round" stroke-opacity="1.0" stroke-width="3.0" />
            <path d=" M 2100.000, 569.671 2090.261, 567.400 2080.523, 565.129 2070.784, 562.858 2061.045, 560.587 2051.307, 558.316 2041.568, 556.045 2031.829, 553.774 2022.090, 551.503 2012.352, 549.232 2002.613, 546.961 1996.672, 545.576 " fill="none" stroke="rgb(157, 20, 170)" stroke-linecap="butt" stroke-linejoin="round" stroke-opacity="1.0" stroke-width="3.0" />
            <path d=" M 1369.684, 230.253 1372.423, 220.744 1372.925, 219.001 1362.991, 220.142 1353.056, 221.283 1343.121, 222.424 1333.187, 223.566 1323.252, 224.707 1319.471, 225.141 1319.222, 225.170 1317.923, 215.255 1317.547, 212.380 1316.249, 202.465 1314.950, 192.550 1314.005, 185.333 1304.850, 189.356 1295.695, 193.378 1286.539, 197.401 1277.384, 201.423 1268.229, 205.445 1260.829, 208.697 1251.673, 212.719 1242.518, 216.742 1233.363, 220.764 1224.207, 224.786 1215.052, 228.809 1205.897, 232.831 1196.741, 236.854 1189.387, 240.085 1179.453, 241.226 1169.518, 242.367 1159.583, 243.509 1149.649, 244.650 1139.714, 245.791 1129.780, 246.932 1119.845, 248.074 1109.910, 249.215 1099.975, 250.356 1090.041, 251.497 1080.106, 252.639 1070.172, 253.780 1060.237, 254.921 1050.302, 256.062 1040.368, 257.204 1030.433, 258.345 1020.498, 259.486 1010.564, 260.627 1000.629, 261.769 990.694, 262.910 980.760, 264.051 970.825, 265.192 960.890, 266.334 950.956, 267.475 943.090, 268.378 933.361, 266.069 923.631, 263.759 919.341, 262.741 909.611, 260.432 905.691, 259.501 895.961, 257.192 886.232, 254.882 876.502, 252.573 866.772, 250.263 857.043, 247.954 847.313, 245.644 837.583, 243.335 827.854, 241.025 818.124, 238.716 808.394, 236.406 798.665, 234.097 788.935, 231.787 779.205, 229.478 769.476, 227.168 759.746, 224.859 750.016, 222.549 740.287, 220.240 730.557, 217.931 720.827, 215.621 711.098, 213.312 701.368, 211.002 691.638, 208.693 685.206, 207.166 675.476, 204.856 665.747, 202.547 656.017, 200.237 646.287, 197.928 636.558, 195.618 626.828, 193.309 617.098, 191.000 607.369, 188.690 597.639, 186.380 587.909, 184.071 578.180, 181.762 568.450, 179.452 558.720, 177.143 548.991, 174.833 539.261, 172.524 529.531, 170.214 519.802, 167.905 510.072, 165.595 500.342, 163.286 490.613, 160.976 480.883, 158.667 471.153, 156.357 461.424, 154.048 451.694, 151.738 441.964, 149.429 432.235, 147.120 422.505, 144.810 416.355, 143.350 " fill="none" stroke="rgb(157, 20, 170)" stroke-linecap="butt" stroke-linejoin="round" stroke-opacity="1.0" stroke-width="3.0" />
            <path d=" M 1314.005, 185.333 1311.381, 194.983 1308.757, 204.633 1306.134, 214.282 1303.510, 223.932 1300.886, 233.581 1298.262, 243.231 1295.511, 253.348 " fill="none" stroke="rgb(157, 20, 170)" stroke-linecap="butt" stroke-linejoin="round" stroke-opacity="1.0" stroke-width="3.0" />
            <path d=" M 1189.387, 240.085 1181.283, 245.943 1173.179, 251.802 1165.075, 257.660 1156.970, 263.519 1148.866, 269.377 1140.762, 275.235 1132.658, 281.094 1124.553, 286.952 1116.449, 292.811 1108.345, 298.669 1100.241, 304.528 1097.718, 306.352 " fill="none" stroke="rgb(157, 20, 170)" stroke-linecap="butt" stroke-linejoin="round" stroke-opacity="1.0" stroke-width="3.0" />
            <path d=" M 943.090, 268.378 952.802, 270.763 962.513, 273.148 972.225, 275.533 981.936, 277.918 991.647, 280.303 1001.359, 282.688 1011.070, 285.073 1020.782, 287.458 1030.493, 289.843 1040.205, 292.228 1049.916, 294.613 1059.628, 296.997 1069.339, 299.382 1079.050, 301.767 1088.762, 304.152 1097.718, 306.352 1107.367, 308.977 1112.428, 310.355 " fill="none" stroke="rgb(157, 20, 170)" stroke-linecap="butt" stroke-linejoin="round" stroke-opacity="1.0" stroke-width="3.0" />
            <path d=" M 1317.506, 246.500 1318.308, 236.532 1319.110, 226.564 1319.222, 225.170 " fill="none" stroke="rgb(157, 20, 170)" stroke-linecap="butt" stroke-linejoin="round" stroke-opacity="1.0" stroke-width="3.0" />
            <path d=" M 1367.570, 230.911 1371.671, 221.791 1372.925, 219.001 " fill="none" stroke="rgb(157, 20, 170)" stroke-linecap="butt" stroke-linejoin="round" stroke-opacity="1.0" stroke-width="3.0" />
        </g>
    </g>
    <g id="fressstylelayer_hidden lines" inkscape:groupmode="lineset" inkscape:label="fressstylelayer_hidden lines" xmlns:inkscape="http://www.inkscape.org/namespaces/inkscape">
        <g id="strokes" inkscape:groupmode="layer" inkscape:label="strokes" xmlns:inkscape="http://www.inkscape.org/namespaces/inkscape">
            <path d=" M 694.213, 969.165 684.398, 971.076 674.582, 972.987 664.766, 974.897 654.950, 976.808 649.395, 977.889 639.580, 979.799 629.764, 981.710 628.010, 982.051 630.422, 987.492 634.474, 996.634 638.526, 1005.776 642.578, 1014.918 646.631, 1024.060 650.683, 1033.202 654.735, 1042.344 655.527, 1044.130 659.579, 1053.272 663.631, 1062.414 664.712, 1064.853 674.169, 1068.106 683.625, 1071.358 693.081, 1074.610 702.538, 1077.863 711.994, 1081.115 721.450, 1084.367 730.907, 1087.620 740.363, 1090.872 750.003, 1094.187 743.460, 1086.625 736.918, 1079.062 730.376, 1071.499 723.833, 1063.936 721.840, 1061.632 715.298, 1054.069 713.442, 1051.925 706.900, 1044.362 700.358, 1036.799 693.815, 1029.236 687.273, 1021.674 681.133, 1014.576 674.590, 1007.013 668.048, 999.450 661.505, 991.887 654.963, 984.325 652.272, 981.214 649.395, 977.889 647.019, 975.142 637.237, 977.218 627.455, 979.295 617.673, 981.371 607.891, 983.448 598.109, 985.525 588.327, 987.601 578.545, 989.678 570.996, 991.281 561.252, 993.530 551.508, 995.780 541.765, 998.029 532.021, 1000.279 522.277, 1002.528 512.534, 1004.778 502.790, 1007.027 493.046, 1009.277 483.303, 1011.526 478.803, 1012.565 469.060, 1014.815 459.316, 1017.064 449.572, 1019.314 439.829, 1021.563 430.085, 1023.813 420.341, 1026.062 410.598, 1028.312 400.854, 1030.562 391.110, 1032.811 381.367, 1035.061 371.623, 1037.310 361.879, 1039.560 352.135, 1041.809 342.392, 1044.059 332.648, 1046.308 322.904, 1048.558 313.161, 1050.807 303.417, 1053.057 293.673, 1055.307 283.930, 1057.556 274.186, 1059.806 264.442, 1062.055 254.699, 1064.305 244.955, 1066.554 235.211, 1068.804 225.467, 1071.053 215.724, 1073.303 205.980, 1075.552 196.236, 1077.802 190.578, 1079.108 180.991, 1076.263 176.470, 1074.922 178.392, 1082.670 188.244, 1080.959 198.097, 1079.247 207.949, 1077.535 217.801, 1075.823 227.654, 1074.112 237.506, 1072.400 247.359, 1070.688 257.211, 1068.976 267.063, 1067.264 276.916, 1065.553 286.768, 1063.841 296.621, 1062.129 306.473, 1060.417 316.325, 1058.706 326.178, 1056.994 336.030, 1055.282 345.883, 1053.570 355.735, 1051.859 365.587, 1050.147 375.440, 1048.435 385.292, 1046.723 395.145, 1045.012 404.997, 1043.300 414.849, 1041.588 424.702, 1039.876 434.554, 1038.165 444.407, 1036.453 454.259, 1034.741 464.111, 1033.029 473.964, 1031.317 483.839, 1029.602 " fill="none" stroke="rgb(0, 119, 0)" stroke-linecap="butt" stroke-linejoin="round" stroke-opacity="1.0" stroke-width="3.0" />
            <path d=" M 647.019, 975.142 637.620, 978.558 628.222, 981.974 628.010, 982.051 " fill="none" stroke="rgb(0, 119, 0)" stroke-linecap="butt" stroke-linejoin="round" stroke-opacity="1.0" stroke-width="3.0" />
            <path d=" M 416.355, 143.350 414.255, 153.127 412.154, 162.904 410.054, 172.681 409.461, 175.444 407.360, 185.221 405.260, 194.998 403.160, 204.775 401.060, 214.552 398.959, 224.328 396.859, 234.105 394.759, 243.882 392.659, 253.659 390.558, 263.436 388.458, 273.213 386.358, 282.990 384.258, 292.767 382.157, 302.544 380.057, 312.321 377.957, 322.098 375.856, 331.875 373.756, 341.652 371.656, 351.429 369.556, 361.206 367.455, 370.983 365.355, 380.760 363.255, 390.537 361.155, 400.314 359.054, 410.091 356.954, 419.868 354.854, 429.645 352.754, 439.422 350.653, 449.198 348.553, 458.975 346.453, 468.752 344.353, 478.529 342.252, 488.306 340.152, 498.083 338.052, 507.860 337.187, 511.886 335.087, 521.663 332.987, 531.440 330.886, 541.217 328.786, 550.994 326.686, 560.771 324.586, 570.548 322.485, 580.325 320.385, 590.102 318.285, 599.878 316.184, 609.655 314.084, 619.432 311.984, 629.209 309.884, 638.986 307.783, 648.763 305.683, 658.540 303.678, 667.874 301.578, 677.651 299.478, 687.428 297.377, 697.205 295.917, 704.001 293.817, 713.778 291.717, 723.555 289.617, 733.331 287.516, 743.108 285.416, 752.885 283.316, 762.662 281.216, 772.439 279.115, 782.216 277.015, 791.993 274.915, 801.770 273.081, 810.309 282.810, 812.618 292.540, 814.928 302.270, 817.237 311.999, 819.547 321.729, 821.856 329.582, 823.720 339.312, 826.030 349.041, 828.339 358.771, 830.649 368.501, 832.958 378.230, 835.268 387.960, 837.577 397.690, 839.887 407.419, 842.196 417.149, 844.506 426.879, 846.815 430.034, 847.564 430.762, 850.026 433.596, 859.616 436.431, 869.206 438.744, 877.032 441.579, 886.622 444.413, 896.212 447.247, 905.802 450.082, 915.392 452.916, 924.982 455.751, 934.572 458.585, 944.161 461.420, 953.751 464.254, 963.341 467.089, 972.931 469.923, 982.521 472.758, 992.111 475.592, 1001.701 478.803, 1012.565 481.638, 1022.155 483.839, 1029.602 488.679, 1028.211 498.290, 1025.450 507.902, 1022.689 517.513, 1019.928 527.124, 1017.167 529.562, 1016.466 539.174, 1013.705 539.691, 1013.557 549.302, 1010.795 558.914, 1008.034 568.525, 1005.273 578.136, 1002.512 587.747, 999.751 597.359, 996.990 606.970, 994.229 616.581, 991.468 626.192, 988.707 630.422, 987.492 640.033, 984.730 649.644, 981.969 652.272, 981.214 661.883, 978.453 671.495, 975.692 681.106, 972.931 686.375, 971.417 694.213, 969.165 691.445, 978.775 688.677, 988.384 685.909, 997.993 683.141, 1007.603 681.133, 1014.576 678.365, 1024.185 675.597, 1033.794 672.829, 1043.404 671.412, 1048.322 668.900, 1057.042 678.835, 1055.900 688.770, 1054.759 693.668, 1054.196 703.603, 1053.055 713.442, 1051.925 723.377, 1050.784 733.312, 1049.642 739.046, 1048.984 748.981, 1047.842 758.915, 1046.701 760.284, 1046.544 761.583, 1056.459 762.881, 1066.374 763.148, 1068.408 763.707, 1072.682 765.006, 1082.598 766.304, 1092.513 766.845, 1096.645 776.000, 1092.623 785.156, 1088.600 794.311, 1084.578 799.740, 1082.193 808.895, 1078.170 810.811, 1077.328 819.966, 1073.306 829.121, 1069.284 838.277, 1065.261 840.943, 1064.089 850.099, 1060.067 859.254, 1056.045 868.409, 1052.022 877.565, 1048.000 886.720, 1043.977 895.875, 1039.955 903.318, 1036.685 912.473, 1032.663 921.628, 1028.640 923.571, 1027.786 933.506, 1026.645 943.441, 1025.504 947.640, 1025.021 952.672, 1024.443 962.607, 1023.302 972.541, 1022.161 976.632, 1021.691 986.567, 1020.550 996.502, 1019.408 1006.436, 1018.267 1016.371, 1017.126 1026.306, 1015.985 1036.240, 1014.843 1046.175, 1013.702 1056.110, 1012.561 1066.044, 1011.420 1075.979, 1010.278 1085.914, 1009.137 1095.848, 1007.996 1102.637, 1007.216 1112.366, 1009.525 1122.096, 1011.835 1123.388, 1012.142 1133.118, 1014.451 1142.848, 1016.761 1145.421, 1017.371 1155.151, 1019.681 1164.881, 1021.990 1174.610, 1024.300 1184.340, 1026.609 1194.070, 1028.919 1203.799, 1031.228 1213.529, 1033.538 1223.259, 1035.847 1232.988, 1038.157 1242.718, 1040.466 1252.448, 1042.776 1262.177, 1045.085 1271.907, 1047.395 1281.636, 1049.704 1291.366, 1052.014 1301.096, 1054.323 1310.825, 1056.633 1320.555, 1058.942 1330.285, 1061.252 1340.015, 1063.561 1349.744, 1065.870 1359.474, 1068.180 1369.203, 1070.489 1378.933, 1072.799 1388.663, 1075.108 1398.392, 1077.418 1408.122, 1079.727 1417.852, 1082.037 1427.581, 1084.346 1437.311, 1086.656 1447.041, 1088.965 1456.770, 1091.275 1466.500, 1093.584 1476.230, 1095.894 1485.959, 1098.203 1495.689, 1100.513 1505.419, 1102.822 1515.148, 1105.132 1524.878, 1107.441 1534.608, 1109.751 1544.337, 1112.060 1554.067, 1114.370 1563.797, 1116.679 1573.526, 1118.988 1583.256, 1121.298 1592.986, 1123.607 1602.715, 1125.917 1612.311, 1128.195 1614.412, 1118.418 1616.512, 1108.641 1618.612, 1098.864 1620.712, 1089.087 1622.813, 1079.310 1624.913, 1069.533 1627.013, 1059.756 1629.113, 1049.979 1631.214, 1040.202 1633.314, 1030.425 1635.414, 1020.648 1637.515, 1010.871 1639.615, 1001.094 1641.715, 991.317 1643.815, 981.540 1645.916, 971.763 1648.016, 961.986 1650.116, 952.209 1652.216, 942.432 1654.317, 932.656 1656.417, 922.879 1658.517, 913.102 1660.617, 903.325 1662.718, 893.548 1664.818, 883.771 1666.918, 873.994 1669.018, 864.217 1671.119, 854.440 1673.219, 844.663 1675.319, 834.886 1677.419, 825.109 1679.520, 815.332 1681.620, 805.555 1683.720, 795.778 1685.820, 786.001 1687.921, 776.224 1689.531, 768.730 1691.631, 758.953 1693.731, 749.176 1695.831, 739.399 1697.932, 729.622 1700.032, 719.845 1700.499, 717.671 1702.599, 707.894 1704.699, 698.117 1706.800, 688.340 1708.900, 678.563 1709.105, 677.607 1718.717, 674.846 1728.328, 672.085 1737.939, 669.324 1747.550, 666.563 1757.162, 663.801 1766.773, 661.040 1771.672, 659.633 1770.072, 654.219 1767.238, 644.629 1764.403, 635.039 1761.569, 625.449 1761.085, 623.813 1760.061, 620.346 1757.226, 610.757 1754.392, 601.167 1751.557, 591.577 1748.723, 581.987 1745.888, 572.397 1743.054, 562.807 1742.316, 560.313 1739.482, 550.723 1737.675, 544.611 1739.776, 534.834 1741.876, 525.057 1743.976, 515.280 1746.076, 505.503 1748.177, 495.726 1750.277, 485.949 1752.377, 476.172 1753.469, 471.088 1754.623, 465.718 1755.586, 461.236 1746.720, 459.131 1736.990, 456.822 1727.260, 454.513 1717.531, 452.203 1709.821, 450.373 1706.987, 440.783 1704.152, 431.193 1701.318, 421.604 1698.484, 412.014 1695.649, 402.424 1692.815, 392.834 1689.980, 383.244 1687.146, 373.654 1684.311, 364.064 1681.477, 354.474 1678.642, 344.885 1675.808, 335.295 1674.695, 331.531 1665.084, 334.292 1655.473, 337.053 1645.862, 339.815 1636.250, 342.576 1626.639, 345.337 1617.028, 348.098 1607.417, 350.859 1597.805, 353.620 1588.194, 356.381 1578.583, 359.142 1568.972, 361.904 1559.360, 364.665 1549.749, 367.426 1540.138, 370.187 1530.526, 372.948 1520.915, 375.709 1511.304, 378.470 1501.693, 381.231 1492.081, 383.993 1482.470, 386.754 1472.859, 389.515 1464.068, 392.040 1464.068, 392.040 1454.339, 389.731 1444.609, 387.421 1434.880, 385.112 1425.150, 382.802 1415.420, 380.493 1414.780, 380.341 1405.050, 378.031 1395.321, 375.722 1385.591, 373.412 1381.538, 372.450 1371.808, 370.141 1362.079, 367.831 1356.746, 366.566 1356.076, 366.407 1346.346, 364.097 1337.809, 362.071 1337.128, 361.909 1335.830, 351.994 1335.450, 349.097 1335.524, 348.842 1338.292, 339.233 1341.060, 329.623 1343.828, 320.014 1346.596, 310.405 1349.364, 300.795 1352.132, 291.186 1354.900, 281.577 1357.668, 271.968 1360.436, 262.358 1363.204, 252.749 1365.972, 243.140 1368.740, 233.530 1369.684, 230.253 " fill="none" stroke="rgb(0, 119, 0)" stroke-linecap="butt" stroke-linejoin="round" stroke-opacity="1.0" stroke-width="3.0" />
            <path d=" M 668.900, 1057.042 664.712, 1064.853 " fill="none" stroke="rgb(0, 119, 0)" stroke-linecap="butt" stroke-linejoin="round" stroke-opacity="1.0" stroke-width="3.0" />
            <path d=" M 1737.675, 544.611 1745.162, 551.240 1752.650, 557.868 1760.137, 564.497 1767.624, 571.126 1775.111, 577.755 1782.598, 584.384 1790.085, 591.013 1797.572, 597.642 1805.060, 604.271 1812.547, 610.900 1820.034, 617.529 1827.521, 624.158 1833.843, 629.755 " fill="none" stroke="rgb(0, 119, 0)" stroke-linecap="butt" stroke-linejoin="round" stroke-opacity="1.0" stroke-width="3.0" />
            <path d=" M 1771.672, 659.633 1780.686, 655.301 1789.699, 650.970 1798.712, 646.638 1807.725, 642.306 1816.738, 637.975 1825.751, 633.643 1833.843, 629.755 1824.506, 633.336 1815.170, 636.918 1805.833, 640.500 1796.496, 644.082 1787.160, 647.663 1777.823, 651.245 1770.072, 654.219 1760.736, 657.800 1751.399, 661.382 1742.062, 664.964 1732.726, 668.546 1723.389, 672.127 1714.053, 675.709 1709.105, 677.607 " fill="none" stroke="rgb(0, 119, 0)" stroke-linecap="butt" stroke-linejoin="round" stroke-opacity="1.0" stroke-width="3.0" />
            <path d=" M 176.470, 1074.922 183.915, 1068.246 191.360, 1061.570 198.806, 1054.894 206.251, 1048.218 213.696, 1041.543 221.142, 1034.867 228.587, 1028.191 236.032, 1021.515 243.478, 1014.839 250.923, 1008.163 258.368, 1001.488 265.814, 994.812 273.259, 988.136 280.704, 981.460 288.150, 974.784 295.595, 968.108 303.040, 961.432 310.486, 954.757 317.931, 948.081 325.376, 941.405 332.822, 934.729 340.267, 928.053 347.712, 921.377 355.158, 914.702 362.603, 908.026 370.049, 901.350 377.494, 894.674 384.939, 887.998 392.385, 881.322 399.830, 874.646 407.275, 867.971 414.721, 861.295 422.166, 854.619 430.034, 847.564 " fill="none" stroke="rgb(0, 119, 0)" stroke-linecap="butt" stroke-linejoin="round" stroke-opacity="1.0" stroke-width="3.0" />
            <path d=" M 698.745, 1268.125 702.436, 1258.831 706.127, 1249.537 709.818, 1240.243 713.509, 1230.949 717.200, 1221.655 720.891, 1212.361 724.581, 1203.067 725.511, 1200.726 729.202, 1191.432 732.893, 1182.138 736.584, 1172.844 740.275, 1163.550 743.966, 1154.257 747.657, 1144.963 751.348, 1135.669 755.039, 1126.375 758.729, 1117.081 762.420, 1107.787 766.111, 1098.493 766.845, 1096.645 " fill="none" stroke="rgb(0, 119, 0)" stroke-linecap="butt" stroke-linejoin="round" stroke-opacity="1.0" stroke-width="3.0" />
            <path d=" M 923.571, 1027.786 915.935, 1034.242 910.913, 1038.488 903.277, 1044.944 895.640, 1051.400 888.003, 1057.856 880.367, 1064.312 872.730, 1070.768 865.093, 1077.225 857.457, 1083.681 849.820, 1090.137 845.066, 1094.156 837.430, 1100.612 829.793, 1107.068 822.156, 1113.524 817.550, 1117.419 " fill="none" stroke="rgb(0, 119, 0)" stroke-linecap="butt" stroke-linejoin="round" stroke-opacity="1.0" stroke-width="3.0" />
            <path d=" M 1109.344, 1048.427 1105.028, 1057.447 1100.712, 1066.467 1096.395, 1075.488 1092.079, 1084.508 1087.763, 1093.529 1083.446, 1102.549 1079.130, 1111.570 1074.813, 1120.590 1070.497, 1129.611 1066.181, 1138.631 1061.864, 1147.652 1060.282, 1150.959 1057.424, 1156.931 1047.557, 1155.306 1037.690, 1153.681 1027.823, 1152.055 1017.956, 1150.430 1008.089, 1148.805 998.222, 1147.179 988.355, 1145.554 978.488, 1143.929 968.620, 1142.303 958.753, 1140.678 948.886, 1139.053 939.019, 1137.427 929.152, 1135.802 919.285, 1134.177 909.418, 1132.552 899.551, 1130.926 889.684, 1129.301 879.817, 1127.676 869.950, 1126.050 860.083, 1124.425 850.216, 1122.800 840.349, 1121.174 830.482, 1119.549 820.615, 1117.924 817.550, 1117.419 827.006, 1120.671 836.462, 1123.924 845.919, 1127.176 855.375, 1130.428 864.831, 1133.681 874.288, 1136.933 883.744, 1140.185 893.200, 1143.438 902.657, 1146.690 912.113, 1149.942 921.569, 1153.195 931.026, 1156.447 940.482, 1159.699 949.938, 1162.952 959.395, 1166.204 968.851, 1169.456 978.307, 1172.709 987.764, 1175.961 997.220, 1179.213 1006.676, 1182.466 1016.133, 1185.718 1025.589, 1188.970 1035.045, 1192.223 1044.502, 1195.475 1053.958, 1198.727 1064.153, 1202.233 1067.991, 1193.000 1071.830, 1183.766 1075.668, 1174.532 1079.507, 1165.298 1082.977, 1156.949 1086.816, 1147.715 1090.654, 1138.481 1094.493, 1129.247 1098.331, 1120.013 1102.170, 1110.779 1106.008, 1101.545 1109.847, 1092.311 1113.686, 1083.077 1117.524, 1073.843 1121.363, 1064.609 1124.028, 1058.197 1127.867, 1048.963 1131.705, 1039.729 1135.544, 1030.495 1139.382, 1021.261 1140.029, 1019.706 1132.728, 1026.540 1125.427, 1033.373 1118.126, 1040.207 1110.825, 1047.040 1109.344, 1048.427 " fill="none" stroke="rgb(0, 119, 0)" stroke-linecap="butt" stroke-linejoin="round" stroke-opacity="1.0" stroke-width="3.0" />
            <path d=" M 1109.344, 1048.427 1117.670, 1053.966 1124.028, 1058.197 1132.354, 1063.736 1140.679, 1069.275 1149.005, 1074.815 1157.330, 1080.354 1165.656, 1085.894 1173.981, 1091.433 1182.307, 1096.973 1190.633, 1102.512 1198.958, 1108.052 1207.284, 1113.591 1215.609, 1119.131 1223.935, 1124.670 1232.260, 1130.210 1240.586, 1135.749 1248.911, 1141.288 1257.237, 1146.828 1265.562, 1152.367 1273.888, 1157.907 1282.213, 1163.446 1290.539, 1168.986 1298.864, 1174.525 1307.190, 1180.065 1315.515, 1185.604 1323.841, 1191.144 1332.167, 1196.683 1339.432, 1201.517 " fill="none" stroke="rgb(0, 119, 0)" stroke-linecap="butt" stroke-linejoin="round" stroke-opacity="1.0" stroke-width="3.0" />
            <path d=" M 1010.827, 1255.482 1020.818, 1255.077 1030.810, 1254.673 1040.802, 1254.268 1050.794, 1253.863 1060.786, 1253.458 1070.777, 1253.053 1080.769, 1252.649 1090.761, 1252.244 1100.753, 1251.839 1110.745, 1251.434 1120.736, 1251.030 1130.728, 1250.625 1140.720, 1250.220 1150.712, 1249.815 1160.704, 1249.410 1170.696, 1249.006 1180.687, 1248.601 1190.679, 1248.196 1200.671, 1247.791 1210.663, 1247.387 1220.655, 1246.982 1230.646, 1246.577 1240.638, 1246.172 1250.630, 1245.767 1260.622, 1245.363 1270.614, 1244.958 1280.605, 1244.553 1290.597, 1244.148 1300.589, 1243.743 1310.581, 1243.339 1320.573, 1242.934 1333.255, 1242.420 1334.748, 1232.532 1336.241, 1222.644 1337.734, 1212.756 1339.228, 1202.869 1339.432, 1201.517 1333.205, 1209.342 1326.978, 1217.167 1324.227, 1220.623 1314.558, 1218.071 1304.890, 1215.519 1295.221, 1212.967 1285.552, 1210.415 1275.883, 1207.863 1266.214, 1205.311 1256.545, 1202.759 1246.876, 1200.207 1237.207, 1197.655 1227.538, 1195.104 1217.870, 1192.552 1208.201, 1190.000 1198.532, 1187.448 1188.863, 1184.896 1179.194, 1182.344 1169.525, 1179.792 1159.856, 1177.240 1150.187, 1174.688 1140.518, 1172.136 1130.849, 1169.584 1121.181, 1167.032 1111.512, 1164.480 1101.843, 1161.928 1092.174, 1159.376 1082.977, 1156.949 1073.308, 1154.397 1063.640, 1151.845 1060.282, 1150.959 1050.613, 1148.407 1040.944, 1145.855 1031.275, 1143.303 1021.606, 1140.751 1011.937, 1138.199 1002.268, 1135.647 992.599, 1133.095 982.931, 1130.543 973.262, 1127.991 963.593, 1125.439 953.924, 1122.887 944.255, 1120.335 934.586, 1117.783 924.917, 1115.231 915.248, 1112.679 905.579, 1110.127 895.911, 1107.575 886.242, 1105.023 876.573, 1102.471 866.904, 1099.919 857.235, 1097.368 847.566, 1094.816 845.066, 1094.156 835.397, 1091.604 825.729, 1089.052 816.060, 1086.500 806.391, 1083.948 799.740, 1082.193 790.071, 1079.641 780.402, 1077.089 770.733, 1074.537 763.707, 1072.682 755.132, 1070.419 745.463, 1067.867 735.794, 1065.315 726.125, 1062.763 721.840, 1061.632 712.171, 1059.080 702.502, 1056.528 693.668, 1054.196 683.999, 1051.645 674.330, 1049.093 671.412, 1048.322 661.743, 1045.770 655.527, 1044.130 645.858, 1041.578 636.189, 1039.026 626.520, 1036.474 616.851, 1033.922 607.182, 1031.370 597.513, 1028.818 587.844, 1026.266 578.175, 1023.714 568.507, 1021.162 558.838, 1018.610 549.169, 1016.058 539.691, 1013.557 530.022, 1011.005 525.000, 1009.679 529.562, 1016.466 535.142, 1024.765 540.721, 1033.064 546.300, 1041.363 551.879, 1049.662 557.458, 1057.961 563.037, 1066.260 568.617, 1074.559 574.196, 1082.858 579.775, 1091.157 585.354, 1099.456 590.933, 1107.755 596.512, 1116.054 602.091, 1124.353 607.671, 1132.652 613.250, 1140.951 618.829, 1149.250 624.408, 1157.549 629.987, 1165.848 635.566, 1174.147 641.146, 1182.446 642.758, 1184.845 " fill="none" stroke="rgb(0, 119, 0)" stroke-linecap="butt" stroke-linejoin="round" stroke-opacity="1.0" stroke-width="3.0" />
            <path d=" M 1324.227, 1220.623 1328.054, 1229.862 1331.880, 1239.101 1333.255, 1242.420 " fill="none" stroke="rgb(0, 119, 0)" stroke-linecap="butt" stroke-linejoin="round" stroke-opacity="1.0" stroke-width="3.0" />
            <path d=" M 570.996, 991.281 561.711, 994.995 552.426, 998.708 543.141, 1002.422 533.857, 1006.136 525.000, 1009.679 " fill="none" stroke="rgb(0, 119, 0)" stroke-linecap="butt" stroke-linejoin="round" stroke-opacity="1.0" stroke-width="3.0" />
            <path d=" M 0.001, 1061.491 7.361, 1054.721 14.721, 1047.951 22.081, 1041.181 29.441, 1034.412 36.801, 1027.642 44.161, 1020.872 51.521, 1014.102 58.881, 1007.332 66.241, 1000.562 73.601, 993.793 80.961, 987.023 88.321, 980.253 95.681, 973.483 103.041, 966.713 110.401, 959.944 117.761, 953.174 125.121, 946.404 132.481, 939.634 139.841, 932.864 147.201, 926.095 154.561, 919.325 161.921, 912.555 169.281, 905.785 176.641, 899.015 184.001, 892.246 191.361, 885.476 198.721, 878.706 206.081, 871.936 213.441, 865.166 220.801, 858.397 228.161, 851.627 235.521, 844.857 242.881, 838.087 250.241, 831.317 257.601, 824.547 264.961, 817.778 273.081, 810.309 " fill="none" stroke="rgb(0, 119, 0)" stroke-linecap="butt" stroke-linejoin="round" stroke-opacity="1.0" stroke-width="3.0" />
            <path d=" M 1709.821, 450.373 1719.282, 453.613 1728.742, 456.854 1738.203, 460.094 1747.663, 463.334 1754.623, 465.718 1764.083, 468.958 1773.544, 472.198 1783.004, 475.438 1792.465, 478.679 1801.925, 481.919 1811.386, 485.159 1820.846, 488.400 1830.307, 491.640 1839.767, 494.880 1849.228, 498.120 1858.688, 501.361 1868.149, 504.601 1877.609, 507.841 1887.070, 511.081 1896.530, 514.322 1905.990, 517.562 1915.451, 520.802 1924.522, 523.909 1933.982, 527.149 1943.443, 530.389 1952.903, 533.630 1962.364, 536.870 1968.814, 539.079 1970.892, 548.861 1972.865, 558.144 1973.790, 562.498 " fill="none" stroke="rgb(0, 119, 0)" stroke-linecap="butt" stroke-linejoin="round" stroke-opacity="1.0" stroke-width="3.0" />
            <path d=" M 1068.640, 323.989 1078.495, 325.685 1088.351, 327.381 1098.206, 329.077 1108.061, 330.773 1117.916, 332.469 1127.771, 334.165 1137.626, 335.861 1147.481, 337.557 1157.337, 339.253 1167.192, 340.949 1177.047, 342.645 1186.902, 344.341 1196.757, 346.037 1206.612, 347.733 1216.467, 349.429 1226.322, 351.125 1236.177, 352.821 1246.033, 354.517 1255.888, 356.213 1265.743, 357.909 1275.598, 359.605 1285.453, 361.301 1295.308, 362.997 1305.163, 364.693 1315.019, 366.389 1324.874, 368.085 1331.151, 369.166 1341.006, 370.862 1350.861, 372.558 1360.716, 374.254 1370.571, 375.950 1380.426, 377.646 1390.281, 379.342 1400.137, 381.038 1409.992, 382.734 1419.847, 384.430 1429.702, 386.126 1439.557, 387.822 1449.412, 389.518 1459.267, 391.214 1464.068, 392.040 " fill="none" stroke="rgb(0, 119, 0)" stroke-linecap="butt" stroke-linejoin="round" stroke-opacity="1.0" stroke-width="3.0" />
            <path d=" M 1310.189, 358.530 1308.528, 358.122 " fill="none" stroke="rgb(0, 119, 0)" stroke-linecap="butt" stroke-linejoin="round" stroke-opacity="1.0" stroke-width="3.0" />
            <path d=" M 1317.506, 246.500 1316.704, 256.468 1315.903, 266.435 1315.101, 276.403 1314.299, 286.371 1313.498, 296.339 1312.696, 306.307 1311.894, 316.274 1311.092, 326.242 1310.291, 336.210 1309.489, 346.178 1308.687, 356.146 1308.528, 358.122 1298.615, 356.810 1288.701, 355.497 1278.788, 354.185 1268.874, 352.872 1268.463, 352.818 " fill="none" stroke="rgb(0, 119, 0)" stroke-linecap="butt" stroke-linejoin="round" stroke-opacity="1.0" stroke-width="3.0" />
            <path d=" M 1337.128, 361.909 1327.214, 360.596 1317.301, 359.284 1315.947, 359.104 " fill="none" stroke="rgb(0, 119, 0)" stroke-linecap="butt" stroke-linejoin="round" stroke-opacity="1.0" stroke-width="3.0" />
            <path d=" M 1335.450, 349.097 1326.553, 353.662 1317.656, 358.227 1315.947, 359.104 1310.189, 358.530 1314.290, 349.410 1318.390, 340.289 1322.491, 331.169 1326.592, 322.048 1330.693, 312.928 1334.794, 303.807 1338.895, 294.687 1342.995, 285.566 1347.096, 276.446 1351.197, 267.325 1355.298, 258.205 1359.399, 249.084 1363.500, 239.964 1367.570, 230.911 " fill="none" stroke="rgb(0, 119, 0)" stroke-linecap="butt" stroke-linejoin="round" stroke-opacity="1.0" stroke-width="3.0" />
            <path d=" M 190.542, 661.050 182.279, 655.418 174.015, 649.786 165.752, 644.154 157.489, 638.523 149.225, 632.891 140.962, 627.259 132.699, 621.627 126.438, 617.361 " fill="none" stroke="rgb(0, 119, 0)" stroke-linecap="butt" stroke-linejoin="round" stroke-opacity="1.0" stroke-width="3.0" />
            <path d=" M 96.064, 750.751 103.316, 743.866 110.568, 736.980 117.820, 730.095 125.072, 723.210 132.324, 716.324 139.576, 709.439 146.828, 702.554 154.080, 695.668 161.332, 688.783 168.584, 681.898 175.836, 675.012 183.088, 668.127 190.542, 661.050 180.748, 659.032 170.954, 657.014 161.159, 654.996 151.365, 652.978 141.571, 650.960 131.777, 648.942 121.982, 646.924 119.808, 646.476 110.014, 644.458 100.220, 642.440 90.426, 640.422 80.631, 638.404 70.837, 636.385 67.528, 635.704 " fill="none" stroke="rgb(0, 119, 0)" stroke-linecap="butt" stroke-linejoin="round" stroke-opacity="1.0" stroke-width="3.0" />
            <path d=" M 976.422, 1024.440 966.424, 1024.642 956.427, 1024.844 952.678, 1024.920 947.640, 1025.021 937.642, 1025.223 927.644, 1025.425 917.646, 1025.627 907.648, 1025.829 897.650, 1026.031 887.652, 1026.232 877.654, 1026.434 867.656, 1026.636 861.499, 1026.760 " fill="none" stroke="rgb(0, 119, 0)" stroke-linecap="butt" stroke-linejoin="round" stroke-opacity="1.0" stroke-width="3.0" />
            <path d=" M 647.253, 1115.091 642.557, 1106.262 638.194, 1098.056 633.499, 1089.227 628.804, 1080.398 624.108, 1071.569 619.497, 1062.897 622.430, 1072.457 625.363, 1082.018 628.295, 1091.578 631.228, 1101.138 631.914, 1103.374 639.861, 1109.444 647.253, 1115.091 " fill="none" stroke="rgb(0, 119, 0)" stroke-linecap="butt" stroke-linejoin="round" stroke-opacity="1.0" stroke-width="3.0" />
            <path d=" M 1140.029, 1019.706 1130.544, 1016.538 1121.059, 1013.370 1111.574, 1010.201 1102.637, 1007.216 " fill="none" stroke="rgb(0, 119, 0)" stroke-linecap="butt" stroke-linejoin="round" stroke-opacity="1.0" stroke-width="3.0" />
            <path d=" M 1612.311, 1128.195 1618.223, 1136.260 1624.135, 1144.326 1630.046, 1152.391 1635.958, 1160.457 1641.869, 1168.523 1647.781, 1176.588 1653.692, 1184.654 1659.604, 1192.719 1665.515, 1200.785 1671.427, 1208.850 1677.338, 1216.916 1683.250, 1224.982 1689.161, 1233.047 1695.073, 1241.113 1700.984, 1249.178 1706.896, 1257.244 1712.808, 1265.310 1718.719, 1273.375 1724.631, 1281.441 1730.542, 1289.506 1736.454, 1297.572 1742.365, 1305.638 1748.277, 1313.703 1754.188, 1321.769 1760.100, 1329.834 1766.011, 1337.900 1771.923, 1345.965 1777.835, 1354.031 1783.746, 1362.097 1789.658, 1370.162 1795.569, 1378.228 1801.481, 1386.293 1807.392, 1394.359 1813.304, 1402.425 1819.329, 1410.645 " fill="none" stroke="rgb(0, 119, 0)" stroke-linecap="butt" stroke-linejoin="round" stroke-opacity="1.0" stroke-width="3.0" />
            <path d=" M 190.578, 1079.108 180.979, 1081.914 178.392, 1082.670 " fill="none" stroke="rgb(0, 119, 0)" stroke-linecap="butt" stroke-linejoin="round" stroke-opacity="1.0" stroke-width="3.0" />
            <path d=" M 96.064, 750.751 98.284, 741.000 100.504, 731.250 102.724, 721.500 104.945, 711.749 107.165, 701.999 109.385, 692.248 111.606, 682.498 113.826, 672.748 116.046, 662.997 118.267, 653.247 119.808, 646.476 122.029, 636.725 124.249, 626.975 126.438, 617.361 116.890, 620.334 107.342, 623.307 97.795, 626.279 88.247, 629.252 78.699, 632.225 69.151, 635.198 67.528, 635.704 69.935, 645.409 72.343, 655.115 74.750, 664.821 77.157, 674.527 79.565, 684.233 81.972, 693.939 84.380, 703.645 86.787, 713.351 89.194, 723.057 91.602, 732.763 94.009, 742.468 96.064, 750.751 " fill="none" stroke="rgb(0, 119, 0)" stroke-linecap="butt" stroke-linejoin="round" stroke-opacity="1.0" stroke-width="3.0" />
            <path d=" M 1844.394, 82.443 1838.764, 90.708 1833.134, 98.972 1827.503, 107.236 1821.873, 115.501 1816.243, 123.765 1810.612, 132.030 1804.982, 140.294 1799.351, 148.558 1793.721, 156.823 1788.091, 165.087 1782.460, 173.351 1776.830, 181.615 1771.200, 189.880 1765.569, 198.144 1759.939, 206.409 1754.309, 214.673 1748.678, 222.937 1743.048, 231.202 1737.418, 239.466 1731.787, 247.730 1726.157, 255.995 1720.527, 264.259 1714.896, 272.523 1709.266, 280.788 1703.636, 289.052 1698.005, 297.316 1692.375, 305.581 1686.745, 313.845 1681.114, 322.109 1674.695, 331.531 " fill="none" stroke="rgb(0, 119, 0)" stroke-linecap="butt" stroke-linejoin="round" stroke-opacity="1.0" stroke-width="3.0" />
            <path d=" M 619.497, 1062.897 628.893, 1066.320 638.289, 1069.742 647.685, 1073.165 657.081, 1076.588 661.603, 1078.235 " fill="none" stroke="rgb(0, 119, 0)" stroke-linecap="butt" stroke-linejoin="round" stroke-opacity="1.0" stroke-width="3.0" />
            <path d=" M 647.253, 1115.091 650.881, 1105.772 654.509, 1096.454 658.137, 1087.135 661.603, 1078.235 653.971, 1084.697 646.339, 1091.159 638.708, 1097.621 638.194, 1098.056 631.914, 1103.374 " fill="none" stroke="rgb(0, 119, 0)" stroke-linecap="butt" stroke-linejoin="round" stroke-opacity="1.0" stroke-width="3.0" />
            <path d=" M 750.003, 1094.187 752.112, 1084.412 754.222, 1074.637 755.132, 1070.419 757.242, 1060.644 759.351, 1050.869 760.284, 1046.544 " fill="none" stroke="rgb(0, 119, 0)" stroke-linecap="butt" stroke-linejoin="round" stroke-opacity="1.0" stroke-width="3.0" />
            <path d=" M 1057.424, 1156.931 1058.893, 1166.823 1060.362, 1176.714 1061.831, 1186.606 1063.301, 1196.497 1064.153, 1202.233 " fill="none" stroke="rgb(0, 119, 0)" stroke-linecap="butt" stroke-linejoin="round" stroke-opacity="1.0" stroke-width="3.0" />
            <path d=" M 1112.428, 310.355 1122.077, 312.981 1131.726, 315.606 1141.375, 318.232 1151.024, 320.858 1160.673, 323.484 1170.322, 326.110 1179.971, 328.736 1189.620, 331.362 1199.269, 333.987 1208.918, 336.613 1218.568, 339.239 1228.217, 341.865 1237.866, 344.491 1247.515, 347.117 1257.164, 349.743 1266.813, 352.369 1268.463, 352.818 1271.087, 343.168 1273.711, 333.518 1276.335, 323.869 1278.959, 314.219 1281.583, 304.569 1284.207, 294.920 1286.831, 285.270 1289.455, 275.621 1292.078, 265.971 1294.702, 256.321 1295.511, 253.348 " fill="none" stroke="rgb(0, 119, 0)" stroke-linecap="butt" stroke-linejoin="round" stroke-opacity="1.0" stroke-width="3.0" />
            <path d=" M 1993.578, 536.165 1984.039, 533.162 1974.501, 530.159 1964.963, 527.156 1955.424, 524.153 1945.886, 521.150 1936.347, 518.147 1926.809, 515.144 1917.271, 512.141 1907.732, 509.138 1898.194, 506.135 1888.655, 503.131 1879.117, 500.128 1869.578, 497.125 1860.040, 494.122 1850.501, 491.119 1840.963, 488.116 1831.425, 485.113 1821.886, 482.110 1812.348, 479.107 1802.809, 476.104 1793.271, 473.101 1783.733, 470.098 1774.194, 467.095 1764.656, 464.091 1755.586, 461.236 " fill="none" stroke="rgb(0, 119, 0)" stroke-linecap="butt" stroke-linejoin="round" stroke-opacity="1.0" stroke-width="3.0" />
            <path d=" M 1996.672, 545.576 1986.933, 543.305 1977.195, 541.033 1968.814, 539.079 " fill="none" stroke="rgb(0, 119, 0)" stroke-linecap="butt" stroke-linejoin="round" stroke-opacity="1.0" stroke-width="3.0" />
        </g>
    </g>
</svg>
