<?xml version='1.0' encoding='ascii'?>
<svg xmlns="http://www.w3.org/2000/svg" xmlns:inkscape="http://www.inkscape.org/namespaces/inkscape" height="1485" version="1.1" width="2100">
    <g id="fressstylelayer_LineSet" inkscape:groupmode="lineset" inkscape:label="fressstylelayer_LineSet">
        <g id="strokes" inkscape:groupmode="layer" inkscape:label="strokes">
            <path d=" M 1437.979, 1417.329 1428.990, 1412.947 1423.422, 1410.233 " fill="none" stroke="rgb(157, 20, 170)" stroke-linecap="butt" stroke-linejoin="round" stroke-opacity="1.0" stroke-width="3.0" />
            <path d=" M 1491.323, 1397.262 1482.725, 1392.156 1478.563, 1389.685 1469.965, 1384.579 1461.367, 1379.473 1458.378, 1377.698 1449.179, 1373.776 1443.499, 1371.355 1438.911, 1380.240 1434.322, 1389.125 1429.734, 1398.010 1425.145, 1406.896 1423.422, 1410.233 1432.029, 1415.324 1440.636, 1420.415 1449.243, 1425.506 1457.850, 1430.597 1459.567, 1431.612 1462.911, 1433.258 1471.884, 1437.673 1474.777, 1439.097 1479.323, 1430.190 1479.942, 1428.976 1480.488, 1427.905 1481.188, 1426.533 1481.828, 1425.280 " fill="none" stroke="rgb(157, 20, 170)" stroke-linecap="butt" stroke-linejoin="round" stroke-opacity="1.0" stroke-width="3.0" />
            <path d=" M 1474.777, 1439.097 1466.171, 1434.006 1463.375, 1432.352 1454.768, 1427.261 1446.161, 1422.169 1437.979, 1417.329 1442.555, 1408.437 1447.132, 1399.546 1451.708, 1390.655 1456.285, 1381.764 1458.378, 1377.698 " fill="none" stroke="rgb(157, 20, 170)" stroke-linecap="butt" stroke-linejoin="round" stroke-opacity="1.0" stroke-width="3.0" />
            <path d=" M 1603.623, 1441.030 1608.082, 1432.079 1608.162, 1431.919 1599.569, 1426.804 1591.726, 1422.135 1583.133, 1417.019 1574.849, 1412.087 1573.214, 1411.114 " fill="none" stroke="rgb(157, 20, 170)" stroke-linecap="butt" stroke-linejoin="round" stroke-opacity="1.0" stroke-width="3.0" />
            <path d=" M 1605.887, 1488.113 1610.329, 1479.153 1611.302, 1477.189 1604.055, 1472.888 " fill="none" stroke="rgb(157, 20, 170)" stroke-linecap="butt" stroke-linejoin="round" stroke-opacity="1.0" stroke-width="3.0" />
            <path d=" M 1569.059, 1490.888 1573.524, 1481.940 1576.952, 1475.072 " fill="none" stroke="rgb(157, 20, 170)" stroke-linecap="butt" stroke-linejoin="round" stroke-opacity="1.0" stroke-width="3.0" />
            <path d=" M 1538.887, 1446.694 1534.387, 1455.624 1532.504, 1459.361 1528.004, 1468.292 1527.129, 1470.027 1524.339, 1475.565 1519.839, 1484.495 1517.631, 1488.876 1508.777, 1484.227 1500.704, 1479.988 " fill="none" stroke="rgb(157, 20, 170)" stroke-linecap="butt" stroke-linejoin="round" stroke-opacity="1.0" stroke-width="3.0" />
            <path d=" M 1550.281, 1453.449 1544.039, 1449.748 1543.974, 1449.710 1538.887, 1446.694 1537.811, 1446.193 1534.028, 1444.433 1529.096, 1442.138 1525.111, 1440.285 1523.984, 1439.760 1523.610, 1439.586 1521.613, 1438.658 1518.785, 1444.248 1518.323, 1445.162 1516.620, 1448.527 1516.064, 1449.626 1512.779, 1456.120 1512.290, 1457.087 1511.571, 1458.507 1511.183, 1459.275 1510.669, 1460.290 1510.104, 1461.407 1506.313, 1468.900 1505.998, 1469.524 1501.483, 1478.447 1500.704, 1479.988 1509.315, 1485.072 1516.187, 1489.130 " fill="none" stroke="rgb(157, 20, 170)" stroke-linecap="butt" stroke-linejoin="round" stroke-opacity="1.0" stroke-width="3.0" />
            <path d=" M 1538.687, 1428.469 1529.550, 1424.405 1521.477, 1420.813 " fill="none" stroke="rgb(157, 20, 170)" stroke-linecap="butt" stroke-linejoin="round" stroke-opacity="1.0" stroke-width="3.0" />
            <path d=" M 1591.726, 1422.135 1596.199, 1413.191 1597.972, 1409.646 1589.382, 1404.526 1580.792, 1399.406 1572.202, 1394.286 1563.613, 1389.166 1559.703, 1386.836 1550.384, 1383.211 1542.155, 1380.010 1537.635, 1388.930 1533.114, 1397.850 1528.594, 1406.770 1527.834, 1408.268 1527.486, 1408.955 1522.966, 1417.875 1521.477, 1420.813 1530.076, 1425.917 1530.774, 1426.331 1539.373, 1431.436 1542.399, 1433.232 " fill="none" stroke="rgb(157, 20, 170)" stroke-linecap="butt" stroke-linejoin="round" stroke-opacity="1.0" stroke-width="3.0" />
            <path d=" M 1557.286, 1439.511 1548.687, 1434.406 1543.392, 1431.263 1538.687, 1428.469 1543.193, 1419.542 1544.670, 1416.617 1549.176, 1407.690 1553.683, 1398.763 1558.189, 1389.836 1559.703, 1386.836 " fill="none" stroke="rgb(157, 20, 170)" stroke-linecap="butt" stroke-linejoin="round" stroke-opacity="1.0" stroke-width="3.0" />
            <path d=" M 1600.815, 1394.106 1591.466, 1390.555 1586.096, 1388.515 " fill="none" stroke="rgb(157, 20, 170)" stroke-linecap="butt" stroke-linejoin="round" stroke-opacity="1.0" stroke-width="3.0" />
            <path d=" M 1586.096, 1388.515 1594.683, 1393.639 1603.271, 1398.763 1611.859, 1403.886 1616.195, 1406.474 1625.522, 1410.080 1631.365, 1412.338 1635.815, 1403.383 1640.265, 1394.428 1644.715, 1385.472 1647.806, 1379.250 1639.226, 1374.114 1630.647, 1368.977 1622.067, 1363.840 1617.372, 1361.030 1607.903, 1357.817 1602.444, 1355.965 1597.956, 1364.901 1593.467, 1373.838 1588.979, 1382.774 1586.096, 1388.515 " fill="none" stroke="rgb(157, 20, 170)" stroke-linecap="butt" stroke-linejoin="round" stroke-opacity="1.0" stroke-width="3.0" />
            <path d=" M 1631.365, 1412.338 1622.778, 1407.214 1614.191, 1402.089 1605.604, 1396.964 1600.815, 1394.106 1605.291, 1385.164 1609.767, 1376.222 1614.244, 1367.280 1617.372, 1361.030 " fill="none" stroke="rgb(157, 20, 170)" stroke-linecap="butt" stroke-linejoin="round" stroke-opacity="1.0" stroke-width="3.0" />
            <path d=" M 1475.601, 1457.828 1471.063, 1466.739 1470.566, 1467.714 1467.864, 1473.020 1463.326, 1481.931 1461.064, 1486.372 1452.333, 1481.496 1450.297, 1480.359 " fill="none" stroke="rgb(157, 20, 170)" stroke-linecap="butt" stroke-linejoin="round" stroke-opacity="1.0" stroke-width="3.0" />
            <path d=" M 1489.502, 1497.623 1494.018, 1488.700 1498.534, 1479.778 1501.807, 1473.310 1500.875, 1472.759 1499.052, 1471.682 1490.442, 1466.596 1487.615, 1464.926 1484.444, 1463.053 1475.835, 1457.966 1475.601, 1457.828 1468.762, 1454.312 1464.671, 1452.208 1460.173, 1461.018 1459.952, 1461.450 1457.244, 1466.754 1456.993, 1467.245 1452.446, 1476.151 1450.297, 1480.359 1458.913, 1485.435 1464.869, 1488.944 " fill="none" stroke="rgb(157, 20, 170)" stroke-linecap="butt" stroke-linejoin="round" stroke-opacity="1.0" stroke-width="3.0" />
            <path d=" M 1457.244, 1466.754 1454.356, 1465.051 1445.544, 1460.322 1442.348, 1458.607 1437.788, 1467.506 1433.228, 1476.406 1428.668, 1485.306 1426.071, 1490.376 " fill="none" stroke="rgb(157, 20, 170)" stroke-linecap="butt" stroke-linejoin="round" stroke-opacity="1.0" stroke-width="3.0" />
            <path d=" M 1437.868, 1497.321 1442.418, 1488.416 1446.968, 1479.511 1451.518, 1470.606 1454.356, 1465.051 " fill="none" stroke="rgb(157, 20, 170)" stroke-linecap="butt" stroke-linejoin="round" stroke-opacity="1.0" stroke-width="3.0" />
            <path d=" M 1462.911, 1433.258 1458.357, 1442.160 1453.802, 1451.063 1451.146, 1456.253 1459.758, 1461.336 1459.952, 1461.450 " fill="none" stroke="rgb(157, 20, 170)" stroke-linecap="butt" stroke-linejoin="round" stroke-opacity="1.0" stroke-width="3.0" />
            <path d=" M 1491.721, 1434.393 1483.116, 1429.298 1481.892, 1428.572 1480.488, 1427.905 " fill="none" stroke="rgb(157, 20, 170)" stroke-linecap="butt" stroke-linejoin="round" stroke-opacity="1.0" stroke-width="3.0" />
            <path d=" M 1548.428, 1441.028 1548.363, 1440.990 1541.911, 1438.060 1540.327, 1437.341 1533.161, 1434.088 1531.485, 1437.407 1531.229, 1437.916 1529.096, 1442.138 " fill="none" stroke="rgb(157, 20, 170)" stroke-linecap="butt" stroke-linejoin="round" stroke-opacity="1.0" stroke-width="3.0" />
            <path d=" M 1563.738, 1465.362 1557.113, 1462.228 1548.028, 1457.931 " fill="none" stroke="rgb(157, 20, 170)" stroke-linecap="butt" stroke-linejoin="round" stroke-opacity="1.0" stroke-width="3.0" />
            <path d=" M 1597.856, 1485.370 1598.630, 1483.811 1603.078, 1474.855 1603.670, 1473.664 1604.055, 1472.888 1608.503, 1463.932 1612.951, 1454.976 1616.170, 1448.493 1607.576, 1443.381 1603.623, 1441.030 1595.029, 1435.918 1587.885, 1431.669 1587.170, 1431.244 1582.279, 1428.334 1573.072, 1424.431 1569.427, 1422.885 1567.674, 1422.142 1566.306, 1421.562 1563.243, 1427.656 1562.670, 1428.796 1558.180, 1437.731 1557.286, 1439.511 1556.296, 1441.480 1554.664, 1444.728 1553.844, 1446.359 1552.716, 1448.603 1551.962, 1450.104 1550.281, 1453.449 1549.428, 1455.146 1548.028, 1457.931 1556.693, 1463.066 1558.089, 1463.893 1560.331, 1465.222 1564.669, 1467.793 1571.980, 1472.126 1575.239, 1474.057 1575.281, 1474.082 1576.952, 1475.072 1581.505, 1477.770 1588.512, 1481.114 1592.135, 1482.844 1597.774, 1485.535 " fill="none" stroke="rgb(157, 20, 170)" stroke-linecap="butt" stroke-linejoin="round" stroke-opacity="1.0" stroke-width="3.0" />
            <path d=" M 1597.774, 1485.535 1589.171, 1480.436 1580.569, 1475.337 1576.005, 1472.632 1575.963, 1472.607 1572.705, 1470.676 1565.395, 1466.344 1563.738, 1465.362 1565.257, 1462.328 1566.933, 1458.982 1569.625, 1453.606 1571.952, 1448.958 1576.429, 1440.016 1580.907, 1431.075 1582.279, 1428.334 " fill="none" stroke="rgb(157, 20, 170)" stroke-linecap="butt" stroke-linejoin="round" stroke-opacity="1.0" stroke-width="3.0" />
            <path d=" M 1510.669, 1460.290 1507.989, 1458.705 1506.170, 1457.628 1503.202, 1456.157 1494.307, 1451.748 " fill="none" stroke="rgb(157, 20, 170)" stroke-linecap="butt" stroke-linejoin="round" stroke-opacity="1.0" stroke-width="3.0" />
            <path d=" M 1481.188, 1426.533 1489.793, 1431.629 1492.355, 1433.146 1495.861, 1435.223 1496.401, 1435.542 1500.427, 1437.456 1504.412, 1439.351 1505.327, 1439.786 1505.943, 1440.078 1510.301, 1442.150 1510.343, 1442.170 1511.019, 1440.835 1511.482, 1439.921 1516.003, 1431.001 1516.541, 1429.940 1517.085, 1428.866 1520.346, 1422.431 1521.065, 1421.012 1525.586, 1412.092 1527.248, 1408.813 1527.579, 1408.159 1527.974, 1407.380 1519.378, 1402.271 1510.781, 1397.162 1502.185, 1392.053 1495.893, 1388.314 1486.673, 1384.441 1482.210, 1382.566 1478.563, 1389.685 " fill="none" stroke="rgb(157, 20, 170)" stroke-linecap="butt" stroke-linejoin="round" stroke-opacity="1.0" stroke-width="3.0" />
            <path d=" M 1510.343, 1442.170 1505.556, 1439.335 1500.880, 1436.565 1496.498, 1433.969 1492.993, 1431.893 1484.389, 1426.797 1481.828, 1425.280 1478.132, 1423.091 1482.681, 1414.185 1487.229, 1405.279 1491.323, 1397.262 1495.893, 1388.314 " fill="none" stroke="rgb(157, 20, 170)" stroke-linecap="butt" stroke-linejoin="round" stroke-opacity="1.0" stroke-width="3.0" />
            <path d=" M 1499.800, 1448.439 1495.833, 1446.500 1491.262, 1444.267 1487.605, 1442.481 " fill="none" stroke="rgb(157, 20, 170)" stroke-linecap="butt" stroke-linejoin="round" stroke-opacity="1.0" stroke-width="3.0" />
            <path d=" M 1492.355, 1433.146 1491.721, 1434.393 1491.112, 1435.590 1487.605, 1442.481 1491.115, 1444.557 1495.501, 1447.153 1496.377, 1447.671 1500.772, 1450.272 " fill="none" stroke="rgb(157, 20, 170)" stroke-linecap="butt" stroke-linejoin="round" stroke-opacity="1.0" stroke-width="3.0" />
            <path d=" M 1512.779, 1456.120 1510.100, 1454.535 1501.494, 1449.442 1499.800, 1448.439 1503.414, 1441.318 1504.412, 1439.351 " fill="none" stroke="rgb(157, 20, 170)" stroke-linecap="butt" stroke-linejoin="round" stroke-opacity="1.0" stroke-width="3.0" />
            <path d=" M 1500.772, 1450.272 1500.052, 1451.691 1494.567, 1448.991 " fill="none" stroke="rgb(157, 20, 170)" stroke-linecap="butt" stroke-linejoin="round" stroke-opacity="1.0" stroke-width="3.0" />
            <path d=" M 1460.173, 1461.018 1451.329, 1456.349 1451.146, 1456.253 " fill="none" stroke="rgb(157, 20, 170)" stroke-linecap="butt" stroke-linejoin="round" stroke-opacity="1.0" stroke-width="3.0" />
            <path d=" M 1468.762, 1454.312 1473.306, 1445.404 1477.850, 1436.496 1481.892, 1428.572 " fill="none" stroke="rgb(157, 20, 170)" stroke-linecap="butt" stroke-linejoin="round" stroke-opacity="1.0" stroke-width="3.0" />
            <path d=" M 1499.052, 1471.682 1501.494, 1466.862 1506.012, 1457.941 1506.170, 1457.628 " fill="none" stroke="rgb(157, 20, 170)" stroke-linecap="butt" stroke-linejoin="round" stroke-opacity="1.0" stroke-width="3.0" />
            <path d=" M 1503.202, 1456.157 1503.828, 1454.923 1504.936, 1452.736 " fill="none" stroke="rgb(157, 20, 170)" stroke-linecap="butt" stroke-linejoin="round" stroke-opacity="1.0" stroke-width="3.0" />
            <path d=" M 1527.834, 1408.268 1527.579, 1408.159 " fill="none" stroke="rgb(157, 20, 170)" stroke-linecap="butt" stroke-linejoin="round" stroke-opacity="1.0" stroke-width="3.0" />
            <path d=" M 1530.602, 1426.672 1530.774, 1426.331 " fill="none" stroke="rgb(157, 20, 170)" stroke-linecap="butt" stroke-linejoin="round" stroke-opacity="1.0" stroke-width="3.0" />
            <path d=" M 1542.228, 1433.572 1533.628, 1428.468 1530.602, 1426.672 1522.003, 1421.568 1521.065, 1421.012 " fill="none" stroke="rgb(157, 20, 170)" stroke-linecap="butt" stroke-linejoin="round" stroke-opacity="1.0" stroke-width="3.0" />
            <path d=" M 1543.974, 1449.710 1545.658, 1446.365 1548.363, 1440.990 " fill="none" stroke="rgb(157, 20, 170)" stroke-linecap="butt" stroke-linejoin="round" stroke-opacity="1.0" stroke-width="3.0" />
            <path d=" M 1542.399, 1433.232 1542.228, 1433.572 1542.139, 1433.749 1540.327, 1437.341 " fill="none" stroke="rgb(157, 20, 170)" stroke-linecap="butt" stroke-linejoin="round" stroke-opacity="1.0" stroke-width="3.0" />
            <path d=" M 1567.674, 1422.142 1572.163, 1413.206 1573.214, 1411.114 " fill="none" stroke="rgb(157, 20, 170)" stroke-linecap="butt" stroke-linejoin="round" stroke-opacity="1.0" stroke-width="3.0" />
            <path d=" M 1567.278, 1490.002 1571.745, 1481.055 1575.239, 1474.057 " fill="none" stroke="rgb(157, 20, 170)" stroke-linecap="butt" stroke-linejoin="round" stroke-opacity="1.0" stroke-width="3.0" />
            <path d=" M 1567.322, 1490.023 1571.789, 1481.076 1575.281, 1474.082 " fill="none" stroke="rgb(157, 20, 170)" stroke-linecap="butt" stroke-linejoin="round" stroke-opacity="1.0" stroke-width="3.0" />
            <path d=" M 1579.869, 1498.481 1584.324, 1489.528 1588.512, 1481.114 " fill="none" stroke="rgb(157, 20, 170)" stroke-linecap="butt" stroke-linejoin="round" stroke-opacity="1.0" stroke-width="3.0" />
            <path d=" M 1605.887, 1488.113 1598.630, 1483.811 " fill="none" stroke="rgb(157, 20, 170)" stroke-linecap="butt" stroke-linejoin="round" stroke-opacity="1.0" stroke-width="3.0" />
        </g>
    </g>
    <g id="fressstylelayer_hidden lines" inkscape:groupmode="lineset" inkscape:label="fressstylelayer_hidden lines" xmlns:inkscape="http://www.inkscape.org/namespaces/inkscape">
        <g id="strokes" inkscape:groupmode="layer" inkscape:label="strokes" xmlns:inkscape="http://www.inkscape.org/namespaces/inkscape">
            <path d=" M 1498.950, 1464.548 1490.034, 1460.018 1489.185, 1459.587 " fill="none" stroke="rgb(0, 119, 0)" stroke-linecap="butt" stroke-linejoin="round" stroke-opacity="1.0" stroke-width="3.0" />
            <path d=" M 1489.185, 1459.587 1490.063, 1460.106 1498.672, 1465.194 1501.494, 1466.862 1503.315, 1467.938 1505.998, 1469.524 1511.645, 1472.861 1520.552, 1477.406 1521.660, 1477.971 1523.209, 1474.897 1523.494, 1474.332 1525.437, 1470.476 1526.000, 1469.359 1528.099, 1465.196 1528.103, 1465.188 1531.376, 1458.694 1532.034, 1457.389 1534.088, 1453.314 1530.593, 1451.243 1525.901, 1448.464 1522.111, 1446.218 1521.040, 1445.583 1520.684, 1445.372 1518.785, 1444.248 1511.482, 1439.921 1511.443, 1439.897 1507.080, 1437.837 1506.463, 1437.546 1505.547, 1437.114 1501.557, 1435.230 1500.880, 1436.565 1500.427, 1437.456 1499.609, 1439.065 1499.001, 1440.262 1495.833, 1446.500 1495.501, 1447.153 1494.567, 1448.991 1494.390, 1449.340 1493.396, 1451.297 1493.307, 1451.472 1489.185, 1459.587 " fill="none" stroke="rgb(0, 119, 0)" stroke-linecap="butt" stroke-linejoin="round" stroke-opacity="1.0" stroke-width="3.0" />
            <path d=" M 1521.660, 1477.971 1513.051, 1472.882 1506.313, 1468.900 1503.631, 1467.314 1498.950, 1464.548 1503.202, 1456.157 " fill="none" stroke="rgb(0, 119, 0)" stroke-linecap="butt" stroke-linejoin="round" stroke-opacity="1.0" stroke-width="3.0" />
            <path d=" M 1511.645, 1472.861 1516.154, 1463.936 1516.310, 1463.627 1516.969, 1462.322 1518.021, 1460.239 1521.698, 1452.962 1523.954, 1448.498 " fill="none" stroke="rgb(0, 119, 0)" stroke-linecap="butt" stroke-linejoin="round" stroke-opacity="1.0" stroke-width="3.0" />
            <path d=" M 1501.557, 1435.230 1506.233, 1438.000 1511.019, 1440.835 1518.323, 1445.162 1523.954, 1448.498 1525.510, 1449.238 1530.426, 1451.574 1534.088, 1453.314 " fill="none" stroke="rgb(0, 119, 0)" stroke-linecap="butt" stroke-linejoin="round" stroke-opacity="1.0" stroke-width="3.0" />
            <path d=" M 1459.567, 1431.612 1464.125, 1422.711 1466.594, 1417.889 1471.151, 1408.988 1475.709, 1400.087 1479.482, 1392.718 " fill="none" stroke="rgb(0, 119, 0)" stroke-linecap="butt" stroke-linejoin="round" stroke-opacity="1.0" stroke-width="3.0" />
            <path d=" M 1443.499, 1371.355 1452.098, 1376.460 1460.697, 1381.565 1469.296, 1386.670 1477.586, 1391.592 1479.482, 1392.718 1488.657, 1396.696 1495.008, 1399.450 " fill="none" stroke="rgb(0, 119, 0)" stroke-linecap="butt" stroke-linejoin="round" stroke-opacity="1.0" stroke-width="3.0" />
            <path d=" M 1481.828, 1425.280 1486.373, 1416.372 1490.918, 1407.465 1495.008, 1399.450 1491.323, 1397.262 " fill="none" stroke="rgb(0, 119, 0)" stroke-linecap="butt" stroke-linejoin="round" stroke-opacity="1.0" stroke-width="3.0" />
            <path d=" M 1598.630, 1483.811 1593.242, 1480.617 1589.781, 1478.565 1582.766, 1475.241 1577.996, 1472.980 1576.245, 1472.150 1576.201, 1472.130 1572.787, 1470.512 1572.705, 1470.676 1571.980, 1472.126 1567.511, 1481.071 1563.891, 1488.315 " fill="none" stroke="rgb(0, 119, 0)" stroke-linecap="butt" stroke-linejoin="round" stroke-opacity="1.0" stroke-width="3.0" />
            <path d=" M 1554.068, 1449.225 1552.716, 1448.603 1543.632, 1444.422 1539.632, 1442.581 1538.052, 1441.854 " fill="none" stroke="rgb(0, 119, 0)" stroke-linecap="butt" stroke-linejoin="round" stroke-opacity="1.0" stroke-width="3.0" />
            <path d=" M 1540.327, 1437.341 1539.940, 1438.110 1538.052, 1441.854 1539.551, 1442.743 1545.658, 1446.365 1545.723, 1446.403 1551.962, 1450.104 1560.619, 1455.238 1564.254, 1457.393 1566.933, 1458.982 1568.588, 1459.964 1572.558, 1462.319 1579.534, 1465.564 1581.289, 1466.380 1586.073, 1468.605 1589.169, 1470.046 1590.800, 1466.772 1591.473, 1465.422 1595.932, 1456.471 1600.391, 1447.520 1602.775, 1442.734 1603.623, 1441.030 " fill="none" stroke="rgb(0, 119, 0)" stroke-linecap="butt" stroke-linejoin="round" stroke-opacity="1.0" stroke-width="3.0" />
            <path d=" M 1589.169, 1470.046 1580.569, 1464.944 1580.009, 1464.612 1571.408, 1459.510 1569.409, 1458.324 1561.441, 1453.599 1554.068, 1449.225 1555.945, 1445.488 1557.577, 1442.240 1562.066, 1433.305 1564.522, 1428.416 1567.674, 1422.142 " fill="none" stroke="rgb(0, 119, 0)" stroke-linecap="butt" stroke-linejoin="round" stroke-opacity="1.0" stroke-width="3.0" />
            <path d=" M 1572.558, 1462.319 1575.233, 1456.970 1575.247, 1456.942 1579.720, 1447.998 1584.192, 1439.054 1587.885, 1431.669 1591.275, 1424.889 " fill="none" stroke="rgb(0, 119, 0)" stroke-linecap="butt" stroke-linejoin="round" stroke-opacity="1.0" stroke-width="3.0" />
            <path d=" M 1556.917, 1404.440 1565.510, 1409.554 1574.103, 1414.669 1582.697, 1419.783 1590.561, 1424.464 1591.275, 1424.889 1600.507, 1428.733 1608.162, 1431.919 " fill="none" stroke="rgb(0, 119, 0)" stroke-linecap="butt" stroke-linejoin="round" stroke-opacity="1.0" stroke-width="3.0" />
            <path d=" M 1573.214, 1411.114 1563.960, 1407.324 1556.917, 1404.440 1552.415, 1413.369 1549.369, 1419.410 1548.380, 1421.371 1543.878, 1430.300 1543.392, 1431.263 1542.399, 1433.232 " fill="none" stroke="rgb(0, 119, 0)" stroke-linecap="butt" stroke-linejoin="round" stroke-opacity="1.0" stroke-width="3.0" />
            <path d=" M 1604.055, 1472.888 1595.455, 1467.785 1591.473, 1465.422 1588.531, 1463.676 1583.985, 1460.978 1575.499, 1457.091 1575.233, 1456.970 1571.047, 1455.052 1570.700, 1455.745 1569.409, 1458.324 1568.588, 1459.964 1566.913, 1463.310 1566.390, 1464.356 1565.395, 1466.344 1564.669, 1467.793 1560.193, 1476.735 1556.291, 1484.531 1563.617, 1488.865 " fill="none" stroke="rgb(0, 119, 0)" stroke-linecap="butt" stroke-linejoin="round" stroke-opacity="1.0" stroke-width="3.0" />
            <path d=" M 1583.338, 1500.534 1587.791, 1491.580 1592.135, 1482.844 1593.242, 1480.617 1597.695, 1471.663 1598.002, 1471.046 " fill="none" stroke="rgb(0, 119, 0)" stroke-linecap="butt" stroke-linejoin="round" stroke-opacity="1.0" stroke-width="3.0" />
            <path d=" M 1571.047, 1455.052 1579.647, 1460.155 1581.643, 1461.339 1590.243, 1466.442 1590.800, 1466.772 1598.002, 1471.046 1603.670, 1473.664 1611.302, 1477.189 " fill="none" stroke="rgb(0, 119, 0)" stroke-linecap="butt" stroke-linejoin="round" stroke-opacity="1.0" stroke-width="3.0" />
            <path d=" M 1559.486, 1461.108 1566.390, 1464.356 1575.438, 1468.613 1577.478, 1469.573 " fill="none" stroke="rgb(0, 119, 0)" stroke-linecap="butt" stroke-linejoin="round" stroke-opacity="1.0" stroke-width="3.0" />
            <path d=" M 1545.859, 1488.289 1550.341, 1479.349 1554.822, 1470.410 1558.089, 1463.893 1559.486, 1461.108 1558.090, 1460.280 1549.428, 1455.146 1540.826, 1450.046 1537.009, 1447.784 1533.413, 1445.652 1528.725, 1442.873 1521.613, 1438.658 " fill="none" stroke="rgb(0, 119, 0)" stroke-linecap="butt" stroke-linejoin="round" stroke-opacity="1.0" stroke-width="3.0" />
            <path d=" M 1575.239, 1474.057 1575.963, 1472.607 1576.045, 1472.443 1576.201, 1472.130 1577.478, 1469.573 1568.876, 1464.473 1566.913, 1463.310 1565.257, 1462.328 1562.577, 1460.739 1558.941, 1458.583 1550.281, 1453.449 " fill="none" stroke="rgb(0, 119, 0)" stroke-linecap="butt" stroke-linejoin="round" stroke-opacity="1.0" stroke-width="3.0" />
            <path d=" M 1518.979, 1449.658 1516.620, 1448.527 1511.209, 1445.934 1503.968, 1442.464 " fill="none" stroke="rgb(0, 119, 0)" stroke-linecap="butt" stroke-linejoin="round" stroke-opacity="1.0" stroke-width="3.0" />
            <path d=" M 1527.579, 1408.159 1522.479, 1405.980 1517.955, 1414.897 1516.290, 1418.178 1515.570, 1419.597 1512.272, 1426.097 1511.760, 1427.105 1507.236, 1436.023 1506.463, 1437.546 1506.233, 1438.000 1505.556, 1439.335 1505.327, 1439.786 1504.287, 1441.835 1503.968, 1442.464 1504.556, 1442.812 1506.445, 1443.930 1508.717, 1445.276 1513.387, 1448.041 1516.064, 1449.626 1517.964, 1450.751 1519.392, 1451.597 1521.698, 1452.962 1523.184, 1453.843 1527.879, 1456.623 1531.376, 1458.694 1531.480, 1458.755 1532.504, 1459.361 1537.599, 1462.378 1537.663, 1462.416 1546.666, 1466.769 1553.242, 1469.949 1556.693, 1463.066 1557.113, 1462.228 1558.090, 1460.280 1558.941, 1458.583 1560.619, 1455.238 1561.441, 1453.599 1562.497, 1451.493 1563.315, 1449.862 1565.278, 1445.948 1565.932, 1444.644 1570.415, 1435.705 1571.878, 1432.788 1566.160, 1429.390 1564.522, 1428.416 1563.243, 1427.656 1554.647, 1422.547 1549.369, 1419.410 1544.670, 1416.617 1537.762, 1412.512 1528.567, 1408.581 1527.834, 1408.268 " fill="none" stroke="rgb(0, 119, 0)" stroke-linecap="butt" stroke-linejoin="round" stroke-opacity="1.0" stroke-width="3.0" />
            <path d=" M 1553.242, 1469.949 1544.637, 1464.853 1536.033, 1459.757 1532.137, 1457.450 1532.034, 1457.389 1528.537, 1455.318 1523.843, 1452.538 1518.979, 1449.658 1521.040, 1445.583 1523.984, 1439.760 1526.630, 1434.527 1530.602, 1426.672 " fill="none" stroke="rgb(0, 119, 0)" stroke-linecap="butt" stroke-linejoin="round" stroke-opacity="1.0" stroke-width="3.0" />
            <path d=" M 1537.663, 1462.416 1542.159, 1453.484 1544.039, 1449.748 1545.723, 1446.403 1548.428, 1441.028 1550.063, 1437.780 1554.558, 1428.848 1556.033, 1425.918 " fill="none" stroke="rgb(0, 119, 0)" stroke-linecap="butt" stroke-linejoin="round" stroke-opacity="1.0" stroke-width="3.0" />
            <path d=" M 1522.479, 1405.980 1527.248, 1408.813 1527.486, 1408.955 1536.083, 1414.063 1544.680, 1419.172 1548.380, 1421.371 1556.033, 1425.918 1562.670, 1428.796 1571.878, 1432.788 " fill="none" stroke="rgb(0, 119, 0)" stroke-linecap="butt" stroke-linejoin="round" stroke-opacity="1.0" stroke-width="3.0" />
            <path d=" M 1542.399, 1433.232 1550.063, 1437.780 1556.296, 1441.480 1557.577, 1442.240 1559.218, 1443.214 1565.278, 1445.948 1571.952, 1448.958 1577.140, 1451.298 1581.613, 1442.354 1586.119, 1433.345 1587.170, 1431.244 1590.561, 1424.464 1591.726, 1422.135 " fill="none" stroke="rgb(0, 119, 0)" stroke-linecap="butt" stroke-linejoin="round" stroke-opacity="1.0" stroke-width="3.0" />
            <path d=" M 1577.140, 1451.298 1568.541, 1446.193 1565.932, 1444.644 1557.286, 1439.511 " fill="none" stroke="rgb(0, 119, 0)" stroke-linecap="butt" stroke-linejoin="round" stroke-opacity="1.0" stroke-width="3.0" />
            <path d=" M 1559.218, 1443.214 1563.705, 1434.278 1566.160, 1429.390 1569.427, 1422.885 1573.914, 1413.949 1574.849, 1412.087 1579.337, 1403.151 1579.718, 1402.393 " fill="none" stroke="rgb(0, 119, 0)" stroke-linecap="butt" stroke-linejoin="round" stroke-opacity="1.0" stroke-width="3.0" />
            <path d=" M 1542.155, 1380.010 1550.745, 1385.129 1559.336, 1390.247 1567.926, 1395.366 1576.517, 1400.485 1579.718, 1402.393 1589.011, 1406.085 1597.972, 1409.646 " fill="none" stroke="rgb(0, 119, 0)" stroke-linecap="butt" stroke-linejoin="round" stroke-opacity="1.0" stroke-width="3.0" />
            <path d=" M 1616.195, 1406.474 1620.657, 1397.524 1625.119, 1388.575 1629.581, 1379.626 1632.430, 1373.912 " fill="none" stroke="rgb(0, 119, 0)" stroke-linecap="butt" stroke-linejoin="round" stroke-opacity="1.0" stroke-width="3.0" />
            <path d=" M 1602.444, 1355.965 1611.024, 1361.101 1619.605, 1366.236 1628.185, 1371.372 1632.430, 1373.912 1641.877, 1377.192 1647.806, 1379.250 " fill="none" stroke="rgb(0, 119, 0)" stroke-linecap="butt" stroke-linejoin="round" stroke-opacity="1.0" stroke-width="3.0" />
            <path d=" M 1490.544, 1467.491 1499.428, 1472.081 1500.847, 1472.814 1501.807, 1473.310 " fill="none" stroke="rgb(0, 119, 0)" stroke-linecap="butt" stroke-linejoin="round" stroke-opacity="1.0" stroke-width="3.0" />
            <path d=" M 1478.322, 1491.576 1482.847, 1482.659 1483.160, 1482.042 1485.931, 1476.582 1490.456, 1467.665 1490.544, 1467.491 1484.118, 1463.695 1475.508, 1458.609 1466.898, 1453.523 1464.671, 1452.208 " fill="none" stroke="rgb(0, 119, 0)" stroke-linecap="butt" stroke-linejoin="round" stroke-opacity="1.0" stroke-width="3.0" />
            <path d=" M 1471.543, 1475.828 1476.575, 1478.538 1483.976, 1482.524 " fill="none" stroke="rgb(0, 119, 0)" stroke-linecap="butt" stroke-linejoin="round" stroke-opacity="1.0" stroke-width="3.0" />
            <path d=" M 1464.869, 1488.944 1469.404, 1480.031 1471.543, 1475.828 1462.930, 1470.747 1456.993, 1467.245 1448.380, 1462.165 1442.348, 1458.607 " fill="none" stroke="rgb(0, 119, 0)" stroke-linecap="butt" stroke-linejoin="round" stroke-opacity="1.0" stroke-width="3.0" />
            <path d=" M 1479.244, 1491.850 1483.768, 1482.933 1483.976, 1482.524 1483.160, 1482.042 1476.723, 1478.245 1468.110, 1473.165 1467.864, 1473.020 1459.251, 1467.939 1457.244, 1466.754 " fill="none" stroke="rgb(0, 119, 0)" stroke-linecap="butt" stroke-linejoin="round" stroke-opacity="1.0" stroke-width="3.0" />
            <path d=" M 1464.245, 1463.168 1460.173, 1461.018 " fill="none" stroke="rgb(0, 119, 0)" stroke-linecap="butt" stroke-linejoin="round" stroke-opacity="1.0" stroke-width="3.0" />
            <path d=" M 1459.952, 1461.450 1468.564, 1466.533 1470.566, 1467.714 1479.178, 1472.797 1479.420, 1472.940 1482.594, 1474.813 1485.931, 1476.582 1494.318, 1481.030 1496.186, 1482.020 1500.703, 1473.098 1500.847, 1472.814 1500.875, 1472.759 1503.315, 1467.938 1503.631, 1467.314 1507.424, 1459.822 1507.989, 1458.705 1508.503, 1457.689 1508.892, 1456.921 1509.611, 1455.502 1510.100, 1454.535 1513.387, 1448.041 1513.706, 1447.412 1511.209, 1445.934 1509.036, 1444.647 1504.875, 1442.183 1504.287, 1441.835 1503.414, 1441.318 1499.609, 1439.065 1495.227, 1436.469 1491.721, 1434.393 " fill="none" stroke="rgb(0, 119, 0)" stroke-linecap="butt" stroke-linejoin="round" stroke-opacity="1.0" stroke-width="3.0" />
            <path d=" M 1496.186, 1482.020 1487.574, 1476.937 1479.739, 1472.312 1471.127, 1467.229 1464.245, 1463.168 1468.762, 1454.312 " fill="none" stroke="rgb(0, 119, 0)" stroke-linecap="butt" stroke-linejoin="round" stroke-opacity="1.0" stroke-width="3.0" />
            <path d=" M 1482.594, 1474.813 1487.122, 1465.897 1487.615, 1464.926 1490.063, 1460.106 1494.307, 1451.748 1495.267, 1449.859 1496.377, 1447.671 1499.877, 1440.780 " fill="none" stroke="rgb(0, 119, 0)" stroke-linecap="butt" stroke-linejoin="round" stroke-opacity="1.0" stroke-width="3.0" />
            <path d=" M 1468.552, 1422.232 1477.157, 1427.328 1479.942, 1428.976 1488.546, 1434.071 1491.112, 1435.590 1494.618, 1437.667 1499.001, 1440.262 1499.877, 1440.780 1506.445, 1443.930 1513.706, 1447.412 " fill="none" stroke="rgb(0, 119, 0)" stroke-linecap="butt" stroke-linejoin="round" stroke-opacity="1.0" stroke-width="3.0" />
            <path d=" M 1480.488, 1427.905 1471.456, 1423.613 1468.552, 1422.232 1463.998, 1431.135 1463.375, 1432.352 1462.911, 1433.258 " fill="none" stroke="rgb(0, 119, 0)" stroke-linecap="butt" stroke-linejoin="round" stroke-opacity="1.0" stroke-width="3.0" />
            <path d=" M 1529.943, 1477.589 1523.494, 1474.332 1515.002, 1470.045 " fill="none" stroke="rgb(0, 119, 0)" stroke-linecap="butt" stroke-linejoin="round" stroke-opacity="1.0" stroke-width="3.0" />
            <path d=" M 1529.096, 1442.138 1528.725, 1442.873 1525.901, 1448.464 1525.510, 1449.238 1523.843, 1452.538 1523.184, 1453.843 1519.905, 1460.337 1519.569, 1461.001 1518.699, 1462.724 1518.515, 1463.088 1517.798, 1464.507 1517.234, 1465.624 1515.002, 1470.045 1523.209, 1474.897 1523.326, 1474.966 1524.339, 1475.565 1532.947, 1480.654 1538.520, 1483.949 1545.859, 1488.289 " fill="none" stroke="rgb(0, 119, 0)" stroke-linecap="butt" stroke-linejoin="round" stroke-opacity="1.0" stroke-width="3.0" />
            <path d=" M 1548.107, 1489.618 1552.587, 1480.677 1557.067, 1471.737 1560.331, 1465.222 1562.577, 1460.739 1564.254, 1457.393 1566.130, 1453.648 " fill="none" stroke="rgb(0, 119, 0)" stroke-linecap="butt" stroke-linejoin="round" stroke-opacity="1.0" stroke-width="3.0" />
            <path d=" M 1533.161, 1434.088 1539.940, 1438.110 1541.438, 1438.998 1550.038, 1444.101 1553.844, 1446.359 1562.497, 1451.493 1566.130, 1453.648 1570.700, 1455.745 1579.788, 1459.917 1581.875, 1460.875 " fill="none" stroke="rgb(0, 119, 0)" stroke-linecap="butt" stroke-linejoin="round" stroke-opacity="1.0" stroke-width="3.0" />
            <path d=" M 1575.281, 1474.082 1576.005, 1472.632 1576.087, 1472.467 1576.245, 1472.150 1579.534, 1465.564 1580.009, 1464.612 1581.643, 1461.339 1581.875, 1460.875 1575.499, 1457.091 1575.247, 1456.942 1569.625, 1453.606 1563.315, 1449.862 1555.945, 1445.488 1554.664, 1444.728 1548.428, 1441.028 " fill="none" stroke="rgb(0, 119, 0)" stroke-linecap="butt" stroke-linejoin="round" stroke-opacity="1.0" stroke-width="3.0" />
            <path d=" M 1560.286, 1495.531 1551.678, 1490.441 1543.071, 1485.351 1539.019, 1482.956 1530.411, 1477.866 1529.943, 1477.589 1532.230, 1473.044 1536.726, 1464.112 1537.599, 1462.378 1542.094, 1453.446 1543.974, 1449.710 " fill="none" stroke="rgb(0, 119, 0)" stroke-linecap="butt" stroke-linejoin="round" stroke-opacity="1.0" stroke-width="3.0" />
            <path d=" M 1581.505, 1477.770 1582.766, 1475.241 1586.073, 1468.605 1588.531, 1463.676 1592.992, 1454.726 1597.453, 1445.777 1599.642, 1441.387 " fill="none" stroke="rgb(0, 119, 0)" stroke-linecap="butt" stroke-linejoin="round" stroke-opacity="1.0" stroke-width="3.0" />
            <path d=" M 1566.306, 1421.562 1574.901, 1426.673 1583.496, 1431.785 1586.119, 1433.345 1594.714, 1438.456 1599.642, 1441.387 1602.775, 1442.734 1611.962, 1446.684 1616.170, 1448.493 " fill="none" stroke="rgb(0, 119, 0)" stroke-linecap="butt" stroke-linejoin="round" stroke-opacity="1.0" stroke-width="3.0" />
            <path d=" M 1525.554, 1470.545 1534.500, 1475.014 1541.302, 1478.411 " fill="none" stroke="rgb(0, 119, 0)" stroke-linecap="butt" stroke-linejoin="round" stroke-opacity="1.0" stroke-width="3.0" />
            <path d=" M 1516.187, 1489.130 1520.688, 1480.200 1523.326, 1474.966 1525.554, 1470.545 1525.437, 1470.476 1517.234, 1465.624 1510.104, 1461.407 1507.424, 1459.822 1498.817, 1454.731 1493.307, 1451.472 1491.018, 1450.118 " fill="none" stroke="rgb(0, 119, 0)" stroke-linecap="butt" stroke-linejoin="round" stroke-opacity="1.0" stroke-width="3.0" />
            <path d=" M 1531.834, 1497.262 1536.322, 1488.326 1538.520, 1483.949 1539.019, 1482.956 1541.302, 1478.411 1532.695, 1473.319 1532.230, 1473.044 1527.129, 1470.027 1526.000, 1469.359 1517.798, 1464.507 1516.310, 1463.627 1510.669, 1460.290 " fill="none" stroke="rgb(0, 119, 0)" stroke-linecap="butt" stroke-linejoin="round" stroke-opacity="1.0" stroke-width="3.0" />
            <path d=" M 1486.739, 1495.994 1491.257, 1487.073 1494.318, 1481.030 1498.836, 1472.109 1499.052, 1471.682 " fill="none" stroke="rgb(0, 119, 0)" stroke-linecap="butt" stroke-linejoin="round" stroke-opacity="1.0" stroke-width="3.0" />
            <path d=" M 1494.307, 1451.748 1493.396, 1451.297 1491.018, 1450.118 1486.488, 1459.033 1484.444, 1463.053 1484.118, 1463.695 1479.739, 1472.312 1479.420, 1472.940 1476.723, 1478.245 1476.575, 1478.538 1472.044, 1487.452 1471.878, 1487.778 " fill="none" stroke="rgb(0, 119, 0)" stroke-linecap="butt" stroke-linejoin="round" stroke-opacity="1.0" stroke-width="3.0" />
            <path d=" M 1478.132, 1423.091 1469.085, 1418.831 1464.692, 1416.763 " fill="none" stroke="rgb(0, 119, 0)" stroke-linecap="butt" stroke-linejoin="round" stroke-opacity="1.0" stroke-width="3.0" />
            <path d=" M 1478.563, 1389.685 1477.586, 1391.592 1473.027, 1400.493 1468.468, 1409.393 1464.692, 1416.763 1466.594, 1417.889 1475.198, 1422.985 1481.188, 1426.533 " fill="none" stroke="rgb(0, 119, 0)" stroke-linecap="butt" stroke-linejoin="round" stroke-opacity="1.0" stroke-width="3.0" />
            <path d=" M 1496.401, 1435.542 1500.933, 1426.628 1503.285, 1422.001 1507.322, 1414.062 1511.854, 1405.148 1513.793, 1401.334 " fill="none" stroke="rgb(0, 119, 0)" stroke-linecap="butt" stroke-linejoin="round" stroke-opacity="1.0" stroke-width="3.0" />
            <path d=" M 1482.210, 1382.566 1490.807, 1387.675 1499.403, 1392.783 1508.000, 1397.891 1513.793, 1401.334 1522.992, 1405.255 1527.974, 1407.380 " fill="none" stroke="rgb(0, 119, 0)" stroke-linecap="butt" stroke-linejoin="round" stroke-opacity="1.0" stroke-width="3.0" />
            <path d=" M 1500.772, 1450.272 1504.936, 1452.736 1509.611, 1455.502 1512.290, 1457.087 1514.191, 1458.212 1515.621, 1459.058 1518.021, 1460.239 1519.569, 1461.001 1524.457, 1463.405 1528.099, 1465.196 1528.206, 1465.249 1531.480, 1458.755 1532.137, 1457.450 1536.638, 1448.520 1537.009, 1447.784 1537.811, 1446.193 1539.551, 1442.743 1539.632, 1442.581 1541.438, 1438.998 1541.911, 1438.060 1543.725, 1434.461 1542.228, 1433.572 " fill="none" stroke="rgb(0, 119, 0)" stroke-linecap="butt" stroke-linejoin="round" stroke-opacity="1.0" stroke-width="3.0" />
            <path d=" M 1528.206, 1465.249 1528.103, 1465.188 1524.603, 1463.117 1519.905, 1460.337 1512.779, 1456.120 " fill="none" stroke="rgb(0, 119, 0)" stroke-linecap="butt" stroke-linejoin="round" stroke-opacity="1.0" stroke-width="3.0" />
            <path d=" M 1515.621, 1459.058 1519.392, 1451.597 1522.111, 1446.218 1525.111, 1440.285 1527.700, 1435.162 1530.954, 1428.726 " fill="none" stroke="rgb(0, 119, 0)" stroke-linecap="butt" stroke-linejoin="round" stroke-opacity="1.0" stroke-width="3.0" />
            <path d=" M 1503.036, 1412.158 1511.636, 1417.262 1515.570, 1419.597 1520.346, 1422.431 1528.946, 1427.534 1530.954, 1428.726 1540.076, 1432.822 1542.139, 1433.749 1543.725, 1434.461 " fill="none" stroke="rgb(0, 119, 0)" stroke-linecap="butt" stroke-linejoin="round" stroke-opacity="1.0" stroke-width="3.0" />
            <path d=" M 1521.065, 1421.012 1516.290, 1418.178 1515.419, 1417.661 1507.322, 1414.062 1503.036, 1412.158 1498.501, 1421.070 1493.965, 1429.983 1492.993, 1431.893 1492.355, 1433.146 " fill="none" stroke="rgb(0, 119, 0)" stroke-linecap="butt" stroke-linejoin="round" stroke-opacity="1.0" stroke-width="3.0" />
            <path d=" M 1490.003, 1446.744 1494.390, 1449.340 1495.267, 1449.859 1503.828, 1454.923 1508.503, 1457.689 1511.183, 1459.275 1513.085, 1460.400 1516.969, 1462.322 1518.515, 1463.088 1523.398, 1465.504 1524.457, 1463.405 1524.603, 1463.117 1527.879, 1456.623 1528.537, 1455.318 1530.426, 1451.574 1530.593, 1451.243 1533.413, 1445.652 1534.028, 1444.433 1536.171, 1440.186 1531.485, 1437.407 1527.700, 1435.162 1526.630, 1434.527 1518.029, 1429.426 1517.085, 1428.866 1512.892, 1426.379 1512.272, 1426.097 1511.351, 1425.677 1503.285, 1422.001 1502.716, 1421.742 1498.183, 1430.656 1496.498, 1433.969 1495.861, 1435.223 1495.227, 1436.469 1494.618, 1437.667 1491.262, 1444.267 1491.115, 1444.557 1490.003, 1446.744 " fill="none" stroke="rgb(0, 119, 0)" stroke-linecap="butt" stroke-linejoin="round" stroke-opacity="1.0" stroke-width="3.0" />
            <path d=" M 1523.398, 1465.504 1518.699, 1462.724 1511.571, 1458.507 1508.892, 1456.921 1500.286, 1451.829 1500.052, 1451.691 " fill="none" stroke="rgb(0, 119, 0)" stroke-linecap="butt" stroke-linejoin="round" stroke-opacity="1.0" stroke-width="3.0" />
            <path d=" M 1513.085, 1460.400 1514.191, 1458.212 1517.964, 1450.751 1520.684, 1445.372 1523.610, 1439.586 1525.731, 1435.391 " fill="none" stroke="rgb(0, 119, 0)" stroke-linecap="butt" stroke-linejoin="round" stroke-opacity="1.0" stroke-width="3.0" />
            <path d=" M 1502.716, 1421.742 1511.317, 1426.842 1511.760, 1427.105 1516.541, 1429.940 1525.142, 1435.041 1525.731, 1435.391 1531.229, 1437.916 1536.171, 1440.186 " fill="none" stroke="rgb(0, 119, 0)" stroke-linecap="butt" stroke-linejoin="round" stroke-opacity="1.0" stroke-width="3.0" />
            <path d=" M 1494.567, 1448.991 1490.003, 1446.744 " fill="none" stroke="rgb(0, 119, 0)" stroke-linecap="butt" stroke-linejoin="round" stroke-opacity="1.0" stroke-width="3.0" />
            <path d=" M 1504.936, 1452.736 1508.717, 1445.276 1509.036, 1444.647 1510.301, 1442.150 1511.443, 1439.897 " fill="none" stroke="rgb(0, 119, 0)" stroke-linecap="butt" stroke-linejoin="round" stroke-opacity="1.0" stroke-width="3.0" />
            <path d=" M 1500.772, 1450.272 1504.556, 1442.812 1504.875, 1442.183 1505.943, 1440.078 1507.080, 1437.837 1511.604, 1428.919 1512.892, 1426.379 " fill="none" stroke="rgb(0, 119, 0)" stroke-linecap="butt" stroke-linejoin="round" stroke-opacity="1.0" stroke-width="3.0" />
            <path d=" M 1504.412, 1439.351 1505.547, 1437.114 1510.073, 1428.196 1511.351, 1425.677 1515.419, 1417.661 " fill="none" stroke="rgb(0, 119, 0)" stroke-linecap="butt" stroke-linejoin="round" stroke-opacity="1.0" stroke-width="3.0" />
            <path d=" M 1530.774, 1426.331 1535.286, 1417.407 1537.762, 1412.512 " fill="none" stroke="rgb(0, 119, 0)" stroke-linecap="butt" stroke-linejoin="round" stroke-opacity="1.0" stroke-width="3.0" />
            <path d=" M 1563.891, 1488.315 1556.291, 1484.531 " fill="none" stroke="rgb(0, 119, 0)" stroke-linecap="butt" stroke-linejoin="round" stroke-opacity="1.0" stroke-width="3.0" />
            <path d=" M 1576.952, 1475.072 1577.996, 1472.980 1581.289, 1466.380 1583.985, 1460.978 " fill="none" stroke="rgb(0, 119, 0)" stroke-linecap="butt" stroke-linejoin="round" stroke-opacity="1.0" stroke-width="3.0" />
            <path d=" M 1588.512, 1481.114 1589.781, 1478.565 " fill="none" stroke="rgb(0, 119, 0)" stroke-linecap="butt" stroke-linejoin="round" stroke-opacity="1.0" stroke-width="3.0" />
            <path d=" M 1597.856, 1485.370 1589.253, 1480.271 1580.651, 1475.172 1576.087, 1472.467 1576.045, 1472.443 1572.787, 1470.512 " fill="none" stroke="rgb(0, 119, 0)" stroke-linecap="butt" stroke-linejoin="round" stroke-opacity="1.0" stroke-width="3.0" />
        </g>
    </g>
</svg>
