<?xml version='1.0' encoding='ascii'?>
<svg xmlns="http://www.w3.org/2000/svg" xmlns:inkscape="http://www.inkscape.org/namespaces/inkscape" height="297" version="1.1" width="420">
    <g id="fressstylelayer_LineSet" inkscape:groupmode="lineset" inkscape:label="fressstylelayer_LineSet">
        <g id="strokes" inkscape:groupmode="layer" inkscape:label="strokes">
            <path d=" M 168.344, 147.530 166.177, 146.391 163.111, 147.609 " fill="none" stroke="rgb(157, 20, 170)" stroke-linecap="butt" stroke-linejoin="round" stroke-opacity="1.0" stroke-width="3.0" />
            <path d=" M 145.656, 42.282 154.478, 39.787 163.032, 37.367 172.655, 34.645 182.277, 31.923 191.899, 29.202 200.175, 26.861 " fill="none" stroke="rgb(157, 20, 170)" stroke-linecap="butt" stroke-linejoin="round" stroke-opacity="1.0" stroke-width="3.0" />
            <path d=" M 156.863, 101.775 160.668, 103.121 161.669, 102.771 171.107, 99.465 174.459, 98.291 177.819, 97.114 179.134, 96.654 180.737, 96.092 181.984, 95.655 190.222, 92.770 194.025, 91.438 199.753, 89.432 204.346, 87.823 204.625, 87.726 205.701, 87.349 211.826, 85.204 209.867, 75.397 207.909, 65.591 206.606, 59.064 206.471, 58.390 205.420, 53.124 205.266, 52.357 204.868, 50.361 204.483, 48.431 204.011, 46.068 203.995, 45.988 203.243, 42.222 202.361, 37.808 200.403, 28.001 200.175, 26.861 194.747, 26.726 184.751, 26.479 174.754, 26.232 173.097, 26.191 172.558, 26.339 162.914, 28.982 161.199, 29.452 152.573, 31.817 142.928, 34.461 137.319, 35.999 127.675, 38.642 122.820, 39.973 125.380, 49.640 127.941, 59.306 130.502, 68.973 132.211, 75.426 132.497, 76.502 " fill="none" stroke="rgb(157, 20, 170)" stroke-linecap="butt" stroke-linejoin="round" stroke-opacity="1.0" stroke-width="3.0" />
            <path d=" M 122.820, 39.973 132.769, 40.979 142.718, 41.985 145.656, 42.282 147.687, 50.512 150.082, 60.221 152.478, 69.929 154.874, 79.638 157.269, 89.347 159.665, 99.056 160.062, 100.663 160.668, 103.121 " fill="none" stroke="rgb(157, 20, 170)" stroke-linecap="butt" stroke-linejoin="round" stroke-opacity="1.0" stroke-width="3.0" />
            <path d=" M 151.875, 81.798 154.298, 91.500 156.720, 101.202 156.863, 101.775 " fill="none" stroke="rgb(157, 20, 170)" stroke-linecap="butt" stroke-linejoin="round" stroke-opacity="1.0" stroke-width="3.0" />
            <path d=" M 132.497, 76.502 142.143, 79.139 151.875, 81.798 142.365, 84.891 132.855, 87.984 123.345, 91.076 113.699, 94.213 " fill="none" stroke="rgb(157, 20, 170)" stroke-linecap="butt" stroke-linejoin="round" stroke-opacity="1.0" stroke-width="3.0" />
            <path d=" M 305.972, 193.873 304.662, 183.959 303.626, 176.116 302.704, 169.134 302.156, 164.986 293.343, 161.591 292.154, 161.133 " fill="none" stroke="rgb(157, 20, 170)" stroke-linecap="butt" stroke-linejoin="round" stroke-opacity="1.0" stroke-width="3.0" />
            <path d=" M 298.673, 197.689 305.972, 193.873 " fill="none" stroke="rgb(157, 20, 170)" stroke-linecap="butt" stroke-linejoin="round" stroke-opacity="1.0" stroke-width="3.0" />
            <path d=" M 279.748, 217.823 283.413, 215.862 292.231, 211.145 299.972, 207.004 298.673, 197.689 307.700, 201.991 311.027, 203.577 " fill="none" stroke="rgb(157, 20, 170)" stroke-linecap="butt" stroke-linejoin="round" stroke-opacity="1.0" stroke-width="3.0" />
            <path d=" M 95.997, 44.030 105.649, 41.415 115.301, 38.800 124.953, 36.185 134.605, 33.570 144.257, 30.955 151.873, 28.892 160.526, 26.547 " fill="none" stroke="rgb(157, 20, 170)" stroke-linecap="butt" stroke-linejoin="round" stroke-opacity="1.0" stroke-width="3.0" />
            <path d=" M 161.199, 29.452 160.526, 26.547 151.252, 26.291 141.255, 26.016 134.755, 25.836 125.084, 28.381 115.414, 30.926 105.743, 33.472 96.072, 36.017 86.402, 38.562 76.216, 41.242 79.118, 50.812 82.019, 60.382 84.921, 69.952 87.143, 77.279 88.348, 81.254 " fill="none" stroke="rgb(157, 20, 170)" stroke-linecap="butt" stroke-linejoin="round" stroke-opacity="1.0" stroke-width="3.0" />
            <path d=" M 76.216, 41.242 86.118, 42.638 95.997, 44.030 98.762, 53.640 101.527, 63.251 104.292, 72.861 107.057, 82.471 107.272, 83.216 " fill="none" stroke="rgb(157, 20, 170)" stroke-linecap="butt" stroke-linejoin="round" stroke-opacity="1.0" stroke-width="3.0" />
            <path d=" M 88.348, 81.254 97.252, 84.610 " fill="none" stroke="rgb(157, 20, 170)" stroke-linecap="butt" stroke-linejoin="round" stroke-opacity="1.0" stroke-width="3.0" />
            <path d=" M 177.522, 138.592 175.897, 139.231 167.133, 142.683 159.524, 145.680 156.478, 146.879 147.174, 150.544 137.869, 154.208 131.509, 156.713 127.975, 154.363 119.648, 148.825 111.218, 143.220 109.771, 142.257 106.892, 132.681 105.255, 127.236 102.376, 117.660 99.497, 108.083 96.619, 98.506 93.740, 88.930 93.226, 87.222 92.852, 85.977 97.252, 84.610 100.688, 83.543 104.663, 82.308 107.272, 83.216 116.817, 80.235 126.362, 77.253 132.211, 75.426 " fill="none" stroke="rgb(157, 20, 170)" stroke-linecap="butt" stroke-linejoin="round" stroke-opacity="1.0" stroke-width="3.0" />
            <path d=" M 173.098, 216.167 173.242, 216.281 181.075, 222.498 184.398, 225.135 " fill="none" stroke="rgb(157, 20, 170)" stroke-linecap="butt" stroke-linejoin="round" stroke-opacity="1.0" stroke-width="3.0" />
            <path d=" M 181.137, 216.453 177.992, 214.032 177.846, 213.920 " fill="none" stroke="rgb(157, 20, 170)" stroke-linecap="butt" stroke-linejoin="round" stroke-opacity="1.0" stroke-width="3.0" />
            <path d=" M 171.665, 189.815 174.149, 199.501 176.633, 209.188 177.846, 213.920 173.098, 216.167 173.141, 216.329 175.670, 226.004 178.200, 235.678 180.730, 245.353 181.243, 247.315 177.139, 249.410 168.232, 253.956 159.325, 258.501 150.418, 263.047 141.511, 267.593 135.981, 270.416 129.555, 262.753 123.129, 255.091 116.704, 247.429 113.532, 243.647 110.426, 234.141 107.320, 224.636 104.214, 215.131 101.108, 205.625 98.002, 196.120 96.613, 191.867 96.909, 191.744 98.482, 191.092 107.720, 187.262 116.957, 183.432 122.174, 181.269 124.095, 180.472 126.119, 179.633 126.610, 179.430 130.254, 177.919 " fill="none" stroke="rgb(157, 20, 170)" stroke-linecap="butt" stroke-linejoin="round" stroke-opacity="1.0" stroke-width="3.0" />
            <path d=" M 177.139, 249.410 184.522, 256.153 191.906, 262.897 198.769, 269.165 207.555, 264.390 216.341, 259.614 217.183, 259.157 224.106, 255.393 " fill="none" stroke="rgb(157, 20, 170)" stroke-linecap="butt" stroke-linejoin="round" stroke-opacity="1.0" stroke-width="3.0" />
            <path d=" M 224.106, 255.393 223.503, 252.668 " fill="none" stroke="rgb(157, 20, 170)" stroke-linecap="butt" stroke-linejoin="round" stroke-opacity="1.0" stroke-width="3.0" />
            <path d=" M 316.376, 245.175 315.101, 235.256 313.825, 225.338 312.550, 215.420 311.275, 205.501 311.027, 203.577 319.834, 198.839 328.640, 194.102 337.447, 189.364 346.253, 184.627 346.772, 184.348 " fill="none" stroke="rgb(157, 20, 170)" stroke-linecap="butt" stroke-linejoin="round" stroke-opacity="1.0" stroke-width="3.0" />
            <path d=" M 289.363, 229.597 298.026, 234.593 306.688, 239.588 315.351, 244.584 316.376, 245.175 324.978, 240.075 333.580, 234.975 342.182, 229.876 350.554, 224.912 349.626, 214.955 348.697, 204.999 347.769, 195.042 346.840, 185.085 346.772, 184.348 337.456, 180.711 333.497, 179.165 " fill="none" stroke="rgb(157, 20, 170)" stroke-linecap="butt" stroke-linejoin="round" stroke-opacity="1.0" stroke-width="3.0" />
            <path d=" M 167.133, 142.683 168.344, 147.530 169.178, 150.873 170.445, 155.945 172.147, 162.764 172.751, 165.180 173.501, 168.186 177.057, 170.314 " fill="none" stroke="rgb(157, 20, 170)" stroke-linecap="butt" stroke-linejoin="round" stroke-opacity="1.0" stroke-width="3.0" />
            <path d=" M 216.914, 144.125 226.143, 140.277 227.256, 139.813 236.486, 135.965 244.027, 132.820 246.181, 131.922 255.410, 128.074 262.072, 125.296 271.302, 121.447 276.373, 119.333 282.205, 116.902 285.723, 115.434 " fill="none" stroke="rgb(157, 20, 170)" stroke-linecap="butt" stroke-linejoin="round" stroke-opacity="1.0" stroke-width="3.0" />
            <path d=" M 216.673, 209.834 218.666, 211.135 219.654, 211.781 227.167, 216.686 231.240, 219.345 231.558, 219.552 232.226, 219.989 232.559, 220.206 234.920, 219.004 236.304, 218.299 241.723, 215.539 243.750, 214.506 249.864, 211.392 253.899, 209.337 254.806, 208.875 259.482, 206.493 265.556, 203.399 267.689, 202.313 268.626, 201.836 269.720, 201.279 270.198, 201.035 270.622, 200.819 279.532, 196.281 286.027, 192.972 287.315, 192.317 290.640, 190.623 292.950, 189.447 294.533, 188.640 295.925, 187.931 294.878, 180.488 293.484, 170.585 293.301, 169.284 292.724, 165.185 292.289, 162.093 292.154, 161.133 291.836, 158.875 290.443, 148.973 289.049, 139.070 287.656, 129.168 287.154, 125.599 285.760, 115.697 285.723, 115.434 285.493, 115.373 281.845, 114.406 275.382, 112.693 265.716, 110.130 264.902, 109.914 259.330, 108.437 " fill="none" stroke="rgb(157, 20, 170)" stroke-linecap="butt" stroke-linejoin="round" stroke-opacity="1.0" stroke-width="3.0" />
            <path d=" M 207.420, 129.004 198.094, 125.394 189.327, 122.000 186.410, 123.112 184.183, 123.960 183.582, 124.189 176.498, 126.889 177.211, 129.889 178.755, 136.376 179.239, 138.408 181.554, 148.136 183.280, 155.387 183.569, 156.599 184.443, 160.273 185.153, 163.255 185.931, 166.525 187.598, 173.527 188.071, 175.517 " fill="none" stroke="rgb(157, 20, 170)" stroke-linecap="butt" stroke-linejoin="round" stroke-opacity="1.0" stroke-width="3.0" />
            <path d=" M 259.330, 108.437 250.033, 112.121 246.163, 113.654 243.148, 114.849 233.851, 118.532 224.554, 122.216 220.407, 123.859 211.110, 127.542 207.420, 129.004 207.324, 128.551 " fill="none" stroke="rgb(157, 20, 170)" stroke-linecap="butt" stroke-linejoin="round" stroke-opacity="1.0" stroke-width="3.0" />
            <path d=" M 176.498, 126.889 185.696, 130.812 191.915, 133.464 200.937, 137.312 210.135, 141.235 216.914, 144.125 218.928, 153.920 220.942, 163.715 222.956, 173.511 224.971, 183.306 226.985, 193.101 227.943, 197.758 228.745, 201.658 229.169, 203.722 231.184, 213.517 231.398, 214.561 232.274, 218.820 232.559, 220.206 " fill="none" stroke="rgb(157, 20, 170)" stroke-linecap="butt" stroke-linejoin="round" stroke-opacity="1.0" stroke-width="3.0" />
            <path d=" M 212.313, 189.898 213.545, 195.532 215.681, 205.301 216.673, 209.834 " fill="none" stroke="rgb(157, 20, 170)" stroke-linecap="butt" stroke-linejoin="round" stroke-opacity="1.0" stroke-width="3.0" />
            <path d=" M 188.071, 175.517 193.449, 178.707 193.752, 178.887 195.796, 180.100 204.397, 185.202 212.313, 189.898 207.772, 192.009 204.439, 193.559 " fill="none" stroke="rgb(157, 20, 170)" stroke-linecap="butt" stroke-linejoin="round" stroke-opacity="1.0" stroke-width="3.0" />
            <path d=" M 96.613, 191.867 97.114, 192.372 104.160, 199.468 105.139, 200.454 112.185, 207.550 118.201, 213.609 " fill="none" stroke="rgb(157, 20, 170)" stroke-linecap="butt" stroke-linejoin="round" stroke-opacity="1.0" stroke-width="3.0" />
            <path d=" M 135.981, 270.416 132.994, 260.872 130.007, 251.329 127.020, 241.785 124.033, 232.242 121.045, 222.698 118.201, 213.609 127.337, 209.543 134.557, 206.330 143.693, 202.264 152.829, 198.198 161.965, 194.132 171.101, 190.066 171.665, 189.815 165.752, 185.729 157.525, 180.044 150.719, 175.340 " fill="none" stroke="rgb(157, 20, 170)" stroke-linecap="butt" stroke-linejoin="round" stroke-opacity="1.0" stroke-width="3.0" />
            <path d=" M 149.829, 172.069 150.719, 175.340 141.502, 179.218 139.437, 180.086 135.307, 181.824 " fill="none" stroke="rgb(157, 20, 170)" stroke-linecap="butt" stroke-linejoin="round" stroke-opacity="1.0" stroke-width="3.0" />
            <path d=" M 132.342, 171.531 135.110, 181.140 135.307, 181.824 130.254, 177.919 " fill="none" stroke="rgb(157, 20, 170)" stroke-linecap="butt" stroke-linejoin="round" stroke-opacity="1.0" stroke-width="3.0" />
            <path d=" M 282.527, 54.621 278.453, 56.020 " fill="none" stroke="rgb(157, 20, 170)" stroke-linecap="butt" stroke-linejoin="round" stroke-opacity="1.0" stroke-width="3.0" />
            <path d=" M 283.541, 62.065 282.527, 54.621 278.198, 54.201 " fill="none" stroke="rgb(157, 20, 170)" stroke-linecap="butt" stroke-linejoin="round" stroke-opacity="1.0" stroke-width="3.0" />
            <path d=" M 169.263, 11.488 178.947, 8.993 188.630, 6.498 198.314, 4.003 207.998, 1.507 213.847, 0.000 " fill="none" stroke="rgb(157, 20, 170)" stroke-linecap="butt" stroke-linejoin="round" stroke-opacity="1.0" stroke-width="3.0" />
            <path d=" M 221.362, 40.695 220.804, 37.673 218.988, 27.840 217.172, 18.006 215.356, 8.172 213.847, 0.000 203.871, 0.696 193.896, 1.392 189.639, 1.689 179.944, 4.140 170.249, 6.591 160.554, 9.042 150.859, 11.493 147.893, 12.243 150.218, 21.969 151.252, 26.291 " fill="none" stroke="rgb(157, 20, 170)" stroke-linecap="butt" stroke-linejoin="round" stroke-opacity="1.0" stroke-width="3.0" />
            <path d=" M 147.893, 12.243 157.887, 11.890 167.881, 11.537 169.263, 11.488 171.429, 21.251 172.558, 26.339 " fill="none" stroke="rgb(157, 20, 170)" stroke-linecap="butt" stroke-linejoin="round" stroke-opacity="1.0" stroke-width="3.0" />
            <path d=" M 171.171, 172.828 175.452, 175.496 179.213, 177.840 187.700, 183.129 195.942, 188.264 204.439, 193.559 206.650, 203.311 208.861, 213.064 211.073, 222.816 212.525, 229.222 213.368, 232.938 215.579, 242.690 217.228, 249.963 218.459, 255.393 " fill="none" stroke="rgb(157, 20, 170)" stroke-linecap="butt" stroke-linejoin="round" stroke-opacity="1.0" stroke-width="3.0" />
            <path d=" M 185.931, 166.525 182.801, 167.862 177.758, 170.015 177.057, 170.314 172.663, 172.191 171.171, 172.828 172.200, 176.900 173.111, 180.500 173.304, 181.264 174.231, 184.929 175.027, 188.078 175.055, 188.188 175.296, 189.141 177.261, 196.914 179.713, 206.608 180.770, 210.790 181.205, 212.510 182.088, 216.000 184.398, 225.135 185.302, 228.710 186.033, 229.298 189.517, 232.102 197.308, 238.372 197.669, 238.662 205.460, 244.932 213.251, 251.201 215.839, 253.284 218.459, 255.393 221.812, 253.582 223.503, 252.668 232.302, 247.915 236.900, 245.431 245.698, 240.679 254.497, 235.926 259.269, 233.348 268.068, 228.595 273.769, 225.515 272.898, 220.304 271.735, 213.343 270.130, 203.738 270.019, 203.072 269.928, 202.526 269.720, 201.279 " fill="none" stroke="rgb(157, 20, 170)" stroke-linecap="butt" stroke-linejoin="round" stroke-opacity="1.0" stroke-width="3.0" />
            <path d=" M 43.982, 90.254 52.576, 95.367 57.579, 98.344 " fill="none" stroke="rgb(157, 20, 170)" stroke-linecap="butt" stroke-linejoin="round" stroke-opacity="1.0" stroke-width="3.0" />
            <path d=" M 76.846, 156.029 73.678, 146.544 70.510, 137.059 67.342, 127.574 64.174, 118.090 61.006, 108.605 57.838, 99.120 57.579, 98.344 67.125, 95.365 76.671, 92.387 86.217, 89.409 93.226, 87.222 " fill="none" stroke="rgb(157, 20, 170)" stroke-linecap="butt" stroke-linejoin="round" stroke-opacity="1.0" stroke-width="3.0" />
            <path d=" M 87.143, 77.279 77.566, 80.158 67.990, 83.037 58.413, 85.916 48.836, 88.795 43.982, 90.254 47.229, 99.712 50.476, 109.170 53.723, 118.629 56.970, 128.087 60.216, 137.545 61.952, 142.602 69.380, 149.298 76.846, 156.029 86.217, 152.537 95.587, 149.045 104.958, 145.553 111.218, 143.220 " fill="none" stroke="rgb(157, 20, 170)" stroke-linecap="butt" stroke-linejoin="round" stroke-opacity="1.0" stroke-width="3.0" />
            <path d=" M 233.783, 92.781 233.248, 89.845 233.149, 89.302 231.356, 79.464 229.563, 69.626 227.769, 59.788 226.479, 52.708 217.681, 51.753 " fill="none" stroke="rgb(157, 20, 170)" stroke-linecap="butt" stroke-linejoin="round" stroke-opacity="1.0" stroke-width="3.0" />
            <path d=" M 168.837, 178.352 172.524, 180.756 173.304, 181.264 " fill="none" stroke="rgb(157, 20, 170)" stroke-linecap="butt" stroke-linejoin="round" stroke-opacity="1.0" stroke-width="3.0" />
            <path d=" M 172.200, 176.900 168.837, 178.352 169.761, 181.960 " fill="none" stroke="rgb(157, 20, 170)" stroke-linecap="butt" stroke-linejoin="round" stroke-opacity="1.0" stroke-width="3.0" />
            <path d=" M 169.761, 181.960 174.231, 184.929 " fill="none" stroke="rgb(157, 20, 170)" stroke-linecap="butt" stroke-linejoin="round" stroke-opacity="1.0" stroke-width="3.0" />
            <path d=" M 281.497, 87.014 286.673, 85.040 296.017, 81.478 305.361, 77.916 314.705, 74.353 317.232, 73.390 326.576, 69.827 335.920, 66.265 339.076, 65.061 " fill="none" stroke="rgb(157, 20, 170)" stroke-linecap="butt" stroke-linejoin="round" stroke-opacity="1.0" stroke-width="3.0" />
            <path d=" M 291.836, 158.875 300.880, 154.607 309.923, 150.338 318.966, 146.069 327.058, 142.249 330.655, 140.551 339.698, 136.282 345.277, 133.649 344.376, 123.690 343.476, 113.730 343.325, 112.061 342.425, 102.101 341.705, 94.140 340.805, 84.181 339.904, 74.221 339.076, 65.061 329.135, 63.979 319.194, 62.896 309.253, 61.813 299.311, 60.731 290.155, 59.733 283.541, 62.065 279.497, 63.491 275.390, 64.939 265.959, 68.265 257.098, 71.389 249.448, 74.086 248.513, 74.416 239.082, 77.741 236.705, 78.579 238.279, 87.439 238.375, 87.979 239.467, 94.124 " fill="none" stroke="rgb(157, 20, 170)" stroke-linecap="butt" stroke-linejoin="round" stroke-opacity="1.0" stroke-width="3.0" />
            <path d=" M 236.705, 78.579 246.533, 80.430 256.360, 82.280 266.187, 84.131 276.014, 85.981 278.474, 86.444 281.497, 87.014 282.892, 96.916 283.665, 102.400 284.454, 107.997 285.431, 114.936 285.493, 115.373 " fill="none" stroke="rgb(157, 20, 170)" stroke-linecap="butt" stroke-linejoin="round" stroke-opacity="1.0" stroke-width="3.0" />
            <path d=" M 172.147, 162.764 162.917, 166.612 162.515, 166.779 153.285, 170.628 149.829, 172.069 158.101, 177.687 166.374, 183.306 168.299, 184.613 174.044, 188.515 " fill="none" stroke="rgb(157, 20, 170)" stroke-linecap="butt" stroke-linejoin="round" stroke-opacity="1.0" stroke-width="3.0" />
            <path d=" M 182.088, 216.000 181.137, 216.453 180.251, 212.962 177.790, 203.269 175.329, 193.577 174.044, 188.515 175.027, 188.078 " fill="none" stroke="rgb(157, 20, 170)" stroke-linecap="butt" stroke-linejoin="round" stroke-opacity="1.0" stroke-width="3.0" />
            <path d=" M 115.556, 159.207 122.043, 163.970 130.104, 169.888 132.342, 171.531 141.598, 167.745 150.853, 163.959 160.109, 160.173 169.364, 156.387 170.445, 155.945 " fill="none" stroke="rgb(157, 20, 170)" stroke-linecap="butt" stroke-linejoin="round" stroke-opacity="1.0" stroke-width="3.0" />
            <path d=" M 127.975, 154.363 118.659, 157.997 115.556, 159.207 118.429, 168.786 121.208, 178.047 " fill="none" stroke="rgb(157, 20, 170)" stroke-linecap="butt" stroke-linejoin="round" stroke-opacity="1.0" stroke-width="3.0" />
            <path d=" M 96.909, 191.744 95.841, 188.473 105.090, 184.671 114.340, 180.869 121.208, 178.047 123.136, 177.254 126.119, 179.633 " fill="none" stroke="rgb(157, 20, 170)" stroke-linecap="butt" stroke-linejoin="round" stroke-opacity="1.0" stroke-width="3.0" />
            <path d=" M 171.838, 114.866 181.168, 118.464 186.384, 120.476 189.721, 121.763 199.051, 125.361 207.324, 128.551 216.622, 124.872 219.760, 123.631 229.058, 119.951 238.357, 116.272 243.069, 114.407 245.479, 113.454 254.778, 109.775 263.652, 106.264 272.950, 102.584 273.821, 102.240 " fill="none" stroke="rgb(157, 20, 170)" stroke-linecap="butt" stroke-linejoin="round" stroke-opacity="1.0" stroke-width="3.0" />
            <path d=" M 275.382, 112.693 275.318, 112.266 274.399, 106.111 274.272, 105.266 273.821, 102.240 264.089, 99.941 262.592, 99.587 259.351, 98.822 255.185, 97.837 252.633, 97.235 242.901, 94.935 239.467, 94.124 234.307, 92.905 233.783, 92.781 232.633, 92.510 " fill="none" stroke="rgb(157, 20, 170)" stroke-linecap="butt" stroke-linejoin="round" stroke-opacity="1.0" stroke-width="3.0" />
            <path d=" M 232.633, 92.510 226.758, 94.663 223.184, 95.973 213.795, 99.415 211.439, 100.279 207.510, 101.719 198.121, 105.160 188.732, 108.602 185.215, 109.891 " fill="none" stroke="rgb(157, 20, 170)" stroke-linecap="butt" stroke-linejoin="round" stroke-opacity="1.0" stroke-width="3.0" />
            <path d=" M 181.984, 95.655 184.197, 105.407 185.215, 109.891 183.771, 109.391 " fill="none" stroke="rgb(157, 20, 170)" stroke-linecap="butt" stroke-linejoin="round" stroke-opacity="1.0" stroke-width="3.0" />
            <path d=" M 180.737, 96.092 182.961, 105.842 183.771, 109.391 182.191, 109.968 " fill="none" stroke="rgb(157, 20, 170)" stroke-linecap="butt" stroke-linejoin="round" stroke-opacity="1.0" stroke-width="3.0" />
            <path d=" M 179.134, 96.654 180.362, 101.999 181.268, 105.945 181.990, 109.089 182.191, 109.968 182.295, 110.418 182.425, 110.985 173.036, 114.427 171.838, 114.866 172.141, 116.133 172.932, 119.433 173.051, 119.928 174.848, 127.429 177.177, 137.154 177.522, 138.592 " fill="none" stroke="rgb(157, 20, 170)" stroke-linecap="butt" stroke-linejoin="round" stroke-opacity="1.0" stroke-width="3.0" />
            <path d=" M 218.227, 54.639 217.681, 51.753 216.831, 47.266 215.902, 42.359 215.509, 40.287 215.327, 39.323 215.196, 38.631 205.216, 37.991 202.361, 37.808 " fill="none" stroke="rgb(157, 20, 170)" stroke-linecap="butt" stroke-linejoin="round" stroke-opacity="1.0" stroke-width="3.0" />
            <path d=" M 241.018, 248.417 249.795, 243.624 258.572, 238.832 267.348, 234.039 276.125, 229.246 284.768, 224.526 288.295, 222.601 " fill="none" stroke="rgb(157, 20, 170)" stroke-linecap="butt" stroke-linejoin="round" stroke-opacity="1.0" stroke-width="3.0" />
            <path d=" M 217.183, 259.157 219.414, 268.904 219.775, 270.482 227.385, 276.969 234.995, 283.456 242.605, 289.944 250.215, 296.431 250.882, 297.000 259.428, 291.807 267.974, 286.614 276.519, 281.420 285.065, 276.227 293.611, 271.034 295.514, 269.878 294.004, 259.992 292.495, 250.107 290.985, 240.222 289.476, 230.336 289.363, 229.597 288.700, 225.256 288.295, 222.601 284.101, 220.256 279.748, 217.823 272.802, 213.939 271.735, 213.343 " fill="none" stroke="rgb(157, 20, 170)" stroke-linecap="butt" stroke-linejoin="round" stroke-opacity="1.0" stroke-width="3.0" />
            <path d=" M 236.900, 245.431 241.018, 248.417 243.008, 258.217 244.998, 268.017 246.987, 277.817 248.977, 287.617 250.882, 297.000 " fill="none" stroke="rgb(157, 20, 170)" stroke-linecap="butt" stroke-linejoin="round" stroke-opacity="1.0" stroke-width="3.0" />
            <path d=" M 302.704, 169.134 311.015, 172.423 313.566, 173.433 322.864, 177.112 331.150, 180.391 333.497, 179.165 342.361, 174.535 351.224, 169.904 360.087, 165.274 368.951, 160.644 375.456, 157.245 374.806, 147.266 374.157, 137.287 373.507, 127.308 372.857, 117.330 372.207, 107.351 371.695, 99.484 361.850, 97.730 352.005, 95.975 342.160, 94.221 341.705, 94.140 " fill="none" stroke="rgb(157, 20, 170)" stroke-linecap="butt" stroke-linejoin="round" stroke-opacity="1.0" stroke-width="3.0" />
            <path d=" M 371.695, 99.484 362.553, 103.536 353.411, 107.589 344.269, 111.642 343.325, 112.061 " fill="none" stroke="rgb(157, 20, 170)" stroke-linecap="butt" stroke-linejoin="round" stroke-opacity="1.0" stroke-width="3.0" />
            <path d=" M 270.019, 203.072 270.497, 202.828 270.198, 201.035 " fill="none" stroke="rgb(157, 20, 170)" stroke-linecap="butt" stroke-linejoin="round" stroke-opacity="1.0" stroke-width="3.0" />
            <path d=" M 226.166, 48.139 235.705, 45.138 245.244, 42.136 254.783, 39.135 264.322, 36.133 273.861, 33.132 275.194, 32.712 " fill="none" stroke="rgb(157, 20, 170)" stroke-linecap="butt" stroke-linejoin="round" stroke-opacity="1.0" stroke-width="3.0" />
            <path d=" M 279.497, 63.491 278.453, 56.020 278.198, 54.201 276.814, 44.298 275.429, 34.394 275.194, 32.712 265.200, 32.351 255.207, 31.989 245.213, 31.627 241.339, 31.487 231.764, 34.372 222.189, 37.256 220.804, 37.673 " fill="none" stroke="rgb(157, 20, 170)" stroke-linecap="butt" stroke-linejoin="round" stroke-opacity="1.0" stroke-width="3.0" />
            <path d=" M 216.831, 47.266 226.166, 48.139 227.955, 57.978 229.744, 67.816 231.533, 77.655 233.323, 87.494 234.307, 92.905 " fill="none" stroke="rgb(157, 20, 170)" stroke-linecap="butt" stroke-linejoin="round" stroke-opacity="1.0" stroke-width="3.0" />
            <path d=" M 92.852, 85.977 102.152, 89.651 107.390, 91.721 113.699, 94.213 116.440, 103.830 116.520, 104.111 119.260, 113.728 122.001, 123.345 124.741, 132.962 126.085, 137.679 128.826, 147.296 130.553, 153.357 131.509, 156.713 " fill="none" stroke="rgb(157, 20, 170)" stroke-linecap="butt" stroke-linejoin="round" stroke-opacity="1.0" stroke-width="3.0" />
            <path d=" M 226.479, 52.708 216.954, 55.755 207.430, 58.801 206.606, 59.064 " fill="none" stroke="rgb(157, 20, 170)" stroke-linecap="butt" stroke-linejoin="round" stroke-opacity="1.0" stroke-width="3.0" />
            <path d=" M 98.482, 191.092 95.841, 188.473 " fill="none" stroke="rgb(157, 20, 170)" stroke-linecap="butt" stroke-linejoin="round" stroke-opacity="1.0" stroke-width="3.0" />
            <path d=" M 169.178, 150.873 167.011, 149.707 163.111, 147.609 159.524, 145.680 " fill="none" stroke="rgb(157, 20, 170)" stroke-linecap="butt" stroke-linejoin="round" stroke-opacity="1.0" stroke-width="3.0" />
            <path d=" M 175.897, 139.231 178.242, 148.953 179.287, 153.286 180.403, 157.914 181.290, 161.596 182.011, 164.584 182.801, 167.862 " fill="none" stroke="rgb(157, 20, 170)" stroke-linecap="butt" stroke-linejoin="round" stroke-opacity="1.0" stroke-width="3.0" />
            <path d=" M 189.517, 232.102 191.939, 241.804 194.361, 251.507 196.783, 261.209 198.769, 269.165 " fill="none" stroke="rgb(157, 20, 170)" stroke-linecap="butt" stroke-linejoin="round" stroke-opacity="1.0" stroke-width="3.0" />
            <path d=" M 203.243, 42.222 212.820, 39.345 215.196, 38.631 " fill="none" stroke="rgb(157, 20, 170)" stroke-linecap="butt" stroke-linejoin="round" stroke-opacity="1.0" stroke-width="3.0" />
            <path d=" M 206.471, 58.390 215.998, 55.350 218.227, 54.639 " fill="none" stroke="rgb(157, 20, 170)" stroke-linecap="butt" stroke-linejoin="round" stroke-opacity="1.0" stroke-width="3.0" />
            <path d=" M 215.902, 42.359 221.362, 40.695 " fill="none" stroke="rgb(157, 20, 170)" stroke-linecap="butt" stroke-linejoin="round" stroke-opacity="1.0" stroke-width="3.0" />
            <path d=" M 270.622, 200.819 271.030, 203.277 272.669, 213.142 272.802, 213.939 " fill="none" stroke="rgb(157, 20, 170)" stroke-linecap="butt" stroke-linejoin="round" stroke-opacity="1.0" stroke-width="3.0" />
            <path d=" M 283.413, 215.862 284.101, 220.256 " fill="none" stroke="rgb(157, 20, 170)" stroke-linecap="butt" stroke-linejoin="round" stroke-opacity="1.0" stroke-width="3.0" />
            <path d=" M 293.301, 169.284 297.694, 167.151 302.156, 164.986 " fill="none" stroke="rgb(157, 20, 170)" stroke-linecap="butt" stroke-linejoin="round" stroke-opacity="1.0" stroke-width="3.0" />
            <path d=" M 311.015, 172.423 303.626, 176.116 " fill="none" stroke="rgb(157, 20, 170)" stroke-linecap="butt" stroke-linejoin="round" stroke-opacity="1.0" stroke-width="3.0" />
            <path d=" M 327.058, 142.249 328.125, 152.192 329.192, 162.135 330.258, 172.078 330.911, 178.155 331.150, 180.391 " fill="none" stroke="rgb(157, 20, 170)" stroke-linecap="butt" stroke-linejoin="round" stroke-opacity="1.0" stroke-width="3.0" />
        </g>
    </g>
    <g id="fressstylelayer_hidden lines" inkscape:groupmode="lineset" inkscape:label="fressstylelayer_hidden lines">
        <g id="strokes" inkscape:groupmode="layer" inkscape:label="strokes">
            <path d=" M 166.177, 146.391 167.011, 149.707 169.449, 159.406 171.886, 169.104 172.663, 172.191 173.685, 176.259 174.589, 179.856 176.759, 188.488 " fill="none" stroke="rgb(0, 119, 0)" stroke-linecap="butt" stroke-linejoin="round" stroke-opacity="1.0" stroke-width="3.0" />
            <path d=" M 199.573, 203.812 191.271, 198.236 182.970, 192.660 176.759, 188.488 175.296, 189.141 166.163, 193.214 157.030, 197.288 147.898, 201.361 138.765, 205.435 134.813, 207.198 " fill="none" stroke="rgb(0, 119, 0)" stroke-linecap="butt" stroke-linejoin="round" stroke-opacity="1.0" stroke-width="3.0" />
            <path d=" M 163.111, 147.609 157.271, 149.929 147.978, 153.621 138.684, 157.313 129.391, 161.006 122.031, 163.930 122.043, 163.970 124.876, 173.560 126.610, 179.430 126.840, 180.208 128.544, 185.976 131.377, 195.566 131.649, 196.486 132.643, 199.853 134.557, 206.330 134.813, 207.198 137.349, 209.471 144.796, 216.145 146.668, 217.823 154.091, 224.477 154.728, 225.048 163.766, 220.768 166.300, 219.568 169.771, 217.924 173.141, 216.329 173.242, 216.281 177.992, 214.032 180.251, 212.962 181.205, 212.510 183.500, 211.423 192.537, 207.144 195.178, 205.893 199.573, 203.812 199.175, 202.112 196.901, 192.374 196.714, 191.572 195.942, 188.264 195.186, 185.028 193.752, 178.887 193.275, 176.845 193.095, 176.071 192.511, 173.574 190.481, 164.878 189.657, 161.349 188.962, 158.376 188.946, 158.367 184.695, 156.131 183.280, 155.387 179.287, 153.286 170.436, 148.631 168.344, 147.530 " fill="none" stroke="rgb(0, 119, 0)" stroke-linecap="butt" stroke-linejoin="round" stroke-opacity="1.0" stroke-width="3.0" />
            <path d=" M 146.089, 194.342 148.798, 203.968 151.506, 213.595 154.214, 223.221 154.728, 225.048 " fill="none" stroke="rgb(0, 119, 0)" stroke-linecap="butt" stroke-linejoin="round" stroke-opacity="1.0" stroke-width="3.0" />
            <path d=" M 188.962, 158.376 184.443, 160.273 181.290, 161.596 172.751, 165.180 165.108, 168.388 " fill="none" stroke="rgb(0, 119, 0)" stroke-linecap="butt" stroke-linejoin="round" stroke-opacity="1.0" stroke-width="3.0" />
            <path d=" M 169.185, 184.225 168.299, 184.613 165.752, 185.729 156.593, 189.741 147.433, 193.754 146.089, 194.342 142.727, 191.680 139.997, 182.060 139.437, 180.086 138.226, 175.816 147.459, 171.977 156.693, 168.137 161.489, 166.143 162.515, 166.779 165.108, 168.388 167.601, 178.072 169.185, 184.225 " fill="none" stroke="rgb(0, 119, 0)" stroke-linecap="butt" stroke-linejoin="round" stroke-opacity="1.0" stroke-width="3.0" />
            <path d=" M 138.226, 175.816 130.164, 169.899 122.031, 163.930 " fill="none" stroke="rgb(0, 119, 0)" stroke-linecap="butt" stroke-linejoin="round" stroke-opacity="1.0" stroke-width="3.0" />
            <path d=" M 173.097, 26.191 175.259, 35.954 175.789, 38.347 176.613, 42.069 " fill="none" stroke="rgb(0, 119, 0)" stroke-linecap="butt" stroke-linejoin="round" stroke-opacity="1.0" stroke-width="3.0" />
            <path d=" M 132.497, 76.502 138.370, 74.661 135.857, 64.981 133.345, 55.302 133.199, 54.740 141.440, 52.335 147.687, 50.512 156.432, 47.960 157.645, 47.605 167.244, 44.804 176.083, 42.224 176.613, 42.069 183.497, 42.674 193.459, 43.548 197.616, 43.913 198.465, 48.062 198.801, 49.702 199.354, 52.407 199.699, 54.094 199.900, 55.078 200.399, 57.518 200.939, 60.155 202.489, 60.381 204.481, 70.181 206.474, 79.980 207.328, 84.179 205.202, 84.917 204.123, 85.292 203.843, 85.389 199.239, 86.989 193.496, 88.984 189.682, 90.309 181.422, 93.179 179.978, 92.766 177.049, 93.780 177.258, 94.688 177.819, 97.114 179.054, 102.465 179.965, 106.415 180.692, 109.562 180.895, 110.442 181.572, 110.682 182.425, 110.985 " fill="none" stroke="rgb(0, 119, 0)" stroke-linecap="butt" stroke-linejoin="round" stroke-opacity="1.0" stroke-width="3.0" />
            <path d=" M 266.958, 181.583 267.465, 181.824 " fill="none" stroke="rgb(0, 119, 0)" stroke-linecap="butt" stroke-linejoin="round" stroke-opacity="1.0" stroke-width="3.0" />
            <path d=" M 270.622, 200.819 268.982, 190.955 267.465, 181.824 276.461, 177.457 285.458, 173.091 290.264, 170.758 293.301, 169.284 " fill="none" stroke="rgb(0, 119, 0)" stroke-linecap="butt" stroke-linejoin="round" stroke-opacity="1.0" stroke-width="3.0" />
            <path d=" M 292.154, 161.133 288.362, 159.672 282.034, 157.234 274.416, 154.298 270.905, 155.903 270.696, 155.998 269.067, 156.743 267.318, 157.542 258.816, 161.428 258.505, 161.570 256.910, 162.299 255.151, 163.103 248.220, 166.271 250.401, 167.260 256.347, 169.958 265.453, 174.090 265.754, 174.227 270.373, 176.323 272.364, 177.226 273.559, 177.768 274.214, 178.065 274.123, 177.495 273.049, 170.758 272.536, 167.541 270.962, 157.666 270.696, 155.998 270.666, 155.809 270.337, 153.748 266.455, 152.240 257.133, 148.621 256.591, 148.411 247.269, 144.791 240.977, 142.349 240.607, 142.205 239.763, 142.564 230.841, 146.365 228.715, 147.270 221.447, 150.366 221.802, 150.523 230.065, 154.167 228.770, 147.552 228.715, 147.270 227.256, 139.813 225.336, 129.999 224.881, 127.676 224.410, 125.270 220.407, 123.859 219.760, 123.631 210.328, 120.306 204.523, 118.259 201.612, 117.232 192.267, 120.793 189.721, 121.763 186.391, 123.031 184.071, 123.915 183.563, 124.109 174.848, 127.429 173.105, 128.093 164.326, 131.438 166.748, 141.140 167.133, 142.683 " fill="none" stroke="rgb(0, 119, 0)" stroke-linecap="butt" stroke-linejoin="round" stroke-opacity="1.0" stroke-width="3.0" />
            <path d=" M 274.214, 178.065 266.958, 181.583 268.601, 191.447 270.198, 201.035 " fill="none" stroke="rgb(0, 119, 0)" stroke-linecap="butt" stroke-linejoin="round" stroke-opacity="1.0" stroke-width="3.0" />
            <path d=" M 270.497, 202.828 269.928, 202.526 268.626, 201.836 267.508, 201.242 262.764, 198.725 253.930, 194.038 251.837, 192.928 251.551, 192.776 248.236, 191.017 245.237, 189.426 245.049, 189.327 245.082, 189.501 246.191, 195.398 248.040, 205.225 248.194, 206.043 248.268, 206.086 253.899, 209.337 255.007, 209.976 255.720, 210.388 264.381, 215.387 272.898, 220.304 273.961, 220.918 279.748, 217.823 " fill="none" stroke="rgb(0, 119, 0)" stroke-linecap="butt" stroke-linejoin="round" stroke-opacity="1.0" stroke-width="3.0" />
            <path d=" M 248.194, 206.043 257.130, 201.555 259.726, 200.251 262.764, 198.725 268.787, 195.700 277.723, 191.211 279.990, 190.073 " fill="none" stroke="rgb(0, 119, 0)" stroke-linecap="butt" stroke-linejoin="round" stroke-opacity="1.0" stroke-width="3.0" />
            <path d=" M 274.416, 154.298 274.912, 157.481 276.451, 167.362 277.756, 175.736 279.296, 185.617 279.990, 190.073 286.027, 192.972 287.520, 193.689 " fill="none" stroke="rgb(0, 119, 0)" stroke-linecap="butt" stroke-linejoin="round" stroke-opacity="1.0" stroke-width="3.0" />
            <path d=" M 286.196, 184.826 287.315, 192.317 287.520, 193.689 280.507, 197.274 " fill="none" stroke="rgb(0, 119, 0)" stroke-linecap="butt" stroke-linejoin="round" stroke-opacity="1.0" stroke-width="3.0" />
            <path d=" M 299.972, 207.004 291.028, 202.533 282.083, 198.062 281.640, 197.840 280.507, 197.274 280.673, 198.336 282.218, 208.216 283.413, 215.862 " fill="none" stroke="rgb(0, 119, 0)" stroke-linecap="butt" stroke-linejoin="round" stroke-opacity="1.0" stroke-width="3.0" />
            <path d=" M 303.626, 176.116 294.878, 180.488 291.878, 181.987 287.570, 184.140 286.196, 184.826 292.714, 187.808 294.533, 188.640 303.627, 192.800 305.972, 193.873 " fill="none" stroke="rgb(0, 119, 0)" stroke-linecap="butt" stroke-linejoin="round" stroke-opacity="1.0" stroke-width="3.0" />
            <path d=" M 134.755, 25.836 137.201, 35.533 137.319, 35.999 139.765, 45.695 141.440, 52.335 143.886, 62.031 146.332, 71.727 148.778, 81.424 149.524, 84.381 " fill="none" stroke="rgb(0, 119, 0)" stroke-linecap="butt" stroke-linejoin="round" stroke-opacity="1.0" stroke-width="3.0" />
            <path d=" M 167.637, 89.593 158.027, 86.828 157.729, 86.742 149.524, 84.381 140.020, 87.490 130.515, 90.599 121.010, 93.707 111.506, 96.816 110.840, 97.034 " fill="none" stroke="rgb(0, 119, 0)" stroke-linecap="butt" stroke-linejoin="round" stroke-opacity="1.0" stroke-width="3.0" />
            <path d=" M 88.348, 81.254 97.914, 78.338 99.059, 77.989 104.845, 76.226 97.902, 74.045 88.325, 76.924 87.143, 77.279 " fill="none" stroke="rgb(0, 119, 0)" stroke-linecap="butt" stroke-linejoin="round" stroke-opacity="1.0" stroke-width="3.0" />
            <path d=" M 122.782, 102.007 113.551, 98.163 110.840, 97.034 108.071, 87.425 105.303, 77.815 104.845, 76.226 " fill="none" stroke="rgb(0, 119, 0)" stroke-linecap="butt" stroke-linejoin="round" stroke-opacity="1.0" stroke-width="3.0" />
            <path d=" M 99.220, 85.352 102.050, 94.943 104.880, 104.534 105.816, 107.706 " fill="none" stroke="rgb(0, 119, 0)" stroke-linecap="butt" stroke-linejoin="round" stroke-opacity="1.0" stroke-width="3.0" />
            <path d=" M 111.218, 143.220 120.589, 139.728 126.085, 137.679 132.110, 135.434 131.739, 134.103 129.051, 124.471 126.363, 114.839 124.283, 107.386 122.782, 102.007 116.520, 104.111 111.471, 105.806 107.601, 107.106 105.816, 107.706 108.104, 108.821 113.042, 111.228 111.471, 105.806 108.688, 96.201 107.390, 91.721 104.663, 82.308 " fill="none" stroke="rgb(0, 119, 0)" stroke-linecap="butt" stroke-linejoin="round" stroke-opacity="1.0" stroke-width="3.0" />
            <path d=" M 202.361, 37.808 196.938, 37.460 186.958, 36.819 182.167, 36.512 175.789, 38.347 175.256, 38.500 165.646, 41.265 164.042, 41.726 156.745, 43.825 164.718, 44.646 164.042, 41.726 163.032, 37.367 161.199, 29.452 " fill="none" stroke="rgb(0, 119, 0)" stroke-linecap="butt" stroke-linejoin="round" stroke-opacity="1.0" stroke-width="3.0" />
            <path d=" M 156.745, 43.825 157.645, 47.605 159.960, 57.334 160.652, 60.240 162.967, 69.968 165.282, 79.697 165.890, 82.251 167.637, 89.593 159.137, 92.472 149.666, 95.680 140.194, 98.888 136.605, 100.103 " fill="none" stroke="rgb(0, 119, 0)" stroke-linecap="butt" stroke-linejoin="round" stroke-opacity="1.0" stroke-width="3.0" />
            <path d=" M 188.613, 228.481 196.923, 224.374 " fill="none" stroke="rgb(0, 119, 0)" stroke-linecap="butt" stroke-linejoin="round" stroke-opacity="1.0" stroke-width="3.0" />
            <path d=" M 199.662, 235.757 197.322, 226.034 196.923, 224.374 188.939, 218.352 184.372, 214.908 " fill="none" stroke="rgb(0, 119, 0)" stroke-linecap="butt" stroke-linejoin="round" stroke-opacity="1.0" stroke-width="3.0" />
            <path d=" M 177.390, 187.027 179.819, 196.728 182.248, 206.428 183.500, 211.423 184.372, 214.908 182.088, 216.000 " fill="none" stroke="rgb(0, 119, 0)" stroke-linecap="butt" stroke-linejoin="round" stroke-opacity="1.0" stroke-width="3.0" />
            <path d=" M 181.243, 247.315 181.047, 247.141 174.941, 241.704 176.945, 249.233 177.139, 249.410 " fill="none" stroke="rgb(0, 119, 0)" stroke-linecap="butt" stroke-linejoin="round" stroke-opacity="1.0" stroke-width="3.0" />
            <path d=" M 176.945, 249.233 181.047, 247.141 189.955, 242.597 197.669, 238.662 201.117, 236.904 210.025, 232.360 213.978, 230.344 " fill="none" stroke="rgb(0, 119, 0)" stroke-linecap="butt" stroke-linejoin="round" stroke-opacity="1.0" stroke-width="3.0" />
            <path d=" M 210.965, 216.986 213.165, 226.741 213.602, 228.675 213.978, 230.344 215.814, 231.684 223.890, 237.581 228.170, 240.707 " fill="none" stroke="rgb(0, 119, 0)" stroke-linecap="butt" stroke-linejoin="round" stroke-opacity="1.0" stroke-width="3.0" />
            <path d=" M 223.431, 218.563 224.347, 222.844 224.419, 223.179 225.208, 226.868 227.301, 236.647 228.170, 240.707 219.333, 245.388 214.605, 247.892 " fill="none" stroke="rgb(0, 119, 0)" stroke-linecap="butt" stroke-linejoin="round" stroke-opacity="1.0" stroke-width="3.0" />
            <path d=" M 224.106, 255.393 221.812, 253.582 217.228, 249.963 214.605, 247.892 215.839, 253.284 217.183, 259.157 " fill="none" stroke="rgb(0, 119, 0)" stroke-linecap="butt" stroke-linejoin="round" stroke-opacity="1.0" stroke-width="3.0" />
            <path d=" M 184.398, 225.135 188.613, 228.481 189.517, 232.102 " fill="none" stroke="rgb(0, 119, 0)" stroke-linecap="butt" stroke-linejoin="round" stroke-opacity="1.0" stroke-width="3.0" />
            <path d=" M 219.039, 232.484 227.929, 227.903 233.287, 225.142 " fill="none" stroke="rgb(0, 119, 0)" stroke-linecap="butt" stroke-linejoin="round" stroke-opacity="1.0" stroke-width="3.0" />
            <path d=" M 271.735, 213.343 263.007, 208.463 261.323, 207.522 259.482, 206.493 253.791, 203.311 248.268, 206.086 244.276, 208.091 239.013, 210.735 236.226, 212.135 235.915, 212.291 235.168, 212.667 233.009, 213.751 232.648, 213.933 231.398, 214.561 227.686, 216.425 227.167, 216.686 223.431, 218.563 227.469, 221.259 227.784, 221.469 231.241, 223.776 233.287, 225.142 232.837, 222.958 232.226, 219.989 232.081, 219.286 231.558, 219.552 227.784, 221.469 224.419, 223.179 215.503, 227.709 213.602, 228.675 212.525, 229.222 203.610, 233.751 202.005, 234.566 199.662, 235.757 201.117, 236.904 202.896, 238.306 211.795, 233.744 213.368, 232.938 215.814, 231.684 224.713, 227.122 225.208, 226.868 231.241, 223.776 232.837, 222.958 241.736, 218.396 244.254, 217.106 244.104, 216.331 243.750, 214.506 243.555, 213.502 240.742, 214.932 236.100, 217.290 233.953, 218.381 234.920, 219.004 236.673, 220.133 243.501, 216.640 244.104, 216.331 251.671, 212.460 255.136, 210.687 255.720, 210.388 261.323, 207.522 267.417, 204.404 267.993, 204.109 270.019, 203.072 " fill="none" stroke="rgb(0, 119, 0)" stroke-linecap="butt" stroke-linejoin="round" stroke-opacity="1.0" stroke-width="3.0" />
            <path d=" M 184.634, 229.989 186.033, 229.298 194.999, 224.870 203.965, 220.443 210.965, 216.986 219.191, 222.672 221.519, 224.280 " fill="none" stroke="rgb(0, 119, 0)" stroke-linecap="butt" stroke-linejoin="round" stroke-opacity="1.0" stroke-width="3.0" />
            <path d=" M 218.519, 210.458 226.900, 215.913 227.686, 216.425 231.763, 219.079 232.081, 219.286 " fill="none" stroke="rgb(0, 119, 0)" stroke-linecap="butt" stroke-linejoin="round" stroke-opacity="1.0" stroke-width="3.0" />
            <path d=" M 218.519, 210.458 218.666, 211.135 218.888, 212.158 221.009, 221.931 221.519, 224.280 224.347, 222.844 227.469, 221.259 231.240, 219.345 231.763, 219.079 232.274, 218.820 233.877, 218.006 236.025, 216.916 236.769, 216.538 235.915, 212.291 235.836, 211.894 235.127, 208.368 234.815, 206.814 233.744, 201.485 233.331, 199.427 230.742, 200.686 230.380, 200.862 228.745, 201.658 226.169, 202.911 226.600, 204.979 226.886, 206.352 223.379, 208.073 218.519, 210.458 " fill="none" stroke="rgb(0, 119, 0)" stroke-linecap="butt" stroke-linejoin="round" stroke-opacity="1.0" stroke-width="3.0" />
            <path d=" M 333.497, 179.165 330.911, 178.155 321.595, 174.518 313.302, 171.280 311.015, 172.423 " fill="none" stroke="rgb(0, 119, 0)" stroke-linecap="butt" stroke-linejoin="round" stroke-opacity="1.0" stroke-width="3.0" />
            <path d=" M 285.184, 227.187 288.700, 225.256 297.464, 220.440 306.228, 215.624 314.992, 210.808 317.953, 209.181 " fill="none" stroke="rgb(0, 119, 0)" stroke-linecap="butt" stroke-linejoin="round" stroke-opacity="1.0" stroke-width="3.0" />
            <path d=" M 313.302, 171.280 313.566, 173.433 314.784, 183.358 316.002, 193.284 317.220, 203.209 317.953, 209.181 326.959, 213.527 335.965, 217.873 344.972, 222.219 350.554, 224.912 " fill="none" stroke="rgb(0, 119, 0)" stroke-linecap="butt" stroke-linejoin="round" stroke-opacity="1.0" stroke-width="3.0" />
            <path d=" M 284.101, 220.256 284.768, 224.526 285.184, 227.187 289.363, 229.597 " fill="none" stroke="rgb(0, 119, 0)" stroke-linecap="butt" stroke-linejoin="round" stroke-opacity="1.0" stroke-width="3.0" />
            <path d=" M 172.358, 89.309 181.826, 86.089 191.293, 82.870 200.761, 79.650 202.534, 79.047 202.815, 78.952 " fill="none" stroke="rgb(0, 119, 0)" stroke-linecap="butt" stroke-linejoin="round" stroke-opacity="1.0" stroke-width="3.0" />
            <path d=" M 202.815, 78.952 202.500, 78.885 197.298, 77.778 190.777, 76.391 186.426, 75.465 176.931, 78.603 167.436, 81.740 165.890, 82.251 157.321, 85.082 157.729, 86.742 159.137, 92.472 161.065, 100.315 161.669, 102.771 163.000, 108.186 163.982, 112.182 164.191, 113.029 164.741, 115.267 164.765, 115.367 164.978, 116.232 165.096, 116.712 173.051, 119.928 180.196, 122.817 180.786, 122.593 181.979, 122.142 184.802, 121.074 186.384, 120.476 195.737, 116.938 205.090, 113.400 209.570, 111.705 207.550, 101.911 207.510, 101.719 207.140, 99.923 206.954, 99.018 206.915, 98.830 204.895, 89.036 204.625, 87.726 204.123, 85.292 202.815, 78.952 " fill="none" stroke="rgb(0, 119, 0)" stroke-linecap="butt" stroke-linejoin="round" stroke-opacity="1.0" stroke-width="3.0" />
            <path d=" M 157.321, 85.082 166.948, 87.788 172.358, 89.309 173.890, 95.858 174.459, 98.291 176.737, 108.028 179.015, 117.765 179.285, 118.921 180.077, 122.308 180.196, 122.817 " fill="none" stroke="rgb(0, 119, 0)" stroke-linecap="butt" stroke-linejoin="round" stroke-opacity="1.0" stroke-width="3.0" />
            <path d=" M 186.426, 75.465 188.569, 85.233 189.682, 90.309 190.222, 92.770 192.365, 102.538 193.217, 106.421 " fill="none" stroke="rgb(0, 119, 0)" stroke-linecap="butt" stroke-linejoin="round" stroke-opacity="1.0" stroke-width="3.0" />
            <path d=" M 209.570, 111.705 200.055, 108.630 193.217, 106.421 183.826, 109.857 182.295, 110.418 181.572, 110.682 172.181, 114.119 169.499, 115.101 165.660, 116.506 165.096, 116.712 " fill="none" stroke="rgb(0, 119, 0)" stroke-linecap="butt" stroke-linejoin="round" stroke-opacity="1.0" stroke-width="3.0" />
            <path d=" M 184.903, 141.055 192.907, 137.857 202.193, 134.147 211.479, 130.437 220.765, 126.727 224.410, 125.270 " fill="none" stroke="rgb(0, 119, 0)" stroke-linecap="butt" stroke-linejoin="round" stroke-opacity="1.0" stroke-width="3.0" />
            <path d=" M 164.326, 131.438 173.385, 135.672 179.239, 138.408 184.903, 141.055 187.177, 150.793 188.094, 154.719 188.946, 158.367 189.643, 161.354 191.917, 171.092 192.498, 173.580 193.262, 176.851 " fill="none" stroke="rgb(0, 119, 0)" stroke-linecap="butt" stroke-linejoin="round" stroke-opacity="1.0" stroke-width="3.0" />
            <path d=" M 201.612, 117.232 203.706, 127.011 205.517, 135.469 207.611, 145.247 209.705, 155.025 209.804, 155.487 " fill="none" stroke="rgb(0, 119, 0)" stroke-linecap="butt" stroke-linejoin="round" stroke-opacity="1.0" stroke-width="3.0" />
            <path d=" M 223.843, 162.186 214.818, 157.880 209.804, 155.487 205.553, 157.298 " fill="none" stroke="rgb(0, 119, 0)" stroke-linecap="butt" stroke-linejoin="round" stroke-opacity="1.0" stroke-width="3.0" />
            <path d=" M 173.501, 168.186 176.948, 166.727 182.011, 164.584 185.153, 163.255 189.643, 161.354 189.657, 161.349 191.288, 160.658 197.464, 158.044 198.532, 157.593 205.018, 154.847 197.050, 150.998 195.974, 151.445 189.751, 154.031 188.094, 154.719 184.695, 156.131 183.569, 156.599 180.403, 157.914 176.432, 159.564 175.300, 160.034 176.746, 160.846 176.432, 159.564 175.080, 154.048 169.178, 150.873 " fill="none" stroke="rgb(0, 119, 0)" stroke-linecap="butt" stroke-linejoin="round" stroke-opacity="1.0" stroke-width="3.0" />
            <path d=" M 219.449, 164.120 210.473, 159.714 205.553, 157.298 205.018, 154.847 " fill="none" stroke="rgb(0, 119, 0)" stroke-linecap="butt" stroke-linejoin="round" stroke-opacity="1.0" stroke-width="3.0" />
            <path d=" M 169.761, 181.960 172.524, 180.756 173.111, 180.500 174.589, 179.856 179.213, 177.840 179.639, 177.654 184.637, 175.475 185.241, 175.212 184.381, 171.640 183.776, 171.902 181.414, 172.922 178.756, 174.069 175.452, 175.496 173.685, 176.259 172.200, 176.900 " fill="none" stroke="rgb(0, 119, 0)" stroke-linecap="butt" stroke-linejoin="round" stroke-opacity="1.0" stroke-width="3.0" />
            <path d=" M 184.381, 171.640 187.598, 173.527 189.743, 174.786 192.976, 176.683 193.262, 176.851 193.275, 176.845 194.877, 176.138 204.025, 172.099 209.528, 169.670 " fill="none" stroke="rgb(0, 119, 0)" stroke-linecap="butt" stroke-linejoin="round" stroke-opacity="1.0" stroke-width="3.0" />
            <path d=" M 221.447, 150.366 223.434, 160.167 223.843, 162.186 219.449, 164.120 221.477, 173.913 223.505, 183.705 225.533, 193.497 225.857, 195.065 " fill="none" stroke="rgb(0, 119, 0)" stroke-linecap="butt" stroke-linejoin="round" stroke-opacity="1.0" stroke-width="3.0" />
            <path d=" M 188.071, 175.517 189.743, 174.786 192.273, 173.678 192.498, 173.580 192.511, 173.574 194.120, 172.870 200.210, 170.205 198.008, 160.451 197.464, 158.044 195.974, 151.445 194.852, 146.473 193.463, 140.319 192.907, 137.857 191.915, 133.464 189.759, 123.918 189.327, 122.000 " fill="none" stroke="rgb(0, 119, 0)" stroke-linecap="butt" stroke-linejoin="round" stroke-opacity="1.0" stroke-width="3.0" />
            <path d=" M 96.909, 191.744 97.114, 192.372 100.217, 201.878 103.320, 211.384 106.424, 220.891 107.130, 223.054 113.787, 230.516 115.371, 232.291 112.311, 222.770 111.737, 220.983 108.677, 211.463 105.617, 201.942 105.139, 200.454 103.837, 196.402 113.050, 192.514 122.263, 188.626 124.143, 187.833 126.049, 187.029 128.544, 185.976 132.159, 184.450 130.254, 177.919 " fill="none" stroke="rgb(0, 119, 0)" stroke-linecap="butt" stroke-linejoin="round" stroke-opacity="1.0" stroke-width="3.0" />
            <path d=" M 149.143, 204.602 158.263, 200.499 160.393, 199.540 " fill="none" stroke="rgb(0, 119, 0)" stroke-linecap="butt" stroke-linejoin="round" stroke-opacity="1.0" stroke-width="3.0" />
            <path d=" M 164.530, 202.708 160.393, 199.540 162.993, 209.196 165.639, 219.019 " fill="none" stroke="rgb(0, 119, 0)" stroke-linecap="butt" stroke-linejoin="round" stroke-opacity="1.0" stroke-width="3.0" />
            <path d=" M 152.148, 215.290 149.441, 205.663 149.143, 204.602 141.437, 198.228 139.679, 196.774 " fill="none" stroke="rgb(0, 119, 0)" stroke-linecap="butt" stroke-linejoin="round" stroke-opacity="1.0" stroke-width="3.0" />
            <path d=" M 115.371, 232.291 124.448, 228.095 133.525, 223.899 142.602, 219.703 146.668, 217.823 152.148, 215.290 144.579, 208.755 142.649, 207.088 " fill="none" stroke="rgb(0, 119, 0)" stroke-linecap="butt" stroke-linejoin="round" stroke-opacity="1.0" stroke-width="3.0" />
            <path d=" M 186.178, 236.073 178.484, 229.685 170.791, 223.297 166.300, 219.568 165.639, 219.019 156.598, 223.292 154.091, 224.477 145.050, 228.750 136.009, 233.023 126.968, 237.296 117.927, 241.569 113.532, 243.647 " fill="none" stroke="rgb(0, 119, 0)" stroke-linecap="butt" stroke-linejoin="round" stroke-opacity="1.0" stroke-width="3.0" />
            <path d=" M 168.253, 216.692 169.771, 217.924 177.535, 224.227 184.634, 229.989 186.178, 236.073 177.238, 240.553 174.941, 241.704 " fill="none" stroke="rgb(0, 119, 0)" stroke-linecap="butt" stroke-linejoin="round" stroke-opacity="1.0" stroke-width="3.0" />
            <path d=" M 183.663, 194.000 177.261, 196.914 168.160, 201.056 164.530, 202.708 167.103, 212.372 168.253, 216.692 177.298, 212.427 180.770, 210.790 189.815, 206.525 198.860, 202.260 199.175, 202.112 207.639, 198.121 " fill="none" stroke="rgb(0, 119, 0)" stroke-linecap="butt" stroke-linejoin="round" stroke-opacity="1.0" stroke-width="3.0" />
            <path d=" M 225.412, 107.588 230.527, 105.643 234.746, 104.038 235.764, 103.651 240.817, 101.729 246.512, 99.563 252.633, 97.235 260.729, 94.155 " fill="none" stroke="rgb(0, 119, 0)" stroke-linecap="butt" stroke-linejoin="round" stroke-opacity="1.0" stroke-width="3.0" />
            <path d=" M 253.983, 51.855 254.535, 55.319 256.110, 65.194 257.098, 71.389 258.673, 81.264 260.248, 91.139 260.729, 94.155 263.319, 94.728 273.083, 96.889 282.847, 99.051 288.761, 100.359 " fill="none" stroke="rgb(0, 119, 0)" stroke-linecap="butt" stroke-linejoin="round" stroke-opacity="1.0" stroke-width="3.0" />
            <path d=" M 278.198, 54.201 268.245, 53.237 258.292, 52.273 253.983, 51.855 246.178, 54.422 254.535, 55.319 264.478, 56.385 274.314, 57.441 275.390, 64.939 275.672, 66.906 276.750, 74.424 278.170, 84.323 278.474, 86.444 278.813, 88.808 269.471, 92.377 264.717, 94.194 263.319, 94.728 255.185, 97.837 249.033, 100.188 246.512, 99.563 240.152, 97.985 234.998, 96.707 234.475, 96.577 233.326, 96.292 226.758, 94.663 222.742, 93.667 223.184, 95.973 224.726, 104.013 224.762, 104.199 225.412, 107.588 229.355, 108.740 233.742, 110.023 242.759, 112.659 245.479, 113.454 246.163, 113.654 251.598, 115.243 259.896, 111.919 264.902, 109.914 265.500, 109.675 274.399, 106.111 283.665, 102.400 287.553, 100.843 288.761, 100.359 288.647, 99.524 287.296, 89.616 286.673, 85.040 285.318, 75.103 283.968, 65.195 283.607, 62.548 283.541, 62.065 " fill="none" stroke="rgb(0, 119, 0)" stroke-linecap="butt" stroke-linejoin="round" stroke-opacity="1.0" stroke-width="3.0" />
            <path d=" M 249.033, 100.188 249.450, 102.634 251.129, 112.492 251.598, 115.243 " fill="none" stroke="rgb(0, 119, 0)" stroke-linecap="butt" stroke-linejoin="round" stroke-opacity="1.0" stroke-width="3.0" />
            <path d=" M 189.639, 1.689 191.638, 11.487 193.637, 21.285 194.747, 26.726 196.747, 36.524 196.938, 37.460 198.937, 47.258 199.064, 47.879 " fill="none" stroke="rgb(0, 119, 0)" stroke-linecap="butt" stroke-linejoin="round" stroke-opacity="1.0" stroke-width="3.0" />
            <path d=" M 214.558, 49.457 204.609, 48.444 204.483, 48.431 199.064, 47.879 198.465, 48.062 188.901, 50.981 179.336, 53.900 169.771, 56.819 160.207, 59.738 159.312, 60.011 " fill="none" stroke="rgb(0, 119, 0)" stroke-linecap="butt" stroke-linejoin="round" stroke-opacity="1.0" stroke-width="3.0" />
            <path d=" M 151.252, 26.291 151.873, 28.892 152.573, 31.817 154.478, 39.787 156.230, 47.116 156.432, 47.960 158.757, 57.686 159.312, 60.011 160.652, 60.240 170.508, 61.927 180.365, 63.615 180.847, 63.697 187.577, 61.570 193.490, 59.702 198.230, 58.204 199.628, 57.762 200.399, 57.518 205.754, 55.826 199.900, 55.078 199.055, 54.970 197.522, 54.774 198.230, 58.204 200.252, 67.997 202.274, 77.791 202.500, 78.885 202.534, 79.047 203.843, 85.389 204.346, 87.823 206.368, 97.617 206.639, 98.930 206.954, 99.018 208.166, 99.359 211.439, 100.279 221.066, 102.984 224.726, 104.013 230.527, 105.643 235.284, 106.980 236.430, 107.302 236.951, 107.448 241.521, 105.688 249.450, 102.634 258.782, 99.040 259.351, 98.822 262.291, 97.689 265.094, 96.610 262.010, 95.913 262.291, 97.689 262.592, 99.587 263.652, 106.264 264.136, 109.315 265.500, 109.675 275.169, 112.227 275.318, 112.266 281.783, 113.973 285.431, 114.936 288.193, 115.664 287.542, 110.972 286.987, 106.965 284.454, 107.997 281.118, 109.356 281.783, 113.973 281.845, 114.406 282.205, 116.902 283.630, 126.799 283.672, 127.096 285.097, 136.994 286.522, 146.892 287.947, 156.790 288.066, 157.613 288.362, 159.672 288.836, 162.965 288.874, 163.232 288.940, 163.687 289.267, 163.817 292.724, 165.185 297.694, 167.151 302.704, 169.134 " fill="none" stroke="rgb(0, 119, 0)" stroke-linecap="butt" stroke-linejoin="round" stroke-opacity="1.0" stroke-width="3.0" />
            <path d=" M 212.764, 40.095 214.558, 49.457 209.907, 50.908 205.266, 52.357 203.526, 52.900 199.699, 54.094 197.522, 54.774 " fill="none" stroke="rgb(0, 119, 0)" stroke-linecap="butt" stroke-linejoin="round" stroke-opacity="1.0" stroke-width="3.0" />
            <path d=" M 203.800, 46.048 203.995, 45.988 213.560, 43.073 215.902, 42.359 " fill="none" stroke="rgb(0, 119, 0)" stroke-linecap="butt" stroke-linejoin="round" stroke-opacity="1.0" stroke-width="3.0" />
            <path d=" M 205.754, 55.826 205.209, 53.099 204.657, 50.338 203.800, 46.048 204.011, 46.068 213.967, 46.998 216.831, 47.266 " fill="none" stroke="rgb(0, 119, 0)" stroke-linecap="butt" stroke-linejoin="round" stroke-opacity="1.0" stroke-width="3.0" />
            <path d=" M 220.804, 37.673 215.327, 39.323 212.764, 40.095 215.509, 40.287 221.362, 40.695 " fill="none" stroke="rgb(0, 119, 0)" stroke-linecap="butt" stroke-linejoin="round" stroke-opacity="1.0" stroke-width="3.0" />
            <path d=" M 200.210, 170.205 192.526, 165.998 190.481, 164.878 190.177, 164.712 " fill="none" stroke="rgb(0, 119, 0)" stroke-linecap="butt" stroke-linejoin="round" stroke-opacity="1.0" stroke-width="3.0" />
            <path d=" M 182.801, 167.862 183.776, 171.902 184.461, 174.746 184.637, 175.475 185.579, 179.382 194.102, 184.613 194.951, 185.134 193.449, 178.707 192.976, 176.683 192.857, 176.176 192.273, 173.678 190.177, 164.712 185.931, 166.525 " fill="none" stroke="rgb(0, 119, 0)" stroke-linecap="butt" stroke-linejoin="round" stroke-opacity="1.0" stroke-width="3.0" />
            <path d=" M 194.951, 185.134 195.186, 185.028 196.773, 184.313 205.888, 180.200 215.004, 176.088 224.119, 171.976 229.720, 169.449 " fill="none" stroke="rgb(0, 119, 0)" stroke-linecap="butt" stroke-linejoin="round" stroke-opacity="1.0" stroke-width="3.0" />
            <path d=" M 259.989, 184.337 251.016, 179.923 242.042, 175.510 233.069, 171.096 229.720, 169.449 229.819, 169.950 " fill="none" stroke="rgb(0, 119, 0)" stroke-linecap="butt" stroke-linejoin="round" stroke-opacity="1.0" stroke-width="3.0" />
            <path d=" M 231.784, 205.803 231.162, 202.748 230.742, 200.686 230.102, 197.542 229.949, 196.791 229.266, 193.436 227.271, 183.637 225.276, 173.838 225.061, 172.778 224.934, 172.157 229.819, 169.950 230.534, 170.302 232.143, 171.096 234.074, 180.908 235.915, 190.261 236.572, 193.601 237.739, 199.531 238.785, 204.847 234.815, 206.814 234.062, 207.187 231.784, 205.803 " fill="none" stroke="rgb(0, 119, 0)" stroke-linecap="butt" stroke-linejoin="round" stroke-opacity="1.0" stroke-width="3.0" />
            <path d=" M 231.784, 205.803 222.814, 210.224 219.654, 211.781 218.888, 212.158 209.918, 216.579 200.948, 220.999 191.978, 225.420 185.302, 228.710 " fill="none" stroke="rgb(0, 119, 0)" stroke-linecap="butt" stroke-linejoin="round" stroke-opacity="1.0" stroke-width="3.0" />
            <path d=" M 238.785, 204.847 244.276, 208.091 249.864, 211.392 251.671, 212.460 260.281, 217.546 268.890, 222.633 273.769, 225.515 " fill="none" stroke="rgb(0, 119, 0)" stroke-linecap="butt" stroke-linejoin="round" stroke-opacity="1.0" stroke-width="3.0" />
            <path d=" M 269.720, 201.279 268.787, 195.700 267.139, 185.836 267.078, 185.469 267.034, 185.204 264.966, 186.216 255.983, 190.609 251.551, 192.776 248.811, 194.116 246.191, 195.398 237.739, 199.531 233.744, 201.485 231.162, 202.748 230.801, 202.924 229.169, 203.722 228.244, 204.175 226.600, 204.979 222.025, 207.216 216.673, 209.834 " fill="none" stroke="rgb(0, 119, 0)" stroke-linecap="butt" stroke-linejoin="round" stroke-opacity="1.0" stroke-width="3.0" />
            <path d=" M 97.902, 74.045 99.059, 77.989 100.688, 83.543 103.503, 93.138 106.318, 102.734 107.601, 107.106 108.104, 108.821 110.919, 118.417 112.729, 124.584 " fill="none" stroke="rgb(0, 119, 0)" stroke-linecap="butt" stroke-linejoin="round" stroke-opacity="1.0" stroke-width="3.0" />
            <path d=" M 132.110, 135.434 123.384, 130.549 114.658, 125.665 112.729, 124.584 105.255, 127.236 95.831, 130.580 86.407, 133.925 76.983, 137.269 67.558, 140.613 61.952, 142.602 " fill="none" stroke="rgb(0, 119, 0)" stroke-linecap="butt" stroke-linejoin="round" stroke-opacity="1.0" stroke-width="3.0" />
            <path d=" M 163.749, 115.737 164.978, 116.232 165.660, 116.506 172.932, 119.433 180.077, 122.308 180.786, 122.593 183.462, 123.670 184.071, 123.915 184.183, 123.960 186.849, 125.033 186.410, 123.112 186.391, 123.031 186.056, 121.564 184.802, 121.074 179.285, 118.921 172.141, 116.133 169.499, 115.101 167.565, 114.347 164.191, 113.029 162.962, 112.550 163.512, 114.778 163.749, 115.737 " fill="none" stroke="rgb(0, 119, 0)" stroke-linecap="butt" stroke-linejoin="round" stroke-opacity="1.0" stroke-width="3.0" />
            <path d=" M 163.749, 115.737 164.765, 115.367 167.565, 114.347 176.961, 110.922 180.692, 109.562 181.990, 109.089 191.385, 105.665 200.780, 102.241 207.140, 99.923 208.202, 99.536 " fill="none" stroke="rgb(0, 119, 0)" stroke-linecap="butt" stroke-linejoin="round" stroke-opacity="1.0" stroke-width="3.0" />
            <path d=" M 197.955, 49.610 198.509, 52.307 199.055, 54.970 199.628, 57.762 201.639, 67.558 203.649, 77.353 205.202, 84.917 205.701, 87.349 207.711, 97.145 208.166, 99.359 208.202, 99.536 217.828, 102.247 224.762, 104.199 234.388, 106.910 235.320, 107.172 236.465, 107.495 " fill="none" stroke="rgb(0, 119, 0)" stroke-linecap="butt" stroke-linejoin="round" stroke-opacity="1.0" stroke-width="3.0" />
            <path d=" M 232.633, 92.510 233.326, 96.292 234.746, 104.038 235.284, 106.980 235.320, 107.172 235.450, 107.885 236.465, 107.495 236.430, 107.302 235.764, 103.651 234.475, 96.577 233.783, 92.781 " fill="none" stroke="rgb(0, 119, 0)" stroke-linecap="butt" stroke-linejoin="round" stroke-opacity="1.0" stroke-width="3.0" />
            <path d=" M 233.230, 107.255 229.355, 108.740 220.017, 112.320 210.679, 115.899 204.523, 118.259 195.185, 121.838 189.759, 123.918 186.849, 125.033 " fill="none" stroke="rgb(0, 119, 0)" stroke-linecap="butt" stroke-linejoin="round" stroke-opacity="1.0" stroke-width="3.0" />
            <path d=" M 235.450, 107.885 233.230, 107.255 233.742, 110.023 235.561, 119.856 237.380, 129.689 237.534, 130.518 239.353, 140.351 239.763, 142.564 241.582, 152.397 241.978, 154.536 " fill="none" stroke="rgb(0, 119, 0)" stroke-linecap="butt" stroke-linejoin="round" stroke-opacity="1.0" stroke-width="3.0" />
            <path d=" M 192.255, 193.618 196.714, 191.572 202.617, 188.863 211.705, 184.692 220.794, 180.521 225.766, 178.239 " fill="none" stroke="rgb(0, 119, 0)" stroke-linecap="butt" stroke-linejoin="round" stroke-opacity="1.0" stroke-width="3.0" />
            <path d=" M 233.953, 218.381 233.877, 218.006 233.009, 213.751 231.011, 203.953 230.801, 202.924 230.380, 200.862 229.586, 196.966 227.587, 187.168 225.766, 178.239 216.922, 173.572 209.528, 169.670 208.221, 163.653 " fill="none" stroke="rgb(0, 119, 0)" stroke-linecap="butt" stroke-linejoin="round" stroke-opacity="1.0" stroke-width="3.0" />
            <path d=" M 173.304, 181.264 181.681, 186.725 190.058, 192.186 192.255, 193.618 194.571, 203.346 195.178, 205.893 197.494, 215.621 199.811, 225.349 202.005, 234.566 202.896, 238.306 " fill="none" stroke="rgb(0, 119, 0)" stroke-linecap="butt" stroke-linejoin="round" stroke-opacity="1.0" stroke-width="3.0" />
            <path d=" M 290.155, 59.733 290.298, 60.828 291.592, 70.743 292.887, 80.659 294.181, 90.575 295.476, 100.491 296.425, 107.762 " fill="none" stroke="rgb(0, 119, 0)" stroke-linecap="butt" stroke-linejoin="round" stroke-opacity="1.0" stroke-width="3.0" />
            <path d=" M 288.234, 111.146 296.425, 107.762 303.228, 109.372 312.959, 111.676 322.690, 113.980 328.024, 115.243 333.319, 116.496 334.309, 126.447 334.741, 130.795 329.874, 133.044 326.250, 134.719 316.636, 131.966 307.023, 129.212 297.410, 126.458 290.057, 124.352 288.821, 115.401 288.234, 111.146 " fill="none" stroke="rgb(0, 119, 0)" stroke-linecap="butt" stroke-linejoin="round" stroke-opacity="1.0" stroke-width="3.0" />
            <path d=" M 290.057, 124.352 287.154, 125.599 283.672, 127.096 277.903, 129.575 268.716, 133.524 263.757, 135.655 255.050, 139.397 248.043, 142.408 " fill="none" stroke="rgb(0, 119, 0)" stroke-linecap="butt" stroke-linejoin="round" stroke-opacity="1.0" stroke-width="3.0" />
            <path d=" M 239.467, 94.124 240.152, 97.985 240.817, 101.729 241.521, 105.688 242.759, 112.659 243.069, 114.407 243.148, 114.849 244.897, 124.695 246.181, 131.922 246.496, 133.696 247.536, 139.553 248.043, 142.408 256.088, 145.464 265.436, 149.016 265.963, 149.216 275.312, 152.768 281.731, 155.207 288.066, 157.613 291.636, 158.970 291.836, 158.875 " fill="none" stroke="rgb(0, 119, 0)" stroke-linecap="butt" stroke-linejoin="round" stroke-opacity="1.0" stroke-width="3.0" />
            <path d=" M 334.741, 130.795 344.394, 133.410 345.277, 133.649 " fill="none" stroke="rgb(0, 119, 0)" stroke-linecap="butt" stroke-linejoin="round" stroke-opacity="1.0" stroke-width="3.0" />
            <path d=" M 176.746, 160.846 172.147, 162.764 " fill="none" stroke="rgb(0, 119, 0)" stroke-linecap="butt" stroke-linejoin="round" stroke-opacity="1.0" stroke-width="3.0" />
            <path d=" M 236.769, 216.538 232.648, 213.933 224.195, 208.589 223.379, 208.073 222.025, 207.216 213.572, 201.872 207.639, 198.121 206.026, 190.944 203.834, 181.187 201.641, 171.430 199.449, 161.673 198.532, 157.593 197.050, 150.998 " fill="none" stroke="rgb(0, 119, 0)" stroke-linecap="butt" stroke-linejoin="round" stroke-opacity="1.0" stroke-width="3.0" />
            <path d=" M 248.364, 184.314 247.539, 184.708 247.104, 184.916 238.081, 189.226 235.915, 190.261 229.266, 193.436 225.857, 195.065 229.328, 197.091 230.102, 197.542 233.331, 199.427 " fill="none" stroke="rgb(0, 119, 0)" stroke-linecap="butt" stroke-linejoin="round" stroke-opacity="1.0" stroke-width="3.0" />
            <path d=" M 159.524, 145.680 155.620, 143.579 146.303, 147.213 136.987, 150.847 130.553, 153.357 127.975, 154.363 " fill="none" stroke="rgb(0, 119, 0)" stroke-linecap="butt" stroke-linejoin="round" stroke-opacity="1.0" stroke-width="3.0" />
            <path d=" M 155.620, 143.579 156.478, 146.879 157.271, 149.929 159.789, 159.607 161.489, 166.143 " fill="none" stroke="rgb(0, 119, 0)" stroke-linecap="butt" stroke-linejoin="round" stroke-opacity="1.0" stroke-width="3.0" />
            <path d=" M 142.727, 191.680 133.554, 195.660 131.649, 196.486 129.185, 197.555 127.305, 198.371 " fill="none" stroke="rgb(0, 119, 0)" stroke-linecap="butt" stroke-linejoin="round" stroke-opacity="1.0" stroke-width="3.0" />
            <path d=" M 121.208, 178.047 122.174, 181.269 124.143, 187.833 127.017, 197.411 127.305, 198.371 130.190, 200.927 129.185, 197.555 126.329, 187.971 126.049, 187.029 124.095, 180.472 123.136, 177.254 " fill="none" stroke="rgb(0, 119, 0)" stroke-linecap="butt" stroke-linejoin="round" stroke-opacity="1.0" stroke-width="3.0" />
            <path d=" M 169.185, 184.225 175.055, 188.188 183.343, 193.784 183.663, 194.000 181.272, 184.290 179.639, 177.654 178.756, 174.069 177.758, 170.015 176.948, 166.727 175.300, 160.034 " fill="none" stroke="rgb(0, 119, 0)" stroke-linecap="butt" stroke-linejoin="round" stroke-opacity="1.0" stroke-width="3.0" />
            <path d=" M 107.130, 223.054 111.737, 220.983 120.858, 216.883 129.979, 212.784 137.349, 209.471 142.649, 207.088 139.882, 197.479 139.679, 196.774 132.643, 199.853 130.190, 200.927 " fill="none" stroke="rgb(0, 119, 0)" stroke-linecap="butt" stroke-linejoin="round" stroke-opacity="1.0" stroke-width="3.0" />
            <path d=" M 185.579, 179.382 192.857, 176.176 193.095, 176.071 194.698, 175.365 203.849, 171.333 213.001, 167.302 222.152, 163.270 231.303, 159.239 240.455, 155.207 241.978, 154.536 251.179, 158.452 256.445, 160.693 258.505, 161.570 258.867, 161.724 268.068, 165.640 268.677, 165.899 272.536, 167.541 281.738, 171.457 284.323, 172.558 " fill="none" stroke="rgb(0, 119, 0)" stroke-linecap="butt" stroke-linejoin="round" stroke-opacity="1.0" stroke-width="3.0" />
            <path d=" M 259.330, 108.437 259.896, 111.919 261.502, 121.789 262.072, 125.296 263.678, 135.166 263.757, 135.655 265.363, 145.525 265.963, 149.216 266.455, 152.240 266.951, 155.286 267.046, 155.870 267.318, 157.542 268.677, 165.899 269.725, 172.339 270.373, 176.323 270.375, 176.336 263.827, 179.483 259.507, 181.560 259.989, 184.337 262.616, 183.065 264.295, 182.252 272.531, 178.266 273.545, 177.775 273.559, 177.768 274.123, 177.495 277.756, 175.736 284.323, 172.558 283.324, 165.871 282.518, 160.477 282.034, 157.234 281.731, 155.207 280.254, 145.316 278.777, 135.426 277.903, 129.575 276.426, 119.685 276.373, 119.333 275.382, 112.693 " fill="none" stroke="rgb(0, 119, 0)" stroke-linecap="butt" stroke-linejoin="round" stroke-opacity="1.0" stroke-width="3.0" />
            <path d=" M 140.865, 116.073 145.146, 117.986 144.318, 114.843 141.770, 105.173 140.860, 101.720 136.605, 100.103 137.356, 102.918 139.933, 112.580 140.865, 116.073 " fill="none" stroke="rgb(0, 119, 0)" stroke-linecap="butt" stroke-linejoin="round" stroke-opacity="1.0" stroke-width="3.0" />
            <path d=" M 140.865, 116.073 144.318, 114.843 153.737, 111.487 163.000, 108.186 172.420, 104.829 179.054, 102.465 180.362, 101.999 189.781, 98.643 195.167, 96.724 " fill="none" stroke="rgb(0, 119, 0)" stroke-linecap="butt" stroke-linejoin="round" stroke-opacity="1.0" stroke-width="3.0" />
            <path d=" M 182.167, 36.512 183.497, 42.674 185.608, 52.448 187.577, 61.570 189.687, 71.345 190.777, 76.391 192.887, 86.166 193.496, 88.984 194.025, 91.438 195.167, 96.724 201.680, 98.579 " fill="none" stroke="rgb(0, 119, 0)" stroke-linecap="butt" stroke-linejoin="round" stroke-opacity="1.0" stroke-width="3.0" />
            <path d=" M 191.764, 51.509 193.490, 59.702 195.551, 69.487 197.298, 77.778 199.239, 86.989 199.753, 89.432 201.680, 98.579 192.274, 101.973 182.867, 105.367 181.268, 105.945 179.965, 106.415 170.559, 109.809 163.982, 112.182 162.962, 112.550 " fill="none" stroke="rgb(0, 119, 0)" stroke-linecap="butt" stroke-linejoin="round" stroke-opacity="1.0" stroke-width="3.0" />
            <path d=" M 186.056, 121.564 183.223, 122.638 " fill="none" stroke="rgb(0, 119, 0)" stroke-linecap="butt" stroke-linejoin="round" stroke-opacity="1.0" stroke-width="3.0" />
            <path d=" M 159.030, 112.990 149.620, 116.376 145.146, 117.986 " fill="none" stroke="rgb(0, 119, 0)" stroke-linecap="butt" stroke-linejoin="round" stroke-opacity="1.0" stroke-width="3.0" />
            <path d=" M 185.765, 133.628 183.582, 124.189 183.563, 124.109 183.462, 123.670 183.223, 122.638 181.979, 122.142 172.691, 118.438 164.741, 115.267 163.512, 114.778 159.030, 112.990 161.458, 122.691 161.545, 123.039 " fill="none" stroke="rgb(0, 119, 0)" stroke-linecap="butt" stroke-linejoin="round" stroke-opacity="1.0" stroke-width="3.0" />
            <path d=" M 217.681, 51.753 209.907, 50.908 204.868, 50.361 204.657, 50.338 198.801, 49.702 197.955, 49.610 191.764, 51.509 198.509, 52.307 199.354, 52.407 203.526, 52.900 205.209, 53.099 205.420, 53.124 215.350, 54.299 218.227, 54.639 " fill="none" stroke="rgb(0, 119, 0)" stroke-linecap="butt" stroke-linejoin="round" stroke-opacity="1.0" stroke-width="3.0" />
            <path d=" M 223.503, 252.668 221.344, 242.904 219.185, 233.140 219.039, 232.484 227.136, 238.353 235.232, 244.222 236.900, 245.431 " fill="none" stroke="rgb(0, 119, 0)" stroke-linecap="butt" stroke-linejoin="round" stroke-opacity="1.0" stroke-width="3.0" />
            <path d=" M 219.775, 270.482 228.509, 265.611 237.243, 260.741 245.977, 255.871 254.711, 251.001 261.771, 247.064 " fill="none" stroke="rgb(0, 119, 0)" stroke-linecap="butt" stroke-linejoin="round" stroke-opacity="1.0" stroke-width="3.0" />
            <path d=" M 253.791, 203.311 254.806, 208.875 255.007, 209.976 255.136, 210.687 256.931, 220.525 258.725, 230.362 259.269, 233.348 261.064, 243.185 261.771, 247.064 270.056, 252.665 278.340, 258.266 286.624, 263.867 294.908, 269.468 295.514, 269.878 " fill="none" stroke="rgb(0, 119, 0)" stroke-linecap="butt" stroke-linejoin="round" stroke-opacity="1.0" stroke-width="3.0" />
            <path d=" M 261.256, 72.023 271.138, 73.555 276.750, 74.424 284.079, 75.560 " fill="none" stroke="rgb(0, 119, 0)" stroke-linecap="butt" stroke-linejoin="round" stroke-opacity="1.0" stroke-width="3.0" />
            <path d=" M 288.442, 107.315 287.553, 100.843 286.192, 90.936 284.831, 81.029 284.079, 75.560 285.318, 75.103 294.701, 71.643 304.083, 68.182 313.465, 64.722 316.175, 63.723 " fill="none" stroke="rgb(0, 119, 0)" stroke-linecap="butt" stroke-linejoin="round" stroke-opacity="1.0" stroke-width="3.0" />
            <path d=" M 341.705, 94.140 331.860, 92.386 325.531, 91.258 319.456, 93.734 318.030, 94.315 319.551, 94.603 319.456, 93.734 318.369, 83.793 317.282, 73.852 317.232, 73.390 316.175, 63.723 306.237, 62.611 296.299, 61.499 290.298, 60.828 288.915, 60.673 283.607, 62.548 279.565, 63.975 276.556, 65.038 279.771, 65.450 279.565, 63.975 279.497, 63.491 " fill="none" stroke="rgb(0, 119, 0)" stroke-linecap="butt" stroke-linejoin="round" stroke-opacity="1.0" stroke-width="3.0" />
            <path d=" M 279.771, 65.450 275.672, 66.906 266.248, 70.251 261.256, 72.023 262.798, 81.904 264.341, 91.784 264.717, 94.194 265.094, 96.610 " fill="none" stroke="rgb(0, 119, 0)" stroke-linecap="butt" stroke-linejoin="round" stroke-opacity="1.0" stroke-width="3.0" />
            <path d=" M 264.136, 109.315 273.422, 105.605 274.272, 105.266 283.559, 101.556 288.647, 99.524 293.762, 97.481 " fill="none" stroke="rgb(0, 119, 0)" stroke-linecap="butt" stroke-linejoin="round" stroke-opacity="1.0" stroke-width="3.0" />
            <path d=" M 288.915, 60.673 290.220, 70.587 291.526, 80.502 292.832, 90.416 293.762, 97.481 303.547, 99.541 313.333, 101.601 318.967, 102.786 " fill="none" stroke="rgb(0, 119, 0)" stroke-linecap="butt" stroke-linejoin="round" stroke-opacity="1.0" stroke-width="3.0" />
            <path d=" M 318.030, 94.315 318.967, 102.786 309.742, 106.647 303.228, 109.372 294.003, 113.233 288.821, 115.401 288.193, 115.664 " fill="none" stroke="rgb(0, 119, 0)" stroke-linecap="butt" stroke-linejoin="round" stroke-opacity="1.0" stroke-width="3.0" />
            <path d=" M 325.531, 91.258 326.565, 101.205 327.599, 111.151 328.024, 115.243 329.058, 125.189 329.874, 133.044 330.655, 140.551 330.979, 143.670 " fill="none" stroke="rgb(0, 119, 0)" stroke-linecap="butt" stroke-linejoin="round" stroke-opacity="1.0" stroke-width="3.0" />
            <path d=" M 375.456, 157.245 365.892, 154.326 356.327, 151.407 346.763, 148.487 337.198, 145.568 330.979, 143.670 321.950, 147.969 312.922, 152.268 303.893, 156.567 294.864, 160.866 293.343, 161.591 292.289, 162.093 289.229, 163.550 288.940, 163.687 " fill="none" stroke="rgb(0, 119, 0)" stroke-linecap="butt" stroke-linejoin="round" stroke-opacity="1.0" stroke-width="3.0" />
            <path d=" M 326.250, 134.719 327.058, 142.249 " fill="none" stroke="rgb(0, 119, 0)" stroke-linecap="butt" stroke-linejoin="round" stroke-opacity="1.0" stroke-width="3.0" />
            <path d=" M 288.234, 111.146 287.542, 110.972 281.118, 109.356 " fill="none" stroke="rgb(0, 119, 0)" stroke-linecap="butt" stroke-linejoin="round" stroke-opacity="1.0" stroke-width="3.0" />
            <path d=" M 234.062, 207.187 235.168, 212.667 236.025, 216.916 236.100, 217.290 236.304, 218.299 236.673, 220.133 " fill="none" stroke="rgb(0, 119, 0)" stroke-linecap="butt" stroke-linejoin="round" stroke-opacity="1.0" stroke-width="3.0" />
            <path d=" M 270.337, 153.748 266.951, 155.286 258.428, 159.157 249.323, 163.292 240.218, 167.428 232.143, 171.096 " fill="none" stroke="rgb(0, 119, 0)" stroke-linecap="butt" stroke-linejoin="round" stroke-opacity="1.0" stroke-width="3.0" />
            <path d=" M 251.810, 186.071 248.364, 184.314 246.552, 174.480 244.740, 164.645 242.929, 154.811 241.117, 144.976 240.607, 142.205 " fill="none" stroke="rgb(0, 119, 0)" stroke-linecap="butt" stroke-linejoin="round" stroke-opacity="1.0" stroke-width="3.0" />
            <path d=" M 248.220, 166.271 250.004, 176.110 251.810, 186.071 250.980, 186.471 247.687, 188.056 245.049, 189.327 " fill="none" stroke="rgb(0, 119, 0)" stroke-linecap="butt" stroke-linejoin="round" stroke-opacity="1.0" stroke-width="3.0" />
            <path d=" M 103.837, 196.402 98.482, 191.092 " fill="none" stroke="rgb(0, 119, 0)" stroke-linecap="butt" stroke-linejoin="round" stroke-opacity="1.0" stroke-width="3.0" />
            <path d=" M 206.639, 98.930 206.915, 98.830 216.314, 95.416 225.713, 92.003 233.149, 89.302 238.279, 87.439 247.678, 84.025 249.979, 83.190 " fill="none" stroke="rgb(0, 119, 0)" stroke-linecap="butt" stroke-linejoin="round" stroke-opacity="1.0" stroke-width="3.0" />
            <path d=" M 241.339, 31.487 242.987, 41.350 244.635, 51.214 246.284, 61.077 247.932, 70.940 248.513, 74.416 249.979, 83.190 250.995, 83.388 " fill="none" stroke="rgb(0, 119, 0)" stroke-linecap="butt" stroke-linejoin="round" stroke-opacity="1.0" stroke-width="3.0" />
            <path d=" M 246.178, 54.422 247.819, 64.287 249.448, 74.086 250.995, 83.388 241.597, 86.807 238.375, 87.979 233.248, 89.845 223.850, 93.264 222.742, 93.667 " fill="none" stroke="rgb(0, 119, 0)" stroke-linecap="butt" stroke-linejoin="round" stroke-opacity="1.0" stroke-width="3.0" />
            <path d=" M 278.813, 88.808 279.974, 89.034 " fill="none" stroke="rgb(0, 119, 0)" stroke-linecap="butt" stroke-linejoin="round" stroke-opacity="1.0" stroke-width="3.0" />
            <path d=" M 276.556, 65.038 277.966, 74.938 279.376, 84.838 279.974, 89.034 270.635, 92.610 262.010, 95.913 " fill="none" stroke="rgb(0, 119, 0)" stroke-linecap="butt" stroke-linejoin="round" stroke-opacity="1.0" stroke-width="3.0" />
            <path d=" M 212.184, 154.623 221.383, 150.701 221.802, 150.523 228.770, 147.552 237.969, 143.631 240.977, 142.349 247.536, 139.553 254.565, 136.557 " fill="none" stroke="rgb(0, 119, 0)" stroke-linecap="butt" stroke-linejoin="round" stroke-opacity="1.0" stroke-width="3.0" />
            <path d=" M 254.565, 136.557 246.496, 133.696 244.027, 132.820 237.534, 130.518 228.109, 127.176 227.053, 126.802 224.881, 127.676 215.604, 131.409 206.327, 135.143 205.517, 135.469 200.937, 137.312 193.463, 140.319 187.159, 142.856 189.418, 152.597 189.751, 154.031 191.288, 160.658 192.526, 165.998 194.120, 172.870 194.698, 175.365 194.877, 176.138 195.796, 180.100 196.773, 184.313 197.039, 185.459 202.617, 188.863 206.026, 190.944 207.772, 192.009 213.545, 195.532 221.935, 200.652 227.943, 197.758 229.328, 197.091 229.586, 196.966 229.949, 196.791 236.572, 193.601 245.082, 189.501 245.237, 189.426 247.719, 188.231 251.170, 186.568 250.980, 186.471 247.539, 184.708 247.016, 184.441 247.104, 184.916 247.687, 188.056 247.719, 188.231 248.236, 191.017 248.811, 194.116 248.860, 194.384 257.660, 199.136 259.726, 200.251 265.556, 203.399 267.417, 204.404 268.106, 204.776 270.130, 203.738 271.030, 203.277 279.929, 198.717 280.673, 198.336 281.640, 197.840 290.539, 193.279 293.297, 191.866 292.950, 189.447 292.714, 187.808 292.509, 186.381 291.878, 181.987 290.456, 172.088 290.264, 170.758 289.267, 163.817 289.229, 163.550 289.163, 163.094 288.836, 162.965 282.518, 160.477 274.912, 157.481 270.905, 155.903 270.666, 155.809 268.798, 155.073 267.046, 155.870 258.529, 159.745 256.445, 160.693 254.856, 161.416 256.910, 162.299 259.128, 163.252 258.867, 161.724 258.816, 161.428 258.529, 159.745 258.428, 159.157 256.743, 149.300 256.591, 148.411 256.088, 145.464 255.050, 139.397 254.565, 136.557 " fill="none" stroke="rgb(0, 119, 0)" stroke-linecap="butt" stroke-linejoin="round" stroke-opacity="1.0" stroke-width="3.0" />
            <path d=" M 187.159, 142.856 194.852, 146.473 203.901, 150.728 212.184, 154.623 214.257, 164.406 216.329, 174.188 218.402, 183.971 220.474, 193.754 221.935, 200.652 " fill="none" stroke="rgb(0, 119, 0)" stroke-linecap="butt" stroke-linejoin="round" stroke-opacity="1.0" stroke-width="3.0" />
            <path d=" M 227.053, 126.802 228.954, 136.620 230.841, 146.365 232.742, 156.182 234.643, 166.000 235.077, 168.246 " fill="none" stroke="rgb(0, 119, 0)" stroke-linecap="butt" stroke-linejoin="round" stroke-opacity="1.0" stroke-width="3.0" />
            <path d=" M 257.963, 179.218 248.946, 174.895 239.929, 170.572 235.077, 168.246 230.534, 170.302 225.061, 172.778 215.950, 176.901 206.839, 181.024 197.729, 185.146 197.039, 185.459 " fill="none" stroke="rgb(0, 119, 0)" stroke-linecap="butt" stroke-linejoin="round" stroke-opacity="1.0" stroke-width="3.0" />
            <path d=" M 254.856, 161.416 255.151, 163.103 256.347, 169.958 257.963, 179.218 248.938, 183.524 247.016, 184.441 " fill="none" stroke="rgb(0, 119, 0)" stroke-linecap="butt" stroke-linejoin="round" stroke-opacity="1.0" stroke-width="3.0" />
            <path d=" M 247.868, 168.424 250.401, 167.260 259.128, 163.252 " fill="none" stroke="rgb(0, 119, 0)" stroke-linecap="butt" stroke-linejoin="round" stroke-opacity="1.0" stroke-width="3.0" />
            <path d=" M 251.170, 186.568 249.380, 176.730 247.868, 168.424 256.950, 172.610 263.148, 175.467 " fill="none" stroke="rgb(0, 119, 0)" stroke-linecap="butt" stroke-linejoin="round" stroke-opacity="1.0" stroke-width="3.0" />
            <path d=" M 138.370, 74.661 136.336, 74.138 " fill="none" stroke="rgb(0, 119, 0)" stroke-linecap="butt" stroke-linejoin="round" stroke-opacity="1.0" stroke-width="3.0" />
            <path d=" M 131.182, 54.403 133.709, 64.078 136.236, 73.754 136.336, 74.138 132.211, 75.426 " fill="none" stroke="rgb(0, 119, 0)" stroke-linecap="butt" stroke-linejoin="round" stroke-opacity="1.0" stroke-width="3.0" />
            <path d=" M 113.042, 111.228 122.504, 107.994 124.283, 107.386 133.746, 104.152 137.356, 102.918 140.860, 101.720 " fill="none" stroke="rgb(0, 119, 0)" stroke-linecap="butt" stroke-linejoin="round" stroke-opacity="1.0" stroke-width="3.0" />
            <path d=" M 175.515, 137.646 178.755, 136.376 185.765, 133.628 177.211, 129.889 173.105, 128.093 163.942, 124.087 161.545, 123.039 152.170, 126.519 142.795, 129.999 133.420, 133.479 131.739, 134.103 122.364, 137.583 112.989, 141.063 109.771, 142.257 " fill="none" stroke="rgb(0, 119, 0)" stroke-linecap="butt" stroke-linejoin="round" stroke-opacity="1.0" stroke-width="3.0" />
            <path d=" M 177.522, 138.592 175.515, 137.646 175.897, 139.231 " fill="none" stroke="rgb(0, 119, 0)" stroke-linecap="butt" stroke-linejoin="round" stroke-opacity="1.0" stroke-width="3.0" />
            <path d=" M 179.134, 96.654 178.578, 94.229 177.258, 94.688 173.890, 95.858 164.444, 99.140 161.065, 100.315 160.062, 100.663 156.863, 101.775 " fill="none" stroke="rgb(0, 119, 0)" stroke-linecap="butt" stroke-linejoin="round" stroke-opacity="1.0" stroke-width="3.0" />
            <path d=" M 268.106, 204.776 267.993, 204.109 267.689, 202.313 267.508, 201.242 265.840, 191.382 264.966, 186.216 264.295, 182.252 263.827, 179.483 263.148, 175.467 265.754, 174.227 269.725, 172.339 273.049, 170.758 282.080, 166.463 283.324, 165.871 288.874, 163.232 289.163, 163.094 " fill="none" stroke="rgb(0, 119, 0)" stroke-linecap="butt" stroke-linejoin="round" stroke-opacity="1.0" stroke-width="3.0" />
            <path d=" M 248.860, 194.384 251.837, 192.928 260.819, 188.532 267.078, 185.469 273.208, 182.469 " fill="none" stroke="rgb(0, 119, 0)" stroke-linecap="butt" stroke-linejoin="round" stroke-opacity="1.0" stroke-width="3.0" />
            <path d=" M 268.798, 155.073 269.067, 156.743 270.656, 166.616 272.245, 176.489 272.364, 177.226 272.531, 178.266 273.208, 182.469 282.266, 186.706 290.640, 190.623 293.297, 191.866 " fill="none" stroke="rgb(0, 119, 0)" stroke-linecap="butt" stroke-linejoin="round" stroke-opacity="1.0" stroke-width="3.0" />
            <path d=" M 286.987, 106.965 288.442, 107.315 297.699, 103.533 306.956, 99.750 316.213, 95.967 319.551, 94.603 " fill="none" stroke="rgb(0, 119, 0)" stroke-linecap="butt" stroke-linejoin="round" stroke-opacity="1.0" stroke-width="3.0" />
            <path d=" M 177.049, 93.780 178.578, 94.229 " fill="none" stroke="rgb(0, 119, 0)" stroke-linecap="butt" stroke-linejoin="round" stroke-opacity="1.0" stroke-width="3.0" />
            <path d=" M 243.555, 213.502 239.013, 210.735 235.127, 208.368 228.244, 204.175 226.169, 202.911 " fill="none" stroke="rgb(0, 119, 0)" stroke-linecap="butt" stroke-linejoin="round" stroke-opacity="1.0" stroke-width="3.0" />
            <path d=" M 244.254, 217.106 243.501, 216.640 241.723, 215.539 240.742, 214.932 236.226, 212.135 235.836, 211.894 227.333, 206.629 226.886, 206.352 " fill="none" stroke="rgb(0, 119, 0)" stroke-linecap="butt" stroke-linejoin="round" stroke-opacity="1.0" stroke-width="3.0" />
            <path d=" M 181.422, 93.179 181.984, 95.655 " fill="none" stroke="rgb(0, 119, 0)" stroke-linecap="butt" stroke-linejoin="round" stroke-opacity="1.0" stroke-width="3.0" />
            <path d=" M 259.507, 181.560 262.616, 183.065 267.034, 185.204 " fill="none" stroke="rgb(0, 119, 0)" stroke-linecap="butt" stroke-linejoin="round" stroke-opacity="1.0" stroke-width="3.0" />
            <path d=" M 230.065, 154.167 220.892, 158.150 211.720, 162.134 208.221, 163.653 217.134, 168.188 224.934, 172.157 " fill="none" stroke="rgb(0, 119, 0)" stroke-linecap="butt" stroke-linejoin="round" stroke-opacity="1.0" stroke-width="3.0" />
            <path d=" M 295.925, 187.931 292.509, 186.381 287.570, 184.140 278.464, 180.007 273.545, 177.775 270.375, 176.336 " fill="none" stroke="rgb(0, 119, 0)" stroke-linecap="butt" stroke-linejoin="round" stroke-opacity="1.0" stroke-width="3.0" />
            <path d=" M 133.199, 54.740 131.182, 54.403 140.784, 51.609 150.386, 48.816 156.230, 47.116 164.718, 44.646 " fill="none" stroke="rgb(0, 119, 0)" stroke-linecap="butt" stroke-linejoin="round" stroke-opacity="1.0" stroke-width="3.0" />
            <path d=" M 211.826, 85.204 207.328, 84.179 " fill="none" stroke="rgb(0, 119, 0)" stroke-linecap="butt" stroke-linejoin="round" stroke-opacity="1.0" stroke-width="3.0" />
            <path d=" M 197.616, 43.913 203.243, 42.222 " fill="none" stroke="rgb(0, 119, 0)" stroke-linecap="butt" stroke-linejoin="round" stroke-opacity="1.0" stroke-width="3.0" />
            <path d=" M 179.978, 92.766 180.737, 96.092 " fill="none" stroke="rgb(0, 119, 0)" stroke-linecap="butt" stroke-linejoin="round" stroke-opacity="1.0" stroke-width="3.0" />
            <path d=" M 200.939, 60.155 206.471, 58.390 " fill="none" stroke="rgb(0, 119, 0)" stroke-linecap="butt" stroke-linejoin="round" stroke-opacity="1.0" stroke-width="3.0" />
            <path d=" M 97.252, 84.610 99.220, 85.352 93.226, 87.222 " fill="none" stroke="rgb(0, 119, 0)" stroke-linecap="butt" stroke-linejoin="round" stroke-opacity="1.0" stroke-width="3.0" />
            <path d=" M 126.119, 179.633 126.840, 180.208 132.159, 184.450 " fill="none" stroke="rgb(0, 119, 0)" stroke-linecap="butt" stroke-linejoin="round" stroke-opacity="1.0" stroke-width="3.0" />
            <path d=" M 170.445, 155.945 175.080, 154.048 " fill="none" stroke="rgb(0, 119, 0)" stroke-linecap="butt" stroke-linejoin="round" stroke-opacity="1.0" stroke-width="3.0" />
            <path d=" M 174.231, 184.929 177.390, 187.027 175.027, 188.078 " fill="none" stroke="rgb(0, 119, 0)" stroke-linecap="butt" stroke-linejoin="round" stroke-opacity="1.0" stroke-width="3.0" />
            <path d=" M 172.558, 26.339 174.724, 36.101 175.256, 38.500 176.083, 42.224 178.249, 51.987 180.415, 61.749 180.847, 63.697 " fill="none" stroke="rgb(0, 119, 0)" stroke-linecap="butt" stroke-linejoin="round" stroke-opacity="1.0" stroke-width="3.0" />
            <path d=" M 182.191, 109.968 180.895, 110.442 " fill="none" stroke="rgb(0, 119, 0)" stroke-linecap="butt" stroke-linejoin="round" stroke-opacity="1.0" stroke-width="3.0" />
            <path d=" M 177.057, 170.314 181.414, 172.922 184.461, 174.746 185.241, 175.212 " fill="none" stroke="rgb(0, 119, 0)" stroke-linecap="butt" stroke-linejoin="round" stroke-opacity="1.0" stroke-width="3.0" />
            <path d=" M 206.606, 59.064 202.489, 60.381 " fill="none" stroke="rgb(0, 119, 0)" stroke-linecap="butt" stroke-linejoin="round" stroke-opacity="1.0" stroke-width="3.0" />
            <path d=" M 234.307, 92.905 234.998, 96.707 236.787, 106.545 236.951, 107.448 " fill="none" stroke="rgb(0, 119, 0)" stroke-linecap="butt" stroke-linejoin="round" stroke-opacity="1.0" stroke-width="3.0" />
            <path d=" M 272.802, 213.939 273.961, 220.918 " fill="none" stroke="rgb(0, 119, 0)" stroke-linecap="butt" stroke-linejoin="round" stroke-opacity="1.0" stroke-width="3.0" />
            <path d=" M 278.453, 56.020 274.314, 57.441 " fill="none" stroke="rgb(0, 119, 0)" stroke-linecap="butt" stroke-linejoin="round" stroke-opacity="1.0" stroke-width="3.0" />
            <path d=" M 285.493, 115.373 286.889, 125.275 288.284, 135.178 289.679, 145.080 291.075, 154.982 291.636, 158.970 " fill="none" stroke="rgb(0, 119, 0)" stroke-linecap="butt" stroke-linejoin="round" stroke-opacity="1.0" stroke-width="3.0" />
            <path d=" M 343.325, 112.061 334.183, 116.113 333.319, 116.496 " fill="none" stroke="rgb(0, 119, 0)" stroke-linecap="butt" stroke-linejoin="round" stroke-opacity="1.0" stroke-width="3.0" />
        </g>
    </g>
    <g id="fressstylelayer_vlak" inkscape:groupmode="lineset" inkscape:label="fressstylelayer_vlak" xmlns:inkscape="http://www.inkscape.org/namespaces/inkscape">
        <g id="strokes" inkscape:groupmode="layer" inkscape:label="strokes" xmlns:inkscape="http://www.inkscape.org/namespaces/inkscape" />
    </g>
</svg>
