<?xml version='1.0' encoding='ascii'?>
<svg xmlns="http://www.w3.org/2000/svg" xmlns:inkscape="http://www.inkscape.org/namespaces/inkscape" height="1485" version="1.1" width="2100">
    <g id="fressstylelayer_LineSet" inkscape:groupmode="lineset" inkscape:label="fressstylelayer_LineSet">
        <g id="strokes" inkscape:groupmode="layer" inkscape:label="strokes">
            <path d=" M 429.756, 985.332 422.200, 992.032 424.204, 994.732 " fill="none" stroke="rgb(157, 20, 170)" stroke-linecap="butt" stroke-linejoin="round" stroke-opacity="1.0" stroke-width="3.0" />
            <path d=" M 424.204, 994.732 429.290, 986.122 429.756, 985.332 " fill="none" stroke="rgb(157, 20, 170)" stroke-linecap="butt" stroke-linejoin="round" stroke-opacity="1.0" stroke-width="3.0" />
            <path d=" M 624.159, 1077.308 622.963, 1078.420 615.639, 1085.229 608.316, 1092.038 601.267, 1098.591 593.943, 1105.400 586.620, 1112.209 583.678, 1114.943 576.845, 1121.297 572.708, 1125.143 578.126, 1133.547 579.779, 1136.110 585.197, 1144.515 587.561, 1148.182 592.980, 1156.587 598.398, 1164.991 603.817, 1173.396 609.235, 1181.801 614.654, 1190.206 620.072, 1198.611 625.490, 1207.015 630.909, 1215.420 636.327, 1223.825 641.746, 1232.230 647.164, 1240.634 652.583, 1249.039 658.001, 1257.444 663.420, 1265.849 668.838, 1274.253 674.257, 1282.658 679.675, 1291.063 680.824, 1292.845 686.242, 1301.250 688.777, 1305.181 690.035, 1304.605 699.126, 1300.440 708.217, 1296.275 717.309, 1292.110 726.400, 1287.945 735.492, 1283.780 744.583, 1279.615 753.674, 1275.450 762.766, 1271.285 771.857, 1267.120 780.948, 1262.955 790.040, 1258.790 799.131, 1254.625 808.222, 1250.460 817.314, 1246.295 826.405, 1242.131 835.497, 1237.966 844.588, 1233.801 852.673, 1230.096 861.765, 1225.931 870.856, 1221.766 879.948, 1217.601 882.916, 1216.242 892.007, 1212.077 901.099, 1207.912 910.190, 1203.747 919.281, 1199.582 928.373, 1195.417 937.464, 1191.252 946.555, 1187.087 955.647, 1182.922 964.738, 1178.757 973.830, 1174.592 982.921, 1170.427 992.012, 1166.262 1001.104, 1162.097 1010.195, 1157.932 1019.286, 1153.767 1028.378, 1149.602 1037.469, 1145.437 1046.561, 1141.272 1055.652, 1137.107 1064.743, 1132.942 1073.835, 1128.777 1082.926, 1124.612 1092.017, 1120.447 1101.109, 1116.282 1110.200, 1112.117 1119.291, 1107.952 1124.777, 1105.439 1129.855, 1096.824 1134.933, 1088.209 1140.011, 1079.595 1140.192, 1079.288 " fill="none" stroke="rgb(157, 20, 170)" stroke-linecap="butt" stroke-linejoin="round" stroke-opacity="1.0" stroke-width="3.0" />
            <path d=" M 1124.777, 1105.439 1119.554, 1096.911 1115.365, 1090.071 1110.142, 1081.543 1104.919, 1073.015 1099.696, 1064.488 1094.473, 1055.960 1089.250, 1047.432 1084.027, 1038.905 1078.804, 1030.377 1073.582, 1021.849 1068.359, 1013.321 1063.136, 1004.794 1057.913, 996.266 1052.690, 987.738 1047.467, 979.211 1042.244, 970.683 1037.021, 962.155 1031.798, 953.628 1026.576, 945.100 1021.353, 936.572 1016.130, 928.045 1010.907, 919.517 1005.684, 910.989 1002.000, 904.974 " fill="none" stroke="rgb(157, 20, 170)" stroke-linecap="butt" stroke-linejoin="round" stroke-opacity="1.0" stroke-width="3.0" />
            <path d=" M 1061.216, 836.095 1054.697, 843.678 1048.177, 851.261 1041.658, 858.844 1035.139, 866.427 1028.620, 874.010 1022.101, 881.593 1015.582, 889.176 1009.063, 896.759 1002.000, 904.974 993.102, 909.538 984.204, 914.101 975.306, 918.665 966.408, 923.228 957.510, 927.792 948.612, 932.355 939.714, 936.919 930.816, 941.482 921.918, 946.045 913.020, 950.609 904.122, 955.172 895.224, 959.736 886.326, 964.299 877.428, 968.863 868.530, 973.426 859.632, 977.990 850.734, 982.553 841.836, 987.117 832.938, 991.680 824.040, 996.244 815.142, 1000.807 806.244, 1005.371 797.346, 1009.934 788.448, 1014.498 779.550, 1019.061 770.652, 1023.625 761.754, 1028.188 752.856, 1032.751 743.958, 1037.315 735.060, 1041.878 726.162, 1046.442 717.264, 1051.005 708.366, 1055.569 699.468, 1060.132 690.570, 1064.696 681.672, 1069.259 672.773, 1073.823 663.875, 1078.386 654.977, 1082.950 646.079, 1087.513 633.766, 1093.828 624.868, 1098.392 615.947, 1102.967 607.049, 1107.530 598.151, 1112.094 589.253, 1116.657 588.090, 1117.254 579.520, 1121.649 572.708, 1125.143 " fill="none" stroke="rgb(157, 20, 170)" stroke-linecap="butt" stroke-linejoin="round" stroke-opacity="1.0" stroke-width="3.0" />
            <path d=" M 1083.177, 937.281 1081.056, 927.509 1078.935, 917.736 1076.814, 907.964 1074.693, 898.192 1072.572, 888.419 1070.451, 878.647 1068.330, 868.874 1066.209, 859.102 1064.088, 849.329 1061.967, 839.557 1061.216, 836.095 1052.791, 841.482 1044.366, 846.869 1035.941, 852.256 1027.516, 857.643 1019.091, 863.030 1010.666, 868.417 1002.241, 873.804 993.816, 879.191 985.391, 884.578 976.966, 889.965 968.541, 895.352 960.116, 900.740 951.691, 906.127 946.778, 909.268 " fill="none" stroke="rgb(157, 20, 170)" stroke-linecap="butt" stroke-linejoin="round" stroke-opacity="1.0" stroke-width="3.0" />
            <path d=" M 748.738, 868.594 758.534, 870.606 768.329, 872.617 774.000, 873.782 783.795, 875.794 793.591, 877.806 803.386, 879.818 804.445, 880.035 814.241, 882.047 824.036, 884.059 833.832, 886.071 843.628, 888.082 853.423, 890.094 863.219, 892.106 873.014, 894.118 882.810, 896.130 892.605, 898.141 902.401, 900.153 912.196, 902.165 921.992, 904.177 931.787, 906.189 941.583, 908.201 946.778, 909.268 937.330, 912.542 927.881, 915.817 918.433, 919.092 908.984, 922.367 899.535, 925.642 890.087, 928.916 880.638, 932.191 871.190, 935.466 861.741, 938.741 852.293, 942.016 842.844, 945.290 833.395, 948.565 823.947, 951.840 814.498, 955.115 809.531, 956.836 " fill="none" stroke="rgb(157, 20, 170)" stroke-linecap="butt" stroke-linejoin="round" stroke-opacity="1.0" stroke-width="3.0" />
            <path d=" M 794.977, 755.629 791.189, 764.884 787.401, 774.139 783.613, 783.393 779.825, 792.648 776.036, 801.903 772.248, 811.158 768.460, 820.412 764.672, 829.667 760.884, 838.922 757.096, 848.177 753.307, 857.431 749.874, 865.820 748.738, 868.594 752.166, 874.685 757.070, 883.400 761.973, 892.115 766.877, 900.830 769.190, 904.941 774.094, 913.656 778.998, 922.371 783.902, 931.086 784.533, 932.208 789.437, 940.923 794.341, 949.638 794.454, 949.838 803.524, 954.048 809.531, 956.836 801.146, 962.286 792.761, 967.735 784.377, 973.184 775.992, 978.633 767.607, 984.083 759.222, 989.532 750.837, 994.981 742.452, 1000.430 734.068, 1005.880 725.683, 1011.329 717.298, 1016.778 708.913, 1022.227 700.528, 1027.677 692.143, 1033.126 683.758, 1038.575 675.374, 1044.024 666.989, 1049.474 658.604, 1054.923 650.219, 1060.372 641.834, 1065.821 633.449, 1071.271 624.159, 1077.308 " fill="none" stroke="rgb(157, 20, 170)" stroke-linecap="butt" stroke-linejoin="round" stroke-opacity="1.0" stroke-width="3.0" />
            <path d=" M 1140.192, 1079.288 1133.828, 1071.574 1127.464, 1063.861 1121.099, 1056.147 1114.735, 1048.434 1108.371, 1040.720 1102.007, 1033.007 1095.643, 1025.293 1089.279, 1017.580 1082.915, 1009.866 1078.659, 1004.708 " fill="none" stroke="rgb(157, 20, 170)" stroke-linecap="butt" stroke-linejoin="round" stroke-opacity="1.0" stroke-width="3.0" />
            <path d=" M 1134.918, 988.272 1125.319, 991.076 1115.720, 993.881 1106.122, 996.685 1096.523, 999.489 1086.924, 1002.293 1078.659, 1004.708 1080.409, 994.862 1082.159, 985.017 1083.909, 975.171 1085.659, 965.325 1087.409, 955.480 1089.158, 945.634 1089.665, 942.786 " fill="none" stroke="rgb(157, 20, 170)" stroke-linecap="butt" stroke-linejoin="round" stroke-opacity="1.0" stroke-width="3.0" />
            <path d=" M 1089.665, 942.786 1083.177, 937.281 1092.973, 939.293 1102.768, 941.305 1105.766, 941.921 1095.780, 942.457 1089.665, 942.786 " fill="none" stroke="rgb(157, 20, 170)" stroke-linecap="butt" stroke-linejoin="round" stroke-opacity="1.0" stroke-width="3.0" />
            <path d=" M 648.217, 632.516 653.462, 624.002 658.707, 615.488 663.951, 606.974 669.196, 598.460 674.441, 589.946 679.686, 581.431 684.931, 572.917 690.176, 564.403 695.421, 555.889 700.666, 547.375 704.898, 540.504 699.850, 549.136 694.802, 557.769 689.754, 566.401 684.705, 575.033 679.657, 583.665 674.609, 592.298 669.561, 600.930 664.513, 609.562 659.464, 618.194 654.416, 626.827 649.368, 635.459 644.320, 644.091 639.271, 652.723 634.223, 661.356 629.175, 669.988 624.127, 678.620 619.079, 687.252 614.030, 695.885 608.982, 704.517 603.934, 713.149 598.886, 721.781 593.838, 730.413 588.789, 739.046 583.741, 747.678 578.693, 756.310 573.645, 764.942 568.596, 773.575 563.548, 782.207 558.500, 790.839 553.452, 799.471 548.404, 808.104 543.355, 816.736 538.307, 825.368 533.259, 834.000 528.211, 842.633 523.163, 851.265 518.114, 859.897 513.066, 868.529 508.018, 877.161 502.970, 885.794 497.921, 894.426 492.873, 903.058 487.825, 911.690 482.777, 920.323 477.729, 928.955 472.680, 937.587 467.632, 946.219 462.584, 954.852 457.536, 963.484 452.488, 972.116 447.439, 980.748 442.391, 989.381 437.343, 998.013 432.295, 1006.645 427.246, 1015.277 422.198, 1023.910 419.299, 1028.867 " fill="none" stroke="rgb(157, 20, 170)" stroke-linecap="butt" stroke-linejoin="round" stroke-opacity="1.0" stroke-width="3.0" />
            <path d=" M 505.807, 808.251 500.738, 816.871 495.669, 825.491 490.600, 834.111 485.531, 842.732 480.463, 851.352 475.394, 859.972 470.325, 868.592 465.256, 877.212 460.187, 885.832 455.118, 894.452 450.050, 903.073 444.981, 911.693 439.912, 920.313 434.843, 928.933 429.774, 937.553 424.706, 946.173 419.637, 954.794 414.568, 963.414 412.542, 966.859 413.625, 976.800 414.709, 986.742 415.792, 996.683 416.875, 1006.624 417.959, 1016.565 419.042, 1026.506 419.299, 1028.867 428.158, 1033.506 437.017, 1038.145 445.876, 1042.783 454.735, 1047.422 463.594, 1052.061 468.778, 1054.776 477.637, 1059.415 486.496, 1064.054 495.354, 1068.693 504.213, 1073.332 513.072, 1077.971 521.931, 1082.610 530.790, 1087.249 536.931, 1090.464 545.790, 1095.103 554.649, 1099.742 563.508, 1104.381 572.367, 1109.020 581.226, 1113.659 583.678, 1114.943 " fill="none" stroke="rgb(157, 20, 170)" stroke-linecap="butt" stroke-linejoin="round" stroke-opacity="1.0" stroke-width="3.0" />
            <path d=" M 1334.212, 214.464 1325.961, 208.815 1317.709, 203.165 1309.458, 197.516 1301.207, 191.866 1300.638, 191.476 1292.387, 185.827 1284.136, 180.177 1275.885, 174.528 1267.634, 168.878 1259.382, 163.228 1251.131, 157.579 1242.880, 151.929 1234.629, 146.280 1226.378, 140.630 1218.127, 134.980 1209.875, 129.331 1201.624, 123.681 1193.373, 118.031 1185.122, 112.382 1176.871, 106.732 1168.620, 101.083 1160.368, 95.433 1152.117, 89.783 1143.866, 84.134 1135.615, 78.484 1127.364, 72.835 1119.112, 67.185 1110.861, 61.535 1102.610, 55.886 1094.359, 50.236 1086.108, 44.587 1077.857, 38.937 1069.605, 33.287 1061.354, 27.638 1053.103, 21.988 1044.852, 16.339 1036.601, 10.689 1028.349, 5.039 1020.990, 0.000 1014.722, 7.792 1008.453, 15.583 1002.184, 23.374 995.916, 31.166 989.647, 38.957 983.379, 46.748 977.110, 54.540 970.842, 62.331 964.573, 70.123 958.305, 77.914 952.036, 85.705 945.767, 93.497 939.499, 101.288 933.230, 109.079 926.962, 116.871 920.693, 124.662 914.425, 132.453 908.156, 140.245 901.888, 148.036 895.619, 155.827 889.350, 163.619 883.082, 171.410 876.813, 179.201 872.677, 184.342 867.609, 192.962 862.540, 201.582 857.471, 210.203 852.402, 218.823 847.333, 227.443 842.264, 236.063 837.196, 244.683 832.127, 253.303 827.058, 261.923 821.989, 270.544 816.920, 279.164 811.852, 287.784 806.783, 296.404 805.688, 298.266 " fill="none" stroke="rgb(157, 20, 170)" stroke-linecap="butt" stroke-linejoin="round" stroke-opacity="1.0" stroke-width="3.0" />
            <path d=" M 1384.117, 1212.339 1388.634, 1203.417 1393.151, 1194.495 1397.667, 1185.573 1402.184, 1176.651 1406.701, 1167.729 1411.217, 1158.807 1415.734, 1149.885 1420.251, 1140.964 1424.767, 1132.042 1429.284, 1123.120 1433.801, 1114.198 1438.318, 1105.276 1442.834, 1096.354 1447.351, 1087.432 1451.867, 1078.510 1456.384, 1069.589 1460.901, 1060.667 1465.417, 1051.745 1469.934, 1042.823 1474.451, 1033.901 1478.967, 1024.979 1483.484, 1016.057 1488.001, 1007.136 1492.517, 998.214 1497.034, 989.292 1501.551, 980.370 1506.068, 971.448 1510.584, 962.526 1515.101, 953.604 1519.617, 944.682 1524.134, 935.761 1528.651, 926.839 1533.167, 917.917 1537.684, 908.995 1542.201, 900.073 1546.718, 891.151 1551.234, 882.229 1555.751, 873.308 1560.268, 864.386 1564.784, 855.464 1569.301, 846.542 1573.818, 837.620 1578.334, 828.698 1582.851, 819.776 1587.368, 810.855 1591.884, 801.933 1596.401, 793.011 1600.918, 784.089 1605.434, 775.167 1609.951, 766.245 1614.468, 757.323 1618.984, 748.401 1623.501, 739.480 1628.018, 730.558 1632.534, 721.636 1637.051, 712.714 1641.568, 703.792 1646.084, 694.870 1650.601, 685.948 1655.118, 677.027 1659.634, 668.105 1664.151, 659.183 1668.668, 650.261 1673.184, 641.339 1677.701, 632.417 1682.218, 623.495 1686.734, 614.573 1691.251, 605.652 1695.768, 596.730 1700.284, 587.808 1704.801, 578.886 1709.318, 569.964 1713.834, 561.042 1718.351, 552.120 1722.868, 543.198 1727.384, 534.277 1731.901, 525.355 1736.418, 516.433 1740.934, 507.511 1746.409, 496.697 1738.158, 491.047 1729.906, 485.398 1721.655, 479.748 1713.404, 474.099 1705.153, 468.449 1696.902, 462.799 1688.651, 457.150 1680.399, 451.500 1672.148, 445.851 1663.897, 440.201 1655.646, 434.551 1647.395, 428.902 1639.144, 423.252 1630.892, 417.603 1622.641, 411.953 1614.390, 406.303 1606.139, 400.654 1597.888, 395.004 1589.636, 389.354 1581.385, 383.705 1573.134, 378.055 1564.883, 372.406 1556.632, 366.756 1548.381, 361.106 1540.130, 355.457 1531.878, 349.807 1523.627, 344.157 1515.376, 338.508 1507.125, 332.858 1498.874, 327.209 1489.121, 320.531 1481.611, 315.389 " fill="none" stroke="rgb(157, 20, 170)" stroke-linecap="butt" stroke-linejoin="round" stroke-opacity="1.0" stroke-width="3.0" />
            <path d=" M 1489.121, 320.531 1489.152, 310.531 1489.183, 300.531 1489.214, 290.531 1489.245, 280.531 1489.276, 270.531 1489.307, 260.531 1489.337, 250.532 1489.368, 240.532 1489.399, 230.532 1489.430, 220.532 1489.458, 211.298 1479.513, 210.254 1469.568, 209.210 1459.623, 208.166 1449.677, 207.122 1439.732, 206.078 1429.786, 205.034 1419.841, 203.990 1409.896, 202.946 1399.950, 201.902 1390.005, 200.858 1380.060, 199.814 1370.114, 198.770 1360.169, 197.726 1350.224, 196.682 1340.278, 195.638 1330.333, 194.594 1320.388, 193.550 1310.442, 192.506 1300.638, 191.476 " fill="none" stroke="rgb(157, 20, 170)" stroke-linecap="butt" stroke-linejoin="round" stroke-opacity="1.0" stroke-width="3.0" />
            <path d=" M 1058.498, 419.039 1053.416, 427.652 1048.335, 436.264 1043.253, 444.877 1038.171, 453.489 1033.089, 462.102 1028.007, 470.714 1022.925, 479.327 1017.844, 487.939 1012.762, 496.552 1007.680, 505.164 1002.598, 513.777 997.516, 522.389 992.435, 531.002 987.353, 539.614 982.271, 548.227 977.189, 556.839 972.107, 565.452 967.026, 574.064 961.944, 582.677 956.862, 591.289 951.780, 599.902 946.698, 608.514 941.616, 617.127 936.535, 625.739 933.210, 631.374 924.699, 636.624 916.188, 641.874 907.677, 647.124 899.167, 652.375 890.656, 657.625 882.145, 662.875 873.634, 668.126 871.161, 669.651 " fill="none" stroke="rgb(157, 20, 170)" stroke-linecap="butt" stroke-linejoin="round" stroke-opacity="1.0" stroke-width="3.0" />
            <path d=" M 1276.675, 977.022 1279.353, 967.387 1282.030, 957.753 1284.708, 948.118 1287.385, 938.483 1290.062, 928.848 1292.740, 919.213 1295.417, 909.578 1298.095, 899.943 1300.772, 890.308 1303.449, 880.673 1306.127, 871.038 1308.804, 861.403 1311.482, 851.768 1314.159, 842.134 1316.836, 832.499 1319.514, 822.864 1322.191, 813.229 1324.869, 803.594 1327.546, 793.959 1330.223, 784.324 1332.901, 774.689 1335.578, 765.054 1338.255, 755.419 1340.933, 745.784 1343.610, 736.150 1346.288, 726.515 1348.965, 716.880 1351.643, 707.245 1354.320, 697.610 1356.997, 687.975 1359.675, 678.340 1362.352, 668.705 1365.030, 659.070 1367.707, 649.435 1370.384, 639.800 1373.062, 630.166 1375.739, 620.531 1378.417, 610.896 1381.094, 601.261 1383.771, 591.626 1386.449, 581.991 1389.126, 572.356 1391.803, 562.721 1394.481, 553.086 1397.158, 543.451 1399.836, 533.816 1402.513, 524.181 1405.190, 514.547 1407.868, 504.912 1410.545, 495.277 1413.223, 485.642 1415.900, 476.007 1418.577, 466.372 1421.255, 456.737 1423.932, 447.102 1426.610, 437.467 1429.287, 427.832 1431.964, 418.197 1434.642, 408.562 1437.319, 398.928 1439.997, 389.293 1442.674, 379.658 1445.351, 370.023 1448.029, 360.388 1450.706, 350.753 1453.384, 341.118 1456.061, 331.483 1458.738, 321.848 1461.416, 312.213 1464.093, 302.578 1466.771, 292.944 1469.448, 283.309 1472.125, 273.674 1474.803, 264.039 1477.480, 254.404 1480.158, 244.769 1482.835, 235.134 1485.512, 225.499 1489.458, 211.298 " fill="none" stroke="rgb(157, 20, 170)" stroke-linecap="butt" stroke-linejoin="round" stroke-opacity="1.0" stroke-width="3.0" />
            <path d=" M 1369.739, 1373.476 1364.534, 1364.937 1359.329, 1356.399 1354.124, 1347.860 1348.919, 1339.321 1343.714, 1330.783 1338.508, 1322.244 1333.029, 1313.255 1327.823, 1304.717 1322.618, 1296.178 1317.413, 1287.640 1312.208, 1279.101 1307.003, 1270.563 1301.798, 1262.024 1296.593, 1253.485 1291.388, 1244.947 1286.182, 1236.408 1280.977, 1227.870 1275.772, 1219.331 1273.399, 1215.438 1268.194, 1206.900 1262.989, 1198.361 1257.784, 1189.822 1252.578, 1181.284 1247.373, 1172.745 1242.168, 1164.207 1236.963, 1155.668 1231.758, 1147.130 1226.553, 1138.591 1221.348, 1130.053 1216.143, 1121.514 1210.938, 1112.976 1205.732, 1104.437 1200.527, 1095.898 1195.322, 1087.360 1190.117, 1078.821 1184.912, 1070.283 1179.707, 1061.744 1174.502, 1053.206 1169.297, 1044.667 1164.091, 1036.129 1158.886, 1027.590 1153.681, 1019.052 1148.476, 1010.513 1143.271, 1001.975 1138.066, 993.436 1134.918, 988.272 1137.243, 978.546 1139.567, 968.820 1141.892, 959.094 1144.217, 949.368 1146.542, 939.642 1148.867, 929.916 1151.191, 920.190 1153.516, 910.464 1155.103, 903.825 1155.913, 913.793 1156.724, 923.760 1157.535, 933.727 1158.345, 943.694 1159.091, 952.873 " fill="none" stroke="rgb(157, 20, 170)" stroke-linecap="butt" stroke-linejoin="round" stroke-opacity="1.0" stroke-width="3.0" />
            <path d=" M 1159.091, 952.873 1168.887, 954.885 1178.682, 956.896 1188.478, 958.908 1198.274, 960.920 1208.069, 962.932 1217.865, 964.944 1227.660, 966.956 1237.456, 968.967 1247.251, 970.979 1257.047, 972.991 1266.842, 975.003 1276.675, 977.022 1278.377, 986.877 1280.078, 996.731 1281.780, 1006.585 1283.482, 1016.439 1285.183, 1026.293 1286.885, 1036.147 1288.586, 1046.002 1290.288, 1055.856 1291.990, 1065.710 1293.691, 1075.564 1295.393, 1085.418 1297.094, 1095.272 1297.491, 1097.571 1290.579, 1090.344 1283.667, 1083.118 1276.755, 1075.891 1269.843, 1068.665 1262.931, 1061.438 1256.019, 1054.211 1249.107, 1046.985 1242.195, 1039.758 1235.283, 1032.531 1228.371, 1025.305 1221.459, 1018.078 1214.547, 1010.852 1207.635, 1003.625 1200.723, 996.398 1193.811, 989.172 1186.898, 981.945 1179.986, 974.719 1173.074, 967.492 1166.162, 960.266 1159.091, 952.873 " fill="none" stroke="rgb(157, 20, 170)" stroke-linecap="butt" stroke-linejoin="round" stroke-opacity="1.0" stroke-width="3.0" />
            <path d=" M 1099.818, 660.231 1106.461, 652.757 1113.104, 645.282 1119.747, 637.808 1126.390, 630.333 1133.033, 622.858 1139.677, 615.384 1146.320, 607.909 1152.963, 600.435 1155.819, 597.221 1154.135, 607.078 1152.452, 616.935 1150.768, 626.792 1149.084, 636.650 1147.401, 646.507 1145.717, 656.364 1144.033, 666.221 1142.350, 676.079 1140.666, 685.936 1138.982, 695.793 1137.299, 705.650 1135.615, 715.508 1133.931, 725.365 1132.248, 735.222 1130.564, 745.079 1128.880, 754.936 1127.197, 764.794 1125.513, 774.651 1123.829, 784.508 1122.586, 791.784 " fill="none" stroke="rgb(157, 20, 170)" stroke-linecap="butt" stroke-linejoin="round" stroke-opacity="1.0" stroke-width="3.0" />
            <path d=" M 683.969, 682.298 693.955, 681.768 696.839, 681.615 706.825, 681.085 716.811, 680.555 726.797, 680.026 736.783, 679.496 746.769, 678.966 756.755, 678.436 766.741, 677.906 776.727, 677.376 786.712, 676.846 796.698, 676.316 806.684, 675.786 816.670, 675.256 826.656, 674.727 836.642, 674.197 846.628, 673.667 856.614, 673.137 866.600, 672.607 876.586, 672.077 886.572, 671.547 896.558, 671.017 906.544, 670.487 916.530, 669.957 926.516, 669.427 936.502, 668.898 946.488, 668.368 956.474, 667.838 966.460, 667.308 976.446, 666.778 986.431, 666.248 996.417, 665.718 1006.403, 665.188 1016.389, 664.658 1026.375, 664.128 1036.361, 663.599 1046.347, 663.069 1056.333, 662.539 1066.319, 662.009 1076.305, 661.479 1086.291, 660.949 1099.818, 660.231 1101.523, 670.085 1103.229, 679.938 1104.934, 689.792 1106.640, 699.645 1108.345, 709.499 1110.050, 719.352 1111.756, 729.206 1113.461, 739.059 1115.166, 748.913 1116.872, 758.766 1118.577, 768.620 1120.282, 778.473 1121.988, 788.327 1122.586, 791.784 1112.748, 789.995 1102.909, 788.205 1093.071, 786.416 1083.232, 784.626 1073.394, 782.836 1063.555, 781.047 1053.716, 779.257 1043.878, 777.467 1034.039, 775.678 1024.201, 773.888 1014.362, 772.098 1004.524, 770.309 994.685, 768.519 984.846, 766.729 975.008, 764.940 965.169, 763.150 955.331, 761.361 945.492, 759.571 935.654, 757.781 925.815, 755.992 915.977, 754.202 906.138, 752.412 896.299, 750.623 886.461, 748.833 876.622, 747.043 866.089, 745.127 " fill="none" stroke="rgb(157, 20, 170)" stroke-linecap="butt" stroke-linejoin="round" stroke-opacity="1.0" stroke-width="3.0" />
            <path d=" M 866.089, 745.127 861.008, 753.740 855.926, 762.352 850.844, 770.965 845.762, 779.577 842.481, 785.139 844.891, 775.434 847.301, 765.728 849.711, 756.023 852.122, 746.318 854.532, 736.613 856.942, 726.908 859.352, 717.202 861.762, 707.497 864.173, 697.792 866.289, 689.271 866.253, 699.271 866.217, 709.271 866.182, 719.271 866.146, 729.271 866.110, 739.271 866.089, 745.127 " fill="none" stroke="rgb(157, 20, 170)" stroke-linecap="butt" stroke-linejoin="round" stroke-opacity="1.0" stroke-width="3.0" />
            <path d=" M 956.486, 326.077 954.075, 335.782 951.665, 345.487 951.168, 347.488 948.758, 357.193 946.348, 366.898 943.938, 376.603 941.528, 386.308 939.117, 396.014 936.707, 405.719 934.297, 415.424 931.887, 425.129 929.476, 434.834 927.066, 444.540 924.656, 454.245 922.246, 463.950 919.836, 473.655 917.425, 483.360 915.015, 493.065 912.605, 502.771 910.195, 512.476 907.784, 522.181 905.374, 531.886 902.964, 541.591 900.554, 551.297 898.144, 561.002 895.733, 570.707 893.323, 580.412 890.913, 590.117 888.503, 599.823 886.092, 609.528 883.682, 619.233 881.272, 628.938 878.862, 638.643 876.452, 648.349 874.041, 658.054 871.161, 669.651 861.162, 669.811 851.164, 669.970 841.165, 670.130 831.166, 670.290 821.168, 670.449 811.169, 670.609 801.170, 670.768 791.171, 670.928 781.173, 671.088 771.174, 671.247 761.175, 671.407 751.177, 671.566 741.178, 671.726 731.179, 671.886 721.180, 672.045 711.182, 672.205 701.183, 672.365 696.904, 672.433 688.953, 678.497 683.969, 682.298 686.296, 692.024 688.623, 701.749 690.950, 711.475 693.277, 721.200 695.604, 730.926 696.464, 734.521 " fill="none" stroke="rgb(157, 20, 170)" stroke-linecap="butt" stroke-linejoin="round" stroke-opacity="1.0" stroke-width="3.0" />
            <path d=" M 650.432, 477.806 640.766, 475.242 631.100, 472.678 621.435, 470.115 611.769, 467.551 602.103, 464.987 592.437, 462.423 582.772, 459.859 573.106, 457.295 563.440, 454.731 553.774, 452.168 544.109, 449.604 535.371, 447.286 530.581, 456.064 525.792, 464.843 521.003, 473.622 516.213, 482.400 511.424, 491.179 506.635, 499.957 501.845, 508.736 497.056, 517.514 492.267, 526.293 487.477, 535.071 482.688, 543.850 477.899, 552.628 473.109, 561.407 468.320, 570.185 463.531, 578.964 458.742, 587.742 453.952, 596.521 450.719, 602.448 453.297, 612.110 455.875, 621.772 458.453, 631.434 461.031, 641.096 463.609, 650.758 466.187, 660.420 468.765, 670.082 471.343, 679.744 473.921, 689.406 476.500, 699.068 479.078, 708.729 481.656, 718.391 484.234, 728.053 486.812, 737.715 489.390, 747.377 491.968, 757.039 494.546, 766.701 497.124, 776.363 499.703, 786.025 502.281, 795.687 504.859, 805.349 505.625, 808.222 505.807, 808.251 515.680, 809.835 525.554, 811.419 535.701, 813.046 " fill="none" stroke="rgb(157, 20, 170)" stroke-linecap="butt" stroke-linejoin="round" stroke-opacity="1.0" stroke-width="3.0" />
            <path d=" M 505.625, 808.222 510.754, 799.637 515.882, 791.052 518.272, 787.053 523.400, 778.468 528.529, 769.883 533.657, 761.299 538.786, 752.714 543.914, 744.129 545.832, 740.918 548.639, 736.220 553.767, 727.635 558.896, 719.050 564.024, 710.466 569.153, 701.881 574.281, 693.296 579.410, 684.711 584.538, 676.126 589.667, 667.542 594.795, 658.957 599.924, 650.372 600.625, 649.198 " fill="none" stroke="rgb(157, 20, 170)" stroke-linecap="butt" stroke-linejoin="round" stroke-opacity="1.0" stroke-width="3.0" />
            <path d=" M 636.744, 656.831 626.960, 654.763 617.176, 652.695 614.546, 652.139 604.762, 650.072 600.625, 649.198 600.167, 647.779 597.092, 638.264 594.017, 628.749 590.941, 619.233 587.866, 609.718 584.791, 600.202 581.716, 590.687 578.640, 581.172 575.565, 571.656 572.490, 562.141 569.415, 552.625 566.339, 543.110 563.264, 533.595 560.189, 524.079 557.114, 514.564 554.039, 505.048 550.963, 495.533 547.888, 486.018 544.813, 476.502 541.738, 466.987 538.662, 457.471 535.371, 447.286 " fill="none" stroke="rgb(157, 20, 170)" stroke-linecap="butt" stroke-linejoin="round" stroke-opacity="1.0" stroke-width="3.0" />
            <path d=" M 1071.209, 381.654 1062.209, 377.294 1053.210, 372.935 1044.210, 368.575 1035.211, 364.215 1026.211, 359.855 1017.212, 355.495 1008.212, 351.135 999.213, 346.776 990.213, 342.416 981.213, 338.056 972.214, 333.696 963.214, 329.337 956.486, 326.077 946.651, 324.263 936.817, 322.450 926.983, 320.636 917.149, 318.822 907.315, 317.008 897.481, 315.195 887.647, 313.381 877.812, 311.567 867.978, 309.754 858.144, 307.940 848.310, 306.126 842.582, 305.070 832.748, 303.256 822.914, 301.443 813.080, 299.629 805.688, 298.266 795.854, 296.452 786.020, 294.638 776.186, 292.825 766.352, 291.011 756.517, 289.197 746.683, 287.384 736.849, 285.570 727.015, 283.756 717.181, 281.943 707.347, 280.129 698.874, 278.566 696.511, 288.283 694.149, 298.000 691.786, 307.717 689.424, 317.434 687.061, 327.151 684.699, 336.868 682.336, 346.585 679.974, 356.302 677.611, 366.018 675.249, 375.735 672.886, 385.452 670.524, 395.169 668.161, 404.886 665.799, 414.603 663.436, 424.320 661.074, 434.037 658.711, 443.754 656.349, 453.471 653.986, 463.188 651.624, 472.905 650.432, 477.806 648.069, 487.523 645.707, 497.240 643.344, 506.957 640.982, 516.674 638.619, 526.391 636.257, 536.108 633.894, 545.825 631.532, 555.542 629.169, 565.258 626.807, 574.975 624.444, 584.692 622.082, 594.409 621.184, 598.100 " fill="none" stroke="rgb(157, 20, 170)" stroke-linecap="butt" stroke-linejoin="round" stroke-opacity="1.0" stroke-width="3.0" />
            <path d=" M 579.779, 1136.110 575.262, 1145.032 571.255, 1152.946 577.421, 1160.819 583.587, 1168.691 589.753, 1176.564 595.919, 1184.437 602.085, 1192.310 608.251, 1200.183 614.417, 1208.055 620.583, 1215.928 626.748, 1223.801 632.914, 1231.674 639.080, 1239.546 645.246, 1247.419 651.412, 1255.292 657.578, 1263.165 663.744, 1271.038 669.910, 1278.910 676.076, 1286.783 680.824, 1292.845 " fill="none" stroke="rgb(157, 20, 170)" stroke-linecap="butt" stroke-linejoin="round" stroke-opacity="1.0" stroke-width="3.0" />
            <path d=" M 690.035, 1304.605 696.201, 1312.478 702.367, 1320.351 708.533, 1328.224 714.699, 1336.096 720.865, 1343.969 727.031, 1351.842 733.197, 1359.715 739.363, 1367.587 745.529, 1375.460 751.695, 1383.333 757.861, 1391.206 764.027, 1399.079 770.193, 1406.951 776.359, 1414.824 782.524, 1422.697 788.690, 1430.570 794.856, 1438.442 801.022, 1446.315 807.188, 1454.188 813.354, 1462.061 819.520, 1469.934 825.686, 1477.806 831.320, 1485.000 841.113, 1482.972 850.905, 1480.943 860.697, 1478.915 870.489, 1476.887 880.281, 1474.859 890.073, 1472.830 899.865, 1470.802 909.658, 1468.774 919.450, 1466.745 929.242, 1464.717 939.034, 1462.689 948.826, 1460.661 958.618, 1458.632 968.410, 1456.604 978.203, 1454.576 987.995, 1452.547 997.787, 1450.519 1007.579, 1448.491 1017.371, 1446.463 1027.163, 1444.434 1036.955, 1442.406 1046.748, 1440.378 1056.540, 1438.350 1066.332, 1436.321 1076.124, 1434.293 1085.916, 1432.265 1095.708, 1430.236 1105.500, 1428.208 1115.293, 1426.180 1125.085, 1424.152 1134.877, 1422.123 1144.669, 1420.095 1154.461, 1418.067 1160.255, 1416.867 1170.047, 1414.838 1179.839, 1412.810 1185.942, 1411.546 1195.734, 1409.518 1205.526, 1407.490 1215.318, 1405.461 1225.110, 1403.433 1234.903, 1401.405 1244.695, 1399.376 1254.487, 1397.348 1264.279, 1395.320 1274.071, 1393.292 1283.863, 1391.263 1294.671, 1389.025 1304.463, 1386.997 1314.255, 1384.968 1324.047, 1382.940 1333.839, 1380.912 1343.631, 1378.883 1353.423, 1376.855 1363.215, 1374.827 1369.739, 1373.476 1370.628, 1363.515 1371.517, 1353.555 1372.405, 1343.594 1373.294, 1333.634 1374.183, 1323.673 1375.072, 1313.713 1375.960, 1303.753 1376.849, 1293.792 1377.738, 1283.832 1378.627, 1273.871 1379.516, 1263.911 1380.404, 1253.951 1381.293, 1243.990 1382.182, 1234.030 1383.071, 1224.069 1383.959, 1214.109 1384.117, 1212.339 1385.006, 1202.378 1385.895, 1192.418 1386.784, 1182.457 1387.672, 1172.497 1388.561, 1162.536 1389.450, 1152.576 1390.339, 1142.616 1391.228, 1132.655 1392.116, 1122.695 1392.820, 1114.814 " fill="none" stroke="rgb(157, 20, 170)" stroke-linecap="butt" stroke-linejoin="round" stroke-opacity="1.0" stroke-width="3.0" />
            <path d=" M 1392.820, 1114.814 1389.259, 1105.469 1385.698, 1096.125 1382.137, 1086.780 1378.576, 1077.436 1375.015, 1068.091 1371.454, 1058.747 1367.893, 1049.402 1364.332, 1040.058 1360.771, 1030.713 1357.210, 1021.369 1353.649, 1012.024 1349.830, 1002.003 1351.715, 992.182 1353.600, 982.361 1355.484, 972.541 1357.369, 962.720 1359.254, 952.899 1361.139, 943.078 1363.024, 933.258 1364.909, 923.437 1366.794, 913.616 1368.679, 903.795 1370.564, 893.975 1372.448, 884.154 1374.333, 874.333 1376.218, 864.512 1378.103, 854.692 1379.988, 844.871 1381.873, 835.050 1383.758, 825.229 1385.643, 815.409 1387.528, 805.588 1389.412, 795.767 1391.297, 785.946 1393.182, 776.126 1395.067, 766.305 1396.952, 756.484 1398.837, 746.663 1400.722, 736.843 1402.607, 727.022 1404.492, 717.201 1406.376, 707.380 1408.261, 697.560 1410.146, 687.739 1412.031, 677.918 1413.916, 668.097 1415.801, 658.276 1417.686, 648.456 1419.571, 638.635 1421.455, 628.814 1423.340, 618.993 1425.225, 609.173 1427.110, 599.352 1428.995, 589.531 1430.880, 579.710 1432.765, 569.890 1434.650, 560.069 1436.535, 550.248 1438.419, 540.427 1440.304, 530.607 1442.189, 520.786 1444.074, 510.965 1445.959, 501.144 1447.844, 491.324 1449.729, 481.503 1451.614, 471.682 1453.499, 461.861 1455.383, 452.041 1457.268, 442.220 1459.153, 432.399 1461.038, 422.578 1462.923, 412.758 1464.808, 402.937 1466.693, 393.116 1468.578, 383.295 1470.463, 373.475 1472.347, 363.654 1474.232, 353.833 1476.117, 344.012 1478.002, 334.192 1479.887, 324.371 1481.611, 315.389 " fill="none" stroke="rgb(157, 20, 170)" stroke-linecap="butt" stroke-linejoin="round" stroke-opacity="1.0" stroke-width="3.0" />
            <path d=" M 677.392, 850.135 686.893, 853.254 696.394, 856.373 705.895, 859.493 715.396, 862.612 724.897, 865.732 734.398, 868.851 743.899, 871.970 752.166, 874.685 " fill="none" stroke="rgb(157, 20, 170)" stroke-linecap="butt" stroke-linejoin="round" stroke-opacity="1.0" stroke-width="3.0" />
            <path d=" M 621.184, 598.100 625.871, 604.067 632.048, 611.931 635.496, 616.321 641.673, 624.185 647.850, 632.049 648.217, 632.516 643.950, 641.560 639.682, 650.604 636.744, 656.831 631.313, 665.227 625.882, 673.624 620.451, 682.020 615.020, 690.417 609.589, 698.814 604.158, 707.210 598.727, 715.607 593.295, 724.003 587.864, 732.400 582.433, 740.797 577.002, 749.193 571.571, 757.590 566.140, 765.987 560.709, 774.383 555.278, 782.780 549.847, 791.176 544.416, 799.573 538.985, 807.970 535.701, 813.046 " fill="none" stroke="rgb(157, 20, 170)" stroke-linecap="butt" stroke-linejoin="round" stroke-opacity="1.0" stroke-width="3.0" />
            <path d=" M 1160.255, 1416.867 1169.114, 1421.506 1177.973, 1426.145 1186.832, 1430.783 1195.691, 1435.422 1204.550, 1440.061 1213.409, 1444.700 1222.268, 1449.339 1231.126, 1453.978 1239.985, 1458.617 1248.844, 1463.256 1255.363, 1466.670 1259.880, 1457.748 1264.396, 1448.826 1268.913, 1439.904 1273.430, 1430.982 1277.946, 1422.060 1282.463, 1413.138 1286.980, 1404.217 1291.496, 1395.295 1294.671, 1389.025 " fill="none" stroke="rgb(157, 20, 170)" stroke-linecap="butt" stroke-linejoin="round" stroke-opacity="1.0" stroke-width="3.0" />
            <path d=" M 468.778, 1054.776 474.738, 1062.805 480.699, 1070.835 486.660, 1078.864 492.620, 1086.894 498.581, 1094.923 504.541, 1102.952 510.502, 1110.982 511.799, 1112.729 521.714, 1114.035 531.628, 1115.341 541.542, 1116.647 551.457, 1117.953 561.371, 1119.259 571.286, 1120.564 576.845, 1121.297 " fill="none" stroke="rgb(157, 20, 170)" stroke-linecap="butt" stroke-linejoin="round" stroke-opacity="1.0" stroke-width="3.0" />
            <path d=" M 536.931, 1090.464 529.446, 1097.096 521.961, 1103.727 514.476, 1110.358 511.799, 1112.729 " fill="none" stroke="rgb(157, 20, 170)" stroke-linecap="butt" stroke-linejoin="round" stroke-opacity="1.0" stroke-width="3.0" />
            <path d=" M 587.561, 1148.182 577.962, 1150.986 571.255, 1152.946 " fill="none" stroke="rgb(157, 20, 170)" stroke-linecap="butt" stroke-linejoin="round" stroke-opacity="1.0" stroke-width="3.0" />
            <path d=" M 842.582, 305.070 847.631, 296.438 852.679, 287.806 857.727, 279.173 862.775, 270.541 867.824, 261.909 872.872, 253.277 877.920, 244.644 882.968, 236.012 888.016, 227.380 893.065, 218.748 898.113, 210.115 903.161, 201.483 908.209, 192.851 913.257, 184.219 918.306, 175.586 923.354, 166.954 928.402, 158.322 933.450, 149.690 938.499, 141.057 943.547, 132.425 948.595, 123.793 953.643, 115.161 958.691, 106.529 963.740, 97.896 968.788, 89.264 973.836, 80.632 978.884, 72.000 983.932, 63.367 988.981, 54.735 994.029, 46.103 999.077, 37.471 1004.125, 28.838 1009.174, 20.206 1014.222, 11.574 1020.990, 0.000 " fill="none" stroke="rgb(157, 20, 170)" stroke-linecap="butt" stroke-linejoin="round" stroke-opacity="1.0" stroke-width="3.0" />
        </g>
    </g>
    <g id="fressstylelayer_hidden lines" inkscape:groupmode="lineset" inkscape:label="fressstylelayer_hidden lines" xmlns:inkscape="http://www.inkscape.org/namespaces/inkscape">
        <g id="strokes" inkscape:groupmode="layer" inkscape:label="strokes" xmlns:inkscape="http://www.inkscape.org/namespaces/inkscape">
            <path d=" M 727.922, 1258.347 721.509, 1266.020 715.096, 1273.693 708.683, 1281.366 702.270, 1289.039 695.857, 1296.711 689.659, 1304.126 688.777, 1305.181 " fill="none" stroke="rgb(0, 119, 0)" stroke-linecap="butt" stroke-linejoin="round" stroke-opacity="1.0" stroke-width="3.0" />
            <path d=" M 1140.192, 1079.288 1131.020, 1083.271 1121.847, 1087.255 1115.365, 1090.071 1106.193, 1094.054 1097.020, 1098.038 1087.848, 1102.022 1078.676, 1106.006 1069.504, 1109.989 1060.331, 1113.973 1051.159, 1117.957 1041.987, 1121.941 1032.815, 1125.924 1023.642, 1129.908 1014.470, 1133.892 1005.298, 1137.876 996.126, 1141.859 986.953, 1145.843 977.781, 1149.827 968.609, 1153.811 959.437, 1157.794 950.265, 1161.778 941.092, 1165.762 931.920, 1169.746 922.748, 1173.729 913.576, 1177.713 904.404, 1181.697 895.231, 1185.681 886.059, 1189.664 876.887, 1193.648 867.715, 1197.632 856.776, 1202.383 847.604, 1206.367 838.432, 1210.350 829.259, 1214.334 822.749, 1217.162 813.577, 1221.145 804.405, 1225.129 795.232, 1229.113 786.060, 1233.097 776.888, 1237.080 767.716, 1241.064 758.543, 1245.048 749.371, 1249.032 740.199, 1253.015 731.027, 1256.999 727.922, 1258.347 720.988, 1251.142 714.054, 1243.936 707.120, 1236.731 700.186, 1229.525 693.253, 1222.320 686.318, 1215.114 679.385, 1207.909 672.451, 1200.703 665.517, 1193.498 658.583, 1186.292 651.649, 1179.086 644.715, 1171.881 637.781, 1164.675 630.847, 1157.470 623.913, 1150.264 616.979, 1143.059 614.372, 1140.349 618.219, 1131.119 619.055, 1129.116 619.948, 1126.974 623.796, 1117.744 627.644, 1108.514 628.408, 1106.681 632.256, 1097.451 633.766, 1093.828 634.298, 1092.551 628.760, 1084.225 625.954, 1080.006 624.159, 1077.308 " fill="none" stroke="rgb(0, 119, 0)" stroke-linecap="butt" stroke-linejoin="round" stroke-opacity="1.0" stroke-width="3.0" />
            <path d=" M 596.231, 1121.516 604.189, 1115.461 612.147, 1109.406 619.297, 1103.965 627.256, 1097.910 634.298, 1092.551 630.450, 1101.781 629.287, 1104.571 628.407, 1106.681 624.559, 1115.911 620.711, 1125.141 619.948, 1126.974 616.100, 1136.204 614.372, 1140.349 604.773, 1143.154 595.174, 1145.958 587.561, 1148.182 " fill="none" stroke="rgb(0, 119, 0)" stroke-linecap="butt" stroke-linejoin="round" stroke-opacity="1.0" stroke-width="3.0" />
            <path d=" M 801.705, 565.210 801.750, 565.922 802.371, 575.903 802.993, 585.883 803.615, 595.864 804.236, 605.845 804.858, 615.825 805.480, 625.806 805.798, 630.919 " fill="none" stroke="rgb(0, 119, 0)" stroke-linecap="butt" stroke-linejoin="round" stroke-opacity="1.0" stroke-width="3.0" />
            <path d=" M 872.435, 636.636 862.471, 635.781 852.508, 634.926 842.545, 634.071 832.581, 633.217 822.618, 632.362 812.654, 631.507 805.798, 630.919 799.696, 638.841 793.594, 646.763 792.050, 648.768 " fill="none" stroke="rgb(0, 119, 0)" stroke-linecap="butt" stroke-linejoin="round" stroke-opacity="1.0" stroke-width="3.0" />
            <path d=" M 871.723, 637.564 861.820, 638.957 851.918, 640.349 842.015, 641.742 832.113, 643.134 822.210, 644.527 812.307, 645.919 802.405, 647.312 792.050, 648.768 793.130, 638.826 794.210, 628.885 795.291, 618.943 796.371, 609.002 797.451, 599.060 798.531, 589.119 799.611, 579.177 800.692, 569.236 801.042, 566.015 " fill="none" stroke="rgb(0, 119, 0)" stroke-linecap="butt" stroke-linejoin="round" stroke-opacity="1.0" stroke-width="3.0" />
            <path d=" M 801.705, 565.210 801.042, 566.015 801.750, 565.922 805.114, 565.482 801.705, 565.210 " fill="none" stroke="rgb(0, 119, 0)" stroke-linecap="butt" stroke-linejoin="round" stroke-opacity="1.0" stroke-width="3.0" />
            <path d=" M 794.454, 949.838 796.512, 940.052 798.570, 930.266 800.125, 922.872 802.183, 913.086 804.241, 903.300 804.526, 901.943 804.489, 891.943 804.484, 890.525 804.447, 880.525 804.445, 880.035 804.442, 879.070 794.831, 876.307 785.220, 873.544 784.162, 873.240 774.468, 871.142 764.695, 869.027 754.921, 866.912 749.874, 865.820 740.100, 863.705 730.326, 861.590 720.553, 859.474 710.779, 857.359 701.005, 855.244 691.231, 853.129 681.457, 851.014 677.392, 850.135 " fill="none" stroke="rgb(0, 119, 0)" stroke-linecap="butt" stroke-linejoin="round" stroke-opacity="1.0" stroke-width="3.0" />
            <path d=" M 1300.638, 191.476 1290.693, 190.432 1280.748, 189.388 1270.802, 188.344 1260.857, 187.300 1250.912, 186.256 1249.970, 186.157 1259.449, 189.343 1268.929, 192.528 1278.408, 195.713 1287.887, 198.898 1297.366, 202.083 1306.845, 205.269 1316.324, 208.454 1325.804, 211.639 1334.212, 214.464 " fill="none" stroke="rgb(0, 119, 0)" stroke-linecap="butt" stroke-linejoin="round" stroke-opacity="1.0" stroke-width="3.0" />
            <path d=" M 1746.409, 496.697 1736.623, 498.754 1726.837, 500.812 1717.051, 502.869 1707.265, 504.927 1697.479, 506.984 1687.693, 509.042 1677.906, 511.099 1668.120, 513.156 1658.334, 515.214 1648.548, 517.271 1638.762, 519.329 1628.976, 521.386 1619.190, 523.444 1609.404, 525.501 1599.618, 527.558 1589.832, 529.616 1580.046, 531.673 1570.260, 533.731 1560.474, 535.788 1550.688, 537.846 1540.902, 539.903 1531.115, 541.961 1521.329, 544.018 1511.543, 546.075 1501.757, 548.133 1491.971, 550.190 1482.185, 552.248 1472.399, 554.305 1462.613, 556.362 1452.827, 558.420 1448.620, 559.304 " fill="none" stroke="rgb(0, 119, 0)" stroke-linecap="butt" stroke-linejoin="round" stroke-opacity="1.0" stroke-width="3.0" />
            <path d=" M 1054.639, 1307.285 1059.299, 1298.438 1063.960, 1289.590 1068.620, 1280.742 1073.280, 1271.895 1077.941, 1263.047 1082.601, 1254.199 1087.261, 1245.352 1091.922, 1236.504 1096.582, 1227.656 1101.242, 1218.809 1105.902, 1209.961 1110.563, 1201.113 1115.223, 1192.266 1119.883, 1183.418 1124.544, 1174.570 1129.204, 1165.722 1133.864, 1156.875 1138.525, 1148.027 1143.185, 1139.179 1147.845, 1130.332 1152.505, 1121.484 1157.166, 1112.636 1161.826, 1103.789 1166.486, 1094.941 1171.147, 1086.093 1175.807, 1077.246 1180.467, 1068.398 1185.128, 1059.550 1189.788, 1050.703 1194.448, 1041.855 1199.109, 1033.007 1203.769, 1024.160 1208.429, 1015.312 1213.089, 1006.464 1217.750, 997.616 1222.410, 988.769 1227.070, 979.921 1231.731, 971.073 1236.391, 962.226 1241.051, 953.378 1245.712, 944.530 1250.372, 935.683 1255.032, 926.835 1259.693, 917.987 1264.353, 909.140 1269.013, 900.292 1273.673, 891.444 1278.334, 882.597 1282.994, 873.749 1287.654, 864.901 1292.315, 856.053 1296.975, 847.206 1301.635, 838.358 1306.296, 829.510 1310.956, 820.663 1315.616, 811.815 1320.276, 802.967 1324.937, 794.120 1329.597, 785.272 1334.257, 776.424 1338.918, 767.577 1343.578, 758.729 1348.238, 749.881 1352.899, 741.034 1357.559, 732.186 1362.219, 723.338 1366.880, 714.490 1371.540, 705.643 1376.200, 696.795 1380.860, 687.947 1385.521, 679.100 1390.181, 670.252 1394.841, 661.404 1399.502, 652.557 1404.162, 643.709 1408.822, 634.861 1413.483, 626.014 1418.143, 617.166 1422.803, 608.318 1427.464, 599.471 1432.124, 590.623 1436.784, 581.775 1441.444, 572.927 1448.620, 559.304 1440.240, 553.848 1431.859, 548.392 1423.479, 542.936 1415.098, 537.480 1406.718, 532.024 1398.337, 526.568 1389.957, 521.112 1381.577, 515.656 1373.196, 510.200 1364.816, 504.744 1356.435, 499.288 1348.055, 493.832 1339.674, 488.376 1331.294, 482.920 1322.913, 477.464 1314.533, 472.008 1306.152, 466.552 1297.772, 461.096 1289.392, 455.640 1281.011, 450.184 1272.631, 444.728 1264.250, 439.272 1255.870, 433.816 1247.489, 428.360 1239.109, 422.904 1230.728, 417.448 1222.348, 411.992 1213.968, 406.536 1205.587, 401.080 1197.207, 395.624 1188.826, 390.168 1180.446, 384.712 1172.065, 379.256 1163.685, 373.800 1155.304, 368.344 1146.924, 362.888 1138.543, 357.432 1130.163, 351.976 1121.783, 346.520 1113.402, 341.064 1105.022, 335.608 1096.641, 330.152 1088.261, 324.696 1079.880, 319.240 1071.500, 313.784 1063.120, 308.328 1054.739, 302.872 1046.359, 297.416 1037.978, 291.960 1029.598, 286.504 1021.217, 281.048 1012.837, 275.592 1004.456, 270.136 996.076, 264.680 987.695, 259.224 979.315, 253.768 970.935, 248.312 962.554, 242.856 954.174, 237.400 945.793, 231.943 937.413, 226.488 929.032, 221.031 920.652, 215.575 912.271, 210.120 903.891, 204.663 895.510, 199.207 887.130, 193.751 878.750, 188.295 872.677, 184.342 " fill="none" stroke="rgb(0, 119, 0)" stroke-linecap="butt" stroke-linejoin="round" stroke-opacity="1.0" stroke-width="3.0" />
            <path d=" M 1481.611, 315.389 1482.765, 325.322 1483.919, 335.255 1485.074, 345.188 1486.228, 355.121 1487.382, 365.055 1488.536, 374.988 1488.942, 378.480 1488.973, 368.480 1489.004, 358.480 1489.035, 348.480 1489.066, 338.480 1489.097, 328.480 1489.121, 320.531 " fill="none" stroke="rgb(0, 119, 0)" stroke-linecap="butt" stroke-linejoin="round" stroke-opacity="1.0" stroke-width="3.0" />
            <path d=" M 999.103, 960.059 1006.989, 953.911 1014.876, 947.762 1022.762, 941.613 1030.648, 935.465 1038.535, 929.316 1046.421, 923.167 1054.307, 917.019 1062.193, 910.870 1070.080, 904.721 1077.966, 898.573 1085.852, 892.424 1093.739, 886.275 1101.625, 880.127 1109.511, 873.978 1112.359, 871.758 1120.245, 865.609 1128.131, 859.461 1136.018, 853.312 1143.904, 847.164 1151.790, 841.015 1159.677, 834.866 1167.563, 828.718 1175.449, 822.569 1183.336, 816.420 1191.222, 810.272 1195.507, 806.930 1185.994, 810.011 1176.480, 813.092 1166.967, 816.173 1157.453, 819.254 1147.939, 822.335 1138.426, 825.416 1128.912, 828.497 1119.399, 831.578 1109.885, 834.658 1100.371, 837.739 1090.858, 840.820 1081.344, 843.901 1071.831, 846.982 1062.317, 850.063 1052.804, 853.144 1043.290, 856.225 1033.776, 859.305 1031.021, 860.198 " fill="none" stroke="rgb(0, 119, 0)" stroke-linecap="butt" stroke-linejoin="round" stroke-opacity="1.0" stroke-width="3.0" />
            <path d=" M 1042.680, 693.485 1043.396, 703.459 1044.113, 713.433 1044.830, 723.407 1045.546, 733.382 1046.263, 743.356 1046.979, 753.330 1047.696, 763.305 1048.413, 773.279 1048.785, 778.456 1051.231, 768.760 1053.678, 759.064 1056.125, 749.368 1058.571, 739.672 1061.018, 729.976 1063.465, 720.280 1065.911, 710.584 1068.358, 700.888 1070.805, 691.192 1073.251, 681.496 1075.698, 671.800 1078.145, 662.104 1080.592, 652.408 1083.038, 642.712 1085.485, 633.015 1087.932, 623.319 1090.378, 613.623 1092.825, 603.927 1095.272, 594.231 1097.718, 584.535 1100.165, 574.839 1102.612, 565.143 1105.058, 555.447 1107.505, 545.751 1109.952, 536.055 1112.399, 526.359 1114.845, 516.663 1117.292, 506.967 1119.739, 497.271 1122.185, 487.574 1124.632, 477.878 1127.079, 468.182 1128.023, 464.439 1137.813, 466.479 1144.774, 467.930 1135.135, 465.265 1125.497, 462.600 1120.741, 461.285 1128.023, 464.439 " fill="none" stroke="rgb(0, 119, 0)" stroke-linecap="butt" stroke-linejoin="round" stroke-opacity="1.0" stroke-width="3.0" />
            <path d=" M 746.064, 1156.251 737.342, 1151.361 728.619, 1146.471 719.896, 1141.580 711.173, 1136.690 709.168, 1135.566 700.446, 1130.676 691.723, 1125.786 690.841, 1125.292 " fill="none" stroke="rgb(0, 119, 0)" stroke-linecap="butt" stroke-linejoin="round" stroke-opacity="1.0" stroke-width="3.0" />
            <path d=" M 576.845, 1121.297 579.520, 1121.649 586.626, 1122.585 596.541, 1123.891 606.455, 1125.197 611.537, 1125.866 619.948, 1126.974 619.948, 1126.974 629.862, 1128.280 639.776, 1129.586 649.691, 1130.891 659.605, 1132.197 669.520, 1133.503 679.434, 1134.809 682.624, 1135.229 683.895, 1135.396 693.810, 1136.702 701.200, 1137.676 704.806, 1138.151 706.062, 1138.316 709.168, 1135.566 713.234, 1131.967 703.651, 1129.110 697.571, 1127.298 690.841, 1125.292 690.649, 1125.434 690.331, 1125.669 697.042, 1133.083 701.200, 1137.676 707.842, 1145.014 710.900, 1148.392 717.610, 1155.806 724.321, 1163.220 730.438, 1169.978 737.951, 1163.378 739.398, 1162.107 743.982, 1158.081 746.064, 1156.251 738.215, 1154.481 732.937, 1158.997 729.136, 1162.250 721.788, 1155.467 717.635, 1151.633 710.287, 1144.851 707.010, 1141.826 704.806, 1138.151 702.190, 1133.788 694.089, 1127.924 690.649, 1125.434 690.179, 1125.094 680.596, 1122.237 671.012, 1119.381 661.429, 1116.524 651.846, 1113.668 642.262, 1110.811 632.679, 1107.954 628.408, 1106.681 628.407, 1106.681 619.297, 1103.965 615.947, 1102.967 606.364, 1100.110 601.267, 1098.591 591.684, 1095.734 582.101, 1092.878 572.517, 1090.021 562.934, 1087.164 553.351, 1084.308 546.265, 1082.196 537.618, 1077.172 528.971, 1072.149 520.324, 1067.126 511.677, 1062.103 503.030, 1057.080 494.383, 1052.057 485.736, 1047.034 477.089, 1042.011 468.443, 1036.988 459.796, 1031.965 451.149, 1026.942 445.815, 1023.843 451.776, 1031.873 457.736, 1039.902 463.697, 1047.932 468.778, 1054.776 " fill="none" stroke="rgb(0, 119, 0)" stroke-linecap="butt" stroke-linejoin="round" stroke-opacity="1.0" stroke-width="3.0" />
            <path d=" M 583.678, 1114.943 588.090, 1117.254 589.067, 1117.765 596.231, 1121.516 589.736, 1116.443 589.067, 1117.765 586.626, 1122.585 582.109, 1131.507 579.779, 1136.110 " fill="none" stroke="rgb(0, 119, 0)" stroke-linecap="butt" stroke-linejoin="round" stroke-opacity="1.0" stroke-width="3.0" />
            <path d=" M 905.496, 1252.928 896.316, 1248.961 887.137, 1244.993 877.958, 1241.025 868.779, 1237.058 859.600, 1233.090 852.673, 1230.096 843.494, 1226.129 834.315, 1222.161 825.136, 1218.193 822.749, 1217.162 813.570, 1213.194 804.391, 1209.226 795.211, 1205.259 786.032, 1201.291 776.853, 1197.323 767.992, 1193.493 758.813, 1189.525 749.634, 1185.558 740.454, 1181.590 731.275, 1177.622 722.096, 1173.655 712.917, 1169.687 703.738, 1165.719 698.350, 1163.391 693.616, 1161.345 684.437, 1157.377 675.258, 1153.409 666.079, 1149.442 656.900, 1145.474 647.720, 1141.506 638.541, 1137.539 629.362, 1133.571 620.183, 1129.603 619.055, 1129.116 611.537, 1125.866 602.358, 1121.898 593.178, 1117.931 589.736, 1116.443 " fill="none" stroke="rgb(0, 119, 0)" stroke-linecap="butt" stroke-linejoin="round" stroke-opacity="1.0" stroke-width="3.0" />
            <path d=" M 713.234, 1131.967 704.562, 1126.987 695.891, 1122.007 691.591, 1119.538 697.571, 1127.298 703.675, 1135.218 706.062, 1138.316 " fill="none" stroke="rgb(0, 119, 0)" stroke-linecap="butt" stroke-linejoin="round" stroke-opacity="1.0" stroke-width="3.0" />
            <path d=" M 412.542, 966.859 421.377, 971.543 430.212, 976.228 439.047, 980.912 447.882, 985.596 456.717, 990.280 465.552, 994.964 474.387, 999.648 483.222, 1004.333 492.057, 1009.017 500.893, 1013.701 509.728, 1018.385 518.563, 1023.069 527.398, 1027.753 536.233, 1032.438 545.068, 1037.122 553.903, 1041.806 562.738, 1046.490 571.573, 1051.174 580.408, 1055.858 589.243, 1060.543 598.078, 1065.227 606.914, 1069.911 615.749, 1074.595 622.963, 1078.420 625.954, 1080.006 634.789, 1084.690 643.624, 1089.374 652.459, 1094.058 661.294, 1098.743 670.129, 1103.427 678.964, 1108.111 687.800, 1112.795 696.635, 1117.479 705.470, 1122.163 714.305, 1126.848 723.140, 1131.532 731.975, 1136.216 740.810, 1140.900 749.645, 1145.584 758.480, 1150.268 767.315, 1154.953 776.150, 1159.637 784.985, 1164.321 793.820, 1169.005 802.656, 1173.689 811.491, 1178.373 820.326, 1183.058 829.161, 1187.742 837.996, 1192.426 846.831, 1197.110 856.776, 1202.383 865.611, 1207.067 874.446, 1211.751 882.916, 1216.242 891.751, 1220.926 900.586, 1225.610 909.421, 1230.294 918.256, 1234.978 927.091, 1239.662 935.926, 1244.347 944.761, 1249.031 953.597, 1253.715 962.432, 1258.399 971.267, 1263.083 980.102, 1267.767 988.937, 1272.452 997.772, 1277.136 1006.607, 1281.820 1015.442, 1286.504 1024.277, 1291.188 1033.112, 1295.872 1041.947, 1300.557 1050.782, 1305.241 1054.639, 1307.285 1062.470, 1313.504 1070.302, 1319.722 1078.133, 1325.941 1085.965, 1332.159 1093.796, 1338.378 1101.627, 1344.596 1109.459, 1350.815 1111.145, 1352.154 1118.977, 1358.372 1126.808, 1364.591 1134.639, 1370.809 1142.471, 1377.028 1150.302, 1383.246 1158.133, 1389.465 1165.965, 1395.683 1173.796, 1401.902 1181.628, 1408.120 1185.942, 1411.546 1193.773, 1417.765 1201.605, 1423.983 1209.436, 1430.202 1217.267, 1436.420 1225.099, 1442.638 1232.930, 1448.857 1240.762, 1455.075 1248.593, 1461.294 1255.363, 1466.670 " fill="none" stroke="rgb(0, 119, 0)" stroke-linecap="butt" stroke-linejoin="round" stroke-opacity="1.0" stroke-width="3.0" />
            <path d=" M 836.811, 314.939 841.859, 306.306 842.582, 305.070 " fill="none" stroke="rgb(0, 119, 0)" stroke-linecap="butt" stroke-linejoin="round" stroke-opacity="1.0" stroke-width="3.0" />
            <path d=" M 548.904, 744.905 554.207, 736.427 556.231, 733.190 548.639, 736.220 548.016, 736.468 545.083, 737.639 545.711, 740.389 545.832, 740.918 547.691, 749.055 548.904, 744.905 " fill="none" stroke="rgb(0, 119, 0)" stroke-linecap="butt" stroke-linejoin="round" stroke-opacity="1.0" stroke-width="3.0" />
            <path d=" M 621.184, 598.100 630.734, 595.796 640.455, 593.452 650.177, 591.107 651.868, 590.699 661.589, 588.354 670.014, 586.322 674.958, 577.630 679.902, 568.937 684.847, 560.245 689.791, 551.553 694.735, 542.861 699.680, 534.169 704.624, 525.477 709.568, 516.785 714.513, 508.092 719.457, 499.400 724.402, 490.708 729.346, 482.016 734.290, 473.324 739.235, 464.632 744.179, 455.940 749.123, 447.247 754.068, 438.555 759.012, 429.863 763.956, 421.171 768.901, 412.479 773.845, 403.787 778.789, 395.095 783.734, 386.402 788.678, 377.710 793.623, 369.018 798.567, 360.326 803.511, 351.634 808.456, 342.942 813.400, 334.250 816.175, 329.372 824.370, 323.640 832.564, 317.909 836.811, 314.939 846.429, 317.676 856.047, 320.414 865.665, 323.151 875.283, 325.889 884.901, 328.626 894.519, 331.364 904.137, 334.101 913.755, 336.839 923.373, 339.576 932.991, 342.314 942.609, 345.051 951.168, 347.488 960.786, 350.225 970.404, 352.963 980.022, 355.700 989.640, 358.438 999.258, 361.175 1008.876, 363.913 1018.494, 366.650 1028.112, 369.388 1037.730, 372.125 1047.348, 374.863 1056.966, 377.600 1066.584, 380.338 1071.209, 381.654 " fill="none" stroke="rgb(0, 119, 0)" stroke-linecap="butt" stroke-linejoin="round" stroke-opacity="1.0" stroke-width="3.0" />
            <path d=" M 713.342, 494.493 709.075, 503.537 704.808, 512.581 700.541, 521.625 696.273, 530.669 692.006, 539.712 687.739, 548.756 683.471, 557.800 679.204, 566.844 674.937, 575.888 670.670, 584.931 670.014, 586.322 " fill="none" stroke="rgb(0, 119, 0)" stroke-linecap="butt" stroke-linejoin="round" stroke-opacity="1.0" stroke-width="3.0" />
            <path d=" M 535.701, 813.046 540.101, 804.067 544.501, 795.087 548.901, 786.107 553.302, 777.127 557.702, 768.147 562.102, 759.167 566.502, 750.187 570.902, 741.207 575.302, 732.227 579.703, 723.247 584.103, 714.268 588.503, 705.288 592.903, 696.308 597.303, 687.328 601.703, 678.348 606.103, 669.368 610.504, 660.388 614.546, 652.139 618.946, 643.159 620.919, 639.133 626.303, 630.707 631.688, 622.280 635.496, 616.321 640.880, 607.894 646.265, 599.467 651.649, 591.041 651.868, 590.699 657.253, 582.272 662.637, 573.846 668.021, 565.419 673.406, 556.992 678.791, 548.566 684.175, 540.139 689.560, 531.713 694.944, 523.286 700.329, 514.860 705.713, 506.433 711.098, 498.006 713.342, 494.493 703.677, 491.929 694.011, 489.366 693.411, 489.206 683.745, 486.643 674.080, 484.079 664.414, 481.515 654.748, 478.951 650.432, 477.806 " fill="none" stroke="rgb(0, 119, 0)" stroke-linecap="butt" stroke-linejoin="round" stroke-opacity="1.0" stroke-width="3.0" />
            <path d=" M 1424.629, 727.303 1417.661, 734.476 1416.936, 735.223 " fill="none" stroke="rgb(0, 119, 0)" stroke-linecap="butt" stroke-linejoin="round" stroke-opacity="1.0" stroke-width="3.0" />
            <path d=" M 1424.629, 727.303 1424.447, 732.791 1424.116, 742.785 1423.785, 752.780 1423.455, 762.774 1423.124, 772.769 1422.996, 776.629 1423.885, 766.669 1424.774, 756.708 1425.662, 746.748 1426.551, 736.787 1426.981, 731.970 1424.629, 727.303 " fill="none" stroke="rgb(0, 119, 0)" stroke-linecap="butt" stroke-linejoin="round" stroke-opacity="1.0" stroke-width="3.0" />
            <path d=" M 971.257, 706.846 981.214, 707.765 991.172, 708.683 1001.130, 709.602 1011.088, 710.521 1021.045, 711.440 1023.691, 711.684 1013.691, 711.632 1003.691, 711.580 993.692, 711.528 983.692, 711.476 973.692, 711.425 967.734, 711.394 " fill="none" stroke="rgb(0, 119, 0)" stroke-linecap="butt" stroke-linejoin="round" stroke-opacity="1.0" stroke-width="3.0" />
            <path d=" M 967.734, 711.394 971.257, 706.846 969.921, 696.935 968.585, 687.025 967.249, 677.115 965.913, 667.204 964.577, 657.294 963.241, 647.384 961.905, 637.473 960.569, 627.563 959.233, 617.653 957.897, 607.742 956.994, 601.046 955.822, 610.977 954.650, 620.908 953.866, 627.557 955.498, 637.422 957.130, 647.288 958.762, 657.154 960.394, 667.020 962.026, 676.886 963.658, 686.752 965.290, 696.618 966.922, 706.484 967.734, 711.394 " fill="none" stroke="rgb(0, 119, 0)" stroke-linecap="butt" stroke-linejoin="round" stroke-opacity="1.0" stroke-width="3.0" />
            <path d=" M 696.464, 734.521 696.535, 724.522 696.606, 714.522 696.677, 704.522 696.748, 694.522 696.818, 684.523 696.839, 681.615 696.904, 672.433 " fill="none" stroke="rgb(0, 119, 0)" stroke-linecap="butt" stroke-linejoin="round" stroke-opacity="1.0" stroke-width="3.0" />
            <path d=" M 730.438, 1169.978 729.136, 1162.250 " fill="none" stroke="rgb(0, 119, 0)" stroke-linecap="butt" stroke-linejoin="round" stroke-opacity="1.0" stroke-width="3.0" />
            <path d=" M 690.179, 1125.094 690.331, 1125.669 " fill="none" stroke="rgb(0, 119, 0)" stroke-linecap="butt" stroke-linejoin="round" stroke-opacity="1.0" stroke-width="3.0" />
            <path d=" M 816.175, 329.372 806.999, 325.397 797.822, 321.423 793.239, 319.437 784.062, 315.463 774.886, 311.489 765.710, 307.514 756.534, 303.540 747.357, 299.565 738.181, 295.591 729.005, 291.616 719.828, 287.642 710.652, 283.668 701.476, 279.693 698.874, 278.566 " fill="none" stroke="rgb(0, 119, 0)" stroke-linecap="butt" stroke-linejoin="round" stroke-opacity="1.0" stroke-width="3.0" />
            <path d=" M 949.167, 833.633 952.840, 842.933 956.514, 852.234 960.187, 861.535 963.861, 870.836 967.535, 880.136 971.208, 889.437 974.882, 898.738 978.556, 908.039 982.229, 917.339 985.903, 926.640 989.577, 935.941 993.250, 945.242 996.924, 954.543 999.103, 960.059 1002.147, 950.534 1005.192, 941.009 1008.236, 931.484 1011.281, 921.958 1014.325, 912.433 1017.370, 902.908 1020.414, 893.382 1023.459, 883.857 1026.503, 874.332 1029.548, 864.807 1031.021, 860.198 1025.777, 851.683 1020.533, 843.168 1015.289, 834.654 1010.045, 826.139 1004.801, 817.624 999.557, 809.109 994.313, 800.595 989.069, 792.080 983.825, 783.565 978.581, 775.051 973.337, 766.536 968.093, 758.021 962.849, 749.506 957.605, 740.992 952.361, 732.477 947.117, 723.962 941.873, 715.447 936.629, 706.933 931.385, 698.418 926.141, 689.903 920.897, 681.389 915.653, 672.874 910.409, 664.359 905.165, 655.844 899.921, 647.330 894.677, 638.815 889.433, 630.300 884.189, 621.786 878.945, 613.271 873.701, 604.756 868.457, 596.241 863.058, 587.474 860.034, 582.565 " fill="none" stroke="rgb(0, 119, 0)" stroke-linecap="butt" stroke-linejoin="round" stroke-opacity="1.0" stroke-width="3.0" />
            <path d=" M 881.760, 574.031 872.452, 577.688 863.144, 581.344 860.034, 582.565 855.517, 591.487 854.397, 593.700 862.517, 587.863 863.058, 587.474 871.178, 581.638 879.298, 575.801 881.760, 574.031 " fill="none" stroke="rgb(0, 119, 0)" stroke-linecap="butt" stroke-linejoin="round" stroke-opacity="1.0" stroke-width="3.0" />
            <path d=" M 670.171, 1000.683 678.751, 995.546 687.330, 990.408 695.910, 985.271 704.490, 980.134 713.069, 974.997 721.649, 969.860 730.229, 964.723 738.808, 959.586 747.388, 954.449 755.967, 949.312 764.547, 944.174 773.127, 939.037 781.706, 933.900 784.533, 932.208 793.113, 927.070 800.125, 922.872 808.704, 917.735 817.284, 912.598 825.864, 907.461 834.443, 902.324 843.023, 897.187 851.602, 892.050 860.182, 886.912 868.762, 881.775 877.341, 876.638 885.921, 871.501 894.501, 866.364 903.080, 861.227 911.660, 856.090 920.240, 850.953 928.819, 845.816 937.399, 840.678 945.978, 835.541 949.167, 833.633 949.605, 831.252 " fill="none" stroke="rgb(0, 119, 0)" stroke-linecap="butt" stroke-linejoin="round" stroke-opacity="1.0" stroke-width="3.0" />
            <path d=" M 657.128, 950.711 666.386, 946.930 675.644, 943.149 684.901, 939.368 694.159, 935.587 703.416, 931.805 712.674, 928.024 721.932, 924.243 731.189, 920.462 740.447, 916.681 749.704, 912.900 758.962, 909.118 769.190, 904.941 778.448, 901.159 787.706, 897.378 796.963, 893.597 804.484, 890.525 813.742, 886.744 822.999, 882.963 832.257, 879.182 841.514, 875.400 850.772, 871.619 860.030, 867.838 869.287, 864.057 878.545, 860.276 887.802, 856.495 897.060, 852.713 906.317, 848.932 915.575, 845.151 924.833, 841.370 934.090, 837.589 943.348, 833.807 949.605, 831.252 947.210, 828.679 943.536, 819.378 939.862, 810.077 936.189, 800.776 932.515, 791.475 928.842, 782.175 925.168, 772.874 921.494, 763.573 917.821, 754.272 914.147, 744.972 910.473, 735.671 906.800, 726.370 903.126, 717.069 899.452, 707.769 895.779, 698.468 892.105, 689.167 888.431, 679.866 884.758, 670.565 881.084, 661.265 877.411, 651.964 873.737, 642.663 871.723, 637.564 872.435, 636.636 868.434, 629.238 864.760, 619.937 861.087, 610.636 857.413, 601.336 854.397, 593.700 " fill="none" stroke="rgb(0, 119, 0)" stroke-linecap="butt" stroke-linejoin="round" stroke-opacity="1.0" stroke-width="3.0" />
            <path d=" M 548.904, 744.905 546.143, 739.654 545.083, 737.639 " fill="none" stroke="rgb(0, 119, 0)" stroke-linecap="butt" stroke-linejoin="round" stroke-opacity="1.0" stroke-width="3.0" />
            <path d=" M 670.171, 1000.683 667.646, 991.007 665.120, 981.331 662.595, 971.655 660.069, 961.979 657.544, 952.303 657.128, 950.711 652.474, 941.861 647.820, 933.010 643.166, 924.159 638.511, 915.308 633.857, 906.457 629.203, 897.606 624.548, 888.755 619.894, 879.905 618.194, 876.671 622.059, 885.893 625.925, 895.116 629.790, 904.339 633.656, 913.561 637.521, 922.784 641.387, 932.007 645.252, 941.229 649.118, 950.452 652.983, 959.675 656.849, 968.897 660.714, 978.120 664.580, 987.343 668.445, 996.565 670.171, 1000.683 " fill="none" stroke="rgb(0, 119, 0)" stroke-linecap="butt" stroke-linejoin="round" stroke-opacity="1.0" stroke-width="3.0" />
            <path d=" M 725.177, 1211.429 734.400, 1207.566 743.623, 1203.702 752.847, 1199.838 762.070, 1195.974 767.992, 1193.493 777.215, 1189.629 786.439, 1185.765 787.573, 1185.290 778.562, 1180.954 769.551, 1176.618 760.540, 1172.281 751.529, 1167.945 742.518, 1163.608 739.398, 1162.107 732.937, 1158.997 723.926, 1154.661 717.635, 1151.633 710.900, 1148.392 708.411, 1147.195 699.400, 1142.858 690.389, 1138.522 683.895, 1135.396 682.284, 1134.621 682.624, 1135.229 687.499, 1143.960 692.375, 1152.691 697.251, 1161.422 698.350, 1163.391 703.226, 1172.122 708.101, 1180.853 712.977, 1189.583 717.853, 1198.314 722.728, 1207.045 725.177, 1211.429 " fill="none" stroke="rgb(0, 119, 0)" stroke-linecap="butt" stroke-linejoin="round" stroke-opacity="1.0" stroke-width="3.0" />
            <path d=" M 1392.820, 1114.814 1385.172, 1121.257 1377.525, 1127.701 1369.878, 1134.144 1362.231, 1140.588 1354.583, 1147.032 1346.936, 1153.475 1339.289, 1159.919 1333.317, 1164.951 1325.669, 1171.395 1318.022, 1177.838 1315.708, 1179.788 1313.063, 1187.751 1306.519, 1187.531 1298.872, 1193.974 1291.225, 1200.418 1283.578, 1206.862 1275.930, 1213.305 1273.399, 1215.438 1265.752, 1221.882 1258.104, 1228.325 1250.457, 1234.769 1242.810, 1241.212 1235.163, 1247.656 1227.516, 1254.100 1219.868, 1260.543 1212.221, 1266.987 1204.574, 1273.430 1196.927, 1279.874 1189.279, 1286.318 1181.632, 1292.761 1173.985, 1299.205 1166.338, 1305.648 1158.691, 1312.092 1151.043, 1318.536 1143.396, 1324.979 1135.749, 1331.423 1128.102, 1337.866 1120.454, 1344.310 1112.807, 1350.754 1111.145, 1352.154 1103.498, 1358.598 1095.851, 1365.041 1088.203, 1371.485 1082.603, 1376.204 1091.462, 1380.843 1100.320, 1385.482 1109.179, 1390.121 1118.038, 1394.760 1126.897, 1399.399 1135.756, 1404.038 1144.615, 1408.677 1153.474, 1413.316 1160.255, 1416.867 " fill="none" stroke="rgb(0, 119, 0)" stroke-linecap="butt" stroke-linejoin="round" stroke-opacity="1.0" stroke-width="3.0" />
            <path d=" M 725.177, 1211.429 722.651, 1201.754 720.126, 1192.078 717.600, 1182.402 715.075, 1172.726 712.549, 1163.050 710.024, 1153.374 708.411, 1147.195 707.842, 1145.014 707.010, 1141.826 " fill="none" stroke="rgb(0, 119, 0)" stroke-linecap="butt" stroke-linejoin="round" stroke-opacity="1.0" stroke-width="3.0" />
            <path d=" M 738.215, 1154.481 743.982, 1158.081 752.464, 1163.376 760.948, 1168.671 769.431, 1173.966 777.914, 1179.261 786.397, 1184.556 787.573, 1185.290 " fill="none" stroke="rgb(0, 119, 0)" stroke-linecap="butt" stroke-linejoin="round" stroke-opacity="1.0" stroke-width="3.0" />
            <path d=" M 831.320, 1485.000 834.365, 1475.475 837.409, 1465.949 840.454, 1456.424 843.498, 1446.899 846.543, 1437.373 849.587, 1427.848 852.632, 1418.323 855.676, 1408.798 858.721, 1399.272 861.765, 1389.747 864.810, 1380.222 867.854, 1370.696 870.899, 1361.171 873.943, 1351.646 876.988, 1342.121 880.032, 1332.595 883.077, 1323.070 886.121, 1313.545 889.166, 1304.019 892.210, 1294.494 895.255, 1284.969 898.299, 1275.444 901.344, 1265.918 904.388, 1256.393 905.496, 1252.928 913.703, 1258.641 921.911, 1264.354 930.118, 1270.067 938.326, 1275.780 946.533, 1281.493 950.962, 1284.575 959.170, 1290.288 967.377, 1296.001 975.585, 1301.714 983.792, 1307.427 992.000, 1313.140 1000.207, 1318.853 1008.415, 1324.565 1016.622, 1330.278 1024.830, 1335.991 1033.037, 1341.704 1041.245, 1347.417 1049.452, 1353.130 1057.660, 1358.843 1065.867, 1364.555 1074.075, 1370.268 1082.603, 1376.204 " fill="none" stroke="rgb(0, 119, 0)" stroke-linecap="butt" stroke-linejoin="round" stroke-opacity="1.0" stroke-width="3.0" />
            <path d=" M 752.166, 874.685 761.667, 877.804 771.168, 880.924 772.645, 881.409 774.000, 873.782 774.468, 871.142 776.216, 861.296 777.965, 851.450 779.713, 841.604 781.461, 831.758 783.209, 821.912 784.957, 812.066 786.705, 802.220 788.453, 792.374 790.202, 782.528 791.950, 772.682 793.698, 762.836 794.977, 755.629 " fill="none" stroke="rgb(0, 119, 0)" stroke-linecap="butt" stroke-linejoin="round" stroke-opacity="1.0" stroke-width="3.0" />
            <path d=" M 772.645, 881.409 782.618, 880.675 792.592, 879.941 802.565, 879.208 804.442, 879.070 " fill="none" stroke="rgb(0, 119, 0)" stroke-linecap="butt" stroke-linejoin="round" stroke-opacity="1.0" stroke-width="3.0" />
            <path d=" M 1306.519, 1187.531 1313.592, 1190.814 " fill="none" stroke="rgb(0, 119, 0)" stroke-linecap="butt" stroke-linejoin="round" stroke-opacity="1.0" stroke-width="3.0" />
            <path d=" M 1315.708, 1179.788 1313.823, 1189.609 1313.592, 1190.814 1313.063, 1187.751 " fill="none" stroke="rgb(0, 119, 0)" stroke-linecap="butt" stroke-linejoin="round" stroke-opacity="1.0" stroke-width="3.0" />
            <path d=" M 424.204, 994.732 424.961, 992.672 429.756, 985.332 " fill="none" stroke="rgb(0, 119, 0)" stroke-linecap="butt" stroke-linejoin="round" stroke-opacity="1.0" stroke-width="3.0" />
            <path d=" M 1426.981, 731.970 1424.447, 732.791 1416.936, 735.223 1418.384, 745.117 1419.832, 755.012 1421.281, 764.907 1422.729, 774.801 1422.996, 776.629 " fill="none" stroke="rgb(0, 119, 0)" stroke-linecap="butt" stroke-linejoin="round" stroke-opacity="1.0" stroke-width="3.0" />
            <path d=" M 620.919, 639.133 611.143, 637.026 607.013, 636.136 597.238, 634.029 587.463, 631.922 577.687, 629.815 567.911, 627.708 558.136, 625.601 548.361, 623.494 538.585, 621.387 528.810, 619.280 519.034, 617.173 509.259, 615.066 499.483, 612.959 489.708, 610.852 479.932, 608.745 470.157, 606.638 460.381, 604.531 450.719, 602.448 " fill="none" stroke="rgb(0, 119, 0)" stroke-linecap="butt" stroke-linejoin="round" stroke-opacity="1.0" stroke-width="3.0" />
            <path d=" M 546.265, 1082.196 538.779, 1088.827 536.931, 1090.464 " fill="none" stroke="rgb(0, 119, 0)" stroke-linecap="butt" stroke-linejoin="round" stroke-opacity="1.0" stroke-width="3.0" />
            <path d=" M 422.200, 992.032 424.961, 992.672 " fill="none" stroke="rgb(0, 119, 0)" stroke-linecap="butt" stroke-linejoin="round" stroke-opacity="1.0" stroke-width="3.0" />
            <path d=" M 680.824, 1292.845 686.990, 1300.718 689.659, 1304.126 690.035, 1304.605 " fill="none" stroke="rgb(0, 119, 0)" stroke-linecap="butt" stroke-linejoin="round" stroke-opacity="1.0" stroke-width="3.0" />
            <path d=" M 805.688, 298.266 800.619, 306.886 795.550, 315.506 793.239, 319.437 788.170, 328.058 783.101, 336.678 778.032, 345.298 772.963, 353.918 767.895, 362.538 762.826, 371.158 757.757, 379.778 752.688, 388.399 747.619, 397.019 742.550, 405.639 737.482, 414.259 732.413, 422.879 727.344, 431.499 722.275, 440.120 717.206, 448.740 712.138, 457.360 707.069, 465.980 702.000, 474.600 696.931, 483.220 693.411, 489.206 688.342, 497.827 683.273, 506.447 678.205, 515.067 673.136, 523.687 668.067, 532.307 662.998, 540.927 657.929, 549.548 652.861, 558.168 647.792, 566.788 642.723, 575.408 637.654, 584.028 632.585, 592.648 630.734, 595.796 625.871, 604.067 620.802, 612.687 615.733, 621.307 610.664, 629.927 607.013, 636.136 601.945, 644.756 600.167, 647.779 595.098, 656.400 590.029, 665.020 584.961, 673.640 579.892, 682.260 574.823, 690.880 569.754, 699.500 564.685, 708.120 559.617, 716.741 554.548, 725.361 549.479, 733.981 548.016, 736.468 546.143, 739.654 545.711, 740.389 540.642, 749.009 535.573, 757.629 530.505, 766.249 525.436, 774.869 520.367, 783.489 518.272, 787.053 513.203, 795.673 508.134, 804.293 505.807, 808.251 " fill="none" stroke="rgb(0, 119, 0)" stroke-linecap="butt" stroke-linejoin="round" stroke-opacity="1.0" stroke-width="3.0" />
            <path d=" M 1294.671, 1389.025 1299.187, 1380.103 1303.704, 1371.181 1308.220, 1362.259 1312.737, 1353.337 1317.254, 1344.415 1321.771, 1335.494 1326.287, 1326.572 1330.804, 1317.650 1333.029, 1313.255 1337.545, 1304.333 1342.062, 1295.412 1346.579, 1286.490 1351.095, 1277.568 1355.612, 1268.646 1360.129, 1259.724 1364.645, 1250.802 1369.162, 1241.880 1373.679, 1232.958 1378.195, 1224.037 1382.712, 1215.115 1384.117, 1212.339 " fill="none" stroke="rgb(0, 119, 0)" stroke-linecap="butt" stroke-linejoin="round" stroke-opacity="1.0" stroke-width="3.0" />
        </g>
    </g>
</svg>
