<?xml version='1.0' encoding='ascii'?>
<svg xmlns="http://www.w3.org/2000/svg" xmlns:inkscape="http://www.inkscape.org/namespaces/inkscape" height="297" version="1.1" width="420">
    <g id="fressstylelayer_LineSet" inkscape:groupmode="lineset" inkscape:label="fressstylelayer_LineSet">
        <g id="strokes" inkscape:groupmode="layer" inkscape:label="strokes">
            <path d=" M 201.977, 92.270 201.936, 92.217 200.121, 89.886 199.449, 90.412 191.575, 96.577 189.065, 98.542 181.191, 104.706 178.476, 106.832 173.731, 110.546 170.839, 112.810 163.032, 119.059 155.225, 125.308 147.482, 131.505 145.211, 133.322 151.494, 141.102 157.777, 148.882 164.060, 156.662 170.343, 164.441 176.406, 171.948 183.471, 167.454 189.468, 163.638 " fill="none" stroke="rgb(157, 20, 170)" stroke-linecap="butt" stroke-linejoin="round" stroke-opacity="1.0" stroke-width="3.0" />
            <path d=" M 200.121, 89.886 192.321, 96.144 189.168, 98.673 181.367, 104.931 175.185, 109.890 " fill="none" stroke="rgb(157, 20, 170)" stroke-linecap="butt" stroke-linejoin="round" stroke-opacity="1.0" stroke-width="3.0" />
            <path d=" M 145.211, 133.322 147.503, 131.531 155.382, 125.372 163.260, 119.213 171.138, 113.054 175.185, 109.890 181.392, 117.731 186.913, 124.705 " fill="none" stroke="rgb(157, 20, 170)" stroke-linecap="butt" stroke-linejoin="round" stroke-opacity="1.0" stroke-width="3.0" />
            <path d=" M 178.349, 111.554 186.096, 105.231 191.105, 101.143 197.194, 96.174 201.977, 92.270 " fill="none" stroke="rgb(157, 20, 170)" stroke-linecap="butt" stroke-linejoin="round" stroke-opacity="1.0" stroke-width="3.0" />
            <path d=" M 272.542, 200.522 270.197, 204.305 264.929, 212.805 259.661, 221.304 256.328, 226.680 " fill="none" stroke="rgb(157, 20, 170)" stroke-linecap="butt" stroke-linejoin="round" stroke-opacity="1.0" stroke-width="3.0" />
            <path d=" M 245.039, 231.539 254.225, 227.586 256.328, 226.680 262.554, 234.506 268.779, 242.332 275.004, 250.158 278.545, 254.609 282.487, 259.565 284.403, 261.973 " fill="none" stroke="rgb(157, 20, 170)" stroke-linecap="butt" stroke-linejoin="round" stroke-opacity="1.0" stroke-width="3.0" />
            <path d=" M 272.635, 266.008 280.628, 263.268 284.403, 261.973 288.832, 253.008 293.261, 244.042 297.691, 235.077 298.429, 233.582 296.513, 231.135 290.962, 224.046 286.299, 218.091 285.556, 217.143 285.109, 216.571 284.309, 215.550 280.127, 210.209 278.920, 208.667 277.076, 206.312 276.532, 205.618 272.542, 200.522 268.653, 202.337 " fill="none" stroke="rgb(157, 20, 170)" stroke-linecap="butt" stroke-linejoin="round" stroke-opacity="1.0" stroke-width="3.0" />
            <path d=" M 86.822, 74.968 87.649, 75.988 " fill="none" stroke="rgb(157, 20, 170)" stroke-linecap="butt" stroke-linejoin="round" stroke-opacity="1.0" stroke-width="3.0" />
            <path d=" M 104.628, 65.468 95.805, 70.175 86.822, 74.968 84.147, 77.869 " fill="none" stroke="rgb(157, 20, 170)" stroke-linecap="butt" stroke-linejoin="round" stroke-opacity="1.0" stroke-width="3.0" />
            <path d=" M 221.211, 16.192 216.333, 9.718 207.563, 14.524 199.608, 18.884 192.320, 25.730 185.031, 32.577 177.743, 39.424 176.605, 40.493 182.724, 48.402 183.063, 48.840 " fill="none" stroke="rgb(157, 20, 170)" stroke-linecap="butt" stroke-linejoin="round" stroke-opacity="1.0" stroke-width="3.0" />
            <path d=" M 199.608, 18.884 205.664, 26.841 206.344, 27.734 " fill="none" stroke="rgb(157, 20, 170)" stroke-linecap="butt" stroke-linejoin="round" stroke-opacity="1.0" stroke-width="3.0" />
            <path d=" M 222.798, 76.967 217.609, 81.236 " fill="none" stroke="rgb(157, 20, 170)" stroke-linecap="butt" stroke-linejoin="round" stroke-opacity="1.0" stroke-width="3.0" />
            <path d=" M 187.995, 123.748 181.791, 115.905 178.349, 111.554 186.263, 105.442 191.378, 101.492 197.597, 96.690 205.512, 90.577 213.426, 84.465 216.413, 82.159 217.609, 81.236 223.713, 89.157 224.130, 89.698 226.354, 92.584 " fill="none" stroke="rgb(157, 20, 170)" stroke-linecap="butt" stroke-linejoin="round" stroke-opacity="1.0" stroke-width="3.0" />
            <path d=" M 178.676, 52.817 183.063, 48.840 190.471, 42.123 197.695, 35.575 205.103, 28.858 206.344, 27.734 213.752, 21.017 215.221, 19.686 221.211, 16.192 229.849, 11.153 238.487, 6.115 240.167, 5.135 246.141, 13.154 251.362, 20.164 252.776, 22.061 258.750, 30.081 264.724, 38.100 270.698, 46.120 274.179, 50.794 266.749, 57.486 264.736, 59.299 262.656, 61.172 262.344, 61.453 260.324, 63.272 255.899, 67.258 253.103, 69.776 248.973, 72.836 246.110, 74.958 242.913, 77.326 242.897, 77.338 234.862, 83.292 230.860, 86.257 230.268, 86.695 229.503, 85.699 223.413, 77.768 222.798, 76.967 216.288, 81.997 208.376, 88.112 205.626, 90.237 205.200, 89.689 199.227, 81.999 199.197, 81.960 197.795, 80.155 " fill="none" stroke="rgb(157, 20, 170)" stroke-linecap="butt" stroke-linejoin="round" stroke-opacity="1.0" stroke-width="3.0" />
            <path d=" M 191.426, 135.055 190.837, 134.314 184.742, 126.626 185.758, 125.727 186.913, 124.705 187.995, 123.748 190.256, 121.748 197.745, 115.121 204.174, 109.434 207.866, 106.168 215.925, 100.247 223.983, 94.326 226.354, 92.584 233.803, 85.912 236.524, 83.475 243.595, 78.256 246.812, 75.882 254.858, 69.943 256.829, 68.489 261.600, 64.967 262.905, 64.004 263.777, 63.360 264.114, 63.112 266.355, 61.457 268.455, 59.907 274.266, 67.665 276.696, 70.910 282.691, 78.914 288.685, 86.918 294.680, 94.922 300.675, 102.926 306.961, 111.320 308.729, 113.681 313.162, 119.600 307.670, 127.956 302.177, 136.313 296.685, 144.669 295.600, 146.319 290.975, 153.355 289.625, 155.409 280.807, 160.124 275.297, 163.070 272.543, 164.542 271.138, 165.293 264.030, 169.094 263.255, 169.508 254.436, 174.223 248.900, 177.183 244.152, 179.721 241.766, 180.996 236.427, 183.851 234.463, 184.901 231.992, 186.222 226.339, 179.091 226.085, 178.770 " fill="none" stroke="rgb(157, 20, 170)" stroke-linecap="butt" stroke-linejoin="round" stroke-opacity="1.0" stroke-width="3.0" />
            <path d=" M 175.121, 183.499 181.420, 191.265 187.720, 199.032 194.020, 206.798 200.117, 214.315 201.084, 215.507 201.204, 215.655 207.504, 223.422 208.183, 224.258 " fill="none" stroke="rgb(157, 20, 170)" stroke-linecap="butt" stroke-linejoin="round" stroke-opacity="1.0" stroke-width="3.0" />
            <path d=" M 189.775, 164.022 183.775, 167.831 175.332, 173.192 170.786, 176.078 163.731, 183.165 156.676, 190.252 149.621, 197.339 145.168, 201.811 151.538, 209.520 157.907, 217.229 164.277, 224.938 170.646, 232.647 176.346, 239.546 184.398, 235.680 193.412, 231.351 202.427, 227.022 204.433, 226.059 208.183, 224.258 209.731, 222.215 210.366, 221.379 214.209, 216.308 215.849, 214.145 220.839, 207.562 223.757, 203.712 223.901, 203.522 224.732, 202.425 230.133, 195.299 227.659, 192.191 221.748, 184.764 219.774, 182.283 " fill="none" stroke="rgb(157, 20, 170)" stroke-linecap="butt" stroke-linejoin="round" stroke-opacity="1.0" stroke-width="3.0" />
            <path d=" M 145.168, 201.811 153.700, 196.595 158.561, 193.623 167.093, 188.407 175.121, 183.499 182.041, 176.281 186.679, 171.444 191.605, 166.306 " fill="none" stroke="rgb(157, 20, 170)" stroke-linecap="butt" stroke-linejoin="round" stroke-opacity="1.0" stroke-width="3.0" />
            <path d=" M 220.169, 182.063 222.036, 184.409 228.060, 191.979 228.548, 192.593 237.400, 187.942 238.998, 187.103 243.337, 184.824 244.756, 184.078 246.755, 183.028 255.608, 178.378 257.717, 177.270 266.570, 172.620 266.713, 172.544 271.462, 165.712 " fill="none" stroke="rgb(157, 20, 170)" stroke-linecap="butt" stroke-linejoin="round" stroke-opacity="1.0" stroke-width="3.0" />
            <path d=" M 266.713, 172.544 264.351, 169.507 264.030, 169.094 " fill="none" stroke="rgb(157, 20, 170)" stroke-linecap="butt" stroke-linejoin="round" stroke-opacity="1.0" stroke-width="3.0" />
            <path d=" M 285.556, 217.143 286.761, 214.967 291.605, 206.218 291.850, 205.774 293.962, 201.960 293.990, 201.909 294.861, 200.337 297.103, 196.287 291.730, 189.342 285.611, 181.433 280.214, 174.457 " fill="none" stroke="rgb(157, 20, 170)" stroke-linecap="butt" stroke-linejoin="round" stroke-opacity="1.0" stroke-width="3.0" />
            <path d=" M 264.436, 209.052 268.653, 202.337 " fill="none" stroke="rgb(157, 20, 170)" stroke-linecap="butt" stroke-linejoin="round" stroke-opacity="1.0" stroke-width="3.0" />
            <path d=" M 311.849, 111.839 317.836, 119.849 323.823, 127.858 327.590, 132.898 336.395, 128.157 345.200, 123.417 354.005, 118.676 362.810, 113.935 371.615, 109.194 379.817, 104.778 383.690, 95.558 387.562, 86.338 389.519, 81.678 383.703, 73.544 377.886, 65.410 372.070, 57.275 366.253, 49.141 360.437, 41.007 355.904, 34.667 355.461, 34.965 " fill="none" stroke="rgb(157, 20, 170)" stroke-linecap="butt" stroke-linejoin="round" stroke-opacity="1.0" stroke-width="3.0" />
            <path d=" M 355.904, 34.667 355.571, 35.120 " fill="none" stroke="rgb(157, 20, 170)" stroke-linecap="butt" stroke-linejoin="round" stroke-opacity="1.0" stroke-width="3.0" />
            <path d=" M 334.862, 6.166 327.682, 13.126 320.502, 20.087 316.767, 23.708 " fill="none" stroke="rgb(157, 20, 170)" stroke-linecap="butt" stroke-linejoin="round" stroke-opacity="1.0" stroke-width="3.0" />
            <path d=" M 262.668, 63.688 263.876, 62.795 271.918, 56.852 279.960, 50.909 280.282, 50.671 288.324, 44.728 291.540, 42.351 299.582, 36.408 303.633, 33.414 311.675, 27.471 316.767, 23.708 322.637, 31.804 328.507, 39.900 334.376, 47.996 334.950, 48.788 335.521, 49.575 341.391, 57.671 347.260, 65.767 353.130, 73.863 358.097, 80.714 360.037, 83.390 " fill="none" stroke="rgb(157, 20, 170)" stroke-linecap="butt" stroke-linejoin="round" stroke-opacity="1.0" stroke-width="3.0" />
            <path d=" M 308.729, 113.681 311.849, 111.839 320.460, 106.755 329.072, 101.671 333.762, 98.902 342.373, 93.818 350.985, 88.734 359.596, 83.650 360.037, 83.390 361.899, 80.015 366.729, 71.259 371.560, 62.503 373.126, 59.663 367.309, 51.529 361.491, 43.396 355.571, 35.120 355.461, 34.965 349.643, 26.832 343.826, 18.698 338.008, 10.565 334.862, 6.166 326.846, 12.146 318.831, 18.126 310.816, 24.105 302.801, 30.085 301.764, 30.859 293.749, 36.839 289.701, 39.858 " fill="none" stroke="rgb(157, 20, 170)" stroke-linecap="butt" stroke-linejoin="round" stroke-opacity="1.0" stroke-width="3.0" />
            <path d=" M 278.931, 48.852 271.543, 55.592 265.851, 60.785 263.783, 62.671 263.472, 62.954 262.668, 63.688 262.905, 64.004 " fill="none" stroke="rgb(157, 20, 170)" stroke-linecap="butt" stroke-linejoin="round" stroke-opacity="1.0" stroke-width="3.0" />
            <path d=" M 191.595, 234.645 187.673, 239.662 181.756, 247.233 188.127, 254.941 194.498, 262.648 200.869, 270.356 207.240, 278.064 213.611, 285.772 219.982, 293.480 222.891, 297.000 232.433, 294.006 241.974, 291.013 251.516, 288.019 261.057, 285.025 270.598, 282.032 271.324, 281.804 275.810, 272.867 280.296, 263.929 280.628, 263.268 " fill="none" stroke="rgb(157, 20, 170)" stroke-linecap="butt" stroke-linejoin="round" stroke-opacity="1.0" stroke-width="3.0" />
            <path d=" M 271.324, 281.804 265.052, 274.016 258.779, 266.228 252.506, 258.440 246.233, 250.652 239.960, 242.864 233.688, 235.076 227.692, 227.633 226.880, 226.624 " fill="none" stroke="rgb(157, 20, 170)" stroke-linecap="butt" stroke-linejoin="round" stroke-opacity="1.0" stroke-width="3.0" />
            <path d=" M 246.573, 198.545 240.831, 206.732 235.089, 214.919 231.603, 219.889 226.880, 226.624 217.783, 230.778 210.845, 233.947 201.749, 238.102 196.422, 240.535 190.584, 243.201 181.756, 247.233 " fill="none" stroke="rgb(157, 20, 170)" stroke-linecap="butt" stroke-linejoin="round" stroke-opacity="1.0" stroke-width="3.0" />
            <path d=" M 209.983, 222.094 216.022, 214.123 221.086, 207.437 " fill="none" stroke="rgb(157, 20, 170)" stroke-linecap="butt" stroke-linejoin="round" stroke-opacity="1.0" stroke-width="3.0" />
            <path d=" M 223.220, 210.096 223.160, 210.022 221.086, 207.437 220.839, 207.562 " fill="none" stroke="rgb(157, 20, 170)" stroke-linecap="butt" stroke-linejoin="round" stroke-opacity="1.0" stroke-width="3.0" />
            <path d=" M 191.595, 234.645 200.628, 230.356 205.893, 227.856 212.218, 224.853 " fill="none" stroke="rgb(157, 20, 170)" stroke-linecap="butt" stroke-linejoin="round" stroke-opacity="1.0" stroke-width="3.0" />
            <path d=" M 251.208, 204.403 246.573, 198.545 237.609, 202.979 228.646, 207.412 228.139, 207.663 223.599, 209.909 223.220, 210.096 222.773, 210.696 216.796, 218.713 212.218, 224.853 209.983, 222.094 209.731, 222.215 " fill="none" stroke="rgb(157, 20, 170)" stroke-linecap="butt" stroke-linejoin="round" stroke-opacity="1.0" stroke-width="3.0" />
            <path d=" M 159.575, 28.203 150.662, 32.738 141.749, 37.272 132.836, 41.806 123.923, 46.340 121.601, 47.521 114.730, 54.787 107.859, 62.052 104.628, 65.468 101.941, 68.310 96.643, 73.911 89.772, 81.177 87.454, 83.629 89.150, 85.714 95.459, 93.472 101.769, 101.231 108.079, 108.989 114.388, 116.747 117.386, 120.433 118.297, 121.553 124.607, 129.311 127.945, 133.416 128.487, 134.082 128.823, 134.495 136.760, 128.412 141.845, 124.514 149.782, 118.431 157.719, 112.348 162.491, 108.691 168.447, 103.877 173.144, 100.080 180.921, 93.794 183.626, 91.607 191.404, 85.321 193.908, 83.297 197.795, 80.155 198.003, 79.987 199.083, 79.114 196.967, 76.388 196.761, 76.121 190.630, 68.221 184.499, 60.321 181.106, 55.949 179.043, 53.291 178.859, 53.054 178.676, 52.817 172.545, 44.917 166.414, 37.017 160.283, 29.117 159.575, 28.203 " fill="none" stroke="rgb(157, 20, 170)" stroke-linecap="butt" stroke-linejoin="round" stroke-opacity="1.0" stroke-width="3.0" />
            <path d=" M 121.601, 47.521 127.814, 55.357 134.028, 63.192 140.241, 71.028 146.454, 78.863 152.668, 86.699 158.881, 94.534 163.950, 100.926 166.385, 103.997 " fill="none" stroke="rgb(157, 20, 170)" stroke-linecap="butt" stroke-linejoin="round" stroke-opacity="1.0" stroke-width="3.0" />
            <path d=" M 128.823, 134.495 136.586, 128.192 141.557, 124.156 149.320, 117.853 157.083, 111.549 164.846, 105.246 166.385, 103.997 174.343, 97.941 182.300, 91.885 183.267, 91.149 191.225, 85.094 197.765, 80.117 199.083, 79.114 " fill="none" stroke="rgb(157, 20, 170)" stroke-linecap="butt" stroke-linejoin="round" stroke-opacity="1.0" stroke-width="3.0" />
            <path d=" M 286.299, 218.091 287.499, 215.910 292.318, 207.148 292.567, 206.695 295.565, 201.245 295.543, 201.217 294.861, 200.337 " fill="none" stroke="rgb(157, 20, 170)" stroke-linecap="butt" stroke-linejoin="round" stroke-opacity="1.0" stroke-width="3.0" />
            <path d=" M 61.670, 89.944 67.021, 96.443 69.314, 99.228 75.670, 106.948 82.027, 114.669 88.383, 122.389 94.739, 130.109 101.095, 137.829 107.451, 145.549 109.209, 147.683 " fill="none" stroke="rgb(157, 20, 170)" stroke-linecap="butt" stroke-linejoin="round" stroke-opacity="1.0" stroke-width="3.0" />
            <path d=" M 75.649, 175.183 83.384, 168.845 91.118, 162.507 98.853, 156.169 106.588, 149.830 109.209, 147.683 117.165, 141.625 125.121, 135.567 127.945, 133.416 " fill="none" stroke="rgb(157, 20, 170)" stroke-linecap="butt" stroke-linejoin="round" stroke-opacity="1.0" stroke-width="3.0" />
            <path d=" M 101.941, 68.310 93.132, 73.042 87.649, 75.988 84.147, 77.869 75.338, 82.602 66.528, 87.334 61.670, 89.944 55.020, 97.413 48.371, 104.882 41.722, 112.351 35.072, 119.819 31.966, 123.308 38.407, 130.957 44.848, 138.607 51.290, 146.256 57.731, 153.905 64.172, 161.554 70.613, 169.203 75.649, 175.183 83.586, 169.101 91.524, 163.018 99.462, 156.936 107.399, 150.854 115.563, 144.598 123.319, 138.287 128.487, 134.082 " fill="none" stroke="rgb(157, 20, 170)" stroke-linecap="butt" stroke-linejoin="round" stroke-opacity="1.0" stroke-width="3.0" />
            <path d=" M 301.764, 30.859 295.861, 22.787 289.957, 14.716 284.053, 6.645 279.193, 0.000 270.889, 5.571 262.584, 11.142 260.135, 12.785 252.482, 19.222 251.362, 20.164 " fill="none" stroke="rgb(157, 20, 170)" stroke-linecap="butt" stroke-linejoin="round" stroke-opacity="1.0" stroke-width="3.0" />
            <path d=" M 260.135, 12.785 266.085, 20.822 272.036, 28.859 277.987, 36.896 284.030, 45.057 " fill="none" stroke="rgb(157, 20, 170)" stroke-linecap="butt" stroke-linejoin="round" stroke-opacity="1.0" stroke-width="3.0" />
            <path d=" M 278.931, 48.852 284.030, 45.057 289.701, 39.858 " fill="none" stroke="rgb(157, 20, 170)" stroke-linecap="butt" stroke-linejoin="round" stroke-opacity="1.0" stroke-width="3.0" />
            <path d=" M 215.221, 19.686 218.043, 23.417 224.075, 31.393 229.494, 38.559 229.653, 38.769 232.920, 43.089 232.926, 43.097 238.958, 51.073 244.767, 58.753 244.811, 58.812 250.843, 66.787 251.602, 67.792 252.811, 69.390 253.103, 69.776 " fill="none" stroke="rgb(157, 20, 170)" stroke-linecap="butt" stroke-linejoin="round" stroke-opacity="1.0" stroke-width="3.0" />
            <path d=" M 176.590, 147.562 184.812, 141.870 193.034, 136.178 201.256, 130.486 209.479, 124.794 210.921, 123.796 " fill="none" stroke="rgb(157, 20, 170)" stroke-linecap="butt" stroke-linejoin="round" stroke-opacity="1.0" stroke-width="3.0" />
            <path d=" M 245.519, 167.953 244.557, 166.725 242.533, 164.141 239.896, 160.776 233.729, 152.905 227.561, 145.033 221.394, 137.162 219.971, 135.346 215.005, 129.007 211.375, 124.375 210.921, 123.796 217.036, 117.925 219.799, 115.273 " fill="none" stroke="rgb(157, 20, 170)" stroke-linecap="butt" stroke-linejoin="round" stroke-opacity="1.0" stroke-width="3.0" />
            <path d=" M 190.837, 134.314 189.153, 135.880 181.829, 142.690 176.590, 147.562 179.082, 150.673 179.806, 151.577 180.725, 152.723 182.111, 154.454 187.308, 160.943 189.468, 163.638 189.775, 164.022 190.065, 164.384 191.605, 166.306 192.170, 167.012 198.422, 174.817 204.674, 182.622 206.103, 184.406 206.838, 185.323 207.142, 185.703 209.143, 188.200 210.208, 187.607 210.665, 187.353 214.806, 185.048 219.774, 182.283 220.169, 182.063 226.085, 178.770 227.020, 178.250 230.476, 176.326 238.128, 172.067 243.053, 169.325 245.519, 167.953 247.715, 165.121 247.941, 164.830 252.776, 158.597 253.149, 158.116 247.727, 151.150 241.584, 143.259 235.442, 135.368 229.299, 127.477 225.856, 123.055 223.733, 120.327 223.359, 119.847 223.048, 119.447 222.962, 119.337 221.463, 117.411 219.799, 115.273 216.670, 117.454 208.467, 123.174 200.264, 128.893 192.061, 134.613 191.426, 135.055 " fill="none" stroke="rgb(157, 20, 170)" stroke-linecap="butt" stroke-linejoin="round" stroke-opacity="1.0" stroke-width="3.0" />
            <path d=" M 296.513, 231.135 297.645, 228.884 302.135, 219.948 302.426, 219.369 296.286, 211.476 292.567, 206.695 " fill="none" stroke="rgb(157, 20, 170)" stroke-linecap="butt" stroke-linejoin="round" stroke-opacity="1.0" stroke-width="3.0" />
            <path d=" M 268.455, 59.907 264.463, 63.577 263.352, 64.599 262.153, 65.702 257.768, 69.733 250.406, 76.501 243.044, 83.269 239.124, 86.873 237.966, 87.937 " fill="none" stroke="rgb(157, 20, 170)" stroke-linecap="butt" stroke-linejoin="round" stroke-opacity="1.0" stroke-width="3.0" />
            <path d=" M 184.742, 126.626 192.831, 120.746 200.920, 114.866 209.008, 108.986 209.682, 108.496 217.771, 102.617 225.860, 96.737 233.949, 90.857 237.966, 87.937 244.045, 95.877 248.207, 101.313 248.674, 101.924 251.600, 105.745 257.680, 113.685 263.759, 121.625 269.838, 129.565 275.917, 137.505 277.844, 140.021 283.923, 147.961 289.625, 155.409 " fill="none" stroke="rgb(157, 20, 170)" stroke-linecap="butt" stroke-linejoin="round" stroke-opacity="1.0" stroke-width="3.0" />
            <path d=" M 243.337, 184.824 248.058, 190.809 249.487, 190.082 251.501, 189.058 260.415, 184.525 269.328, 179.993 278.242, 175.460 280.214, 174.457 282.998, 173.041 288.396, 164.623 293.793, 156.205 298.060, 149.550 295.600, 146.319 " fill="none" stroke="rgb(157, 20, 170)" stroke-linecap="butt" stroke-linejoin="round" stroke-opacity="1.0" stroke-width="3.0" />
            <path d=" M 282.998, 173.041 276.886, 165.127 275.297, 163.070 " fill="none" stroke="rgb(157, 20, 170)" stroke-linecap="butt" stroke-linejoin="round" stroke-opacity="1.0" stroke-width="3.0" />
            <path d=" M 319.542, 175.502 314.939, 184.380 310.336, 193.258 309.418, 195.029 " fill="none" stroke="rgb(157, 20, 170)" stroke-linecap="butt" stroke-linejoin="round" stroke-opacity="1.0" stroke-width="3.0" />
            <path d=" M 295.543, 201.217 304.676, 197.144 309.418, 195.029 315.515, 202.956 321.612, 210.882 327.709, 218.808 331.602, 223.870 " fill="none" stroke="rgb(157, 20, 170)" stroke-linecap="butt" stroke-linejoin="round" stroke-opacity="1.0" stroke-width="3.0" />
            <path d=" M 297.645, 228.884 302.403, 234.968 311.751, 231.415 321.098, 227.862 330.446, 224.310 331.602, 223.870 335.435, 214.634 339.268, 205.398 340.333, 202.831 334.278, 194.872 328.223, 186.914 322.168, 178.955 319.542, 175.502 310.498, 179.771 301.455, 184.039 292.302, 188.359 291.730, 189.342 " fill="none" stroke="rgb(157, 20, 170)" stroke-linecap="butt" stroke-linejoin="round" stroke-opacity="1.0" stroke-width="3.0" />
            <path d=" M 272.635, 266.008 266.385, 258.201 260.136, 250.395 253.886, 242.589 247.636, 234.782 245.039, 231.539 250.444, 223.126 253.972, 217.634 " fill="none" stroke="rgb(157, 20, 170)" stroke-linecap="butt" stroke-linejoin="round" stroke-opacity="1.0" stroke-width="3.0" />
            <path d=" M 255.542, 216.927 253.972, 217.634 247.755, 209.802 247.650, 209.670 " fill="none" stroke="rgb(157, 20, 170)" stroke-linecap="butt" stroke-linejoin="round" stroke-opacity="1.0" stroke-width="3.0" />
            <path d=" M 249.205, 208.937 247.650, 209.670 251.208, 204.403 252.275, 203.893 252.750, 203.666 " fill="none" stroke="rgb(157, 20, 170)" stroke-linecap="butt" stroke-linejoin="round" stroke-opacity="1.0" stroke-width="3.0" />
            <path d=" M 249.487, 190.082 255.677, 197.937 256.320, 198.753 262.509, 206.607 264.436, 209.052 258.981, 211.548 255.542, 216.927 249.328, 209.092 249.205, 208.937 252.449, 204.113 252.750, 203.666 252.895, 203.850 258.981, 211.548 " fill="none" stroke="rgb(157, 20, 170)" stroke-linecap="butt" stroke-linejoin="round" stroke-opacity="1.0" stroke-width="3.0" />
            <path d=" M 141.845, 124.514 147.482, 131.505 " fill="none" stroke="rgb(157, 20, 170)" stroke-linecap="butt" stroke-linejoin="round" stroke-opacity="1.0" stroke-width="3.0" />
            <path d=" M 183.471, 167.454 183.775, 167.831 " fill="none" stroke="rgb(157, 20, 170)" stroke-linecap="butt" stroke-linejoin="round" stroke-opacity="1.0" stroke-width="3.0" />
            <path d=" M 183.626, 91.607 189.065, 98.542 " fill="none" stroke="rgb(157, 20, 170)" stroke-linecap="butt" stroke-linejoin="round" stroke-opacity="1.0" stroke-width="3.0" />
            <path d=" M 173.144, 100.080 178.476, 106.832 " fill="none" stroke="rgb(157, 20, 170)" stroke-linecap="butt" stroke-linejoin="round" stroke-opacity="1.0" stroke-width="3.0" />
            <path d=" M 184.398, 235.680 187.673, 239.662 " fill="none" stroke="rgb(157, 20, 170)" stroke-linecap="butt" stroke-linejoin="round" stroke-opacity="1.0" stroke-width="3.0" />
            <path d=" M 201.936, 92.217 205.200, 89.689 " fill="none" stroke="rgb(157, 20, 170)" stroke-linecap="butt" stroke-linejoin="round" stroke-opacity="1.0" stroke-width="3.0" />
            <path d=" M 221.748, 184.764 222.036, 184.409 " fill="none" stroke="rgb(157, 20, 170)" stroke-linecap="butt" stroke-linejoin="round" stroke-opacity="1.0" stroke-width="3.0" />
            <path d=" M 228.060, 191.979 227.659, 192.191 " fill="none" stroke="rgb(157, 20, 170)" stroke-linecap="butt" stroke-linejoin="round" stroke-opacity="1.0" stroke-width="3.0" />
            <path d=" M 271.138, 165.293 271.462, 165.712 " fill="none" stroke="rgb(157, 20, 170)" stroke-linecap="butt" stroke-linejoin="round" stroke-opacity="1.0" stroke-width="3.0" />
            <path d=" M 256.829, 68.489 255.899, 67.258 " fill="none" stroke="rgb(157, 20, 170)" stroke-linecap="butt" stroke-linejoin="round" stroke-opacity="1.0" stroke-width="3.0" />
            <path d=" M 361.899, 80.015 367.761, 88.117 373.623, 96.218 379.486, 104.319 379.817, 104.778 " fill="none" stroke="rgb(157, 20, 170)" stroke-linecap="butt" stroke-linejoin="round" stroke-opacity="1.0" stroke-width="3.0" />
        </g>
    </g>
    <g id="fressstylelayer_hidden lines" inkscape:groupmode="lineset" inkscape:label="fressstylelayer_hidden lines" xmlns:inkscape="http://www.inkscape.org/namespaces/inkscape">
        <g id="strokes" inkscape:groupmode="layer" inkscape:label="strokes" xmlns:inkscape="http://www.inkscape.org/namespaces/inkscape">
            <path d=" M 189.468, 163.638 190.329, 163.090 198.766, 157.722 200.117, 156.863 201.877, 155.743 204.625, 153.994 207.491, 152.171 208.266, 151.678 208.877, 151.034 209.260, 150.631 208.794, 150.928 208.048, 151.403 207.274, 151.896 204.409, 153.722 201.662, 155.472 201.877, 155.743 208.100, 163.571 211.197, 167.469 213.848, 170.803 214.484, 171.604 217.789, 169.669 222.612, 166.846 222.033, 166.113 221.966, 166.029 221.946, 166.003 217.683, 160.613 211.480, 152.770 205.683, 145.439 204.177, 143.536 203.882, 143.833 202.866, 144.857 202.217, 145.512 196.040, 151.739 196.346, 152.123 197.781, 153.926 199.424, 155.991 200.117, 156.863 200.727, 157.628 200.909, 157.858 207.136, 165.683 209.803, 169.035 212.050, 171.860 214.241, 174.613 214.349, 174.749 214.373, 174.779 215.083, 175.671 217.311, 178.471 218.130, 179.501 218.757, 180.289 220.169, 182.063 " fill="none" stroke="rgb(0, 119, 0)" stroke-linecap="butt" stroke-linejoin="round" stroke-opacity="1.0" stroke-width="3.0" />
            <path d=" M 209.260, 150.631 203.882, 143.833 198.876, 137.505 194.596, 132.093 194.015, 131.359 187.995, 123.748 " fill="none" stroke="rgb(0, 119, 0)" stroke-linecap="butt" stroke-linejoin="round" stroke-opacity="1.0" stroke-width="3.0" />
            <path d=" M 202.812, 201.449 196.447, 209.162 190.082, 216.874 183.826, 224.454 " fill="none" stroke="rgb(0, 119, 0)" stroke-linecap="butt" stroke-linejoin="round" stroke-opacity="1.0" stroke-width="3.0" />
            <path d=" M 183.775, 167.831 184.062, 168.189 186.679, 171.444 187.255, 172.161 192.170, 167.012 192.876, 166.272 199.781, 159.039 200.596, 158.186 200.909, 157.858 201.743, 156.984 200.727, 157.628 200.344, 157.871 198.682, 158.924 190.927, 163.838 190.065, 164.384 184.062, 168.189 178.714, 171.578 172.366, 178.027 165.351, 185.154 158.336, 192.281 157.859, 192.766 158.561, 193.623 164.900, 201.358 171.238, 209.092 177.576, 216.827 183.826, 224.454 191.935, 220.348 197.500, 217.531 197.560, 217.501 201.204, 215.655 204.416, 214.030 210.063, 211.170 210.620, 210.888 210.759, 210.710 210.897, 210.534 210.497, 210.736 210.139, 210.918 204.294, 213.880 201.084, 215.507 197.842, 217.149 197.380, 217.383 197.500, 217.531 197.518, 217.553 203.683, 225.137 204.433, 226.059 205.893, 227.856 210.845, 233.947 211.636, 234.921 218.725, 231.703 224.512, 229.077 226.979, 227.957 227.692, 227.633 233.862, 224.833 235.113, 224.265 231.603, 219.889 226.860, 213.975 223.816, 210.181 223.599, 209.909 223.415, 209.680 223.160, 210.022 222.589, 210.787 222.773, 210.696 223.816, 210.181 227.484, 208.369 227.696, 208.265 228.139, 207.663 228.514, 207.154 224.732, 202.425 222.286, 199.365 219.967, 196.465 219.929, 196.417 218.933, 197.684 214.400, 203.450 211.929, 206.592 210.796, 208.034 211.606, 209.040 212.316, 209.921 213.220, 211.043 213.284, 210.961 213.310, 210.927 215.224, 208.448 216.879, 206.305 219.771, 202.561 212.059, 206.526 211.929, 206.592 209.803, 207.685 208.952, 208.123 208.554, 208.327 202.372, 211.505 200.117, 214.315 197.842, 217.149 197.560, 217.501 197.518, 217.553 191.258, 225.351 184.999, 233.150 183.674, 234.800 184.398, 235.680 " fill="none" stroke="rgb(0, 119, 0)" stroke-linecap="butt" stroke-linejoin="round" stroke-opacity="1.0" stroke-width="3.0" />
            <path d=" M 178.714, 171.578 184.993, 179.361 191.272, 187.144 197.551, 194.927 202.812, 201.449 211.628, 196.729 211.894, 196.587 215.745, 194.524 " fill="none" stroke="rgb(0, 119, 0)" stroke-linecap="butt" stroke-linejoin="round" stroke-opacity="1.0" stroke-width="3.0" />
            <path d=" M 157.859, 192.766 166.379, 187.530 174.899, 182.295 183.361, 177.096 " fill="none" stroke="rgb(0, 119, 0)" stroke-linecap="butt" stroke-linejoin="round" stroke-opacity="1.0" stroke-width="3.0" />
            <path d=" M 210.620, 210.888 210.558, 210.812 210.497, 210.736 210.387, 210.600 208.554, 208.327 202.276, 200.544 195.997, 192.761 189.719, 184.977 183.361, 177.096 189.218, 170.944 " fill="none" stroke="rgb(0, 119, 0)" stroke-linecap="butt" stroke-linejoin="round" stroke-opacity="1.0" stroke-width="3.0" />
            <path d=" M 202.964, 188.061 196.702, 180.264 190.441, 172.467 189.218, 170.944 187.255, 172.161 " fill="none" stroke="rgb(0, 119, 0)" stroke-linecap="butt" stroke-linejoin="round" stroke-opacity="1.0" stroke-width="3.0" />
            <path d=" M 183.063, 48.840 183.433, 49.319 183.894, 49.914 186.099, 52.764 192.218, 60.674 198.337, 68.583 199.052, 69.507 203.968, 65.934 212.057, 60.055 213.541, 58.977 214.873, 58.009 221.029, 52.924 225.514, 49.219 232.926, 43.097 233.046, 42.998 232.920, 43.089 225.120, 48.701 225.514, 49.219 227.185, 51.417 227.211, 51.451 227.851, 50.927 227.185, 51.417 224.647, 53.285 225.429, 54.313 228.809, 58.752 228.847, 58.802 234.732, 66.532 234.776, 66.589 240.834, 74.545 242.102, 76.210 242.154, 76.279 242.131, 76.300 242.116, 76.313 241.298, 76.922 233.276, 82.892 230.094, 85.259 229.503, 85.699 224.130, 89.698 222.921, 90.598 216.814, 82.679 216.413, 82.159 216.288, 81.997 216.053, 81.692 215.854, 81.435 209.924, 73.745 209.892, 73.704 206.487, 69.288 205.952, 68.594 198.215, 74.930 196.761, 76.121 196.257, 76.534 195.478, 77.172 191.607, 80.342 195.618, 77.352 196.425, 76.751 196.257, 76.534 196.198, 76.458 195.390, 77.059 187.367, 83.028 180.755, 87.946 172.732, 93.915 169.924, 96.004 163.950, 100.926 159.337, 104.727 151.620, 111.086 147.112, 114.800 139.394, 121.159 139.241, 121.285 141.005, 123.472 141.211, 123.728 141.557, 124.156 141.845, 124.514 " fill="none" stroke="rgb(0, 119, 0)" stroke-linecap="butt" stroke-linejoin="round" stroke-opacity="1.0" stroke-width="3.0" />
            <path d=" M 169.924, 96.004 173.144, 100.080 " fill="none" stroke="rgb(0, 119, 0)" stroke-linecap="butt" stroke-linejoin="round" stroke-opacity="1.0" stroke-width="3.0" />
            <path d=" M 200.494, 134.711 207.696, 127.773 210.838, 124.747 " fill="none" stroke="rgb(0, 119, 0)" stroke-linecap="butt" stroke-linejoin="round" stroke-opacity="1.0" stroke-width="3.0" />
            <path d=" M 280.214, 174.457 274.095, 166.548 272.543, 164.542 271.840, 163.632 265.721, 155.723 265.261, 155.128 263.870, 155.907 263.615, 156.050 258.208, 159.079 254.687, 161.051 247.941, 164.830 247.625, 165.007 244.557, 166.725 242.094, 168.105 237.177, 170.859 229.537, 175.138 230.476, 176.326 235.112, 182.189 235.841, 183.110 236.427, 183.851 238.502, 186.475 238.998, 187.103 245.201, 194.947 249.726, 200.670 252.275, 203.893 252.449, 204.113 252.595, 204.298 252.895, 203.850 256.320, 198.753 257.614, 196.825 251.501, 189.058 250.350, 187.596 246.755, 183.028 245.627, 181.594 244.463, 180.117 244.152, 179.721 243.426, 178.799 241.267, 176.055 240.556, 175.152 238.128, 172.067 237.177, 170.859 235.176, 168.317 234.481, 167.434 232.089, 164.394 232.022, 164.309 226.527, 167.493 226.243, 167.658 217.591, 172.671 217.253, 172.867 214.790, 174.294 214.241, 174.613 213.850, 174.839 205.197, 179.853 204.832, 180.065 204.486, 180.459 204.938, 180.198 213.592, 175.187 213.958, 174.975 214.349, 174.749 214.450, 174.690 217.362, 173.004 217.253, 172.867 216.659, 172.119 214.790, 174.294 214.450, 174.690 214.373, 174.779 214.077, 175.125 207.560, 182.710 207.244, 183.079 206.902, 183.477 206.103, 184.406 202.964, 188.061 205.928, 186.388 207.142, 185.703 208.204, 185.103 208.659, 184.847 214.929, 181.308 217.737, 179.723 218.130, 179.501 220.540, 178.141 224.026, 176.174 230.212, 172.682 232.551, 169.806 234.481, 167.434 238.088, 162.999 239.896, 160.776 242.150, 158.006 247.344, 151.621 247.727, 151.150 247.943, 150.884 243.990, 145.805 241.819, 143.015 241.800, 142.991 240.622, 141.477 234.480, 133.586 228.338, 125.694 226.137, 122.866 226.061, 122.768 223.974, 120.087 223.639, 119.656 223.569, 119.567 223.431, 119.389 223.328, 119.256 223.204, 119.098 221.742, 117.219 221.463, 117.411 220.821, 117.855 218.326, 119.577 216.611, 120.761 211.375, 124.375 210.838, 124.747 212.216, 126.505 212.496, 126.862 214.540, 129.470 215.005, 129.007 219.534, 124.503 221.017, 123.028 223.532, 120.527 223.733, 120.327 223.974, 120.087 225.302, 118.767 226.090, 117.983 225.177, 118.606 223.639, 119.656 223.359, 119.847 223.126, 120.006 223.532, 120.527 225.622, 123.212 225.856, 123.055 226.137, 122.866 227.681, 121.827 235.980, 116.248 244.279, 110.668 251.600, 105.745 252.895, 104.875 260.353, 99.860 267.192, 92.564 271.517, 87.949 276.727, 82.391 277.764, 81.285 275.026, 77.639 274.982, 77.582 272.302, 74.013 270.219, 71.241 270.185, 71.195 270.146, 71.143 264.463, 63.577 264.114, 63.112 263.876, 62.795 263.783, 62.671 262.656, 61.172 261.806, 60.040 255.800, 52.044 249.795, 44.048 248.848, 42.789 248.515, 43.045 246.354, 44.704 246.393, 44.755 252.405, 52.746 258.417, 60.737 259.301, 61.912 260.324, 63.272 261.600, 64.967 262.153, 65.702 267.976, 73.442 269.757, 75.809 272.428, 79.359 268.268, 83.645 261.303, 90.821 256.914, 95.343 256.712, 95.482 249.495, 100.430 248.207, 101.313 244.413, 103.915 236.165, 109.570 227.918, 115.225 225.327, 117.001 224.536, 117.782 224.092, 118.221 223.204, 119.098 222.962, 119.337 222.404, 119.888 223.048, 119.447 223.328, 119.256 224.352, 118.556 224.865, 118.205 225.778, 117.581 234.032, 111.936 242.396, 106.217 248.674, 101.924 249.963, 101.042 257.185, 96.104 257.358, 95.926 259.240, 93.977 266.188, 86.786 268.687, 84.200 273.974, 78.728 275.026, 77.639 275.286, 77.370 272.604, 73.799 270.486, 70.979 270.219, 71.241 269.141, 72.299 267.976, 73.442 263.719, 77.617 256.580, 84.620 254.787, 86.378 262.956, 80.611 264.928, 79.219 269.757, 75.809 271.078, 74.877 272.302, 74.013 272.604, 73.799 276.696, 70.910 284.865, 65.142 288.911, 62.286 286.438, 58.957 280.474, 50.930 280.282, 50.671 278.931, 48.852 " fill="none" stroke="rgb(0, 119, 0)" stroke-linecap="butt" stroke-linejoin="round" stroke-opacity="1.0" stroke-width="3.0" />
            <path d=" M 226.090, 117.983 225.778, 117.581 225.327, 117.001 " fill="none" stroke="rgb(0, 119, 0)" stroke-linecap="butt" stroke-linejoin="round" stroke-opacity="1.0" stroke-width="3.0" />
            <path d=" M 222.404, 119.888 220.821, 117.855 214.676, 109.965 208.532, 102.075 202.388, 94.186 201.303, 92.792 199.449, 90.412 193.908, 83.297 191.607, 80.342 " fill="none" stroke="rgb(0, 119, 0)" stroke-linecap="butt" stroke-linejoin="round" stroke-opacity="1.0" stroke-width="3.0" />
            <path d=" M 195.733, 138.317 188.519, 145.242 185.673, 147.974 180.725, 152.723 175.590, 157.652 171.631, 161.452 " fill="none" stroke="rgb(0, 119, 0)" stroke-linecap="butt" stroke-linejoin="round" stroke-opacity="1.0" stroke-width="3.0" />
            <path d=" M 139.241, 121.285 147.237, 115.279 147.399, 115.157 155.395, 109.152 163.390, 103.146 166.197, 101.038 " fill="none" stroke="rgb(0, 119, 0)" stroke-linecap="butt" stroke-linejoin="round" stroke-opacity="1.0" stroke-width="3.0" />
            <path d=" M 196.198, 76.458 195.419, 77.096 187.684, 83.434 181.311, 88.655 173.576, 94.992 166.197, 101.038 168.447, 103.877 173.731, 110.546 179.941, 118.385 185.758, 125.727 191.830, 133.391 192.416, 134.130 195.733, 138.317 203.989, 132.675 212.245, 127.033 212.496, 126.862 220.005, 121.730 223.431, 119.389 224.456, 118.689 " fill="none" stroke="rgb(0, 119, 0)" stroke-linecap="butt" stroke-linejoin="round" stroke-opacity="1.0" stroke-width="3.0" />
            <path d=" M 147.482, 131.505 147.503, 131.531 153.780, 139.315 160.057, 147.100 166.335, 154.884 171.631, 161.452 176.195, 158.405 182.111, 154.454 187.808, 150.649 185.673, 147.974 185.479, 147.731 184.061, 145.954 179.082, 150.673 173.916, 155.570 175.590, 157.652 176.195, 158.405 182.300, 165.998 183.471, 167.454 " fill="none" stroke="rgb(0, 119, 0)" stroke-linecap="butt" stroke-linejoin="round" stroke-opacity="1.0" stroke-width="3.0" />
            <path d=" M 184.061, 145.954 192.314, 140.307 200.494, 134.711 196.800, 130.034 196.224, 129.305 190.256, 121.748 184.058, 113.900 178.476, 106.832 " fill="none" stroke="rgb(0, 119, 0)" stroke-linecap="butt" stroke-linejoin="round" stroke-opacity="1.0" stroke-width="3.0" />
            <path d=" M 288.799, 237.293 294.528, 235.086 298.429, 233.582 " fill="none" stroke="rgb(0, 119, 0)" stroke-linecap="butt" stroke-linejoin="round" stroke-opacity="1.0" stroke-width="3.0" />
            <path d=" M 292.567, 206.695 291.850, 205.774 291.418, 205.219 286.560, 213.959 286.316, 214.398 285.109, 216.571 282.918, 220.513 282.362, 221.513 281.361, 223.313 279.885, 225.970 281.432, 227.935 287.618, 235.792 288.799, 237.293 288.737, 237.414 287.756, 239.318 283.178, 248.209 282.065, 250.369 280.433, 250.967 278.545, 254.609 273.942, 263.487 272.635, 266.008 " fill="none" stroke="rgb(0, 119, 0)" stroke-linecap="butt" stroke-linejoin="round" stroke-opacity="1.0" stroke-width="3.0" />
            <path d=" M 294.861, 200.337 293.678, 198.811 291.263, 203.125 291.235, 203.176 289.655, 205.998 285.522, 213.382 284.309, 215.550 282.108, 219.482 280.545, 222.275 281.361, 223.313 282.576, 224.859 286.299, 218.091 " fill="none" stroke="rgb(0, 119, 0)" stroke-linecap="butt" stroke-linejoin="round" stroke-opacity="1.0" stroke-width="3.0" />
            <path d=" M 280.545, 222.275 282.362, 221.513 283.371, 221.090 " fill="none" stroke="rgb(0, 119, 0)" stroke-linecap="butt" stroke-linejoin="round" stroke-opacity="1.0" stroke-width="3.0" />
            <path d=" M 279.885, 225.970 282.576, 224.859 " fill="none" stroke="rgb(0, 119, 0)" stroke-linecap="butt" stroke-linejoin="round" stroke-opacity="1.0" stroke-width="3.0" />
            <path d=" M 268.653, 202.337 270.197, 204.305 272.620, 207.392 273.161, 208.081 274.994, 210.417 276.195, 211.947 282.108, 219.482 282.918, 220.513 283.371, 221.090 285.556, 217.143 " fill="none" stroke="rgb(0, 119, 0)" stroke-linecap="butt" stroke-linejoin="round" stroke-opacity="1.0" stroke-width="3.0" />
            <path d=" M 232.022, 164.309 225.635, 172.004 220.540, 178.141 218.757, 180.289 218.466, 180.639 214.806, 185.048 213.246, 186.927 " fill="none" stroke="rgb(0, 119, 0)" stroke-linecap="butt" stroke-linejoin="round" stroke-opacity="1.0" stroke-width="3.0" />
            <path d=" M 198.467, 195.122 207.213, 190.272 213.246, 186.927 216.602, 191.125 " fill="none" stroke="rgb(0, 119, 0)" stroke-linecap="butt" stroke-linejoin="round" stroke-opacity="1.0" stroke-width="3.0" />
            <path d=" M 216.097, 191.398 216.602, 191.125 221.748, 184.764 " fill="none" stroke="rgb(0, 119, 0)" stroke-linecap="butt" stroke-linejoin="round" stroke-opacity="1.0" stroke-width="3.0" />
            <path d=" M 229.292, 210.629 238.281, 206.248 247.270, 201.867 249.726, 200.670 257.614, 196.825 " fill="none" stroke="rgb(0, 119, 0)" stroke-linecap="butt" stroke-linejoin="round" stroke-opacity="1.0" stroke-width="3.0" />
            <path d=" M 252.083, 204.542 251.244, 205.789 " fill="none" stroke="rgb(0, 119, 0)" stroke-linecap="butt" stroke-linejoin="round" stroke-opacity="1.0" stroke-width="3.0" />
            <path d=" M 258.354, 214.771 252.148, 206.931 251.244, 205.789 251.116, 205.851 " fill="none" stroke="rgb(0, 119, 0)" stroke-linecap="butt" stroke-linejoin="round" stroke-opacity="1.0" stroke-width="3.0" />
            <path d=" M 252.595, 204.298 252.083, 204.542 258.287, 212.385 259.165, 213.495 " fill="none" stroke="rgb(0, 119, 0)" stroke-linecap="butt" stroke-linejoin="round" stroke-opacity="1.0" stroke-width="3.0" />
            <path d=" M 211.636, 234.921 217.516, 226.831 223.395, 218.742 226.860, 213.975 229.292, 210.629 227.484, 208.369 223.757, 203.712 223.306, 203.149 223.240, 203.066 218.971, 197.732 218.933, 197.684 214.993, 192.761 210.665, 187.353 208.659, 184.847 207.244, 183.079 204.938, 180.198 204.832, 180.065 " fill="none" stroke="rgb(0, 119, 0)" stroke-linecap="butt" stroke-linejoin="round" stroke-opacity="1.0" stroke-width="3.0" />
            <path d=" M 260.017, 217.095 253.810, 209.254 251.116, 205.851 249.304, 208.542 " fill="none" stroke="rgb(0, 119, 0)" stroke-linecap="butt" stroke-linejoin="round" stroke-opacity="1.0" stroke-width="3.0" />
            <path d=" M 258.282, 219.865 252.069, 212.029 249.304, 208.542 244.208, 210.949 " fill="none" stroke="rgb(0, 119, 0)" stroke-linecap="butt" stroke-linejoin="round" stroke-opacity="1.0" stroke-width="3.0" />
            <path d=" M 263.528, 235.239 257.303, 227.413 251.078, 219.586 244.854, 211.760 244.208, 210.949 238.568, 219.206 235.113, 224.265 " fill="none" stroke="rgb(0, 119, 0)" stroke-linecap="butt" stroke-linejoin="round" stroke-opacity="1.0" stroke-width="3.0" />
            <path d=" M 197.380, 217.383 203.643, 209.588 207.484, 204.808 213.747, 197.012 215.745, 194.524 214.661, 193.170 210.208, 187.607 208.204, 185.103 206.902, 183.477 204.486, 180.459 " fill="none" stroke="rgb(0, 119, 0)" stroke-linecap="butt" stroke-linejoin="round" stroke-opacity="1.0" stroke-width="3.0" />
            <path d=" M 217.362, 173.004 215.083, 175.671 214.787, 176.018 208.292, 183.621 206.838, 185.323 205.928, 186.388 199.433, 193.991 198.467, 195.122 204.745, 202.906 208.952, 208.123 210.664, 210.246 210.897, 210.534 " fill="none" stroke="rgb(0, 119, 0)" stroke-linecap="butt" stroke-linejoin="round" stroke-opacity="1.0" stroke-width="3.0" />
            <path d=" M 223.415, 209.680 228.514, 207.154 " fill="none" stroke="rgb(0, 119, 0)" stroke-linecap="butt" stroke-linejoin="round" stroke-opacity="1.0" stroke-width="3.0" />
            <path d=" M 219.929, 196.417 220.057, 196.350 " fill="none" stroke="rgb(0, 119, 0)" stroke-linecap="butt" stroke-linejoin="round" stroke-opacity="1.0" stroke-width="3.0" />
            <path d=" M 220.057, 196.350 219.971, 196.243 216.097, 191.398 214.993, 192.761 214.661, 193.170 211.894, 196.587 206.362, 203.416 207.484, 204.808 208.749, 206.377 209.803, 207.685 211.256, 209.488 211.812, 210.177 212.913, 211.543 213.324, 211.011 213.351, 210.977 213.310, 210.927 212.446, 209.855 211.708, 208.939 210.925, 207.968 212.059, 206.526 214.529, 203.383 218.971, 197.732 219.967, 196.465 220.057, 196.350 " fill="none" stroke="rgb(0, 119, 0)" stroke-linecap="butt" stroke-linejoin="round" stroke-opacity="1.0" stroke-width="3.0" />
            <path d=" M 84.147, 77.869 77.368, 85.221 70.590, 92.573 67.021, 96.443 63.651, 100.099 65.923, 102.852 69.314, 99.228 73.924, 94.303 80.758, 87.002 87.591, 79.702 89.236, 77.944 96.643, 73.911 102.148, 70.915 103.869, 73.053 104.672, 74.049 110.944, 81.838 117.215, 89.627 123.487, 97.415 129.759, 105.204 131.843, 107.793 124.315, 114.375 122.054, 116.352 117.386, 120.433 109.858, 127.015 106.747, 129.735 114.907, 123.955 118.297, 121.553 123.362, 117.965 130.917, 111.414 138.472, 104.863 138.867, 104.520 146.422, 97.969 148.362, 96.288 142.130, 88.467 135.898, 80.646 129.666, 72.825 123.434, 65.005 122.664, 64.039 118.083, 58.290 109.260, 62.997 104.628, 65.468 " fill="none" stroke="rgb(0, 119, 0)" stroke-linecap="butt" stroke-linejoin="round" stroke-opacity="1.0" stroke-width="3.0" />
            <path d=" M 131.843, 107.793 138.033, 103.481 146.239, 97.766 148.362, 96.288 " fill="none" stroke="rgb(0, 119, 0)" stroke-linecap="butt" stroke-linejoin="round" stroke-opacity="1.0" stroke-width="3.0" />
            <path d=" M 94.685, 82.592 100.982, 90.360 107.279, 98.128 113.577, 105.896 119.874, 113.664 122.054, 116.352 123.362, 117.965 " fill="none" stroke="rgb(0, 119, 0)" stroke-linecap="butt" stroke-linejoin="round" stroke-opacity="1.0" stroke-width="3.0" />
            <path d=" M 78.710, 95.514 70.037, 100.491 65.923, 102.852 " fill="none" stroke="rgb(0, 119, 0)" stroke-linecap="butt" stroke-linejoin="round" stroke-opacity="1.0" stroke-width="3.0" />
            <path d=" M 106.747, 129.735 100.410, 122.000 94.072, 114.265 87.735, 106.529 81.397, 98.794 78.710, 95.514 76.875, 97.440 " fill="none" stroke="rgb(0, 119, 0)" stroke-linecap="butt" stroke-linejoin="round" stroke-opacity="1.0" stroke-width="3.0" />
            <path d=" M 63.651, 100.099 72.360, 95.185 73.924, 94.303 82.634, 89.390 89.150, 85.714 94.685, 82.592 101.621, 75.388 103.869, 73.053 109.193, 67.524 116.129, 60.320 118.083, 58.290 " fill="none" stroke="rgb(0, 119, 0)" stroke-linecap="butt" stroke-linejoin="round" stroke-opacity="1.0" stroke-width="3.0" />
            <path d=" M 251.362, 20.164 243.710, 26.601 236.519, 32.650 234.740, 34.146 229.494, 38.559 227.334, 40.376 229.653, 38.769 235.284, 34.867 234.740, 34.146 228.722, 26.160 224.220, 20.185 223.962, 19.843 223.836, 19.675 221.211, 16.192 " fill="none" stroke="rgb(0, 119, 0)" stroke-linecap="butt" stroke-linejoin="round" stroke-opacity="1.0" stroke-width="3.0" />
            <path d=" M 209.588, 31.997 210.919, 31.176 213.967, 29.296 220.013, 37.262 226.059, 45.227 227.151, 46.666 220.475, 52.196 214.324, 57.292 213.055, 58.343 205.355, 64.723 203.938, 65.896 199.640, 69.019 193.522, 61.109 187.405, 53.198 186.749, 52.349 194.214, 45.696 199.650, 40.852 200.890, 39.748 205.725, 35.439 209.588, 31.997 " fill="none" stroke="rgb(0, 119, 0)" stroke-linecap="butt" stroke-linejoin="round" stroke-opacity="1.0" stroke-width="3.0" />
            <path d=" M 227.151, 46.666 230.357, 44.366 " fill="none" stroke="rgb(0, 119, 0)" stroke-linecap="butt" stroke-linejoin="round" stroke-opacity="1.0" stroke-width="3.0" />
            <path d=" M 225.120, 48.701 230.357, 44.366 227.334, 40.376 " fill="none" stroke="rgb(0, 119, 0)" stroke-linecap="butt" stroke-linejoin="round" stroke-opacity="1.0" stroke-width="3.0" />
            <path d=" M 176.605, 40.493 185.264, 35.491 193.838, 30.538 " fill="none" stroke="rgb(0, 119, 0)" stroke-linecap="butt" stroke-linejoin="round" stroke-opacity="1.0" stroke-width="3.0" />
            <path d=" M 216.333, 9.718 208.994, 16.511 201.655, 23.303 194.316, 30.096 193.838, 30.538 197.695, 35.575 198.075, 36.072 200.493, 39.229 200.890, 39.748 206.969, 47.687 213.049, 55.627 214.324, 57.292 214.873, 58.009 " fill="none" stroke="rgb(0, 119, 0)" stroke-linecap="butt" stroke-linejoin="round" stroke-opacity="1.0" stroke-width="3.0" />
            <path d=" M 199.052, 69.507 199.640, 69.019 " fill="none" stroke="rgb(0, 119, 0)" stroke-linecap="butt" stroke-linejoin="round" stroke-opacity="1.0" stroke-width="3.0" />
            <path d=" M 236.524, 83.475 239.124, 86.873 245.200, 94.815 249.495, 100.430 249.608, 100.577 249.963, 101.042 252.895, 104.875 258.971, 112.817 265.047, 120.760 267.643, 124.153 270.845, 128.339 272.823, 130.924 273.128, 131.323 278.717, 124.145 284.861, 116.255 288.933, 111.024 282.909, 103.043 276.885, 95.061 271.517, 87.949 270.331, 86.378 268.687, 84.200 268.268, 83.645 264.928, 79.219 263.719, 77.617 257.768, 69.733 256.829, 68.489 " fill="none" stroke="rgb(0, 119, 0)" stroke-linecap="butt" stroke-linejoin="round" stroke-opacity="1.0" stroke-width="3.0" />
            <path d=" M 247.740, 56.447 245.773, 58.066 " fill="none" stroke="rgb(0, 119, 0)" stroke-linecap="butt" stroke-linejoin="round" stroke-opacity="1.0" stroke-width="3.0" />
            <path d=" M 205.626, 90.237 213.360, 83.898 216.053, 81.692 222.991, 76.005 225.202, 74.193 219.277, 66.463 219.241, 66.414 215.914, 62.074 215.144, 61.068 213.541, 58.977 213.055, 58.343 206.972, 50.406 200.890, 42.469 199.650, 40.852 199.255, 40.336 200.493, 39.229 202.490, 37.446 205.725, 35.439 207.064, 34.608 213.127, 42.560 219.191, 50.512 220.475, 52.196 221.029, 52.924 222.590, 54.970 223.370, 55.993 226.738, 60.411 226.775, 60.460 232.685, 68.210 234.752, 66.608 234.776, 66.589 237.907, 64.162 244.811, 58.812 245.773, 58.066 251.803, 66.044 252.514, 66.984 251.602, 67.792 245.066, 73.584 242.102, 76.210 242.078, 76.231 241.298, 76.922 233.814, 83.554 230.821, 86.206 230.268, 86.695 " fill="none" stroke="rgb(0, 119, 0)" stroke-linecap="butt" stroke-linejoin="round" stroke-opacity="1.0" stroke-width="3.0" />
            <path d=" M 273.128, 131.323 271.972, 132.013 " fill="none" stroke="rgb(0, 119, 0)" stroke-linecap="butt" stroke-linejoin="round" stroke-opacity="1.0" stroke-width="3.0" />
            <path d=" M 278.421, 123.756 270.845, 128.339 262.289, 133.515 253.733, 138.691 248.709, 141.731 248.627, 141.781 " fill="none" stroke="rgb(0, 119, 0)" stroke-linecap="butt" stroke-linejoin="round" stroke-opacity="1.0" stroke-width="3.0" />
            <path d=" M 253.704, 135.720 253.642, 135.794 248.627, 141.781 248.646, 141.806 248.709, 141.731 253.723, 135.745 253.704, 135.720 " fill="none" stroke="rgb(0, 119, 0)" stroke-linecap="butt" stroke-linejoin="round" stroke-opacity="1.0" stroke-width="3.0" />
            <path d=" M 295.600, 146.319 289.542, 138.363 286.804, 134.766 280.746, 126.810 278.717, 124.145 278.421, 123.756 272.823, 130.924 271.972, 132.013 277.971, 139.849 277.844, 140.021 271.912, 148.072 267.909, 153.504 263.795, 155.810 263.615, 156.050 259.816, 161.149 258.855, 162.439 253.585, 165.353 246.474, 169.284 244.065, 170.616 243.053, 169.325 242.094, 168.105 240.078, 165.535 238.088, 162.999 235.735, 160.000 230.015, 163.339 228.983, 162.028 227.921, 160.680 223.518, 155.089 217.331, 147.233 212.442, 141.024 213.200, 140.243 214.461, 139.419 218.747, 136.616 219.971, 135.346 224.406, 130.743 225.859, 129.236 221.017, 123.028 220.005, 121.730 218.756, 120.129 218.326, 119.577 217.036, 117.925 216.670, 117.454 210.519, 109.569 209.682, 108.496 207.866, 106.168 " fill="none" stroke="rgb(0, 119, 0)" stroke-linecap="butt" stroke-linejoin="round" stroke-opacity="1.0" stroke-width="3.0" />
            <path d=" M 236.499, 146.230 240.622, 141.477 241.855, 140.056 " fill="none" stroke="rgb(0, 119, 0)" stroke-linecap="butt" stroke-linejoin="round" stroke-opacity="1.0" stroke-width="3.0" />
            <path d=" M 211.704, 101.278 217.842, 109.172 223.980, 117.067 224.536, 117.782 224.865, 118.205 225.177, 118.606 225.302, 118.767 227.681, 121.827 233.820, 129.722 239.958, 137.616 241.855, 140.056 250.367, 134.807 258.878, 129.558 267.643, 124.153 276.155, 118.904 284.667, 113.655 288.933, 111.024 " fill="none" stroke="rgb(0, 119, 0)" stroke-linecap="butt" stroke-linejoin="round" stroke-opacity="1.0" stroke-width="3.0" />
            <path d=" M 253.704, 135.720 245.170, 140.933 241.800, 142.991 236.499, 146.230 230.344, 138.348 224.406, 130.743 219.534, 124.503 216.611, 120.761 210.457, 112.879 208.517, 110.396 " fill="none" stroke="rgb(0, 119, 0)" stroke-linecap="butt" stroke-linejoin="round" stroke-opacity="1.0" stroke-width="3.0" />
            <path d=" M 206.412, 112.296 208.517, 110.396 206.225, 112.057 198.128, 117.924 195.066, 120.143 192.921, 122.061 195.249, 120.376 203.350, 114.512 206.412, 112.296 " fill="none" stroke="rgb(0, 119, 0)" stroke-linecap="butt" stroke-linejoin="round" stroke-opacity="1.0" stroke-width="3.0" />
            <path d=" M 206.412, 112.296 206.225, 112.057 204.174, 109.434 203.321, 108.343 197.161, 100.466 194.986, 97.685 " fill="none" stroke="rgb(0, 119, 0)" stroke-linecap="butt" stroke-linejoin="round" stroke-opacity="1.0" stroke-width="3.0" />
            <path d=" M 189.065, 98.542 189.168, 98.673 191.105, 101.143 191.378, 101.492 197.549, 109.361 199.158, 111.413 203.321, 108.343 205.464, 106.764 205.059, 106.244 198.904, 98.363 197.597, 96.690 197.194, 96.174 197.097, 96.050 197.056, 95.997 194.986, 97.685 197.097, 96.050 201.303, 92.792 201.977, 92.270 " fill="none" stroke="rgb(0, 119, 0)" stroke-linecap="butt" stroke-linejoin="round" stroke-opacity="1.0" stroke-width="3.0" />
            <path d=" M 205.464, 106.764 211.704, 101.278 219.745, 95.334 227.787, 89.390 235.829, 83.445 243.343, 77.891 " fill="none" stroke="rgb(0, 119, 0)" stroke-linecap="butt" stroke-linejoin="round" stroke-opacity="1.0" stroke-width="3.0" />
            <path d=" M 255.899, 67.258 255.612, 66.876 255.316, 66.485 254.546, 65.465 248.522, 57.483 247.740, 56.447 244.767, 58.753 237.863, 64.105 234.732, 66.532 234.708, 66.551 234.752, 66.608 240.810, 74.564 242.078, 76.231 242.131, 76.300 242.913, 77.326 243.343, 77.891 246.313, 75.225 248.973, 72.836 252.811, 69.390 255.612, 66.876 259.590, 63.304 258.815, 62.275 252.802, 54.285 246.788, 46.295 245.916, 45.136 245.878, 45.085 242.404, 40.469 242.305, 40.337 237.552, 34.022 236.519, 32.650 230.505, 24.660 225.969, 18.632 223.962, 19.843 222.983, 20.435 218.043, 23.417 209.482, 28.586 207.776, 29.616 200.064, 34.273 198.075, 36.072 190.660, 42.781 183.433, 49.319 180.294, 52.159 179.043, 53.291 177.802, 54.414 170.386, 61.123 164.148, 66.768 170.318, 74.637 176.489, 82.506 180.755, 87.946 181.311, 88.655 183.267, 91.149 183.626, 91.607 " fill="none" stroke="rgb(0, 119, 0)" stroke-linecap="butt" stroke-linejoin="round" stroke-opacity="1.0" stroke-width="3.0" />
            <path d=" M 204.177, 143.536 212.525, 138.030 213.081, 137.664 221.428, 132.158 225.859, 129.236 " fill="none" stroke="rgb(0, 119, 0)" stroke-linecap="butt" stroke-linejoin="round" stroke-opacity="1.0" stroke-width="3.0" />
            <path d=" M 200.064, 34.273 202.490, 37.446 " fill="none" stroke="rgb(0, 119, 0)" stroke-linecap="butt" stroke-linejoin="round" stroke-opacity="1.0" stroke-width="3.0" />
            <path d=" M 232.685, 68.210 234.708, 66.551 " fill="none" stroke="rgb(0, 119, 0)" stroke-linecap="butt" stroke-linejoin="round" stroke-opacity="1.0" stroke-width="3.0" />
            <path d=" M 242.154, 76.279 250.177, 70.309 255.316, 66.485 259.590, 63.304 " fill="none" stroke="rgb(0, 119, 0)" stroke-linecap="butt" stroke-linejoin="round" stroke-opacity="1.0" stroke-width="3.0" />
            <path d=" M 199.158, 111.413 205.059, 106.244 212.581, 99.655 220.103, 93.066 222.921, 90.598 " fill="none" stroke="rgb(0, 119, 0)" stroke-linecap="butt" stroke-linejoin="round" stroke-opacity="1.0" stroke-width="3.0" />
            <path d=" M 224.647, 53.285 222.590, 54.970 215.144, 61.068 207.407, 67.405 205.994, 68.562 " fill="none" stroke="rgb(0, 119, 0)" stroke-linecap="butt" stroke-linejoin="round" stroke-opacity="1.0" stroke-width="3.0" />
            <path d=" M 205.952, 68.594 205.994, 68.562 203.968, 65.934 203.938, 65.896 " fill="none" stroke="rgb(0, 119, 0)" stroke-linecap="butt" stroke-linejoin="round" stroke-opacity="1.0" stroke-width="3.0" />
            <path d=" M 213.967, 29.296 221.442, 22.654 224.220, 20.185 225.969, 18.632 " fill="none" stroke="rgb(0, 119, 0)" stroke-linecap="butt" stroke-linejoin="round" stroke-opacity="1.0" stroke-width="3.0" />
            <path d=" M 197.056, 95.997 201.936, 92.217 " fill="none" stroke="rgb(0, 119, 0)" stroke-linecap="butt" stroke-linejoin="round" stroke-opacity="1.0" stroke-width="3.0" />
            <path d=" M 272.428, 79.359 273.754, 78.436 274.982, 77.582 275.286, 77.370 " fill="none" stroke="rgb(0, 119, 0)" stroke-linecap="butt" stroke-linejoin="round" stroke-opacity="1.0" stroke-width="3.0" />
            <path d=" M 244.993, 38.358 242.404, 40.469 234.654, 46.790 226.905, 53.110 225.429, 54.313 223.370, 55.993 215.914, 62.074 213.262, 64.237 " fill="none" stroke="rgb(0, 119, 0)" stroke-linecap="butt" stroke-linejoin="round" stroke-opacity="1.0" stroke-width="3.0" />
            <path d=" M 216.573, 68.550 213.262, 64.237 206.487, 69.288 198.471, 75.266 196.967, 76.388 195.853, 77.218 " fill="none" stroke="rgb(0, 119, 0)" stroke-linecap="butt" stroke-linejoin="round" stroke-opacity="1.0" stroke-width="3.0" />
            <path d=" M 199.405, 81.793 198.003, 79.987 195.853, 77.218 196.425, 76.751 " fill="none" stroke="rgb(0, 119, 0)" stroke-linecap="butt" stroke-linejoin="round" stroke-opacity="1.0" stroke-width="3.0" />
            <path d=" M 227.211, 51.451 235.263, 45.522 242.305, 40.337 244.993, 38.358 248.515, 43.045 254.521, 51.040 260.528, 59.035 262.344, 61.453 263.472, 62.954 263.777, 63.360 269.784, 71.355 269.845, 71.437 " fill="none" stroke="rgb(0, 119, 0)" stroke-linecap="butt" stroke-linejoin="round" stroke-opacity="1.0" stroke-width="3.0" />
            <path d=" M 246.354, 44.704 245.878, 45.085 238.072, 51.335 230.266, 57.586 228.809, 58.752 226.738, 60.411 219.241, 66.414 216.573, 68.550 209.892, 73.704 201.974, 79.812 199.405, 81.793 199.197, 81.960 197.160, 83.594 " fill="none" stroke="rgb(0, 119, 0)" stroke-linecap="butt" stroke-linejoin="round" stroke-opacity="1.0" stroke-width="3.0" />
            <path d=" M 272.148, 69.180 270.146, 71.143 269.845, 71.437 270.185, 71.195 270.486, 70.979 " fill="none" stroke="rgb(0, 119, 0)" stroke-linecap="butt" stroke-linejoin="round" stroke-opacity="1.0" stroke-width="3.0" />
            <path d=" M 200.048, 157.499 198.682, 158.924 192.312, 165.568 191.605, 166.306 " fill="none" stroke="rgb(0, 119, 0)" stroke-linecap="butt" stroke-linejoin="round" stroke-opacity="1.0" stroke-width="3.0" />
            <path d=" M 176.346, 239.546 182.650, 231.783 188.953, 224.020 191.935, 220.348 198.239, 212.586 199.310, 211.267 " fill="none" stroke="rgb(0, 119, 0)" stroke-linecap="butt" stroke-linejoin="round" stroke-opacity="1.0" stroke-width="3.0" />
            <path d=" M 170.786, 176.078 172.366, 178.027 178.663, 185.796 184.960, 193.564 191.257, 201.332 197.554, 209.101 199.310, 211.267 208.189, 206.667 208.749, 206.377 214.400, 203.450 214.529, 203.383 222.286, 199.365 230.133, 195.299 " fill="none" stroke="rgb(0, 119, 0)" stroke-linecap="butt" stroke-linejoin="round" stroke-opacity="1.0" stroke-width="3.0" />
            <path d=" M 219.774, 182.283 218.466, 180.639 217.737, 179.723 217.018, 178.820 214.787, 176.018 214.077, 175.125 213.958, 174.975 213.850, 174.839 211.661, 172.089 209.500, 169.375 203.273, 161.550 200.596, 158.186 200.344, 157.871 200.048, 157.499 191.606, 162.859 190.636, 163.475 189.775, 164.022 " fill="none" stroke="rgb(0, 119, 0)" stroke-linecap="butt" stroke-linejoin="round" stroke-opacity="1.0" stroke-width="3.0" />
            <path d=" M 236.441, 150.706 242.150, 158.006 245.591, 162.405 247.625, 165.007 247.715, 165.121 248.704, 166.385 " fill="none" stroke="rgb(0, 119, 0)" stroke-linecap="butt" stroke-linejoin="round" stroke-opacity="1.0" stroke-width="3.0" />
            <path d=" M 255.777, 162.451 248.704, 166.385 246.474, 169.284 241.267, 176.055 235.841, 183.110 234.463, 184.901 228.548, 192.593 " fill="none" stroke="rgb(0, 119, 0)" stroke-linecap="butt" stroke-linejoin="round" stroke-opacity="1.0" stroke-width="3.0" />
            <path d=" M 222.612, 166.846 224.665, 164.442 224.730, 164.366 " fill="none" stroke="rgb(0, 119, 0)" stroke-linecap="butt" stroke-linejoin="round" stroke-opacity="1.0" stroke-width="3.0" />
            <path d=" M 224.751, 164.392 224.730, 164.366 223.988, 164.802 221.946, 166.003 219.559, 167.407 216.633, 169.128 213.375, 165.022 207.160, 157.189 204.625, 153.994 204.409, 153.722 203.926, 153.113 199.424, 155.991 190.997, 161.376 189.647, 162.239 190.329, 163.090 190.636, 163.475 190.927, 163.838 192.312, 165.568 192.876, 166.272 199.126, 174.079 202.055, 177.737 210.675, 172.669 211.661, 172.089 212.050, 171.860 213.087, 171.250 213.848, 170.803 216.567, 169.204 219.579, 167.433 221.966, 166.029 224.009, 164.828 224.665, 164.442 224.751, 164.392 " fill="none" stroke="rgb(0, 119, 0)" stroke-linecap="butt" stroke-linejoin="round" stroke-opacity="1.0" stroke-width="3.0" />
            <path d=" M 224.751, 164.392 227.921, 160.680 234.416, 153.077 236.441, 150.706 243.380, 146.530 " fill="none" stroke="rgb(0, 119, 0)" stroke-linecap="butt" stroke-linejoin="round" stroke-opacity="1.0" stroke-width="3.0" />
            <path d=" M 212.442, 141.024 205.683, 145.439 197.311, 150.909 196.040, 151.739 " fill="none" stroke="rgb(0, 119, 0)" stroke-linecap="butt" stroke-linejoin="round" stroke-opacity="1.0" stroke-width="3.0" />
            <path d=" M 265.261, 155.128 259.303, 163.160 253.345, 171.191 248.900, 177.183 248.203, 178.122 245.627, 181.594 244.255, 183.443 " fill="none" stroke="rgb(0, 119, 0)" stroke-linecap="butt" stroke-linejoin="round" stroke-opacity="1.0" stroke-width="3.0" />
            <path d=" M 228.060, 191.979 236.906, 187.317 238.502, 186.475 242.838, 184.190 244.255, 183.443 244.756, 184.078 249.487, 190.082 " fill="none" stroke="rgb(0, 119, 0)" stroke-linecap="butt" stroke-linejoin="round" stroke-opacity="1.0" stroke-width="3.0" />
            <path d=" M 293.678, 198.811 284.565, 202.929 283.557, 203.384 277.076, 206.312 273.161, 208.081 264.048, 212.199 258.354, 214.771 259.165, 213.495 268.272, 209.364 272.620, 207.392 276.532, 205.618 284.311, 202.089 293.418, 197.958 297.103, 196.287 " fill="none" stroke="rgb(0, 119, 0)" stroke-linecap="butt" stroke-linejoin="round" stroke-opacity="1.0" stroke-width="3.0" />
            <path d=" M 355.461, 34.965 347.168, 40.554 338.876, 46.142 334.950, 48.788 326.658, 54.376 318.365, 59.965 310.072, 65.553 309.474, 65.956 307.248, 68.572 310.026, 66.705 318.327, 61.128 326.627, 55.551 334.927, 49.974 335.521, 49.575 343.821, 43.998 352.122, 38.420 354.147, 37.060 359.969, 45.190 365.792, 53.320 371.189, 60.856 366.315, 69.588 361.441, 78.320 361.106, 78.919 358.097, 80.714 349.509, 85.838 340.922, 90.961 332.334, 96.085 331.883, 96.353 323.295, 101.477 314.708, 106.600 310.022, 109.395 311.849, 111.839 " fill="none" stroke="rgb(0, 119, 0)" stroke-linecap="butt" stroke-linejoin="round" stroke-opacity="1.0" stroke-width="3.0" />
            <path d=" M 361.106, 78.919 361.899, 80.015 " fill="none" stroke="rgb(0, 119, 0)" stroke-linecap="butt" stroke-linejoin="round" stroke-opacity="1.0" stroke-width="3.0" />
            <path d=" M 327.590, 132.898 332.548, 124.213 337.505, 115.529 341.221, 109.020 " fill="none" stroke="rgb(0, 119, 0)" stroke-linecap="butt" stroke-linejoin="round" stroke-opacity="1.0" stroke-width="3.0" />
            <path d=" M 309.474, 65.956 310.026, 66.705 315.960, 74.755 321.894, 82.804 327.828, 90.853 331.883, 96.353 333.762, 98.902 339.696, 106.951 341.221, 109.020 349.923, 104.093 358.626, 99.167 367.328, 94.241 376.030, 89.314 384.733, 84.388 389.519, 81.678 " fill="none" stroke="rgb(0, 119, 0)" stroke-linecap="butt" stroke-linejoin="round" stroke-opacity="1.0" stroke-width="3.0" />
            <path d=" M 323.319, 90.333 317.379, 82.289 311.438, 74.245 307.248, 68.572 " fill="none" stroke="rgb(0, 119, 0)" stroke-linecap="butt" stroke-linejoin="round" stroke-opacity="1.0" stroke-width="3.0" />
            <path d=" M 310.022, 109.395 315.744, 101.194 321.465, 92.992 323.319, 90.333 320.543, 92.043 " fill="none" stroke="rgb(0, 119, 0)" stroke-linecap="butt" stroke-linejoin="round" stroke-opacity="1.0" stroke-width="3.0" />
            <path d=" M 371.189, 60.856 373.126, 59.663 " fill="none" stroke="rgb(0, 119, 0)" stroke-linecap="butt" stroke-linejoin="round" stroke-opacity="1.0" stroke-width="3.0" />
            <path d=" M 302.855, 117.149 306.961, 111.320 312.721, 103.145 318.480, 94.971 320.543, 92.043 314.595, 84.004 308.648, 75.965 302.700, 67.926 296.752, 59.887 294.369, 56.665 " fill="none" stroke="rgb(0, 119, 0)" stroke-linecap="butt" stroke-linejoin="round" stroke-opacity="1.0" stroke-width="3.0" />
            <path d=" M 262.905, 64.004 263.352, 64.599 269.141, 72.299 271.078, 74.877 273.754, 78.436 273.974, 78.728 276.530, 82.130 276.727, 82.391 282.736, 90.384 288.744, 98.378 294.753, 106.371 300.762, 114.364 302.855, 117.149 308.729, 113.681 " fill="none" stroke="rgb(0, 119, 0)" stroke-linecap="butt" stroke-linejoin="round" stroke-opacity="1.0" stroke-width="3.0" />
            <path d=" M 288.911, 62.286 294.369, 56.665 299.441, 53.067 " fill="none" stroke="rgb(0, 119, 0)" stroke-linecap="butt" stroke-linejoin="round" stroke-opacity="1.0" stroke-width="3.0" />
            <path d=" M 289.701, 39.858 291.540, 42.351 297.475, 50.400 297.794, 50.833 299.441, 53.067 306.377, 45.863 309.992, 42.107 304.088, 34.036 303.633, 33.414 301.764, 30.859 " fill="none" stroke="rgb(0, 119, 0)" stroke-linecap="butt" stroke-linejoin="round" stroke-opacity="1.0" stroke-width="3.0" />
            <path d=" M 222.891, 297.000 228.013, 288.411 233.135, 279.822 238.257, 271.234 243.379, 262.645 248.292, 254.407 " fill="none" stroke="rgb(0, 119, 0)" stroke-linecap="butt" stroke-linejoin="round" stroke-opacity="1.0" stroke-width="3.0" />
            <path d=" M 211.670, 208.958 212.408, 209.875 213.284, 210.961 213.324, 211.011 215.849, 214.145 222.123, 221.931 226.979, 227.957 233.253, 235.744 239.528, 243.530 245.802, 251.317 248.292, 254.407 257.632, 250.836 266.973, 247.265 276.313, 243.693 285.654, 240.122 287.756, 239.318 291.912, 237.730 293.505, 237.121 293.810, 237.004 " fill="none" stroke="rgb(0, 119, 0)" stroke-linecap="butt" stroke-linejoin="round" stroke-opacity="1.0" stroke-width="3.0" />
            <path d=" M 187.673, 239.662 190.584, 243.201 196.935, 250.925 203.287, 258.648 208.675, 265.200 214.704, 262.839 212.284, 259.887 205.945, 252.153 199.606, 244.419 196.422, 240.535 191.595, 234.645 " fill="none" stroke="rgb(0, 119, 0)" stroke-linecap="butt" stroke-linejoin="round" stroke-opacity="1.0" stroke-width="3.0" />
            <path d=" M 211.670, 208.958 211.606, 209.040 211.256, 209.488 210.664, 210.246 210.387, 210.600 210.139, 210.918 210.001, 211.094 210.558, 210.812 210.759, 210.710 211.812, 210.177 212.316, 209.921 212.408, 209.875 212.446, 209.855 215.224, 208.448 221.814, 205.110 223.306, 203.149 223.451, 202.959 223.240, 203.066 221.064, 204.174 216.879, 206.305 211.708, 208.939 211.670, 208.958 " fill="none" stroke="rgb(0, 119, 0)" stroke-linecap="butt" stroke-linejoin="round" stroke-opacity="1.0" stroke-width="3.0" />
            <path d=" M 214.704, 262.839 220.259, 254.524 225.815, 246.209 231.486, 237.720 " fill="none" stroke="rgb(0, 119, 0)" stroke-linecap="butt" stroke-linejoin="round" stroke-opacity="1.0" stroke-width="3.0" />
            <path d=" M 225.632, 240.235 231.486, 237.720 225.206, 229.937 224.512, 229.077 218.232, 221.294 214.209, 216.308 210.063, 211.170 210.001, 211.094 " fill="none" stroke="rgb(0, 119, 0)" stroke-linecap="butt" stroke-linejoin="round" stroke-opacity="1.0" stroke-width="3.0" />
            <path d=" M 280.628, 263.268 282.487, 259.565 286.972, 250.627 291.458, 241.690 293.810, 237.004 293.660, 236.813 292.879, 235.819 291.912, 237.730 287.397, 246.652 284.172, 253.026 283.353, 254.645 284.992, 254.059 289.482, 245.124 293.505, 237.121 293.660, 236.813 294.528, 235.086 296.513, 231.135 " fill="none" stroke="rgb(0, 119, 0)" stroke-linecap="butt" stroke-linejoin="round" stroke-opacity="1.0" stroke-width="3.0" />
            <path d=" M 223.451, 202.959 223.901, 203.522 227.696, 208.265 " fill="none" stroke="rgb(0, 119, 0)" stroke-linecap="butt" stroke-linejoin="round" stroke-opacity="1.0" stroke-width="3.0" />
            <path d=" M 254.533, 250.587 263.864, 246.993 273.196, 243.399 282.528, 239.805 288.737, 237.414 292.879, 235.819 " fill="none" stroke="rgb(0, 119, 0)" stroke-linecap="butt" stroke-linejoin="round" stroke-opacity="1.0" stroke-width="3.0" />
            <path d=" M 222.589, 210.787 228.848, 218.586 233.862, 224.833 240.122, 232.632 246.381, 240.430 252.640, 248.229 254.533, 250.587 259.589, 241.960 263.528, 235.239 272.787, 231.462 281.432, 227.935 290.691, 224.157 290.962, 224.046 293.160, 223.150 302.426, 219.369 " fill="none" stroke="rgb(0, 119, 0)" stroke-linecap="butt" stroke-linejoin="round" stroke-opacity="1.0" stroke-width="3.0" />
            <path d=" M 256.914, 95.343 257.358, 95.926 260.353, 99.860 " fill="none" stroke="rgb(0, 119, 0)" stroke-linecap="butt" stroke-linejoin="round" stroke-opacity="1.0" stroke-width="3.0" />
            <path d=" M 225.622, 123.212 226.061, 122.768 233.085, 115.651 240.110, 108.533 242.396, 106.217 244.525, 104.060 " fill="none" stroke="rgb(0, 119, 0)" stroke-linecap="butt" stroke-linejoin="round" stroke-opacity="1.0" stroke-width="3.0" />
            <path d=" M 217.041, 68.253 222.991, 76.005 229.080, 83.938 230.094, 85.259 230.821, 86.206 230.860, 86.257 236.949, 94.190 243.037, 102.123 244.413, 103.915 244.525, 104.060 249.608, 100.577 257.857, 94.925 259.240, 93.977 267.489, 88.325 270.331, 86.378 276.530, 82.130 277.764, 81.285 " fill="none" stroke="rgb(0, 119, 0)" stroke-linecap="butt" stroke-linejoin="round" stroke-opacity="1.0" stroke-width="3.0" />
            <path d=" M 223.126, 120.006 223.569, 119.567 224.456, 118.689 224.352, 118.556 224.092, 118.221 217.952, 110.327 211.813, 102.434 205.673, 94.540 199.534, 86.647 197.160, 83.594 199.227, 81.999 207.144, 75.890 209.924, 73.745 217.041, 68.253 219.277, 66.463 226.775, 60.460 228.847, 58.802 236.653, 52.552 244.460, 46.302 245.916, 45.136 246.393, 44.755 248.848, 42.789 " fill="none" stroke="rgb(0, 119, 0)" stroke-linecap="butt" stroke-linejoin="round" stroke-opacity="1.0" stroke-width="3.0" />
            <path d=" M 202.372, 211.505 204.294, 213.880 204.416, 214.030 210.366, 221.379 216.658, 229.151 218.725, 231.703 225.017, 239.475 225.632, 240.235 220.013, 248.507 214.395, 256.779 212.284, 259.887 208.675, 265.200 " fill="none" stroke="rgb(0, 119, 0)" stroke-linecap="butt" stroke-linejoin="round" stroke-opacity="1.0" stroke-width="3.0" />
            <path d=" M 183.674, 234.800 192.679, 230.451 201.684, 226.102 203.683, 225.137 209.731, 222.215 " fill="none" stroke="rgb(0, 119, 0)" stroke-linecap="butt" stroke-linejoin="round" stroke-opacity="1.0" stroke-width="3.0" />
            <path d=" M 213.351, 210.977 213.220, 211.043 " fill="none" stroke="rgb(0, 119, 0)" stroke-linecap="butt" stroke-linejoin="round" stroke-opacity="1.0" stroke-width="3.0" />
            <path d=" M 87.454, 83.629 96.192, 78.767 104.672, 74.049 111.417, 70.296 120.155, 65.434 122.664, 64.039 125.650, 62.377 " fill="none" stroke="rgb(0, 119, 0)" stroke-linecap="butt" stroke-linejoin="round" stroke-opacity="1.0" stroke-width="3.0" />
            <path d=" M 159.575, 28.203 152.530, 35.300 145.484, 42.397 138.439, 49.494 131.394, 56.591 125.650, 62.377 131.875, 70.203 138.100, 78.029 144.326, 85.855 150.551, 93.681 156.776, 101.507 159.337, 104.727 162.491, 108.691 " fill="none" stroke="rgb(0, 119, 0)" stroke-linecap="butt" stroke-linejoin="round" stroke-opacity="1.0" stroke-width="3.0" />
            <path d=" M 291.418, 205.219 289.655, 205.998 282.292, 209.252 280.127, 210.209 276.195, 211.947 267.049, 215.990 258.282, 219.865 260.017, 217.095 269.150, 213.023 274.994, 210.417 278.920, 208.667 281.081, 207.703 290.214, 203.631 291.235, 203.176 293.962, 201.960 295.565, 201.245 " fill="none" stroke="rgb(0, 119, 0)" stroke-linecap="butt" stroke-linejoin="round" stroke-opacity="1.0" stroke-width="3.0" />
            <path d=" M 221.742, 117.219 218.756, 120.129 212.216, 126.505 207.738, 130.870 " fill="none" stroke="rgb(0, 119, 0)" stroke-linecap="butt" stroke-linejoin="round" stroke-opacity="1.0" stroke-width="3.0" />
            <path d=" M 225.248, 153.136 223.518, 155.089 219.711, 159.387 217.683, 160.613 216.854, 161.115 210.649, 153.273 208.877, 151.034 208.794, 150.928 205.181, 146.363 204.440, 146.846 203.671, 147.347 196.346, 152.123 195.496, 152.677 191.226, 147.313 189.427, 145.054 193.400, 141.231 197.686, 138.314 198.876, 137.505 202.930, 134.746 204.992, 132.743 206.492, 131.720 207.738, 130.870 209.377, 132.954 213.081, 137.664 214.461, 139.419 220.642, 147.279 225.248, 153.136 " fill="none" stroke="rgb(0, 119, 0)" stroke-linecap="butt" stroke-linejoin="round" stroke-opacity="1.0" stroke-width="3.0" />
            <path d=" M 219.711, 159.387 223.988, 164.802 224.009, 164.828 226.243, 167.658 229.368, 171.613 230.212, 172.682 " fill="none" stroke="rgb(0, 119, 0)" stroke-linecap="butt" stroke-linejoin="round" stroke-opacity="1.0" stroke-width="3.0" />
            <path d=" M 219.645, 167.517 222.033, 166.113 228.983, 162.028 237.604, 156.961 246.225, 151.894 247.943, 150.884 " fill="none" stroke="rgb(0, 119, 0)" stroke-linecap="butt" stroke-linejoin="round" stroke-opacity="1.0" stroke-width="3.0" />
            <path d=" M 216.659, 172.119 214.689, 173.265 " fill="none" stroke="rgb(0, 119, 0)" stroke-linecap="butt" stroke-linejoin="round" stroke-opacity="1.0" stroke-width="3.0" />
            <path d=" M 201.743, 156.984 207.967, 164.811 213.087, 171.250 214.689, 173.265 217.789, 169.669 219.645, 167.517 219.579, 167.433 219.559, 167.407 213.350, 159.568 207.491, 152.171 207.274, 151.896 203.671, 147.347 202.217, 145.512 198.230, 140.477 " fill="none" stroke="rgb(0, 119, 0)" stroke-linecap="butt" stroke-linejoin="round" stroke-opacity="1.0" stroke-width="3.0" />
            <path d=" M 187.808, 150.649 191.226, 147.313 198.230, 140.477 206.519, 134.883 209.377, 132.954 214.540, 129.470 " fill="none" stroke="rgb(0, 119, 0)" stroke-linecap="butt" stroke-linejoin="round" stroke-opacity="1.0" stroke-width="3.0" />
            <path d=" M 128.487, 134.082 136.243, 127.770 141.211, 123.728 148.968, 117.416 149.115, 117.296 147.399, 115.157 147.112, 114.800 140.855, 106.999 138.867, 104.520 138.033, 103.481 131.777, 95.680 125.520, 87.879 119.263, 80.079 113.006, 72.278 111.417, 70.296 109.193, 67.524 107.450, 65.351 101.941, 68.310 " fill="none" stroke="rgb(0, 119, 0)" stroke-linecap="butt" stroke-linejoin="round" stroke-opacity="1.0" stroke-width="3.0" />
            <path d=" M 31.966, 123.308 40.631, 118.317 49.296, 113.326 57.962, 108.334 66.627, 103.343 75.292, 98.352 76.875, 97.440 83.217, 105.172 89.560, 112.903 95.902, 120.634 102.245, 128.365 108.588, 136.096 114.930, 143.827 115.563, 144.598 " fill="none" stroke="rgb(0, 119, 0)" stroke-linecap="butt" stroke-linejoin="round" stroke-opacity="1.0" stroke-width="3.0" />
            <path d=" M 107.450, 65.351 102.148, 70.915 " fill="none" stroke="rgb(0, 119, 0)" stroke-linecap="butt" stroke-linejoin="round" stroke-opacity="1.0" stroke-width="3.0" />
            <path d=" M 242.957, 30.260 248.957, 38.260 254.957, 46.260 260.957, 54.260 264.736, 59.299 265.851, 60.785 266.355, 61.457 272.148, 69.180 274.266, 67.665 282.399, 61.847 286.438, 58.957 294.571, 53.139 297.794, 50.833 305.927, 45.015 309.992, 42.107 " fill="none" stroke="rgb(0, 119, 0)" stroke-linecap="butt" stroke-linejoin="round" stroke-opacity="1.0" stroke-width="3.0" />
            <path d=" M 233.046, 42.998 230.152, 39.171 " fill="none" stroke="rgb(0, 119, 0)" stroke-linecap="butt" stroke-linejoin="round" stroke-opacity="1.0" stroke-width="3.0" />
            <path d=" M 235.284, 34.867 230.152, 39.171 237.552, 34.022 242.957, 30.260 250.633, 23.850 252.776, 22.061 260.451, 15.651 268.127, 9.242 275.802, 2.832 279.193, 0.000 " fill="none" stroke="rgb(0, 119, 0)" stroke-linecap="butt" stroke-linejoin="round" stroke-opacity="1.0" stroke-width="3.0" />
            <path d=" M 252.514, 66.984 254.546, 65.465 258.815, 62.275 259.301, 61.912 261.806, 60.040 269.817, 54.054 274.179, 50.794 " fill="none" stroke="rgb(0, 119, 0)" stroke-linecap="butt" stroke-linejoin="round" stroke-opacity="1.0" stroke-width="3.0" />
            <path d=" M 207.064, 34.608 210.919, 31.176 218.388, 24.526 222.983, 20.435 223.836, 19.675 231.304, 13.025 238.773, 6.376 240.167, 5.135 " fill="none" stroke="rgb(0, 119, 0)" stroke-linecap="butt" stroke-linejoin="round" stroke-opacity="1.0" stroke-width="3.0" />
            <path d=" M 191.426, 135.055 192.416, 134.130 193.542, 133.079 194.596, 132.093 196.800, 130.034 198.189, 128.737 200.290, 126.774 201.620, 125.530 206.487, 120.983 201.055, 124.812 199.722, 126.053 197.616, 128.011 196.224, 129.305 194.015, 131.359 192.958, 132.342 191.830, 133.391 190.837, 134.314 " fill="none" stroke="rgb(0, 119, 0)" stroke-linecap="butt" stroke-linejoin="round" stroke-opacity="1.0" stroke-width="3.0" />
            <path d=" M 225.248, 153.136 233.782, 147.924 241.819, 143.015 250.353, 137.803 253.642, 135.794 253.723, 135.745 " fill="none" stroke="rgb(0, 119, 0)" stroke-linecap="butt" stroke-linejoin="round" stroke-opacity="1.0" stroke-width="3.0" />
            <path d=" M 246.021, 143.394 243.990, 145.805 243.380, 146.530 247.344, 151.621 252.630, 158.410 252.776, 158.597 254.687, 161.051 255.777, 162.451 253.585, 165.353 247.557, 173.332 243.426, 178.799 241.766, 180.996 241.058, 181.934 " fill="none" stroke="rgb(0, 119, 0)" stroke-linecap="butt" stroke-linejoin="round" stroke-opacity="1.0" stroke-width="3.0" />
            <path d=" M 248.646, 141.806 246.021, 143.394 252.156, 151.291 258.208, 159.079 259.816, 161.149 264.718, 167.457 " fill="none" stroke="rgb(0, 119, 0)" stroke-linecap="butt" stroke-linejoin="round" stroke-opacity="1.0" stroke-width="3.0" />
            <path d=" M 202.055, 177.737 208.705, 170.269 209.500, 169.375 209.803, 169.035 211.197, 167.469 213.375, 165.022 216.854, 161.115 " fill="none" stroke="rgb(0, 119, 0)" stroke-linecap="butt" stroke-linejoin="round" stroke-opacity="1.0" stroke-width="3.0" />
            <path d=" M 204.992, 132.743 200.290, 126.774 199.722, 126.053 195.249, 120.376 195.066, 120.143 " fill="none" stroke="rgb(0, 119, 0)" stroke-linecap="butt" stroke-linejoin="round" stroke-opacity="1.0" stroke-width="3.0" />
            <path d=" M 277.971, 139.849 286.639, 134.861 286.804, 134.766 295.471, 129.779 304.139, 124.792 312.807, 119.804 313.162, 119.600 " fill="none" stroke="rgb(0, 119, 0)" stroke-linecap="butt" stroke-linejoin="round" stroke-opacity="1.0" stroke-width="3.0" />
            <path d=" M 231.992, 186.222 235.112, 182.189 240.556, 175.152 244.065, 170.616 " fill="none" stroke="rgb(0, 119, 0)" stroke-linecap="butt" stroke-linejoin="round" stroke-opacity="1.0" stroke-width="3.0" />
            <path d=" M 253.149, 158.116 252.630, 158.410 245.591, 162.405 242.533, 164.141 240.078, 165.535 235.176, 168.317 232.551, 169.806 229.368, 171.613 223.190, 175.120 224.026, 176.174 226.085, 178.770 " fill="none" stroke="rgb(0, 119, 0)" stroke-linecap="butt" stroke-linejoin="round" stroke-opacity="1.0" stroke-width="3.0" />
            <path d=" M 248.058, 190.809 250.350, 187.596 256.158, 179.455 257.717, 177.270 262.583, 170.450 263.255, 169.508 264.718, 167.457 271.840, 163.632 280.650, 158.901 289.460, 154.169 290.975, 153.355 298.060, 149.550 " fill="none" stroke="rgb(0, 119, 0)" stroke-linecap="butt" stroke-linejoin="round" stroke-opacity="1.0" stroke-width="3.0" />
            <path d=" M 271.462, 165.712 264.351, 169.507 262.583, 170.450 253.760, 175.157 248.203, 178.122 244.463, 180.117 241.058, 181.934 242.838, 184.190 243.337, 184.824 " fill="none" stroke="rgb(0, 119, 0)" stroke-linecap="butt" stroke-linejoin="round" stroke-opacity="1.0" stroke-width="3.0" />
            <path d=" M 263.795, 155.810 263.870, 155.907 269.993, 163.814 271.138, 165.293 " fill="none" stroke="rgb(0, 119, 0)" stroke-linecap="butt" stroke-linejoin="round" stroke-opacity="1.0" stroke-width="3.0" />
            <path d=" M 302.403, 234.968 306.741, 225.958 311.079, 216.948 312.356, 214.295 " fill="none" stroke="rgb(0, 119, 0)" stroke-linecap="butt" stroke-linejoin="round" stroke-opacity="1.0" stroke-width="3.0" />
            <path d=" M 292.302, 188.359 298.419, 196.270 304.536, 204.181 310.653, 212.092 312.356, 214.295 321.609, 210.503 330.863, 206.711 340.333, 202.831 " fill="none" stroke="rgb(0, 119, 0)" stroke-linecap="butt" stroke-linejoin="round" stroke-opacity="1.0" stroke-width="3.0" />
            <path d=" M 291.730, 189.342 286.700, 197.985 284.311, 202.089 283.557, 203.384 281.059, 207.676 281.081, 207.703 282.292, 209.252 285.522, 213.382 286.316, 214.398 286.761, 214.967 287.499, 215.910 293.160, 223.150 297.645, 228.884 " fill="none" stroke="rgb(0, 119, 0)" stroke-linecap="butt" stroke-linejoin="round" stroke-opacity="1.0" stroke-width="3.0" />
            <path d=" M 281.059, 207.676 290.192, 203.603 291.263, 203.125 293.990, 201.909 295.543, 201.217 " fill="none" stroke="rgb(0, 119, 0)" stroke-linecap="butt" stroke-linejoin="round" stroke-opacity="1.0" stroke-width="3.0" />
            <path d=" M 206.487, 120.983 212.658, 128.852 218.747, 136.616 " fill="none" stroke="rgb(0, 119, 0)" stroke-linecap="butt" stroke-linejoin="round" stroke-opacity="1.0" stroke-width="3.0" />
            <path d=" M 213.200, 140.243 207.015, 132.385 206.492, 131.720 201.620, 125.530 201.055, 124.812 " fill="none" stroke="rgb(0, 119, 0)" stroke-linecap="butt" stroke-linejoin="round" stroke-opacity="1.0" stroke-width="3.0" />
            <path d=" M 202.930, 134.746 198.189, 128.737 197.616, 128.011 192.921, 122.061 " fill="none" stroke="rgb(0, 119, 0)" stroke-linecap="butt" stroke-linejoin="round" stroke-opacity="1.0" stroke-width="3.0" />
            <path d=" M 282.065, 250.369 284.172, 253.026 284.992, 254.059 " fill="none" stroke="rgb(0, 119, 0)" stroke-linecap="butt" stroke-linejoin="round" stroke-opacity="1.0" stroke-width="3.0" />
            <path d=" M 210.925, 207.968 210.796, 208.034 " fill="none" stroke="rgb(0, 119, 0)" stroke-linecap="butt" stroke-linejoin="round" stroke-opacity="1.0" stroke-width="3.0" />
            <path d=" M 219.771, 202.561 221.064, 204.174 221.814, 205.110 " fill="none" stroke="rgb(0, 119, 0)" stroke-linecap="butt" stroke-linejoin="round" stroke-opacity="1.0" stroke-width="3.0" />
            <path d=" M 283.353, 254.645 280.433, 250.967 " fill="none" stroke="rgb(0, 119, 0)" stroke-linecap="butt" stroke-linejoin="round" stroke-opacity="1.0" stroke-width="3.0" />
            <path d=" M 209.143, 188.200 214.929, 181.308 217.018, 178.820 217.311, 178.471 223.741, 170.812 226.527, 167.493 230.015, 163.339 " fill="none" stroke="rgb(0, 119, 0)" stroke-linecap="butt" stroke-linejoin="round" stroke-opacity="1.0" stroke-width="3.0" />
            <path d=" M 235.735, 160.000 232.089, 164.394 225.704, 172.090 223.190, 175.120 " fill="none" stroke="rgb(0, 119, 0)" stroke-linecap="butt" stroke-linejoin="round" stroke-opacity="1.0" stroke-width="3.0" />
            <path d=" M 227.851, 50.927 233.901, 58.889 237.863, 64.105 237.907, 64.162 243.957, 72.125 245.066, 73.584 246.110, 74.958 246.313, 75.225 246.812, 75.882 252.862, 83.844 254.787, 86.378 " fill="none" stroke="rgb(0, 119, 0)" stroke-linecap="butt" stroke-linejoin="round" stroke-opacity="1.0" stroke-width="3.0" />
            <path d=" M 242.116, 76.313 242.897, 77.338 243.595, 78.256 249.653, 86.212 255.711, 94.168 256.712, 95.482 257.185, 96.104 " fill="none" stroke="rgb(0, 119, 0)" stroke-linecap="butt" stroke-linejoin="round" stroke-opacity="1.0" stroke-width="3.0" />
            <path d=" M 164.148, 66.768 172.578, 61.390 179.694, 56.850 181.106, 55.949 186.099, 52.764 186.749, 52.349 " fill="none" stroke="rgb(0, 119, 0)" stroke-linecap="butt" stroke-linejoin="round" stroke-opacity="1.0" stroke-width="3.0" />
            <path d=" M 178.676, 52.817 177.435, 53.942 177.802, 54.414 179.694, 56.850 185.828, 64.748 191.962, 72.645 195.390, 77.059 195.419, 77.096 195.478, 77.172 195.618, 77.352 197.765, 80.117 197.795, 80.155 " fill="none" stroke="rgb(0, 119, 0)" stroke-linecap="butt" stroke-linejoin="round" stroke-opacity="1.0" stroke-width="3.0" />
            <path d=" M 177.435, 53.942 178.859, 53.054 180.294, 52.159 183.894, 49.914 192.379, 44.623 199.255, 40.336 " fill="none" stroke="rgb(0, 119, 0)" stroke-linecap="butt" stroke-linejoin="round" stroke-opacity="1.0" stroke-width="3.0" />
            <path d=" M 214.484, 171.604 216.567, 169.204 216.633, 169.128 " fill="none" stroke="rgb(0, 119, 0)" stroke-linecap="butt" stroke-linejoin="round" stroke-opacity="1.0" stroke-width="3.0" />
            <path d=" M 173.916, 155.570 179.806, 151.577 185.479, 147.731 189.427, 145.054 " fill="none" stroke="rgb(0, 119, 0)" stroke-linecap="butt" stroke-linejoin="round" stroke-opacity="1.0" stroke-width="3.0" />
            <path d=" M 176.406, 171.948 182.300, 165.998 187.308, 160.943 194.346, 153.838 195.496, 152.677 " fill="none" stroke="rgb(0, 119, 0)" stroke-linecap="butt" stroke-linejoin="round" stroke-opacity="1.0" stroke-width="3.0" />
            <path d=" M 203.926, 153.113 201.662, 155.472 " fill="none" stroke="rgb(0, 119, 0)" stroke-linecap="butt" stroke-linejoin="round" stroke-opacity="1.0" stroke-width="3.0" />
            <path d=" M 205.181, 146.363 198.188, 153.510 197.781, 153.926 190.787, 161.074 189.647, 162.239 " fill="none" stroke="rgb(0, 119, 0)" stroke-linecap="butt" stroke-linejoin="round" stroke-opacity="1.0" stroke-width="3.0" />
            <path d=" M 170.839, 112.810 177.057, 120.642 183.274, 128.475 189.153, 135.880 193.400, 141.231 " fill="none" stroke="rgb(0, 119, 0)" stroke-linecap="butt" stroke-linejoin="round" stroke-opacity="1.0" stroke-width="3.0" />
            <path d=" M 87.649, 75.988 89.236, 77.944 " fill="none" stroke="rgb(0, 119, 0)" stroke-linecap="butt" stroke-linejoin="round" stroke-opacity="1.0" stroke-width="3.0" />
            <path d=" M 127.945, 133.416 135.901, 127.358 141.005, 123.472 148.961, 117.413 149.115, 117.296 " fill="none" stroke="rgb(0, 119, 0)" stroke-linecap="butt" stroke-linejoin="round" stroke-opacity="1.0" stroke-width="3.0" />
            <path d=" M 186.913, 124.705 192.958, 132.342 193.542, 133.079 197.686, 138.314 202.866, 144.857 204.440, 146.846 208.048, 151.403 208.266, 151.678 " fill="none" stroke="rgb(0, 119, 0)" stroke-linecap="butt" stroke-linejoin="round" stroke-opacity="1.0" stroke-width="3.0" />
            <path d=" M 206.344, 27.734 207.776, 29.616 209.588, 31.997 " fill="none" stroke="rgb(0, 119, 0)" stroke-linecap="butt" stroke-linejoin="round" stroke-opacity="1.0" stroke-width="3.0" />
            <path d=" M 220.839, 207.562 212.913, 211.543 " fill="none" stroke="rgb(0, 119, 0)" stroke-linecap="butt" stroke-linejoin="round" stroke-opacity="1.0" stroke-width="3.0" />
            <path d=" M 205.200, 89.689 213.105, 83.565 215.854, 81.435 223.760, 75.311 225.202, 74.193 " fill="none" stroke="rgb(0, 119, 0)" stroke-linecap="butt" stroke-linejoin="round" stroke-opacity="1.0" stroke-width="3.0" />
            <path d=" M 222.036, 184.409 226.339, 179.091 227.020, 178.250 229.537, 175.138 " fill="none" stroke="rgb(0, 119, 0)" stroke-linecap="butt" stroke-linejoin="round" stroke-opacity="1.0" stroke-width="3.0" />
            <path d=" M 227.659, 192.191 219.971, 196.243 211.125, 200.906 206.362, 203.416 " fill="none" stroke="rgb(0, 119, 0)" stroke-linecap="butt" stroke-linejoin="round" stroke-opacity="1.0" stroke-width="3.0" />
            <path d=" M 264.030, 169.094 258.855, 162.439 " fill="none" stroke="rgb(0, 119, 0)" stroke-linecap="butt" stroke-linejoin="round" stroke-opacity="1.0" stroke-width="3.0" />
            <path d=" M 275.297, 163.070 269.184, 155.155 267.909, 153.504 " fill="none" stroke="rgb(0, 119, 0)" stroke-linecap="butt" stroke-linejoin="round" stroke-opacity="1.0" stroke-width="3.0" />
            <path d=" M 355.571, 35.120 354.147, 37.060 " fill="none" stroke="rgb(0, 119, 0)" stroke-linecap="butt" stroke-linejoin="round" stroke-opacity="1.0" stroke-width="3.0" />
        </g>
    </g>
</svg>
