<?xml version='1.0' encoding='ascii'?>
<svg xmlns="http://www.w3.org/2000/svg" xmlns:inkscape="http://www.inkscape.org/namespaces/inkscape" height="1500" version="1.1" width="1500">
    <g id="fressstylelayer_LineSet" inkscape:groupmode="lineset" inkscape:label="fressstylelayer_LineSet">
        <g id="strokes" inkscape:groupmode="layer" inkscape:label="strokes">
            <path d=" M 331.048, 734.406 321.422, 737.116 311.796, 739.827 302.170, 742.537 292.545, 745.247 282.919, 747.957 273.293, 750.667 263.667, 753.377 261.645, 753.946 252.128, 756.626 252.137, 766.626 252.147, 776.626 252.157, 786.626 252.166, 796.626 252.176, 806.626 252.186, 816.626 252.195, 826.626 252.205, 836.626 252.215, 846.626 252.224, 856.626 252.234, 866.626 252.244, 876.626 252.253, 886.626 252.263, 896.626 252.272, 906.626 252.282, 916.626 252.292, 926.626 252.301, 936.626 252.311, 946.626 252.321, 956.626 252.330, 966.626 252.340, 976.626 252.350, 986.626 252.359, 996.626 252.369, 1006.626 252.379, 1016.626 252.388, 1026.626 252.398, 1036.626 252.408, 1046.626 252.417, 1056.626 252.427, 1066.626 252.437, 1076.626 252.446, 1086.626 252.456, 1096.626 252.466, 1106.626 252.475, 1116.626 252.485, 1126.626 252.493, 1134.556 262.390, 1135.984 272.288, 1137.412 282.185, 1138.840 292.082, 1140.269 301.980, 1141.697 311.877, 1143.125 321.775, 1144.553 328.314, 1145.497 " fill="none" stroke="rgb(157, 20, 170)" stroke-linecap="butt" stroke-linejoin="round" stroke-opacity="1.0" stroke-width="3.0" />
            <path d=" M 282.169, 476.078 272.176, 475.703 262.183, 475.329 261.632, 475.308 261.633, 485.308 261.633, 495.308 261.634, 505.308 261.634, 515.308 261.635, 525.308 261.635, 535.308 261.636, 545.308 261.636, 555.308 261.636, 565.308 261.637, 575.308 261.637, 585.308 261.638, 595.308 261.638, 605.308 261.639, 615.308 261.639, 625.308 261.640, 635.308 261.640, 645.308 261.641, 655.308 261.641, 665.308 261.641, 675.308 261.642, 685.308 261.642, 695.308 261.643, 705.308 261.643, 715.308 261.644, 725.308 261.644, 735.308 261.645, 745.308 261.645, 753.946 " fill="none" stroke="rgb(157, 20, 170)" stroke-linecap="butt" stroke-linejoin="round" stroke-opacity="1.0" stroke-width="3.0" />
            <path d=" M 261.632, 475.308 271.621, 475.791 281.609, 476.274 282.169, 476.301 " fill="none" stroke="rgb(157, 20, 170)" stroke-linecap="butt" stroke-linejoin="round" stroke-opacity="1.0" stroke-width="3.0" />
            <path d=" M 666.567, 385.161 656.894, 382.623 647.222, 380.085 637.549, 377.547 627.877, 375.009 623.071, 373.748 613.398, 371.211 604.730, 368.936 596.727, 368.685 586.732, 368.372 576.737, 368.058 566.742, 367.745 556.747, 367.432 546.752, 367.118 537.351, 366.823 527.356, 366.510 517.361, 366.197 507.366, 365.883 497.371, 365.570 487.375, 365.257 477.380, 364.943 467.385, 364.630 457.390, 364.316 447.395, 364.003 437.400, 363.690 427.405, 363.376 417.410, 363.063 407.415, 362.749 397.420, 362.436 387.425, 362.123 377.429, 361.809 367.434, 361.496 357.439, 361.182 347.444, 360.869 337.449, 360.556 327.454, 360.242 317.459, 359.929 307.464, 359.615 297.469, 359.302 287.474, 358.989 282.391, 358.829 282.372, 368.829 282.353, 378.829 282.334, 388.829 282.315, 398.829 282.296, 408.829 282.277, 418.829 282.259, 428.829 282.240, 438.829 282.221, 448.829 282.202, 458.829 282.183, 468.829 282.169, 476.078 282.169, 476.301 282.150, 486.301 282.131, 496.301 282.112, 506.301 282.093, 516.301 282.075, 526.301 282.056, 536.301 282.037, 546.301 282.018, 556.301 281.999, 566.301 281.980, 576.301 281.961, 586.301 281.942, 596.301 281.924, 606.301 281.905, 616.301 281.886, 626.301 281.867, 636.301 281.848, 646.301 281.829, 656.301 281.810, 666.301 281.791, 676.301 281.773, 686.301 281.758, 694.049 291.726, 694.846 301.694, 695.642 311.663, 696.439 321.631, 697.235 331.290, 698.007 " fill="none" stroke="rgb(157, 20, 170)" stroke-linecap="butt" stroke-linejoin="round" stroke-opacity="1.0" stroke-width="3.0" />
            <path d=" M 1018.301, 493.096 1019.012, 483.122 1019.723, 473.147 1020.434, 463.172 1021.146, 453.198 1021.438, 449.097 1012.563, 444.488 1003.689, 439.879 994.814, 435.271 985.939, 430.662 978.109, 426.595 968.116, 426.222 958.123, 425.848 948.130, 425.474 938.137, 425.101 928.144, 424.727 918.151, 424.353 908.158, 423.979 898.165, 423.606 888.172, 423.232 878.179, 422.858 868.186, 422.484 858.193, 422.111 848.200, 421.737 838.207, 421.363 830.880, 421.089 820.887, 420.715 810.894, 420.342 800.901, 419.968 790.908, 419.594 783.513, 419.318 773.520, 418.944 763.527, 418.570 753.534, 418.197 743.541, 417.823 733.548, 417.449 723.555, 417.075 713.562, 416.702 703.569, 416.328 693.576, 415.954 683.583, 415.580 673.590, 415.207 665.444, 414.902 655.451, 414.528 645.458, 414.155 635.465, 413.781 625.472, 413.407 615.479, 413.033 614.025, 412.979 604.760, 412.632 " fill="none" stroke="rgb(157, 20, 170)" stroke-linecap="butt" stroke-linejoin="round" stroke-opacity="1.0" stroke-width="3.0" />
            <path d=" M 978.109, 426.595 977.440, 436.573 976.770, 446.551 976.101, 456.528 975.431, 466.506 974.762, 476.483 974.093, 486.461 973.785, 491.053 " fill="none" stroke="rgb(157, 20, 170)" stroke-linecap="butt" stroke-linejoin="round" stroke-opacity="1.0" stroke-width="3.0" />
            <path d=" M 830.880, 421.089 831.412, 411.103 831.944, 401.118 832.476, 391.132 833.008, 381.146 833.045, 380.455 823.834, 376.562 814.622, 372.669 805.411, 368.776 796.200, 364.883 786.989, 360.990 786.373, 360.730 776.377, 360.435 766.382, 360.141 756.386, 359.846 746.390, 359.551 736.395, 359.257 726.399, 358.962 716.403, 358.667 706.408, 358.373 696.412, 358.078 686.416, 357.783 676.421, 357.489 666.425, 357.194 656.430, 356.900 646.434, 356.605 636.438, 356.310 626.443, 356.016 616.447, 355.721 606.451, 355.426 596.456, 355.132 586.460, 354.837 576.464, 354.542 566.469, 354.248 556.473, 353.953 546.477, 353.658 537.695, 353.399 537.439, 363.396 537.351, 366.823 " fill="none" stroke="rgb(157, 20, 170)" stroke-linecap="butt" stroke-linejoin="round" stroke-opacity="1.0" stroke-width="3.0" />
            <path d=" M 1017.409, 1255.133 1018.174, 1245.162 1018.939, 1235.192 1019.704, 1225.221 1020.469, 1215.250 1021.234, 1205.280 1021.999, 1195.309 1022.764, 1185.338 1023.529, 1175.368 1024.294, 1165.397 1025.059, 1155.426 1025.824, 1145.456 1026.589, 1135.485 1027.354, 1125.514 1028.119, 1115.543 1028.885, 1105.573 1029.650, 1095.602 1030.415, 1085.631 1031.180, 1075.661 1031.945, 1065.690 1032.710, 1055.719 1033.475, 1045.749 1034.240, 1035.778 1035.005, 1025.807 1035.770, 1015.837 1036.535, 1005.866 1037.300, 995.895 1038.065, 985.924 1038.830, 975.954 1039.595, 965.983 1040.360, 956.012 1041.125, 946.042 1041.890, 936.071 1042.655, 926.100 1043.420, 916.130 1044.185, 906.159 1044.950, 896.188 1045.715, 886.217 1046.480, 876.247 1047.245, 866.276 1048.010, 856.305 1048.775, 846.335 1049.540, 836.364 1050.305, 826.393 1051.070, 816.423 1051.835, 806.452 1052.600, 796.481 1053.365, 786.511 1054.130, 776.540 1054.895, 766.569 1055.661, 756.598 1056.426, 746.628 1057.191, 736.657 1057.956, 726.686 1058.721, 716.716 1059.486, 706.745 1060.251, 696.774 1061.016, 686.804 1061.781, 676.833 1062.546, 666.862 1063.311, 656.892 1064.076, 646.921 1064.841, 636.950 1065.606, 626.979 1066.371, 617.009 1067.136, 607.038 1067.901, 597.067 1068.666, 587.097 1069.431, 577.126 1070.196, 567.155 1070.961, 557.185 1071.726, 547.214 1072.491, 537.243 1073.256, 527.273 1074.021, 517.302 1074.786, 507.331 1075.676, 495.730 " fill="none" stroke="rgb(157, 20, 170)" stroke-linecap="butt" stroke-linejoin="round" stroke-opacity="1.0" stroke-width="3.0" />
            <path d=" M 1075.676, 495.730 1065.687, 495.272 1055.697, 494.813 1045.708, 494.355 1035.718, 493.896 1025.729, 493.438 1018.301, 493.096 1008.311, 492.638 998.322, 492.179 988.332, 491.721 978.343, 491.262 973.785, 491.053 963.795, 490.594 953.806, 490.136 943.816, 489.677 933.827, 489.219 923.837, 488.760 913.848, 488.302 903.858, 487.843 893.869, 487.384 883.879, 486.926 873.288, 486.440 863.299, 485.981 853.309, 485.523 843.320, 485.064 835.528, 484.706 825.538, 484.248 815.549, 483.789 805.559, 483.331 795.570, 482.872 785.580, 482.414 775.591, 481.955 765.601, 481.496 755.612, 481.038 745.622, 480.579 735.633, 480.121 725.643, 479.662 715.654, 479.204 705.665, 478.745 695.675, 478.286 685.686, 477.828 675.696, 477.369 665.707, 476.911 655.717, 476.452 645.728, 475.994 635.738, 475.535 625.749, 475.076 615.759, 474.618 605.770, 474.159 595.780, 473.701 585.791, 473.242 573.563, 472.681 563.574, 472.222 553.584, 471.764 543.595, 471.305 533.605, 470.847 523.616, 470.388 515.739, 470.026 505.749, 469.568 501.567, 469.376 491.577, 468.917 481.588, 468.459 471.598, 468.000 461.609, 467.542 451.619, 467.083 441.630, 466.625 433.195, 466.237 423.206, 465.779 422.363, 465.740 412.374, 465.281 402.385, 464.823 392.395, 464.364 382.406, 463.906 372.416, 463.447 362.427, 462.989 352.437, 462.530 342.448, 462.072 332.862, 461.631 332.795, 471.631 332.753, 477.975 332.749, 478.544 332.683, 488.544 332.616, 498.544 332.550, 508.543 332.483, 518.543 332.417, 528.543 332.350, 538.543 332.284, 548.543 332.217, 558.542 332.151, 568.542 332.084, 578.542 332.018, 588.542 331.951, 598.541 331.885, 608.541 331.818, 618.541 331.752, 628.541 331.685, 638.541 331.619, 648.540 331.552, 658.540 331.486, 668.540 331.419, 678.540 331.354, 688.349 331.290, 698.007 331.223, 708.007 331.157, 718.006 331.090, 728.006 331.048, 734.406 330.981, 744.406 330.915, 754.406 330.853, 763.660 330.787, 773.660 330.720, 783.660 330.654, 793.659 330.587, 803.659 330.521, 813.659 330.454, 823.659 330.388, 833.658 330.321, 843.658 330.255, 853.658 330.188, 863.658 330.121, 873.658 330.055, 883.657 329.988, 893.657 329.922, 903.657 329.855, 913.657 329.789, 923.656 329.722, 933.656 329.656, 943.656 329.589, 953.656 329.523, 963.656 329.456, 973.655 329.390, 983.655 329.366, 987.245 329.300, 997.244 329.233, 1007.244 329.167, 1017.244 329.100, 1027.244 329.041, 1036.181 328.974, 1046.181 328.908, 1056.181 328.841, 1066.181 328.775, 1076.181 328.746, 1080.422 328.680, 1090.421 328.613, 1100.421 328.547, 1110.421 328.480, 1120.421 328.414, 1130.420 328.347, 1140.420 328.314, 1145.497 328.252, 1154.764 338.147, 1156.205 348.043, 1157.646 357.939, 1159.087 367.834, 1160.529 377.730, 1161.970 387.625, 1163.411 397.521, 1164.852 407.417, 1166.293 417.312, 1167.735 427.208, 1169.176 437.104, 1170.617 446.999, 1172.058 456.895, 1173.500 466.790, 1174.941 476.686, 1176.382 486.582, 1177.823 496.477, 1179.264 506.373, 1180.706 516.268, 1182.147 526.164, 1183.588 536.060, 1185.029 545.955, 1186.470 555.851, 1187.912 565.746, 1189.353 575.642, 1190.794 585.538, 1192.235 595.433, 1193.676 605.329, 1195.118 615.224, 1196.559 625.120, 1198.000 635.016, 1199.441 644.911, 1200.882 654.807, 1202.324 664.702, 1203.765 674.598, 1205.206 684.494, 1206.647 694.389, 1208.088 704.285, 1209.530 714.180, 1210.971 724.076, 1212.412 733.972, 1213.853 743.867, 1215.294 753.763, 1216.736 763.658, 1218.177 773.554, 1219.618 783.450, 1221.059 793.345, 1222.500 803.241, 1223.942 813.136, 1225.383 823.032, 1226.824 832.928, 1228.265 842.823, 1229.706 852.719, 1231.148 862.614, 1232.589 872.510, 1234.030 882.406, 1235.471 892.301, 1236.912 902.197, 1238.354 912.092, 1239.795 921.988, 1241.236 931.884, 1242.677 941.779, 1244.118 951.675, 1245.560 961.570, 1247.001 971.466, 1248.442 981.362, 1249.883 991.257, 1251.324 1001.153, 1252.766 1017.409, 1255.133 1018.964, 1245.255 1020.518, 1235.376 1022.073, 1225.498 1023.628, 1215.619 1025.182, 1205.741 1026.737, 1195.863 1028.291, 1185.984 1029.846, 1176.106 1031.401, 1166.227 1032.955, 1156.349 1034.510, 1146.471 1036.065, 1136.592 1037.619, 1126.714 1039.174, 1116.835 1040.729, 1106.957 1042.283, 1097.078 1043.838, 1087.200 1045.392, 1077.322 1046.947, 1067.443 1048.502, 1057.565 1050.056, 1047.686 1051.611, 1037.808 1053.406, 1026.401 1054.189, 1016.432 1054.972, 1006.463 1055.755, 996.493 1056.539, 986.524 1057.322, 976.555 1058.105, 966.585 1058.888, 956.616 1059.671, 946.647 1060.455, 936.678 1061.238, 926.708 1062.021, 916.739 1062.804, 906.770 1063.587, 896.800 1064.370, 886.831 1065.154, 876.862 1065.937, 866.893 1066.720, 856.923 1067.503, 846.954 1068.286, 836.985 1069.070, 827.015 1069.853, 817.046 1070.636, 807.077 1071.419, 797.108 1072.202, 787.138 1072.985, 777.169 1073.769, 767.200 1074.552, 757.230 1075.335, 747.261 1076.118, 737.292 1076.901, 727.323 1077.685, 717.353 1078.468, 707.384 1079.251, 697.415 1080.034, 687.445 1080.817, 677.476 1081.600, 667.507 1082.384, 657.538 1083.167, 647.568 1083.950, 637.599 1084.733, 627.630 1085.516, 617.660 1086.299, 607.691 1087.083, 597.722 1087.866, 587.753 1088.649, 577.783 1089.432, 567.814 1090.215, 557.845 1090.999, 547.875 1091.782, 537.906 1092.565, 527.937 1093.348, 517.968 1094.131, 507.998 1094.783, 499.703 1084.992, 497.667 1075.676, 495.730 " fill="none" stroke="rgb(157, 20, 170)" stroke-linecap="butt" stroke-linejoin="round" stroke-opacity="1.0" stroke-width="3.0" />
            <path d=" M 875.145, 454.206 865.353, 452.176 855.561, 450.147 845.769, 448.117 837.596, 446.423 827.604, 446.016 817.613, 445.609 807.621, 445.201 797.629, 444.794 787.637, 444.387 777.646, 443.979 767.654, 443.572 757.662, 443.165 747.671, 442.758 737.679, 442.350 727.687, 441.943 717.695, 441.536 707.704, 441.128 697.712, 440.721 687.720, 440.314 677.729, 439.907 667.737, 439.499 657.745, 439.092 647.754, 438.685 637.762, 438.278 627.770, 437.870 617.779, 437.463 607.787, 437.056 603.982, 436.901 602.562, 436.843 592.570, 436.435 582.578, 436.028 574.647, 435.705 564.655, 435.298 554.663, 434.890 544.672, 434.483 534.680, 434.076 524.688, 433.669 514.697, 433.261 504.705, 432.854 502.392, 432.760 492.400, 432.352 482.408, 431.945 472.417, 431.538 462.425, 431.131 452.433, 430.723 442.441, 430.316 433.779, 429.963 433.618, 439.962 433.457, 449.960 433.296, 459.959 433.195, 466.237 " fill="none" stroke="rgb(157, 20, 170)" stroke-linecap="butt" stroke-linejoin="round" stroke-opacity="1.0" stroke-width="3.0" />
            <path d=" M 786.373, 360.730 785.885, 370.718 785.398, 380.706 784.910, 390.694 784.422, 400.682 783.935, 410.671 783.513, 419.318 " fill="none" stroke="rgb(157, 20, 170)" stroke-linecap="butt" stroke-linejoin="round" stroke-opacity="1.0" stroke-width="3.0" />
            <path d=" M 604.730, 368.936 604.411, 378.931 604.278, 383.086 603.959, 393.081 603.640, 403.075 603.321, 413.070 603.001, 423.065 602.682, 433.060 602.562, 436.843 " fill="none" stroke="rgb(157, 20, 170)" stroke-linecap="butt" stroke-linejoin="round" stroke-opacity="1.0" stroke-width="3.0" />
            <path d=" M 330.853, 763.660 320.893, 762.770 310.932, 761.880 300.972, 760.990 291.012, 760.100 281.051, 759.210 271.091, 758.320 261.645, 757.476 252.128, 756.626 " fill="none" stroke="rgb(157, 20, 170)" stroke-linecap="butt" stroke-linejoin="round" stroke-opacity="1.0" stroke-width="3.0" />
            <path d=" M 603.982, 436.901 604.302, 426.906 604.623, 416.911 604.760, 412.632 " fill="none" stroke="rgb(157, 20, 170)" stroke-linecap="butt" stroke-linejoin="round" stroke-opacity="1.0" stroke-width="3.0" />
            <path d=" M 665.444, 414.902 665.821, 404.909 666.199, 394.916 666.567, 385.161 " fill="none" stroke="rgb(157, 20, 170)" stroke-linecap="butt" stroke-linejoin="round" stroke-opacity="1.0" stroke-width="3.0" />
            <path d=" M 835.528, 484.706 836.067, 474.721 836.607, 464.735 837.146, 454.750 837.261, 452.630 837.596, 446.423 " fill="none" stroke="rgb(157, 20, 170)" stroke-linecap="butt" stroke-linejoin="round" stroke-opacity="1.0" stroke-width="3.0" />
            <path d=" M 873.288, 486.440 873.863, 476.456 874.438, 466.473 875.013, 456.489 875.145, 454.206 " fill="none" stroke="rgb(157, 20, 170)" stroke-linecap="butt" stroke-linejoin="round" stroke-opacity="1.0" stroke-width="3.0" />
        </g>
    </g>
    <g id="fressstylelayer_hidden lines" inkscape:groupmode="lineset" inkscape:label="fressstylelayer_hidden lines" xmlns:inkscape="http://www.inkscape.org/namespaces/inkscape">
        <g id="strokes" inkscape:groupmode="layer" inkscape:label="strokes" xmlns:inkscape="http://www.inkscape.org/namespaces/inkscape">
            <path d=" M 618.811, 1187.418 619.171, 1177.424 619.531, 1167.431 619.890, 1157.437 620.250, 1147.444 620.331, 1145.191 " fill="none" stroke="rgb(0, 119, 0)" stroke-linecap="butt" stroke-linejoin="round" stroke-opacity="1.0" stroke-width="3.0" />
            <path d=" M 381.450, 1112.119 381.569, 1102.119 381.689, 1092.120 381.808, 1082.121 381.928, 1072.121 382.047, 1062.122 382.167, 1052.123 382.283, 1042.415 382.402, 1032.416 382.498, 1024.393 382.617, 1014.394 382.737, 1004.395 382.856, 994.396 382.976, 984.396 383.095, 974.397 383.215, 964.398 383.325, 955.149 383.445, 945.150 383.564, 935.151 383.684, 925.151 383.803, 915.152 383.923, 905.153 384.042, 895.154 384.162, 885.154 384.281, 875.155 384.401, 865.156 384.520, 855.156 384.640, 845.157 384.759, 835.158 384.879, 825.159 384.998, 815.159 385.118, 805.160 385.237, 795.161 385.357, 785.161 385.476, 775.162 385.555, 768.548 395.001, 765.264 404.447, 761.981 413.892, 758.698 423.338, 755.415 432.784, 752.132 442.229, 748.849 451.675, 745.566 456.342, 743.943 456.529, 733.945 456.717, 723.947 456.904, 713.949 457.027, 707.408 455.313, 707.271 445.344, 706.476 435.376, 705.680 425.408, 704.884 415.440, 704.089 405.471, 703.293 401.907, 703.009 391.939, 702.213 381.971, 701.418 374.670, 700.835 374.663, 701.472 374.554, 711.472 374.446, 721.471 374.392, 726.492 374.284, 736.491 374.278, 736.970 383.854, 734.088 393.430, 731.207 401.561, 728.760 401.695, 718.761 401.830, 708.762 401.899, 703.649 401.907, 703.009 402.030, 693.898 392.060, 693.115 382.091, 692.332 372.122, 691.550 362.153, 690.767 352.183, 689.984 342.214, 689.201 332.245, 688.419 331.354, 688.349 321.385, 687.566 314.116, 686.995 314.166, 676.996 314.216, 666.996 314.266, 656.996 314.316, 646.996 314.366, 636.996 314.416, 626.996 314.466, 616.996 314.516, 606.996 314.566, 596.997 314.616, 586.997 314.666, 576.997 314.716, 566.997 314.766, 556.997 314.816, 546.997 314.866, 536.997 314.915, 526.997 314.965, 516.998 315.015, 506.998 315.065, 496.998 315.115, 486.998 315.161, 477.897 325.154, 478.265 332.749, 478.544 342.743, 478.912 352.736, 479.279 362.729, 479.647 372.722, 480.015 382.716, 480.383 392.709, 480.750 402.702, 481.118 412.695, 481.486 422.121, 481.833 432.109, 482.314 442.098, 482.795 452.086, 483.276 459.471, 483.632 469.459, 484.114 479.447, 484.595 482.144, 484.725 492.133, 485.206 501.200, 485.643 511.194, 485.997 521.188, 486.350 531.182, 486.704 541.175, 487.057 551.169, 487.411 561.163, 487.764 571.157, 488.118 573.109, 488.187 583.097, 488.667 593.086, 489.147 603.074, 489.627 613.062, 490.107 623.051, 490.587 633.039, 491.067 643.028, 491.547 653.016, 492.027 663.005, 492.507 672.993, 492.988 682.982, 493.468 692.970, 493.948 702.959, 494.428 712.947, 494.908 722.936, 495.388 732.924, 495.868 742.913, 496.348 752.901, 496.828 762.890, 497.308 772.878, 497.788 782.866, 498.268 792.855, 498.748 802.843, 499.228 812.832, 499.708 822.820, 500.189 832.809, 500.669 842.797, 501.149 852.786, 501.629 862.774, 502.109 872.763, 502.589 882.751, 503.069 892.740, 503.549 901.262, 503.959 900.660, 513.941 900.058, 523.922 899.456, 533.904 898.854, 543.886 898.252, 553.868 897.649, 563.850 897.047, 573.832 896.445, 583.814 895.843, 593.795 895.241, 603.777 894.639, 613.759 894.036, 623.741 893.434, 633.723 892.832, 643.705 892.230, 653.687 891.628, 663.668 891.026, 673.650 890.423, 683.632 889.821, 693.614 889.219, 703.596 888.617, 713.578 888.015, 723.559 887.413, 733.541 886.810, 743.523 886.208, 753.505 885.606, 763.487 885.004, 773.469 884.402, 783.451 883.800, 793.432 883.198, 803.414 882.595, 813.396 881.993, 823.378 881.391, 833.360 880.789, 843.342 880.187, 853.324 879.585, 863.305 878.982, 873.287 878.380, 883.269 877.680, 894.879 872.142, 903.205 866.603, 911.531 861.065, 919.858 855.526, 928.184 849.988, 936.510 846.712, 941.435 844.892, 944.172 844.319, 954.155 843.957, 960.461 843.384, 970.444 842.811, 980.428 842.238, 990.411 841.665, 1000.395 841.573, 1002.006 836.466, 1010.603 831.359, 1019.201 826.252, 1027.798 821.145, 1036.396 816.038, 1044.994 810.930, 1053.591 805.823, 1062.189 800.716, 1070.786 796.402, 1078.050 786.480, 1076.799 776.559, 1075.548 766.637, 1074.296 756.716, 1073.045 746.795, 1071.794 736.873, 1070.543 726.952, 1069.292 717.030, 1068.040 710.170, 1067.175 700.249, 1065.924 697.878, 1065.625 687.956, 1064.374 685.829, 1064.105 679.545, 1071.885 673.261, 1079.664 666.978, 1087.443 660.694, 1095.222 654.410, 1103.001 648.127, 1110.780 641.843, 1118.559 635.559, 1126.339 629.276, 1134.118 622.992, 1141.897 620.331, 1145.191 610.425, 1143.820 600.520, 1142.448 590.614, 1141.077 580.709, 1139.705 570.803, 1138.334 560.898, 1136.963 550.992, 1135.591 541.087, 1134.220 531.181, 1132.848 521.276, 1131.477 511.370, 1130.106 501.465, 1128.734 491.559, 1127.363 481.654, 1125.992 471.748, 1124.620 461.843, 1123.249 451.937, 1121.877 442.032, 1120.506 432.126, 1119.135 422.221, 1117.763 412.315, 1116.392 402.410, 1115.020 392.504, 1113.649 381.450, 1112.119 " fill="none" stroke="rgb(0, 119, 0)" stroke-linecap="butt" stroke-linejoin="round" stroke-opacity="1.0" stroke-width="3.0" />
            <path d=" M 385.555, 768.548 375.595, 767.658 365.634, 766.768 362.246, 766.465 352.285, 765.575 342.325, 764.685 332.365, 763.795 330.853, 763.660 " fill="none" stroke="rgb(0, 119, 0)" stroke-linecap="butt" stroke-linejoin="round" stroke-opacity="1.0" stroke-width="3.0" />
            <path d=" M 261.645, 753.946 261.645, 757.476 261.646, 767.476 261.646, 777.476 261.647, 787.476 261.647, 797.476 261.647, 807.476 261.648, 817.476 261.648, 827.476 261.649, 837.476 261.649, 847.476 261.650, 857.476 261.650, 867.476 261.651, 877.476 261.651, 887.476 261.651, 897.476 261.652, 907.476 261.652, 917.476 261.653, 927.476 261.653, 937.476 261.654, 947.476 261.654, 957.476 261.655, 967.476 261.655, 977.476 261.656, 987.476 261.656, 997.476 261.656, 1007.476 261.657, 1017.476 261.657, 1027.518 271.576, 1028.793 281.494, 1030.068 291.412, 1031.344 301.331, 1032.619 311.249, 1033.894 321.168, 1035.169 329.041, 1036.181 338.959, 1037.457 348.877, 1038.732 358.796, 1040.007 359.594, 1040.110 359.691, 1030.110 359.787, 1020.111 359.884, 1010.111 359.981, 1000.112 360.078, 990.112 360.175, 980.112 360.272, 970.113 360.284, 968.854 360.381, 958.855 360.478, 948.855 360.575, 938.856 360.672, 928.856 360.769, 918.857 360.866, 908.857 360.963, 898.858 361.059, 888.858 361.156, 878.859 361.253, 868.859 361.350, 858.859 361.447, 848.860 361.544, 838.860 361.641, 828.861 361.738, 818.861 361.835, 808.862 361.932, 798.862 362.028, 788.863 362.125, 778.863 362.222, 768.864 362.246, 766.465 362.342, 756.465 362.439, 746.466 362.536, 736.466 362.633, 726.467 362.642, 725.511 353.017, 728.221 343.391, 730.931 333.765, 733.641 331.048, 734.406 " fill="none" stroke="rgb(0, 119, 0)" stroke-linecap="butt" stroke-linejoin="round" stroke-opacity="1.0" stroke-width="3.0" />
            <path d=" M 359.594, 1040.110 367.839, 1034.452 376.085, 1028.794 382.498, 1024.393 390.743, 1018.736 398.989, 1013.078 407.234, 1007.420 414.931, 1002.138 " fill="none" stroke="rgb(0, 119, 0)" stroke-linecap="butt" stroke-linejoin="round" stroke-opacity="1.0" stroke-width="3.0" />
            <path d=" M 718.569, 1039.232 708.643, 1038.019 698.717, 1036.806 688.790, 1035.594 678.864, 1034.381 668.938, 1033.168 659.012, 1031.956 649.086, 1030.743 639.159, 1029.531 629.233, 1028.318 619.307, 1027.105 609.381, 1025.893 599.455, 1024.680 589.528, 1023.468 579.602, 1022.255 569.676, 1021.042 559.750, 1019.830 549.824, 1018.617 539.897, 1017.405 529.971, 1016.192 520.045, 1014.979 510.119, 1013.767 500.193, 1012.554 490.266, 1011.341 480.340, 1010.129 470.414, 1008.916 460.488, 1007.704 450.561, 1006.491 440.635, 1005.278 430.709, 1004.066 420.783, 1002.853 414.931, 1002.138 414.780, 1012.137 414.670, 1019.423 " fill="none" stroke="rgb(0, 119, 0)" stroke-linecap="butt" stroke-linejoin="round" stroke-opacity="1.0" stroke-width="3.0" />
            <path d=" M 717.754, 1057.194 707.831, 1055.957 705.668, 1055.688 695.745, 1054.451 685.822, 1053.215 675.898, 1051.978 665.975, 1050.741 656.052, 1049.505 646.129, 1048.268 636.205, 1047.031 626.282, 1045.795 616.359, 1044.558 606.436, 1043.321 596.512, 1042.085 586.589, 1040.848 576.666, 1039.611 566.743, 1038.375 556.819, 1037.138 546.896, 1035.901 536.973, 1034.665 527.050, 1033.428 517.126, 1032.191 507.203, 1030.955 497.280, 1029.718 487.357, 1028.481 477.434, 1027.245 467.510, 1026.008 457.587, 1024.771 447.664, 1023.535 437.741, 1022.298 427.817, 1021.061 417.894, 1019.825 414.670, 1019.423 406.516, 1025.212 398.362, 1031.000 390.207, 1036.789 382.283, 1042.415 374.128, 1048.204 365.974, 1053.993 357.820, 1059.782 349.666, 1065.570 341.512, 1071.359 333.358, 1077.148 328.746, 1080.422 320.592, 1086.210 312.438, 1091.999 304.284, 1097.788 296.130, 1103.577 287.976, 1109.365 279.821, 1115.154 271.667, 1120.943 263.513, 1126.732 255.359, 1132.521 252.493, 1134.556 " fill="none" stroke="rgb(0, 119, 0)" stroke-linecap="butt" stroke-linejoin="round" stroke-opacity="1.0" stroke-width="3.0" />
            <path d=" M 328.314, 1145.497 338.058, 1146.903 347.955, 1148.331 357.853, 1149.760 367.750, 1151.188 377.648, 1152.616 387.545, 1154.044 397.443, 1155.473 407.340, 1156.901 417.238, 1158.329 427.135, 1159.758 437.033, 1161.186 446.930, 1162.614 456.827, 1164.042 466.725, 1165.471 476.622, 1166.899 486.520, 1168.327 496.417, 1169.755 506.315, 1171.184 516.212, 1172.612 526.110, 1174.040 536.007, 1175.469 545.905, 1176.897 555.802, 1178.325 565.700, 1179.753 575.597, 1181.182 585.495, 1182.610 595.392, 1184.038 605.290, 1185.466 615.187, 1186.895 618.811, 1187.418 624.861, 1179.455 630.911, 1171.493 636.961, 1163.530 643.010, 1155.568 649.060, 1147.606 655.110, 1139.643 661.160, 1131.681 667.210, 1123.718 673.259, 1115.756 679.309, 1107.793 685.359, 1099.831 691.409, 1091.869 697.706, 1083.580 703.756, 1075.618 709.806, 1067.655 710.170, 1067.175 716.220, 1059.213 717.754, 1057.194 718.207, 1047.204 718.569, 1039.232 712.399, 1047.101 706.230, 1054.971 705.668, 1055.688 699.498, 1063.558 697.878, 1065.625 691.708, 1073.495 685.539, 1081.365 685.075, 1081.956 694.993, 1083.231 697.706, 1083.580 707.625, 1084.855 717.543, 1086.131 727.461, 1087.406 737.380, 1088.681 747.298, 1089.956 757.216, 1091.231 767.135, 1092.506 777.053, 1093.782 786.971, 1095.057 795.437, 1096.145 800.437, 1087.485 805.437, 1078.825 810.437, 1070.165 815.437, 1061.505 820.438, 1052.844 825.438, 1044.184 830.438, 1035.524 835.438, 1026.864 840.438, 1018.204 845.438, 1009.544 849.278, 1002.893 854.278, 994.233 859.278, 985.573 864.279, 976.913 869.279, 968.252 874.279, 959.592 879.279, 950.932 880.947, 948.043 882.549, 945.268 883.159, 935.287 883.769, 925.305 884.379, 915.324 884.989, 905.343 885.580, 895.671 886.190, 885.690 886.799, 875.709 887.409, 865.727 888.019, 855.746 888.629, 845.765 889.239, 835.783 889.849, 825.802 890.459, 815.820 891.069, 805.839 891.679, 795.858 892.289, 785.876 892.899, 775.895 893.508, 765.913 894.118, 755.932 894.728, 745.951 895.338, 735.969 895.948, 725.988 896.558, 716.007 897.168, 706.025 897.778, 696.044 898.388, 686.062 898.998, 676.081 899.608, 666.100 900.217, 656.118 900.827, 646.137 901.437, 636.156 902.047, 626.174 902.657, 616.193 903.267, 606.211 903.877, 596.230 904.487, 586.249 905.097, 576.267 905.707, 566.286 906.317, 556.304 906.926, 546.323 907.536, 536.342 908.146, 526.360 908.756, 516.379 909.506, 504.103 899.518, 503.624 889.529, 503.144 879.541, 502.664 869.552, 502.184 859.564, 501.705 849.575, 501.225 839.587, 500.745 829.598, 500.266 819.610, 499.786 809.621, 499.306 799.633, 498.826 789.644, 498.347 779.656, 497.867 769.667, 497.387 759.679, 496.907 749.690, 496.428 739.702, 495.948 729.714, 495.468 719.725, 494.988 709.737, 494.509 699.748, 494.029 689.760, 493.549 679.771, 493.069 669.783, 492.590 659.794, 492.110 649.806, 491.630 639.817, 491.151 629.829, 490.671 619.840, 490.191 609.852, 489.711 599.863, 489.232 589.875, 488.752 579.886, 488.272 573.116, 487.947 563.127, 487.467 553.139, 486.987 543.150, 486.508 533.162, 486.028 523.173, 485.548 513.185, 485.068 503.196, 484.589 501.226, 484.494 491.238, 484.014 482.168, 483.579 472.175, 483.204 462.182, 482.829 459.487, 482.728 449.494, 482.353 439.501, 481.979 429.508, 481.604 422.129, 481.327 412.136, 480.952 402.143, 480.578 392.150, 480.203 382.157, 479.828 372.164, 479.453 362.171, 479.078 352.178, 478.704 342.185, 478.329 332.753, 477.975 322.760, 477.601 312.767, 477.226 302.774, 476.851 292.781, 476.476 282.788, 476.101 282.169, 476.078 " fill="none" stroke="rgb(0, 119, 0)" stroke-linecap="butt" stroke-linejoin="round" stroke-opacity="1.0" stroke-width="3.0" />
            <path d=" M 685.075, 1081.956 685.497, 1071.965 685.829, 1064.105 " fill="none" stroke="rgb(0, 119, 0)" stroke-linecap="butt" stroke-linejoin="round" stroke-opacity="1.0" stroke-width="3.0" />
            <path d=" M 795.437, 1096.145 795.969, 1086.159 796.402, 1078.050 " fill="none" stroke="rgb(0, 119, 0)" stroke-linecap="butt" stroke-linejoin="round" stroke-opacity="1.0" stroke-width="3.0" />
            <path d=" M 482.168, 483.579 482.144, 484.725 481.937, 494.723 481.730, 504.721 481.523, 514.719 481.315, 524.716 481.108, 534.714 480.901, 544.712 480.694, 554.710 480.486, 564.708 480.279, 574.706 480.072, 584.704 479.865, 594.701 479.657, 604.699 479.450, 614.697 479.243, 624.695 479.036, 634.693 478.828, 644.691 478.621, 654.688 478.414, 664.686 478.207, 674.684 477.999, 684.682 477.792, 694.680 477.585, 704.678 477.378, 714.676 477.170, 724.673 476.963, 734.671 476.756, 744.669 476.549, 754.667 476.341, 764.665 476.134, 774.663 475.927, 784.661 475.720, 794.658 475.512, 804.656 475.305, 814.654 475.098, 824.652 474.891, 834.650 474.683, 844.648 474.476, 854.646 474.269, 864.643 474.061, 874.641 473.854, 884.639 473.647, 894.637 473.504, 901.510 " fill="none" stroke="rgb(0, 119, 0)" stroke-linecap="butt" stroke-linejoin="round" stroke-opacity="1.0" stroke-width="3.0" />
            <path d=" M 882.549, 945.268 872.606, 944.204 862.663, 943.141 852.719, 942.077 846.712, 941.435 836.769, 940.371 826.826, 939.307 816.883, 938.243 806.939, 937.180 796.996, 936.116 787.053, 935.052 777.110, 933.989 767.166, 932.925 757.223, 931.861 747.280, 930.798 737.336, 929.734 727.393, 928.670 717.450, 927.607 707.507, 926.543 697.563, 925.479 687.620, 924.415 677.677, 923.352 667.734, 922.288 657.790, 921.224 647.847, 920.161 637.904, 919.097 627.961, 918.033 618.017, 916.970 608.074, 915.906 598.131, 914.842 588.187, 913.779 578.244, 912.715 568.301, 911.651 558.358, 910.588 548.414, 909.524 538.471, 908.460 528.528, 907.396 518.585, 906.333 508.641, 905.269 498.698, 904.205 488.755, 903.142 478.812, 902.078 473.504, 901.510 464.910, 906.622 456.315, 911.734 447.721, 916.847 439.126, 921.959 430.532, 927.071 421.937, 932.183 413.343, 937.295 404.748, 942.407 396.153, 947.519 387.559, 952.631 383.325, 955.149 374.731, 960.261 366.136, 965.374 360.284, 968.854 351.690, 973.966 343.095, 979.079 334.500, 984.191 329.366, 987.245 320.771, 992.357 312.177, 997.469 303.582, 1002.581 294.988, 1007.693 286.393, 1012.805 277.799, 1017.917 269.204, 1023.029 261.657, 1027.518 " fill="none" stroke="rgb(0, 119, 0)" stroke-linecap="butt" stroke-linejoin="round" stroke-opacity="1.0" stroke-width="3.0" />
            <path d=" M 909.506, 504.103 901.262, 503.959 " fill="none" stroke="rgb(0, 119, 0)" stroke-linecap="butt" stroke-linejoin="round" stroke-opacity="1.0" stroke-width="3.0" />
            <path d=" M 314.116, 686.995 304.346, 689.125 294.575, 691.255 284.805, 693.385 281.758, 694.049 " fill="none" stroke="rgb(0, 119, 0)" stroke-linecap="butt" stroke-linejoin="round" stroke-opacity="1.0" stroke-width="3.0" />
            <path d=" M 282.391, 358.829 292.241, 360.553 302.091, 362.278 311.942, 364.002 321.792, 365.726 331.642, 367.450 341.492, 369.174 351.343, 370.898 361.193, 372.622 371.043, 374.346 380.893, 376.071 390.743, 377.795 400.594, 379.519 410.444, 381.243 420.294, 382.967 423.602, 383.546 " fill="none" stroke="rgb(0, 119, 0)" stroke-linecap="butt" stroke-linejoin="round" stroke-opacity="1.0" stroke-width="3.0" />
            <path d=" M 573.874, 388.690 563.880, 388.348 553.885, 388.006 543.891, 387.664 533.897, 387.322 523.903, 386.980 513.909, 386.638 503.915, 386.296 493.920, 385.953 483.926, 385.611 473.932, 385.269 463.938, 384.927 453.944, 384.585 443.950, 384.243 433.956, 383.901 423.602, 383.546 423.452, 393.545 423.301, 403.544 423.150, 413.543 422.999, 423.542 422.849, 433.540 422.698, 443.539 422.547, 453.538 422.397, 463.537 422.363, 465.740 422.213, 475.739 422.129, 481.327 422.121, 481.833 " fill="none" stroke="rgb(0, 119, 0)" stroke-linecap="butt" stroke-linejoin="round" stroke-opacity="1.0" stroke-width="3.0" />
            <path d=" M 457.027, 707.408 455.301, 707.916 " fill="none" stroke="rgb(0, 119, 0)" stroke-linecap="butt" stroke-linejoin="round" stroke-opacity="1.0" stroke-width="3.0" />
            <path d=" M 402.030, 693.898 392.337, 696.356 382.643, 698.813 374.670, 700.835 " fill="none" stroke="rgb(0, 119, 0)" stroke-linecap="butt" stroke-linejoin="round" stroke-opacity="1.0" stroke-width="3.0" />
            <path d=" M 536.991, 380.844 546.772, 382.925 556.554, 385.006 566.335, 387.087 573.874, 388.690 573.583, 398.686 573.292, 408.682 573.001, 418.678 572.845, 424.020 " fill="none" stroke="rgb(0, 119, 0)" stroke-linecap="butt" stroke-linejoin="round" stroke-opacity="1.0" stroke-width="3.0" />
            <path d=" M 537.351, 366.823 537.095, 376.820 536.991, 380.844 546.986, 381.177 556.980, 381.510 566.975, 381.843 576.969, 382.176 586.964, 382.509 596.958, 382.842 604.278, 383.086 614.273, 383.419 614.998, 383.443 624.992, 383.776 634.987, 384.109 644.981, 384.442 654.976, 384.775 664.970, 385.108 666.567, 385.161 " fill="none" stroke="rgb(0, 119, 0)" stroke-linecap="butt" stroke-linejoin="round" stroke-opacity="1.0" stroke-width="3.0" />
            <path d=" M 433.195, 466.237 433.188, 466.693 443.177, 467.152 453.167, 467.611 463.156, 468.070 473.146, 468.530 483.135, 468.989 493.124, 469.448 501.556, 469.836 511.546, 470.295 515.728, 470.487 525.717, 470.946 535.707, 471.406 545.696, 471.865 555.686, 472.324 565.675, 472.783 573.549, 473.145 583.539, 473.604 593.528, 474.063 603.518, 474.523 613.507, 474.982 623.497, 475.441 633.486, 475.900 643.476, 476.360 653.465, 476.819 663.455, 477.278 673.444, 477.737 683.433, 478.196 693.423, 478.656 703.412, 479.115 713.402, 479.574 723.391, 480.033 733.381, 480.492 743.370, 480.952 753.360, 481.411 763.349, 481.870 773.339, 482.329 783.328, 482.789 793.317, 483.248 803.307, 483.707 813.296, 484.166 823.286, 484.625 835.502, 485.187 845.473, 485.948 855.444, 486.710 865.415, 487.472 873.195, 488.066 883.184, 488.527 893.174, 488.987 903.163, 489.448 913.152, 489.909 923.142, 490.370 933.131, 490.830 943.120, 491.291 953.110, 491.752 963.099, 492.213 973.674, 492.700 983.629, 493.648 993.584, 494.596 1002.184, 495.415 1001.488, 505.391 1000.792, 515.367 1000.096, 525.342 999.399, 535.318 998.703, 545.294 998.007, 555.270 997.311, 565.245 996.614, 575.221 995.918, 585.197 995.222, 595.173 994.526, 605.148 993.829, 615.124 993.133, 625.100 992.437, 635.075 991.741, 645.051 991.044, 655.027 990.348, 665.003 989.652, 674.978 988.956, 684.954 988.259, 694.930 987.563, 704.906 986.867, 714.881 986.171, 724.857 985.474, 734.833 984.778, 744.809 984.082, 754.784 983.386, 764.760 982.689, 774.736 981.993, 784.711 981.297, 794.687 980.601, 804.663 979.904, 814.639 979.208, 824.614 978.512, 834.590 977.816, 844.566 977.119, 854.542 976.423, 864.517 975.727, 874.493 975.031, 884.469 974.334, 894.444 973.632, 904.506 972.936, 914.481 972.240, 924.457 971.543, 934.433 970.847, 944.409 970.151, 954.384 969.927, 957.596 973.373, 948.209 976.820, 938.822 980.267, 929.435 983.713, 920.047 987.160, 910.660 988.859, 906.033 989.570, 896.059 990.281, 886.084 990.992, 876.109 991.704, 866.135 992.415, 856.160 993.126, 846.185 993.837, 836.210 994.548, 826.236 995.260, 816.261 995.971, 806.286 996.682, 796.312 997.393, 786.337 998.104, 776.362 998.815, 766.388 999.527, 756.413 1000.238, 746.438 1000.949, 736.464 1001.660, 726.489 1002.371, 716.514 1003.083, 706.540 1003.794, 696.565 1004.505, 686.590 1005.216, 676.616 1005.927, 666.641 1006.638, 656.666 1007.350, 646.692 1008.061, 636.717 1008.772, 626.742 1009.483, 616.768 1010.194, 606.793 1010.906, 596.818 1011.617, 586.844 1012.328, 576.869 1013.039, 566.894 1013.750, 556.919 1014.461, 546.945 1015.173, 536.970 1015.884, 526.995 1016.595, 517.021 1017.306, 507.046 1018.083, 496.151 1018.301, 493.096 " fill="none" stroke="rgb(0, 119, 0)" stroke-linecap="butt" stroke-linejoin="round" stroke-opacity="1.0" stroke-width="3.0" />
            <path d=" M 574.780, 431.172 564.873, 429.812 554.965, 428.453 545.058, 427.093 535.151, 425.733 525.244, 424.373 515.337, 423.014 505.430, 421.654 502.650, 421.272 " fill="none" stroke="rgb(0, 119, 0)" stroke-linecap="butt" stroke-linejoin="round" stroke-opacity="1.0" stroke-width="3.0" />
            <path d=" M 501.200, 485.643 501.226, 484.494 501.452, 474.497 501.532, 470.903 501.556, 469.836 501.567, 469.376 501.792, 459.378 502.017, 449.381 502.242, 439.384 502.392, 432.760 502.617, 422.762 502.650, 421.272 512.643, 421.663 522.635, 422.055 532.628, 422.446 542.620, 422.837 552.612, 423.228 562.605, 423.619 572.845, 424.020 582.735, 425.499 592.625, 426.977 602.516, 428.456 612.406, 429.935 613.462, 430.093 " fill="none" stroke="rgb(0, 119, 0)" stroke-linecap="butt" stroke-linejoin="round" stroke-opacity="1.0" stroke-width="3.0" />
            <path d=" M 615.325, 373.501 614.998, 383.443 614.669, 393.437 614.340, 403.432 614.025, 412.979 613.982, 414.292 613.653, 424.287 613.462, 430.093 623.454, 430.490 633.446, 430.887 643.438, 431.285 653.430, 431.682 663.422, 432.079 673.414, 432.477 683.406, 432.874 693.398, 433.271 703.391, 433.669 713.383, 434.066 723.375, 434.463 733.367, 434.861 743.359, 435.258 753.351, 435.656 763.343, 436.053 773.335, 436.450 783.327, 436.848 793.319, 437.245 803.312, 437.642 813.304, 438.040 823.296, 438.437 829.942, 438.701 " fill="none" stroke="rgb(0, 119, 0)" stroke-linecap="butt" stroke-linejoin="round" stroke-opacity="1.0" stroke-width="3.0" />
            <path d=" M 1021.438, 449.097 1011.446, 448.696 1001.454, 448.295 991.462, 447.894 981.470, 447.493 971.478, 447.092 961.486, 446.691 951.494, 446.290 941.502, 445.889 931.510, 445.488 921.518, 445.087 911.526, 444.686 901.534, 444.285 891.542, 443.884 881.551, 443.483 871.559, 443.082 861.567, 442.681 851.575, 442.280 841.583, 441.879 831.591, 441.478 821.599, 441.077 811.607, 440.676 801.615, 440.275 791.623, 439.874 781.631, 439.473 771.639, 439.072 761.647, 438.671 751.655, 438.270 741.663, 437.869 731.671, 437.468 721.679, 437.067 711.687, 436.666 701.695, 436.265 691.703, 435.864 681.711, 435.463 671.719, 435.062 661.727, 434.661 651.735, 434.260 641.744, 433.859 631.752, 433.458 621.760, 433.057 611.768, 432.656 601.776, 432.255 591.784, 431.854 581.792, 431.454 574.780, 431.172 574.647, 435.705 574.474, 441.585 574.182, 451.581 573.889, 461.576 573.596, 471.572 573.563, 472.681 573.549, 473.145 573.257, 483.141 573.116, 487.947 573.109, 488.187 " fill="none" stroke="rgb(0, 119, 0)" stroke-linecap="butt" stroke-linejoin="round" stroke-opacity="1.0" stroke-width="3.0" />
            <path d=" M 833.045, 380.455 823.050, 380.136 813.055, 379.816 803.060, 379.497 793.065, 379.178 783.070, 378.859 773.075, 378.539 763.081, 378.220 753.086, 377.901 743.091, 377.582 733.096, 377.263 723.101, 376.943 713.106, 376.624 703.111, 376.305 693.116, 375.986 683.121, 375.666 673.126, 375.347 663.131, 375.028 653.137, 374.709 643.142, 374.390 633.147, 374.070 623.071, 373.748 615.325, 373.501 605.645, 370.994 596.727, 368.685 587.046, 366.178 577.366, 363.672 567.685, 361.165 558.004, 358.658 548.323, 356.151 538.643, 353.645 537.695, 353.399 " fill="none" stroke="rgb(0, 119, 0)" stroke-linecap="butt" stroke-linejoin="round" stroke-opacity="1.0" stroke-width="3.0" />
            <path d=" M 381.450, 1112.119 373.647, 1118.373 365.845, 1124.628 358.042, 1130.883 350.240, 1137.138 342.437, 1143.392 338.058, 1146.903 330.255, 1153.158 328.252, 1154.764 " fill="none" stroke="rgb(0, 119, 0)" stroke-linecap="butt" stroke-linejoin="round" stroke-opacity="1.0" stroke-width="3.0" />
            <path d=" M 332.862, 461.631 342.845, 462.209 352.828, 462.787 362.812, 463.365 372.795, 463.943 382.778, 464.521 392.762, 465.099 402.745, 465.677 412.728, 466.255 422.711, 466.832 432.695, 467.410 442.678, 467.988 452.661, 468.566 459.743, 468.976 " fill="none" stroke="rgb(0, 119, 0)" stroke-linecap="butt" stroke-linejoin="round" stroke-opacity="1.0" stroke-width="3.0" />
            <path d=" M 331.290, 698.007 341.258, 698.803 351.226, 699.600 361.194, 700.396 371.163, 701.193 374.663, 701.472 384.631, 702.269 394.599, 703.065 401.899, 703.649 411.867, 704.445 421.835, 705.242 431.803, 706.038 441.772, 706.835 451.740, 707.631 455.301, 707.916 455.313, 707.271 455.499, 697.273 455.685, 687.275 455.870, 677.276 456.056, 667.278 456.242, 657.280 456.428, 647.281 456.614, 637.283 456.800, 627.285 456.986, 617.287 457.172, 607.288 457.357, 597.290 457.543, 587.292 457.729, 577.294 457.915, 567.295 458.101, 557.297 458.287, 547.299 458.473, 537.301 458.659, 527.302 458.845, 517.304 459.030, 507.306 459.216, 497.307 459.402, 487.309 459.471, 483.632 459.487, 482.728 459.673, 472.730 459.743, 468.976 469.732, 469.437 479.722, 469.897 489.711, 470.358 499.701, 470.819 501.532, 470.903 511.522, 471.364 515.702, 471.557 515.728, 470.487 515.739, 470.026 515.977, 460.029 516.216, 450.032 516.454, 440.035 516.475, 439.173 526.466, 439.589 536.458, 440.004 546.449, 440.420 556.440, 440.835 566.432, 441.251 574.474, 441.585 584.466, 442.000 594.457, 442.416 602.373, 442.745 603.789, 442.919 613.780, 443.334 623.772, 443.750 633.763, 444.165 643.754, 444.581 653.746, 444.997 663.737, 445.412 673.728, 445.828 683.720, 446.243 693.711, 446.659 703.702, 447.074 713.694, 447.490 723.685, 447.906 733.677, 448.321 743.668, 448.737 753.659, 449.152 763.651, 449.568 773.642, 449.984 783.633, 450.399 793.625, 450.815 803.616, 451.230 813.607, 451.646 823.599, 452.062 833.590, 452.477 837.261, 452.630 847.252, 453.046 857.243, 453.461 867.235, 453.877 875.145, 454.206 " fill="none" stroke="rgb(0, 119, 0)" stroke-linecap="butt" stroke-linejoin="round" stroke-opacity="1.0" stroke-width="3.0" />
            <path d=" M 841.573, 1002.006 849.278, 1002.893 859.212, 1004.037 869.147, 1005.181 879.081, 1006.325 889.015, 1007.469 898.950, 1008.613 908.884, 1009.758 918.818, 1010.902 928.753, 1012.046 938.687, 1013.190 948.621, 1014.334 958.556, 1015.478 968.490, 1016.622 978.424, 1017.766 988.359, 1018.910 998.293, 1020.054 1008.227, 1021.198 1018.162, 1022.342 1028.096, 1023.486 1038.031, 1024.630 1047.965, 1025.775 1053.406, 1026.401 " fill="none" stroke="rgb(0, 119, 0)" stroke-linecap="butt" stroke-linejoin="round" stroke-opacity="1.0" stroke-width="3.0" />
            <path d=" M 1002.184, 495.415 1012.174, 495.878 1018.083, 496.151 1028.072, 496.614 1038.062, 497.077 1048.051, 497.539 1058.040, 498.002 1068.029, 498.464 1078.019, 498.927 1088.008, 499.389 1094.783, 499.703 " fill="none" stroke="rgb(0, 119, 0)" stroke-linecap="butt" stroke-linejoin="round" stroke-opacity="1.0" stroke-width="3.0" />
            <path d=" M 844.892, 944.172 854.835, 945.239 864.777, 946.307 874.720, 947.374 880.947, 948.043 890.890, 949.110 900.833, 950.178 910.776, 951.245 920.719, 952.313 930.661, 953.381 940.604, 954.448 950.547, 955.516 960.490, 956.583 969.927, 957.596 " fill="none" stroke="rgb(0, 119, 0)" stroke-linecap="butt" stroke-linejoin="round" stroke-opacity="1.0" stroke-width="3.0" />
            <path d=" M 433.188, 466.693 443.170, 467.281 453.153, 467.870 463.136, 468.458 473.118, 469.047 483.101, 469.635 493.084, 470.223 503.066, 470.812 513.049, 471.400 515.702, 471.557 " fill="none" stroke="rgb(0, 119, 0)" stroke-linecap="butt" stroke-linejoin="round" stroke-opacity="1.0" stroke-width="3.0" />
            <path d=" M 835.502, 485.187 835.528, 484.706 " fill="none" stroke="rgb(0, 119, 0)" stroke-linecap="butt" stroke-linejoin="round" stroke-opacity="1.0" stroke-width="3.0" />
            <path d=" M 873.195, 488.066 873.288, 486.440 " fill="none" stroke="rgb(0, 119, 0)" stroke-linecap="butt" stroke-linejoin="round" stroke-opacity="1.0" stroke-width="3.0" />
            <path d=" M 516.475, 439.173 506.536, 438.067 496.598, 436.960 486.659, 435.853 476.721, 434.746 466.782, 433.639 456.844, 432.532 446.905, 431.425 436.967, 430.318 433.779, 429.963 " fill="none" stroke="rgb(0, 119, 0)" stroke-linecap="butt" stroke-linejoin="round" stroke-opacity="1.0" stroke-width="3.0" />
            <path d=" M 604.760, 412.632 613.982, 414.292 623.824, 416.064 633.666, 417.835 643.508, 419.606 653.349, 421.378 663.191, 423.149 665.120, 423.496 675.112, 423.882 685.105, 424.267 695.097, 424.653 705.090, 425.038 715.083, 425.424 725.075, 425.809 735.068, 426.195 745.060, 426.580 755.053, 426.966 765.045, 427.351 775.038, 427.737 783.086, 428.047 792.838, 430.264 802.589, 432.482 812.340, 434.699 822.091, 436.916 829.942, 438.701 830.474, 428.715 830.880, 421.089 " fill="none" stroke="rgb(0, 119, 0)" stroke-linecap="butt" stroke-linejoin="round" stroke-opacity="1.0" stroke-width="3.0" />
            <path d=" M 665.120, 423.496 665.444, 414.902 " fill="none" stroke="rgb(0, 119, 0)" stroke-linecap="butt" stroke-linejoin="round" stroke-opacity="1.0" stroke-width="3.0" />
            <path d=" M 603.789, 442.919 603.982, 436.901 " fill="none" stroke="rgb(0, 119, 0)" stroke-linecap="butt" stroke-linejoin="round" stroke-opacity="1.0" stroke-width="3.0" />
            <path d=" M 988.859, 906.033 978.909, 905.035 973.632, 904.506 963.682, 903.507 953.732, 902.509 943.782, 901.511 933.832, 900.513 923.882, 899.514 913.932, 898.516 903.982, 897.518 894.032, 896.519 885.580, 895.671 877.680, 894.879 " fill="none" stroke="rgb(0, 119, 0)" stroke-linecap="butt" stroke-linejoin="round" stroke-opacity="1.0" stroke-width="3.0" />
            <path d=" M 401.561, 728.760 391.596, 727.928 381.630, 727.096 374.392, 726.492 364.426, 725.660 362.642, 725.511 " fill="none" stroke="rgb(0, 119, 0)" stroke-linecap="butt" stroke-linejoin="round" stroke-opacity="1.0" stroke-width="3.0" />
            <path d=" M 456.342, 743.943 446.378, 743.097 436.414, 742.250 426.449, 741.403 416.485, 740.556 406.521, 739.710 396.557, 738.863 386.593, 738.016 376.629, 737.169 374.278, 736.970 " fill="none" stroke="rgb(0, 119, 0)" stroke-linecap="butt" stroke-linejoin="round" stroke-opacity="1.0" stroke-width="3.0" />
            <path d=" M 282.169, 476.301 292.157, 476.784 302.146, 477.267 312.134, 477.751 315.161, 477.897 " fill="none" stroke="rgb(0, 119, 0)" stroke-linecap="butt" stroke-linejoin="round" stroke-opacity="1.0" stroke-width="3.0" />
            <path d=" M 602.562, 436.843 602.373, 442.745 " fill="none" stroke="rgb(0, 119, 0)" stroke-linecap="butt" stroke-linejoin="round" stroke-opacity="1.0" stroke-width="3.0" />
            <path d=" M 783.513, 419.318 783.086, 428.047 " fill="none" stroke="rgb(0, 119, 0)" stroke-linecap="butt" stroke-linejoin="round" stroke-opacity="1.0" stroke-width="3.0" />
            <path d=" M 973.785, 491.053 973.674, 492.700 " fill="none" stroke="rgb(0, 119, 0)" stroke-linecap="butt" stroke-linejoin="round" stroke-opacity="1.0" stroke-width="3.0" />
        </g>
    </g>
</svg>
