<?xml version='1.0' encoding='ascii'?>
<svg xmlns="http://www.w3.org/2000/svg" xmlns:inkscape="http://www.inkscape.org/namespaces/inkscape" height="1500" version="1.1" width="1500">
    <g id="fressstylelayer_LineSet" inkscape:groupmode="lineset" inkscape:label="fressstylelayer_LineSet">
        <g id="strokes" inkscape:groupmode="layer" inkscape:label="strokes">
            <path d=" M 835.220, 878.261 845.154, 879.414 855.087, 880.567 865.020, 881.719 874.954, 882.872 884.887, 884.025 894.820, 885.178 904.754, 886.331 914.687, 887.484 924.620, 888.636 934.554, 889.789 944.487, 890.942 954.420, 892.095 964.354, 893.248 974.287, 894.401 984.220, 895.553 994.154, 896.706 1004.087, 897.859 1014.020, 899.012 1023.953, 900.165 1033.887, 901.318 1043.820, 902.470 1053.753, 903.623 1063.687, 904.776 1073.620, 905.929 1083.553, 907.082 1093.487, 908.234 1103.420, 909.387 1113.353, 910.540 1123.287, 911.693 1133.220, 912.846 1143.153, 913.999 1153.087, 915.151 1163.020, 916.304 1172.953, 917.457 1182.887, 918.610 1192.820, 919.763 1202.753, 920.916 1212.687, 922.068 1222.620, 923.221 1234.441, 924.593 1244.375, 925.746 1246.168, 925.954 " fill="none" stroke="rgb(157, 20, 170)" stroke-linecap="butt" stroke-linejoin="round" stroke-opacity="1.0" stroke-width="3.0" />
            <path d=" M 284.845, 710.775 280.091, 719.572 275.337, 728.370 270.583, 737.168 265.829, 745.965 261.075, 754.763 256.321, 763.561 251.567, 772.358 246.813, 781.156 242.059, 789.954 237.305, 798.751 232.551, 807.549 227.796, 816.347 223.042, 825.144 218.288, 833.942 213.534, 842.740 208.780, 851.537 204.026, 860.335 199.272, 869.133 194.518, 877.930 189.764, 886.728 185.010, 895.526 180.256, 904.323 175.502, 913.121 170.748, 921.919 165.994, 930.716 161.240, 939.514 158.803, 944.023 163.116, 953.045 167.429, 962.067 171.741, 971.089 176.054, 980.112 180.366, 989.134 184.679, 998.156 188.992, 1007.179 193.304, 1016.201 197.617, 1025.223 201.929, 1034.245 206.242, 1043.268 210.555, 1052.290 214.867, 1061.312 219.180, 1070.335 223.492, 1079.357 227.805, 1088.379 232.117, 1097.401 236.430, 1106.424 240.743, 1115.446 245.055, 1124.468 249.368, 1133.491 253.680, 1142.513 257.993, 1151.535 262.306, 1160.557 266.618, 1169.580 270.931, 1178.602 275.243, 1187.624 279.556, 1196.647 283.869, 1205.669 288.181, 1214.691 292.494, 1223.713 296.806, 1232.736 301.119, 1241.758 305.432, 1250.780 309.744, 1259.803 314.057, 1268.825 318.369, 1277.847 322.682, 1286.869 326.995, 1295.892 331.307, 1304.914 335.620, 1313.936 339.932, 1322.958 344.245, 1331.981 348.557, 1341.003 352.870, 1350.025 357.183, 1359.048 361.495, 1368.070 365.808, 1377.092 370.120, 1386.114 374.433, 1395.137 378.746, 1404.159 383.058, 1413.181 387.371, 1422.204 391.683, 1431.226 395.996, 1440.248 400.309, 1449.270 404.621, 1458.293 408.934, 1467.315 411.851, 1473.419 421.578, 1471.097 431.305, 1468.776 441.032, 1466.455 450.759, 1464.133 460.486, 1461.812 470.212, 1459.491 479.939, 1457.169 489.666, 1454.848 499.393, 1452.527 509.120, 1450.205 518.847, 1447.884 528.573, 1445.563 538.300, 1443.241 548.027, 1440.920 557.754, 1438.599 567.481, 1436.277 577.208, 1433.956 586.934, 1431.635 596.661, 1429.313 606.388, 1426.992 616.115, 1424.671 625.842, 1422.349 635.569, 1420.028 645.295, 1417.707 655.022, 1415.385 664.749, 1413.064 674.476, 1410.743 684.203, 1408.421 693.930, 1406.100 703.656, 1403.779 713.383, 1401.457 723.110, 1399.136 732.837, 1396.815 742.564, 1394.493 752.291, 1392.172 762.018, 1389.851 771.744, 1387.529 781.471, 1385.208 791.198, 1382.887 800.925, 1380.565 810.652, 1378.244 820.379, 1375.923 830.105, 1373.601 839.832, 1371.280 849.559, 1368.959 859.286, 1366.637 869.013, 1364.316 878.740, 1361.995 884.764, 1360.557 891.158, 1352.868 897.552, 1345.179 903.946, 1337.490 910.340, 1329.801 916.734, 1322.113 923.128, 1314.424 929.521, 1306.735 935.915, 1299.046 942.309, 1291.357 945.484, 1287.539 951.878, 1279.850 958.272, 1272.161 964.666, 1264.473 971.059, 1256.784 977.453, 1249.095 983.847, 1241.406 990.241, 1233.717 996.635, 1226.028 1003.029, 1218.339 1009.423, 1210.650 1015.816, 1202.962 1022.210, 1195.273 1026.542, 1190.063 1032.936, 1182.374 1039.330, 1174.686 1045.724, 1166.997 1052.118, 1159.308 1058.512, 1151.619 1064.905, 1143.930 1071.299, 1136.241 1077.693, 1128.552 1084.087, 1120.863 1090.481, 1113.175 1096.875, 1105.486 1103.268, 1097.797 1109.662, 1090.108 1116.056, 1082.419 1122.450, 1074.730 1128.844, 1067.041 1135.238, 1059.353 1141.632, 1051.664 1148.025, 1043.975 1154.419, 1036.286 1160.813, 1028.597 1167.207, 1020.908 1173.601, 1013.219 1179.995, 1005.530 1186.389, 997.842 1192.782, 990.153 1199.176, 982.464 1205.570, 974.775 1211.964, 967.086 1218.358, 959.397 1224.752, 951.708 1231.146, 944.020 1237.539, 936.331 1243.933, 928.642 1246.168, 925.954 1238.932, 919.169 " fill="none" stroke="rgb(157, 20, 170)" stroke-linecap="butt" stroke-linejoin="round" stroke-opacity="1.0" stroke-width="3.0" />
            <path d=" M 1238.932, 919.169 1229.006, 917.958 1219.080, 916.746 1209.154, 915.534 1199.227, 914.323 1189.301, 913.111 1179.375, 911.899 1169.448, 910.688 1159.522, 909.476 1149.596, 908.264 1139.669, 907.053 1129.743, 905.841 1119.817, 904.629 1109.890, 903.418 1105.005, 902.821 " fill="none" stroke="rgb(157, 20, 170)" stroke-linecap="butt" stroke-linejoin="round" stroke-opacity="1.0" stroke-width="3.0" />
            <path d=" M 1138.239, 860.673 1132.047, 868.526 1125.856, 876.378 1119.664, 884.231 1113.472, 892.084 1107.280, 899.936 1105.005, 902.821 1097.923, 895.761 1090.841, 888.702 1083.759, 881.642 1076.677, 874.582 1069.595, 867.522 1062.512, 860.462 1055.430, 853.402 1048.348, 846.342 1041.266, 839.282 1034.184, 832.222 1027.102, 825.162 1020.020, 818.102 1012.938, 811.042 1005.855, 803.982 998.773, 796.922 991.691, 789.862 984.609, 782.802 977.527, 775.742 970.445, 768.682 963.363, 761.622 956.280, 754.562 949.198, 747.502 942.116, 740.442 935.034, 733.382 927.952, 726.322 920.870, 719.262 913.788, 712.202 906.706, 705.142 899.623, 698.082 892.541, 691.022 885.459, 683.962 878.377, 676.902 871.295, 669.842 864.213, 662.782 857.131, 655.722 850.049, 648.662 842.966, 641.602 835.884, 634.542 828.802, 627.482 821.720, 620.422 814.638, 613.362 807.556, 606.302 800.474, 599.242 793.391, 592.182 786.309, 585.122 779.227, 578.062 772.145, 571.002 765.063, 563.942 757.981, 556.882 750.899, 549.822 743.456, 542.403 748.789, 533.943 751.010, 530.419 756.343, 521.959 761.676, 513.500 766.835, 505.316 776.226, 508.751 785.618, 512.187 795.009, 515.622 804.400, 519.058 813.792, 522.493 823.183, 525.929 832.574, 529.365 841.966, 532.800 851.357, 536.236 860.748, 539.671 870.140, 543.107 879.531, 546.542 888.922, 549.978 898.314, 553.413 907.705, 556.849 917.096, 560.284 926.488, 563.720 935.879, 567.155 945.270, 570.591 954.662, 574.026 964.053, 577.462 973.444, 580.898 982.836, 584.333 992.227, 587.769 1001.618, 591.204 1011.010, 594.640 1020.401, 598.075 1029.792, 601.511 1039.184, 604.946 1048.575, 608.382 1056.533, 611.293 1064.109, 617.820 1071.685, 624.347 1079.261, 630.874 1086.838, 637.401 1094.414, 643.928 1101.990, 650.455 1109.566, 656.982 1117.142, 663.508 1124.719, 670.035 1132.295, 676.562 1139.871, 683.089 1147.447, 689.616 1155.024, 696.143 1162.600, 702.670 1170.176, 709.197 1177.752, 715.724 1185.328, 722.251 1192.905, 728.778 1200.481, 735.305 1208.057, 741.832 1215.633, 748.359 1223.210, 754.886 1230.786, 761.412 1238.362, 767.939 1245.938, 774.466 1253.514, 780.993 1261.091, 787.520 1268.667, 794.047 1276.243, 800.574 1283.819, 807.101 1291.396, 813.628 1298.972, 820.155 1306.548, 826.682 1314.124, 833.209 1321.700, 839.736 1329.277, 846.263 1336.853, 852.790 1344.429, 859.316 1352.005, 865.843 1359.582, 872.370 1367.158, 878.897 1374.734, 885.424 1382.310, 891.951 1389.886, 898.478 1395.022, 902.903 1388.474, 910.461 1381.926, 918.018 1375.378, 925.576 1368.830, 933.134 1362.281, 940.692 1355.733, 948.250 1349.185, 955.808 1342.637, 963.366 1336.089, 970.924 1329.541, 978.482 1322.993, 986.039 1316.444, 993.597 1309.896, 1001.155 1303.348, 1008.713 1296.800, 1016.271 1290.252, 1023.829 1283.704, 1031.387 1277.156, 1038.945 1270.607, 1046.503 1264.059, 1054.060 1257.511, 1061.618 1250.963, 1069.176 1244.415, 1076.734 1237.867, 1084.292 1231.318, 1091.850 1224.770, 1099.408 1218.222, 1106.966 1211.674, 1114.524 1205.126, 1122.081 1198.578, 1129.639 1192.030, 1137.197 1185.481, 1144.755 1178.933, 1152.313 1172.385, 1159.871 1165.837, 1167.429 1159.289, 1174.987 1152.741, 1182.545 1146.193, 1190.102 1139.644, 1197.660 1133.096, 1205.218 1126.548, 1212.776 1120.000, 1220.334 1113.452, 1227.892 1106.904, 1235.450 1100.355, 1243.008 1093.807, 1250.566 1085.127, 1260.584 1075.308, 1262.480 1065.490, 1264.375 1055.671, 1266.270 1045.852, 1268.165 1036.033, 1270.061 1026.214, 1271.956 1016.396, 1273.851 1006.577, 1275.747 996.758, 1277.642 986.940, 1279.537 977.121, 1281.432 967.302, 1283.328 957.483, 1285.223 947.664, 1287.118 945.484, 1287.539 " fill="none" stroke="rgb(157, 20, 170)" stroke-linecap="butt" stroke-linejoin="round" stroke-opacity="1.0" stroke-width="3.0" />
            <path d=" M 440.229, 423.228 446.784, 430.779 453.339, 438.331 459.895, 445.883 466.450, 453.435 473.005, 460.986 479.560, 468.538 486.116, 476.090 492.671, 483.641 499.226, 491.193 505.781, 498.745 512.337, 506.297 518.892, 513.848 525.447, 521.400 532.003, 528.952 534.776, 532.146 541.331, 539.698 547.886, 547.250 554.441, 554.801 560.997, 562.353 567.552, 569.905 574.107, 577.457 580.662, 585.008 587.218, 592.560 593.773, 600.112 600.328, 607.664 606.883, 615.215 613.439, 622.767 615.699, 625.371 622.254, 632.922 628.809, 640.474 635.365, 648.026 641.920, 655.578 648.475, 663.129 655.031, 670.681 661.586, 678.233 668.141, 685.784 674.696, 693.336 681.252, 700.888 687.807, 708.440 691.292, 712.455 697.847, 720.006 704.403, 727.558 710.958, 735.110 717.513, 742.662 724.069, 750.213 730.624, 757.765 737.179, 765.317 743.734, 772.868 749.530, 779.545 756.085, 787.097 762.640, 794.648 769.196, 802.200 775.751, 809.752 776.984, 811.173 783.540, 818.724 790.095, 826.276 796.650, 833.828 803.205, 841.380 809.761, 848.931 816.316, 856.483 822.871, 864.035 829.426, 871.586 835.220, 878.261 829.424, 886.410 823.627, 894.558 817.831, 902.707 812.034, 910.855 806.237, 919.004 800.441, 927.153 794.644, 935.301 788.848, 943.450 783.051, 951.598 777.255, 959.747 771.458, 967.896 765.661, 976.044 759.865, 984.193 754.068, 992.342 748.272, 1000.490 742.475, 1008.639 736.679, 1016.787 730.882, 1024.936 725.086, 1033.085 719.289, 1041.233 713.492, 1049.382 707.696, 1057.530 701.899, 1065.679 696.103, 1073.828 690.306, 1081.976 684.510, 1090.125 678.713, 1098.273 672.917, 1106.422 667.120, 1114.571 661.323, 1122.719 655.527, 1130.868 649.730, 1139.017 643.934, 1147.165 638.137, 1155.314 632.341, 1163.462 626.544, 1171.611 620.747, 1179.760 614.951, 1187.908 609.154, 1196.057 603.358, 1204.205 597.561, 1212.354 591.765, 1220.503 585.968, 1228.651 580.172, 1236.800 574.375, 1244.948 568.578, 1253.097 562.782, 1261.246 556.985, 1269.394 551.189, 1277.543 545.392, 1285.692 539.596, 1293.840 533.799, 1301.989 528.003, 1310.137 522.206, 1318.286 516.409, 1326.435 510.613, 1334.583 504.816, 1342.732 499.020, 1350.880 493.223, 1359.029 487.427, 1367.178 481.630, 1375.326 475.833, 1383.475 470.037, 1391.623 464.240, 1399.772 458.444, 1407.921 452.647, 1416.069 446.851, 1424.218 441.054, 1432.367 435.258, 1440.515 429.461, 1448.664 423.664, 1456.812 417.868, 1464.961 411.851, 1473.419 " fill="none" stroke="rgb(157, 20, 170)" stroke-linecap="butt" stroke-linejoin="round" stroke-opacity="1.0" stroke-width="3.0" />
            <path d=" M 751.010, 530.419 741.557, 527.158 732.103, 523.898 722.650, 520.637 713.196, 517.376 703.743, 514.116 694.289, 510.855 684.836, 507.595 675.382, 504.334 665.929, 501.074 656.475, 497.813 647.022, 494.552 637.568, 491.292 628.115, 488.031 618.661, 484.771 609.208, 481.510 599.754, 478.249 590.301, 474.989 580.847, 471.728 571.394, 468.468 561.940, 465.207 552.487, 461.946 543.033, 458.686 533.580, 455.425 524.126, 452.165 514.673, 448.904 505.219, 445.644 502.632, 444.751 493.179, 441.491 487.517, 439.538 478.063, 436.277 468.610, 433.016 459.156, 429.756 449.703, 426.495 440.229, 423.228 435.475, 432.025 430.721, 440.823 425.967, 449.621 421.213, 458.418 416.458, 467.216 411.704, 476.014 406.950, 484.811 402.762, 492.562 " fill="none" stroke="rgb(157, 20, 170)" stroke-linecap="butt" stroke-linejoin="round" stroke-opacity="1.0" stroke-width="3.0" />
            <path d=" M 402.762, 492.562 403.854, 493.927 " fill="none" stroke="rgb(157, 20, 170)" stroke-linecap="butt" stroke-linejoin="round" stroke-opacity="1.0" stroke-width="3.0" />
            <path d=" M 398.813, 492.419 403.854, 493.927 399.096, 502.723 394.339, 511.519 389.582, 520.315 384.825, 529.112 380.068, 537.908 375.311, 546.704 370.554, 555.500 365.797, 564.296 361.040, 573.092 356.283, 581.888 351.526, 590.684 346.769, 599.480 342.012, 608.276 337.255, 617.072 332.498, 625.868 327.740, 634.664 322.983, 643.460 318.226, 652.256 313.469, 661.052 308.712, 669.848 303.955, 678.644 299.198, 687.440 294.441, 696.236 289.684, 705.032 286.433, 711.044 284.845, 710.775 281.351, 710.183 276.080, 701.685 270.808, 693.187 265.537, 684.689 260.266, 676.191 254.995, 667.693 249.723, 659.195 244.452, 650.697 239.181, 642.200 233.910, 633.702 228.639, 625.204 223.367, 616.706 218.096, 608.208 212.825, 599.710 207.554, 591.212 202.283, 582.714 197.011, 574.216 194.107, 569.533 198.573, 560.586 203.039, 551.639 207.506, 542.692 211.972, 533.745 216.439, 524.798 220.905, 515.850 225.371, 506.903 229.838, 497.956 234.304, 489.009 238.771, 480.062 243.237, 471.115 247.703, 462.168 252.170, 453.220 256.636, 444.273 261.103, 435.326 265.569, 426.379 270.035, 417.432 274.502, 408.485 278.968, 399.538 283.435, 390.590 287.901, 381.643 292.367, 372.696 296.612, 364.192 306.052, 367.494 315.491, 370.796 324.930, 374.098 334.369, 377.400 343.808, 380.703 353.247, 384.005 362.686, 387.307 372.125, 390.609 381.564, 393.911 391.003, 397.213 400.442, 400.515 409.882, 403.817 419.321, 407.119 428.760, 410.421 438.199, 413.723 447.638, 417.025 457.077, 420.327 466.516, 423.629 475.955, 426.931 485.394, 430.233 491.488, 432.365 498.177, 439.799 502.632, 444.751 " fill="none" stroke="rgb(157, 20, 170)" stroke-linecap="butt" stroke-linejoin="round" stroke-opacity="1.0" stroke-width="3.0" />
            <path d=" M 766.835, 505.316 774.061, 512.229 781.286, 519.142 788.511, 526.055 795.737, 532.969 802.962, 539.882 810.188, 546.795 816.781, 553.104 824.006, 560.017 831.232, 566.930 838.457, 573.843 839.088, 574.447 846.314, 581.361 853.539, 588.274 860.765, 595.187 867.990, 602.100 875.216, 609.014 882.441, 615.927 889.667, 622.840 896.892, 629.753 904.117, 636.667 911.343, 643.580 918.568, 650.493 925.794, 657.407 933.019, 664.320 940.245, 671.233 947.470, 678.146 954.695, 685.060 961.921, 691.973 969.146, 698.886 976.372, 705.799 983.597, 712.713 990.823, 719.626 998.048, 726.539 1005.273, 733.452 1012.499, 740.366 1019.724, 747.279 1026.950, 754.192 1034.175, 761.105 1041.401, 768.019 1048.626, 774.932 1055.851, 781.845 1063.077, 788.758 1070.302, 795.672 1077.528, 802.585 1084.753, 809.498 1091.979, 816.411 1099.204, 823.325 1106.429, 830.238 1113.655, 837.151 1120.880, 844.065 1128.106, 850.978 1138.239, 860.673 1148.106, 862.296 1157.974, 863.919 1167.841, 865.542 1177.709, 867.164 1187.576, 868.787 1197.444, 870.410 1207.311, 872.033 1217.179, 873.655 1227.046, 875.278 1236.914, 876.901 1246.781, 878.524 1256.648, 880.146 1266.516, 881.769 1276.383, 883.392 1286.251, 885.015 1296.118, 886.637 1305.986, 888.260 1315.853, 889.883 1325.721, 891.506 1335.588, 893.128 1345.456, 894.751 1355.323, 896.374 1365.190, 897.997 1375.058, 899.619 1384.925, 901.242 1395.022, 902.903 " fill="none" stroke="rgb(157, 20, 170)" stroke-linecap="butt" stroke-linejoin="round" stroke-opacity="1.0" stroke-width="3.0" />
            <path d=" M 296.612, 364.192 302.845, 372.012 309.078, 379.832 315.311, 387.652 321.544, 395.472 327.776, 403.292 334.009, 411.112 340.242, 418.932 346.475, 426.752 352.708, 434.572 358.940, 442.392 365.173, 450.212 371.406, 458.032 377.639, 465.852 383.871, 473.672 390.104, 481.492 396.337, 489.312 398.813, 492.419 394.066, 501.220 389.318, 510.021 384.571, 518.823 379.823, 527.624 375.076, 536.425 370.329, 545.226 365.581, 554.028 360.834, 562.829 356.086, 571.630 351.339, 580.431 346.592, 589.233 341.844, 598.034 337.097, 606.835 332.349, 615.636 327.602, 624.438 322.854, 633.239 318.107, 642.040 313.360, 650.841 308.612, 659.643 303.865, 668.444 299.117, 677.245 294.370, 686.046 289.623, 694.848 284.875, 703.649 281.351, 710.183 " fill="none" stroke="rgb(157, 20, 170)" stroke-linecap="butt" stroke-linejoin="round" stroke-opacity="1.0" stroke-width="3.0" />
        </g>
    </g>
    <g id="fressstylelayer_hidden lines" inkscape:groupmode="lineset" inkscape:label="fressstylelayer_hidden lines" xmlns:inkscape="http://www.inkscape.org/namespaces/inkscape">
        <g id="strokes" inkscape:groupmode="layer" inkscape:label="strokes" xmlns:inkscape="http://www.inkscape.org/namespaces/inkscape">
            <path d=" M 617.514, 554.356 624.247, 561.750 630.980, 569.144 634.780, 573.317 " fill="none" stroke="rgb(0, 119, 0)" stroke-linecap="butt" stroke-linejoin="round" stroke-opacity="1.0" stroke-width="3.0" />
            <path d=" M 617.217, 602.184 622.415, 593.641 627.612, 585.098 632.810, 576.555 634.780, 573.317 644.377, 576.127 645.595, 576.484 655.192, 579.294 659.723, 580.621 " fill="none" stroke="rgb(0, 119, 0)" stroke-linecap="butt" stroke-linejoin="round" stroke-opacity="1.0" stroke-width="3.0" />
            <path d=" M 659.723, 580.621 652.942, 573.271 649.705, 569.763 642.923, 562.414 642.416, 561.863 632.841, 558.977 623.267, 556.091 617.514, 554.356 612.361, 562.926 607.208, 571.496 602.054, 580.066 600.292, 582.997 606.907, 590.496 613.523, 597.996 617.217, 602.184 626.867, 604.806 628.074, 605.134 637.724, 607.756 642.258, 608.988 647.501, 600.473 652.744, 591.957 657.986, 583.441 659.723, 580.621 " fill="none" stroke="rgb(0, 119, 0)" stroke-linecap="butt" stroke-linejoin="round" stroke-opacity="1.0" stroke-width="3.0" />
            <path d=" M 642.258, 608.988 635.592, 601.535 632.434, 598.004 625.767, 590.551 625.286, 590.012 " fill="none" stroke="rgb(0, 119, 0)" stroke-linecap="butt" stroke-linejoin="round" stroke-opacity="1.0" stroke-width="3.0" />
            <path d=" M 600.292, 582.997 609.920, 585.699 619.548, 588.402 625.286, 590.012 630.484, 581.470 635.683, 572.927 640.881, 564.385 642.416, 561.863 " fill="none" stroke="rgb(0, 119, 0)" stroke-linecap="butt" stroke-linejoin="round" stroke-opacity="1.0" stroke-width="3.0" />
            <path d=" M 510.742, 574.122 517.120, 581.824 523.498, 589.527 529.875, 597.229 535.848, 604.442 " fill="none" stroke="rgb(0, 119, 0)" stroke-linecap="butt" stroke-linejoin="round" stroke-opacity="1.0" stroke-width="3.0" />
            <path d=" M 509.352, 649.466 514.424, 640.847 519.496, 632.229 524.567, 623.611 529.639, 614.992 534.711, 606.374 535.848, 604.442 545.532, 606.934 555.217, 609.426 564.901, 611.918 574.586, 614.410 577.282, 615.104 " fill="none" stroke="rgb(0, 119, 0)" stroke-linecap="butt" stroke-linejoin="round" stroke-opacity="1.0" stroke-width="3.0" />
            <path d=" M 577.282, 615.104 570.810, 607.481 567.340, 603.394 560.868, 595.771 554.396, 588.148 551.984, 585.307 542.333, 582.690 532.681, 580.072 523.030, 577.455 513.379, 574.837 510.742, 574.122 505.739, 582.780 500.735, 591.438 495.732, 600.097 490.728, 608.755 485.724, 617.413 485.037, 618.602 491.226, 626.457 497.414, 634.312 503.602, 642.168 509.352, 649.466 519.103, 651.681 528.855, 653.896 536.233, 655.572 545.985, 657.787 550.975, 658.921 556.123, 650.347 561.270, 641.774 566.418, 633.201 571.565, 624.627 576.712, 616.054 577.282, 615.104 " fill="none" stroke="rgb(0, 119, 0)" stroke-linecap="butt" stroke-linejoin="round" stroke-opacity="1.0" stroke-width="3.0" />
            <path d=" M 550.975, 658.921 544.685, 651.147 538.394, 643.374 532.104, 635.600 526.448, 628.611 " fill="none" stroke="rgb(0, 119, 0)" stroke-linecap="butt" stroke-linejoin="round" stroke-opacity="1.0" stroke-width="3.0" />
            <path d=" M 485.037, 618.602 494.757, 620.951 504.478, 623.301 514.198, 625.650 523.918, 627.999 526.448, 628.611 531.527, 619.997 536.607, 611.383 541.686, 602.769 546.766, 594.156 551.984, 585.307 " fill="none" stroke="rgb(0, 119, 0)" stroke-linecap="butt" stroke-linejoin="round" stroke-opacity="1.0" stroke-width="3.0" />
            <path d=" M 586.538, 764.458 592.688, 772.343 598.838, 780.229 599.009, 780.449 " fill="none" stroke="rgb(0, 119, 0)" stroke-linecap="butt" stroke-linejoin="round" stroke-opacity="1.0" stroke-width="3.0" />
            <path d=" M 599.009, 780.449 608.885, 782.021 618.760, 783.594 628.636, 785.167 630.700, 785.496 640.576, 787.069 642.962, 787.449 643.501, 786.613 648.918, 778.207 654.335, 769.802 659.752, 761.396 665.169, 752.990 670.586, 744.585 676.003, 736.179 681.420, 727.773 683.018, 725.293 688.436, 716.887 691.292, 712.455 696.709, 704.049 702.126, 695.643 707.543, 687.238 712.960, 678.832 718.377, 670.426 723.794, 662.021 729.211, 653.615 731.608, 649.896 732.987, 650.256 742.664, 652.778 752.341, 655.299 762.018, 657.821 771.695, 660.343 781.371, 662.865 791.048, 665.387 800.725, 667.909 801.952, 668.228 808.881, 675.439 815.056, 681.865 809.485, 690.170 803.914, 698.474 798.343, 706.779 792.772, 715.083 787.202, 723.388 781.631, 731.692 776.060, 739.997 770.489, 748.301 764.918, 756.606 759.347, 764.910 753.776, 773.215 749.530, 779.545 743.959, 787.849 741.249, 791.889 735.678, 800.194 730.107, 808.498 724.536, 816.803 724.335, 817.103 734.227, 818.568 735.799, 818.801 745.691, 820.267 755.583, 821.732 765.475, 823.198 768.461, 823.641 774.105, 815.385 776.984, 811.173 782.628, 802.917 788.271, 794.662 793.914, 786.406 799.557, 778.151 805.201, 769.895 810.844, 761.640 816.487, 753.384 822.131, 745.129 827.774, 736.873 833.417, 728.618 839.061, 720.362 844.704, 712.107 850.347, 703.851 855.991, 695.596 857.948, 692.733 850.945, 685.594 843.943, 678.455 836.941, 671.315 835.924, 670.279 828.921, 663.140 821.919, 656.000 814.868, 648.812 807.866, 641.673 800.863, 634.534 793.861, 627.395 786.859, 620.256 779.856, 613.117 772.854, 605.977 766.028, 599.018 756.454, 596.131 746.880, 593.244 737.305, 590.357 727.731, 587.471 718.157, 584.584 708.583, 581.697 699.009, 578.810 689.434, 575.923 679.860, 573.036 670.286, 570.149 660.712, 567.262 652.710, 564.849 649.705, 569.763 645.595, 576.484 640.378, 585.015 635.161, 593.546 632.434, 598.004 628.074, 605.134 622.857, 613.665 617.640, 622.197 615.699, 625.371 610.482, 633.902 605.265, 642.433 600.048, 650.964 594.830, 659.496 589.613, 668.027 584.396, 676.558 579.179, 685.089 573.962, 693.620 568.814, 702.039 575.055, 709.852 581.297, 717.665 587.538, 725.478 593.779, 733.292 600.020, 741.105 606.262, 748.918 612.503, 756.731 618.744, 764.544 623.650, 770.685 627.819, 775.904 630.426, 771.822 623.650, 770.685 613.788, 769.031 603.926, 767.376 594.064, 765.721 586.538, 764.458 581.232, 772.934 575.926, 781.410 570.619, 789.887 565.313, 798.363 560.007, 806.839 554.701, 815.315 551.351, 820.667 557.273, 828.725 563.313, 836.944 568.654, 828.490 571.899, 823.354 577.241, 814.900 582.582, 806.446 587.924, 797.993 593.266, 789.539 598.607, 781.085 599.009, 780.449 " fill="none" stroke="rgb(0, 119, 0)" stroke-linecap="butt" stroke-linejoin="round" stroke-opacity="1.0" stroke-width="3.0" />
            <path d=" M 642.962, 787.449 636.705, 779.649 630.426, 771.822 " fill="none" stroke="rgb(0, 119, 0)" stroke-linecap="butt" stroke-linejoin="round" stroke-opacity="1.0" stroke-width="3.0" />
            <path d=" M 603.765, 827.521 609.825, 835.476 615.820, 843.345 " fill="none" stroke="rgb(0, 119, 0)" stroke-linecap="butt" stroke-linejoin="round" stroke-opacity="1.0" stroke-width="3.0" />
            <path d=" M 648.493, 792.830 643.062, 801.227 637.631, 809.624 632.200, 818.020 626.769, 826.417 621.338, 834.814 615.820, 843.345 605.894, 842.135 595.967, 840.925 586.041, 839.715 576.114, 838.504 566.188, 837.294 563.313, 836.944 " fill="none" stroke="rgb(0, 119, 0)" stroke-linecap="butt" stroke-linejoin="round" stroke-opacity="1.0" stroke-width="3.0" />
            <path d=" M 551.351, 820.667 561.266, 821.964 571.182, 823.260 571.899, 823.354 581.815, 824.651 591.730, 825.947 601.646, 827.244 603.765, 827.521 609.161, 819.102 614.557, 810.682 619.953, 802.263 625.349, 793.844 630.700, 785.496 635.984, 777.251 " fill="none" stroke="rgb(0, 119, 0)" stroke-linecap="butt" stroke-linejoin="round" stroke-opacity="1.0" stroke-width="3.0" />
            <path d=" M 743.456, 542.403 752.938, 545.580 762.420, 548.757 771.901, 551.934 781.383, 555.111 790.865, 558.289 800.347, 561.466 809.829, 564.643 819.311, 567.820 828.793, 570.997 839.088, 574.447 848.570, 577.625 858.052, 580.802 859.734, 581.365 869.216, 584.543 878.698, 587.720 888.180, 590.897 889.206, 591.241 881.911, 584.401 874.617, 577.561 867.322, 570.721 867.010, 570.428 857.556, 567.167 848.103, 563.907 838.649, 560.646 829.196, 557.386 819.742, 554.125 816.781, 553.104 807.327, 549.843 797.874, 546.583 788.420, 543.322 778.967, 540.061 769.513, 536.801 760.060, 533.540 751.010, 530.419 " fill="none" stroke="rgb(0, 119, 0)" stroke-linecap="butt" stroke-linejoin="round" stroke-opacity="1.0" stroke-width="3.0" />
            <path d=" M 801.952, 668.228 807.491, 659.902 813.029, 651.576 814.868, 648.812 820.407, 640.486 825.945, 632.160 831.484, 623.834 837.022, 615.508 842.561, 607.181 848.100, 598.855 853.638, 590.529 859.177, 582.203 859.734, 581.365 865.273, 573.039 867.010, 570.428 " fill="none" stroke="rgb(0, 119, 0)" stroke-linecap="butt" stroke-linejoin="round" stroke-opacity="1.0" stroke-width="3.0" />
            <path d=" M 604.744, 964.690 610.283, 956.364 615.821, 948.038 621.360, 939.711 626.899, 931.385 632.437, 923.059 637.976, 914.733 643.514, 906.407 649.053, 898.081 654.592, 889.755 660.130, 881.429 665.669, 873.103 671.207, 864.776 676.746, 856.450 682.284, 848.124 687.823, 839.798 693.362, 831.472 698.900, 823.146 704.439, 814.820 709.977, 806.494 712.415, 802.829 " fill="none" stroke="rgb(0, 119, 0)" stroke-linecap="butt" stroke-linejoin="round" stroke-opacity="1.0" stroke-width="3.0" />
            <path d=" M 627.819, 775.904 635.984, 777.251 642.245, 785.049 643.501, 786.613 648.493, 792.830 658.373, 794.376 668.253, 795.921 678.133, 797.466 688.013, 799.012 697.892, 800.557 707.772, 802.103 712.415, 802.829 718.825, 810.504 724.335, 817.103 " fill="none" stroke="rgb(0, 119, 0)" stroke-linecap="butt" stroke-linejoin="round" stroke-opacity="1.0" stroke-width="3.0" />
            <path d=" M 889.206, 591.241 883.616, 599.533 878.026, 607.825 872.437, 616.116 866.847, 624.408 861.257, 632.700 855.667, 640.992 850.077, 649.284 844.488, 657.575 838.898, 665.867 835.924, 670.279 830.334, 678.570 824.744, 686.862 819.154, 695.154 813.564, 703.446 807.975, 711.738 802.385, 720.030 796.795, 728.321 791.205, 736.613 785.615, 744.905 780.026, 753.197 774.436, 761.489 768.846, 769.780 763.256, 778.072 757.666, 786.364 752.077, 794.656 746.487, 802.948 740.897, 811.239 735.799, 818.801 730.209, 827.093 724.620, 835.385 719.030, 843.677 713.440, 851.968 707.850, 860.260 702.260, 868.552 696.671, 876.844 691.081, 885.136 685.491, 893.427 679.901, 901.719 674.311, 910.011 668.721, 918.303 663.132, 926.595 661.030, 929.712 " fill="none" stroke="rgb(0, 119, 0)" stroke-linecap="butt" stroke-linejoin="round" stroke-opacity="1.0" stroke-width="3.0" />
            <path d=" M 1238.932, 919.169 1234.441, 924.593 1228.063, 932.295 1221.685, 939.997 1215.307, 947.699 1208.929, 955.401 1202.551, 963.103 1196.173, 970.805 1189.795, 978.507 1183.417, 986.209 1177.039, 993.911 1170.661, 1001.613 1164.283, 1009.315 1157.905, 1017.017 1151.527, 1024.719 1145.149, 1032.421 1138.771, 1040.123 1132.393, 1047.825 1126.015, 1055.527 1119.637, 1063.229 1113.259, 1070.931 1106.881, 1078.633 1100.503, 1086.335 1094.125, 1094.037 1087.747, 1101.739 1081.369, 1109.441 1074.991, 1117.143 1068.613, 1124.845 1062.235, 1132.547 1055.857, 1140.249 1049.479, 1147.951 1043.100, 1155.653 1036.723, 1163.355 1030.344, 1171.057 1023.966, 1178.759 1020.564, 1182.867 1014.186, 1190.569 1007.808, 1198.271 1001.430, 1205.973 995.052, 1213.675 988.674, 1221.377 982.296, 1229.079 975.918, 1236.781 969.540, 1244.483 963.162, 1252.185 956.784, 1259.887 950.406, 1267.589 944.028, 1275.291 937.650, 1282.993 931.679, 1290.204 941.498, 1288.309 945.484, 1287.539 " fill="none" stroke="rgb(0, 119, 0)" stroke-linecap="butt" stroke-linejoin="round" stroke-opacity="1.0" stroke-width="3.0" />
            <path d=" M 819.517, 940.858 809.542, 940.156 799.566, 939.455 789.591, 938.753 779.616, 938.052 769.640, 937.350 759.665, 936.649 749.690, 935.947 739.714, 935.246 729.739, 934.544 719.764, 933.843 709.788, 933.141 699.813, 932.439 689.838, 931.738 679.862, 931.036 669.887, 930.335 661.030, 929.712 667.034, 937.709 673.038, 945.706 679.042, 953.703 685.046, 961.700 691.050, 969.697 697.054, 977.694 703.058, 985.691 709.062, 993.688 715.066, 1001.685 721.070, 1009.682 727.074, 1017.679 733.078, 1025.676 739.082, 1033.673 745.086, 1041.670 751.090, 1049.667 757.094, 1057.664 763.098, 1065.661 769.102, 1073.658 775.106, 1081.655 781.110, 1089.652 787.114, 1097.649 793.118, 1105.646 799.122, 1113.643 805.126, 1121.640 811.130, 1129.637 817.133, 1137.634 823.137, 1145.631 829.141, 1153.628 835.145, 1161.625 841.149, 1169.622 847.153, 1177.619 853.157, 1185.616 859.161, 1193.613 865.165, 1201.610 871.169, 1209.607 877.173, 1217.604 883.177, 1225.602 889.181, 1233.599 895.185, 1241.596 901.189, 1249.593 907.193, 1257.590 913.197, 1265.587 919.201, 1273.584 925.205, 1281.581 931.679, 1290.204 " fill="none" stroke="rgb(0, 119, 0)" stroke-linecap="butt" stroke-linejoin="round" stroke-opacity="1.0" stroke-width="3.0" />
            <path d=" M 884.764, 1360.557 878.990, 1352.393 873.215, 1344.229 867.440, 1336.065 861.665, 1327.901 855.890, 1319.737 850.115, 1311.573 844.340, 1303.409 838.565, 1295.245 832.791, 1287.081 827.016, 1278.917 821.241, 1270.753 815.466, 1262.589 809.691, 1254.425 803.916, 1246.261 798.141, 1238.097 792.366, 1229.933 786.592, 1221.769 780.817, 1213.605 775.042, 1205.441 769.267, 1197.277 763.492, 1189.113 757.717, 1180.949 751.942, 1172.785 746.167, 1164.621 740.393, 1156.457 734.618, 1148.293 728.843, 1140.129 723.068, 1131.965 717.293, 1123.801 711.518, 1115.637 705.743, 1107.473 699.969, 1099.309 694.194, 1091.145 688.419, 1082.981 682.644, 1074.817 676.869, 1066.653 671.094, 1058.489 665.319, 1050.325 659.544, 1042.161 653.769, 1033.997 647.995, 1025.833 642.220, 1017.669 636.445, 1009.505 630.670, 1001.341 624.895, 993.177 619.120, 985.013 613.345, 976.849 607.570, 968.685 604.744, 964.690 594.755, 964.227 584.766, 963.764 574.776, 963.301 564.787, 962.838 554.798, 962.375 544.809, 961.912 534.819, 961.449 524.830, 960.986 514.841, 960.523 504.852, 960.060 494.862, 959.597 484.873, 959.134 474.884, 958.671 464.894, 958.208 454.905, 957.745 444.916, 957.283 434.927, 956.820 424.937, 956.357 414.948, 955.894 404.959, 955.431 394.969, 954.968 384.980, 954.505 374.991, 954.042 365.002, 953.579 355.012, 953.116 345.023, 952.653 335.034, 952.190 325.045, 951.727 315.055, 951.264 305.066, 950.801 295.077, 950.338 285.087, 949.875 275.098, 949.412 265.109, 948.949 255.120, 948.486 245.130, 948.023 235.141, 947.561 225.152, 947.098 215.162, 946.635 205.173, 946.172 195.184, 945.709 185.195, 945.246 175.205, 944.783 165.216, 944.320 158.803, 944.023 " fill="none" stroke="rgb(0, 119, 0)" stroke-linecap="butt" stroke-linejoin="round" stroke-opacity="1.0" stroke-width="3.0" />
            <path d=" M 286.433, 711.044 285.505, 709.554 284.845, 710.775 " fill="none" stroke="rgb(0, 119, 0)" stroke-linecap="butt" stroke-linejoin="round" stroke-opacity="1.0" stroke-width="3.0" />
            <path d=" M 402.762, 492.562 412.341, 495.434 421.919, 498.307 431.498, 501.179 441.077, 504.051 450.265, 506.806 459.844, 509.678 469.422, 512.550 479.001, 515.422 488.580, 518.295 498.158, 521.167 507.737, 524.039 517.316, 526.911 526.894, 529.783 534.776, 532.146 544.354, 535.018 553.933, 537.891 563.512, 540.763 573.090, 543.635 582.669, 546.507 592.248, 549.379 598.436, 551.235 591.747, 543.801 585.059, 536.367 578.370, 528.933 571.682, 521.499 564.994, 514.065 558.305, 506.630 551.617, 499.196 544.928, 491.762 538.240, 484.328 531.552, 476.894 524.863, 469.460 518.175, 462.026 511.486, 454.592 504.798, 447.158 502.632, 444.751 " fill="none" stroke="rgb(0, 119, 0)" stroke-linecap="butt" stroke-linejoin="round" stroke-opacity="1.0" stroke-width="3.0" />
            <path d=" M 285.505, 709.554 295.363, 711.230 305.222, 712.907 315.080, 714.583 324.939, 716.260 334.797, 717.936 344.656, 719.613 354.514, 721.289 364.372, 722.966 374.231, 724.642 384.089, 726.319 393.948, 727.995 403.806, 729.672 413.665, 731.348 423.523, 733.025 433.382, 734.701 443.240, 736.378 453.099, 738.054 462.957, 739.731 472.816, 741.407 483.933, 743.298 " fill="none" stroke="rgb(0, 119, 0)" stroke-linecap="butt" stroke-linejoin="round" stroke-opacity="1.0" stroke-width="3.0" />
            <path d=" M 390.392, 614.924 396.281, 623.006 402.170, 631.088 408.059, 639.170 413.948, 647.252 419.837, 655.334 425.726, 663.416 431.615, 671.498 437.504, 679.580 443.393, 687.662 449.283, 695.744 455.172, 703.826 461.061, 711.908 466.950, 719.990 472.839, 728.072 478.728, 736.154 483.933, 743.298 489.054, 734.709 494.175, 726.119 499.296, 717.530 504.416, 708.940 509.537, 700.351 514.658, 691.762 519.779, 683.172 524.899, 674.583 530.020, 665.993 535.141, 657.404 536.233, 655.572 541.354, 646.983 546.474, 638.393 551.595, 629.804 556.716, 621.214 561.837, 612.625 566.957, 604.036 567.340, 603.394 572.461, 594.804 577.582, 586.215 582.702, 577.626 587.823, 569.036 592.944, 560.447 598.065, 551.857 598.436, 551.235 " fill="none" stroke="rgb(0, 119, 0)" stroke-linecap="butt" stroke-linejoin="round" stroke-opacity="1.0" stroke-width="3.0" />
            <path d=" M 1085.127, 1260.584 1078.737, 1252.892 1072.347, 1245.200 1065.957, 1237.508 1059.567, 1229.816 1053.177, 1222.124 1046.787, 1214.432 1040.396, 1206.740 1034.006, 1199.048 1027.616, 1191.356 1026.542, 1190.063 1020.564, 1182.867 1014.174, 1175.175 1007.784, 1167.483 1001.394, 1159.791 995.004, 1152.099 988.614, 1144.407 982.224, 1136.715 975.834, 1129.023 969.444, 1121.331 963.054, 1113.639 956.664, 1105.947 950.274, 1098.255 943.884, 1090.563 937.494, 1082.871 931.103, 1075.179 924.713, 1067.487 918.323, 1059.795 911.933, 1052.103 905.543, 1044.411 899.153, 1036.719 892.763, 1029.027 886.373, 1021.335 879.983, 1013.643 873.593, 1005.951 867.203, 998.259 860.813, 990.567 854.423, 982.875 848.033, 975.183 841.642, 967.491 835.252, 959.799 828.862, 952.107 822.472, 944.415 819.517, 940.858 825.356, 932.740 831.195, 924.621 837.033, 916.503 842.872, 908.384 848.710, 900.265 854.549, 892.147 860.388, 884.028 866.226, 875.910 872.065, 867.791 877.904, 859.673 883.742, 851.554 889.581, 843.436 895.420, 835.317 901.258, 827.199 907.097, 819.080 912.936, 810.962 918.774, 802.843 924.613, 794.725 930.451, 786.606 936.290, 778.488 942.129, 770.369 947.967, 762.251 953.806, 754.132 959.645, 746.014 965.483, 737.895 971.322, 729.777 977.161, 721.658 982.999, 713.540 988.838, 705.421 994.677, 697.303 1000.515, 689.184 1006.354, 681.066 1012.192, 672.947 1018.031, 664.829 1023.870, 656.710 1029.708, 648.592 1035.547, 640.473 1041.386, 632.355 1047.224, 624.236 1053.063, 616.118 1056.533, 611.293 " fill="none" stroke="rgb(0, 119, 0)" stroke-linecap="butt" stroke-linejoin="round" stroke-opacity="1.0" stroke-width="3.0" />
            <path d=" M 194.107, 569.533 203.849, 571.786 213.592, 574.039 223.335, 576.292 233.078, 578.545 242.821, 580.799 252.564, 583.052 262.307, 585.305 272.050, 587.558 281.793, 589.811 291.535, 592.064 301.278, 594.317 311.021, 596.570 320.764, 598.823 330.507, 601.076 340.250, 603.329 349.993, 605.582 359.736, 607.835 369.478, 610.088 379.221, 612.341 390.392, 614.924 395.236, 606.176 400.081, 597.428 404.925, 588.680 409.770, 579.932 414.614, 571.183 419.459, 562.435 424.303, 553.687 429.148, 544.939 433.992, 536.191 438.837, 527.443 443.681, 518.694 448.526, 509.946 450.265, 506.806 455.110, 498.058 459.954, 489.310 464.799, 480.561 469.643, 471.813 474.488, 463.065 479.332, 454.317 484.177, 445.569 487.517, 439.538 491.488, 432.365 " fill="none" stroke="rgb(0, 119, 0)" stroke-linecap="butt" stroke-linejoin="round" stroke-opacity="1.0" stroke-width="3.0" />
            <path d=" M 652.710, 564.849 659.511, 572.180 666.312, 579.511 673.113, 586.842 679.914, 594.173 686.715, 601.505 693.516, 608.836 700.317, 616.167 707.118, 623.498 713.919, 630.829 720.720, 638.160 727.521, 645.491 731.608, 649.896 " fill="none" stroke="rgb(0, 119, 0)" stroke-linecap="butt" stroke-linejoin="round" stroke-opacity="1.0" stroke-width="3.0" />
            <path d=" M 815.056, 681.865 824.750, 684.321 834.443, 686.777 844.137, 689.234 853.831, 691.690 857.948, 692.733 " fill="none" stroke="rgb(0, 119, 0)" stroke-linecap="butt" stroke-linejoin="round" stroke-opacity="1.0" stroke-width="3.0" />
            <path d=" M 768.461, 823.641 761.954, 816.048 755.446, 808.455 748.939, 800.862 742.431, 793.269 741.249, 791.889 734.741, 784.297 728.234, 776.704 721.726, 769.111 715.219, 761.518 708.711, 753.925 702.203, 746.332 695.696, 738.739 689.188, 731.146 684.416, 725.578 " fill="none" stroke="rgb(0, 119, 0)" stroke-linecap="butt" stroke-linejoin="round" stroke-opacity="1.0" stroke-width="3.0" />
            <path d=" M 568.814, 702.039 578.613, 704.034 588.412, 706.029 598.211, 708.025 608.010, 710.020 617.808, 712.015 627.607, 714.010 637.406, 716.006 647.205, 718.001 657.004, 719.996 666.803, 721.991 676.602, 723.987 683.018, 725.293 684.416, 725.578 689.835, 717.173 695.255, 708.769 700.674, 700.365 706.094, 691.961 711.513, 683.557 716.932, 675.153 722.352, 666.749 727.771, 658.344 732.987, 650.256 738.407, 641.852 743.826, 633.448 749.246, 625.043 754.665, 616.639 760.085, 608.235 765.504, 599.831 766.028, 599.018 " fill="none" stroke="rgb(0, 119, 0)" stroke-linecap="butt" stroke-linejoin="round" stroke-opacity="1.0" stroke-width="3.0" />
        </g>
    </g>
</svg>
