<?xml version='1.0' encoding='ascii'?>
<svg xmlns="http://www.w3.org/2000/svg" xmlns:inkscape="http://www.inkscape.org/namespaces/inkscape" height="1500" version="1.1" width="1500">
    <g id="fressstylelayer_LineSet" inkscape:groupmode="lineset" inkscape:label="fressstylelayer_LineSet">
        <g id="strokes" inkscape:groupmode="layer" inkscape:label="strokes">
            <path d=" M 213.874, 1384.530 219.209, 1376.072 224.544, 1367.615 229.880, 1359.157 235.215, 1350.699 240.550, 1342.241 245.885, 1333.783 251.220, 1325.325 256.555, 1316.867 261.890, 1308.409 267.225, 1299.951 272.561, 1291.493 277.896, 1283.035 283.231, 1274.577 288.566, 1266.120 293.901, 1257.662 299.236, 1249.204 304.571, 1240.746 309.907, 1232.288 315.242, 1223.830 320.577, 1215.372 325.912, 1206.914 331.247, 1198.456 336.582, 1189.998 341.917, 1181.540 347.253, 1173.082 352.588, 1164.625 357.923, 1156.167 363.258, 1147.709 368.593, 1139.251 370.529, 1136.181 375.864, 1127.723 381.200, 1119.265 386.535, 1110.807 391.870, 1102.349 397.205, 1093.892 398.880, 1091.236 404.215, 1082.778 409.550, 1074.320 414.885, 1065.862 420.221, 1057.404 425.556, 1048.947 430.891, 1040.489 436.226, 1032.031 438.897, 1027.796 444.232, 1019.338 449.568, 1010.880 454.903, 1002.422 460.238, 993.964 465.573, 985.506 470.908, 977.048 476.243, 968.591 481.578, 960.133 486.913, 951.675 492.249, 943.217 497.584, 934.759 502.919, 926.301 504.141, 924.363 509.482, 915.897 514.817, 907.439 520.152, 898.981 525.487, 890.523 530.201, 883.050 535.536, 874.592 540.871, 866.134 546.206, 857.676 551.612, 849.107 556.947, 840.649 560.792, 834.553 569.760, 838.977 578.728, 843.402 587.696, 847.826 596.664, 852.250 605.632, 856.675 614.600, 861.099 623.568, 865.524 632.536, 869.948 641.504, 874.372 650.472, 878.797 659.440, 883.221 668.408, 887.646 677.376, 892.070 686.344, 896.494 695.312, 900.919 704.280, 905.343 713.248, 909.768 722.216, 914.192 731.184, 918.617 738.263, 922.109 747.231, 926.534 756.199, 930.958 765.167, 935.382 774.135, 939.807 775.075, 940.270 784.042, 944.695 793.010, 949.119 801.202, 953.160 810.169, 957.585 819.138, 962.009 828.105, 966.433 837.073, 970.858 846.041, 975.282 855.009, 979.707 863.977, 984.131 866.142, 985.199 875.110, 989.623 884.078, 994.048 893.046, 998.472 902.014, 1002.897 910.982, 1007.321 918.169, 1010.867 927.137, 1015.291 936.105, 1019.716 945.073, 1024.140 954.041, 1028.564 963.009, 1032.989 968.374, 1035.636 977.342, 1040.060 981.140, 1041.934 990.108, 1046.358 999.076, 1050.783 1008.044, 1055.207 1017.012, 1059.631 1025.980, 1064.056 1034.948, 1068.480 1043.916, 1072.905 1052.884, 1077.329 1061.852, 1081.753 1070.820, 1086.178 1079.787, 1090.602 1088.755, 1095.027 1097.724, 1099.451 1106.691, 1103.875 1115.659, 1108.300 1124.627, 1112.724 1133.595, 1117.149 1142.563, 1121.573 1151.531, 1125.998 1160.499, 1130.422 1169.467, 1134.846 1178.435, 1139.271 1187.403, 1143.695 1196.371, 1148.120 1205.339, 1152.544 1208.164, 1153.938 " fill="none" stroke="rgb(157, 20, 170)" stroke-linecap="butt" stroke-linejoin="round" stroke-opacity="1.0" stroke-width="3.0" />
            <path d=" M 295.962, 1104.818 293.146, 1114.413 290.330, 1124.008 287.514, 1133.604 284.698, 1143.199 281.882, 1152.794 279.066, 1162.390 276.250, 1171.985 273.434, 1181.580 270.618, 1191.176 267.802, 1200.771 264.987, 1210.366 262.171, 1219.962 259.355, 1229.557 256.539, 1239.152 253.723, 1248.747 250.907, 1258.343 248.091, 1267.938 245.275, 1277.533 242.459, 1287.129 239.643, 1296.724 236.827, 1306.319 234.011, 1315.915 231.195, 1325.510 228.379, 1335.105 225.563, 1344.701 222.747, 1354.296 219.931, 1363.891 217.115, 1373.487 213.874, 1384.530 223.270, 1387.954 232.665, 1391.378 242.061, 1394.802 251.456, 1398.226 260.852, 1401.650 270.247, 1405.074 279.643, 1408.498 289.039, 1411.922 298.434, 1415.346 307.830, 1418.770 317.225, 1422.194 326.621, 1425.618 336.016, 1429.042 345.412, 1432.466 354.807, 1435.890 364.203, 1439.314 373.599, 1442.738 382.994, 1446.162 392.390, 1449.586 401.785, 1453.010 411.181, 1456.434 420.576, 1459.858 429.972, 1463.282 439.367, 1466.706 448.763, 1470.130 458.158, 1473.554 467.554, 1476.978 476.950, 1480.402 486.345, 1483.826 495.741, 1487.250 505.136, 1490.674 514.532, 1494.098 523.927, 1497.522 533.323, 1500.946 542.718, 1504.370 552.114, 1507.794 561.510, 1511.218 570.905, 1514.642 580.301, 1518.066 589.696, 1521.490 599.092, 1524.914 608.487, 1528.337 617.883, 1531.761 627.278, 1535.185 636.674, 1538.609 646.069, 1542.033 655.465, 1545.457 664.861, 1548.881 674.256, 1552.305 683.652, 1555.729 693.047, 1559.153 702.443, 1562.577 711.838, 1566.001 721.234, 1569.425 730.629, 1572.849 740.025, 1576.273 749.421, 1579.697 758.816, 1583.121 768.212, 1586.545 777.607, 1589.969 787.003, 1593.393 796.398, 1596.817 805.794, 1600.241 814.706, 1603.489 821.292, 1595.964 827.878, 1588.439 834.464, 1580.914 841.050, 1573.389 847.636, 1565.864 854.222, 1558.339 860.808, 1550.814 867.394, 1543.290 873.980, 1535.765 880.566, 1528.240 887.152, 1520.715 893.738, 1513.190 900.324, 1505.665 906.910, 1498.140 913.496, 1490.615 920.082, 1483.090 926.668, 1475.565 933.254, 1468.040 939.840, 1460.515 946.426, 1452.990 953.012, 1445.465 959.598, 1437.940 966.184, 1430.415 972.770, 1422.891 979.356, 1415.366 985.942, 1407.841 992.528, 1400.316 999.114, 1392.791 1005.700, 1385.266 1012.286, 1377.741 1018.872, 1370.216 1025.458, 1362.691 1032.044, 1355.166 1038.630, 1347.641 1045.216, 1340.116 1051.802, 1332.591 1058.388, 1325.066 1064.974, 1317.541 1071.560, 1310.017 1078.146, 1302.492 1084.732, 1294.967 1091.318, 1287.442 1097.904, 1279.917 1104.490, 1272.392 1111.076, 1264.867 1117.662, 1257.342 1124.248, 1249.817 1130.834, 1242.292 1137.420, 1234.767 1144.006, 1227.242 1150.592, 1219.717 1157.178, 1212.192 1163.764, 1204.667 1170.350, 1197.142 1176.936, 1189.618 1183.522, 1182.093 1190.108, 1174.568 1196.694, 1167.043 1203.280, 1159.518 1208.164, 1153.938 1203.749, 1144.965 1199.335, 1135.992 1194.920, 1127.019 1190.505, 1118.047 1186.090, 1109.074 1181.676, 1100.101 1177.261, 1091.128 1172.846, 1082.156 1168.432, 1073.183 1164.017, 1064.210 1159.602, 1055.237 1155.188, 1046.264 1150.773, 1037.292 1146.358, 1028.319 1141.943, 1019.346 1137.529, 1010.373 1133.114, 1001.401 1128.699, 992.428 1124.285, 983.455 1119.870, 974.482 1115.455, 965.510 1111.041, 956.537 1106.626, 947.564 1102.211, 938.591 1097.797, 929.619 1093.382, 920.646 1088.967, 911.673 1086.796, 907.261 " fill="none" stroke="rgb(157, 20, 170)" stroke-linecap="butt" stroke-linejoin="round" stroke-opacity="1.0" stroke-width="3.0" />
            <path d=" M 182.801, 998.079 187.654, 989.336 192.507, 980.592 197.360, 971.849 202.213, 963.105 207.066, 954.362 211.919, 945.618 216.772, 936.875 220.412, 930.318 225.265, 921.574 230.118, 912.831 234.971, 904.087 239.824, 895.344 244.677, 886.600 249.530, 877.857 254.383, 869.113 259.236, 860.370 264.089, 851.626 268.942, 842.883 273.795, 834.139 278.648, 825.396 283.501, 816.652 286.883, 810.558 291.736, 801.814 296.589, 793.071 301.442, 784.327 306.295, 775.584 311.148, 766.840 316.001, 758.097 320.854, 749.354 325.707, 740.610 330.560, 731.867 335.413, 723.123 340.266, 714.380 345.119, 705.636 349.972, 696.893 354.825, 688.149 359.678, 679.406 363.883, 671.830 368.736, 663.086 373.589, 654.343 378.442, 645.599 383.295, 636.856 388.148, 628.113 393.001, 619.369 397.854, 610.626 402.707, 601.882 407.560, 593.139 412.413, 584.395 417.266, 575.652 422.119, 566.908 426.972, 558.165 431.825, 549.421 436.678, 540.678 441.531, 531.934 446.384, 523.191 451.237, 514.447 456.090, 505.704 458.364, 501.607 467.140, 506.401 475.916, 511.194 484.693, 515.987 485.396, 516.371 494.173, 521.165 502.949, 525.958 511.726, 530.751 512.842, 531.361 521.619, 536.154 530.395, 540.948 539.172, 545.741 547.948, 550.534 556.724, 555.328 565.501, 560.121 574.277, 564.914 579.308, 567.662 588.085, 572.455 589.804, 573.394 598.580, 578.187 607.356, 582.981 616.133, 587.774 624.909, 592.567 633.685, 597.360 642.462, 602.154 651.238, 606.947 660.014, 611.740 668.791, 616.533 677.567, 621.327 686.344, 626.120 695.120, 630.913 703.896, 635.706 712.673, 640.500 721.449, 645.293 730.225, 650.086 739.002, 654.880 747.778, 659.673 756.555, 664.466 765.331, 669.259 774.107, 674.053 782.884, 678.846 791.660, 683.639 800.436, 688.432 809.213, 693.226 817.989, 698.019 826.765, 702.812 835.542, 707.606 844.318, 712.399 853.094, 717.192 861.871, 721.985 872.894, 728.006 881.670, 732.799 890.447, 737.592 899.223, 742.386 904.799, 745.431 910.591, 748.594 919.367, 753.387 928.143, 758.180 936.920, 762.974 945.696, 767.767 954.473, 772.560 963.249, 777.354 972.025, 782.147 980.802, 786.940 989.578, 791.733 998.354, 796.527 1003.726, 799.460 " fill="none" stroke="rgb(157, 20, 170)" stroke-linecap="butt" stroke-linejoin="round" stroke-opacity="1.0" stroke-width="3.0" />
            <path d=" M 904.518, 933.392 910.470, 925.356 916.422, 917.320 922.375, 909.285 928.327, 901.249 934.279, 893.214 940.231, 885.178 946.184, 877.142 952.136, 869.107 958.088, 861.071 964.040, 853.036 969.993, 845.000 975.154, 838.033 981.106, 829.997 987.058, 821.962 993.010, 813.926 998.963, 805.890 1003.726, 799.460 1000.495, 792.370 " fill="none" stroke="rgb(157, 20, 170)" stroke-linecap="butt" stroke-linejoin="round" stroke-opacity="1.0" stroke-width="3.0" />
            <path d=" M 213.576, 927.268 209.590, 936.439 205.604, 945.610 201.618, 954.782 197.633, 963.953 193.647, 973.124 189.661, 982.296 185.675, 991.467 182.801, 998.079 191.984, 1002.038 201.167, 1005.997 210.350, 1009.956 219.533, 1013.915 228.716, 1017.874 237.899, 1021.833 247.082, 1025.792 256.265, 1029.751 265.448, 1033.710 274.631, 1037.669 276.576, 1038.508 285.759, 1042.467 287.205, 1043.090 296.388, 1047.049 305.570, 1051.008 311.059, 1053.374 " fill="none" stroke="rgb(157, 20, 170)" stroke-linecap="butt" stroke-linejoin="round" stroke-opacity="1.0" stroke-width="3.0" />
            <path d=" M 376.059, 305.658 384.732, 310.635 391.718, 314.645 " fill="none" stroke="rgb(157, 20, 170)" stroke-linecap="butt" stroke-linejoin="round" stroke-opacity="1.0" stroke-width="3.0" />
            <path d=" M 439.230, 222.482 433.181, 230.446 427.133, 238.410 421.085, 246.373 415.037, 254.337 408.988, 262.300 402.940, 270.264 396.892, 278.228 390.844, 286.191 384.796, 294.155 378.747, 302.119 376.059, 305.658 371.510, 314.563 366.961, 323.468 362.412, 332.374 357.863, 341.279 353.314, 350.185 348.765, 359.090 344.216, 367.995 339.667, 376.901 335.118, 385.806 330.569, 394.712 326.020, 403.617 321.471, 412.522 316.922, 421.428 312.372, 430.333 307.823, 439.239 303.274, 448.144 298.725, 457.049 294.176, 465.955 289.627, 474.860 285.078, 483.765 280.529, 492.671 275.980, 501.576 271.431, 510.482 266.882, 519.387 262.333, 528.292 257.784, 537.198 253.235, 546.103 248.686, 555.009 244.136, 563.914 239.587, 572.819 235.038, 581.725 230.489, 590.630 225.940, 599.536 221.391, 608.441 216.842, 617.346 212.293, 626.252 207.744, 635.157 203.195, 644.062 198.646, 652.968 194.097, 661.873 189.548, 670.779 184.999, 679.684 180.450, 688.589 175.900, 697.495 171.351, 706.400 166.802, 715.306 162.253, 724.211 157.704, 733.116 153.155, 742.022 148.606, 750.927 144.057, 759.833 139.508, 768.738 134.959, 777.643 130.410, 786.549 125.861, 795.454 121.312, 804.359 116.763, 813.265 112.213, 822.170 107.664, 831.076 103.115, 839.981 98.566, 848.886 94.017, 857.792 87.305, 870.931 96.438, 875.006 105.570, 879.080 114.702, 883.155 123.835, 887.229 132.967, 891.303 142.099, 895.378 151.231, 899.452 160.364, 903.527 169.496, 907.601 178.628, 911.676 187.761, 915.750 196.893, 919.824 206.025, 923.899 213.576, 927.268 " fill="none" stroke="rgb(157, 20, 170)" stroke-linecap="butt" stroke-linejoin="round" stroke-opacity="1.0" stroke-width="3.0" />
            <path d=" M 443.585, 214.033 445.003, 214.881 453.584, 220.015 462.166, 225.149 470.747, 230.283 479.329, 235.417 487.910, 240.551 496.492, 245.685 505.073, 250.819 513.654, 255.953 522.236, 261.087 530.817, 266.221 539.399, 271.355 547.980, 276.489 554.700, 280.509 563.281, 285.643 571.863, 290.777 580.444, 295.911 589.026, 301.046 597.607, 306.180 602.286, 308.978 " fill="none" stroke="rgb(157, 20, 170)" stroke-linecap="butt" stroke-linejoin="round" stroke-opacity="1.0" stroke-width="3.0" />
            <path d=" M 593.617, 209.618 585.104, 204.371 576.591, 199.124 568.078, 193.878 559.565, 188.631 551.052, 183.384 542.539, 178.137 534.026, 172.890 525.513, 167.643 517.000, 162.397 508.487, 157.150 499.974, 151.903 494.091, 148.277 488.000, 156.208 481.908, 164.138 475.817, 172.069 469.726, 180.000 463.634, 187.930 457.543, 195.861 451.452, 203.792 445.360, 211.722 443.585, 214.033 439.230, 222.482 434.647, 231.371 430.065, 240.259 425.483, 249.148 420.901, 258.036 416.319, 266.924 411.737, 275.813 407.155, 284.701 402.572, 293.590 397.990, 302.478 393.408, 311.367 391.718, 314.645 387.136, 323.533 382.554, 332.422 377.972, 341.310 373.389, 350.199 368.807, 359.087 364.225, 367.975 359.643, 376.864 355.061, 385.752 350.479, 394.641 345.897, 403.529 341.314, 412.418 336.732, 421.306 332.150, 430.194 327.568, 439.083 322.986, 447.971 318.404, 456.860 313.822, 465.748 309.240, 474.637 304.657, 483.525 300.075, 492.413 295.493, 501.302 290.911, 510.190 286.329, 519.079 281.747, 527.967 277.164, 536.855 272.582, 545.744 268.000, 554.632 263.418, 563.521 258.836, 572.409 254.254, 581.298 249.672, 590.186 245.090, 599.074 240.507, 607.963 235.925, 616.851 231.343, 625.740 226.761, 634.628 222.179, 643.516 217.597, 652.405 213.015, 661.293 209.205, 668.682 204.623, 677.571 200.041, 686.459 195.459, 695.348 190.877, 704.236 186.295, 713.125 181.712, 722.013 177.130, 730.901 172.548, 739.790 167.966, 748.678 165.643, 753.184 174.682, 757.462 183.721, 761.739 192.760, 766.017 201.799, 770.294 210.838, 774.572 219.877, 778.849 228.916, 783.126 237.955, 787.404 246.994, 791.681 256.033, 795.959 265.072, 800.236 268.150, 801.693 277.189, 805.970 286.228, 810.248 286.883, 810.558 " fill="none" stroke="rgb(157, 20, 170)" stroke-linecap="butt" stroke-linejoin="round" stroke-opacity="1.0" stroke-width="3.0" />
            <path d=" M 276.576, 1038.508 273.442, 1048.004 270.309, 1057.500 267.175, 1066.997 264.042, 1076.493 260.908, 1085.990 259.725, 1089.576 268.943, 1093.453 278.160, 1097.330 287.378, 1101.207 295.962, 1104.818 " fill="none" stroke="rgb(157, 20, 170)" stroke-linecap="butt" stroke-linejoin="round" stroke-opacity="1.0" stroke-width="3.0" />
            <path d=" M 691.415, 108.410 699.808, 113.848 708.200, 119.285 716.593, 124.723 724.985, 130.160 733.378, 135.598 741.770, 141.035 750.163, 146.473 758.555, 151.910 766.948, 157.348 775.340, 162.785 783.733, 168.223 792.125, 173.660 800.518, 179.098 808.910, 184.535 817.303, 189.973 825.695, 195.410 834.088, 200.848 842.480, 206.285 850.873, 211.723 859.265, 217.160 867.658, 222.598 876.050, 228.035 884.443, 233.473 892.835, 238.910 901.227, 244.348 909.620, 249.785 918.012, 255.222 926.405, 260.660 934.797, 266.097 943.190, 271.535 951.582, 276.972 959.975, 282.410 968.367, 287.847 976.760, 293.285 985.152, 298.722 993.545, 304.160 1001.937, 309.597 1010.330, 315.035 1018.722, 320.472 1027.115, 325.910 1035.507, 331.347 1043.900, 336.785 1052.292, 342.222 1060.685, 347.660 1069.077, 353.097 1077.470, 358.535 1085.862, 363.972 1094.255, 369.410 1102.647, 374.847 1111.040, 380.285 1119.432, 385.722 1127.825, 391.160 1136.217, 396.597 1144.609, 402.035 1153.002, 407.472 1161.394, 412.910 1169.787, 418.347 1178.179, 423.784 1186.572, 429.222 1194.964, 434.659 1203.357, 440.097 1211.749, 445.534 1220.142, 450.972 1228.534, 456.409 1236.927, 461.847 1245.319, 467.284 1253.712, 472.722 1262.104, 478.159 1270.497, 483.597 1278.889, 489.034 1287.282, 494.472 1295.674, 499.909 1303.057, 504.693 " fill="none" stroke="rgb(157, 20, 170)" stroke-linecap="butt" stroke-linejoin="round" stroke-opacity="1.0" stroke-width="3.0" />
            <path d=" M 1288.229, 524.192 1294.282, 516.232 1300.335, 508.272 1303.057, 504.693 1295.193, 498.516 1287.329, 492.339 1279.465, 486.161 1271.600, 479.984 1263.736, 473.807 1255.872, 467.630 1248.008, 461.453 1240.144, 455.276 1232.280, 449.099 1224.416, 442.922 1216.552, 436.745 1208.687, 430.568 1200.823, 424.391 1192.959, 418.214 1185.095, 412.037 1177.231, 405.860 1169.367, 399.683 1161.503, 393.506 1153.639, 387.329 1145.774, 381.152 1137.910, 374.975 1130.046, 368.798 1122.182, 362.621 1113.178, 355.549 1104.807, 350.079 1096.436, 344.609 1088.065, 339.138 1079.694, 333.668 1071.323, 328.198 1062.952, 322.728 1054.580, 317.257 1046.209, 311.787 1037.838, 306.317 1029.467, 300.847 1021.096, 295.376 1012.725, 289.906 1004.353, 284.436 995.982, 278.966 987.611, 273.495 979.240, 268.025 970.869, 262.555 962.498, 257.085 954.126, 251.614 945.755, 246.144 937.384, 240.674 929.013, 235.204 920.642, 229.733 912.271, 224.263 903.899, 218.793 895.528, 213.323 887.157, 207.852 878.786, 202.382 870.415, 196.912 862.044, 191.442 853.672, 185.971 845.301, 180.501 836.930, 175.031 828.559, 169.561 820.188, 164.090 811.817, 158.620 803.445, 153.150 795.074, 147.680 786.703, 142.209 778.332, 136.739 769.961, 131.269 761.590, 125.799 753.219, 120.328 744.847, 114.858 736.476, 109.388 728.105, 103.918 719.734, 98.447 711.363, 92.977 702.992, 87.507 694.620, 82.037 686.249, 76.566 677.878, 71.096 671.831, 67.145 667.019, 75.910 662.206, 84.676 657.394, 93.442 652.582, 102.208 647.770, 110.974 642.957, 119.740 638.145, 128.506 633.333, 137.272 628.521, 146.038 623.708, 154.804 618.896, 163.570 614.084, 172.336 609.272, 181.102 604.459, 189.868 599.647, 198.634 594.835, 207.400 593.617, 209.618 " fill="none" stroke="rgb(157, 20, 170)" stroke-linecap="butt" stroke-linejoin="round" stroke-opacity="1.0" stroke-width="3.0" />
            <path d=" M 671.831, 67.145 676.119, 76.179 680.406, 85.213 684.694, 94.247 688.981, 103.281 691.415, 108.410 686.541, 117.142 681.666, 125.873 676.791, 134.604 671.916, 143.336 667.041, 152.067 662.166, 160.798 657.291, 169.530 652.417, 178.261 647.542, 186.992 642.667, 195.724 637.792, 204.455 632.917, 213.186 628.042, 221.917 624.338, 228.552 619.463, 237.284 614.588, 246.015 609.713, 254.746 604.839, 263.478 599.964, 272.209 595.089, 280.940 590.214, 289.671 588.330, 293.045 " fill="none" stroke="rgb(157, 20, 170)" stroke-linecap="butt" stroke-linejoin="round" stroke-opacity="1.0" stroke-width="3.0" />
            <path d=" M 590.826, 450.234 595.843, 441.583 600.860, 432.932 605.876, 424.282 608.820, 419.207 613.836, 410.556 618.853, 401.906 623.870, 393.255 628.887, 384.605 633.903, 375.954 638.920, 367.303 643.937, 358.653 648.953, 350.002 653.970, 341.352 657.817, 334.718 662.834, 326.068 667.851, 317.417 672.867, 308.766 677.884, 300.116 682.901, 291.465 687.918, 282.815 692.934, 274.164 694.359, 271.708 699.375, 263.058 704.392, 254.407 709.409, 245.757 714.426, 237.106 719.442, 228.455 724.459, 219.805 729.476, 211.154 734.492, 202.504 739.509, 193.853 743.156, 187.565 751.583, 192.949 760.010, 198.332 768.437, 203.716 776.864, 209.100 785.291, 214.484 793.718, 219.868 802.145, 225.252 810.572, 230.636 818.999, 236.020 827.426, 241.404 835.853, 246.787 844.280, 252.171 852.707, 257.555 861.134, 262.939 869.561, 268.323 877.987, 273.707 886.414, 279.091 894.841, 284.475 903.268, 289.859 911.695, 295.242 920.122, 300.626 928.549, 306.010 936.976, 311.394 945.403, 316.778 953.830, 322.162 962.257, 327.546 970.684, 332.930 979.111, 338.313 987.538, 343.697 995.965, 349.081 1004.392, 354.465 1012.819, 359.849 1021.246, 365.233 1029.673, 370.617 1038.100, 376.001 1046.527, 381.385 1054.954, 386.769 1063.381, 392.152 1071.808, 397.536 1080.235, 402.920 1088.662, 408.304 1097.089, 413.688 1105.516, 419.072 1113.943, 424.456 1122.370, 429.840 1130.797, 435.224 1139.223, 440.607 1147.650, 445.991 1156.077, 451.375 1164.504, 456.759 1172.931, 462.143 1181.358, 467.527 1189.785, 472.911 1198.212, 478.295 1206.639, 483.678 1215.066, 489.062 1223.493, 494.446 1231.920, 499.830 1240.347, 505.214 1248.774, 510.598 1257.201, 515.982 1265.628, 521.366 1274.055, 526.750 1282.286, 532.008 1290.713, 537.392 1299.140, 542.776 1307.567, 548.160 1315.994, 553.544 1324.421, 558.928 1332.848, 564.312 1341.275, 569.696 1348.173, 574.103 " fill="none" stroke="rgb(157, 20, 170)" stroke-linecap="butt" stroke-linejoin="round" stroke-opacity="1.0" stroke-width="3.0" />
            <path d=" M 1086.796, 907.261 1092.969, 899.393 1099.141, 891.526 1105.314, 883.658 1111.486, 875.790 1117.659, 867.923 1123.831, 860.055 1130.004, 852.188 1136.176, 844.320 1142.349, 836.452 1148.521, 828.585 1154.694, 820.717 1160.866, 812.849 1167.039, 804.982 1173.212, 797.114 1179.384, 789.246 1185.557, 781.379 1191.729, 773.511 1197.902, 765.643 1204.074, 757.776 1210.247, 749.908 1216.419, 742.040 1222.592, 734.173 1228.764, 726.305 1234.937, 718.437 1241.109, 710.570 1247.282, 702.702 1253.454, 694.834 1259.627, 686.967 1265.799, 679.099 1271.972, 671.231 1278.144, 663.364 1284.317, 655.496 1290.489, 647.628 1296.662, 639.761 1302.834, 631.893 1309.007, 624.025 1315.179, 616.158 1321.352, 608.290 1327.524, 600.422 1333.697, 592.555 1339.870, 584.687 1348.173, 574.103 1340.488, 567.704 1332.803, 561.306 1325.119, 554.907 1317.434, 548.508 1309.749, 542.110 1302.064, 535.711 1294.379, 529.312 1288.229, 524.192 " fill="none" stroke="rgb(157, 20, 170)" stroke-linecap="butt" stroke-linejoin="round" stroke-opacity="1.0" stroke-width="3.0" />
            <path d=" M 287.205, 1043.090 282.116, 1051.698 277.027, 1060.307 271.938, 1068.915 266.849, 1077.524 261.760, 1086.132 259.725, 1089.576 " fill="none" stroke="rgb(157, 20, 170)" stroke-linecap="butt" stroke-linejoin="round" stroke-opacity="1.0" stroke-width="3.0" />
        </g>
    </g>
    <g id="fressstylelayer_hidden lines" inkscape:groupmode="lineset" inkscape:label="fressstylelayer_hidden lines" xmlns:inkscape="http://www.inkscape.org/namespaces/inkscape">
        <g id="strokes" inkscape:groupmode="layer" inkscape:label="strokes" xmlns:inkscape="http://www.inkscape.org/namespaces/inkscape">
            <path d=" M 1086.796, 907.261 1082.382, 898.288 1077.967, 889.316 1073.552, 880.343 1069.137, 871.370 1064.723, 862.397 1060.308, 853.425 1055.893, 844.452 1051.499, 835.521 1047.085, 826.548 1042.670, 817.576 1041.239, 814.667 1039.982, 813.979 1031.209, 809.178 1022.437, 804.378 1013.665, 799.577 1004.893, 794.776 1000.495, 792.370 991.723, 787.569 982.951, 782.768 974.178, 777.967 965.406, 773.167 956.634, 768.366 947.861, 763.565 939.089, 758.764 930.317, 753.963 921.545, 749.163 913.357, 744.682 910.777, 743.270 908.431, 741.986 902.370, 738.669 893.597, 733.868 884.825, 729.067 876.053, 724.267 875.643, 724.042 866.871, 719.242 863.667, 717.488 854.894, 712.687 846.122, 707.887 841.782, 705.511 835.571, 702.112 826.799, 697.312 818.026, 692.511 809.254, 687.710 800.482, 682.909 791.710, 678.109 782.937, 673.308 774.165, 668.507 765.393, 663.706 761.141, 661.380 752.369, 656.579 743.596, 651.778 743.126, 651.521 734.354, 646.720 725.582, 641.919 716.809, 637.118 708.037, 632.318 699.265, 627.517 690.492, 622.716 681.720, 617.915 672.948, 613.115 664.176, 608.314 655.403, 603.513 646.631, 598.712 637.859, 593.912 629.087, 589.111 622.165, 585.323 613.393, 580.522 604.620, 575.721 595.848, 570.921 592.406, 569.037 583.634, 564.236 581.905, 563.290 579.308, 567.662 574.202, 576.260 569.096, 584.858 563.990, 593.456 558.884, 602.054 556.533, 606.013 552.891, 612.146 547.785, 620.744 542.678, 629.342 542.511, 629.623 537.405, 638.221 532.299, 646.819 527.193, 655.418 522.087, 664.016 516.981, 672.614 512.908, 679.472 507.801, 688.070 502.695, 696.668 497.589, 705.267 492.483, 713.865 487.377, 722.463 482.271, 731.061 477.164, 739.659 472.058, 748.257 467.870, 755.309 462.764, 763.908 457.658, 772.506 452.552, 781.104 447.445, 789.702 443.584, 796.204 438.478, 804.802 433.372, 813.400 432.920, 814.161 427.814, 822.759 422.728, 831.322 417.622, 839.921 413.909, 846.173 408.803, 854.771 403.696, 863.369 402.553, 865.295 397.447, 873.893 392.340, 882.491 387.234, 891.090 382.128, 899.688 377.022, 908.286 371.916, 916.884 366.810, 925.482 361.703, 934.080 356.597, 942.678 351.491, 951.276 346.385, 959.874 341.279, 968.472 336.173, 977.070 333.875, 980.940 330.795, 986.126 327.979, 995.721 325.163, 1005.317 322.347, 1014.912 319.531, 1024.507 316.715, 1034.103 313.899, 1043.698 311.059, 1053.374 308.243, 1062.970 305.427, 1072.565 302.611, 1082.160 299.795, 1091.756 296.979, 1101.351 295.962, 1104.818 " fill="none" stroke="rgb(0, 119, 0)" stroke-linecap="butt" stroke-linejoin="round" stroke-opacity="1.0" stroke-width="3.0" />
            <path d=" M 581.905, 563.290 581.129, 573.260 580.353, 583.230 579.817, 590.113 579.041, 600.083 578.265, 610.053 577.489, 620.023 576.713, 629.993 575.937, 639.962 575.161, 649.932 574.385, 659.902 573.609, 669.872 572.834, 679.842 572.058, 689.812 571.282, 699.782 570.506, 709.751 569.730, 719.721 568.954, 729.691 568.178, 739.661 567.402, 749.631 566.626, 759.601 565.850, 769.570 565.074, 779.540 564.298, 789.510 563.522, 799.480 562.746, 809.450 561.970, 819.420 561.194, 829.390 560.792, 834.553 " fill="none" stroke="rgb(0, 119, 0)" stroke-linecap="butt" stroke-linejoin="round" stroke-opacity="1.0" stroke-width="3.0" />
            <path d=" M 1041.239, 814.667 1040.682, 815.406 1034.664, 823.393 1028.646, 831.379 1022.628, 839.365 1016.610, 847.352 1010.592, 855.338 1004.574, 863.325 998.556, 871.311 992.538, 879.298 986.520, 887.284 980.502, 895.270 974.484, 903.257 968.466, 911.243 962.448, 919.230 956.430, 927.216 950.411, 935.203 944.393, 943.189 938.375, 951.175 932.357, 959.162 926.339, 967.148 920.321, 975.135 914.303, 983.121 908.285, 991.108 902.267, 999.094 896.249, 1007.081 890.302, 1014.973 884.284, 1022.959 878.266, 1030.945 872.248, 1038.932 867.411, 1045.351 861.393, 1053.337 855.375, 1061.324 849.357, 1069.310 843.339, 1077.297 837.321, 1085.283 831.303, 1093.269 825.285, 1101.256 819.267, 1109.242 813.249, 1117.229 807.231, 1125.215 801.212, 1133.202 795.194, 1141.188 789.176, 1149.174 783.158, 1157.161 777.140, 1165.147 771.122, 1173.134 766.089, 1179.813 " fill="none" stroke="rgb(0, 119, 0)" stroke-linecap="butt" stroke-linejoin="round" stroke-opacity="1.0" stroke-width="3.0" />
            <path d=" M 814.706, 1603.489 813.566, 1593.554 812.426, 1583.619 811.286, 1573.685 810.146, 1563.750 809.006, 1553.815 807.866, 1543.880 806.726, 1533.945 805.586, 1524.011 804.446, 1514.076 803.306, 1504.141 802.166, 1494.206 801.026, 1484.271 799.886, 1474.337 798.746, 1464.402 797.606, 1454.467 796.466, 1444.532 795.326, 1434.597 794.186, 1424.663 793.046, 1414.728 791.906, 1404.793 790.766, 1394.858 789.626, 1384.923 788.486, 1374.989 787.346, 1365.054 786.205, 1355.119 785.065, 1345.184 783.925, 1335.249 782.785, 1325.315 781.645, 1315.380 780.505, 1305.445 779.365, 1295.510 778.225, 1285.575 777.621, 1280.312 776.481, 1270.377 775.341, 1260.442 774.201, 1250.507 773.061, 1240.573 771.921, 1230.638 770.781, 1220.703 769.641, 1210.768 768.501, 1200.833 767.361, 1190.899 766.221, 1180.964 766.089, 1179.813 756.952, 1175.748 747.816, 1171.683 738.680, 1167.618 732.917, 1165.053 723.781, 1160.988 714.644, 1156.923 705.508, 1152.857 696.371, 1148.792 687.235, 1144.727 678.099, 1140.662 668.962, 1136.596 659.826, 1132.531 650.690, 1128.466 641.553, 1124.400 632.417, 1120.335 623.280, 1116.270 614.144, 1112.204 605.008, 1108.139 595.871, 1104.074 586.735, 1100.009 577.599, 1095.943 568.462, 1091.878 559.326, 1087.813 550.189, 1083.747 541.053, 1079.682 531.917, 1075.617 522.780, 1071.552 513.644, 1067.486 504.508, 1063.421 495.371, 1059.356 486.235, 1055.290 477.098, 1051.225 467.962, 1047.160 458.826, 1043.094 449.689, 1039.029 440.553, 1034.964 431.417, 1030.899 422.280, 1026.833 413.144, 1022.768 404.007, 1018.703 394.871, 1014.637 385.735, 1010.572 376.598, 1006.507 367.462, 1002.441 358.326, 998.376 349.189, 994.311 340.053, 990.246 330.795, 986.126 " fill="none" stroke="rgb(0, 119, 0)" stroke-linecap="butt" stroke-linejoin="round" stroke-opacity="1.0" stroke-width="3.0" />
            <path d=" M 1000.495, 792.370 996.349, 783.270 992.203, 774.170 988.057, 765.070 983.911, 755.970 979.764, 746.870 975.618, 737.770 971.472, 728.670 967.326, 719.570 963.180, 710.470 959.034, 701.370 954.888, 692.270 953.134, 688.420 951.711, 685.298 950.415, 682.454 946.269, 673.354 942.123, 664.254 937.977, 655.154 933.831, 646.054 933.615, 645.580 932.207, 642.491 928.061, 633.391 925.507, 627.784 921.332, 618.622 917.186, 609.522 913.040, 600.422 909.681, 593.049 901.022, 588.046 892.364, 583.043 883.705, 578.040 875.047, 573.037 866.388, 568.034 857.730, 563.031 849.071, 558.028 840.413, 553.025 834.292, 549.488 825.633, 544.485 816.974, 539.482 816.035, 538.939 807.377, 533.936 798.718, 528.933 790.060, 523.930 781.401, 518.927 772.742, 513.924 767.883, 511.116 759.224, 506.113 750.566, 501.110 743.382, 496.959 734.723, 491.956 726.065, 486.953 717.406, 481.950 708.747, 476.947 700.089, 471.944 691.430, 466.941 682.772, 461.938 674.113, 456.935 665.455, 451.932 656.796, 446.929 648.864, 442.345 640.206, 437.342 633.005, 433.182 624.347, 428.179 615.688, 423.176 608.820, 419.207 600.161, 414.204 591.503, 409.201 582.844, 404.198 574.186, 399.195 565.527, 394.192 557.027, 389.280 548.368, 384.277 540.071, 379.483 531.412, 374.480 522.754, 369.477 514.095, 364.474 509.928, 362.066 504.240, 358.779 499.440, 367.552 495.725, 374.341 490.925, 383.113 486.124, 391.886 481.324, 400.658 476.523, 409.431 471.723, 418.203 466.922, 426.976 462.122, 435.748 457.322, 444.520 452.521, 453.293 447.721, 462.065 442.920, 470.838 438.120, 479.610 433.320, 488.383 428.519, 497.155 423.719, 505.928 418.918, 514.700 414.118, 523.473 409.317, 532.245 404.517, 541.017 399.717, 549.790 394.916, 558.562 390.116, 567.335 385.315, 576.107 380.515, 584.880 375.715, 593.652 370.914, 602.425 369.435, 605.127 364.635, 613.899 359.835, 622.672 355.034, 631.444 350.234, 640.217 345.433, 648.989 340.633, 657.762 335.832, 666.534 331.032, 675.307 326.031, 684.445 321.231, 693.218 316.430, 701.990 311.630, 710.763 306.830, 719.535 302.029, 728.307 297.229, 737.080 292.380, 745.941 288.394, 755.112 284.408, 764.284 280.422, 773.455 276.436, 782.626 272.451, 791.798 268.465, 800.969 268.150, 801.693 264.164, 810.864 260.179, 820.036 256.193, 829.207 252.207, 838.378 248.221, 847.550 244.235, 856.721 240.249, 865.892 236.264, 875.064 232.278, 884.235 228.292, 893.406 224.306, 902.578 220.320, 911.749 216.334, 920.920 213.576, 927.268 " fill="none" stroke="rgb(0, 119, 0)" stroke-linecap="butt" stroke-linejoin="round" stroke-opacity="1.0" stroke-width="3.0" />
            <path d=" M 504.240, 358.779 501.182, 368.300 498.124, 377.821 495.066, 387.342 493.675, 391.671 490.617, 401.192 487.559, 410.713 484.501, 420.234 481.443, 429.755 478.385, 439.276 475.327, 448.797 472.268, 458.318 469.210, 467.838 466.152, 477.359 463.094, 486.880 460.036, 496.401 458.364, 501.607 " fill="none" stroke="rgb(0, 119, 0)" stroke-linecap="butt" stroke-linejoin="round" stroke-opacity="1.0" stroke-width="3.0" />
            <path d=" M 909.681, 593.049 904.061, 601.320 898.440, 609.592 892.820, 617.863 890.631, 621.084 885.010, 629.356 879.390, 637.627 873.770, 645.898 868.149, 654.169 867.414, 655.252 861.793, 663.523 856.173, 671.794 850.553, 680.065 844.932, 688.336 839.312, 696.607 835.571, 702.112 829.951, 710.384 824.330, 718.655 818.710, 726.926 813.089, 735.197 807.469, 743.468 801.849, 751.739 796.228, 760.010 790.608, 768.281 784.988, 776.553 779.367, 784.824 773.747, 793.095 768.127, 801.366 762.506, 809.637 756.886, 817.908 751.266, 826.179 745.645, 834.450 740.025, 842.722 734.404, 850.993 728.784, 859.264 723.164, 867.535 717.543, 875.806 711.923, 884.077 706.303, 892.348 700.682, 900.619 695.062, 908.891 689.725, 916.745 684.104, 925.016 678.446, 933.342 " fill="none" stroke="rgb(0, 119, 0)" stroke-linecap="butt" stroke-linejoin="round" stroke-opacity="1.0" stroke-width="3.0" />
            <path d=" M 693.507, 1218.257 692.979, 1208.271 692.451, 1198.285 691.923, 1188.299 691.396, 1178.313 690.868, 1168.327 690.340, 1158.340 689.812, 1148.354 689.284, 1138.368 688.756, 1128.382 688.228, 1118.396 687.701, 1108.410 687.173, 1098.424 686.645, 1088.438 686.117, 1078.452 685.589, 1068.466 685.509, 1066.953 684.981, 1056.967 684.453, 1046.981 683.926, 1036.995 683.398, 1027.009 682.870, 1017.023 682.412, 1008.355 681.884, 998.369 681.836, 997.458 681.308, 987.472 680.780, 977.486 680.252, 967.500 679.724, 957.514 679.589, 954.951 679.061, 944.965 678.533, 934.979 678.446, 933.342 669.450, 928.976 660.454, 924.609 651.458, 920.242 642.462, 915.875 633.466, 911.508 624.470, 907.141 615.473, 902.775 606.477, 898.408 597.481, 894.041 588.485, 889.674 579.489, 885.307 570.493, 880.940 561.497, 876.574 552.500, 872.207 543.504, 867.840 534.508, 863.473 525.512, 859.106 516.516, 854.739 507.520, 850.373 498.523, 846.006 489.527, 841.639 480.531, 837.272 471.535, 832.905 466.946, 830.678 457.950, 826.311 448.954, 821.944 439.958, 817.577 432.920, 814.161 423.924, 809.794 414.928, 805.427 405.931, 801.060 396.935, 796.694 387.939, 792.327 387.103, 791.921 378.107, 787.554 369.111, 783.188 368.792, 783.032 359.796, 778.666 350.799, 774.299 341.803, 769.932 332.807, 765.565 323.811, 761.198 314.815, 756.831 305.819, 752.465 296.823, 748.098 292.380, 745.941 " fill="none" stroke="rgb(0, 119, 0)" stroke-linecap="butt" stroke-linejoin="round" stroke-opacity="1.0" stroke-width="3.0" />
            <path d=" M 311.059, 1053.374 320.242, 1057.333 329.425, 1061.292 338.608, 1065.251 347.791, 1069.210 356.974, 1073.169 366.157, 1077.128 375.340, 1081.087 384.523, 1085.046 393.706, 1089.005 398.880, 1091.236 408.063, 1095.195 417.246, 1099.154 426.429, 1103.113 435.612, 1107.072 444.795, 1111.031 453.978, 1114.990 463.161, 1118.949 472.344, 1122.908 481.527, 1126.867 490.710, 1130.826 499.892, 1134.785 509.075, 1138.744 518.258, 1142.703 527.441, 1146.662 536.624, 1150.621 545.807, 1154.580 554.990, 1158.539 564.173, 1162.498 573.356, 1166.457 582.539, 1170.416 591.722, 1174.375 600.905, 1178.334 610.088, 1182.293 619.271, 1186.252 628.454, 1190.211 637.637, 1194.170 646.820, 1198.129 656.002, 1202.088 665.185, 1206.047 674.368, 1210.006 683.551, 1213.965 693.507, 1218.257 699.459, 1210.221 705.412, 1202.186 711.364, 1194.150 717.316, 1186.115 723.268, 1178.079 729.221, 1170.043 732.917, 1165.053 738.869, 1157.018 744.821, 1148.982 746.201, 1147.120 752.153, 1139.084 758.106, 1131.049 764.058, 1123.013 770.010, 1114.977 775.962, 1106.942 781.915, 1098.906 787.867, 1090.871 793.819, 1082.835 799.771, 1074.799 805.724, 1066.764 811.676, 1058.728 817.628, 1050.693 823.581, 1042.657 829.533, 1034.622 833.629, 1029.091 839.581, 1021.056 845.534, 1013.020 851.486, 1004.985 856.390, 998.365 862.342, 990.329 866.142, 985.199 872.094, 977.163 878.047, 969.128 883.999, 961.092 889.561, 953.584 895.513, 945.548 901.465, 937.513 904.518, 933.392 " fill="none" stroke="rgb(0, 119, 0)" stroke-linecap="butt" stroke-linejoin="round" stroke-opacity="1.0" stroke-width="3.0" />
            <path d=" M 213.576, 927.268 220.412, 930.318 229.544, 934.392 238.677, 938.466 247.809, 942.541 256.941, 946.615 266.073, 950.690 275.206, 954.764 284.338, 958.839 293.470, 962.913 300.487, 966.043 309.619, 970.118 318.752, 974.192 326.017, 977.434 333.875, 980.940 343.007, 985.014 352.139, 989.089 361.272, 993.163 370.404, 997.237 379.536, 1001.312 388.669, 1005.386 397.801, 1009.461 406.933, 1013.535 416.066, 1017.609 425.198, 1021.684 434.330, 1025.758 438.897, 1027.796 448.030, 1031.870 457.162, 1035.945 466.294, 1040.019 475.426, 1044.094 484.559, 1048.168 493.691, 1052.243 502.823, 1056.317 511.956, 1060.391 521.088, 1064.466 530.220, 1068.540 539.353, 1072.615 548.485, 1076.689 557.617, 1080.764 566.750, 1084.838 575.882, 1088.912 585.014, 1092.987 594.146, 1097.061 603.279, 1101.136 612.411, 1105.210 621.543, 1109.285 630.676, 1113.359 639.808, 1117.433 647.419, 1120.829 653.191, 1112.664 658.964, 1104.498 664.737, 1096.333 670.510, 1088.167 676.283, 1080.002 682.056, 1071.837 685.509, 1066.953 691.282, 1058.788 697.055, 1050.622 702.828, 1042.457 708.601, 1034.291 714.374, 1026.126 715.812, 1024.092 721.585, 1015.926 727.358, 1007.761 731.531, 1001.859 737.112, 993.964 742.885, 985.799 743.087, 985.513 748.860, 977.348 754.633, 969.182 760.406, 961.017 765.478, 953.843 771.251, 945.678 775.075, 940.270 780.847, 932.105 786.620, 923.940 792.393, 915.774 798.166, 907.609 803.939, 899.443 809.712, 891.278 815.485, 883.113 821.258, 874.947 827.031, 866.782 832.804, 858.617 838.577, 850.451 844.350, 842.286 850.123, 834.121 855.565, 826.423 861.338, 818.257 867.111, 810.092 868.409, 808.257 874.182, 800.092 879.955, 791.926 882.427, 788.429 888.200, 780.264 893.249, 773.123 899.022, 764.957 904.795, 756.792 907.504, 752.960 910.591, 748.594 913.357, 744.682 919.130, 736.516 924.903, 728.351 930.675, 720.186 936.448, 712.020 942.221, 703.855 947.994, 695.690 953.134, 688.420 958.907, 680.255 964.680, 672.090 968.012, 667.377 973.785, 659.211 979.057, 651.754 976.095, 646.042 971.492, 637.164 966.889, 628.287 962.285, 619.409 957.682, 610.532 956.267, 607.803 951.664, 598.926 948.975, 593.741 944.372, 584.863 939.768, 575.986 935.165, 567.108 930.562, 558.231 925.958, 549.353 921.355, 540.476 916.752, 531.598 912.148, 522.721 907.545, 513.844 902.942, 504.966 898.338, 496.089 893.735, 487.211 890.827, 481.604 886.224, 472.726 885.451, 471.235 876.875, 466.092 868.299, 460.948 867.034, 460.190 858.458, 455.047 849.882, 449.904 841.306, 444.760 832.730, 439.617 824.154, 434.474 815.578, 429.331 807.002, 424.188 798.426, 419.044 789.850, 413.901 781.274, 408.758 772.698, 403.615 764.122, 398.472 755.546, 393.328 746.970, 388.185 738.394, 383.042 729.818, 377.899 721.242, 372.755 712.666, 367.612 704.090, 362.469 695.514, 357.326 686.938, 352.183 678.362, 347.039 669.786, 341.896 661.210, 336.753 657.817, 334.718 649.241, 329.575 640.665, 324.432 632.089, 319.289 623.513, 314.145 614.937, 309.002 606.361, 303.859 605.472, 303.325 596.896, 298.182 588.330, 293.045 579.754, 287.902 571.178, 282.759 562.602, 277.616 557.852, 274.767 549.276, 269.624 540.700, 264.481 532.124, 259.337 523.548, 254.194 514.972, 249.051 506.396, 243.908 497.821, 238.765 489.245, 233.621 480.669, 228.478 472.093, 223.335 463.517, 218.192 459.149, 215.573 450.573, 210.429 449.069, 209.527 445.003, 214.881 439.230, 222.482 " fill="none" stroke="rgb(0, 119, 0)" stroke-linecap="butt" stroke-linejoin="round" stroke-opacity="1.0" stroke-width="3.0" />
            <path d=" M 885.451, 471.235 879.979, 479.605 874.507, 487.975 869.035, 496.345 863.563, 504.715 858.091, 513.085 852.619, 521.455 847.147, 529.825 841.675, 538.195 836.203, 546.565 834.292, 549.488 828.820, 557.858 823.347, 566.228 817.875, 574.598 815.482, 578.259 810.010, 586.629 804.538, 594.999 799.066, 603.369 793.594, 611.739 792.564, 613.315 787.092, 621.685 781.620, 630.055 776.148, 638.425 770.676, 646.795 765.204, 655.165 761.141, 661.380 755.669, 669.750 750.197, 678.120 744.725, 686.490 739.253, 694.859 733.781, 703.230 729.573, 709.666 724.101, 718.036 718.629, 726.406 713.157, 734.776 707.685, 743.146 702.213, 751.516 696.741, 759.886 691.269, 768.256 685.797, 776.627 680.325, 784.997 674.852, 793.367 669.380, 801.737 663.908, 810.107 659.266, 817.207 653.794, 825.577 648.322, 833.947 642.850, 842.317 642.646, 842.630 " fill="none" stroke="rgb(0, 119, 0)" stroke-linecap="butt" stroke-linejoin="round" stroke-opacity="1.0" stroke-width="3.0" />
            <path d=" M 647.419, 1120.829 647.247, 1110.830 647.075, 1100.832 646.904, 1090.833 646.732, 1080.835 646.561, 1070.836 646.389, 1060.838 646.218, 1050.839 646.046, 1040.841 645.875, 1030.842 645.703, 1020.844 645.532, 1010.845 645.360, 1000.847 645.188, 990.817 645.017, 980.818 645.003, 980.028 644.832, 970.030 644.660, 960.031 644.489, 950.033 644.317, 940.034 644.281, 937.957 644.110, 927.959 643.938, 917.960 643.767, 907.962 643.595, 897.963 643.529, 894.122 643.358, 884.123 643.186, 874.125 643.015, 864.126 642.843, 854.128 642.672, 844.129 642.646, 842.630 633.700, 838.160 624.755, 833.691 615.809, 829.222 606.863, 824.752 597.918, 820.283 588.972, 815.813 580.026, 811.344 571.081, 806.875 562.135, 802.405 553.189, 797.936 544.244, 793.467 535.298, 788.997 526.352, 784.528 517.407, 780.059 508.461, 775.589 499.515, 771.120 490.570, 766.651 481.624, 762.181 479.963, 761.351 471.018, 756.882 467.870, 755.309 458.924, 750.840 449.979, 746.371 441.033, 741.901 432.087, 737.432 423.142, 732.963 414.196, 728.493 406.851, 724.824 403.164, 722.981 394.218, 718.512 385.272, 714.043 376.327, 709.573 367.381, 705.104 358.435, 700.635 353.853, 698.345 344.908, 693.876 335.962, 689.407 327.016, 684.937 326.031, 684.445 317.086, 679.976 308.140, 675.506 299.194, 671.037 290.249, 666.568 281.303, 662.098 272.357, 657.629 263.412, 653.160 254.466, 648.690 245.520, 644.221 236.575, 639.752 228.941, 635.938 " fill="none" stroke="rgb(0, 119, 0)" stroke-linecap="butt" stroke-linejoin="round" stroke-opacity="1.0" stroke-width="3.0" />
            <path d=" M 87.305, 870.931 92.467, 862.367 97.630, 853.802 102.792, 845.237 107.954, 836.673 113.116, 828.108 118.278, 819.544 123.440, 810.979 128.602, 802.414 133.764, 793.850 138.926, 785.285 144.088, 776.720 149.250, 768.156 154.413, 759.591 159.575, 751.026 164.737, 742.462 169.899, 733.897 175.061, 725.333 180.223, 716.768 185.385, 708.203 190.547, 699.639 195.709, 691.074 200.871, 682.510 206.033, 673.945 209.205, 668.682 214.367, 660.118 219.530, 651.553 224.692, 642.989 228.941, 635.938 233.528, 627.052 238.116, 618.166 242.703, 609.280 247.290, 600.395 251.877, 591.509 256.464, 582.623 261.051, 573.737 265.639, 564.851 270.226, 555.965 274.813, 547.080 279.400, 538.194 283.987, 529.308 288.574, 520.422 293.162, 511.536 297.749, 502.650 302.336, 493.765 306.923, 484.879 311.510, 475.993 316.097, 467.107 320.685, 458.221 325.272, 449.335 329.859, 440.450 334.446, 431.564 339.033, 422.678 343.620, 413.792 348.207, 404.906 352.795, 396.021 357.382, 387.135 361.969, 378.249 366.556, 369.363 371.143, 360.477 375.730, 351.591 380.318, 342.706 384.905, 333.820 389.492, 324.934 394.079, 316.048 398.666, 307.162 403.253, 298.276 407.841, 289.391 412.428, 280.505 417.015, 271.619 421.602, 262.733 426.189, 253.847 430.776, 244.961 435.364, 236.076 439.951, 227.190 444.538, 218.304 449.069, 209.527 " fill="none" stroke="rgb(0, 119, 0)" stroke-linecap="butt" stroke-linejoin="round" stroke-opacity="1.0" stroke-width="3.0" />
            <path d=" M 621.786, 626.740 630.588, 631.486 639.390, 636.232 648.192, 640.979 656.994, 645.725 665.796, 650.471 674.597, 655.218 683.399, 659.964 692.201, 664.710 701.003, 669.456 709.805, 674.203 718.607, 678.949 727.409, 683.695 736.211, 688.442 745.012, 693.188 753.814, 697.934 762.616, 702.680 771.418, 707.427 780.220, 712.173 789.022, 716.919 797.823, 721.666 806.625, 726.412 815.427, 731.158 824.229, 735.905 833.031, 740.651 841.833, 745.397 850.635, 750.143 855.660, 752.853 864.462, 757.599 873.264, 762.346 882.065, 767.092 890.867, 771.838 893.249, 773.123 902.051, 777.869 910.853, 782.615 919.913, 787.501 " fill="none" stroke="rgb(0, 119, 0)" stroke-linecap="butt" stroke-linejoin="round" stroke-opacity="1.0" stroke-width="3.0" />
            <path d=" M 919.913, 787.501 916.532, 778.090 913.151, 768.679 909.770, 759.268 907.504, 752.960 906.301, 749.611 905.205, 746.560 904.799, 745.431 902.370, 738.669 898.989, 729.258 895.608, 719.847 892.227, 710.436 889.788, 703.649 886.407, 694.238 884.108, 687.836 880.727, 678.425 877.346, 669.014 873.965, 659.603 873.658, 658.750 867.414, 655.252 858.690, 650.364 849.966, 645.476 841.242, 640.588 832.518, 635.700 823.794, 630.812 815.069, 625.924 806.345, 621.036 797.621, 616.148 792.564, 613.315 783.840, 608.427 775.116, 603.539 774.443, 603.162 765.719, 598.274 756.995, 593.387 748.271, 588.499 739.547, 583.611 730.823, 578.723 726.660, 576.390 717.936, 571.502 709.212, 566.615 702.352, 562.771 693.628, 557.883 684.904, 552.995 676.180, 548.107 667.456, 543.219 658.732, 538.332 650.008, 533.444 641.284, 528.556 632.560, 523.668 623.836, 518.780 622.778, 518.188 618.558, 525.254 613.430, 533.839 608.302, 542.424 603.174, 551.009 599.851, 556.572 594.724, 565.157 592.406, 569.037 589.804, 573.394 584.676, 581.979 579.817, 590.113 574.689, 598.698 569.561, 607.283 566.974, 611.615 563.324, 617.727 558.196, 626.312 553.068, 634.897 552.919, 635.145 547.792, 643.731 542.664, 652.316 537.536, 660.901 532.408, 669.486 527.280, 678.071 523.244, 684.828 518.116, 693.414 512.988, 701.999 507.860, 710.584 502.732, 719.169 497.604, 727.754 492.476, 736.339 487.348, 744.924 482.221, 753.510 481.076, 755.426 479.963, 761.351 478.118, 771.180 476.272, 781.008 474.427, 790.836 472.582, 800.664 470.907, 809.584 469.062, 819.412 467.216, 829.241 466.946, 830.678 465.101, 840.506 463.256, 850.334 463.170, 850.788 461.325, 860.616 459.910, 868.151 458.065, 877.979 456.219, 887.808 455.722, 890.456 453.877, 900.284 453.808, 900.648 462.855, 904.911 471.901, 909.173 480.947, 913.435 489.993, 917.697 499.040, 921.959 504.141, 924.363 513.188, 928.625 522.234, 932.887 531.280, 937.149 540.326, 941.411 549.373, 945.673 558.419, 949.936 567.465, 954.198 576.511, 958.460 585.557, 962.722 594.604, 966.984 603.650, 971.246 612.696, 975.508 621.742, 979.771 630.789, 984.033 639.835, 988.295 645.188, 990.817 654.234, 995.079 663.281, 999.341 672.327, 1003.603 681.373, 1007.866 682.412, 1008.355 691.458, 1012.617 700.504, 1016.879 709.550, 1021.141 715.812, 1024.092 724.859, 1028.354 733.905, 1032.616 734.673, 1032.978 741.649, 1036.264 747.474, 1028.136 753.299, 1020.008 759.124, 1011.879 764.948, 1003.751 769.060, 998.014 774.884, 989.885 780.709, 981.757 786.534, 973.628 791.559, 966.616 797.384, 958.487 801.202, 953.160 807.026, 945.032 812.851, 936.903 818.676, 928.775 824.501, 920.646 830.326, 912.518 836.151, 904.390 841.975, 896.261 847.800, 888.133 853.625, 880.004 859.450, 871.876 865.471, 863.474 871.295, 855.345 877.120, 847.217 878.924, 844.699 884.749, 836.571 890.574, 828.442 896.399, 820.314 902.224, 812.186 908.049, 804.057 909.044, 802.668 914.869, 794.539 919.913, 787.501 " fill="none" stroke="rgb(0, 119, 0)" stroke-linecap="butt" stroke-linejoin="round" stroke-opacity="1.0" stroke-width="3.0" />
            <path d=" M 622.778, 518.188 622.687, 528.187 622.596, 538.187 622.504, 548.186 622.413, 558.186 622.321, 568.185 622.315, 568.937 622.223, 578.936 622.165, 585.323 622.073, 595.322 621.982, 605.322 621.891, 615.322 621.799, 625.321 621.786, 626.740 616.558, 635.265 611.331, 643.789 606.103, 652.314 600.875, 660.838 595.647, 669.363 590.419, 677.888 585.191, 686.412 579.964, 694.937 574.736, 703.462 569.508, 711.986 564.280, 720.511 559.052, 729.036 553.824, 737.560 548.596, 746.085 543.369, 754.610 538.141, 763.134 532.913, 771.659 527.685, 780.184 522.457, 788.708 517.229, 797.233 512.002, 805.758 506.774, 814.282 500.705, 824.177 495.478, 832.702 490.250, 841.227 485.022, 849.751 479.794, 858.276 479.551, 858.672 474.323, 867.196 469.096, 875.721 463.868, 884.246 459.083, 892.047 453.808, 900.648 " fill="none" stroke="rgb(0, 119, 0)" stroke-linecap="butt" stroke-linejoin="round" stroke-opacity="1.0" stroke-width="3.0" />
            <path d=" M 873.658, 658.750 868.026, 667.013 862.393, 675.276 856.760, 683.539 851.128, 691.801 845.495, 700.064 841.782, 705.511 836.149, 713.774 830.516, 722.037 824.884, 730.300 819.251, 738.562 813.618, 746.825 807.986, 755.088 802.353, 763.351 796.721, 771.613 791.088, 779.876 785.455, 788.139 779.823, 796.402 774.190, 804.665 768.557, 812.927 762.925, 821.190 757.292, 829.453 751.659, 837.716 746.027, 845.978 740.394, 854.241 734.762, 862.504 729.129, 870.767 724.610, 877.395 " fill="none" stroke="rgb(0, 119, 0)" stroke-linecap="butt" stroke-linejoin="round" stroke-opacity="1.0" stroke-width="3.0" />
            <path d=" M 741.649, 1036.264 740.583, 1026.322 739.516, 1016.379 738.450, 1006.436 737.383, 996.493 737.112, 993.964 736.046, 984.021 735.831, 982.021 734.765, 972.078 733.699, 962.135 732.632, 952.192 731.566, 942.249 730.998, 936.958 730.592, 933.169 729.526, 923.226 728.459, 913.283 727.393, 903.340 726.327, 893.397 725.260, 883.454 724.610, 877.395 715.669, 872.917 706.728, 868.439 697.786, 863.961 688.845, 859.483 679.904, 855.005 670.962, 850.527 662.021, 846.049 653.080, 841.571 644.139, 837.093 635.197, 832.615 626.256, 828.136 617.315, 823.658 608.373, 819.180 599.432, 814.702 590.491, 810.224 581.549, 805.746 572.608, 801.268 563.667, 796.790 554.725, 792.312 545.784, 787.834 536.843, 783.356 527.902, 778.878 518.960, 774.400 510.019, 769.922 501.078, 765.444 492.136, 760.966 481.076, 755.426 " fill="none" stroke="rgb(0, 119, 0)" stroke-linecap="butt" stroke-linejoin="round" stroke-opacity="1.0" stroke-width="3.0" />
            <path d=" M 286.883, 810.558 295.922, 814.835 304.961, 819.113 314.000, 823.390 323.039, 827.668 332.078, 831.945 341.117, 836.223 343.026, 837.126 352.065, 841.404 361.104, 845.681 370.143, 849.958 379.182, 854.236 388.221, 858.513 394.547, 861.507 402.553, 865.295 411.592, 869.573 420.631, 873.850 429.670, 878.128 438.709, 882.405 447.748, 886.682 455.722, 890.456 459.083, 892.047 468.122, 896.324 477.161, 900.602 486.200, 904.879 495.239, 909.157 504.278, 913.434 509.482, 915.897 518.521, 920.174 527.560, 924.451 536.599, 928.729 545.638, 933.006 554.677, 937.284 563.716, 941.561 572.755, 945.839 581.794, 950.116 590.833, 954.394 599.872, 958.671 608.911, 962.949 617.950, 967.226 626.989, 971.503 636.028, 975.781 645.003, 980.028 654.042, 984.306 663.081, 988.583 672.120, 992.861 681.159, 997.138 681.836, 997.458 684.972, 998.942 690.671, 990.725 696.370, 982.508 697.092, 981.468 702.791, 973.251 706.500, 967.904 712.200, 959.687 717.899, 951.470 723.598, 943.253 728.734, 935.849 730.592, 933.169 736.291, 924.952 738.263, 922.109 743.963, 913.892 749.662, 905.675 755.361, 897.458 761.061, 889.241 766.760, 881.025 772.459, 872.808 778.158, 864.591 783.858, 856.374 789.557, 848.157 795.256, 839.940 800.956, 831.723 806.655, 823.506 812.354, 815.289 818.054, 807.072 823.753, 798.855 829.452, 790.638 833.900, 784.225 839.599, 776.008 841.395, 773.419 844.906, 768.358 850.605, 760.141 855.660, 752.853 861.359, 744.636 867.058, 736.419 872.894, 728.006 875.643, 724.042 881.342, 715.826 887.042, 707.609 889.788, 703.649 895.488, 695.432 901.187, 687.215 906.886, 678.998 912.585, 670.781 918.285, 662.564 923.984, 654.347 929.683, 646.130 931.070, 644.130 932.207, 642.491 937.907, 634.274 940.952, 629.883 946.651, 621.666 952.351, 613.449 956.267, 607.803 961.966, 599.586 967.666, 591.369 973.365, 583.152 979.064, 574.935 984.763, 566.719 990.463, 558.502 996.162, 550.285 998.938, 546.283 993.494, 537.894 990.575, 533.396 985.132, 525.007 979.688, 516.619 974.245, 508.230 968.802, 499.841 963.358, 491.453 957.915, 483.064 952.471, 474.676 947.028, 466.287 941.584, 457.898 936.141, 449.510 930.698, 441.121 925.254, 432.732 919.811, 424.344 914.367, 415.955 908.924, 407.567 905.015, 401.542 896.502, 396.296 887.989, 391.049 879.476, 385.802 870.963, 380.555 862.450, 375.308 853.937, 370.062 845.424, 364.815 836.911, 359.568 828.398, 354.321 819.885, 349.074 811.372, 343.827 802.859, 338.581 794.346, 333.334 785.833, 328.087 777.320, 322.840 768.807, 317.593 760.294, 312.346 751.781, 307.100 743.268, 301.853 734.755, 296.606 726.242, 291.359 717.729, 286.112 709.216, 280.865 700.703, 275.619 694.359, 271.708 685.846, 266.461 677.333, 261.215 668.820, 255.968 660.307, 250.721 651.794, 245.474 643.281, 240.227 641.614, 239.200 633.101, 233.953 624.588, 228.706 624.338, 228.552 615.825, 223.305 607.312, 218.059 598.799, 212.812 593.617, 209.618 " fill="none" stroke="rgb(0, 119, 0)" stroke-linecap="butt" stroke-linejoin="round" stroke-opacity="1.0" stroke-width="3.0" />
            <path d=" M 905.015, 401.542 899.579, 409.936 894.143, 418.330 888.707, 426.723 883.272, 435.117 877.836, 443.510 872.400, 451.904 867.034, 460.190 861.598, 468.583 856.162, 476.977 850.727, 485.371 845.291, 493.764 839.855, 502.158 834.419, 510.552 828.983, 518.945 823.548, 527.339 818.112, 535.732 816.035, 538.939 810.599, 547.333 805.163, 555.726 799.728, 564.120 797.286, 567.890 791.850, 576.284 786.415, 584.677 780.979, 593.071 775.543, 601.464 774.443, 603.162 769.008, 611.556 763.572, 619.950 758.136, 628.343 752.700, 636.737 747.265, 645.130 743.126, 651.521 737.690, 659.914 732.255, 668.308 726.819, 676.701 721.383, 685.095 716.842, 692.107 711.406, 700.500 705.971, 708.894 700.535, 717.287 695.099, 725.681 689.663, 734.075 684.227, 742.468 678.792, 750.862 673.356, 759.255 671.727, 761.770 " fill="none" stroke="rgb(0, 119, 0)" stroke-linecap="butt" stroke-linejoin="round" stroke-opacity="1.0" stroke-width="3.0" />
            <path d=" M 684.972, 998.942 684.414, 988.958 683.857, 978.974 683.299, 968.989 682.741, 959.005 682.596, 956.398 682.038, 946.414 681.481, 936.429 680.923, 926.445 680.366, 916.461 680.119, 912.041 679.561, 902.056 679.004, 892.072 678.446, 882.087 677.888, 872.103 677.331, 862.118 676.773, 852.134 676.216, 842.149 675.658, 832.165 675.275, 825.310 674.718, 815.326 674.160, 805.341 673.603, 795.357 673.045, 785.373 672.488, 775.388 671.930, 765.404 671.727, 761.770 662.848, 757.170 653.970, 752.569 645.091, 747.968 636.212, 743.367 627.333, 738.766 618.455, 734.165 609.576, 729.565 600.697, 724.964 593.336, 721.149 584.457, 716.548 575.578, 711.947 566.699, 707.347 557.821, 702.746 548.942, 698.145 540.063, 693.544 531.185, 688.943 523.244, 684.828 514.365, 680.228 512.908, 679.472 504.029, 674.871 495.150, 670.271 486.271, 665.670 477.393, 661.069 468.514, 656.468 459.635, 651.867 450.756, 647.266 447.474, 645.566 438.596, 640.965 432.466, 637.789 423.587, 633.188 414.709, 628.587 405.830, 623.986 396.951, 619.385 388.072, 614.784 385.889, 613.653 377.011, 609.052 369.435, 605.127 360.557, 600.526 351.678, 595.925 342.799, 591.324 333.920, 586.724 325.042, 582.123 316.163, 577.522 307.284, 572.921 298.405, 568.320 289.527, 563.719 280.745, 559.169 " fill="none" stroke="rgb(0, 119, 0)" stroke-linecap="butt" stroke-linejoin="round" stroke-opacity="1.0" stroke-width="3.0" />
            <path d=" M 165.643, 753.184 170.745, 744.584 175.848, 735.983 180.950, 727.383 186.052, 718.783 191.155, 710.182 196.257, 701.582 201.359, 692.982 206.461, 684.381 211.564, 675.781 216.666, 667.180 221.768, 658.580 226.871, 649.980 231.973, 641.379 237.075, 632.779 242.177, 624.178 247.280, 615.578 252.382, 606.978 257.484, 598.377 262.587, 589.777 267.689, 581.177 272.791, 572.576 277.893, 563.976 280.745, 559.169 285.353, 550.294 289.961, 541.419 294.570, 532.544 299.178, 523.669 303.786, 514.794 308.394, 505.919 313.002, 497.044 317.610, 488.169 322.218, 479.294 326.826, 470.419 331.435, 461.544 336.043, 452.669 340.651, 443.794 345.259, 434.919 349.867, 426.044 354.475, 417.169 359.083, 408.294 363.691, 399.419 368.300, 390.544 372.908, 381.669 377.516, 372.794 382.124, 363.919 386.732, 355.044 391.340, 346.169 395.948, 337.294 400.556, 328.419 405.165, 319.545 409.773, 310.670 414.381, 301.795 418.989, 292.920 423.597, 284.045 428.205, 275.170 432.813, 266.295 437.421, 257.420 442.030, 248.545 446.638, 239.670 451.246, 230.795 455.854, 221.920 459.149, 215.573 463.758, 206.698 468.366, 197.823 472.974, 188.948 477.582, 180.073 482.190, 171.198 486.798, 162.323 491.406, 153.448 494.091, 148.277 " fill="none" stroke="rgb(0, 119, 0)" stroke-linecap="butt" stroke-linejoin="round" stroke-opacity="1.0" stroke-width="3.0" />
            <path d=" M 638.332, 691.345 647.174, 696.017 656.015, 700.689 664.856, 705.362 673.698, 710.034 682.539, 714.706 691.380, 719.379 700.222, 724.051 709.063, 728.723 717.904, 733.396 726.746, 738.068 734.039, 741.922 " fill="none" stroke="rgb(0, 119, 0)" stroke-linecap="butt" stroke-linejoin="round" stroke-opacity="1.0" stroke-width="3.0" />
            <path d=" M 734.039, 741.922 732.667, 732.017 732.443, 730.395 731.071, 720.490 729.700, 710.584 729.573, 709.666 729.123, 706.420 727.968, 698.075 719.156, 693.348 716.842, 692.107 708.030, 687.379 699.218, 682.652 690.406, 677.925 681.594, 673.197 672.782, 668.470 663.970, 663.743 655.158, 659.015 646.346, 654.288 637.717, 649.659 634.052, 655.563 628.778, 664.059 623.484, 672.585 618.210, 681.081 612.936, 689.577 607.661, 698.073 602.387, 706.569 597.113, 715.065 593.336, 721.149 588.061, 729.645 585.958, 733.034 585.408, 743.019 584.858, 753.004 584.308, 762.988 583.758, 772.973 583.436, 778.824 592.358, 783.341 601.280, 787.857 610.202, 792.373 619.124, 796.889 628.046, 801.405 636.969, 805.921 645.891, 810.437 654.813, 814.953 659.266, 817.207 668.189, 821.723 675.275, 825.310 678.047, 826.713 683.558, 818.369 689.068, 810.024 694.579, 801.679 700.089, 793.334 705.599, 784.990 711.110, 776.645 716.620, 768.300 722.131, 759.955 727.641, 751.610 733.151, 743.266 734.039, 741.922 " fill="none" stroke="rgb(0, 119, 0)" stroke-linecap="butt" stroke-linejoin="round" stroke-opacity="1.0" stroke-width="3.0" />
            <path d=" M 637.717, 649.659 637.865, 659.658 638.012, 669.657 638.160, 679.656 638.307, 689.655 638.332, 691.345 633.017, 699.815 627.701, 708.285 622.386, 716.756 617.071, 725.226 611.755, 733.696 606.440, 742.167 601.124, 750.637 595.809, 759.107 590.493, 767.578 585.178, 776.048 583.436, 778.824 " fill="none" stroke="rgb(0, 119, 0)" stroke-linecap="butt" stroke-linejoin="round" stroke-opacity="1.0" stroke-width="3.0" />
            <path d=" M 727.968, 698.075 722.509, 706.454 717.051, 714.833 711.593, 723.212 706.135, 731.591 700.676, 739.970 695.218, 748.349 689.760, 756.728 684.301, 765.107 678.843, 773.486 675.234, 779.027 " fill="none" stroke="rgb(0, 119, 0)" stroke-linecap="butt" stroke-linejoin="round" stroke-opacity="1.0" stroke-width="3.0" />
            <path d=" M 678.047, 826.713 677.458, 816.731 676.869, 806.748 676.280, 796.766 675.691, 786.783 675.234, 779.027 666.344, 774.447 657.454, 769.867 648.565, 765.288 639.675, 760.708 630.785, 756.128 621.896, 751.548 613.006, 746.969 604.117, 742.389 595.227, 737.809 585.958, 733.034 " fill="none" stroke="rgb(0, 119, 0)" stroke-linecap="butt" stroke-linejoin="round" stroke-opacity="1.0" stroke-width="3.0" />
            <path d=" M 544.583, 607.702 552.891, 612.146 561.708, 616.863 563.324, 617.727 572.141, 622.444 580.959, 627.161 589.776, 631.878 598.594, 636.595 607.412, 641.311 616.229, 646.028 625.047, 650.745 634.052, 655.563 642.870, 660.279 651.687, 664.996 660.505, 669.713 669.323, 674.430 678.140, 679.147 686.958, 683.864 695.775, 688.581 704.593, 693.298 713.411, 698.015 722.228, 702.732 729.123, 706.420 737.941, 711.137 746.758, 715.854 755.576, 720.571 764.394, 725.288 773.211, 730.005 782.029, 734.722 790.847, 739.439 799.664, 744.156 808.482, 748.873 817.299, 753.590 826.117, 758.307 834.935, 763.023 844.906, 768.358 853.724, 773.075 862.541, 777.791 871.359, 782.508 880.176, 787.225 882.427, 788.429 891.245, 793.146 900.062, 797.863 909.044, 802.668 917.862, 807.385 926.679, 812.102 935.497, 816.819 944.315, 821.536 953.132, 826.253 961.950, 830.970 970.768, 835.686 975.154, 838.033 983.971, 842.750 992.789, 847.467 1001.607, 852.184 1010.424, 856.901 1019.242, 861.617 1028.067, 866.338 1036.884, 871.055 1045.702, 875.772 1054.519, 880.489 1063.337, 885.206 1072.155, 889.923 1079.083, 893.629 " fill="none" stroke="rgb(0, 119, 0)" stroke-linecap="butt" stroke-linejoin="round" stroke-opacity="1.0" stroke-width="3.0" />
            <path d=" M 295.962, 1104.818 305.180, 1108.695 314.398, 1112.572 323.616, 1116.449 332.833, 1120.326 342.051, 1124.203 351.269, 1128.080 360.487, 1131.957 369.705, 1135.834 370.529, 1136.181 379.747, 1140.058 388.965, 1143.935 398.183, 1147.812 407.401, 1151.690 416.618, 1155.567 425.836, 1159.444 435.054, 1163.321 444.272, 1167.198 453.490, 1171.075 462.708, 1174.952 471.925, 1178.829 481.143, 1182.706 490.361, 1186.583 499.579, 1190.460 508.797, 1194.338 518.014, 1198.215 527.232, 1202.092 536.450, 1205.969 545.668, 1209.846 554.886, 1213.723 564.104, 1217.600 573.321, 1221.477 582.539, 1225.354 591.757, 1229.231 600.975, 1233.108 610.193, 1236.986 619.410, 1240.863 628.628, 1244.740 637.846, 1248.617 647.064, 1252.494 656.282, 1256.371 665.500, 1260.248 674.717, 1264.125 683.935, 1268.002 693.153, 1271.879 702.371, 1275.756 711.589, 1279.634 720.806, 1283.511 730.024, 1287.388 739.242, 1291.265 748.460, 1295.142 757.678, 1299.019 761.713, 1300.716 767.862, 1292.830 774.010, 1284.943 777.621, 1280.312 783.770, 1272.425 789.918, 1264.539 796.066, 1256.652 802.215, 1248.766 808.363, 1240.879 814.512, 1232.993 820.660, 1225.106 826.808, 1217.220 832.957, 1209.333 839.105, 1201.447 845.254, 1193.560 851.402, 1185.674 857.551, 1177.787 863.699, 1169.901 869.847, 1162.014 875.996, 1154.128 882.144, 1146.241 888.293, 1138.355 894.441, 1130.468 900.589, 1122.582 906.738, 1114.695 912.886, 1106.809 919.035, 1098.922 925.183, 1091.036 931.332, 1083.149 935.318, 1078.035 941.467, 1070.149 943.302, 1067.795 949.450, 1059.909 955.598, 1052.022 961.747, 1044.136 967.895, 1036.249 968.374, 1035.636 974.522, 1027.749 980.670, 1019.863 986.819, 1011.976 992.967, 1004.090 999.116, 996.203 1005.264, 988.316 1011.413, 980.430 1017.561, 972.543 1023.709, 964.657 1029.858, 956.770 1036.006, 948.884 1042.155, 940.997 1048.303, 933.111 1054.451, 925.224 1060.600, 917.338 1066.748, 909.451 1072.897, 901.565 1079.083, 893.629 1074.677, 884.653 1070.270, 875.676 1065.863, 866.699 1061.456, 857.723 1057.049, 848.746 1052.643, 839.769 1050.927, 836.274 1046.520, 827.298 1042.113, 818.321 1040.682, 815.406 1039.982, 813.979 1035.575, 805.002 1031.168, 796.026 1026.761, 787.049 1022.354, 778.073 1017.948, 769.096 1013.541, 760.119 1009.134, 751.143 1004.727, 742.166 1000.320, 733.189 995.914, 724.213 991.507, 715.236 987.100, 706.259 982.693, 697.283 978.287, 688.306 973.880, 679.329 969.473, 670.353 968.012, 667.377 966.516, 664.330 964.149, 662.981 955.461, 658.029 946.773, 653.078 938.084, 648.127 933.615, 645.580 931.070, 644.130 922.382, 639.179 918.985, 637.243 910.297, 632.292 901.609, 627.341 892.921, 622.390 890.631, 621.084 881.942, 616.133 873.254, 611.182 864.566, 606.231 855.878, 601.280 847.189, 596.328 838.501, 591.377 829.813, 586.426 821.125, 581.475 815.482, 578.259 806.794, 573.308 798.106, 568.357 797.286, 567.890 788.598, 562.939 779.910, 557.987 771.222, 553.036 762.533, 548.085 753.845, 543.134 749.299, 540.543 740.610, 535.592 731.922, 530.641 724.884, 526.630 716.196, 521.678 707.507, 516.727 698.819, 511.776 690.131, 506.825 681.443, 501.874 672.754, 496.922 664.066, 491.971 655.378, 487.020 646.690, 482.069 638.001, 477.117 630.716, 472.965 622.027, 468.014 614.918, 463.963 606.229, 459.011 597.541, 454.060 590.826, 450.234 582.138, 445.282 573.450, 440.331 567.037, 436.677 562.070, 445.356 557.102, 454.035 552.135, 462.714 547.167, 471.392 542.199, 480.071 537.232, 488.750 532.264, 497.429 527.297, 506.108 522.329, 514.787 517.362, 523.466 512.842, 531.361 507.875, 540.040 502.907, 548.719 497.940, 557.398 492.972, 566.077 490.416, 570.543 485.448, 579.222 480.481, 587.900 476.612, 594.659 471.645, 603.338 466.677, 612.017 461.709, 620.696 456.742, 629.375 451.774, 638.054 447.474, 645.566 442.507, 654.245 437.539, 662.923 432.572, 671.602 427.604, 680.281 422.636, 688.960 417.669, 697.639 412.701, 706.318 411.870, 707.770 406.902, 716.449 403.164, 722.981 398.196, 731.660 393.228, 740.339 388.261, 749.018 383.293, 757.697 379.278, 764.711 374.311, 773.390 369.343, 782.069 368.792, 783.032 363.824, 791.711 358.857, 800.390 353.889, 809.069 350.100, 815.688 346.967, 825.184 343.833, 834.681 343.026, 837.126 339.893, 846.622 336.759, 856.119 333.626, 865.615 330.492, 875.112 327.359, 884.608 324.225, 894.104 321.092, 903.601 317.958, 913.097 314.824, 922.593 311.691, 932.090 308.557, 941.586 305.424, 951.082 302.290, 960.579 300.487, 966.043 297.354, 975.540 294.220, 985.036 291.086, 994.533 287.953, 1004.029 284.819, 1013.525 281.686, 1023.022 278.552, 1032.518 276.576, 1038.508 " fill="none" stroke="rgb(0, 119, 0)" stroke-linecap="butt" stroke-linejoin="round" stroke-opacity="1.0" stroke-width="3.0" />
            <path d=" M 567.037, 436.677 565.736, 446.592 564.434, 456.507 563.132, 466.422 561.830, 476.337 560.529, 486.252 559.227, 496.166 557.925, 506.081 556.623, 515.996 555.322, 525.911 554.020, 535.826 552.718, 545.741 551.416, 555.656 550.115, 565.571 548.813, 575.486 547.511, 585.401 546.209, 595.315 544.908, 605.230 544.583, 607.702 539.494, 616.310 534.405, 624.918 529.317, 633.527 524.228, 642.135 519.139, 650.744 514.050, 659.352 508.961, 667.960 503.873, 676.569 498.784, 685.177 493.695, 693.785 488.606, 702.394 483.517, 711.002 478.429, 719.610 473.340, 728.219 468.251, 736.827 463.162, 745.436 458.073, 754.044 452.984, 762.652 447.896, 771.261 442.807, 779.869 437.718, 788.477 435.493, 792.241 430.404, 800.850 425.315, 809.458 420.227, 818.066 415.138, 826.675 414.680, 827.449 409.591, 836.057 404.503, 844.666 399.414, 853.274 394.547, 861.507 389.458, 870.115 384.369, 878.724 379.281, 887.332 374.192, 895.940 369.103, 904.549 364.014, 913.157 358.925, 921.765 353.837, 930.374 348.748, 938.982 343.659, 947.590 338.570, 956.199 333.481, 964.807 328.392, 973.416 326.017, 977.434 320.928, 986.042 315.839, 994.651 310.751, 1003.259 305.662, 1011.867 300.573, 1020.476 295.484, 1029.084 290.395, 1037.692 287.205, 1043.090 " fill="none" stroke="rgb(0, 119, 0)" stroke-linecap="butt" stroke-linejoin="round" stroke-opacity="1.0" stroke-width="3.0" />
            <path d=" M 966.516, 664.330 960.748, 672.499 954.980, 680.667 951.711, 685.298 945.943, 693.466 940.175, 701.635 934.407, 709.804 928.639, 717.973 922.871, 726.142 917.103, 734.311 911.336, 742.480 910.777, 743.270 906.301, 749.611 900.533, 757.780 894.765, 765.948 888.997, 774.117 883.229, 782.286 877.461, 790.455 871.693, 798.624 865.925, 806.793 860.157, 814.962 854.389, 823.131 848.621, 831.300 842.853, 839.469 837.085, 847.638 831.317, 855.806 825.549, 863.975 819.782, 872.144 814.014, 880.313 808.246, 888.482 802.478, 896.651 796.710, 904.820 790.942, 912.989 785.174, 921.158 779.406, 929.326 773.638, 937.495 767.870, 945.664 762.964, 952.612 757.196, 960.781 751.429, 968.950 745.661, 977.119 740.584, 984.308 734.816, 992.477 731.113, 997.722 " fill="none" stroke="rgb(0, 119, 0)" stroke-linecap="butt" stroke-linejoin="round" stroke-opacity="1.0" stroke-width="3.0" />
            <path d=" M 761.713, 1300.716 760.709, 1290.767 759.704, 1280.818 758.699, 1270.868 757.694, 1260.919 756.689, 1250.970 755.684, 1241.020 754.680, 1231.071 753.675, 1221.121 752.670, 1211.172 751.665, 1201.223 750.660, 1191.273 749.655, 1181.324 748.651, 1171.374 747.646, 1161.425 746.641, 1151.476 746.201, 1147.120 745.196, 1137.170 744.191, 1127.221 743.187, 1117.272 742.182, 1107.322 741.177, 1097.373 740.172, 1087.423 739.167, 1077.474 738.162, 1067.525 737.158, 1057.575 736.153, 1047.626 735.148, 1037.676 734.673, 1032.978 733.669, 1023.029 732.664, 1013.079 731.659, 1003.130 731.531, 1001.859 731.113, 997.722 722.090, 993.411 713.067, 989.100 704.044, 984.789 697.092, 981.468 688.069, 977.157 679.046, 972.846 670.023, 968.536 661.000, 964.225 651.976, 959.914 642.953, 955.603 633.930, 951.292 624.907, 946.981 615.884, 942.670 606.861, 938.359 597.838, 934.048 588.815, 929.737 579.792, 925.426 570.769, 921.115 561.746, 916.805 552.723, 912.494 543.699, 908.183 534.676, 903.872 525.653, 899.561 516.630, 895.250 507.607, 890.939 498.584, 886.628 489.561, 882.317 480.538, 878.006 471.515, 873.695 462.492, 869.385 459.910, 868.151 450.887, 863.840 441.864, 859.529 432.841, 855.218 423.818, 850.908 414.795, 846.597 413.909, 846.173 404.886, 841.862 395.863, 837.551 386.839, 833.241 377.816, 828.930 368.793, 824.619 359.770, 820.308 350.747, 815.997 350.100, 815.688 " fill="none" stroke="rgb(0, 119, 0)" stroke-linecap="butt" stroke-linejoin="round" stroke-opacity="1.0" stroke-width="3.0" />
            <path d=" M 654.714, 432.476 663.363, 437.495 672.012, 442.515 680.661, 447.535 689.310, 452.554 697.958, 457.574 706.607, 462.594 715.256, 467.614 723.905, 472.633 732.554, 477.653 741.203, 482.673 749.852, 487.692 758.500, 492.712 767.149, 497.732 773.872, 501.633 " fill="none" stroke="rgb(0, 119, 0)" stroke-linecap="butt" stroke-linejoin="round" stroke-opacity="1.0" stroke-width="3.0" />
            <path d=" M 773.872, 501.633 771.201, 491.996 768.531, 482.359 765.861, 472.722 763.594, 464.538 754.968, 459.479 746.342, 454.420 737.717, 449.360 729.091, 444.301 720.465, 439.241 711.840, 434.182 703.214, 429.122 694.588, 424.063 685.963, 419.003 677.337, 413.944 668.711, 408.884 660.086, 403.825 652.776, 399.537 647.709, 408.159 642.643, 416.781 637.577, 425.402 633.005, 433.182 627.939, 441.803 624.238, 448.102 619.171, 456.724 614.918, 463.963 609.851, 472.584 604.785, 481.206 599.719, 489.827 594.652, 498.449 589.586, 507.071 588.700, 508.579 587.971, 518.552 587.242, 528.526 586.513, 538.499 585.759, 548.815 594.520, 553.637 599.851, 556.572 608.612, 561.394 617.372, 566.216 622.315, 568.937 631.075, 573.759 639.836, 578.581 648.596, 583.403 657.357, 588.225 666.117, 593.047 674.878, 597.869 683.638, 602.692 692.399, 607.514 701.159, 612.336 703.237, 613.479 708.577, 605.024 713.916, 596.569 719.256, 588.114 724.596, 579.659 726.660, 576.390 732.000, 567.935 737.339, 559.480 742.679, 551.025 748.019, 542.570 749.299, 540.543 754.638, 532.088 758.876, 525.379 764.215, 516.924 767.883, 511.116 773.222, 502.661 773.872, 501.633 " fill="none" stroke="rgb(0, 119, 0)" stroke-linecap="butt" stroke-linejoin="round" stroke-opacity="1.0" stroke-width="3.0" />
            <path d=" M 652.776, 399.537 653.363, 409.520 653.951, 419.503 654.538, 429.485 654.714, 432.476 649.615, 441.078 648.864, 442.345 643.766, 450.948 638.667, 459.550 633.568, 468.153 630.716, 472.965 625.617, 481.568 620.518, 490.170 615.419, 498.773 610.320, 507.375 605.222, 515.978 600.123, 524.580 595.024, 533.183 589.925, 541.785 585.759, 548.815 " fill="none" stroke="rgb(0, 119, 0)" stroke-linecap="butt" stroke-linejoin="round" stroke-opacity="1.0" stroke-width="3.0" />
            <path d=" M 763.594, 464.538 758.303, 473.024 753.013, 481.510 747.722, 489.996 743.382, 496.959 738.091, 505.445 732.801, 513.931 727.510, 522.417 724.884, 526.630 719.593, 535.116 714.303, 543.602 709.013, 552.087 703.722, 560.573 702.352, 562.771 698.061, 569.653 " fill="none" stroke="rgb(0, 119, 0)" stroke-linecap="butt" stroke-linejoin="round" stroke-opacity="1.0" stroke-width="3.0" />
            <path d=" M 703.237, 613.479 702.064, 603.549 700.891, 593.617 699.719, 583.687 698.546, 573.756 698.061, 569.653 689.331, 564.777 680.600, 559.902 671.869, 555.026 663.138, 550.150 654.407, 545.274 645.677, 540.398 636.946, 535.523 628.215, 530.647 619.484, 525.771 618.558, 525.254 609.827, 520.378 601.096, 515.502 592.365, 510.626 588.700, 508.579 " fill="none" stroke="rgb(0, 119, 0)" stroke-linecap="butt" stroke-linejoin="round" stroke-opacity="1.0" stroke-width="3.0" />
            <path d=" M 1113.178, 355.549 1107.503, 363.782 1101.827, 372.016 1099.393, 375.547 1093.717, 383.780 1088.041, 392.013 1082.365, 400.246 1076.690, 408.479 1071.014, 416.713 1065.338, 424.946 1059.662, 433.179 1053.987, 441.412 1048.311, 449.646 1042.635, 457.879 1036.959, 466.112 1031.283, 474.345 1025.608, 482.578 1019.932, 490.812 1014.256, 499.045 1008.580, 507.278 1002.905, 515.511 997.229, 523.744 990.575, 533.396 984.899, 541.629 979.224, 549.862 973.548, 558.096 967.872, 566.329 962.196, 574.562 956.521, 582.795 950.845, 591.028 948.975, 593.741 943.299, 601.974 937.623, 610.207 931.948, 618.440 926.272, 626.674 925.507, 627.784 919.831, 636.017 918.985, 637.243 913.310, 645.476 907.634, 653.710 901.958, 661.943 896.282, 670.176 890.607, 678.409 884.931, 686.642 884.108, 687.836 878.432, 696.070 872.756, 704.303 867.080, 712.536 863.667, 717.488 857.991, 725.721 852.315, 733.955 846.639, 742.188 840.963, 750.421 836.845, 756.396 " fill="none" stroke="rgb(0, 119, 0)" stroke-linecap="butt" stroke-linejoin="round" stroke-opacity="1.0" stroke-width="3.0" />
            <path d=" M 908.333, 1023.803 905.750, 1014.142 903.167, 1004.481 900.585, 994.820 898.002, 985.160 895.419, 975.499 892.837, 965.838 890.254, 956.177 889.561, 953.584 886.978, 943.923 884.395, 934.262 881.812, 924.602 879.230, 914.941 876.647, 905.280 874.064, 895.619 871.482, 885.959 868.899, 876.298 866.316, 866.637 865.471, 863.474 862.888, 853.813 860.305, 844.152 857.723, 834.492 855.565, 826.423 852.983, 816.762 850.400, 807.101 847.817, 797.440 845.235, 787.780 842.652, 778.119 841.395, 773.419 838.813, 763.758 836.845, 756.396 828.033, 751.668 819.221, 746.941 810.409, 742.213 801.597, 737.486 792.785, 732.758 783.973, 728.031 775.161, 723.303 766.349, 718.576 757.537, 713.848 748.725, 709.121 739.913, 704.393 731.101, 699.666 722.289, 694.939 713.477, 690.211 704.665, 685.484 695.853, 680.756 687.041, 676.029 678.229, 671.301 669.417, 666.574 660.605, 661.846 651.793, 657.119 642.981, 652.391 634.169, 647.664 625.357, 642.936 616.545, 638.209 607.733, 633.481 598.921, 628.754 590.109, 624.026 581.297, 619.299 572.485, 614.571 566.974, 611.615 558.162, 606.887 556.533, 606.013 547.721, 601.286 538.909, 596.558 530.097, 591.831 521.285, 587.103 512.473, 582.376 503.661, 577.648 494.849, 572.921 490.416, 570.543 481.604, 565.815 472.792, 561.088 463.980, 556.360 463.119, 555.898 454.307, 551.171 445.495, 546.443 436.683, 541.716 427.871, 536.988 419.059, 532.261 417.079, 531.199 " fill="none" stroke="rgb(0, 119, 0)" stroke-linecap="butt" stroke-linejoin="round" stroke-opacity="1.0" stroke-width="3.0" />
            <path d=" M 593.617, 209.618 588.805, 218.384 583.993, 227.150 579.180, 235.916 574.368, 244.682 569.556, 253.448 564.744, 262.214 559.931, 270.980 557.852, 274.767 554.700, 280.509 549.888, 289.275 545.075, 298.041 540.263, 306.807 535.451, 315.573 530.639, 324.339 525.826, 333.105 521.014, 341.871 516.202, 350.637 511.390, 359.403 509.928, 362.066 505.116, 370.832 501.401, 377.599 496.589, 386.365 493.675, 391.671 488.863, 400.437 484.051, 409.203 479.239, 417.969 474.426, 426.735 469.614, 435.501 464.802, 444.267 459.990, 453.033 455.177, 461.799 450.365, 470.565 445.553, 479.331 440.741, 488.097 435.928, 496.863 431.116, 505.629 426.304, 514.395 421.492, 523.161 417.079, 531.199 413.541, 540.552 410.003, 549.905 406.465, 559.258 402.927, 568.612 399.389, 577.965 395.851, 587.318 392.313, 596.671 388.775, 606.024 385.889, 613.653 382.351, 623.006 378.813, 632.360 375.275, 641.713 371.737, 651.066 368.199, 660.419 364.661, 669.772 363.883, 671.830 360.345, 681.183 356.807, 690.536 353.853, 698.345 350.315, 707.699 346.777, 717.052 343.239, 726.405 339.701, 735.758 336.647, 743.834 345.627, 748.232 354.608, 752.630 363.589, 757.028 372.570, 761.426 379.278, 764.711 388.259, 769.110 393.117, 771.489 401.998, 775.838 410.979, 780.236 419.960, 784.634 428.941, 789.032 435.493, 792.241 443.584, 796.204 452.565, 800.602 461.546, 805.000 470.527, 809.398 470.907, 809.584 479.888, 813.982 488.869, 818.381 497.850, 822.779 500.705, 824.177 509.686, 828.575 518.667, 832.974 527.648, 837.372 536.629, 841.770 545.610, 846.168 551.612, 849.107 560.592, 853.505 569.573, 857.904 578.554, 862.302 587.535, 866.700 596.516, 871.098 605.497, 875.496 614.478, 879.894 623.459, 884.293 632.439, 888.691 641.420, 893.089 643.529, 894.122 652.510, 898.520 661.491, 902.918 670.472, 907.316 679.453, 911.714 680.119, 912.041 689.100, 916.439 689.725, 916.745 698.706, 921.143 707.687, 925.541 716.667, 929.939 725.648, 934.337 728.734, 935.849 730.998, 936.958 739.979, 941.356 748.960, 945.754 757.941, 950.152 762.964, 952.612 765.478, 953.843 774.459, 958.241 783.440, 962.640 791.559, 966.616 800.540, 971.014 809.521, 975.412 818.502, 979.810 827.483, 984.208 836.464, 988.607 845.445, 993.005 854.425, 997.403 856.390, 998.365 865.370, 1002.763 874.351, 1007.161 883.332, 1011.559 890.302, 1014.973 899.283, 1019.371 908.333, 1023.803 914.386, 1015.842 918.169, 1010.867 924.222, 1002.907 924.479, 1002.568 930.532, 994.608 936.585, 986.648 942.638, 978.688 948.690, 970.727 954.743, 962.767 960.796, 954.807 966.849, 946.847 972.902, 938.887 978.954, 930.927 985.007, 922.967 991.060, 915.006 997.113, 907.046 1003.166, 899.086 1009.218, 891.126 1015.271, 883.166 1021.324, 875.206 1028.067, 866.338 1034.119, 858.378 1040.172, 850.418 1046.225, 842.458 1050.927, 836.274 1051.499, 835.521 1057.552, 827.561 1063.605, 819.601 1069.658, 811.641 1075.711, 803.681 1081.763, 795.720 1087.816, 787.760 1093.869, 779.800 1099.922, 771.840 1105.974, 763.880 1112.027, 755.920 1118.080, 747.960 1124.133, 740.000 1130.186, 732.039 1136.238, 724.079 1142.291, 716.119 1148.344, 708.159 1154.397, 700.199 1160.449, 692.239 1166.502, 684.279 1172.555, 676.318 1178.608, 668.358 1184.661, 660.398 1190.713, 652.438 1196.766, 644.478 1202.819, 636.518 1208.872, 628.557 1214.924, 620.597 1220.977, 612.637 1227.030, 604.677 1233.083, 596.717 1239.136, 588.757 1245.188, 580.797 1251.241, 572.837 1257.294, 564.876 1263.347, 556.916 1269.400, 548.956 1275.452, 540.996 1282.286, 532.008 1288.229, 524.192 " fill="none" stroke="rgb(0, 119, 0)" stroke-linecap="butt" stroke-linejoin="round" stroke-opacity="1.0" stroke-width="3.0" />
            <path d=" M 1288.229, 524.192 1280.545, 517.794 1272.860, 511.395 1265.175, 504.996 1257.490, 498.598 1249.805, 492.199 1242.120, 485.801 1234.435, 479.402 1226.750, 473.003 1219.066, 466.605 1211.381, 460.206 1203.696, 453.807 1196.011, 447.409 1188.326, 441.010 1180.641, 434.612 1172.956, 428.213 1165.271, 421.814 1157.586, 415.416 1149.901, 409.017 1145.715, 405.531 1137.320, 400.097 1128.925, 394.663 1120.530, 389.229 1112.136, 383.795 1103.741, 378.361 1099.393, 375.547 1090.998, 370.113 1082.603, 364.679 1074.208, 359.245 1065.814, 353.811 1057.419, 348.377 1049.024, 342.943 1040.629, 337.509 1032.234, 332.075 1023.840, 326.641 1015.445, 321.207 1007.050, 315.773 998.655, 310.339 990.261, 304.905 981.866, 299.471 973.471, 294.037 965.076, 288.603 956.682, 283.169 948.287, 277.735 939.892, 272.302 931.497, 266.868 923.103, 261.434 914.708, 256.000 906.313, 250.566 897.918, 245.132 889.523, 239.698 881.129, 234.264 872.734, 228.830 864.339, 223.396 855.944, 217.962 847.550, 212.528 839.155, 207.094 830.760, 201.660 822.365, 196.226 813.971, 190.792 805.576, 185.358 797.181, 179.924 788.786, 174.490 780.391, 169.056 771.997, 163.623 763.602, 158.189 755.207, 152.755 746.812, 147.321 738.418, 141.887 730.023, 136.453 721.628, 131.019 713.233, 125.585 707.676, 121.987 702.766, 130.699 697.856, 139.411 692.946, 148.122 688.036, 156.834 683.126, 165.546 678.216, 174.257 673.306, 182.969 668.396, 191.680 663.486, 200.392 658.576, 209.104 653.666, 217.815 648.756, 226.527 643.846, 235.238 641.614, 239.200 636.704, 247.911 631.794, 256.623 626.884, 265.335 621.974, 274.046 617.064, 282.758 612.154, 291.469 607.244, 300.181 605.472, 303.325 602.286, 308.978 597.376, 317.690 592.466, 326.402 587.556, 335.113 582.646, 343.825 577.736, 352.536 572.826, 361.248 567.916, 369.960 563.006, 378.671 558.096, 387.383 557.027, 389.280 552.117, 397.992 548.405, 404.577 543.495, 413.289 538.585, 422.000 533.675, 430.712 528.765, 439.423 523.855, 448.135 518.945, 456.847 514.035, 465.558 509.125, 474.270 504.215, 482.982 499.305, 491.693 494.395, 500.405 489.486, 509.116 485.396, 516.371 480.487, 525.083 475.577, 533.795 470.667, 542.506 465.757, 551.218 463.119, 555.898 458.209, 564.610 453.299, 573.321 449.408, 580.225 446.584, 589.818 443.761, 599.412 440.938, 609.005 438.114, 618.598 435.291, 628.191 432.466, 637.789 429.643, 647.382 426.820, 656.975 423.996, 666.568 421.173, 676.161 418.349, 685.754 415.526, 695.348 412.703, 704.941 411.870, 707.770 409.047, 717.364 406.851, 724.824 404.028, 734.417 401.204, 744.010 398.381, 753.603 395.558, 763.196 393.117, 771.489 390.294, 781.082 387.470, 790.675 387.103, 791.921 384.280, 801.514 381.457, 811.107 381.366, 811.415 390.377, 815.752 399.388, 820.089 408.398, 824.425 414.680, 827.449 422.728, 831.322 431.739, 835.659 440.749, 839.996 449.760, 844.333 458.771, 848.670 463.170, 850.788 472.181, 855.124 479.551, 858.672 488.562, 863.009 497.572, 867.345 506.583, 871.682 515.594, 876.019 524.604, 880.356 530.201, 883.050 539.212, 887.387 548.222, 891.724 557.233, 896.060 566.244, 900.397 575.254, 904.734 584.265, 909.071 593.276, 913.408 602.286, 917.745 611.297, 922.082 620.307, 926.419 629.318, 930.755 638.329, 935.092 644.281, 937.957 653.292, 942.294 662.303, 946.631 671.313, 950.968 679.589, 954.951 682.596, 956.398 691.607, 960.735 700.617, 965.072 706.500, 967.904 715.511, 972.240 724.522, 976.577 733.532, 980.914 735.831, 982.021 740.584, 984.308 743.087, 985.513 752.098, 989.850 761.109, 994.187 769.060, 998.014 778.070, 1002.351 787.081, 1006.687 796.091, 1011.024 805.102, 1015.361 814.113, 1019.698 823.123, 1024.035 832.134, 1028.372 833.629, 1029.091 842.640, 1033.428 851.650, 1037.765 860.661, 1042.102 867.411, 1045.351 876.422, 1049.688 885.432, 1054.025 894.443, 1058.361 903.454, 1062.698 912.464, 1067.035 921.475, 1071.372 930.485, 1075.709 935.318, 1078.035 944.329, 1082.372 948.020, 1084.149 954.193, 1076.281 960.365, 1068.413 966.538, 1060.546 972.711, 1052.678 978.883, 1044.810 981.140, 1041.934 987.312, 1034.066 993.485, 1026.198 999.657, 1018.331 1005.830, 1010.463 1012.002, 1002.595 1018.175, 994.728 1024.347, 986.860 1030.520, 978.993 1036.692, 971.125 1042.865, 963.257 1049.037, 955.390 1055.210, 947.522 1061.382, 939.654 1067.555, 931.787 1073.728, 923.919 1079.900, 916.051 1086.796, 907.261 " fill="none" stroke="rgb(0, 119, 0)" stroke-linecap="butt" stroke-linejoin="round" stroke-opacity="1.0" stroke-width="3.0" />
            <path d=" M 707.676, 121.987 712.434, 130.783 717.193, 139.578 721.952, 148.373 726.710, 157.168 731.469, 165.964 736.227, 174.759 740.986, 183.554 743.156, 187.565 " fill="none" stroke="rgb(0, 119, 0)" stroke-linecap="butt" stroke-linejoin="round" stroke-opacity="1.0" stroke-width="3.0" />
            <path d=" M 1145.715, 405.531 1139.951, 413.703 1134.188, 421.875 1128.425, 430.047 1122.661, 438.219 1116.898, 446.392 1111.134, 454.564 1105.371, 462.736 1099.608, 470.908 1093.844, 479.080 1088.081, 487.252 1082.318, 495.424 1076.554, 503.596 1070.791, 511.769 1065.027, 519.941 1059.264, 528.113 1053.501, 536.285 1047.737, 544.457 1041.974, 552.629 1036.211, 560.801 1030.447, 568.974 1024.684, 577.146 1018.921, 585.318 1013.157, 593.490 1007.394, 601.662 1001.630, 609.834 995.867, 618.006 990.104, 626.178 984.340, 634.350 978.577, 642.523 976.095, 646.042 970.332, 654.214 964.568, 662.386 964.149, 662.981 958.386, 671.153 952.622, 679.325 950.415, 682.454 944.652, 690.626 938.889, 698.798 933.125, 706.970 927.362, 715.143 921.599, 723.315 915.835, 731.487 910.072, 739.659 908.431, 741.986 905.205, 746.560 899.441, 754.732 893.678, 762.905 887.915, 771.077 882.151, 779.249 876.388, 787.421 870.625, 795.593 866.459, 801.500 " fill="none" stroke="rgb(0, 119, 0)" stroke-linecap="butt" stroke-linejoin="round" stroke-opacity="1.0" stroke-width="3.0" />
            <path d=" M 948.020, 1084.149 945.248, 1074.541 943.302, 1067.795 940.529, 1058.187 937.757, 1048.579 934.984, 1038.971 932.212, 1029.363 929.439, 1019.755 926.667, 1010.147 924.479, 1002.568 921.707, 992.960 918.934, 983.352 916.162, 973.744 913.389, 964.136 910.617, 954.528 907.844, 944.920 905.072, 935.312 904.518, 933.392 901.745, 923.784 898.973, 914.176 896.200, 904.568 893.428, 894.960 890.655, 885.352 887.883, 875.744 885.110, 866.136 882.338, 856.528 879.565, 846.920 878.924, 844.699 876.152, 835.091 873.380, 825.483 870.607, 815.875 868.409, 808.257 866.459, 801.500 857.625, 796.813 848.792, 792.126 839.958, 787.439 833.900, 784.225 825.067, 779.538 816.233, 774.852 807.399, 770.165 798.566, 765.478 789.732, 760.791 780.898, 756.104 772.065, 751.417 763.231, 746.730 754.397, 742.043 745.564, 737.357 736.730, 732.670 732.443, 730.395 723.609, 725.708 714.775, 721.021 705.942, 716.334 697.108, 711.648 688.274, 706.961 679.441, 702.274 670.607, 697.587 661.773, 692.900 652.940, 688.213 644.106, 683.526 635.273, 678.839 626.439, 674.153 623.484, 672.585 614.651, 667.898 605.817, 663.211 596.983, 658.524 588.150, 653.838 579.316, 649.151 570.483, 644.464 561.649, 639.777 552.919, 635.145 544.086, 630.459 542.511, 629.623 533.678, 624.936 524.844, 620.250 516.010, 615.563 507.177, 610.876 498.343, 606.189 489.510, 601.502 480.676, 596.815 476.612, 594.659 467.779, 589.972 458.945, 585.285 450.111, 580.599 449.408, 580.225 " fill="none" stroke="rgb(0, 119, 0)" stroke-linecap="butt" stroke-linejoin="round" stroke-opacity="1.0" stroke-width="3.0" />
            <path d=" M 588.330, 293.045 583.455, 301.777 578.581, 310.508 573.706, 319.239 568.831, 327.970 563.956, 336.702 559.081, 345.433 554.206, 354.164 549.331, 362.896 544.457, 371.627 540.071, 379.483 535.196, 388.214 530.321, 396.945 525.446, 405.677 520.571, 414.408 515.696, 423.139 510.821, 431.871 505.947, 440.602 501.072, 449.333 496.197, 458.064 491.322, 466.796 486.447, 475.527 481.572, 484.258 476.697, 492.990 471.823, 501.721 466.948, 510.452 462.073, 519.184 457.198, 527.915 452.323, 536.646 447.448, 545.378 442.573, 554.109 437.699, 562.840 432.824, 571.572 427.949, 580.303 423.074, 589.034 418.199, 597.765 413.324, 606.497 408.449, 615.228 403.575, 623.959 398.700, 632.691 393.825, 641.422 388.950, 650.153 384.075, 658.885 379.200, 667.616 374.326, 676.347 369.451, 685.079 364.576, 693.810 359.701, 702.541 354.826, 711.272 349.951, 720.004 345.076, 728.735 340.202, 737.466 336.647, 743.834 " fill="none" stroke="rgb(0, 119, 0)" stroke-linecap="butt" stroke-linejoin="round" stroke-opacity="1.0" stroke-width="3.0" />
            <path d=" M 590.826, 450.234 585.810, 458.884 580.793, 467.535 575.776, 476.185 570.759, 484.836 565.743, 493.487 560.726, 502.137 555.709, 510.788 550.692, 519.438 545.676, 528.089 540.659, 536.739 535.642, 545.390 530.625, 554.041 525.609, 562.691 520.592, 571.342 515.575, 579.992 510.559, 588.643 505.542, 597.293 500.525, 605.944 495.508, 614.595 490.492, 623.245 485.475, 631.896 480.458, 640.546 475.441, 649.197 470.425, 657.847 465.408, 666.498 460.391, 675.148 455.375, 683.799 450.358, 692.450 445.341, 701.100 440.324, 709.751 435.308, 718.401 430.291, 727.052 425.274, 735.703 420.257, 744.353 415.241, 753.004 410.224, 761.654 405.207, 770.305 401.998, 775.838 396.982, 784.489 391.965, 793.139 386.948, 801.790 381.931, 810.440 381.366, 811.415 " fill="none" stroke="rgb(0, 119, 0)" stroke-linecap="butt" stroke-linejoin="round" stroke-opacity="1.0" stroke-width="3.0" />
            <path d=" M 391.718, 314.645 400.391, 319.623 409.064, 324.601 417.737, 329.579 426.410, 334.557 435.083, 339.535 443.756, 344.513 452.429, 349.490 461.102, 354.468 469.775, 359.446 478.448, 364.424 487.121, 369.402 495.725, 374.341 501.401, 377.599 510.074, 382.576 518.747, 387.554 527.420, 392.532 536.093, 397.510 544.766, 402.488 548.405, 404.577 557.078, 409.555 565.751, 414.533 574.424, 419.511 583.097, 424.489 591.770, 429.467 600.443, 434.445 609.116, 439.422 617.789, 444.401 624.238, 448.102 632.911, 453.080 641.584, 458.058 650.257, 463.036 658.930, 468.014 667.603, 472.992 676.276, 477.969 684.948, 482.947 693.621, 487.925 702.294, 492.903 710.967, 497.881 719.640, 502.859 728.313, 507.837 736.986, 512.815 745.659, 517.793 754.332, 522.771 758.876, 525.379 767.549, 530.357 776.221, 535.334 784.894, 540.312 793.567, 545.290 802.240, 550.268 810.913, 555.246 819.586, 560.224 828.259, 565.202 836.932, 570.180 845.605, 575.158 854.278, 580.136 862.951, 585.114 871.624, 590.092 880.297, 595.070 888.970, 600.047 897.643, 605.025 906.316, 610.003 914.989, 614.981 921.332, 618.622 930.005, 623.600 938.678, 628.578 940.952, 629.883 949.625, 634.861 958.298, 639.839 966.971, 644.817 975.644, 649.795 979.057, 651.754 " fill="none" stroke="rgb(0, 119, 0)" stroke-linecap="butt" stroke-linejoin="round" stroke-opacity="1.0" stroke-width="3.0" />
            <path d=" M 602.286, 308.978 610.867, 314.112 619.449, 319.246 628.030, 324.380 636.612, 329.515 645.193, 334.649 653.774, 339.783 662.356, 344.917 670.937, 350.051 679.519, 355.185 688.100, 360.319 696.682, 365.453 705.263, 370.587 713.845, 375.721 722.426, 380.855 731.008, 385.989 739.589, 391.123 748.171, 396.257 756.752, 401.391 765.334, 406.525 773.915, 411.659 782.497, 416.793 791.078, 421.927 799.660, 427.061 808.241, 432.195 816.823, 437.329 825.404, 442.463 833.985, 447.597 842.567, 452.731 851.148, 457.865 859.730, 462.999 868.311, 468.133 876.893, 473.267 885.474, 478.401 890.827, 481.604 899.409, 486.738 907.990, 491.872 916.572, 497.006 925.153, 502.140 933.735, 507.274 942.316, 512.408 950.898, 517.542 959.479, 522.676 968.061, 527.810 976.642, 532.944 985.224, 538.078 993.805, 543.212 998.938, 546.283 " fill="none" stroke="rgb(0, 119, 0)" stroke-linecap="butt" stroke-linejoin="round" stroke-opacity="1.0" stroke-width="3.0" />
        </g>
    </g>
</svg>
