<?xml version='1.0' encoding='ascii'?>
<svg xmlns="http://www.w3.org/2000/svg" xmlns:inkscape="http://www.inkscape.org/namespaces/inkscape" height="1500" version="1.1" width="1500">
    <g id="fressstylelayer_LineSet" inkscape:groupmode="lineset" inkscape:label="fressstylelayer_LineSet">
        <g id="strokes" inkscape:groupmode="layer" inkscape:label="strokes">
            <path d=" M 653.055, 70.308 643.384, 67.764 633.713, 65.219 624.042, 62.675 614.372, 60.130 604.701, 57.586 595.030, 55.041 585.359, 52.496 575.688, 49.952 566.017, 47.407 556.347, 44.863 546.676, 42.318 537.005, 39.774 527.334, 37.229 517.663, 34.685 515.949, 34.234 511.398, 43.138 506.847, 52.042 502.296, 60.947 497.745, 69.851 493.194, 78.756 488.643, 87.660 484.092, 96.565 479.541, 105.469 474.990, 114.373 470.439, 123.278 465.888, 132.182 461.337, 141.087 456.786, 149.991 452.236, 158.895 447.685, 167.800 445.225, 172.612 440.674, 181.517 436.735, 189.224 432.184, 198.128 427.633, 207.033 423.082, 215.937 418.531, 224.842 413.980, 233.746 409.429, 242.651 404.878, 251.555 400.327, 260.459 395.776, 269.364 391.225, 278.268 386.674, 287.172 382.123, 296.077 377.572, 304.981 373.021, 313.886 368.470, 322.790 363.919, 331.695 359.368, 340.599 354.817, 349.503 350.266, 358.408 345.715, 367.312 341.164, 376.217 336.613, 385.121 332.062, 394.026 327.511, 402.930 322.960, 411.834 318.409, 420.739 313.858, 429.643 309.307, 438.548 304.757, 447.452 300.206, 456.356 295.655, 465.261 291.104, 474.165 286.553, 483.070 282.002, 491.974 277.451, 500.878 272.900, 509.783 268.349, 518.687 263.798, 527.592 259.247, 536.496 254.696, 545.401 250.145, 554.305 245.594, 563.209 241.043, 572.114 236.492, 581.018 231.941, 589.923 227.390, 598.827 222.839, 607.732 218.288, 616.636 213.737, 625.540 209.186, 634.445 204.635, 643.349 200.084, 652.254 195.479, 661.263 190.928, 670.167 186.377, 679.072 181.826, 687.976 177.275, 696.881 172.619, 705.991 168.068, 714.895 163.517, 723.800 158.966, 732.704 154.416, 741.608 149.865, 750.513 145.314, 759.417 140.763, 768.322 136.212, 777.226 131.661, 786.130 127.110, 795.035 122.559, 803.939 118.008, 812.844 113.457, 821.748 108.906, 830.653 104.355, 839.557 99.804, 848.461 95.253, 857.366 90.702, 866.270 86.151, 875.175 81.600, 884.079 77.049, 892.983 72.498, 901.888 67.947, 910.792 63.396, 919.697 58.845, 928.601 54.294, 937.505 48.890, 948.079 57.701, 952.808 66.512, 957.537 75.324, 962.266 84.135, 966.994 92.946, 971.723 101.757, 976.452 110.569, 981.181 119.380, 985.910 128.191, 990.639 137.002, 995.368 145.814, 1000.096 154.625, 1004.825 163.436, 1009.554 172.247, 1014.283 178.618, 1017.702 187.429, 1022.431 191.046, 1024.372 199.857, 1029.100 208.668, 1033.829 217.479, 1038.558 226.291, 1043.287 235.102, 1048.016 236.687, 1048.867 238.846, 1050.025 247.657, 1054.754 256.468, 1059.483 265.280, 1064.212 274.091, 1068.941 282.902, 1073.669 291.713, 1078.398 300.525, 1083.127 309.336, 1087.856 318.147, 1092.585 326.958, 1097.314 335.770, 1102.042 344.581, 1106.771 353.392, 1111.500 362.203, 1116.229 371.014, 1120.958 379.826, 1125.687 388.637, 1130.416 397.448, 1135.144 406.259, 1139.873 415.071, 1144.602 423.882, 1149.331 432.693, 1154.060 441.504, 1158.789 450.316, 1163.517 459.127, 1168.246 467.938, 1172.975 476.749, 1177.704 485.561, 1182.433 494.372, 1187.162 503.183, 1191.891 511.994, 1196.619 520.806, 1201.348 529.617, 1206.077 538.428, 1210.806 547.239, 1215.535 556.051, 1220.264 564.862, 1224.992 573.673, 1229.721 582.484, 1234.450 591.296, 1239.179 600.107, 1243.908 608.918, 1248.637 617.729, 1253.365 626.541, 1258.094 635.352, 1262.823 644.163, 1267.552 652.974, 1272.281 659.433, 1275.747 668.244, 1280.476 676.943, 1285.144 685.754, 1289.873 694.565, 1294.602 703.377, 1299.331 705.118, 1300.265 713.929, 1304.994 722.740, 1309.723 731.552, 1314.452 740.363, 1319.181 749.174, 1323.910 757.985, 1328.639 758.809, 1329.080 767.620, 1333.809 776.431, 1338.538 785.243, 1343.267 794.054, 1347.996 802.865, 1352.725 811.676, 1357.454 820.488, 1362.182 829.299, 1366.911 838.110, 1371.640 846.921, 1376.369 855.733, 1381.098 864.544, 1385.827 874.129, 1390.971 880.543, 1383.299 886.957, 1375.627 893.372, 1367.955 899.786, 1360.284 906.201, 1352.612 912.615, 1344.940 919.029, 1337.268 925.444, 1329.597 931.858, 1321.925 938.272, 1314.253 944.687, 1306.581 951.101, 1298.910 957.515, 1291.238 963.930, 1283.566 970.344, 1275.894 976.759, 1268.222 983.173, 1260.551 989.587, 1252.879 996.002, 1245.207 1002.416, 1237.535 1008.830, 1229.864 1015.245, 1222.192 1021.659, 1214.520 1028.073, 1206.848 1034.488, 1199.177 1040.902, 1191.505 1047.317, 1183.833 1053.731, 1176.161 1060.145, 1168.490 1066.560, 1160.818 1072.974, 1153.146 1079.388, 1145.474 1085.803, 1137.803 1092.217, 1130.131 1098.632, 1122.459 1105.046, 1114.787 1111.460, 1107.116 1117.875, 1099.444 1124.289, 1091.772 1130.703, 1084.100 1137.118, 1076.429 1143.532, 1068.757 1149.947, 1061.085 1156.361, 1053.413 1162.775, 1045.742 1169.190, 1038.070 1175.604, 1030.398 1182.018, 1022.726 1188.433, 1015.054 1194.847, 1007.383 1201.261, 999.711 1207.676, 992.039 1214.090, 984.367 1220.505, 976.696 1226.919, 969.024 1233.333, 961.352 1239.748, 953.680 1246.162, 946.009 1252.577, 938.337 1258.991, 930.665 1265.405, 922.993 1271.820, 915.322 1278.234, 907.650 1284.648, 899.978 1291.063, 892.306 1297.477, 884.635 1303.891, 876.963 1310.306, 869.291 1316.720, 861.619 1323.135, 853.948 1329.549, 846.276 1335.963, 838.604 1342.378, 830.932 1348.792, 823.261 1355.206, 815.589 1361.621, 807.917 1368.035, 800.245 1374.449, 792.573 1380.864, 784.902 1387.278, 777.230 1393.693, 769.558 1400.107, 761.886 1406.521, 754.215 1412.936, 746.543 1419.350, 738.871 1425.765, 731.199 1432.179, 723.528 1438.593, 715.856 1445.008, 708.184 1451.422, 700.512 1457.836, 692.841 1464.251, 685.169 1470.665, 677.497 1481.668, 664.337 1474.079, 657.825 1466.490, 651.313 1458.901, 644.801 1451.312, 638.289 1443.723, 631.777 1436.134, 625.265 1428.545, 618.752 1420.956, 612.240 1413.368, 605.728 1405.779, 599.216 1398.190, 592.704 1390.601, 586.192 1383.012, 579.680 1375.423, 573.167 1367.834, 566.655 1360.245, 560.143 1352.656, 553.631 1345.067, 547.119 1337.478, 540.607 1329.889, 534.095 1322.300, 527.583 1314.711, 521.070 1307.122, 514.558 1299.533, 508.046 1291.944, 501.534 1284.355, 495.022 1276.766, 488.510 1269.177, 481.998 1261.589, 475.485 1254.000, 468.973 1246.411, 462.461 1237.361, 454.695 1229.006, 449.199 1220.652, 443.704 1212.298, 438.208 1203.943, 432.712 1195.589, 427.216 1187.235, 421.720 1178.880, 416.224 1170.526, 410.728 1162.172, 405.232 1153.818, 399.736 1145.463, 394.240 1137.109, 388.744 1128.755, 383.249 1120.400, 377.753 1112.046, 372.257 1103.692, 366.761 1095.337, 361.265 1086.983, 355.769 1078.629, 350.273 1070.274, 344.777 1061.920, 339.281 1053.566, 333.785 1045.211, 328.289 1036.857, 322.793 1028.503, 317.297 1020.148, 311.802 1011.794, 306.306 1003.440, 300.810 995.085, 295.314 986.731, 289.818 978.377, 284.322 970.022, 278.826 961.668, 273.330 953.314, 267.834 944.959, 262.338 936.605, 256.842 928.251, 251.346 919.896, 245.850 911.542, 240.355 903.188, 234.859 894.833, 229.363 886.479, 223.867 878.125, 218.371 869.770, 212.875 861.416, 207.379 853.062, 201.883 844.707, 196.387 836.353, 190.891 827.999, 185.395 819.644, 179.900 811.290, 174.404 802.936, 168.908 794.581, 163.412 786.227, 157.916 777.872, 152.420 769.518, 146.924 761.164, 141.428 752.810, 135.932 744.455, 130.436 736.101, 124.940 727.747, 119.444 719.392, 113.948 711.038, 108.453 702.684, 102.957 694.329, 97.461 685.975, 91.965 677.621, 86.469 669.266, 80.973 660.912, 75.477 653.055, 70.308 " fill="none" stroke="rgb(157, 20, 170)" stroke-linecap="butt" stroke-linejoin="round" stroke-opacity="1.0" stroke-width="3.0" />
            <path d=" M 515.949, 34.234 524.324, 39.698 532.699, 45.162 541.074, 50.627 549.449, 56.091 557.824, 61.556 566.199, 67.020 574.574, 72.485 582.949, 77.949 591.324, 83.413 599.699, 88.878 608.074, 94.342 616.449, 99.807 624.824, 105.271 633.199, 110.736 641.574, 116.200 649.949, 121.664 658.324, 127.129 666.699, 132.593 675.074, 138.058 683.449, 143.522 691.823, 148.987 700.198, 154.451 708.573, 159.915 716.948, 165.380 725.323, 170.844 733.698, 176.309 742.073, 181.773 750.448, 187.238 758.823, 192.702 767.198, 198.166 775.573, 203.631 783.948, 209.095 792.323, 214.560 800.698, 220.024 809.073, 225.489 817.448, 230.953 825.823, 236.417 834.198, 241.882 842.573, 247.346 850.948, 252.811 859.323, 258.275 867.698, 263.740 876.073, 269.204 884.448, 274.668 892.823, 280.133 901.198, 285.597 909.573, 291.062 917.948, 296.526 926.323, 301.990 934.698, 307.455 943.073, 312.919 951.447, 318.384 959.822, 323.848 968.197, 329.312 976.572, 334.777 984.947, 340.241 993.322, 345.706 1001.697, 351.170 1010.072, 356.635 1018.447, 362.099 1026.822, 367.563 1035.197, 373.028 1043.572, 378.492 1051.947, 383.957 1060.322, 389.421 1068.697, 394.886 1077.072, 400.350 1085.447, 405.814 1093.822, 411.279 1102.197, 416.743 1110.572, 422.208 1118.947, 427.672 1127.322, 433.137 1135.697, 438.601 1144.072, 444.065 1152.447, 449.530 1160.822, 454.994 1169.197, 460.459 1177.572, 465.923 1185.947, 471.388 1194.322, 476.852 1202.697, 482.316 1211.071, 487.781 1219.446, 493.245 1227.821, 498.710 1236.196, 504.174 1244.571, 509.639 1252.946, 515.103 1261.321, 520.567 1269.696, 526.032 1278.071, 531.496 1286.446, 536.961 1294.821, 542.425 1303.196, 547.890 1311.571, 553.354 1319.946, 558.818 1328.321, 564.283 1336.696, 569.747 1345.071, 575.212 1353.446, 580.676 1361.821, 586.141 1370.196, 591.605 1378.571, 597.069 1386.946, 602.534 1395.321, 607.998 1403.696, 613.463 1412.071, 618.927 1420.446, 624.391 1428.821, 629.856 1437.196, 635.320 1445.571, 640.785 1453.945, 646.249 1462.320, 651.714 1470.695, 657.178 1481.668, 664.337 " fill="none" stroke="rgb(157, 20, 170)" stroke-linecap="butt" stroke-linejoin="round" stroke-opacity="1.0" stroke-width="3.0" />
            <path d=" M 178.618, 1017.702 173.752, 1026.438 168.887, 1035.175 164.021, 1043.911 159.156, 1052.648 154.291, 1061.385 149.425, 1070.121 144.560, 1078.858 139.694, 1087.594 134.829, 1096.331 129.964, 1105.068 125.098, 1113.804 122.961, 1117.642 131.818, 1122.285 140.675, 1126.928 149.531, 1131.571 158.388, 1136.214 167.245, 1140.858 176.101, 1145.501 184.958, 1150.144 193.815, 1154.787 202.671, 1159.430 211.528, 1164.074 220.385, 1168.717 229.241, 1173.360 238.098, 1178.003 246.955, 1182.646 255.811, 1187.290 264.668, 1191.933 273.525, 1196.576 282.381, 1201.219 291.238, 1205.862 300.095, 1210.506 308.951, 1215.149 317.808, 1219.792 326.665, 1224.435 335.521, 1229.079 344.378, 1233.722 353.235, 1238.365 362.091, 1243.008 370.948, 1247.651 379.805, 1252.295 388.661, 1256.938 397.518, 1261.581 406.375, 1266.224 415.231, 1270.867 424.088, 1275.511 432.945, 1280.154 441.801, 1284.797 450.658, 1289.440 459.515, 1294.083 468.371, 1298.727 477.228, 1303.370 486.085, 1308.013 494.941, 1312.656 503.798, 1317.299 512.655, 1321.943 521.511, 1326.586 530.368, 1331.229 539.225, 1335.872 548.081, 1340.516 556.938, 1345.159 565.795, 1349.802 574.651, 1354.445 583.508, 1359.088 592.365, 1363.732 601.221, 1368.375 610.078, 1373.018 618.935, 1377.661 627.792, 1382.304 636.648, 1386.948 645.505, 1391.591 654.361, 1396.234 663.218, 1400.877 672.075, 1405.520 680.932, 1410.164 690.984, 1415.434 697.161, 1407.569 703.338, 1399.705 709.515, 1391.841 715.691, 1383.977 721.868, 1376.113 728.045, 1368.248 734.222, 1360.384 740.399, 1352.520 746.576, 1344.656 752.753, 1336.791 758.809, 1329.080 " fill="none" stroke="rgb(157, 20, 170)" stroke-linecap="butt" stroke-linejoin="round" stroke-opacity="1.0" stroke-width="3.0" />
            <path d=" M 236.687, 1048.867 231.683, 1057.525 226.679, 1066.182 221.675, 1074.840 216.671, 1083.498 215.661, 1085.245 224.489, 1089.942 233.317, 1094.640 242.146, 1099.337 250.974, 1104.034 259.802, 1108.731 268.630, 1113.429 277.458, 1118.126 286.286, 1122.823 295.114, 1127.520 303.942, 1132.218 312.771, 1136.915 321.599, 1141.612 330.427, 1146.310 339.255, 1151.007 348.083, 1155.704 356.911, 1160.401 365.739, 1165.099 374.567, 1169.796 383.395, 1174.493 392.224, 1179.190 401.052, 1183.888 409.880, 1188.585 418.708, 1193.282 427.536, 1197.980 436.364, 1202.677 445.192, 1207.374 454.020, 1212.071 462.848, 1216.769 471.677, 1221.466 480.505, 1226.163 489.333, 1230.860 498.161, 1235.558 506.989, 1240.255 515.817, 1244.952 524.645, 1249.650 533.473, 1254.347 542.302, 1259.044 551.130, 1263.741 559.958, 1268.439 568.786, 1273.136 577.614, 1277.833 586.442, 1282.530 595.270, 1287.228 604.098, 1291.925 612.926, 1296.622 621.755, 1301.320 630.583, 1306.017 639.411, 1310.714 652.516, 1317.687 658.519, 1309.689 664.522, 1301.692 670.525, 1293.694 676.528, 1285.696 676.943, 1285.144 " fill="none" stroke="rgb(157, 20, 170)" stroke-linecap="butt" stroke-linejoin="round" stroke-opacity="1.0" stroke-width="3.0" />
            <path d=" M 416.195, 176.241 424.648, 181.584 433.101, 186.927 436.735, 189.224 " fill="none" stroke="rgb(157, 20, 170)" stroke-linecap="butt" stroke-linejoin="round" stroke-opacity="1.0" stroke-width="3.0" />
            <path d=" M 445.225, 172.612 435.302, 173.853 425.379, 175.093 416.195, 176.241 411.687, 185.167 407.179, 194.094 402.672, 203.020 398.164, 211.947 393.656, 220.873 389.149, 229.799 384.641, 238.726 380.133, 247.652 375.625, 256.578 371.118, 265.505 366.610, 274.431 362.102, 283.358 357.595, 292.284 353.087, 301.211 348.579, 310.137 344.071, 319.063 339.564, 327.990 335.056, 336.916 330.548, 345.843 326.041, 354.769 321.533, 363.695 317.025, 372.622 312.518, 381.548 308.010, 390.474 303.502, 399.401 298.994, 408.327 294.487, 417.254 289.979, 426.180 285.471, 435.107 280.964, 444.033 276.456, 452.959 271.948, 461.886 267.440, 470.812 262.933, 479.739 258.425, 488.665 253.917, 497.591 249.410, 506.518 244.902, 515.444 240.394, 524.370 235.887, 533.297 231.379, 542.223 226.871, 551.150 222.363, 560.076 217.856, 569.003 213.348, 577.929 208.840, 586.855 204.333, 595.782 199.825, 604.708 195.317, 613.635 190.810, 622.561 186.302, 631.487 181.794, 640.414 177.286, 649.340 172.779, 658.266 168.271, 667.193 163.763, 676.119 159.256, 685.046 154.003, 695.447 162.704, 700.375 171.406, 705.303 172.619, 705.991 " fill="none" stroke="rgb(157, 20, 170)" stroke-linecap="butt" stroke-linejoin="round" stroke-opacity="1.0" stroke-width="3.0" />
        </g>
    </g>
    <g id="fressstylelayer_hidden lines" inkscape:groupmode="lineset" inkscape:label="fressstylelayer_hidden lines" xmlns:inkscape="http://www.inkscape.org/namespaces/inkscape">
        <g id="strokes" inkscape:groupmode="layer" inkscape:label="strokes" xmlns:inkscape="http://www.inkscape.org/namespaces/inkscape">
            <path d=" M 874.129, 1390.971 873.936, 1380.972 873.744, 1370.974 873.552, 1360.976 873.359, 1350.978 873.167, 1340.980 872.974, 1330.982 872.782, 1320.984 872.590, 1310.985 872.397, 1300.987 872.205, 1290.989 872.013, 1280.991 871.820, 1270.993 871.628, 1260.995 871.435, 1250.997 871.243, 1240.998 871.051, 1231.000 870.858, 1221.002 870.666, 1211.004 870.474, 1201.006 870.255, 1189.620 870.209, 1187.249 870.017, 1177.251 869.824, 1167.252 869.632, 1157.254 869.439, 1147.256 869.247, 1137.258 869.055, 1127.260 868.862, 1117.262 868.670, 1107.263 868.478, 1097.265 868.285, 1087.267 868.093, 1077.269 867.900, 1067.271 867.708, 1057.273 867.516, 1047.275 867.323, 1037.276 867.215, 1031.654 867.023, 1021.656 866.830, 1011.657 866.638, 1001.659 866.446, 991.661 866.253, 981.663 866.061, 971.665 865.869, 961.667 865.833, 959.814 " fill="none" stroke="rgb(0, 119, 0)" stroke-linecap="butt" stroke-linejoin="round" stroke-opacity="1.0" stroke-width="3.0" />
            <path d=" M 335.852, 652.086 344.500, 657.107 353.148, 662.129 361.796, 667.150 362.939, 667.814 370.897, 672.435 379.545, 677.456 388.192, 682.477 396.840, 687.498 405.488, 692.520 414.136, 697.541 422.784, 702.562 431.432, 707.584 433.312, 708.675 441.960, 713.696 450.607, 718.718 459.255, 723.739 467.903, 728.760 476.551, 733.782 485.199, 738.803 493.847, 743.824 499.782, 747.271 508.430, 752.292 515.415, 756.347 524.063, 761.369 532.711, 766.390 533.962, 767.117 542.610, 772.138 551.258, 777.159 559.906, 782.181 568.554, 787.202 577.202, 792.223 585.850, 797.245 594.497, 802.266 603.145, 807.287 605.500, 808.654 614.147, 813.676 622.795, 818.697 631.443, 823.718 640.091, 828.740 648.739, 833.761 657.387, 838.782 666.035, 843.804 674.683, 848.825 683.331, 853.846 691.979, 858.867 700.627, 863.889 709.274, 868.910 718.175, 874.078 726.823, 879.099 735.470, 884.121 744.118, 889.142 752.766, 894.163 758.970, 897.765 767.618, 902.787 767.864, 902.930 768.965, 903.569 777.613, 908.590 786.261, 913.611 794.909, 918.633 803.557, 923.654 812.204, 928.675 820.852, 933.697 826.639, 937.057 835.287, 942.078 843.935, 947.099 852.583, 952.121 861.231, 957.142 865.833, 959.814 871.758, 951.759 877.683, 943.703 883.608, 935.647 889.533, 927.592 895.459, 919.536 901.384, 911.480 907.309, 903.425 913.234, 895.369 918.320, 888.454 924.245, 880.399 930.170, 872.343 936.095, 864.287 942.021, 856.232 947.946, 848.176 953.871, 840.120 959.796, 832.065 965.721, 824.009 971.646, 815.954 977.571, 807.898 983.496, 799.842 989.422, 791.787 995.347, 783.731 1001.272, 775.675 1007.197, 767.620 1011.365, 761.953 1017.290, 753.897 1023.215, 745.842 1029.140, 737.786 1035.065, 729.731 1040.990, 721.675 1046.916, 713.619 1052.841, 705.564 1058.766, 697.508 1064.691, 689.453 1070.616, 681.397 1076.541, 673.341 1082.466, 665.286 1088.391, 657.230 1094.317, 649.174 1100.242, 641.119 1106.167, 633.063 1112.092, 625.008 1118.017, 616.952 1123.942, 608.896 1129.867, 600.841 1135.792, 592.785 1141.718, 584.729 1147.643, 576.674 1153.568, 568.618 1159.493, 560.563 1165.418, 552.507 1171.343, 544.451 1177.268, 536.396 1184.083, 527.130 1190.009, 519.074 1195.934, 511.018 1201.859, 502.963 1207.784, 494.907 1213.709, 486.852 1219.634, 478.796 1225.559, 470.740 1231.484, 462.685 1237.361, 454.695 " fill="none" stroke="rgb(0, 119, 0)" stroke-linecap="butt" stroke-linejoin="round" stroke-opacity="1.0" stroke-width="3.0" />
            <path d=" M 48.890, 948.079 55.851, 940.899 62.811, 933.720 69.772, 926.540 76.733, 919.360 83.693, 912.180 90.654, 905.001 97.615, 897.821 104.575, 890.641 111.536, 883.461 118.497, 876.282 125.458, 869.102 132.418, 861.922 139.379, 854.742 146.340, 847.563 153.300, 840.383 160.261, 833.203 167.222, 826.023 174.182, 818.844 181.143, 811.664 188.104, 804.484 195.064, 797.304 202.025, 790.125 208.986, 782.945 215.947, 775.765 222.907, 768.585 229.868, 761.406 236.829, 754.226 244.258, 746.563 251.219, 739.383 258.179, 732.203 265.140, 725.023 272.101, 717.844 279.061, 710.664 286.022, 703.484 292.983, 696.305 299.943, 689.125 306.904, 681.945 313.865, 674.765 320.826, 667.586 327.786, 660.406 334.747, 653.226 335.852, 652.086 340.639, 643.306 345.426, 634.527 350.213, 625.747 355.000, 616.967 359.787, 608.187 364.574, 599.407 369.361, 590.628 374.148, 581.848 378.935, 573.068 383.722, 564.288 388.509, 555.509 393.296, 546.729 398.083, 537.949 402.870, 529.169 407.657, 520.389 412.444, 511.610 417.231, 502.830 422.018, 494.050 426.805, 485.270 431.592, 476.491 436.379, 467.711 441.166, 458.931 445.953, 450.151 450.740, 441.371 455.527, 432.592 460.314, 423.812 465.101, 415.032 469.888, 406.252 474.675, 397.473 479.462, 388.693 484.249, 379.913 489.036, 371.133 493.823, 362.353 498.610, 353.574 503.397, 344.794 508.184, 336.014 512.971, 327.234 517.758, 318.454 522.545, 309.675 527.332, 300.895 532.119, 292.115 536.906, 283.335 541.693, 274.556 546.480, 265.776 551.267, 256.996 556.054, 248.216 560.841, 239.436 565.628, 230.657 570.415, 221.877 575.202, 213.097 579.989, 204.317 585.196, 194.768 589.983, 185.988 594.770, 177.208 599.557, 168.428 604.344, 159.649 609.131, 150.869 613.918, 142.089 618.705, 133.309 623.492, 124.529 628.279, 115.750 633.066, 106.970 637.853, 98.190 642.640, 89.410 647.427, 80.630 652.214, 71.851 653.055, 70.308 " fill="none" stroke="rgb(0, 119, 0)" stroke-linecap="butt" stroke-linejoin="round" stroke-opacity="1.0" stroke-width="3.0" />
            <path d=" M 758.809, 1329.080 764.986, 1321.216 771.163, 1313.352 777.340, 1305.488 783.516, 1297.624 789.693, 1289.759 795.870, 1281.895 802.047, 1274.031 808.224, 1266.167 814.401, 1258.302 820.578, 1250.438 826.755, 1242.574 832.931, 1234.710 839.108, 1226.845 845.285, 1218.981 851.462, 1211.117 857.639, 1203.253 859.422, 1200.982 860.722, 1199.328 866.898, 1191.463 870.209, 1187.249 876.386, 1179.384 882.563, 1171.520 888.740, 1163.656 894.916, 1155.792 901.093, 1147.927 907.270, 1140.063 913.447, 1132.199 919.624, 1124.335 925.801, 1116.470 931.978, 1108.606 938.154, 1100.742 944.331, 1092.878 950.508, 1085.014 956.685, 1077.149 962.862, 1069.285 969.039, 1061.421 975.216, 1053.557 981.393, 1045.692 987.569, 1037.828 993.746, 1029.964 999.923, 1022.100 1006.100, 1014.235 1012.277, 1006.371 1018.454, 998.507 1024.631, 990.643 1030.807, 982.778 1036.984, 974.914 1043.161, 967.050 1049.338, 959.186 1055.515, 951.321 1058.306, 947.769 1055.856, 938.073 1053.407, 928.378 1050.958, 918.682 1048.509, 908.987 1046.059, 899.291 1043.610, 889.596 1041.161, 879.901 1038.712, 870.205 1036.262, 860.510 1033.813, 850.814 1031.364, 841.119 1028.914, 831.423 1026.465, 821.728 1024.016, 812.033 1021.567, 802.337 1019.117, 792.642 1016.668, 782.946 1014.219, 773.251 1011.365, 761.953 1008.916, 752.258 1006.466, 742.562 1004.017, 732.867 1001.568, 723.171 999.119, 713.476 997.787, 708.203 997.134, 707.801 988.615, 702.563 980.097, 697.325 971.579, 692.087 963.060, 686.849 954.542, 681.611 946.024, 676.373 937.505, 671.135 928.987, 665.897 920.468, 660.659 911.950, 655.420 903.432, 650.182 894.913, 644.944 886.395, 639.706 880.050, 635.805 871.532, 630.567 863.014, 625.329 854.495, 620.090 845.977, 614.852 837.459, 609.614 828.940, 604.376 820.422, 599.138 813.504, 594.884 804.986, 589.646 796.467, 584.408 787.949, 579.170 779.431, 573.932 774.795, 571.081 766.276, 565.843 757.758, 560.605 752.043, 557.091 743.524, 551.852 735.006, 546.614 726.488, 541.376 717.969, 536.138 709.451, 530.900 700.933, 525.662 692.414, 520.424 683.896, 515.186 675.378, 509.948 666.859, 504.710 658.341, 499.471 649.823, 494.233 641.304, 488.995 632.786, 483.757 624.267, 478.519 615.749, 473.281 607.231, 468.043 598.712, 462.805 590.194, 457.567 581.676, 452.329 573.157, 447.091 564.639, 441.852 554.935, 435.885 548.089, 443.174 541.243, 450.463 537.276, 454.687 530.429, 461.976 523.583, 469.264 516.736, 476.553 509.890, 483.842 503.044, 491.131 496.197, 498.420 489.351, 505.709 482.505, 512.998 475.658, 520.287 468.812, 527.575 461.966, 534.864 455.119, 542.153 453.866, 543.488 447.020, 550.777 440.173, 558.065 433.327, 565.354 426.455, 572.670 422.505, 579.763 417.640, 588.500 412.775, 597.236 409.344, 603.396 404.479, 612.133 399.613, 620.870 394.748, 629.606 393.717, 631.458 388.851, 640.194 383.986, 648.931 379.120, 657.668 374.255, 666.404 370.897, 672.435 366.031, 681.171 361.166, 689.908 356.300, 698.644 351.435, 707.381 346.570, 716.117 341.704, 724.854 336.839, 733.591 331.973, 742.327 327.108, 751.064 322.243, 759.800 317.377, 768.537 312.512, 777.274 309.148, 783.313 304.283, 792.050 299.418, 800.786 294.552, 809.523 289.687, 818.259 286.562, 823.870 281.697, 832.607 276.832, 841.343 271.966, 850.080 267.101, 858.816 262.235, 867.553 261.498, 868.878 256.632, 877.614 251.767, 886.351 246.901, 895.087 242.036, 903.824 237.171, 912.561 232.305, 921.297 227.440, 930.034 222.574, 938.770 217.709, 947.507 212.844, 956.243 207.978, 964.980 203.113, 973.717 198.247, 982.453 193.382, 991.190 188.517, 999.926 183.651, 1008.663 178.618, 1017.702 " fill="none" stroke="rgb(0, 119, 0)" stroke-linecap="butt" stroke-linejoin="round" stroke-opacity="1.0" stroke-width="3.0" />
            <path d=" M 426.455, 572.670 435.054, 577.775 443.653, 582.880 452.252, 587.984 460.851, 593.089 469.450, 598.194 478.049, 603.299 486.648, 608.403 495.247, 613.508 496.736, 614.392 505.335, 619.497 513.934, 624.602 522.533, 629.706 531.132, 634.811 539.731, 639.916 548.329, 645.021 556.928, 650.125 557.831, 650.661 566.430, 655.766 573.760, 660.118 582.359, 665.222 590.958, 670.327 591.667, 670.748 600.266, 675.853 608.864, 680.957 617.463, 686.062 626.062, 691.167 634.661, 696.272 643.260, 701.376 651.859, 706.481 660.458, 711.586 665.529, 714.596 674.128, 719.701 677.868, 721.922 686.467, 727.026 695.066, 732.131 703.665, 737.236 712.264, 742.341 720.863, 747.445 729.462, 752.550 738.061, 757.655 746.660, 762.760 755.259, 767.864 763.858, 772.969 772.457, 778.074 780.253, 782.702 788.852, 787.807 797.450, 792.912 806.049, 798.016 806.449, 798.254 815.048, 803.358 820.962, 806.869 829.561, 811.974 830.826, 812.725 839.424, 817.830 848.023, 822.934 856.622, 828.039 865.221, 833.144 873.820, 838.249 882.419, 843.353 890.629, 848.227 899.228, 853.332 907.827, 858.437 916.071, 863.331 924.670, 868.436 933.269, 873.540 941.868, 878.645 950.467, 883.750 959.066, 888.855 967.665, 893.959 976.264, 899.064 984.862, 904.169 993.461, 909.274 1002.060, 914.379 1010.659, 919.483 1019.258, 924.588 1027.857, 929.693 1036.456, 934.798 1045.055, 939.902 1053.654, 945.007 1058.306, 947.769 " fill="none" stroke="rgb(0, 119, 0)" stroke-linecap="butt" stroke-linejoin="round" stroke-opacity="1.0" stroke-width="3.0" />
            <path d=" M 690.984, 1415.434 692.202, 1405.508 693.420, 1395.583 694.638, 1385.657 695.856, 1375.732 697.074, 1365.806 698.293, 1355.881 699.511, 1345.955 700.729, 1336.029 701.947, 1326.104 703.165, 1316.178 704.383, 1306.253 705.118, 1300.265 706.336, 1290.340 707.554, 1280.414 708.772, 1270.489 709.990, 1260.563 711.208, 1250.638 712.427, 1240.712 712.843, 1237.316 714.062, 1227.390 715.280, 1217.465 716.498, 1207.539 717.716, 1197.614 718.934, 1187.688 720.152, 1177.763 721.370, 1167.837 722.588, 1157.911 723.806, 1147.986 725.025, 1138.060 726.372, 1127.082 727.590, 1117.157 728.808, 1107.231 730.026, 1097.306 731.244, 1087.380 732.462, 1077.455 732.721, 1075.344 " fill="none" stroke="rgb(0, 119, 0)" stroke-linecap="butt" stroke-linejoin="round" stroke-opacity="1.0" stroke-width="3.0" />
            <path d=" M 322.034, 844.930 330.755, 849.823 339.476, 854.716 346.595, 858.709 355.316, 863.602 364.037, 868.495 372.758, 873.388 381.479, 878.281 390.200, 883.174 398.922, 888.067 407.643, 892.960 413.940, 896.493 422.661, 901.386 431.382, 906.279 440.103, 911.172 448.824, 916.065 457.546, 920.958 466.267, 925.851 474.988, 930.744 483.709, 935.637 492.430, 940.530 501.151, 945.423 509.873, 950.316 518.594, 955.209 527.315, 960.102 536.036, 964.995 544.757, 969.888 553.478, 974.781 562.200, 979.674 570.921, 984.567 579.642, 989.460 588.363, 994.352 597.084, 999.245 605.805, 1004.138 614.527, 1009.031 623.248, 1013.924 631.969, 1018.817 640.690, 1023.710 649.411, 1028.603 658.133, 1033.496 666.854, 1038.389 672.568, 1041.595 681.289, 1046.488 690.010, 1051.381 698.731, 1056.274 707.453, 1061.167 716.174, 1066.060 724.895, 1070.953 732.721, 1075.344 738.575, 1067.236 744.429, 1059.128 750.282, 1051.021 756.136, 1042.913 761.989, 1034.805 767.843, 1026.697 773.696, 1018.590 779.550, 1010.482 785.404, 1002.374 791.257, 994.266 797.111, 986.159 802.964, 978.051 808.818, 969.943 814.671, 961.835 820.525, 953.728 826.378, 945.620 832.232, 937.512 838.086, 929.404 843.939, 921.297 849.793, 913.189 855.646, 905.081 861.500, 896.973 867.353, 888.865 873.207, 880.758 879.061, 872.650 884.914, 864.542 890.768, 856.434 896.621, 848.327 902.475, 840.219 908.328, 832.111 912.731, 826.014 918.584, 817.906 924.438, 809.798 930.291, 801.690 936.145, 793.583 941.998, 785.475 947.852, 777.367 953.706, 769.259 959.559, 761.152 965.413, 753.044 971.266, 744.936 977.120, 736.828 982.973, 728.721 988.827, 720.613 994.681, 712.505 997.787, 708.203 " fill="none" stroke="rgb(0, 119, 0)" stroke-linecap="butt" stroke-linejoin="round" stroke-opacity="1.0" stroke-width="3.0" />
            <path d=" M 122.961, 1117.642 128.857, 1109.565 134.753, 1101.488 140.649, 1093.411 146.545, 1085.334 152.441, 1077.257 158.337, 1069.180 164.233, 1061.103 170.129, 1053.026 176.025, 1044.949 181.921, 1036.872 187.817, 1028.795 191.046, 1024.372 196.942, 1016.295 202.838, 1008.218 208.734, 1000.141 214.630, 992.064 220.526, 983.987 226.421, 975.910 232.317, 967.833 238.213, 959.756 244.109, 951.679 250.005, 943.602 255.901, 935.525 261.797, 927.448 267.693, 919.371 273.589, 911.294 279.485, 903.217 285.381, 895.140 292.132, 885.893 298.028, 877.816 303.924, 869.739 309.819, 861.662 315.715, 853.585 321.611, 845.508 322.034, 844.930 326.981, 836.239 331.929, 827.549 336.877, 818.859 341.825, 810.169 345.420, 803.855 350.368, 795.165 355.316, 786.475 360.264, 777.785 365.212, 769.095 370.160, 760.405 375.108, 751.715 380.056, 743.025 385.004, 734.335 389.952, 725.645 394.900, 716.955 399.848, 708.264 404.796, 699.574 409.744, 690.884 414.692, 682.194 419.640, 673.504 424.588, 664.814 429.536, 656.124 431.106, 653.367 436.054, 644.677 441.002, 635.987 445.950, 627.296 450.898, 618.606 455.845, 609.916 460.793, 601.226 465.741, 592.536 470.689, 583.846 475.637, 575.156 480.585, 566.466 485.533, 557.776 490.481, 549.086 495.429, 540.396 500.377, 531.705 505.325, 523.015 510.273, 514.325 515.221, 505.635 520.169, 496.945 525.117, 488.255 530.065, 479.565 535.013, 470.875 539.961, 462.185 544.909, 453.495 549.857, 444.805 554.935, 435.885 " fill="none" stroke="rgb(0, 119, 0)" stroke-linecap="butt" stroke-linejoin="round" stroke-opacity="1.0" stroke-width="3.0" />
            <path d=" M 596.243, 586.734 591.455, 595.513 586.666, 604.292 581.877, 613.071 577.089, 621.850 572.300, 630.629 567.511, 639.408 562.723, 648.187 557.934, 656.966 553.145, 665.744 550.234, 671.082 " fill="none" stroke="rgb(0, 119, 0)" stroke-linecap="butt" stroke-linejoin="round" stroke-opacity="1.0" stroke-width="3.0" />
            <path d=" M 405.561, 911.384 410.718, 902.817 415.876, 894.250 421.034, 885.682 426.192, 877.115 431.350, 868.548 436.508, 859.981 438.545, 856.596 443.703, 848.029 448.861, 839.462 454.019, 830.895 459.177, 822.328 464.335, 813.760 469.493, 805.193 474.650, 796.626 479.808, 788.059 484.966, 779.492 490.124, 770.924 495.282, 762.357 500.440, 753.790 505.598, 745.223 510.755, 736.656 515.913, 728.089 521.071, 719.521 527.052, 709.588 532.209, 701.021 537.367, 692.453 542.525, 683.886 547.683, 675.319 550.234, 671.082 558.842, 676.171 562.659, 678.427 571.267, 683.516 579.876, 688.605 580.503, 688.976 589.111, 694.065 597.719, 699.153 606.328, 704.242 614.936, 709.331 623.544, 714.420 632.152, 719.509 640.761, 724.598 649.369, 729.687 654.109, 732.489 662.718, 737.578 666.407, 739.759 675.015, 744.848 683.623, 749.937 692.232, 755.026 700.840, 760.115 709.448, 765.204 718.056, 770.292 726.665, 775.381 735.273, 780.470 743.881, 785.559 752.490, 790.648 761.098, 795.737 768.446, 800.081 777.054, 805.170 785.663, 810.259 794.271, 815.348 802.879, 820.437 804.951, 821.661 813.560, 826.750 818.852, 829.879 819.968, 830.539 " fill="none" stroke="rgb(0, 119, 0)" stroke-linecap="butt" stroke-linejoin="round" stroke-opacity="1.0" stroke-width="3.0" />
            <path d=" M 819.968, 830.539 820.069, 828.135 820.236, 824.167 820.655, 814.176 820.962, 806.869 821.382, 796.878 821.801, 786.887 821.855, 785.614 822.274, 775.623 822.694, 765.631 823.113, 755.640 823.532, 745.649 823.952, 735.658 824.248, 728.617 824.434, 724.184 821.293, 722.292 812.727, 717.132 804.161, 711.973 795.595, 706.813 787.029, 701.653 778.463, 696.494 769.897, 691.334 761.331, 686.174 755.804, 682.845 747.238, 677.685 738.672, 672.526 730.106, 667.366 721.540, 662.206 717.719, 659.905 709.153, 654.745 700.587, 649.585 695.337, 646.423 686.771, 641.263 678.205, 636.104 669.639, 630.944 661.073, 625.784 652.507, 620.624 643.940, 615.465 641.784, 614.166 633.218, 609.006 630.489, 607.362 621.922, 602.202 614.541, 597.756 612.366, 596.446 603.799, 591.286 596.243, 586.734 591.093, 595.306 585.942, 603.878 580.792, 612.449 575.641, 621.021 573.822, 624.049 568.672, 632.620 563.521, 641.192 558.371, 649.764 557.831, 650.661 552.681, 659.233 547.531, 667.805 542.380, 676.376 539.957, 680.409 534.807, 688.981 529.656, 697.553 524.682, 705.831 523.630, 707.583 518.479, 716.154 517.522, 717.747 512.372, 726.318 507.221, 734.890 502.071, 743.462 499.782, 747.271 494.632, 755.842 489.481, 764.414 484.331, 772.986 479.181, 781.557 474.030, 790.129 470.254, 796.413 465.350, 805.128 460.446, 813.843 455.543, 822.558 450.639, 831.273 445.735, 839.988 440.831, 848.703 436.910, 855.670 432.007, 864.385 427.103, 873.100 422.199, 881.815 417.295, 890.530 413.940, 896.493 412.122, 899.723 407.218, 908.438 405.561, 911.384 414.289, 916.264 423.017, 921.144 431.746, 926.025 440.474, 930.905 449.202, 935.785 457.931, 940.665 466.659, 945.545 475.387, 950.425 484.116, 955.306 492.844, 960.186 501.572, 965.066 510.301, 969.946 519.029, 974.826 527.757, 979.706 536.486, 984.587 545.214, 989.467 553.942, 994.347 562.671, 999.227 571.399, 1004.107 580.127, 1008.988 588.856, 1013.868 597.584, 1018.748 606.312, 1023.628 615.041, 1028.508 623.769, 1033.388 632.497, 1038.269 641.226, 1043.149 649.954, 1048.029 658.682, 1052.909 662.986, 1055.315 668.712, 1047.117 670.490, 1044.571 672.568, 1041.595 678.294, 1033.397 684.020, 1025.198 689.745, 1017.000 695.471, 1008.801 701.197, 1000.603 702.261, 999.079 707.987, 990.881 713.712, 982.682 719.438, 974.484 725.164, 966.285 730.890, 958.087 736.616, 949.888 742.341, 941.690 748.067, 933.491 753.793, 925.293 759.519, 917.094 765.245, 908.896 768.965, 903.569 772.040, 899.166 777.766, 890.968 783.491, 882.769 788.221, 875.997 793.946, 867.799 795.990, 864.872 801.716, 856.674 807.442, 848.475 813.168, 840.277 818.893, 832.078 819.968, 830.539 " fill="none" stroke="rgb(0, 119, 0)" stroke-linecap="butt" stroke-linejoin="round" stroke-opacity="1.0" stroke-width="3.0" />
            <path d=" M 662.986, 1055.315 664.948, 1045.510 666.910, 1035.704 668.872, 1025.898 670.834, 1016.093 672.796, 1006.287 674.075, 999.890 676.037, 990.084 677.093, 984.808 679.055, 975.002 681.017, 965.197 682.979, 955.391 684.941, 945.586 686.619, 937.195 688.581, 927.390 689.594, 922.331 " fill="none" stroke="rgb(0, 119, 0)" stroke-linecap="butt" stroke-linejoin="round" stroke-opacity="1.0" stroke-width="3.0" />
            <path d=" M 470.254, 796.413 478.927, 801.392 487.599, 806.370 487.801, 806.486 496.474, 811.465 505.146, 816.444 508.793, 818.537 517.465, 823.516 526.138, 828.494 534.810, 833.473 543.483, 838.452 552.155, 843.430 560.828, 848.409 569.500, 853.388 578.173, 858.367 585.196, 862.399 593.869, 867.377 602.541, 872.356 611.214, 877.335 619.886, 882.314 628.559, 887.292 637.231, 892.271 645.904, 897.250 654.576, 902.228 663.249, 907.207 671.922, 912.186 680.594, 917.164 686.572, 920.596 689.594, 922.331 695.219, 914.064 700.845, 905.796 706.471, 897.529 712.097, 889.262 717.723, 880.994 723.349, 872.727 728.975, 864.460 734.601, 856.192 740.227, 847.925 745.853, 839.658 751.479, 831.390 757.105, 823.123 762.731, 814.856 768.357, 806.588 773.983, 798.321 779.609, 790.054 785.235, 781.786 790.861, 773.519 796.837, 764.737 802.463, 756.469 808.089, 748.202 813.715, 739.935 819.341, 731.667 824.434, 724.184 " fill="none" stroke="rgb(0, 119, 0)" stroke-linecap="butt" stroke-linejoin="round" stroke-opacity="1.0" stroke-width="3.0" />
            <path d=" M 678.557, 694.183 675.691, 703.763 672.825, 713.344 669.959, 722.924 667.093, 732.505 664.227, 742.085 663.630, 744.080 662.225, 748.778 " fill="none" stroke="rgb(0, 119, 0)" stroke-linecap="butt" stroke-linejoin="round" stroke-opacity="1.0" stroke-width="3.0" />
            <path d=" M 580.230, 876.298 585.639, 867.887 591.047, 859.475 596.455, 851.064 601.864, 842.653 607.272, 834.242 612.681, 825.830 618.089, 817.419 623.497, 809.008 628.906, 800.596 634.314, 792.185 639.722, 783.774 645.131, 775.363 650.539, 766.951 655.948, 758.540 661.356, 750.129 662.225, 748.778 670.837, 753.859 679.450, 758.941 688.063, 764.022 696.675, 769.104 705.288, 774.185 713.901, 779.267 722.513, 784.348 731.126, 789.430 739.739, 794.511 748.351, 799.593 756.964, 804.674 762.933, 808.196 771.546, 813.277 780.158, 818.359 788.771, 823.440 797.384, 828.522 804.253, 832.575 " fill="none" stroke="rgb(0, 119, 0)" stroke-linecap="butt" stroke-linejoin="round" stroke-opacity="1.0" stroke-width="3.0" />
            <path d=" M 804.253, 832.575 804.892, 822.595 804.951, 821.661 805.590, 811.682 806.228, 801.702 806.449, 798.254 807.087, 788.274 807.726, 778.294 807.794, 777.235 808.161, 771.491 799.573, 766.368 798.832, 765.926 796.837, 764.737 793.721, 762.878 785.133, 757.755 776.544, 752.632 767.956, 747.509 759.368, 742.386 750.780, 737.264 742.192, 732.141 733.604, 727.018 728.734, 724.113 720.146, 718.990 711.557, 713.867 702.969, 708.745 694.381, 703.622 690.945, 701.572 682.356, 696.449 678.557, 694.183 675.763, 698.560 670.384, 706.990 665.529, 714.596 660.149, 723.026 658.874, 725.023 654.109, 732.489 648.729, 740.919 647.048, 743.553 641.668, 751.983 636.288, 760.412 631.253, 768.303 630.164, 770.008 624.784, 778.438 623.848, 779.905 618.468, 788.334 613.088, 796.764 611.866, 798.680 606.486, 807.109 605.500, 808.654 602.999, 812.573 599.634, 821.990 598.959, 823.880 595.594, 833.297 592.229, 842.714 588.865, 852.131 585.500, 861.548 585.196, 862.399 581.832, 871.816 580.230, 876.298 588.909, 881.266 597.588, 886.233 606.267, 891.201 614.945, 896.169 623.624, 901.137 632.303, 906.104 640.982, 911.072 649.661, 916.040 658.339, 921.008 661.511, 922.823 670.190, 927.791 678.465, 932.528 686.619, 937.195 695.298, 942.163 703.987, 947.136 712.665, 952.104 718.790, 955.610 724.495, 947.397 730.200, 939.184 735.905, 930.971 741.610, 922.758 747.315, 914.545 753.020, 906.332 758.970, 897.765 764.675, 889.552 765.633, 888.174 771.337, 879.961 777.042, 871.748 778.171, 870.122 783.876, 861.909 785.919, 858.969 791.624, 850.756 797.329, 842.543 803.034, 834.330 804.253, 832.575 " fill="none" stroke="rgb(0, 119, 0)" stroke-linecap="butt" stroke-linejoin="round" stroke-opacity="1.0" stroke-width="3.0" />
            <path d=" M 718.790, 955.610 720.341, 945.731 721.893, 935.852 723.445, 925.973 724.996, 916.094 726.548, 906.215 728.100, 896.336 729.711, 886.079 " fill="none" stroke="rgb(0, 119, 0)" stroke-linecap="butt" stroke-linejoin="round" stroke-opacity="1.0" stroke-width="3.0" />
            <path d=" M 602.999, 812.573 611.649, 817.591 620.298, 822.609 628.948, 827.626 637.598, 832.644 646.248, 837.662 654.898, 842.680 663.548, 847.698 672.198, 852.716 680.848, 857.733 689.498, 862.751 698.148, 867.769 706.798, 872.787 715.588, 877.886 724.237, 882.904 729.711, 886.079 735.360, 877.827 741.009, 869.576 746.658, 861.324 752.308, 853.073 757.957, 844.821 763.606, 836.570 769.255, 828.319 774.905, 820.067 780.554, 811.816 786.203, 803.564 791.852, 795.313 797.501, 787.061 803.151, 778.810 808.161, 771.491 " fill="none" stroke="rgb(0, 119, 0)" stroke-linecap="butt" stroke-linejoin="round" stroke-opacity="1.0" stroke-width="3.0" />
            <path d=" M 679.097, 527.997 675.223, 537.216 671.348, 546.435 667.473, 555.654 663.599, 564.873 659.724, 574.091 655.849, 583.310 654.175, 587.294 650.300, 596.513 647.505, 603.162 645.232, 608.572 " fill="none" stroke="rgb(0, 119, 0)" stroke-linecap="butt" stroke-linejoin="round" stroke-opacity="1.0" stroke-width="3.0" />
            <path d=" M 481.651, 873.985 486.898, 865.472 492.145, 856.959 497.392, 848.446 502.638, 839.933 507.885, 831.420 513.132, 822.907 518.379, 814.394 523.626, 805.881 528.872, 797.368 534.119, 788.855 539.366, 780.342 544.613, 771.829 549.859, 763.316 555.106, 754.803 560.353, 746.290 565.600, 737.777 568.136, 733.662 573.383, 725.149 578.629, 716.636 583.876, 708.123 589.123, 699.610 594.370, 691.097 599.617, 682.584 604.863, 674.071 610.110, 665.558 615.357, 657.045 620.604, 648.532 625.850, 640.019 631.097, 631.506 636.344, 622.993 641.784, 614.166 645.232, 608.572 653.795, 613.736 662.358, 618.901 670.921, 624.065 679.485, 629.230 688.048, 634.395 696.611, 639.559 705.174, 644.724 713.737, 649.888 721.245, 654.417 729.809, 659.581 738.372, 664.746 746.935, 669.910 755.498, 675.075 764.061, 680.240 772.624, 685.404 781.187, 690.569 789.750, 695.733 798.314, 700.898 806.877, 706.062 815.440, 711.227 824.924, 716.947 833.488, 722.112 842.051, 727.276 842.399, 727.486 850.962, 732.651 859.525, 737.816 868.088, 742.980 876.651, 748.145 885.215, 753.309 893.778, 758.474 902.341, 763.638 907.421, 766.703 915.984, 771.867 924.547, 777.032 933.111, 782.196 936.655, 784.334 " fill="none" stroke="rgb(0, 119, 0)" stroke-linecap="butt" stroke-linejoin="round" stroke-opacity="1.0" stroke-width="3.0" />
            <path d=" M 936.655, 784.334 935.353, 774.419 934.052, 764.504 932.750, 754.589 931.449, 744.674 930.147, 734.759 928.846, 724.844 927.544, 714.929 926.242, 705.014 924.941, 695.100 923.639, 685.185 922.611, 677.350 914.086, 672.122 905.562, 666.894 897.037, 661.665 888.513, 656.437 879.989, 651.209 872.645, 646.705 864.121, 641.477 855.596, 636.249 847.072, 631.020 838.547, 625.792 830.023, 620.564 821.499, 615.336 812.974, 610.107 806.231, 605.972 797.707, 600.743 789.182, 595.515 780.658, 590.287 772.133, 585.059 767.600, 582.278 759.075, 577.050 750.551, 571.822 744.894, 568.352 736.370, 563.124 727.845, 557.896 719.321, 552.667 710.797, 547.439 702.272, 542.211 693.748, 536.983 685.223, 531.755 679.097, 527.997 673.874, 536.525 668.651, 545.053 663.428, 553.580 658.205, 562.108 652.982, 570.635 647.760, 579.163 645.863, 582.259 640.640, 590.787 636.960, 596.795 631.737, 605.323 630.489, 607.362 625.266, 615.890 620.043, 624.417 614.820, 632.945 609.597, 641.473 607.829, 644.359 602.606, 652.887 601.673, 654.411 596.450, 662.938 591.667, 670.748 586.444, 679.275 581.221, 687.803 580.503, 688.976 575.280, 697.503 573.600, 700.246 568.377, 708.774 563.154, 717.302 558.160, 725.456 557.096, 727.193 551.873, 735.720 550.922, 737.273 545.699, 745.800 540.476, 754.328 539.211, 756.394 534.815, 765.375 533.962, 767.117 529.566, 776.099 526.658, 782.038 522.262, 791.020 517.866, 800.001 513.469, 808.983 509.073, 817.965 508.793, 818.537 504.396, 827.519 500.000, 836.500 495.603, 845.482 491.207, 854.464 486.810, 863.445 482.414, 872.427 481.651, 873.985 490.350, 878.917 499.049, 883.850 507.748, 888.783 516.447, 893.715 525.146, 898.648 533.844, 903.580 542.543, 908.513 551.242, 913.446 559.941, 918.378 568.640, 923.311 577.339, 928.243 586.037, 933.176 594.736, 938.108 603.435, 943.041 612.134, 947.974 620.833, 952.906 629.531, 957.839 638.230, 962.771 646.929, 967.704 650.488, 969.722 652.443, 970.831 661.142, 975.763 669.841, 980.696 677.093, 984.808 685.792, 989.741 694.491, 994.673 695.490, 995.240 701.181, 998.467 702.261, 999.079 710.960, 1004.012 719.659, 1008.944 727.275, 1013.263 735.973, 1018.196 744.672, 1023.128 753.371, 1028.061 758.846, 1031.165 764.691, 1023.051 770.536, 1014.938 776.381, 1006.824 782.226, 998.710 788.071, 990.596 793.916, 982.482 799.761, 974.368 805.606, 966.254 811.451, 958.140 817.296, 950.026 823.141, 941.912 826.639, 937.057 832.484, 928.943 838.329, 920.829 844.174, 912.715 846.205, 909.895 852.050, 901.781 854.099, 898.936 859.944, 890.822 865.789, 882.708 871.634, 874.594 877.479, 866.481 883.324, 858.367 889.169, 850.253 890.629, 848.227 896.474, 840.113 902.319, 831.999 908.164, 823.885 912.056, 818.481 917.901, 810.367 923.746, 802.254 929.591, 794.140 935.436, 786.026 936.655, 784.334 " fill="none" stroke="rgb(0, 119, 0)" stroke-linecap="butt" stroke-linejoin="round" stroke-opacity="1.0" stroke-width="3.0" />
            <path d=" M 758.846, 1031.165 759.841, 1021.215 760.835, 1011.265 761.830, 1001.314 762.824, 991.364 763.819, 981.413 764.813, 971.463 765.808, 961.512 766.803, 951.562 767.797, 941.612 768.792, 931.661 769.786, 921.711 770.781, 911.760 771.775, 901.810 772.040, 899.166 772.299, 896.577 772.726, 892.302 " fill="none" stroke="rgb(0, 119, 0)" stroke-linecap="butt" stroke-linejoin="round" stroke-opacity="1.0" stroke-width="3.0" />
            <path d=" M 539.211, 756.394 547.854, 761.424 556.496, 766.454 565.139, 771.484 573.782, 776.514 582.425, 781.545 591.067, 786.575 599.710, 791.605 608.353, 796.635 611.866, 798.680 620.508, 803.710 629.151, 808.740 637.794, 813.770 646.437, 818.800 655.079, 823.831 663.722, 828.861 672.365, 833.891 681.008, 838.921 689.650, 843.951 698.293, 848.981 706.936, 854.012 715.579, 859.042 724.759, 864.385 733.402, 869.415 742.045, 874.446 750.688, 879.476 759.331, 884.506 765.633, 888.174 772.726, 892.302 778.445, 884.099 784.165, 875.897 789.885, 867.694 795.605, 859.491 801.324, 851.289 807.044, 843.086 812.764, 834.883 818.484, 826.680 820.236, 824.167 825.956, 815.965 831.675, 807.762 837.395, 799.559 841.601, 793.527 847.321, 785.325 853.040, 777.122 858.760, 768.919 864.480, 760.716 870.200, 752.514 875.919, 744.311 877.505, 742.036 883.225, 733.834 888.945, 725.631 894.665, 717.428 900.384, 709.225 906.104, 701.023 911.824, 692.820 917.543, 684.617 922.611, 677.350 " fill="none" stroke="rgb(0, 119, 0)" stroke-linecap="butt" stroke-linejoin="round" stroke-opacity="1.0" stroke-width="3.0" />
            <path d=" M 676.943, 1285.144 682.946, 1277.147 688.949, 1269.149 694.952, 1261.151 700.955, 1253.154 706.958, 1245.156 712.843, 1237.316 718.847, 1229.318 724.850, 1221.320 730.853, 1213.323 736.856, 1205.325 742.859, 1197.327 748.862, 1189.330 754.865, 1181.332 760.868, 1173.334 766.871, 1165.337 772.875, 1157.339 775.220, 1154.214 781.223, 1146.216 787.227, 1138.219 793.230, 1130.221 799.233, 1122.223 805.236, 1114.226 811.239, 1106.228 817.242, 1098.230 823.245, 1090.233 829.248, 1082.235 835.251, 1074.237 841.255, 1066.240 847.258, 1058.242 853.261, 1050.244 859.119, 1042.440 865.122, 1034.443 867.215, 1031.654 873.218, 1023.656 879.221, 1015.658 885.225, 1007.661 891.228, 999.663 897.231, 991.665 903.234, 983.668 909.237, 975.670 915.240, 967.672 921.243, 959.675 924.328, 955.565 923.436, 945.605 922.544, 935.645 921.653, 925.685 920.761, 915.725 919.870, 905.765 918.978, 895.804 918.320, 888.454 917.428, 878.494 916.537, 868.534 916.071, 863.331 915.180, 853.371 914.288, 843.411 913.396, 833.450 912.731, 826.014 912.630, 824.887 912.056, 818.481 911.165, 808.521 910.273, 798.561 909.382, 788.601 908.490, 778.641 907.598, 768.681 907.421, 766.703 906.796, 759.722 898.236, 754.553 889.675, 749.385 881.115, 744.216 877.505, 742.036 868.945, 736.868 860.384, 731.699 851.824, 726.530 843.263, 721.361 842.479, 720.887 833.918, 715.718 833.292, 715.340 828.133, 712.225 819.572, 707.056 811.012, 701.887 802.451, 696.719 793.890, 691.550 785.330, 686.381 776.769, 681.212 768.209, 676.043 762.520, 672.608 753.959, 667.439 745.398, 662.270 736.838, 657.101 728.277, 651.933 724.361, 649.568 715.801, 644.399 707.240, 639.230 701.936, 636.027 693.375, 630.859 684.815, 625.690 676.254, 620.521 667.693, 615.352 659.133, 610.183 650.572, 605.014 647.505, 603.162 638.945, 597.994 636.960, 596.795 628.400, 591.626 620.060, 586.591 618.801, 585.831 610.241, 580.662 601.680, 575.493 593.120, 570.324 584.559, 565.156 575.999, 559.987 567.438, 554.818 558.878, 549.649 550.317, 544.480 547.904, 543.023 542.077, 551.150 536.250, 559.277 530.424, 567.404 524.597, 575.531 518.770, 583.658 515.000, 588.917 509.174, 597.044 503.347, 605.171 497.520, 613.298 496.736, 614.392 490.909, 622.519 485.083, 630.646 479.256, 638.773 476.311, 642.882 470.484, 651.009 464.657, 659.136 458.848, 667.239 457.644, 668.918 451.818, 677.045 450.660, 678.659 445.656, 687.317 440.652, 695.975 435.648, 704.633 433.312, 708.675 428.307, 717.333 423.303, 725.991 418.299, 734.649 413.295, 743.307 408.291, 751.965 403.287, 760.622 398.283, 769.280 393.279, 777.938 388.275, 786.596 383.271, 795.254 378.267, 803.912 373.262, 812.570 370.191, 817.884 365.187, 826.542 360.183, 835.200 355.179, 843.858 350.174, 852.516 346.595, 858.709 341.590, 867.367 336.586, 876.025 331.582, 884.683 326.578, 893.341 321.466, 902.186 316.462, 910.844 311.458, 919.502 306.454, 928.159 301.450, 936.817 296.446, 945.475 291.441, 954.133 286.437, 962.791 281.433, 971.449 276.429, 980.107 271.425, 988.765 266.421, 997.423 261.417, 1006.080 256.413, 1014.738 251.409, 1023.396 246.405, 1032.054 241.400, 1040.712 236.687, 1048.867 " fill="none" stroke="rgb(0, 119, 0)" stroke-linecap="butt" stroke-linejoin="round" stroke-opacity="1.0" stroke-width="3.0" />
            <path d=" M 450.660, 678.659 459.293, 683.706 467.926, 688.753 476.559, 693.800 485.192, 698.847 493.825, 703.894 502.458, 708.941 511.091, 713.987 517.522, 717.747 526.155, 722.794 533.246, 726.939 541.879, 731.986 550.512, 737.033 550.922, 737.273 559.555, 742.319 568.188, 747.366 576.821, 752.413 585.454, 757.460 594.087, 762.507 602.720, 767.554 611.353, 772.601 619.986, 777.647 623.848, 779.905 632.481, 784.952 641.114, 789.999 649.747, 795.045 658.380, 800.092 667.013, 805.139 675.646, 810.186 684.279, 815.233 692.912, 820.280 701.545, 825.327 710.178, 830.374 718.811, 835.420 727.444, 840.467 737.153, 846.143 745.786, 851.190 754.419, 856.237 763.052, 861.284 771.685, 866.330 778.171, 870.122 786.805, 875.169 787.114, 875.350 788.221, 875.997 796.854, 881.044 805.487, 886.091 814.120, 891.138 822.753, 896.185 831.386, 901.232 840.019, 906.278 846.205, 909.895 854.838, 914.942 863.471, 919.989 872.104, 925.036 880.737, 930.082 889.370, 935.129 898.003, 940.176 906.636, 945.223 915.269, 950.270 924.328, 955.565 " fill="none" stroke="rgb(0, 119, 0)" stroke-linecap="butt" stroke-linejoin="round" stroke-opacity="1.0" stroke-width="3.0" />
            <path d=" M 652.516, 1317.687 654.143, 1307.820 655.771, 1297.954 657.398, 1288.087 659.025, 1278.220 659.433, 1275.747 661.060, 1265.880 662.688, 1256.014 664.315, 1246.147 665.942, 1236.280 667.570, 1226.414 669.197, 1216.547 670.824, 1206.680 672.452, 1196.814 674.079, 1186.947 675.706, 1177.080 677.334, 1167.213 678.961, 1157.347 680.588, 1147.480 682.216, 1137.613 683.843, 1127.747 685.470, 1117.880 687.098, 1108.013 687.513, 1105.499 689.140, 1095.632 690.767, 1085.765 692.395, 1075.899 694.022, 1066.032 695.270, 1058.463 " fill="none" stroke="rgb(0, 119, 0)" stroke-linecap="butt" stroke-linejoin="round" stroke-opacity="1.0" stroke-width="3.0" />
            <path d=" M 357.825, 869.283 366.548, 874.173 375.271, 879.063 383.994, 883.953 392.716, 888.843 401.439, 893.734 410.162, 898.624 412.122, 899.723 420.845, 904.613 429.568, 909.503 438.290, 914.393 447.013, 919.284 455.736, 924.174 464.459, 929.064 473.181, 933.954 481.904, 938.844 490.627, 943.735 499.350, 948.625 508.072, 953.515 516.795, 958.405 525.518, 963.295 534.240, 968.186 542.963, 973.076 551.686, 977.966 560.409, 982.856 569.131, 987.746 577.854, 992.637 586.577, 997.527 595.300, 1002.417 604.022, 1007.307 612.745, 1012.197 621.468, 1017.088 630.190, 1021.978 638.913, 1026.868 647.636, 1031.758 656.359, 1036.648 665.081, 1041.539 670.490, 1044.571 679.213, 1049.461 687.935, 1054.351 695.270, 1058.463 701.049, 1050.302 706.828, 1042.141 712.606, 1033.979 718.385, 1025.818 724.164, 1017.657 727.275, 1013.263 733.053, 1005.102 738.832, 996.940 744.611, 988.779 750.389, 980.618 756.168, 972.457 761.947, 964.295 767.725, 956.134 773.504, 947.973 779.283, 939.811 785.061, 931.650 790.840, 923.489 796.619, 915.327 802.397, 907.166 808.176, 899.005 813.955, 890.844 819.733, 882.682 825.512, 874.521 831.291, 866.360 837.070, 858.198 842.848, 850.037 848.627, 841.876 854.406, 833.714 860.184, 825.553 865.963, 817.392 871.742, 809.231 877.520, 801.069 883.299, 792.908 889.078, 784.747 894.856, 776.585 900.635, 768.424 906.796, 759.722 " fill="none" stroke="rgb(0, 119, 0)" stroke-linecap="butt" stroke-linejoin="round" stroke-opacity="1.0" stroke-width="3.0" />
            <path d=" M 215.661, 1085.245 221.160, 1076.892 226.658, 1068.540 232.157, 1060.187 237.655, 1051.834 238.846, 1050.025 244.344, 1041.672 249.843, 1033.320 255.341, 1024.967 260.840, 1016.614 266.338, 1008.262 271.836, 999.909 277.335, 991.556 282.833, 983.204 288.332, 974.851 293.830, 966.498 299.328, 958.146 304.827, 949.793 310.325, 941.440 315.824, 933.088 321.322, 924.735 326.821, 916.382 332.230, 908.165 337.729, 899.812 343.227, 891.459 348.725, 883.107 354.224, 874.754 357.825, 869.283 362.859, 860.642 367.893, 852.001 372.927, 843.361 377.961, 834.720 382.995, 826.080 383.409, 825.370 388.443, 816.729 393.477, 808.089 398.511, 799.448 403.545, 790.808 408.579, 782.167 413.613, 773.527 418.647, 764.886 423.681, 756.246 428.714, 747.605 433.748, 738.964 438.782, 730.324 443.816, 721.683 448.850, 713.043 453.884, 704.402 458.918, 695.762 463.952, 687.121 468.986, 678.481 470.253, 676.306 475.287, 667.665 480.321, 659.025 485.355, 650.384 490.389, 641.744 495.423, 633.103 500.457, 624.463 505.491, 615.822 510.525, 607.181 515.559, 598.541 520.593, 589.900 525.627, 581.260 530.661, 572.619 535.695, 563.979 540.729, 555.338 545.763, 546.698 547.904, 543.023 " fill="none" stroke="rgb(0, 119, 0)" stroke-linecap="butt" stroke-linejoin="round" stroke-opacity="1.0" stroke-width="3.0" />
            <path d=" M 576.441, 324.461 568.405, 330.413 560.369, 336.365 552.333, 342.317 544.297, 348.268 537.080, 353.614 529.044, 359.566 526.166, 361.698 521.328, 370.450 516.491, 379.202 511.653, 387.954 506.816, 396.706 501.978, 405.458 497.141, 414.210 492.303, 422.963 487.466, 431.715 482.628, 440.467 477.790, 449.219 472.953, 457.971 468.115, 466.723 463.278, 475.475 458.440, 484.227 453.603, 492.979 448.765, 501.731 443.928, 510.483 439.090, 519.235 434.253, 527.987 429.415, 536.739 424.578, 545.491 419.740, 554.243 414.903, 562.995 410.065, 571.747 405.228, 580.499 400.390, 589.251 396.694, 595.938 391.857, 604.690 387.019, 613.442 382.182, 622.194 381.136, 624.086 385.694, 626.757 393.717, 631.458 402.344, 636.514 410.972, 641.569 419.600, 646.625 425.849, 650.286 431.106, 653.367 439.734, 658.422 448.361, 663.478 456.989, 668.534 457.644, 668.918 466.272, 673.973 470.253, 676.306 478.881, 681.362 487.509, 686.417 496.137, 691.473 504.765, 696.528 513.393, 701.584 522.021, 706.640 523.630, 707.583 527.052, 709.588 535.679, 714.643 539.384, 716.814 545.564, 720.435 554.192, 725.491 557.096, 727.193 565.724, 732.248 568.136, 733.662 576.764, 738.718 585.392, 743.773 594.020, 748.829 602.647, 753.884 611.275, 758.940 619.903, 763.996 628.531, 769.051 630.164, 770.008 638.792, 775.064 642.372, 777.162 643.465, 775.462 648.871, 767.049 654.277, 758.636 659.319, 750.789 663.630, 744.080 666.407, 739.759 671.813, 731.346 677.218, 722.933 677.868, 721.922 683.274, 713.509 688.141, 705.936 690.945, 701.572 696.351, 693.159 701.756, 684.746 707.162, 676.333 712.568, 667.921 717.719, 659.905 721.245, 654.417 724.361, 649.568 729.767, 641.155 733.498, 635.349 738.904, 626.936 744.310, 618.523 749.716, 610.110 755.122, 601.697 760.527, 593.284 765.933, 584.872 767.600, 582.278 773.006, 573.865 774.795, 571.081 780.201, 562.668 785.607, 554.255 791.012, 545.843 796.418, 537.430 800.107, 531.690 801.309, 521.762 802.511, 511.835 803.713, 501.907 804.915, 491.980 806.118, 482.052 807.320, 472.125 807.637, 469.510 799.166, 464.196 790.695, 458.881 782.224, 453.567 773.753, 448.252 765.282, 442.938 756.811, 437.623 748.340, 432.308 739.870, 426.994 731.399, 421.679 722.928, 416.365 714.457, 411.050 705.986, 405.736 697.515, 400.421 689.044, 395.107 680.573, 389.792 672.102, 384.478 663.632, 379.163 655.161, 373.849 646.690, 368.534 638.219, 363.220 629.748, 357.905 621.277, 352.591 612.806, 347.276 604.335, 341.962 602.076, 340.544 593.605, 335.229 585.134, 329.915 576.441, 324.461 " fill="none" stroke="rgb(0, 119, 0)" stroke-linecap="butt" stroke-linejoin="round" stroke-opacity="1.0" stroke-width="3.0" />
            <path d=" M 526.166, 361.698 530.953, 364.669 539.450, 369.942 547.947, 375.214 556.444, 380.487 564.941, 385.760 573.438, 391.033 581.935, 396.305 590.432, 401.578 598.929, 406.851 607.426, 412.123 615.923, 417.396 624.420, 422.669 632.917, 427.942 641.414, 433.214 649.911, 438.487 658.408, 443.760 666.905, 449.032 675.402, 454.305 683.899, 459.578 692.396, 464.851 700.893, 470.123 709.389, 475.396 717.886, 480.669 726.383, 485.942 734.880, 491.214 743.377, 496.487 751.874, 501.760 760.371, 507.032 768.868, 512.305 777.365, 517.578 785.862, 522.851 794.359, 528.123 800.107, 531.690 " fill="none" stroke="rgb(0, 119, 0)" stroke-linecap="butt" stroke-linejoin="round" stroke-opacity="1.0" stroke-width="3.0" />
            <path d=" M 642.372, 777.162 645.390, 767.628 648.407, 758.094 651.425, 748.560 654.442, 739.026 657.460, 729.493 658.874, 725.023 661.892, 715.489 664.909, 705.955 667.927, 696.422 670.944, 686.888 672.230, 682.824 " fill="none" stroke="rgb(0, 119, 0)" stroke-linecap="butt" stroke-linejoin="round" stroke-opacity="1.0" stroke-width="3.0" />
            <path d=" M 450.126, 550.170 458.712, 555.298 467.297, 560.425 475.882, 565.553 484.467, 570.681 493.053, 575.808 501.638, 580.936 510.223, 586.064 515.000, 588.917 523.586, 594.044 532.171, 599.172 540.756, 604.300 549.341, 609.427 557.927, 614.555 566.512, 619.683 573.822, 624.049 582.407, 629.176 589.832, 633.611 598.417, 638.738 607.002, 643.866 607.829, 644.359 616.414, 649.487 624.999, 654.615 633.584, 659.742 642.170, 664.870 650.755, 669.998 659.340, 675.125 667.926, 680.253 672.230, 682.824 677.589, 674.381 682.949, 665.939 688.308, 657.496 693.667, 649.053 695.337, 646.423 700.696, 637.980 701.936, 636.027 707.295, 627.585 711.013, 621.727 716.372, 613.285 721.731, 604.842 727.091, 596.399 732.450, 587.957 737.809, 579.514 743.168, 571.071 744.894, 568.352 750.253, 559.909 752.043, 557.091 757.402, 548.648 762.761, 540.205 768.120, 531.762 773.480, 523.320 778.839, 514.877 784.198, 506.434 789.557, 497.992 794.916, 489.549 800.276, 481.106 805.635, 472.664 807.637, 469.510 " fill="none" stroke="rgb(0, 119, 0)" stroke-linecap="butt" stroke-linejoin="round" stroke-opacity="1.0" stroke-width="3.0" />
            <path d=" M 381.136, 624.086 387.959, 616.776 394.783, 609.465 396.001, 608.160 402.824, 600.849 409.648, 593.539 416.471, 586.228 422.505, 579.763 429.329, 572.453 436.152, 565.142 442.975, 557.832 449.799, 550.521 450.126, 550.170 453.866, 543.488 458.750, 534.761 463.633, 526.035 468.517, 517.308 473.400, 508.582 478.284, 499.856 483.167, 491.129 488.051, 482.403 492.935, 473.676 497.818, 464.950 502.702, 456.224 507.585, 447.497 512.469, 438.771 517.353, 430.044 522.236, 421.318 527.120, 412.591 532.003, 403.865 536.887, 395.138 541.771, 386.412 546.654, 377.686 551.538, 368.959 556.421, 360.233 561.305, 351.506 566.189, 342.780 571.072, 334.053 576.441, 324.461 " fill="none" stroke="rgb(0, 119, 0)" stroke-linecap="butt" stroke-linejoin="round" stroke-opacity="1.0" stroke-width="3.0" />
            <path d=" M 172.619, 705.991 181.321, 710.919 190.022, 715.847 198.724, 720.775 207.425, 725.703 216.127, 730.631 224.828, 735.559 233.529, 740.487 242.231, 745.415 244.258, 746.563 252.959, 751.491 261.661, 756.419 270.362, 761.347 279.064, 766.275 287.765, 771.203 296.466, 776.131 301.367, 778.906 309.148, 783.313 315.995, 787.190 324.696, 792.118 333.398, 797.046 342.099, 801.974 345.420, 803.855 354.122, 808.783 362.823, 813.711 370.191, 817.884 378.892, 822.812 383.409, 825.370 392.110, 830.298 400.812, 835.226 409.513, 840.154 418.215, 845.082 426.916, 850.010 435.617, 854.938 436.910, 855.670 438.545, 856.596 447.247, 861.524 456.059, 866.515 456.521, 866.777 465.223, 871.705 473.924, 876.633 482.625, 881.561 491.327, 886.489 500.028, 891.417 508.730, 896.345 517.431, 901.273 526.133, 906.201 534.834, 911.129 543.535, 916.057 552.237, 920.985 560.938, 925.913 569.640, 930.841 578.341, 935.769 587.043, 940.697 595.744, 945.625 604.445, 950.553 613.147, 955.481 621.848, 960.409 630.550, 965.337 639.251, 970.265 649.056, 975.818 652.443, 970.831 658.063, 962.559 663.682, 954.287 669.302, 946.016 674.922, 937.744 678.465, 932.528 684.085, 924.256 686.572, 920.596 692.191, 912.324 697.811, 904.053 703.430, 895.781 709.009, 887.570 714.628, 879.298 715.588, 877.886 718.175, 874.078 723.794, 865.806 724.759, 864.385 730.379, 856.114 735.999, 847.842 737.153, 846.143 742.772, 837.871 744.811, 834.871 750.430, 826.599 756.050, 818.328 761.669, 810.056 762.933, 808.196 768.446, 800.081 774.065, 791.809 779.685, 783.538 780.253, 782.702 785.872, 774.430 790.833, 767.128 793.721, 762.878 799.340, 754.606 804.960, 746.334 810.579, 738.063 816.199, 729.791 821.293, 722.292 824.924, 716.947 828.133, 712.225 833.752, 703.953 837.540, 698.378 843.159, 690.106 848.779, 681.835 854.399, 673.563 860.018, 665.291 865.638, 657.020 871.257, 648.748 872.645, 646.705 878.265, 638.433 880.050, 635.805 885.670, 627.533 891.290, 619.261 896.909, 610.990 902.529, 602.718 908.148, 594.446 913.768, 586.175 919.387, 577.903 925.007, 569.631 930.626, 561.360 936.246, 553.088 941.865, 544.816 947.485, 536.545 953.104, 528.273 959.122, 519.415 956.467, 509.774 953.813, 500.133 951.158, 490.492 948.504, 480.850 945.849, 471.209 943.195, 461.568 940.540, 451.927 937.885, 442.286 935.231, 432.644 933.826, 427.542 931.171, 417.901 930.707, 416.213 922.288, 410.817 913.868, 405.421 905.449, 400.025 897.030, 394.629 888.611, 389.233 880.192, 383.837 871.772, 378.441 863.353, 373.045 854.934, 367.649 846.515, 362.253 838.096, 356.857 829.677, 351.461 821.257, 346.065 812.838, 340.669 804.419, 335.273 796.000, 329.876 787.581, 324.480 779.161, 319.084 770.742, 313.688 762.323, 308.292 753.904, 302.896 745.485, 297.500 737.065, 292.104 728.646, 286.708 720.227, 281.312 711.808, 275.916 703.389, 270.520 694.970, 265.124 686.550, 259.728 678.131, 254.332 669.712, 248.936 661.293, 243.540 658.253, 241.591 649.833, 236.195 641.414, 230.799 632.995, 225.403 624.576, 220.007 619.860, 216.985 611.441, 211.589 603.022, 206.193 594.603, 200.797 586.183, 195.401 585.196, 194.768 576.777, 189.372 568.358, 183.976 559.938, 178.580 551.519, 173.183 543.100, 167.787 534.681, 162.391 533.426, 161.587 523.504, 162.828 513.581, 164.068 503.658, 165.308 493.735, 166.549 483.812, 167.789 473.890, 169.029 463.967, 170.270 454.044, 171.510 445.225, 172.612 " fill="none" stroke="rgb(0, 119, 0)" stroke-linecap="butt" stroke-linejoin="round" stroke-opacity="1.0" stroke-width="3.0" />
            <path d=" M 649.056, 975.818 650.488, 969.722 652.776, 959.987 655.064, 950.253 657.352, 940.518 659.640, 930.783 661.511, 922.823 663.799, 913.088 666.087, 903.354 668.375, 893.619 670.663, 883.884 672.950, 874.149 675.238, 864.414 677.526, 854.680 679.814, 844.945 682.102, 835.210 684.390, 825.476 686.678, 815.741 688.966, 806.006 691.254, 796.271 693.542, 786.536 695.830, 776.802 696.756, 772.862 " fill="none" stroke="rgb(0, 119, 0)" stroke-linecap="butt" stroke-linejoin="round" stroke-opacity="1.0" stroke-width="3.0" />
            <path d=" M 325.601, 554.019 334.215, 559.098 342.829, 564.177 351.443, 569.256 360.057, 574.335 368.671, 579.414 377.285, 584.494 385.899, 589.573 394.514, 594.652 396.694, 595.938 401.277, 598.640 409.344, 603.396 417.958, 608.475 426.572, 613.555 435.186, 618.634 443.800, 623.713 452.414, 628.792 461.029, 633.871 469.643, 638.950 476.311, 642.882 484.925, 647.961 493.539, 653.040 502.153, 658.119 510.767, 663.198 519.381, 668.277 527.995, 673.356 536.609, 678.436 539.957, 680.409 548.571, 685.489 555.795, 689.748 564.409, 694.827 573.023, 699.906 573.600, 700.246 582.214, 705.325 590.828, 710.404 599.442, 715.484 608.056, 720.563 616.670, 725.642 625.284, 730.721 633.898, 735.800 642.512, 740.879 647.048, 743.553 655.662, 748.633 659.319, 750.789 667.933, 755.868 676.547, 760.947 685.161, 766.026 693.776, 771.105 696.756, 772.862 702.241, 764.501 707.726, 756.139 713.210, 747.778 718.695, 739.416 724.180, 731.055 728.734, 724.113 734.219, 715.752 739.704, 707.390 745.189, 699.028 750.673, 690.667 755.804, 682.845 761.289, 674.484 762.520, 672.608 768.005, 664.246 771.757, 658.526 777.242, 650.165 782.727, 641.803 788.212, 633.442 793.696, 625.080 799.181, 616.719 804.666, 608.357 806.231, 605.972 811.716, 597.610 813.504, 594.884 818.989, 586.523 824.474, 578.161 829.959, 569.799 835.444, 561.438 840.929, 553.076 846.414, 544.715 851.899, 536.353 857.383, 527.992 862.868, 519.630 868.353, 511.269 873.838, 502.907 879.323, 494.546 884.808, 486.184 890.293, 477.822 895.778, 469.461 901.263, 461.099 906.748, 452.738 912.233, 444.376 917.718, 436.015 923.203, 427.653 928.688, 419.292 930.707, 416.213 " fill="none" stroke="rgb(0, 119, 0)" stroke-linecap="butt" stroke-linejoin="round" stroke-opacity="1.0" stroke-width="3.0" />
            <path d=" M 154.003, 695.447 161.720, 689.087 169.437, 682.727 177.153, 676.367 184.870, 670.007 192.587, 663.647 195.479, 661.263 203.196, 654.903 210.913, 648.543 218.630, 642.183 226.347, 635.823 234.063, 629.463 241.780, 623.102 249.497, 616.742 257.214, 610.382 264.931, 604.022 272.648, 597.662 280.364, 591.302 288.081, 584.942 295.798, 578.582 303.515, 572.222 311.232, 565.862 318.948, 559.502 325.601, 554.019 330.281, 545.182 334.961, 536.344 339.641, 527.507 344.321, 518.670 349.001, 509.833 353.681, 500.995 358.361, 492.158 363.041, 483.321 367.721, 474.484 372.401, 465.646 377.082, 456.809 381.762, 447.972 386.442, 439.135 391.122, 430.297 395.802, 421.460 400.482, 412.623 405.162, 403.786 409.842, 394.948 414.522, 386.111 419.202, 377.274 423.882, 368.437 428.562, 359.599 433.242, 350.762 437.922, 341.925 442.602, 333.088 447.283, 324.250 451.963, 315.413 456.643, 306.576 461.323, 297.739 466.003, 288.901 470.683, 280.064 475.363, 271.227 480.043, 262.390 484.723, 253.552 489.403, 244.715 494.083, 235.878 498.763, 227.041 503.443, 218.203 508.123, 209.366 512.803, 200.529 517.484, 191.692 522.164, 182.854 526.844, 174.017 533.426, 161.587 " fill="none" stroke="rgb(0, 119, 0)" stroke-linecap="butt" stroke-linejoin="round" stroke-opacity="1.0" stroke-width="3.0" />
            <path d=" M 688.260, 188.735 679.017, 192.552 669.774, 196.370 660.532, 200.187 651.289, 204.004 642.046, 207.822 632.804, 211.639 623.561, 215.456 619.860, 216.985 610.711, 220.763 605.864, 229.510 601.016, 238.256 596.168, 247.003 591.321, 255.749 586.473, 264.496 581.626, 273.242 578.521, 278.844 573.673, 287.591 568.825, 296.337 563.978, 305.083 559.130, 313.830 554.282, 322.576 549.435, 331.323 544.587, 340.069 539.740, 348.816 537.080, 353.614 532.233, 362.360 530.953, 364.669 526.106, 373.415 521.258, 382.162 516.410, 390.908 511.563, 399.655 506.715, 408.401 501.867, 417.148 497.020, 425.894 492.172, 434.641 487.325, 443.387 482.477, 452.134 477.629, 460.880 472.782, 469.626 467.934, 478.373 463.086, 487.119 458.239, 495.866 453.391, 504.612 448.543, 513.359 443.696, 522.105 438.848, 530.852 434.001, 539.598 429.153, 548.345 424.305, 557.091 419.458, 565.837 414.610, 574.584 409.762, 583.330 404.915, 592.077 401.277, 598.640 396.430, 607.386 396.001, 608.160 391.154, 616.906 386.306, 625.652 385.694, 626.757 380.846, 635.503 375.999, 644.250 371.151, 652.996 366.303, 661.743 362.939, 667.814 358.091, 676.560 353.243, 685.307 348.396, 694.053 343.548, 702.800 338.700, 711.546 333.853, 720.292 329.005, 729.039 324.158, 737.785 319.310, 746.532 314.462, 755.278 309.615, 764.025 304.767, 772.771 301.367, 778.906 296.519, 787.652 291.672, 796.399 286.824, 805.145 281.976, 813.892 277.129, 822.638 272.281, 831.385 267.433, 840.131 262.586, 848.878 257.738, 857.624 253.854, 864.632 261.498, 868.878 270.240, 873.733 278.982, 878.589 287.724, 883.444 292.132, 885.893 300.874, 890.748 309.616, 895.604 318.358, 900.459 321.466, 902.186 330.208, 907.041 332.230, 908.165 340.972, 913.020 349.714, 917.876 358.456, 922.731 367.198, 927.587 375.940, 932.442 384.682, 937.298 393.424, 942.154 402.167, 947.009 410.909, 951.865 419.651, 956.720 428.393, 961.576 437.135, 966.432 445.877, 971.287 454.619, 976.143 463.361, 980.998 472.103, 985.854 480.845, 990.709 489.587, 995.565 498.329, 1000.421 507.071, 1005.276 515.813, 1010.132 524.555, 1014.987 533.297, 1019.843 542.039, 1024.699 550.781, 1029.554 559.523, 1034.410 568.265, 1039.265 577.007, 1044.121 585.749, 1048.976 594.491, 1053.832 603.234, 1058.688 611.976, 1063.543 620.718, 1068.399 629.460, 1073.254 638.202, 1078.110 646.944, 1082.966 655.686, 1087.821 664.428, 1092.677 673.170, 1097.532 681.912, 1102.388 687.513, 1105.499 696.255, 1110.354 704.997, 1115.210 713.739, 1120.065 722.481, 1124.921 726.372, 1127.082 735.114, 1131.938 743.856, 1136.793 752.598, 1141.649 761.340, 1146.505 770.082, 1151.360 775.220, 1154.214 783.962, 1159.070 792.704, 1163.925 801.446, 1168.781 810.188, 1173.636 818.930, 1178.492 827.673, 1183.348 836.415, 1188.203 845.157, 1193.059 853.899, 1197.914 859.422, 1200.982 860.746, 1201.718 866.926, 1193.855 870.255, 1189.620 876.434, 1181.758 882.614, 1173.896 888.793, 1166.034 894.973, 1158.172 901.152, 1150.310 907.332, 1142.447 913.512, 1134.585 919.691, 1126.723 925.871, 1118.861 932.050, 1110.999 938.230, 1103.137 944.409, 1095.275 950.589, 1087.413 956.768, 1079.550 962.948, 1071.688 969.128, 1063.826 975.307, 1055.964 981.487, 1048.102 987.666, 1040.240 993.846, 1032.378 1000.025, 1024.516 1006.205, 1016.653 1012.385, 1008.791 1018.564, 1000.929 1024.744, 993.067 1030.923, 985.205 1037.103, 977.343 1043.282, 969.481 1049.462, 961.619 1055.642, 953.756 1061.821, 945.894 1068.001, 938.032 1074.180, 930.170 1080.360, 922.308 1086.539, 914.446 1092.719, 906.584 1098.899, 898.722 1105.078, 890.859 1111.258, 882.997 1117.437, 875.135 1123.617, 867.273 1129.796, 859.411 1135.976, 851.549 1142.156, 843.687 1148.335, 835.825 1154.515, 827.963 1160.694, 820.100 1166.874, 812.238 1173.053, 804.376 1179.233, 796.514 1185.412, 788.652 1191.592, 780.790 1197.772, 772.928 1203.951, 765.066 1210.131, 757.203 1216.310, 749.341 1222.490, 741.479 1228.669, 733.617 1234.849, 725.755 1241.029, 717.893 1247.208, 710.031 1253.388, 702.169 1259.567, 694.306 1265.747, 686.444 1271.926, 678.582 1278.106, 670.720 1284.286, 662.858 1290.058, 655.514 1283.692, 647.802 1277.326, 640.090 1270.960, 632.378 1264.594, 624.666 1258.229, 616.954 1251.863, 609.242 1245.497, 601.530 1239.131, 593.818 1232.765, 586.106 1226.399, 578.394 1220.033, 570.682 1213.667, 562.969 1207.301, 555.257 1200.936, 547.545 1194.570, 539.833 1188.204, 532.121 1184.083, 527.130 1177.718, 519.418 1171.352, 511.706 1164.986, 503.994 1158.620, 496.282 1153.911, 490.577 1145.520, 485.138 1137.129, 479.698 1128.737, 474.259 1120.346, 468.820 1111.955, 463.380 1103.563, 457.941 1095.172, 452.501 1086.781, 447.062 1078.390, 441.623 1069.998, 436.183 1061.607, 430.744 1053.216, 425.305 1044.825, 419.865 1036.433, 414.426 1028.042, 408.987 1019.651, 403.547 1011.259, 398.108 1002.868, 392.669 994.477, 387.229 986.086, 381.790 977.694, 376.351 969.303, 370.911 960.912, 365.472 952.521, 360.033 944.129, 354.593 935.738, 349.154 927.347, 343.714 918.955, 338.275 910.564, 332.836 902.173, 327.396 893.782, 321.957 885.390, 316.518 876.999, 311.078 868.608, 305.639 860.217, 300.200 851.825, 294.760 843.434, 289.321 835.043, 283.882 826.651, 278.442 818.260, 273.003 809.869, 267.564 801.478, 262.124 793.086, 256.685 784.695, 251.246 776.304, 245.806 767.912, 240.367 759.521, 234.927 751.130, 229.488 742.739, 224.049 734.347, 218.609 725.956, 213.170 717.565, 207.731 709.174, 202.292 700.782, 196.852 688.260, 188.735 " fill="none" stroke="rgb(0, 119, 0)" stroke-linecap="butt" stroke-linejoin="round" stroke-opacity="1.0" stroke-width="3.0" />
            <path d=" M 610.711, 220.763 619.134, 226.154 627.557, 231.544 635.980, 236.934 644.403, 242.324 652.826, 247.715 661.249, 253.105 669.672, 258.495 678.094, 263.885 686.517, 269.276 694.940, 274.666 703.363, 280.056 711.786, 285.447 720.209, 290.837 728.632, 296.227 737.055, 301.617 745.478, 307.008 753.900, 312.398 762.323, 317.788 770.746, 323.178 779.169, 328.569 787.592, 333.959 796.015, 339.349 804.438, 344.739 812.861, 350.130 821.284, 355.520 829.706, 360.910 838.129, 366.300 846.552, 371.691 854.975, 377.081 863.398, 382.471 871.821, 387.861 880.244, 393.252 888.667, 398.642 897.090, 404.032 905.512, 409.422 913.935, 414.813 922.358, 420.203 933.826, 427.542 942.249, 432.932 950.672, 438.322 959.095, 443.713 967.518, 449.103 975.940, 454.493 984.363, 459.883 992.786, 465.274 1001.209, 470.664 1009.632, 476.054 1018.055, 481.445 1026.478, 486.835 1034.901, 492.225 1043.324, 497.615 1051.746, 503.006 1060.169, 508.396 1068.592, 513.786 1077.015, 519.176 1085.438, 524.567 1093.861, 529.957 1102.284, 535.347 1110.707, 540.737 1119.130, 546.128 1127.552, 551.518 1135.975, 556.908 1144.398, 562.298 1152.821, 567.689 1161.244, 573.079 1169.667, 578.469 1178.090, 583.859 1186.513, 589.250 1194.936, 594.640 1203.358, 600.030 1211.781, 605.421 1220.204, 610.811 1228.627, 616.201 1237.050, 621.591 1245.473, 626.982 1253.896, 632.372 1262.319, 637.762 1270.742, 643.152 1279.164, 648.543 1290.058, 655.514 " fill="none" stroke="rgb(0, 119, 0)" stroke-linecap="butt" stroke-linejoin="round" stroke-opacity="1.0" stroke-width="3.0" />
            <path d=" M 860.746, 1201.718 860.722, 1199.328 860.619, 1189.328 860.517, 1179.329 860.415, 1169.329 860.313, 1159.330 860.211, 1149.330 860.109, 1139.331 860.006, 1129.331 859.904, 1119.332 859.802, 1109.332 859.700, 1099.333 859.598, 1089.333 859.496, 1079.334 859.393, 1069.334 859.291, 1059.335 859.189, 1049.335 859.119, 1042.440 859.016, 1032.441 858.914, 1022.442 858.812, 1012.442 858.710, 1002.443 858.608, 992.443 858.505, 982.444 858.403, 972.444 858.301, 962.445 858.199, 952.445 858.097, 942.446 857.995, 932.446 857.892, 922.447 857.790, 912.447 857.688, 902.448 857.674, 901.031 " fill="none" stroke="rgb(0, 119, 0)" stroke-linecap="butt" stroke-linejoin="round" stroke-opacity="1.0" stroke-width="3.0" />
            <path d=" M 427.154, 648.660 435.781, 653.717 444.408, 658.774 453.035, 663.831 458.848, 667.239 467.475, 672.296 476.102, 677.353 484.729, 682.410 493.356, 687.468 501.983, 692.525 510.610, 697.582 519.237, 702.639 524.682, 705.831 533.309, 710.888 540.442, 715.070 549.069, 720.127 557.696, 725.184 558.160, 725.456 566.787, 730.513 575.414, 735.570 584.041, 740.627 592.668, 745.684 601.295, 750.741 609.922, 755.799 618.549, 760.856 627.176, 765.913 631.253, 768.303 639.879, 773.360 643.465, 775.462 652.092, 780.519 660.719, 785.576 669.346, 790.633 677.973, 795.690 686.600, 800.748 695.227, 805.805 703.854, 810.862 712.481, 815.919 721.108, 820.976 729.735, 826.033 738.362, 831.091 744.811, 834.871 753.438, 839.928 762.065, 844.985 770.692, 850.042 779.319, 855.100 785.919, 858.969 794.546, 864.026 794.881, 864.222 795.990, 864.872 804.617, 869.930 813.244, 874.987 821.871, 880.044 830.498, 885.101 839.125, 890.158 847.752, 895.215 854.099, 898.936 857.674, 901.031 863.526, 892.923 869.378, 884.814 875.230, 876.705 881.083, 868.597 886.935, 860.488 892.787, 852.379 898.640, 844.271 904.492, 836.162 910.344, 828.053 912.630, 824.887 918.482, 816.778 924.334, 808.669 930.187, 800.560 936.039, 792.452 941.891, 784.343 947.743, 776.234 953.596, 768.126 959.448, 760.017 965.300, 751.908 971.153, 743.800 977.005, 735.691 982.857, 727.582 988.709, 719.474 994.562, 711.365 997.134, 707.801 1002.986, 699.693 1008.838, 691.584 1014.690, 683.475 1020.543, 675.367 1026.395, 667.258 1032.247, 659.149 1038.100, 651.041 1043.952, 642.932 1049.804, 634.823 1055.656, 626.714 1061.509, 618.606 1067.361, 610.497 1073.213, 602.388 1079.066, 594.280 1084.918, 586.171 1090.770, 578.062 1096.623, 569.954 1102.475, 561.845 1108.327, 553.736 1114.179, 545.628 1120.032, 537.519 1125.884, 529.410 1131.736, 521.302 1137.589, 513.193 1143.441, 505.084 1149.293, 496.976 1153.911, 490.577 " fill="none" stroke="rgb(0, 119, 0)" stroke-linecap="butt" stroke-linejoin="round" stroke-opacity="1.0" stroke-width="3.0" />
            <path d=" M 253.854, 864.632 260.112, 856.833 266.371, 849.033 272.629, 841.234 278.888, 833.434 285.146, 825.635 286.562, 823.870 292.821, 816.071 299.079, 808.271 305.338, 800.472 311.596, 792.672 315.995, 787.190 322.253, 779.391 328.512, 771.591 334.770, 763.792 341.029, 755.993 347.287, 748.193 353.545, 740.394 359.804, 732.594 366.062, 724.795 372.321, 716.995 378.579, 709.196 384.838, 701.396 391.096, 693.597 397.355, 685.797 403.613, 677.998 409.871, 670.198 416.130, 662.399 422.388, 654.599 425.849, 650.286 427.154, 648.660 432.091, 639.964 437.028, 631.267 441.965, 622.571 446.902, 613.875 451.839, 605.178 456.776, 596.482 461.713, 587.786 466.650, 579.089 471.587, 570.393 476.524, 561.697 481.461, 553.000 486.398, 544.304 491.335, 535.608 496.272, 526.912 501.209, 518.215 506.146, 509.519 511.083, 500.823 516.021, 492.126 520.958, 483.430 525.895, 474.734 530.832, 466.037 535.769, 457.341 537.276, 454.687 542.213, 445.990 547.150, 437.294 552.087, 428.598 557.024, 419.901 561.961, 411.205 566.898, 402.509 571.835, 393.812 576.772, 385.116 581.709, 376.420 586.646, 367.724 591.583, 359.027 596.520, 350.331 602.076, 340.544 607.013, 331.848 611.950, 323.151 616.887, 314.455 621.824, 305.759 626.761, 297.062 631.698, 288.366 636.635, 279.670 641.572, 270.973 646.509, 262.277 651.446, 253.581 656.383, 244.885 658.253, 241.591 663.190, 232.895 668.127, 224.199 673.064, 215.502 678.001, 206.806 682.938, 198.110 687.875, 189.413 688.260, 188.735 " fill="none" stroke="rgb(0, 119, 0)" stroke-linecap="butt" stroke-linejoin="round" stroke-opacity="1.0" stroke-width="3.0" />
            <path d=" M 627.655, 571.229 623.223, 580.193 620.060, 586.591 615.629, 595.555 614.541, 597.756 610.109, 606.720 605.677, 615.685 601.246, 624.649 596.814, 633.613 592.382, 642.578 589.978, 647.442 " fill="none" stroke="rgb(0, 119, 0)" stroke-linecap="butt" stroke-linejoin="round" stroke-opacity="1.0" stroke-width="3.0" />
            <path d=" M 451.940, 874.307 456.521, 866.777 461.719, 858.234 466.917, 849.691 472.115, 841.148 477.313, 832.605 482.511, 824.062 487.709, 815.519 492.907, 806.977 498.105, 798.434 503.303, 789.891 508.501, 781.348 513.699, 772.805 518.897, 764.262 524.095, 755.719 529.293, 747.176 534.491, 738.634 539.689, 730.091 545.564, 720.435 550.762, 711.893 555.960, 703.350 561.158, 694.807 566.356, 686.264 571.554, 677.721 576.752, 669.178 581.950, 660.635 587.148, 652.092 589.978, 647.442 598.568, 652.561 601.673, 654.411 610.263, 659.530 618.854, 664.648 627.444, 669.767 636.035, 674.886 644.625, 680.005 653.216, 685.124 661.806, 690.243 670.396, 695.362 675.763, 698.560 684.354, 703.679 688.141, 705.936 696.731, 711.055 705.322, 716.174 713.912, 721.292 722.503, 726.411 731.093, 731.530 739.684, 736.649 748.274, 741.768 756.865, 746.887 765.455, 752.006 774.045, 757.125 782.636, 762.244 790.833, 767.128 799.423, 772.247 807.794, 777.235 816.384, 782.354 821.855, 785.614 830.445, 790.733 839.036, 795.852 841.555, 797.353 " fill="none" stroke="rgb(0, 119, 0)" stroke-linecap="butt" stroke-linejoin="round" stroke-opacity="1.0" stroke-width="3.0" />
            <path d=" M 841.555, 797.353 841.601, 793.527 841.722, 783.528 841.843, 773.529 841.963, 763.530 842.084, 753.530 842.205, 743.531 842.326, 733.532 842.399, 727.486 842.479, 720.887 842.599, 710.888 842.713, 701.512 837.540, 698.378 828.987, 693.197 820.434, 688.015 811.881, 682.834 803.328, 677.652 794.775, 672.471 786.222, 667.290 777.669, 662.108 771.757, 658.526 763.204, 653.345 754.651, 648.163 746.098, 642.982 737.545, 637.801 733.498, 635.349 724.945, 630.167 716.392, 624.986 711.013, 621.727 702.460, 616.546 693.907, 611.364 685.354, 606.183 676.801, 601.002 668.248, 595.820 659.695, 590.639 654.175, 587.294 645.863, 582.259 637.310, 577.078 628.757, 571.896 627.655, 571.229 622.470, 579.780 618.801, 585.831 613.617, 594.382 612.366, 596.446 607.181, 604.997 601.996, 613.548 596.812, 622.099 591.627, 630.650 589.832, 633.611 584.647, 642.162 579.463, 650.713 574.278, 659.264 573.760, 660.118 568.576, 668.669 563.391, 677.220 562.659, 678.427 557.474, 686.978 555.795, 689.748 550.610, 698.299 545.426, 706.850 540.442, 715.070 539.384, 716.814 534.200, 725.365 533.246, 726.939 528.061, 735.490 522.876, 744.041 517.692, 752.592 515.415, 756.347 510.230, 764.898 506.805, 770.548 502.130, 779.388 497.456, 788.228 492.781, 797.068 488.107, 805.909 487.801, 806.486 483.127, 815.327 478.452, 824.167 473.778, 833.007 469.103, 841.847 464.429, 850.687 459.754, 859.528 456.059, 866.515 451.940, 874.307 460.645, 879.228 469.350, 884.150 478.055, 889.071 486.760, 893.992 495.465, 898.914 504.170, 903.835 512.876, 908.757 521.581, 913.678 530.286, 918.599 538.991, 923.521 547.696, 928.442 556.401, 933.364 565.107, 938.285 573.812, 943.206 582.517, 948.128 591.222, 953.049 599.927, 957.971 608.632, 962.892 617.337, 967.813 626.043, 972.735 634.748, 977.656 643.453, 982.578 652.158, 987.499 660.863, 992.421 669.568, 997.342 674.075, 999.890 682.781, 1004.811 691.486, 1009.733 692.800, 1010.475 698.523, 1002.275 701.181, 998.467 706.905, 990.267 712.628, 982.067 718.352, 973.867 724.075, 965.667 729.799, 957.467 735.522, 949.266 741.246, 941.066 746.969, 932.866 752.693, 924.666 758.416, 916.466 764.140, 908.266 767.864, 902.930 772.299, 896.577 778.022, 888.377 783.746, 880.177 787.114, 875.350 792.838, 867.150 794.881, 864.222 800.605, 856.022 806.328, 847.822 812.052, 839.622 817.775, 831.422 818.852, 829.879 820.069, 828.135 825.793, 819.935 830.826, 812.725 836.549, 804.525 841.555, 797.353 " fill="none" stroke="rgb(0, 119, 0)" stroke-linecap="butt" stroke-linejoin="round" stroke-opacity="1.0" stroke-width="3.0" />
            <path d=" M 692.800, 1010.475 694.539, 1000.628 695.490, 995.240 697.230, 985.393 698.969, 975.545 700.708, 965.697 702.448, 955.850 703.987, 947.136 705.726, 937.289 707.465, 927.441 709.204, 917.594 710.944, 907.746 712.683, 897.898 713.997, 890.457 " fill="none" stroke="rgb(0, 119, 0)" stroke-linecap="butt" stroke-linejoin="round" stroke-opacity="1.0" stroke-width="3.0" />
            <path d=" M 506.805, 770.548 515.460, 775.557 524.115, 780.566 526.658, 782.038 535.314, 787.047 543.969, 792.056 552.624, 797.065 561.279, 802.074 569.934, 807.083 578.589, 812.092 587.244, 817.101 595.899, 822.110 598.959, 823.880 607.614, 828.889 616.269, 833.898 624.924, 838.907 633.579, 843.916 642.234, 848.925 650.889, 853.934 659.544, 858.943 668.199, 863.952 676.854, 868.961 685.509, 873.970 694.164, 878.979 702.819, 883.988 709.009, 887.570 713.997, 890.457 719.627, 882.192 725.258, 873.928 730.888, 865.663 736.518, 857.399 742.148, 849.134 747.778, 840.870 753.408, 832.605 759.038, 824.341 764.668, 816.076 770.298, 807.812 775.928, 799.547 781.558, 791.283 787.188, 783.018 792.818, 774.754 798.832, 765.926 804.462, 757.662 810.092, 749.397 815.722, 741.133 821.352, 732.868 824.248, 728.617 829.878, 720.353 833.292, 715.340 838.922, 707.076 842.713, 701.512 " fill="none" stroke="rgb(0, 119, 0)" stroke-linecap="butt" stroke-linejoin="round" stroke-opacity="1.0" stroke-width="3.0" />
            <path d=" M 436.735, 189.224 445.188, 194.567 453.641, 199.910 462.094, 205.253 470.547, 210.596 479.000, 215.939 487.453, 221.282 495.906, 226.625 504.359, 231.968 512.812, 237.311 521.265, 242.654 529.718, 247.997 538.170, 253.340 546.623, 258.682 555.076, 264.026 563.529, 269.369 571.982, 274.711 578.521, 278.844 586.974, 284.187 595.427, 289.530 603.880, 294.873 612.333, 300.216 620.785, 305.559 629.238, 310.902 637.691, 316.245 646.144, 321.588 654.597, 326.931 663.050, 332.274 671.503, 337.617 679.956, 342.960 688.409, 348.303 696.862, 353.646 705.315, 358.989 713.768, 364.332 722.221, 369.675 730.674, 375.018 739.127, 380.361 747.580, 385.703 756.033, 391.047 764.486, 396.390 772.939, 401.732 781.392, 407.075 789.845, 412.418 798.298, 417.761 806.751, 423.104 815.204, 428.447 823.657, 433.790 832.110, 439.133 840.563, 444.476 849.016, 449.819 857.469, 455.162 865.922, 460.505 874.375, 465.848 882.828, 471.191 891.280, 476.534 899.733, 481.877 908.186, 487.220 916.639, 492.563 925.092, 497.906 933.545, 503.249 941.998, 508.592 950.451, 513.935 959.122, 519.415 " fill="none" stroke="rgb(0, 119, 0)" stroke-linecap="butt" stroke-linejoin="round" stroke-opacity="1.0" stroke-width="3.0" />
        </g>
    </g>
</svg>
