<?xml version='1.0' encoding='ascii'?>
<svg xmlns="http://www.w3.org/2000/svg" xmlns:inkscape="http://www.inkscape.org/namespaces/inkscape" height="1500" version="1.1" width="1500">
    <g id="fressstylelayer_LineSet" inkscape:groupmode="lineset" inkscape:label="fressstylelayer_LineSet">
        <g id="strokes" inkscape:groupmode="layer" inkscape:label="strokes">
            <path d=" M 231.198, 187.788 237.363, 195.662 243.528, 203.535 249.693, 211.409 255.857, 219.283 262.022, 227.156 268.187, 235.030 274.352, 242.904 280.517, 250.777 286.682, 258.651 292.847, 266.524 299.012, 274.398 305.177, 282.272 311.342, 290.145 317.507, 298.019 323.671, 305.892 328.618, 312.210 334.783, 320.083 340.948, 327.957 347.113, 335.831 353.277, 343.704 359.442, 351.578 365.607, 359.452 371.772, 367.325 377.937, 375.199 384.102, 383.072 390.267, 390.946 396.432, 398.820 402.597, 406.693 408.762, 414.567 414.927, 422.440 419.307, 428.036 425.472, 435.909 431.637, 443.783 437.802, 451.656 443.967, 459.530 450.132, 467.404 456.297, 475.277 462.462, 483.151 468.627, 491.024 474.978, 499.136 481.143, 507.010 487.308, 514.883 493.473, 522.757 499.638, 530.630 505.803, 538.504 511.967, 546.378 518.132, 554.251 519.836, 556.426 " fill="none" stroke="rgb(157, 20, 170)" stroke-linecap="butt" stroke-linejoin="round" stroke-opacity="1.0" stroke-width="3.0" />
            <path d=" M 135.638, 1221.566 140.640, 1212.906 145.642, 1204.247 150.643, 1195.588 155.645, 1186.929 160.647, 1178.269 165.649, 1169.610 170.650, 1160.951 175.652, 1152.292 180.654, 1143.632 185.656, 1134.973 190.657, 1126.314 193.138, 1122.019 198.140, 1113.359 203.142, 1104.700 208.144, 1096.041 213.145, 1087.382 218.147, 1078.722 223.149, 1070.063 228.151, 1061.404 233.152, 1052.745 238.154, 1044.085 242.226, 1037.036 247.228, 1028.377 252.230, 1019.717 257.231, 1011.058 262.233, 1002.399 267.235, 993.740 272.237, 985.080 277.238, 976.421 282.240, 967.762 287.242, 959.103 292.244, 950.443 297.245, 941.784 302.247, 933.125 307.249, 924.466 312.251, 915.806 317.252, 907.147 322.254, 898.488 327.256, 889.829 332.258, 881.169 337.766, 871.633 342.768, 862.974 347.770, 854.314 352.771, 845.655 357.773, 836.996 362.775, 828.337 367.777, 819.677 372.778, 811.018 373.413, 809.919 378.415, 801.259 383.417, 792.600 388.419, 783.941 393.420, 775.282 398.422, 766.622 403.424, 757.963 408.426, 749.304 413.427, 740.645 418.429, 731.986 423.431, 723.326 428.433, 714.667 433.434, 706.008 438.436, 697.349 443.438, 688.689 448.440, 680.030 453.441, 671.371 458.443, 662.712 463.445, 654.052 467.444, 647.128 472.446, 638.469 477.448, 629.810 482.450, 621.151 487.451, 612.491 492.453, 603.832 497.455, 595.173 502.457, 586.514 507.458, 577.854 512.460, 569.195 517.462, 560.536 519.836, 556.426 529.384, 559.398 537.460, 561.911 547.008, 564.883 556.556, 567.854 566.105, 570.826 575.653, 573.797 585.201, 576.769 589.696, 578.168 599.244, 581.139 608.792, 584.111 618.340, 587.082 627.889, 590.054 632.843, 591.596 642.392, 594.567 651.940, 597.539 661.488, 600.510 671.037, 603.482 680.585, 606.453 690.133, 609.425 699.681, 612.396 709.230, 615.368 718.778, 618.339 722.013, 619.346 731.562, 622.318 741.110, 625.289 750.658, 628.261 760.206, 631.232 769.755, 634.204 779.303, 637.175 786.858, 639.526 796.406, 642.498 801.793, 644.174 811.342, 647.146 820.890, 650.117 830.438, 653.089 839.987, 656.060 849.535, 659.032 859.083, 662.004 868.631, 664.975 878.180, 667.947 881.039, 668.836 " fill="none" stroke="rgb(157, 20, 170)" stroke-linecap="butt" stroke-linejoin="round" stroke-opacity="1.0" stroke-width="3.0" />
            <path d=" M 566.215, 335.843 557.069, 331.800 547.922, 327.758 538.776, 323.716 529.629, 319.674 520.482, 315.632 511.336, 311.589 502.189, 307.547 493.042, 303.505 483.896, 299.463 474.749, 295.421 465.603, 291.379 456.456, 287.337 447.309, 283.294 438.163, 279.252 429.016, 275.210 419.869, 271.168 410.723, 267.126 401.576, 263.083 392.429, 259.041 383.283, 254.999 374.136, 250.957 364.990, 246.915 355.843, 242.873 346.696, 238.830 337.550, 234.788 328.403, 230.746 319.256, 226.704 310.110, 222.662 300.963, 218.620 291.817, 214.578 282.670, 210.535 273.523, 206.493 264.377, 202.451 255.230, 198.409 246.083, 194.367 236.937, 190.324 231.198, 187.788 226.984, 196.857 222.771, 205.926 218.557, 214.995 214.343, 224.064 210.130, 233.133 205.916, 242.202 201.702, 251.271 197.489, 260.340 193.275, 269.409 189.062, 278.477 184.848, 287.546 180.634, 296.615 176.421, 305.684 172.207, 314.753 167.993, 323.822 163.780, 332.891 159.566, 341.960 155.353, 351.029 151.139, 360.098 146.925, 369.167 142.712, 378.236 138.498, 387.305 134.284, 396.374 130.071, 405.442 125.857, 414.511 121.644, 423.580 117.430, 432.649 113.216, 441.718 109.003, 450.787 104.789, 459.856 100.576, 468.925 96.362, 477.994 92.148, 487.063 87.935, 496.132 83.721, 505.201 79.507, 514.269 75.294, 523.338 71.080, 532.407 66.867, 541.476 62.653, 550.545 58.439, 559.614 54.226, 568.683 50.012, 577.752 45.798, 586.821 41.585, 595.890 37.371, 604.959 33.158, 614.028 28.944, 623.097 24.730, 632.166 20.517, 641.234 16.303, 650.303 12.089, 659.372 7.876, 668.441 3.662, 677.510 -0.551, 686.579 -4.765, 695.648 -8.979, 704.717 -13.192, 713.786 -17.406, 722.855 -21.619, 731.924 -26.252, 741.894 -23.054, 751.369 -19.856, 760.844 -16.659, 770.319 -13.461, 779.794 -10.263, 789.269 -7.065, 798.744 -3.867, 808.219 -0.670, 817.694 2.528, 827.168 5.726, 836.643 8.924, 846.118 12.122, 855.593 15.319, 865.068 18.517, 874.543 21.715, 884.018 24.913, 893.493 28.111, 902.968 31.308, 912.443 34.506, 921.918 37.704, 931.393 40.902, 940.867 44.100, 950.342 47.298, 959.817 50.495, 969.292 53.693, 978.767 56.891, 988.242 60.089, 997.717 63.287, 1007.192 66.484, 1016.667 69.682, 1026.142 72.880, 1035.617 76.078, 1045.092 79.276, 1054.566 82.473, 1064.041 85.671, 1073.516 88.869, 1082.991 92.067, 1092.466 95.265, 1101.941 98.462, 1111.416 101.660, 1120.891 104.858, 1130.366 108.056, 1139.841 111.254, 1149.316 114.451, 1158.791 117.649, 1168.265 120.847, 1177.740 124.045, 1187.215 127.243, 1196.690 130.440, 1206.165 133.638, 1215.640 135.638, 1221.566 145.630, 1221.157 155.621, 1220.748 165.613, 1220.339 175.605, 1219.930 185.596, 1219.521 195.588, 1219.112 205.580, 1218.703 215.571, 1218.295 225.563, 1217.886 229.945, 1217.706 239.937, 1217.298 249.928, 1216.889 259.920, 1216.480 269.912, 1216.071 279.903, 1215.662 289.895, 1215.253 299.887, 1214.844 309.878, 1214.435 318.173, 1214.096 328.192, 1213.686 " fill="none" stroke="rgb(157, 20, 170)" stroke-linecap="butt" stroke-linejoin="round" stroke-opacity="1.0" stroke-width="3.0" />
            <path d=" M 579.817, 311.499 586.915, 318.543 594.012, 325.588 601.109, 332.633 608.207, 339.677 615.304, 346.722 622.401, 353.767 629.499, 360.811 634.943, 366.215 642.040, 373.260 649.138, 380.305 656.235, 387.349 663.333, 394.394 670.430, 401.439 677.527, 408.483 684.625, 415.528 691.722, 422.573 698.171, 428.974 705.269, 436.019 712.366, 443.063 719.464, 450.108 726.561, 457.153 733.658, 464.198 740.756, 471.242 747.853, 478.287 754.950, 485.332 762.048, 492.376 769.145, 499.421 776.242, 506.466 783.340, 513.510 790.437, 520.555 797.535, 527.600 804.632, 534.644 811.729, 541.689 818.827, 548.734 825.924, 555.778 833.021, 562.823 840.119, 569.868 847.216, 576.912 854.313, 583.957 861.411, 591.002 868.508, 598.046 875.606, 605.091 882.703, 612.136 889.800, 619.180 896.898, 626.225 903.995, 633.270 911.092, 640.314 918.190, 647.359 925.287, 654.404 932.385, 661.448 939.482, 668.493 946.495, 675.454 " fill="none" stroke="rgb(157, 20, 170)" stroke-linecap="butt" stroke-linejoin="round" stroke-opacity="1.0" stroke-width="3.0" />
            <path d=" M 566.215, 335.843 571.093, 327.113 575.971, 318.383 579.817, 311.499 588.906, 315.670 597.994, 319.841 607.083, 324.012 616.171, 328.183 625.260, 332.354 634.348, 336.526 643.437, 340.697 652.526, 344.868 661.614, 349.039 670.703, 353.210 679.791, 357.381 688.880, 361.552 697.968, 365.723 707.057, 369.894 716.145, 374.066 725.234, 378.237 734.323, 382.408 743.411, 386.579 752.500, 390.750 761.588, 394.921 770.677, 399.092 779.765, 403.263 788.854, 407.435 797.942, 411.606 807.031, 415.777 816.119, 419.948 825.208, 424.119 834.297, 428.290 843.385, 432.461 852.474, 436.632 861.562, 440.803 870.651, 444.975 879.739, 449.146 888.828, 453.317 897.916, 457.488 907.005, 461.659 916.094, 465.830 925.182, 470.001 934.271, 474.172 943.359, 478.344 952.448, 482.515 963.789, 487.720 971.381, 494.228 978.974, 500.736 986.566, 507.245 994.158, 513.753 1001.750, 520.261 1009.343, 526.769 1016.935, 533.277 1024.527, 539.786 1032.120, 546.294 1039.712, 552.802 1047.304, 559.310 1054.896, 565.819 1062.489, 572.327 1070.081, 578.835 1077.673, 585.343 1085.266, 591.852 1092.858, 598.360 1100.450, 604.868 1108.042, 611.376 1115.635, 617.885 1123.227, 624.393 1130.819, 630.901 1138.412, 637.409 1146.004, 643.918 1153.596, 650.426 1161.188, 656.934 1168.781, 663.442 1176.373, 669.951 1183.965, 676.459 1191.557, 682.967 1199.150, 689.475 1206.742, 695.984 1214.334, 702.492 1221.927, 709.000 1229.519, 715.508 1237.111, 722.017 1244.703, 728.525 1252.296, 735.033 1259.888, 741.541 1267.480, 748.050 1275.073, 754.558 1282.665, 761.066 1290.257, 767.574 1297.849, 774.083 1305.442, 780.591 1313.034, 787.099 1324.187, 796.659 1317.828, 804.377 1311.469, 812.095 1305.111, 819.813 1298.752, 827.531 1292.393, 835.249 1286.035, 842.967 1279.676, 850.685 1273.318, 858.403 1266.959, 866.121 1260.600, 873.839 1254.242, 881.557 1247.883, 889.275 1241.524, 896.993 1235.166, 904.711 1228.807, 912.429 1222.448, 920.147 1216.090, 927.865 1209.731, 935.583 1203.373, 943.301 1197.014, 951.019 1190.655, 958.737 1184.297, 966.456 1177.938, 974.174 1171.579, 981.892 1165.221, 989.610 1158.862, 997.328 1152.503, 1005.046 1146.145, 1012.764 1139.786, 1020.482 1133.427, 1028.200 1127.069, 1035.918 1120.710, 1043.636 1114.352, 1051.354 1107.993, 1059.072 1101.634, 1066.790 1095.276, 1074.508 1088.917, 1082.226 1082.558, 1089.944 1076.200, 1097.662 1069.841, 1105.380 1063.482, 1113.098 1057.124, 1120.816 1050.765, 1128.534 1044.406, 1136.252 1038.048, 1143.970 1031.689, 1151.688 1025.331, 1159.406 1018.972, 1167.124 1012.613, 1174.842 1006.255, 1182.560 999.896, 1190.278 993.537, 1197.996 987.179, 1205.714 980.820, 1213.432 971.428, 1224.831 961.451, 1225.508 951.474, 1226.185 941.497, 1226.862 931.520, 1227.538 921.543, 1228.215 911.566, 1228.892 901.589, 1229.568 891.612, 1230.245 881.635, 1230.922 871.658, 1231.598 861.681, 1232.275 851.703, 1232.952 841.726, 1233.629 831.749, 1234.305 825.418, 1234.735 815.441, 1235.411 805.464, 1236.088 795.487, 1236.765 785.510, 1237.441 781.476, 1237.715 771.499, 1238.392 761.522, 1239.068 751.545, 1239.745 741.568, 1240.422 731.591, 1241.099 721.614, 1241.775 711.637, 1242.452 701.660, 1243.129 691.683, 1243.805 681.706, 1244.482 671.728, 1245.159 661.751, 1245.836 651.774, 1246.512 641.797, 1247.189 631.820, 1247.866 621.843, 1248.542 611.866, 1249.219 601.889, 1249.896 591.912, 1250.572 581.935, 1251.249 571.958, 1251.926 561.981, 1252.603 552.004, 1253.279 539.693, 1254.114 545.444, 1245.933 551.195, 1237.753 556.947, 1229.572 562.698, 1221.391 568.449, 1213.210 569.270, 1212.043 575.021, 1203.862 575.221, 1203.577 580.972, 1195.396 586.723, 1187.216 592.474, 1179.035 598.226, 1170.854 603.977, 1162.673 609.728, 1154.493 615.479, 1146.312 621.230, 1138.131 626.981, 1129.950 629.576, 1126.260 635.327, 1118.079 641.078, 1109.898 646.829, 1101.717 652.580, 1093.537 658.331, 1085.356 664.082, 1077.175 669.833, 1068.994 675.585, 1060.814 681.336, 1052.633 687.087, 1044.452 692.838, 1036.271 698.589, 1028.091 704.340, 1019.910 710.091, 1011.729 715.842, 1003.548 721.593, 995.368 727.345, 987.187 733.096, 979.006 738.847, 970.825 744.598, 962.645 750.349, 954.464 756.100, 946.283 761.851, 938.102 767.487, 930.085 773.238, 921.905 778.989, 913.724 784.741, 905.543 790.492, 897.362 796.243, 889.182 801.994, 881.001 806.358, 874.793 812.109, 866.612 817.860, 858.431 823.612, 850.250 829.363, 842.070 835.114, 833.889 840.865, 825.708 846.616, 817.527 852.367, 809.347 858.118, 801.166 863.869, 792.985 868.719, 786.087 874.470, 777.906 880.221, 769.725 885.972, 761.545 891.723, 753.364 897.474, 745.183 903.225, 737.002 908.977, 728.822 914.728, 720.641 920.479, 712.460 921.647, 710.799 927.398, 702.618 933.149, 694.437 938.900, 686.256 944.651, 678.076 946.495, 675.454 956.016, 678.509 965.538, 681.565 975.060, 684.620 984.582, 687.676 994.103, 690.732 1003.625, 693.787 1013.147, 696.843 1022.668, 699.899 1032.190, 702.954 1039.320, 705.242 1048.842, 708.298 1057.840, 711.186 1067.362, 714.241 1076.884, 717.297 1086.405, 720.352 1095.927, 723.408 1105.449, 726.464 1114.970, 729.519 1124.492, 732.575 1134.014, 735.631 1143.536, 738.686 1153.057, 741.742 1162.579, 744.798 1172.101, 747.853 1181.622, 750.909 1191.144, 753.964 1200.666, 757.020 1210.188, 760.076 1219.709, 763.131 1229.231, 766.187 1238.753, 769.243 1248.275, 772.298 1257.796, 775.354 1267.318, 778.409 1276.840, 781.465 1286.361, 784.521 1295.883, 787.576 1305.405, 790.632 1314.927, 793.688 1324.187, 796.659 " fill="none" stroke="rgb(157, 20, 170)" stroke-linecap="butt" stroke-linejoin="round" stroke-opacity="1.0" stroke-width="3.0" />
            <path d=" M 266.707, 1313.278 272.057, 1304.829 277.406, 1296.380 282.756, 1287.931 288.105, 1279.483 293.455, 1271.034 298.804, 1262.585 304.154, 1254.136 309.503, 1245.687 314.853, 1237.238 320.202, 1228.790 323.732, 1223.215 329.082, 1214.766 329.807, 1213.620 335.157, 1205.171 340.507, 1196.722 345.856, 1188.273 351.206, 1179.825 356.555, 1171.376 361.905, 1162.927 367.254, 1154.478 372.604, 1146.029 377.953, 1137.580 383.303, 1129.132 388.652, 1120.683 394.002, 1112.234 399.351, 1103.785 404.701, 1095.336 410.050, 1086.887 415.400, 1078.439 420.749, 1069.990 426.099, 1061.541 431.448, 1053.092 432.603, 1051.269 437.953, 1042.820 443.302, 1034.371 448.652, 1025.922 449.585, 1024.448 454.934, 1015.999 460.284, 1007.550 465.633, 999.101 470.983, 990.653 476.333, 982.204 481.682, 973.755 487.032, 965.306 492.381, 956.857 497.731, 948.408 503.080, 939.960 508.430, 931.511 513.779, 923.062 519.129, 914.613 524.478, 906.164 529.828, 897.715 535.177, 889.267 540.527, 880.818 543.954, 875.405 549.303, 866.957 554.653, 858.508 560.002, 850.059 565.352, 841.610 570.701, 833.161 576.051, 824.712 579.123, 819.861 583.089, 813.596 588.439, 805.147 593.788, 796.698 599.138, 788.250 604.487, 779.801 609.837, 771.352 615.186, 762.903 620.536, 754.454 625.885, 746.005 631.235, 737.557 636.585, 729.108 638.780, 725.641 644.129, 717.192 649.479, 708.743 654.828, 700.294 657.785, 695.625 663.134, 687.176 668.484, 678.728 669.933, 676.439 679.592, 679.027 684.033, 680.217 693.692, 682.805 703.352, 685.393 713.011, 687.981 722.670, 690.569 732.329, 693.157 741.989, 695.745 751.648, 698.334 761.307, 700.922 763.828, 701.597 768.282, 702.791 768.848, 702.942 778.507, 705.530 788.167, 708.119 797.826, 710.707 802.927, 712.074 812.587, 714.662 822.246, 717.250 825.095, 718.013 834.755, 720.601 844.414, 723.190 854.073, 725.778 863.732, 728.366 873.392, 730.954 883.051, 733.542 892.710, 736.130 902.369, 738.718 912.029, 741.307 921.688, 743.895 931.347, 746.483 941.007, 749.071 950.666, 751.659 954.474, 752.680 " fill="none" stroke="rgb(157, 20, 170)" stroke-linecap="butt" stroke-linejoin="round" stroke-opacity="1.0" stroke-width="3.0" />
            <path d=" M 229.945, 1217.706 233.535, 1227.040 237.125, 1236.373 240.716, 1245.706 244.306, 1255.040 247.896, 1264.373 251.486, 1273.706 255.076, 1283.040 258.666, 1292.373 262.256, 1301.706 265.846, 1311.040 266.707, 1313.278 276.669, 1312.409 286.632, 1311.540 296.594, 1310.672 306.556, 1309.803 316.518, 1308.934 326.480, 1308.065 336.443, 1307.197 346.405, 1306.328 356.367, 1305.459 366.329, 1304.590 376.291, 1303.721 386.254, 1302.853 396.216, 1301.984 406.178, 1301.115 416.140, 1300.246 426.102, 1299.378 436.065, 1298.509 446.027, 1297.640 455.989, 1296.771 465.951, 1295.903 475.913, 1295.034 485.876, 1294.165 495.838, 1293.296 505.800, 1292.428 515.762, 1291.559 525.724, 1290.690 535.686, 1289.821 545.649, 1288.952 555.611, 1288.084 565.573, 1287.215 575.535, 1286.346 585.497, 1285.477 595.460, 1284.609 605.422, 1283.740 615.384, 1282.871 625.346, 1282.002 635.308, 1281.134 645.271, 1280.265 655.233, 1279.396 665.195, 1278.527 675.157, 1277.658 685.119, 1276.790 695.081, 1275.921 705.044, 1275.052 715.006, 1274.183 724.968, 1273.315 734.930, 1272.446 744.892, 1271.577 754.855, 1270.708 764.817, 1269.840 774.779, 1268.971 784.741, 1268.102 794.703, 1267.233 800.350, 1266.741 806.516, 1258.868 812.682, 1250.995 818.849, 1243.123 825.015, 1235.250 825.418, 1234.735 " fill="none" stroke="rgb(157, 20, 170)" stroke-linecap="butt" stroke-linejoin="round" stroke-opacity="1.0" stroke-width="3.0" />
        </g>
    </g>
    <g id="fressstylelayer_hidden lines" inkscape:groupmode="lineset" inkscape:label="fressstylelayer_hidden lines" xmlns:inkscape="http://www.inkscape.org/namespaces/inkscape">
        <g id="strokes" inkscape:groupmode="layer" inkscape:label="strokes" xmlns:inkscape="http://www.inkscape.org/namespaces/inkscape">
            <path d=" M 529.501, 608.925 535.556, 616.884 541.611, 624.842 547.666, 632.800 553.721, 640.759 559.776, 648.717 565.831, 656.676 571.886, 664.634 577.941, 672.593 580.479, 675.929 580.959, 676.560 587.014, 684.518 593.069, 692.476 599.124, 700.435 605.179, 708.393 611.234, 716.352 617.289, 724.310 623.344, 732.269 629.399, 740.227 635.454, 748.186 641.509, 756.144 647.564, 764.103 653.619, 772.061 659.674, 780.019 665.729, 787.978 671.784, 795.936 677.839, 803.895 683.894, 811.853 690.381, 820.380 690.727, 820.834 696.782, 828.792 700.209, 833.297 " fill="none" stroke="rgb(0, 119, 0)" stroke-linecap="butt" stroke-linejoin="round" stroke-opacity="1.0" stroke-width="3.0" />
            <path d=" M 504.903, 1125.964 510.454, 1117.646 516.004, 1109.328 521.555, 1101.010 527.106, 1092.692 532.657, 1084.374 538.208, 1076.056 543.758, 1067.738 549.309, 1059.420 554.860, 1051.102 560.411, 1042.784 565.962, 1034.466 571.513, 1026.149 577.063, 1017.831 582.614, 1009.513 588.165, 1001.195 593.716, 992.877 599.267, 984.559 604.818, 976.241 610.368, 967.923 615.919, 959.605 621.470, 951.287 627.021, 942.969 632.572, 934.651 638.123, 926.333 643.673, 918.015 645.805, 914.821 651.356, 906.503 656.907, 898.185 662.458, 889.867 668.008, 881.549 673.559, 873.231 679.110, 864.913 684.661, 856.595 690.212, 848.277 695.763, 839.959 700.209, 833.297 710.053, 835.054 719.897, 836.812 729.742, 838.570 739.586, 840.327 749.430, 842.085 759.275, 843.843 769.119, 845.600 778.963, 847.358 785.162, 848.465 795.006, 850.222 804.850, 851.980 814.695, 853.738 824.539, 855.495 834.383, 857.253 844.228, 859.010 854.072, 860.768 863.916, 862.526 874.170, 864.357 884.014, 866.114 893.858, 867.872 903.703, 869.630 913.547, 871.387 923.391, 873.145 933.236, 874.902 943.080, 876.660 946.097, 877.199 950.391, 877.965 " fill="none" stroke="rgb(0, 119, 0)" stroke-linecap="butt" stroke-linejoin="round" stroke-opacity="1.0" stroke-width="3.0" />
            <path d=" M 950.391, 877.965 947.739, 874.982 941.095, 867.508 934.451, 860.034 927.808, 852.560 921.164, 845.086 914.520, 837.612 907.876, 830.138 902.845, 824.478 896.202, 817.004 889.558, 809.530 882.914, 802.056 876.270, 794.582 869.627, 787.108 868.719, 786.087 862.075, 778.613 855.431, 771.139 848.788, 763.665 842.144, 756.191 835.500, 748.717 828.856, 741.243 822.213, 733.769 817.778, 728.780 811.134, 721.306 808.245, 718.055 802.927, 712.074 797.592, 706.072 795.842, 704.103 789.198, 696.629 782.554, 689.155 779.936, 686.209 779.553, 685.778 778.119, 684.165 776.938, 682.837 776.533, 682.381 772.678, 678.044 766.210, 676.206 763.781, 675.515 754.162, 672.781 744.543, 670.047 735.208, 667.394 725.589, 664.660 715.970, 661.926 706.351, 659.192 698.801, 657.046 694.153, 655.725 684.534, 652.991 674.915, 650.257 673.556, 649.870 668.979, 648.569 659.360, 645.835 651.792, 643.684 642.173, 640.950 640.390, 640.443 633.869, 638.590 624.250, 635.856 614.631, 633.122 608.542, 631.391 598.923, 628.657 592.301, 626.775 582.682, 624.041 582.038, 623.858 572.419, 621.124 565.230, 619.081 555.612, 616.346 545.992, 613.612 542.582, 612.643 532.963, 609.909 529.501, 608.925 524.435, 617.547 519.369, 626.169 514.303, 634.791 509.237, 643.412 504.171, 652.034 501.896, 655.906 496.830, 664.528 491.764, 673.150 486.698, 681.772 481.632, 690.394 478.891, 695.059 473.825, 703.681 472.300, 706.277 472.022, 706.750 466.956, 715.372 461.890, 723.994 456.824, 732.616 451.758, 741.237 446.577, 750.056 441.511, 758.678 436.445, 767.300 431.379, 775.921 426.313, 784.543 421.247, 793.165 416.181, 801.787 411.115, 810.409 409.738, 812.752 404.672, 821.374 404.169, 822.231 399.103, 830.853 394.037, 839.475 392.121, 842.735 387.055, 851.357 382.505, 859.101 377.439, 867.723 372.373, 876.345 370.561, 879.428 375.346, 888.209 380.131, 896.990 384.916, 905.771 389.701, 914.552 394.486, 923.333 399.270, 932.113 404.055, 940.894 407.912, 947.972 412.697, 956.753 417.482, 965.534 422.267, 974.315 427.051, 983.096 431.836, 991.877 436.621, 1000.658 441.406, 1009.439 446.191, 1018.219 448.816, 1023.037 449.585, 1024.448 454.370, 1033.229 459.155, 1042.010 463.940, 1050.791 468.724, 1059.572 473.509, 1068.353 478.294, 1077.134 483.079, 1085.914 487.864, 1094.695 492.649, 1103.476 497.434, 1112.257 502.219, 1121.038 504.903, 1125.964 514.903, 1125.988 524.903, 1126.011 534.903, 1126.035 544.903, 1126.059 554.903, 1126.083 564.903, 1126.106 574.903, 1126.130 584.902, 1126.154 594.902, 1126.177 599.337, 1126.188 609.337, 1126.212 619.337, 1126.235 629.576, 1126.260 639.576, 1126.283 649.576, 1126.307 659.576, 1126.331 663.389, 1126.340 673.389, 1126.364 683.389, 1126.387 693.389, 1126.411 703.389, 1126.435 707.655, 1126.445 709.125, 1126.448 719.125, 1126.472 729.125, 1126.496 739.125, 1126.519 749.125, 1126.543 759.125, 1126.567 761.380, 1126.572 765.911, 1126.583 771.870, 1118.552 777.828, 1110.522 783.787, 1102.491 789.746, 1094.460 795.705, 1086.430 801.664, 1078.399 807.623, 1070.368 813.582, 1062.338 819.541, 1054.307 825.500, 1046.277 831.686, 1037.940 837.645, 1029.909 843.604, 1021.878 849.563, 1013.848 855.522, 1005.817 861.481, 997.786 867.440, 989.756 873.399, 981.725 879.357, 973.694 885.316, 965.664 891.275, 957.633 897.234, 949.603 903.193, 941.572 909.152, 933.541 915.111, 925.511 921.070, 917.480 927.029, 909.449 932.988, 901.419 938.947, 893.388 944.906, 885.357 950.391, 877.965 " fill="none" stroke="rgb(0, 119, 0)" stroke-linecap="butt" stroke-linejoin="round" stroke-opacity="1.0" stroke-width="3.0" />
            <path d=" M 765.911, 1126.583 763.739, 1123.387 758.119, 1115.116 752.498, 1106.845 746.878, 1098.574 741.257, 1090.303 737.685, 1085.045 732.064, 1076.774 726.444, 1068.503 720.823, 1060.232 715.203, 1051.961 709.583, 1043.690 703.962, 1035.419 698.342, 1027.147 692.721, 1018.876 687.101, 1010.605 681.480, 1002.334 675.860, 994.063 670.240, 985.792 664.619, 977.521 658.999, 969.250 653.378, 960.979 647.758, 952.708 642.138, 944.437 636.517, 936.165 630.897, 927.894 625.276, 919.623 619.234, 910.731 " fill="none" stroke="rgb(0, 119, 0)" stroke-linecap="butt" stroke-linejoin="round" stroke-opacity="1.0" stroke-width="3.0" />
            <path d=" M 370.561, 879.428 380.483, 880.677 390.405, 881.926 400.326, 883.175 410.248, 884.424 420.170, 885.673 430.091, 886.922 440.013, 888.170 449.935, 889.419 459.856, 890.668 469.778, 891.917 479.700, 893.166 489.622, 894.415 499.543, 895.664 509.465, 896.913 519.387, 898.162 529.308, 899.411 539.230, 900.660 549.152, 901.909 559.073, 903.158 568.995, 904.407 578.917, 905.656 588.839, 906.905 598.760, 908.154 608.682, 909.403 619.234, 910.731 624.739, 902.383 630.244, 894.034 630.374, 893.838 634.193, 888.046 639.698, 879.698 645.203, 871.350 650.709, 863.002 656.214, 854.653 661.719, 846.305 667.224, 837.957 672.770, 829.547 678.275, 821.199 683.780, 812.851 689.286, 804.503 694.791, 796.154 700.296, 787.806 705.801, 779.458 707.960, 776.184 713.466, 767.835 716.519, 763.204 722.025, 754.856 727.557, 746.467 733.062, 738.119 738.567, 729.771 744.072, 721.422 749.578, 713.074 755.083, 704.726 760.588, 696.378 766.093, 688.029 771.598, 679.681 772.678, 678.044 " fill="none" stroke="rgb(0, 119, 0)" stroke-linecap="butt" stroke-linejoin="round" stroke-opacity="1.0" stroke-width="3.0" />
            <path d=" M 328.192, 1213.686 329.807, 1213.620 339.799, 1213.211 349.791, 1212.802 359.782, 1212.393 369.774, 1211.984 379.766, 1211.575 389.757, 1211.167 399.749, 1210.758 409.741, 1210.349 419.732, 1209.940 429.724, 1209.531 439.716, 1209.122 449.707, 1208.713 459.699, 1208.304 469.690, 1207.896 479.682, 1207.487 489.674, 1207.078 499.665, 1206.669 509.657, 1206.260 514.328, 1206.069 524.320, 1205.660 534.312, 1205.251 544.303, 1204.842 554.295, 1204.433 564.286, 1204.025 574.278, 1203.616 575.221, 1203.577 585.213, 1203.168 595.204, 1202.759 605.196, 1202.350 615.188, 1201.942 625.179, 1201.533 635.171, 1201.124 643.615, 1200.778 653.607, 1200.369 654.047, 1200.351 664.039, 1199.942 674.031, 1199.534 684.022, 1199.125 694.014, 1198.716 704.005, 1198.307 708.376, 1198.128 714.328, 1190.092 720.281, 1182.057 726.233, 1174.021 732.185, 1165.986 733.596, 1164.081 739.548, 1156.045 745.500, 1148.010 751.453, 1139.974 757.405, 1131.938 761.380, 1126.572 763.739, 1123.387 769.691, 1115.351 775.643, 1107.316 781.596, 1099.280 787.548, 1091.245 793.500, 1083.209 799.452, 1075.173 805.404, 1067.138 811.357, 1059.102 817.309, 1051.066 823.261, 1043.031 829.348, 1034.813 835.300, 1026.777 841.253, 1018.742 847.205, 1010.706 853.157, 1002.670 859.109, 994.635 865.061, 986.599 871.014, 978.563 876.966, 970.528 882.918, 962.492 888.870, 954.457 894.822, 946.421 900.775, 938.385 906.727, 930.350 912.679, 922.314 918.631, 914.278 924.583, 906.243 930.536, 898.207 936.488, 890.172 942.440, 882.136 946.097, 877.199 947.739, 874.982 953.691, 866.947 959.643, 858.911 965.596, 850.875 971.548, 842.840 977.500, 834.804 983.452, 826.768 989.404, 818.733 995.357, 810.697 1001.309, 802.662 1007.261, 794.626 1013.213, 786.590 1019.165, 778.555 1024.445, 771.428 1030.397, 763.392 1036.349, 755.356 1042.301, 747.321 1048.253, 739.285 1054.206, 731.249 1059.335, 724.324 1052.098, 717.424 1044.860, 710.524 1039.320, 705.242 1032.082, 698.342 1024.844, 691.442 1017.606, 684.542 1010.368, 677.641 1003.130, 670.741 995.893, 663.841 988.655, 656.941 981.417, 650.041 974.179, 643.140 966.941, 636.240 959.703, 629.340 952.465, 622.440 945.227, 615.539 937.990, 608.639 930.752, 601.739 923.514, 594.839 916.276, 587.939 909.038, 581.038 904.009, 576.244 896.771, 569.344 889.533, 562.444 882.295, 555.543 875.057, 548.643 867.819, 541.743 860.582, 534.843 853.344, 527.943 846.106, 521.042 838.868, 514.142 831.630, 507.242 824.392, 500.342 817.154, 493.442 809.916, 486.541 804.831, 481.693 797.593, 474.793 790.355, 467.893 790.155, 467.702 782.917, 460.802 775.679, 453.902 768.442, 447.002 761.204, 440.101 753.966, 433.201 746.728, 426.301 739.490, 419.401 732.252, 412.500 725.836, 406.384 716.689, 402.341 707.543, 398.299 698.396, 394.257 689.249, 390.215 680.103, 386.173 670.956, 382.130 661.809, 378.088 652.663, 374.046 643.516, 370.004 634.943, 366.215 625.796, 362.173 616.650, 358.131 607.503, 354.089 598.357, 350.047 589.210, 346.005 580.063, 341.962 570.917, 337.920 566.215, 335.843 " fill="none" stroke="rgb(0, 119, 0)" stroke-linecap="butt" stroke-linejoin="round" stroke-opacity="1.0" stroke-width="3.0" />
            <path d=" M 708.376, 1198.128 703.066, 1189.654 697.756, 1181.181 692.446, 1172.707 687.136, 1164.233 683.942, 1159.137 678.632, 1150.663 673.322, 1142.190 668.012, 1133.716 663.389, 1126.340 658.079, 1117.866 652.769, 1109.393 647.459, 1100.919 642.149, 1092.445 636.839, 1083.972 631.529, 1075.498 626.219, 1067.024 620.908, 1058.551 615.598, 1050.077 610.288, 1041.603 604.978, 1033.130 599.668, 1024.656 594.358, 1016.182 589.048, 1007.709 583.738, 999.235 578.427, 990.762 573.117, 982.288 567.807, 973.814 562.497, 965.341 557.187, 956.867 551.877, 948.393 546.567, 939.920 541.257, 931.446 535.947, 922.972 530.636, 914.499 525.326, 906.025 520.016, 897.551 514.706, 889.078 509.396, 880.604 502.499, 869.598 497.189, 861.125 491.879, 852.651 486.569, 844.177 481.259, 835.704 475.948, 827.230 473.354, 823.091 " fill="none" stroke="rgb(0, 119, 0)" stroke-linecap="butt" stroke-linejoin="round" stroke-opacity="1.0" stroke-width="3.0" />
            <path d=" M -26.252, 741.894 -16.381, 743.498 -6.511, 745.103 3.359, 746.707 13.230, 748.311 23.100, 749.915 32.971, 751.519 42.841, 753.123 52.712, 754.728 62.582, 756.332 72.453, 757.936 82.323, 759.540 92.194, 761.144 103.001, 762.901 112.872, 764.505 122.742, 766.109 132.613, 767.713 142.483, 769.317 152.354, 770.921 162.224, 772.526 172.095, 774.130 181.965, 775.734 191.836, 777.338 201.706, 778.942 211.577, 780.546 221.447, 782.151 231.318, 783.755 241.188, 785.359 251.059, 786.963 260.929, 788.567 271.122, 790.224 280.992, 791.828 290.863, 793.432 300.733, 795.036 308.906, 796.364 318.777, 797.969 328.647, 799.573 338.518, 801.177 348.388, 802.781 358.259, 804.385 368.129, 805.989 371.484, 806.535 381.355, 808.139 391.225, 809.743 401.096, 811.347 409.738, 812.752 419.609, 814.356 429.479, 815.960 439.350, 817.564 449.220, 819.168 459.091, 820.773 468.961, 822.377 473.354, 823.091 478.536, 814.538 483.718, 805.986 488.900, 797.433 494.082, 788.880 499.264, 780.328 504.446, 771.775 509.628, 763.222 510.133, 762.389 515.315, 753.837 520.497, 745.284 525.679, 736.732 530.861, 728.179 536.043, 719.626 541.225, 711.074 546.407, 702.521 551.589, 693.969 556.771, 685.416 561.953, 676.863 564.921, 671.965 570.103, 663.412 573.632, 657.587 578.814, 649.035 583.996, 640.482 589.178, 631.929 592.301, 626.775 597.483, 618.222 602.665, 609.670 607.847, 601.117 613.029, 592.565 618.211, 584.012 623.393, 575.459 628.575, 566.907 630.547, 563.653 635.729, 555.100 640.911, 546.547 646.093, 537.995 651.275, 529.442 656.457, 520.890 656.998, 519.996 662.180, 511.444 664.775, 507.161 669.957, 498.608 675.139, 490.056 680.321, 481.503 685.503, 472.951 690.685, 464.398 695.867, 455.845 701.049, 447.293 706.231, 438.740 709.307, 433.663 714.489, 425.110 719.671, 416.558 724.853, 408.005 725.836, 406.384 " fill="none" stroke="rgb(0, 119, 0)" stroke-linecap="butt" stroke-linejoin="round" stroke-opacity="1.0" stroke-width="3.0" />
            <path d=" M 426.921, 413.832 433.160, 421.647 439.398, 429.462 445.637, 437.277 451.876, 445.093 458.115, 452.908 464.354, 460.723 470.592, 468.538 476.831, 476.353 483.229, 484.368 489.468, 492.183 495.707, 499.998 501.946, 507.814 508.185, 515.629 514.423, 523.444 520.662, 531.259 526.901, 539.074 533.140, 546.890 539.379, 554.705 540.697, 556.356 546.936, 564.171 553.174, 571.987 559.413, 579.802 560.902, 581.666 " fill="none" stroke="rgb(0, 119, 0)" stroke-linecap="butt" stroke-linejoin="round" stroke-opacity="1.0" stroke-width="3.0" />
            <path d=" M 399.184, 855.126 404.274, 846.518 409.365, 837.911 414.455, 829.303 419.545, 820.696 424.635, 812.088 429.726, 803.481 434.816, 794.873 439.906, 786.266 444.997, 777.658 450.087, 769.051 455.177, 760.443 460.267, 751.836 465.358, 743.228 470.448, 734.621 475.538, 726.013 480.243, 718.058 485.333, 709.450 490.423, 700.843 495.514, 692.235 500.604, 683.628 505.694, 675.020 510.784, 666.413 515.020, 659.250 520.110, 650.643 525.201, 642.035 530.291, 633.428 535.381, 624.820 540.471, 616.213 542.582, 612.643 547.673, 604.036 552.763, 595.428 557.853, 586.821 560.902, 581.666 570.468, 584.577 580.035, 587.488 583.493, 588.541 593.060, 591.452 602.626, 594.363 612.193, 597.274 621.760, 600.185 626.683, 601.683 636.250, 604.595 645.817, 607.506 655.384, 610.417 664.951, 613.328 674.517, 616.239 684.084, 619.151 693.651, 622.062 703.218, 624.973 712.785, 627.884 722.352, 630.795 731.919, 633.707 735.861, 634.906 745.428, 637.818 754.995, 640.729 764.562, 643.640 774.129, 646.551 783.696, 649.462 793.263, 652.373 795.852, 653.161 800.831, 654.677 " fill="none" stroke="rgb(0, 119, 0)" stroke-linecap="butt" stroke-linejoin="round" stroke-opacity="1.0" stroke-width="3.0" />
            <path d=" M 800.831, 654.677 797.762, 651.349 797.347, 650.899 790.568, 643.548 786.858, 639.526 780.078, 632.176 773.298, 624.825 766.519, 617.474 760.865, 611.345 754.086, 603.994 747.306, 596.643 740.526, 589.292 738.085, 586.646 731.305, 579.295 731.023, 578.989 724.243, 571.638 723.404, 570.727 716.624, 563.377 709.844, 556.026 703.064, 548.675 696.285, 541.324 689.505, 533.973 686.265, 530.461 679.485, 523.110 672.706, 515.759 665.926, 508.409 664.775, 507.161 657.995, 499.810 657.288, 499.043 647.909, 495.574 638.530, 492.105 629.151, 488.635 619.772, 485.166 610.393, 481.697 601.014, 478.228 591.635, 474.759 582.256, 471.289 572.877, 467.820 563.498, 464.351 554.119, 460.882 544.740, 457.412 535.361, 453.943 525.983, 450.474 516.604, 447.005 506.246, 443.174 496.867, 439.704 487.488, 436.235 478.109, 432.766 468.730, 429.297 466.378, 428.427 456.999, 424.958 447.620, 421.488 438.241, 418.019 428.862, 414.550 426.921, 413.832 422.197, 422.646 419.307, 428.036 414.583, 436.849 409.859, 445.663 405.135, 454.477 400.410, 463.290 395.686, 472.104 390.962, 480.918 386.238, 489.731 381.513, 498.545 376.789, 507.359 372.065, 516.173 367.341, 524.986 362.616, 533.800 357.892, 542.614 353.168, 551.427 348.444, 560.241 343.719, 569.055 338.995, 577.869 334.271, 586.682 329.547, 595.496 324.822, 604.310 320.098, 613.123 315.374, 621.937 310.650, 630.751 305.925, 639.564 301.201, 648.378 296.477, 657.192 291.569, 666.348 296.522, 675.035 301.474, 683.723 306.427, 692.410 311.379, 701.098 315.755, 708.775 320.708, 717.462 325.660, 726.150 330.612, 734.837 335.565, 743.525 337.012, 746.063 341.964, 754.750 346.917, 763.438 351.869, 772.125 356.821, 780.813 361.774, 789.500 366.726, 798.188 371.484, 806.535 373.413, 809.919 378.095, 818.132 383.048, 826.819 388.000, 835.507 392.121, 842.735 397.073, 851.423 399.184, 855.126 409.087, 856.513 418.991, 857.900 428.894, 859.287 438.797, 860.675 448.701, 862.062 458.604, 863.449 468.507, 864.837 478.411, 866.224 488.314, 867.611 498.217, 868.998 502.499, 869.598 512.402, 870.986 522.306, 872.373 524.954, 872.744 534.857, 874.131 543.954, 875.405 549.496, 876.182 553.586, 876.755 563.490, 878.142 573.393, 879.529 583.296, 880.917 593.200, 882.304 603.103, 883.691 613.006, 885.078 622.909, 886.466 625.520, 886.831 634.193, 888.046 644.096, 889.434 645.169, 889.584 650.693, 881.248 656.217, 872.912 661.741, 864.576 662.850, 862.901 668.374, 854.566 673.898, 846.230 679.422, 837.894 684.946, 829.558 690.727, 820.834 696.251, 812.498 701.774, 804.162 707.298, 795.826 709.071, 793.151 714.594, 784.816 718.781, 778.498 723.319, 771.650 728.842, 763.314 734.366, 754.978 739.603, 747.075 745.127, 738.739 750.651, 730.403 756.175, 722.067 761.699, 713.731 767.223, 705.395 768.848, 702.942 771.464, 698.995 776.988, 690.659 777.068, 690.538 779.936, 686.209 785.460, 677.873 789.419, 671.898 794.943, 663.562 800.467, 655.227 800.831, 654.677 " fill="none" stroke="rgb(0, 119, 0)" stroke-linecap="butt" stroke-linejoin="round" stroke-opacity="1.0" stroke-width="3.0" />
            <path d=" M 645.169, 889.584 639.417, 881.404 633.664, 873.224 627.912, 865.044 622.160, 856.865 616.407, 848.685 610.655, 840.505 604.902, 832.325 599.150, 824.145 592.967, 815.353 587.215, 807.173 581.462, 798.993 575.710, 790.813 569.957, 782.634 564.205, 774.454 558.453, 766.274 552.700, 758.094 546.948, 749.914 541.176, 741.707 535.424, 733.527 529.671, 725.347 524.922, 718.594 " fill="none" stroke="rgb(0, 119, 0)" stroke-linecap="butt" stroke-linejoin="round" stroke-opacity="1.0" stroke-width="3.0" />
            <path d=" M 291.569, 666.348 301.328, 668.533 311.086, 670.717 320.844, 672.902 330.603, 675.087 333.821, 675.808 343.579, 677.992 353.338, 680.177 363.096, 682.362 371.546, 684.254 381.305, 686.439 391.063, 688.624 400.821, 690.809 410.580, 692.994 420.338, 695.178 430.097, 697.363 439.855, 699.548 449.613, 701.733 459.372, 703.918 469.130, 706.103 472.022, 706.750 472.725, 706.908 482.483, 709.092 492.241, 711.277 502.000, 713.462 511.758, 715.647 521.517, 717.832 524.922, 718.594 530.086, 710.030 535.249, 701.466 540.412, 692.902 545.575, 684.338 550.738, 675.774 554.618, 669.339 559.781, 660.775 564.944, 652.211 566.958, 648.870 572.121, 640.306 577.284, 631.742 582.038, 623.858 587.201, 615.294 592.364, 606.730 597.528, 598.166 602.691, 589.602 607.854, 581.038 613.017, 572.474 618.180, 563.910 620.346, 560.318 625.509, 551.754 630.672, 543.190 635.835, 534.626 640.998, 526.062 646.162, 517.498 646.844, 516.366 652.007, 507.802 657.170, 499.238 657.288, 499.043 " fill="none" stroke="rgb(0, 119, 0)" stroke-linecap="butt" stroke-linejoin="round" stroke-opacity="1.0" stroke-width="3.0" />
            <path d=" M 551.503, 537.812 557.832, 545.555 564.160, 553.298 570.488, 561.041 576.816, 568.784 583.145, 576.526 587.494, 581.849 593.823, 589.592 600.151, 597.334 606.479, 605.077 612.807, 612.820 616.857, 617.775 623.185, 625.518 629.513, 633.261 633.869, 638.590 639.165, 645.070 " fill="none" stroke="rgb(0, 119, 0)" stroke-linecap="butt" stroke-linejoin="round" stroke-opacity="1.0" stroke-width="3.0" />
            <path d=" M 539.422, 805.829 544.695, 797.332 549.967, 788.835 553.586, 783.001 558.858, 774.504 564.130, 766.006 569.403, 757.509 574.675, 749.012 579.947, 740.515 585.219, 732.017 590.491, 723.520 595.763, 715.023 601.036, 706.525 605.542, 699.262 610.814, 690.765 614.622, 684.628 619.894, 676.130 625.166, 667.633 630.438, 659.136 635.711, 650.639 639.165, 645.070 648.792, 647.779 658.418, 650.487 668.044, 653.195 677.670, 655.904 687.297, 658.612 696.205, 661.118 705.831, 663.827 715.458, 666.535 725.084, 669.243 734.710, 671.952 744.336, 674.660 753.963, 677.369 763.589, 680.077 773.215, 682.785 775.787, 683.509 778.119, 684.165 780.228, 684.758 " fill="none" stroke="rgb(0, 119, 0)" stroke-linecap="butt" stroke-linejoin="round" stroke-opacity="1.0" stroke-width="3.0" />
            <path d=" M 780.228, 684.758 777.612, 681.818 777.206, 681.363 770.558, 673.893 768.932, 672.066 762.284, 664.596 755.636, 657.125 749.812, 650.582 743.164, 643.112 736.516, 635.641 735.861, 634.906 729.213, 627.436 722.565, 619.966 722.013, 619.346 719.258, 616.250 712.610, 608.780 705.961, 601.310 704.896, 600.112 701.695, 596.515 695.046, 589.045 689.641, 582.971 680.136, 579.864 678.796, 579.426 669.291, 576.319 659.786, 573.211 650.281, 570.104 646.685, 568.928 637.180, 565.821 630.547, 563.653 621.042, 560.545 620.346, 560.318 610.841, 557.210 603.636, 554.855 594.131, 551.747 584.626, 548.640 575.121, 545.533 565.616, 542.426 557.861, 539.890 551.503, 537.812 546.469, 546.452 541.434, 555.092 540.697, 556.356 537.460, 561.911 532.425, 570.551 527.390, 579.191 522.355, 587.831 517.320, 596.471 512.285, 605.111 507.251, 613.752 502.216, 622.392 497.181, 631.032 492.146, 639.672 487.111, 648.312 485.169, 651.644 480.134, 660.284 475.099, 668.925 470.065, 677.565 465.030, 686.205 462.126, 691.188 467.716, 699.479 472.300, 706.277 472.725, 706.908 478.315, 715.199 480.243, 718.058 485.833, 726.349 491.424, 734.641 497.014, 742.932 502.605, 751.223 508.195, 759.515 510.133, 762.389 515.724, 770.681 521.314, 778.972 526.904, 787.264 532.495, 795.555 538.085, 803.846 539.422, 805.829 549.268, 807.580 559.113, 809.332 568.959, 811.083 573.615, 811.911 583.089, 813.596 588.602, 814.576 592.669, 815.300 592.967, 815.353 602.812, 817.104 612.658, 818.855 622.503, 820.606 632.349, 822.358 642.194, 824.109 652.040, 825.860 661.885, 827.611 671.731, 829.362 672.770, 829.547 682.615, 831.298 683.091, 831.383 688.614, 823.046 690.381, 820.380 695.904, 812.043 701.427, 803.706 706.950, 795.370 708.717, 792.702 714.240, 784.365 718.208, 778.375 722.959, 771.204 728.482, 762.867 734.005, 754.530 739.237, 746.633 744.760, 738.296 750.283, 729.960 755.806, 721.623 761.329, 713.286 766.851, 704.950 768.282, 702.791 770.898, 698.841 776.421, 690.505 776.685, 690.106 779.553, 685.778 780.228, 684.758 " fill="none" stroke="rgb(0, 119, 0)" stroke-linecap="butt" stroke-linejoin="round" stroke-opacity="1.0" stroke-width="3.0" />
            <path d=" M 683.091, 831.383 677.085, 823.388 671.078, 815.393 665.072, 807.398 659.065, 799.403 653.059, 791.408 647.052, 783.413 641.046, 775.417 635.039, 767.422 629.032, 759.427 623.026, 751.432 617.019, 743.437 611.013, 735.442 605.006, 727.447 602.037, 723.495 " fill="none" stroke="rgb(0, 119, 0)" stroke-linecap="butt" stroke-linejoin="round" stroke-opacity="1.0" stroke-width="3.0" />
            <path d=" M 462.126, 691.188 471.869, 693.438 478.891, 695.059 488.635, 697.309 498.378, 699.559 508.122, 701.809 517.866, 704.059 527.609, 706.309 537.353, 708.559 547.096, 710.809 556.840, 713.059 558.444, 713.429 568.188, 715.679 577.932, 717.929 587.675, 720.179 597.419, 722.429 602.037, 723.495 607.327, 715.009 611.937, 707.615 617.227, 699.129 622.518, 690.643 624.671, 687.188 629.961, 678.702 635.252, 670.216 640.542, 661.730 645.832, 653.244 651.122, 644.758 651.792, 643.684 657.082, 635.198 662.372, 626.712 667.663, 618.226 672.953, 609.740 678.243, 601.254 683.533, 592.768 688.824, 584.282 689.641, 582.971 " fill="none" stroke="rgb(0, 119, 0)" stroke-linecap="butt" stroke-linejoin="round" stroke-opacity="1.0" stroke-width="3.0" />
            <path d=" M 363.982, 620.767 369.366, 629.194 374.749, 637.622 380.133, 646.049 385.517, 654.476 386.940, 656.703 392.323, 665.131 397.707, 673.558 403.090, 681.985 408.474, 690.412 413.858, 698.839 419.241, 707.266 424.625, 715.694 430.008, 724.121 435.392, 732.548 440.775, 740.975 446.577, 750.056 451.960, 758.483 457.344, 766.910 462.727, 775.337 468.111, 783.765 473.494, 792.192 478.878, 800.619 484.262, 809.046 489.645, 817.473 495.029, 825.900 500.412, 834.328 505.796, 842.755 511.179, 851.182 516.563, 859.609 521.947, 868.036 524.954, 872.744 530.338, 881.171 534.477, 887.650 " fill="none" stroke="rgb(0, 119, 0)" stroke-linecap="butt" stroke-linejoin="round" stroke-opacity="1.0" stroke-width="3.0" />
            <path d=" M 322.116, 1223.289 327.463, 1214.838 328.192, 1213.686 333.539, 1205.235 338.885, 1196.785 344.232, 1188.334 349.579, 1179.884 354.926, 1171.433 360.272, 1162.982 365.619, 1154.532 370.966, 1146.081 376.312, 1137.631 381.659, 1129.180 387.006, 1120.729 392.353, 1112.279 397.699, 1103.828 403.046, 1095.378 408.393, 1086.927 413.740, 1078.477 419.086, 1070.026 424.433, 1061.575 429.780, 1053.125 431.853, 1049.848 437.200, 1041.397 442.547, 1032.947 447.893, 1024.496 448.816, 1023.037 454.163, 1014.587 459.510, 1006.136 464.857, 997.686 470.203, 989.235 475.550, 980.784 480.897, 972.334 486.243, 963.883 491.590, 955.433 496.937, 946.982 502.284, 938.531 507.630, 930.081 512.977, 921.630 518.324, 913.180 523.671, 904.729 529.017, 896.279 534.477, 887.650 544.390, 888.965 554.303, 890.280 564.216, 891.595 574.129, 892.911 584.042, 894.226 593.956, 895.541 603.869, 896.856 613.782, 898.171 623.695, 899.486 633.608, 900.801 635.359, 901.034 645.272, 902.349 655.185, 903.664 665.099, 904.979 675.012, 906.294 684.925, 907.609 694.838, 908.924 704.751, 910.239 714.664, 911.555 724.577, 912.870 734.491, 914.185 744.404, 915.500 754.317, 916.815 764.230, 918.130 774.143, 919.445 784.056, 920.760 793.969, 922.076 803.883, 923.391 813.796, 924.706 823.709, 926.021 829.295, 926.762 839.208, 928.077 849.122, 929.392 850.459, 929.570 " fill="none" stroke="rgb(0, 119, 0)" stroke-linecap="butt" stroke-linejoin="round" stroke-opacity="1.0" stroke-width="3.0" />
            <path d=" M 850.459, 929.570 844.188, 921.780 838.213, 914.360 831.942, 906.571 825.671, 898.781 819.400, 890.992 813.129, 883.203 806.858, 875.413 806.358, 874.793 800.087, 867.003 793.816, 859.214 787.545, 851.425 785.162, 848.465 778.891, 840.675 772.619, 832.886 766.348, 825.097 760.077, 817.307 753.806, 809.518 749.822, 804.569 743.551, 796.780 737.280, 788.991 732.576, 783.148 730.922, 781.094 724.651, 773.305 723.319, 771.650 722.959, 771.204 720.510, 768.162 716.519, 763.204 716.026, 762.592 709.755, 754.803 703.484, 747.013 697.337, 739.378 691.065, 731.588 684.794, 723.799 684.023, 722.841 677.752, 715.052 671.481, 707.263 668.866, 704.014 665.836, 700.251 663.229, 697.012 657.785, 695.625 648.094, 693.156 641.942, 691.589 632.251, 689.120 624.671, 687.188 614.981, 684.719 614.622, 684.628 604.931, 682.159 595.241, 679.690 589.420, 678.207 581.228, 676.119 580.479, 675.929 570.789, 673.460 564.921, 671.965 555.231, 669.496 554.618, 669.339 544.927, 666.870 535.237, 664.401 525.547, 661.932 515.856, 659.463 515.020, 659.250 505.330, 656.781 501.896, 655.906 492.206, 653.437 485.169, 651.644 475.479, 649.175 467.444, 647.128 457.754, 644.659 448.064, 642.190 438.373, 639.721 428.683, 637.252 418.992, 634.783 409.302, 632.314 401.655, 630.366 391.965, 627.897 382.275, 625.428 372.584, 622.959 363.982, 620.767 359.177, 629.537 354.371, 638.306 349.565, 647.076 344.760, 655.846 339.954, 664.615 335.148, 673.385 333.821, 675.808 329.015, 684.577 324.209, 693.347 319.404, 702.116 315.755, 708.775 310.950, 717.544 306.144, 726.314 301.338, 735.083 296.533, 743.853 291.727, 752.622 286.921, 761.392 282.116, 770.162 277.310, 778.931 272.504, 787.701 271.122, 790.224 266.316, 798.993 261.511, 807.763 256.705, 816.532 251.899, 825.302 247.094, 834.072 243.784, 840.110 238.979, 848.880 234.173, 857.650 229.367, 866.419 224.562, 875.189 219.756, 883.958 214.950, 892.728 210.145, 901.498 205.339, 910.267 200.533, 919.037 195.529, 928.168 199.471, 937.359 203.413, 946.549 207.355, 955.739 211.297, 964.929 215.239, 974.120 219.181, 983.310 223.123, 992.500 227.065, 1001.690 231.007, 1010.881 234.949, 1020.071 238.891, 1029.261 242.226, 1037.036 246.168, 1046.226 250.110, 1055.416 254.052, 1064.607 257.994, 1073.797 261.936, 1082.987 265.878, 1092.177 269.820, 1101.368 273.762, 1110.558 277.704, 1119.748 281.646, 1128.938 285.588, 1138.129 289.530, 1147.319 293.472, 1156.509 297.414, 1165.699 301.356, 1174.890 305.298, 1184.080 309.240, 1193.270 313.182, 1202.460 317.124, 1211.651 318.173, 1214.096 322.116, 1223.289 323.732, 1223.215 333.722, 1222.761 343.711, 1222.306 353.701, 1221.852 363.691, 1221.397 373.680, 1220.943 383.670, 1220.488 393.660, 1220.033 403.649, 1219.579 413.639, 1219.124 423.629, 1218.670 433.618, 1218.215 443.608, 1217.761 453.598, 1217.306 463.587, 1216.851 473.577, 1216.397 483.567, 1215.942 493.556, 1215.488 503.546, 1215.033 513.536, 1214.579 518.697, 1214.344 528.687, 1213.889 538.676, 1213.435 548.666, 1212.980 558.656, 1212.526 568.645, 1212.071 569.270, 1212.043 579.259, 1211.588 589.249, 1211.134 599.239, 1210.679 609.228, 1210.224 619.218, 1209.770 629.208, 1209.315 639.197, 1208.861 648.171, 1208.452 654.047, 1200.351 659.919, 1192.257 665.790, 1184.162 671.662, 1176.067 677.533, 1167.972 683.405, 1159.878 683.942, 1159.137 689.814, 1151.042 695.685, 1142.947 701.557, 1134.853 707.655, 1126.445 708.429, 1125.378 714.301, 1117.283 720.172, 1109.188 726.044, 1101.093 731.915, 1092.999 737.685, 1085.045 743.556, 1076.950 749.428, 1068.856 755.299, 1060.761 761.171, 1052.666 767.042, 1044.571 772.914, 1036.477 778.785, 1028.382 784.657, 1020.287 790.528, 1012.192 796.400, 1004.098 801.315, 997.321 807.187, 989.227 813.058, 981.132 818.930, 973.037 824.801, 964.942 830.673, 956.848 836.544, 948.753 842.416, 940.658 848.287, 932.563 850.459, 929.570 " fill="none" stroke="rgb(0, 119, 0)" stroke-linecap="butt" stroke-linejoin="round" stroke-opacity="1.0" stroke-width="3.0" />
            <path d=" M 648.171, 1208.452 643.615, 1200.778 638.511, 1192.179 633.406, 1183.580 628.302, 1174.981 623.197, 1166.382 618.092, 1157.783 612.988, 1149.184 607.883, 1140.585 602.779, 1131.986 599.337, 1126.188 594.232, 1117.589 589.127, 1108.990 584.023, 1100.391 578.918, 1091.792 573.813, 1083.193 568.709, 1074.594 563.604, 1065.995 558.500, 1057.396 553.395, 1048.797 548.290, 1040.198 543.186, 1031.599 538.081, 1023.000 532.977, 1014.401 527.872, 1005.802 522.767, 997.203 517.663, 988.604 512.558, 980.005 507.454, 971.406 502.349, 962.807 498.560, 956.424 " fill="none" stroke="rgb(0, 119, 0)" stroke-linecap="butt" stroke-linejoin="round" stroke-opacity="1.0" stroke-width="3.0" />
            <path d=" M 195.529, 928.168 205.486, 929.097 215.443, 930.025 225.400, 930.954 235.357, 931.882 245.313, 932.811 255.270, 933.739 265.227, 934.667 275.184, 935.596 285.141, 936.524 295.098, 937.453 305.054, 938.381 315.011, 939.309 324.968, 940.238 334.925, 941.166 344.882, 942.095 354.838, 943.023 364.795, 943.952 376.523, 945.045 386.480, 945.974 396.437, 946.902 406.394, 947.830 407.912, 947.972 417.869, 948.900 427.826, 949.829 437.782, 950.757 447.739, 951.686 457.696, 952.614 467.653, 953.542 477.610, 954.471 487.566, 955.399 497.523, 956.328 498.560, 956.424 503.919, 947.982 509.279, 939.539 514.638, 931.096 519.997, 922.654 525.356, 914.211 530.715, 905.768 536.075, 897.326 541.434, 888.883 546.793, 880.440 549.496, 876.182 554.855, 867.739 560.215, 859.296 565.574, 850.854 570.933, 842.411 576.292, 833.968 581.651, 825.526 582.319, 824.474 587.678, 816.032 588.602, 814.576 593.961, 806.134 599.320, 797.691 604.679, 789.248 610.039, 780.806 615.398, 772.363 620.757, 763.920 626.116, 755.478 631.475, 747.035 636.835, 738.592 642.194, 730.150 644.242, 726.922 649.602, 718.480 654.961, 710.037 660.320, 701.594 663.229, 697.012 " fill="none" stroke="rgb(0, 119, 0)" stroke-linecap="butt" stroke-linejoin="round" stroke-opacity="1.0" stroke-width="3.0" />
            <path d=" M 710.389, 638.864 716.952, 646.409 723.516, 653.953 730.079, 661.498 735.208, 667.394 741.772, 674.938 748.335, 682.483 754.899, 690.028 759.998, 695.889 " fill="none" stroke="rgb(0, 119, 0)" stroke-linecap="butt" stroke-linejoin="round" stroke-opacity="1.0" stroke-width="3.0" />
            <path d=" M 707.177, 776.016 712.681, 767.667 716.026, 762.592 721.530, 754.243 726.777, 746.284 732.280, 737.935 737.784, 729.586 743.288, 721.237 748.792, 712.887 754.296, 704.538 759.998, 695.889 766.447, 697.636 770.898, 698.841 771.464, 698.995 781.116, 701.609 790.768, 704.223 797.592, 706.072 807.245, 708.686 816.897, 711.301 826.549, 713.915 827.673, 714.220 " fill="none" stroke="rgb(0, 119, 0)" stroke-linecap="butt" stroke-linejoin="round" stroke-opacity="1.0" stroke-width="3.0" />
            <path d=" M 827.673, 714.220 825.918, 712.278 819.213, 704.859 818.035, 703.557 811.330, 696.138 804.624, 688.720 797.918, 681.301 791.213, 673.882 789.419, 671.898 786.389, 668.546 785.980, 668.093 779.274, 660.674 777.623, 658.848 768.037, 655.999 758.452, 653.150 749.812, 650.582 740.226, 647.733 738.846, 647.322 729.261, 644.473 719.675, 641.624 710.389, 638.864 705.014, 647.297 699.639, 655.730 698.801, 657.046 696.205, 661.118 690.830, 669.551 685.456, 677.984 684.033, 680.217 681.224, 684.624 675.849, 693.057 670.475, 701.490 668.866, 704.014 663.491, 712.447 660.503, 717.136 666.715, 724.972 672.927, 732.809 673.747, 733.844 679.959, 741.680 686.171, 749.517 692.383, 757.353 698.595, 765.190 704.807, 773.026 707.177, 776.016 707.960, 776.184 714.308, 777.541 718.208, 778.375 718.781, 778.498 728.560, 780.589 730.922, 781.094 733.568, 781.660 743.347, 783.752 753.125, 785.843 761.289, 787.589 771.068, 789.680 775.715, 790.674 781.336, 782.403 786.957, 774.133 792.578, 765.862 798.198, 757.591 803.819, 749.320 809.440, 741.049 815.061, 732.779 817.778, 728.780 823.399, 720.509 825.095, 718.013 827.673, 714.220 " fill="none" stroke="rgb(0, 119, 0)" stroke-linecap="butt" stroke-linejoin="round" stroke-opacity="1.0" stroke-width="3.0" />
            <path d=" M 775.715, 790.674 769.336, 782.973 762.957, 775.271 756.579, 767.570 750.200, 759.869 743.821, 752.167 739.603, 747.075 739.237, 746.633 736.354, 743.152 729.976, 735.451 728.460, 733.620 " fill="none" stroke="rgb(0, 119, 0)" stroke-linecap="butt" stroke-linejoin="round" stroke-opacity="1.0" stroke-width="3.0" />
            <path d=" M 660.503, 717.136 670.221, 719.493 679.939, 721.851 684.023, 722.841 693.742, 725.199 703.460, 727.556 713.178, 729.913 722.896, 732.271 728.460, 733.620 733.954, 725.265 739.447, 716.909 744.941, 708.553 750.435, 700.198 755.929, 691.842 761.423, 683.486 766.210, 676.206 768.932, 672.066 774.426, 663.710 777.623, 658.848 " fill="none" stroke="rgb(0, 119, 0)" stroke-linecap="butt" stroke-linejoin="round" stroke-opacity="1.0" stroke-width="3.0" />
            <path d=" M 630.208, 510.418 636.873, 517.873 643.537, 525.329 650.201, 532.785 656.866, 540.240 663.530, 547.696 670.194, 555.152 674.418, 559.877 681.082, 567.332 687.747, 574.788 694.411, 582.243 701.075, 589.699 703.954, 592.920 " fill="none" stroke="rgb(0, 119, 0)" stroke-linecap="butt" stroke-linejoin="round" stroke-opacity="1.0" stroke-width="3.0" />
            <path d=" M 622.884, 721.912 628.205, 713.445 633.526, 704.979 638.848, 696.512 641.942, 691.589 647.263, 683.122 652.584, 674.655 657.906, 666.189 663.227, 657.722 668.548, 649.255 668.979, 648.569 674.300, 640.103 679.622, 631.636 684.943, 623.169 690.264, 614.703 695.585, 606.236 700.907, 597.769 701.695, 596.515 703.954, 592.920 713.468, 596.000 722.982, 599.080 732.496, 602.160 742.010, 605.240 751.524, 608.320 760.865, 611.345 770.379, 614.425 779.893, 617.505 789.407, 620.585 798.921, 623.665 808.435, 626.745 812.456, 628.047 " fill="none" stroke="rgb(0, 119, 0)" stroke-linecap="butt" stroke-linejoin="round" stroke-opacity="1.0" stroke-width="3.0" />
            <path d=" M 812.456, 628.047 805.578, 620.788 798.700, 613.528 791.823, 606.269 784.945, 599.010 782.415, 596.341 775.537, 589.082 768.660, 581.822 761.782, 574.563 754.904, 567.304 752.200, 564.451 745.322, 557.192 738.444, 549.933 737.277, 548.701 727.861, 545.334 718.445, 541.967 709.029, 538.600 699.612, 535.233 690.196, 531.867 686.265, 530.461 676.849, 527.094 667.433, 523.727 658.017, 520.361 656.998, 519.996 647.582, 516.630 646.844, 516.366 637.428, 512.999 630.208, 510.418 625.076, 519.000 619.944, 527.583 614.812, 536.165 609.680, 544.748 604.548, 553.331 603.636, 554.855 598.504, 563.437 593.372, 572.020 589.696, 578.168 589.519, 578.463 587.494, 581.849 583.493, 588.541 578.361, 597.123 573.228, 605.706 568.096, 614.288 565.230, 619.081 560.098, 627.663 555.986, 634.540 562.065, 642.480 566.958, 648.870 573.038, 656.810 573.632, 657.587 579.712, 665.527 584.154, 671.328 589.420, 678.207 595.499, 686.146 601.579, 694.086 605.542, 699.262 611.621, 707.202 611.937, 707.615 618.016, 715.555 622.884, 721.912 632.620, 724.196 638.780, 725.641 644.242, 726.922 648.273, 727.868 658.008, 730.152 667.744, 732.436 673.747, 733.844 683.483, 736.128 693.218, 738.412 697.337, 739.378 707.072, 741.662 716.808, 743.945 726.777, 746.284 727.557, 746.467 733.276, 747.809 736.354, 743.152 741.870, 734.810 747.385, 726.469 752.900, 718.127 758.415, 709.785 763.828, 701.597 766.447, 697.636 771.962, 689.294 773.676, 686.703 775.787, 683.509 776.533, 682.381 777.206, 681.363 782.721, 673.021 785.980, 668.093 791.495, 659.751 795.852, 653.161 797.347, 650.899 801.793, 644.174 807.308, 635.833 812.456, 628.047 " fill="none" stroke="rgb(0, 119, 0)" stroke-linecap="butt" stroke-linejoin="round" stroke-opacity="1.0" stroke-width="3.0" />
            <path d=" M 733.276, 747.809 726.917, 740.090 720.559, 732.372 714.201, 724.654 707.842, 716.935 701.484, 709.217 695.126, 701.499 688.767, 693.781 682.409, 686.062 681.224, 684.624 674.866, 676.906 668.507, 669.188 664.473, 664.291 " fill="none" stroke="rgb(0, 119, 0)" stroke-linecap="butt" stroke-linejoin="round" stroke-opacity="1.0" stroke-width="3.0" />
            <path d=" M 555.986, 634.540 565.630, 637.185 575.274, 639.829 584.918, 642.474 594.562, 645.119 599.356, 646.434 609.000, 649.078 618.644, 651.723 628.288, 654.367 637.932, 657.012 647.576, 659.657 657.220, 662.301 664.473, 664.291 669.803, 655.829 673.556, 649.870 678.885, 641.409 684.215, 632.947 689.544, 624.486 694.874, 616.024 700.203, 607.563 704.896, 600.112 710.225, 591.651 715.555, 583.189 720.449, 575.418 723.404, 570.727 728.733, 562.266 734.063, 553.805 737.277, 548.701 " fill="none" stroke="rgb(0, 119, 0)" stroke-linecap="butt" stroke-linejoin="round" stroke-opacity="1.0" stroke-width="3.0" />
            <path d=" M 971.428, 1224.831 965.440, 1216.823 959.452, 1208.814 953.464, 1200.805 947.475, 1192.796 941.487, 1184.788 935.499, 1176.779 929.510, 1168.770 923.522, 1160.761 917.534, 1152.753 911.545, 1144.744 905.557, 1136.735 903.905, 1134.525 897.917, 1126.517 891.928, 1118.508 885.940, 1110.499 879.952, 1102.490 873.964, 1094.482 867.975, 1086.473 861.987, 1078.464 855.999, 1070.455 850.010, 1062.447 844.022, 1054.438 838.034, 1046.429 831.686, 1037.940 829.348, 1034.813 823.360, 1026.804 817.372, 1018.795 811.383, 1010.787 805.395, 1002.778 801.315, 997.321 795.327, 989.313 789.339, 981.304 783.350, 973.295 777.362, 965.286 771.374, 957.277 765.385, 949.269 759.397, 941.260 753.409, 933.251 749.339, 927.809 743.351, 919.800 737.363, 911.791 731.374, 903.782 725.386, 895.774 719.398, 887.765 713.409, 879.756 707.421, 871.747 705.864, 869.664 " fill="none" stroke="rgb(0, 119, 0)" stroke-linecap="butt" stroke-linejoin="round" stroke-opacity="1.0" stroke-width="3.0" />
            <path d=" M 303.314, 806.374 313.192, 807.927 323.071, 809.481 332.950, 811.034 342.828, 812.587 352.707, 814.140 362.585, 815.693 372.464, 817.246 378.095, 818.132 387.974, 819.685 397.853, 821.238 404.169, 822.231 414.047, 823.784 423.926, 825.337 433.804, 826.890 443.683, 828.443 453.562, 829.997 463.440, 831.550 473.319, 833.103 483.198, 834.656 493.076, 836.209 502.955, 837.762 512.834, 839.315 522.712, 840.869 532.591, 842.422 542.470, 843.975 552.348, 845.528 562.227, 847.081 572.106, 848.634 581.984, 850.188 591.863, 851.741 602.351, 853.390 612.230, 854.943 622.109, 856.496 631.987, 858.049 641.866, 859.602 651.745, 861.155 661.623, 862.709 662.850, 862.901 672.729, 864.455 682.608, 866.008 692.486, 867.561 702.365, 869.114 705.864, 869.664 711.460, 861.377 717.056, 853.089 722.653, 844.802 728.249, 836.515 733.846, 828.227 739.442, 819.940 745.038, 811.653 749.822, 804.569 755.418, 796.282 761.015, 787.995 761.289, 787.589 766.885, 779.301 772.482, 771.014 778.078, 762.727 783.674, 754.439 789.271, 746.152 794.867, 737.865 800.464, 729.577 806.060, 721.290 808.245, 718.055 813.841, 709.768 818.035, 703.557 823.632, 695.269 829.228, 686.982 834.825, 678.695 840.421, 670.407 846.017, 662.120 851.614, 653.833 857.210, 645.545 857.740, 644.760 863.337, 636.473 868.933, 628.186 874.529, 619.898 880.126, 611.611 885.722, 603.324 891.319, 595.036 896.915, 586.749 902.511, 578.462 904.009, 576.244 908.373, 569.781 913.970, 561.494 919.566, 553.206 925.163, 544.919 930.759, 536.632 936.355, 528.344 941.952, 520.057 947.548, 511.770 953.145, 503.482 958.741, 495.195 963.789, 487.720 " fill="none" stroke="rgb(0, 119, 0)" stroke-linecap="butt" stroke-linejoin="round" stroke-opacity="1.0" stroke-width="3.0" />
            <path d=" M 566.215, 335.843 561.338, 344.572 556.460, 353.302 551.583, 362.032 549.220, 366.261 544.342, 374.991 539.464, 383.720 534.587, 392.450 529.709, 401.180 524.832, 409.910 519.954, 418.640 515.076, 427.369 510.199, 436.099 506.246, 443.174 501.368, 451.903 496.491, 460.633 495.000, 463.301 490.123, 472.030 485.245, 480.760 483.229, 484.368 478.352, 493.098 474.978, 499.136 470.100, 507.866 465.223, 516.595 460.345, 525.325 455.467, 534.055 450.590, 542.785 445.712, 551.515 440.835, 560.244 435.957, 568.974 431.079, 577.704 426.202, 586.434 421.324, 595.163 416.447, 603.893 411.569, 612.623 406.691, 621.353 401.655, 630.366 396.778, 639.096 391.900, 647.826 386.940, 656.703 382.062, 665.433 377.184, 674.163 372.307, 682.893 371.546, 684.254 366.669, 692.984 361.791, 701.714 356.913, 710.443 352.036, 719.173 347.158, 727.903 342.281, 736.633 337.403, 745.362 337.012, 746.063 332.134, 754.792 327.256, 763.522 322.379, 772.252 317.501, 780.982 312.624, 789.712 308.906, 796.364 304.029, 805.094 303.314, 806.374 307.982, 815.217 312.651, 824.061 317.320, 832.904 321.988, 841.747 326.657, 850.591 327.149, 851.523 331.818, 860.366 336.487, 869.209 337.766, 871.633 342.435, 880.476 347.104, 889.319 351.772, 898.163 356.441, 907.006 361.110, 915.849 365.778, 924.692 370.447, 933.536 375.116, 942.379 376.523, 945.045 381.192, 953.888 385.861, 962.732 390.530, 971.575 395.198, 980.418 399.867, 989.261 404.536, 998.105 409.204, 1006.948 413.873, 1015.791 418.542, 1024.634 423.210, 1033.478 427.879, 1042.321 431.853, 1049.848 432.603, 1051.269 437.272, 1060.112 441.940, 1068.955 446.609, 1077.798 451.278, 1086.642 455.947, 1095.485 460.615, 1104.328 465.284, 1113.171 469.953, 1122.015 474.621, 1130.858 479.290, 1139.701 483.959, 1148.544 488.627, 1157.388 493.296, 1166.231 497.965, 1175.074 502.634, 1183.917 507.302, 1192.761 511.971, 1201.604 514.328, 1206.069 518.697, 1214.344 523.366, 1223.187 528.034, 1232.030 532.703, 1240.874 537.372, 1249.717 539.693, 1254.114 " fill="none" stroke="rgb(0, 119, 0)" stroke-linecap="butt" stroke-linejoin="round" stroke-opacity="1.0" stroke-width="3.0" />
            <path d=" M 656.009, 553.661 662.634, 561.151 669.259, 568.642 675.884, 576.133 678.796, 579.426 685.421, 586.917 692.046, 594.407 698.671, 601.898 705.296, 609.388 711.921, 616.879 718.546, 624.370 725.171, 631.860 731.796, 639.351 738.846, 647.322 745.471, 654.813 752.096, 662.304 758.721, 669.794 763.781, 675.515 770.406, 683.006 773.676, 686.703 776.685, 690.106 777.068, 690.538 783.693, 698.029 786.920, 701.677 " fill="none" stroke="rgb(0, 119, 0)" stroke-linecap="butt" stroke-linejoin="round" stroke-opacity="1.0" stroke-width="3.0" />
            <path d=" M 644.826, 914.698 650.375, 906.379 655.924, 898.060 661.473, 889.741 667.022, 881.422 672.572, 873.103 678.121, 864.783 683.670, 856.464 689.219, 848.145 694.768, 839.826 700.318, 831.507 705.867, 823.188 711.416, 814.869 716.965, 806.550 722.514, 798.231 728.063, 789.912 732.576, 783.148 733.568, 781.660 739.117, 773.341 744.666, 765.022 750.215, 756.703 755.764, 748.384 761.314, 740.065 766.863, 731.746 772.412, 723.427 777.961, 715.108 783.510, 706.789 786.920, 701.677 795.842, 704.103 805.492, 706.726 815.142, 709.349 824.791, 711.971 825.918, 712.278 835.568, 714.901 845.218, 717.524 854.868, 720.147 864.518, 722.770 874.168, 725.393 883.817, 728.016 893.467, 730.639 903.117, 733.262 912.767, 735.885 922.417, 738.508 932.067, 741.130 941.717, 743.753 951.367, 746.376 957.758, 748.114 " fill="none" stroke="rgb(0, 119, 0)" stroke-linecap="butt" stroke-linejoin="round" stroke-opacity="1.0" stroke-width="3.0" />
            <path d=" M 957.758, 748.114 950.803, 740.928 943.849, 733.742 936.895, 726.555 929.941, 719.369 922.987, 712.183 921.647, 710.799 914.693, 703.613 907.739, 696.426 900.784, 689.240 893.830, 682.054 886.876, 674.868 881.039, 668.836 874.085, 661.650 867.131, 654.464 860.177, 647.278 857.740, 644.760 850.786, 637.574 843.832, 630.388 836.878, 623.202 829.924, 616.016 824.699, 610.617 815.224, 607.418 805.750, 604.219 796.275, 601.020 786.801, 597.821 782.415, 596.341 772.941, 593.142 763.466, 589.943 753.992, 586.744 744.517, 583.545 740.846, 582.305 731.371, 579.106 731.023, 578.989 721.548, 575.790 720.449, 575.418 710.975, 572.219 701.500, 569.021 692.026, 565.822 682.551, 562.623 674.418, 559.877 664.943, 556.678 656.009, 553.661 650.797, 562.195 646.685, 568.928 641.474, 577.463 636.262, 585.997 632.843, 591.596 627.632, 600.130 626.683, 601.683 621.471, 610.218 618.959, 614.332 616.857, 617.775 611.645, 626.309 608.542, 631.391 603.330, 639.926 599.356, 646.434 594.144, 654.968 588.933, 663.503 584.154, 671.328 581.228, 676.119 580.959, 676.560 575.747, 685.094 570.536, 693.629 565.324, 702.163 560.112, 710.698 558.444, 713.429 553.233, 721.964 548.021, 730.498 542.809, 739.033 541.176, 741.707 535.964, 750.242 533.587, 754.134 539.282, 762.354 544.977, 770.574 550.672, 778.794 553.586, 783.001 559.281, 791.221 564.976, 799.441 570.671, 807.661 573.615, 811.911 579.123, 819.861 582.319, 824.474 584.673, 827.873 590.368, 836.093 596.063, 844.313 601.758, 852.533 602.351, 853.390 608.046, 861.610 613.741, 869.830 619.436, 878.050 625.131, 886.270 625.520, 886.831 630.374, 893.838 635.359, 901.034 641.054, 909.254 644.826, 914.698 645.805, 914.821 655.727, 916.065 665.650, 917.310 675.572, 918.555 685.494, 919.799 695.416, 921.044 705.339, 922.289 715.261, 923.534 725.183, 924.778 735.105, 926.023 745.027, 927.268 749.339, 927.809 759.261, 929.053 767.487, 930.085 777.409, 931.330 787.332, 932.575 797.254, 933.819 807.176, 935.064 817.098, 936.309 821.989, 936.922 827.827, 928.804 829.295, 926.762 835.133, 918.643 838.213, 914.360 844.052, 906.241 849.890, 898.122 855.728, 890.003 861.566, 881.884 867.404, 873.765 873.242, 865.647 874.170, 864.357 880.008, 856.238 885.846, 848.119 891.684, 840.000 897.522, 831.881 902.845, 824.478 908.683, 816.359 914.522, 808.241 920.360, 800.122 926.198, 792.003 932.036, 783.884 937.874, 775.765 943.712, 767.646 949.550, 759.527 954.474, 752.680 957.758, 748.114 " fill="none" stroke="rgb(0, 119, 0)" stroke-linecap="butt" stroke-linejoin="round" stroke-opacity="1.0" stroke-width="3.0" />
            <path d=" M 821.989, 936.922 815.812, 929.058 809.636, 921.194 803.459, 913.329 797.282, 905.465 791.106, 897.601 784.929, 889.736 778.752, 881.872 772.575, 874.008 766.399, 866.143 760.222, 858.279 754.045, 850.414 747.869, 842.550 741.692, 834.686 735.515, 826.821 729.338, 818.957 723.162, 811.093 716.985, 803.228 710.808, 795.364 709.071, 793.151 708.717, 792.702 706.309, 789.636 " fill="none" stroke="rgb(0, 119, 0)" stroke-linecap="butt" stroke-linejoin="round" stroke-opacity="1.0" stroke-width="3.0" />
            <path d=" M 533.587, 754.134 543.382, 756.148 553.178, 758.161 562.973, 760.174 572.768, 762.188 582.563, 764.201 592.359, 766.214 602.154, 768.228 611.949, 770.241 621.744, 772.254 631.540, 774.267 641.335, 776.281 651.130, 778.294 660.925, 780.307 670.720, 782.321 680.516, 784.334 690.311, 786.347 700.106, 788.361 706.309, 789.636 711.825, 781.295 714.308, 777.541 719.824, 769.200 720.510, 768.162 726.027, 759.821 731.543, 751.480 737.059, 743.139 742.575, 734.798 748.091, 726.457 753.607, 718.116 759.123, 709.775 764.639, 701.434 770.156, 693.093 775.672, 684.752 776.938, 682.837 777.612, 681.818 783.128, 673.477 786.389, 668.546 791.905, 660.205 797.421, 651.864 797.762, 651.349 803.278, 643.008 808.794, 634.667 814.310, 626.326 819.827, 617.985 824.699, 610.617 " fill="none" stroke="rgb(0, 119, 0)" stroke-linecap="butt" stroke-linejoin="round" stroke-opacity="1.0" stroke-width="3.0" />
            <path d=" M 344.672, 280.140 351.016, 287.870 357.361, 295.600 363.705, 303.330 370.049, 311.059 376.393, 318.789 382.737, 326.519 389.082, 334.249 395.426, 341.979 401.770, 349.709 408.114, 357.439 414.459, 365.168 420.803, 372.898 427.147, 380.628 433.491, 388.358 439.836, 396.088 446.180, 403.818 452.524, 411.547 458.868, 419.277 466.378, 428.427 472.722, 436.157 479.066, 443.886 485.411, 451.616 491.755, 459.346 495.000, 463.301 501.345, 471.030 507.689, 478.760 514.033, 486.490 520.377, 494.220 526.722, 501.950 533.066, 509.680 539.410, 517.409 545.754, 525.139 552.099, 532.869 557.861, 539.890 564.205, 547.620 570.550, 555.350 576.894, 563.080 583.238, 570.810 589.519, 578.463 595.863, 586.192 602.208, 593.922 608.552, 601.652 614.896, 609.382 618.959, 614.332 625.303, 622.062 631.648, 629.792 637.992, 637.522 640.390, 640.443 646.734, 648.173 653.078, 655.903 659.422, 663.633 665.767, 671.363 669.933, 676.439 " fill="none" stroke="rgb(0, 119, 0)" stroke-linecap="butt" stroke-linejoin="round" stroke-opacity="1.0" stroke-width="3.0" />
            <path d=" M 825.418, 1234.735 831.584, 1226.862 837.751, 1218.989 843.917, 1211.117 850.083, 1203.244 856.249, 1195.371 862.415, 1187.499 868.581, 1179.626 874.747, 1171.753 880.913, 1163.881 887.079, 1156.008 893.245, 1148.135 899.412, 1140.262 903.905, 1134.525 910.071, 1126.653 916.237, 1118.780 922.403, 1110.907 928.569, 1103.035 934.736, 1095.162 940.902, 1087.289 947.068, 1079.417 953.234, 1071.544 959.400, 1063.671 965.566, 1055.799 971.732, 1047.926 977.898, 1040.053 984.064, 1032.181 990.230, 1024.308 996.397, 1016.435 1002.563, 1008.562 1008.729, 1000.690 1014.895, 992.817 1021.061, 984.944 1027.227, 977.072 1033.393, 969.199 1039.559, 961.326 1045.725, 953.454 1051.892, 945.581 1058.058, 937.708 1064.224, 929.836 1070.390, 921.963 1076.556, 914.090 1082.722, 906.218 1088.888, 898.345 1095.054, 890.472 1101.220, 882.600 1107.386, 874.727 1113.553, 866.854 1119.719, 858.982 1125.885, 851.109 1132.051, 843.236 1138.217, 835.363 1144.383, 827.491 1150.549, 819.618 1156.715, 811.745 1159.872, 807.714 1152.608, 800.842 1145.344, 793.970 1138.080, 787.097 1130.815, 780.225 1123.551, 773.352 1116.287, 766.480 1109.023, 759.607 1101.758, 752.735 1094.494, 745.862 1087.230, 738.990 1079.966, 732.118 1072.701, 725.245 1065.437, 718.373 1057.840, 711.186 1050.576, 704.313 1043.312, 697.441 1036.047, 690.568 1028.783, 683.696 1021.519, 676.823 1014.255, 669.951 1006.990, 663.079 999.726, 656.206 992.462, 649.334 985.197, 642.461 977.933, 635.589 970.669, 628.716 963.405, 621.844 956.140, 614.971 948.876, 608.099 941.612, 601.227 934.348, 594.354 927.083, 587.482 919.819, 580.609 912.555, 573.737 908.373, 569.781 901.109, 562.909 893.845, 556.036 886.581, 549.164 879.316, 542.291 872.052, 535.419 864.788, 528.546 857.524, 521.674 850.259, 514.802 842.995, 507.929 835.731, 501.057 828.466, 494.184 821.202, 487.312 813.938, 480.439 808.750, 475.531 799.533, 471.651 790.155, 467.702 780.939, 463.822 771.722, 459.941 762.506, 456.061 753.290, 452.181 744.073, 448.300 734.857, 444.420 725.640, 440.539 716.424, 436.659 709.307, 433.663 700.091, 429.782 698.171, 428.974 688.955, 425.094 679.739, 421.213 670.522, 417.333 661.306, 413.453 652.089, 409.572 642.873, 405.692 633.656, 401.811 624.440, 397.931 615.224, 394.051 606.007, 390.170 596.791, 386.290 587.574, 382.409 578.358, 378.529 569.141, 374.649 559.925, 370.768 549.220, 366.261 540.003, 362.380 530.787, 358.500 521.570, 354.620 512.354, 350.739 503.138, 346.859 493.921, 342.979 484.705, 339.098 475.488, 335.218 466.272, 331.337 457.055, 327.457 447.839, 323.577 438.623, 319.696 429.406, 315.816 420.190, 311.935 410.973, 308.055 401.757, 304.175 392.540, 300.294 383.324, 296.414 374.108, 292.533 364.891, 288.653 355.675, 284.773 344.672, 280.140 340.196, 289.082 335.719, 298.024 331.243, 306.966 328.618, 312.210 324.141, 321.152 319.665, 330.094 315.189, 339.036 310.712, 347.978 306.236, 356.920 301.759, 365.863 297.283, 374.805 292.806, 383.747 288.330, 392.689 283.853, 401.631 279.377, 410.573 274.901, 419.515 270.424, 428.457 265.948, 437.400 261.471, 446.342 256.995, 455.284 252.518, 464.226 248.042, 473.168 243.566, 482.110 239.089, 491.052 234.613, 499.994 230.136, 508.936 225.660, 517.879 221.183, 526.821 216.707, 535.763 212.230, 544.705 207.754, 553.647 203.278, 562.589 198.801, 571.531 194.325, 580.473 189.848, 589.416 185.372, 598.358 180.895, 607.300 176.419, 616.242 171.943, 625.184 167.466, 634.126 162.990, 643.068 158.513, 652.010 154.037, 660.952 149.560, 669.895 145.084, 678.837 140.607, 687.779 136.131, 696.721 131.655, 705.663 127.178, 714.605 122.702, 723.547 118.225, 732.489 113.749, 741.432 109.272, 750.374 103.001, 762.901 98.525, 771.843 94.048, 780.785 89.572, 789.727 85.096, 798.669 80.619, 807.611 76.143, 816.553 75.858, 817.122 79.448, 826.455 83.038, 835.789 86.628, 845.122 90.219, 854.455 93.809, 863.789 97.399, 873.122 100.989, 882.455 104.579, 891.788 108.169, 901.122 111.759, 910.455 115.349, 919.788 118.940, 929.122 122.530, 938.455 126.120, 947.788 129.710, 957.122 133.300, 966.455 136.890, 975.788 140.480, 985.122 144.070, 994.455 147.660, 1003.788 151.251, 1013.122 154.841, 1022.455 158.431, 1031.788 162.021, 1041.122 165.611, 1050.455 169.201, 1059.788 172.791, 1069.122 176.381, 1078.455 179.972, 1087.788 183.562, 1097.122 187.152, 1106.455 190.742, 1115.788 193.138, 1122.019 196.729, 1131.352 200.319, 1140.685 203.909, 1150.019 207.499, 1159.352 211.089, 1168.685 214.679, 1178.019 218.269, 1187.352 221.859, 1196.685 225.449, 1206.019 229.040, 1215.352 229.945, 1217.706 " fill="none" stroke="rgb(0, 119, 0)" stroke-linecap="butt" stroke-linejoin="round" stroke-opacity="1.0" stroke-width="3.0" />
            <path d=" M 800.350, 1266.741 794.899, 1258.357 789.448, 1249.974 783.996, 1241.590 781.476, 1237.715 776.025, 1229.332 770.574, 1220.948 765.122, 1212.565 759.671, 1204.181 754.220, 1195.798 748.768, 1187.414 743.317, 1179.031 737.866, 1170.647 733.596, 1164.081 728.145, 1155.697 722.693, 1147.314 717.242, 1138.930 711.791, 1130.547 709.125, 1126.448 708.429, 1125.378 702.978, 1116.994 697.527, 1108.611 692.075, 1100.227 686.624, 1091.844 681.173, 1083.460 675.721, 1075.077 670.270, 1066.693 664.819, 1058.310 659.367, 1049.926 653.916, 1041.543 648.465, 1033.159 643.013, 1024.776 637.562, 1016.392 632.111, 1008.009 626.659, 999.625 621.208, 991.242 615.757, 982.858 610.305, 974.475 604.854, 966.091 599.403, 957.708 593.951, 949.324 588.500, 940.941 583.049, 932.557 577.597, 924.174 572.146, 915.790 566.695, 907.407 561.243, 899.023 555.792, 890.640 550.213, 882.060 " fill="none" stroke="rgb(0, 119, 0)" stroke-linecap="butt" stroke-linejoin="round" stroke-opacity="1.0" stroke-width="3.0" />
            <path d=" M 75.858, 817.122 85.766, 818.478 95.673, 819.834 105.581, 821.191 115.489, 822.547 125.396, 823.903 135.304, 825.260 145.211, 826.616 155.119, 827.972 165.026, 829.329 174.934, 830.685 184.842, 832.041 194.749, 833.398 204.657, 834.754 214.564, 836.110 224.472, 837.467 234.380, 838.823 243.784, 840.110 253.692, 841.467 263.600, 842.823 273.507, 844.179 283.415, 845.536 293.322, 846.892 303.230, 848.248 313.137, 849.605 323.045, 850.961 327.149, 851.523 337.057, 852.879 346.965, 854.236 356.872, 855.592 366.780, 856.948 376.687, 858.305 382.505, 859.101 392.412, 860.457 402.320, 861.814 412.227, 863.170 422.135, 864.526 432.043, 865.883 441.950, 867.239 451.858, 868.595 461.765, 869.951 471.673, 871.308 481.581, 872.664 491.488, 874.020 501.396, 875.377 511.303, 876.733 521.211, 878.089 531.119, 879.446 541.026, 880.802 550.213, 882.060 553.586, 876.755 558.953, 868.317 564.319, 859.878 569.685, 851.440 575.052, 843.002 580.418, 834.564 584.673, 827.873 590.040, 819.435 592.669, 815.300 598.036, 806.862 603.402, 798.424 608.768, 789.986 614.135, 781.547 619.501, 773.109 624.867, 764.671 630.234, 756.233 635.600, 747.795 640.966, 739.357 646.333, 730.919 648.273, 727.868 653.639, 719.430 659.005, 710.992 664.372, 702.554 665.836, 700.251 671.202, 691.813 676.569, 683.375 681.935, 674.937 687.302, 666.499 692.668, 658.060 694.153, 655.725 699.520, 647.287 704.886, 638.848 710.252, 630.410 715.619, 621.972 719.258, 616.250 724.624, 607.812 729.990, 599.374 735.357, 590.936 738.085, 586.646 740.846, 582.305 746.212, 573.867 751.578, 565.429 752.200, 564.451 757.567, 556.013 762.933, 547.574 768.299, 539.136 773.666, 530.698 779.032, 522.260 784.398, 513.822 789.765, 505.384 795.131, 496.946 800.497, 488.507 804.831, 481.693 808.750, 475.531 " fill="none" stroke="rgb(0, 119, 0)" stroke-linecap="butt" stroke-linejoin="round" stroke-opacity="1.0" stroke-width="3.0" />
            <path d=" M 881.039, 668.836 890.587, 671.808 900.136, 674.779 909.684, 677.751 919.232, 680.723 928.781, 683.694 938.329, 686.666 947.877, 689.637 957.425, 692.609 966.974, 695.580 976.522, 698.552 986.070, 701.523 995.619, 704.495 1005.167, 707.466 1014.715, 710.438 1024.264, 713.409 1033.812, 716.381 1043.360, 719.352 1052.908, 722.324 1059.335, 724.324 " fill="none" stroke="rgb(0, 119, 0)" stroke-linecap="butt" stroke-linejoin="round" stroke-opacity="1.0" stroke-width="3.0" />
            <path d=" M 954.474, 752.680 964.134, 755.268 973.793, 757.856 983.452, 760.444 993.112, 763.032 1002.771, 765.620 1012.430, 768.208 1022.089, 770.796 1024.445, 771.428 1034.104, 774.016 1043.763, 776.604 1053.422, 779.192 1063.082, 781.780 1072.741, 784.368 1082.400, 786.956 1092.060, 789.544 1101.719, 792.133 1111.378, 794.721 1121.037, 797.309 1130.697, 799.897 1140.356, 802.485 1150.015, 805.073 1159.872, 807.714 " fill="none" stroke="rgb(0, 119, 0)" stroke-linecap="butt" stroke-linejoin="round" stroke-opacity="1.0" stroke-width="3.0" />
        </g>
    </g>
</svg>
