<?xml version='1.0' encoding='ascii'?>
<svg xmlns="http://www.w3.org/2000/svg" xmlns:inkscape="http://www.inkscape.org/namespaces/inkscape" height="1500" version="1.1" width="1500">
    <g id="fressstylelayer_LineSet" inkscape:groupmode="lineset" inkscape:label="fressstylelayer_LineSet">
        <g id="strokes" inkscape:groupmode="layer" inkscape:label="strokes">
            <path d=" M 428.876, 403.478 436.830, 409.539 444.783, 415.600 452.737, 421.662 460.691, 427.723 468.644, 433.784 474.944, 438.585 482.898, 444.646 490.852, 450.708 498.805, 456.769 506.759, 462.830 514.713, 468.891 522.666, 474.953 530.620, 481.014 538.574, 487.075 546.527, 493.136 554.481, 499.198 561.106, 504.246 569.060, 510.308 577.013, 516.369 584.967, 522.430 592.799, 528.399 595.382, 530.367 603.336, 536.428 611.289, 542.490 619.243, 548.551 627.197, 554.612 635.150, 560.673 643.104, 566.735 651.058, 572.796 659.011, 578.857 665.798, 584.029 673.752, 590.091 681.706, 596.152 689.659, 602.213 697.613, 608.274 705.567, 614.336 713.520, 620.397 721.474, 626.458 729.428, 632.519 737.381, 638.581 745.335, 644.642 753.289, 650.703 761.242, 656.765 769.196, 662.826 777.150, 668.887 785.103, 674.948 788.754, 677.730 796.708, 683.792 804.661, 689.853 812.615, 695.914 820.569, 701.975 823.559, 704.254 830.784, 709.760 838.738, 715.822 846.692, 721.883 854.645, 727.944 862.599, 734.006 870.553, 740.067 878.506, 746.128 886.460, 752.189 894.414, 758.251 902.367, 764.312 910.321, 770.373 918.275, 776.435 919.717, 777.534 925.506, 781.945 933.459, 788.006 941.413, 794.068 949.367, 800.129 955.679, 804.939 963.633, 811.000 971.586, 817.062 979.540, 823.123 987.494, 829.184 995.447, 835.245 1003.401, 841.307 1011.355, 847.368 1019.308, 853.429 1027.262, 859.491 1035.216, 865.552 1043.169, 871.613 1051.123, 877.674 1059.077, 883.736 1067.031, 889.797 1074.984, 895.858 1082.938, 901.919 1090.891, 907.981 1098.845, 914.042 1106.799, 920.103 1114.753, 926.164 1122.706, 932.226 1130.660, 938.287 1138.614, 944.348 1146.567, 950.410 1154.521, 956.471 1162.475, 962.532 1170.428, 968.593 1180.007, 975.893 1187.960, 981.954 1191.405, 984.579 " fill="none" stroke="rgb(157, 20, 170)" stroke-linecap="butt" stroke-linejoin="round" stroke-opacity="1.0" stroke-width="3.0" />
            <path d=" M 594.982, 417.409 585.017, 416.573 575.052, 415.738 565.087, 414.902 555.122, 414.066 545.157, 413.230 535.192, 412.395 525.227, 411.559 515.396, 410.734 505.431, 409.898 495.466, 409.063 485.501, 408.227 475.536, 407.391 465.571, 406.555 455.606, 405.720 445.641, 404.884 435.676, 404.048 428.876, 403.478 424.158, 412.295 419.439, 421.111 414.721, 429.928 410.002, 438.745 405.284, 447.562 400.566, 456.379 395.847, 465.196 391.129, 474.012 386.410, 482.829 381.692, 491.646 376.973, 500.463 372.255, 509.280 367.537, 518.097 362.818, 526.913 358.100, 535.730 353.381, 544.547 348.663, 553.364 346.586, 557.245 341.867, 566.062 340.571, 568.485 335.852, 577.301 331.134, 586.118 326.416, 594.935 321.697, 603.752 316.979, 612.569 312.260, 621.386 307.542, 630.202 302.824, 639.019 298.105, 647.836 292.963, 657.444 289.895, 663.178 285.176, 671.995 280.458, 680.812 275.739, 689.629 271.021, 698.446 266.302, 707.262 261.584, 716.079 256.866, 724.896 252.147, 733.713 250.050, 737.632 247.519, 742.361 242.800, 751.178 242.482, 751.774 237.763, 760.590 233.045, 769.407 228.327, 778.224 223.608, 787.041 218.890, 795.858 214.425, 804.200 209.707, 813.017 204.988, 821.834 200.270, 830.651 195.551, 839.467 190.833, 848.284 186.115, 857.101 181.396, 865.918 176.678, 874.735 171.959, 883.552 167.241, 892.368 162.522, 901.185 157.804, 910.002 153.086, 918.819 148.367, 927.636 143.649, 936.453 138.930, 945.269 134.212, 954.086 129.494, 962.903 124.775, 971.720 120.057, 980.537 115.338, 989.354 110.620, 998.170 105.901, 1006.987 101.183, 1015.804 96.465, 1024.621 91.746, 1033.438 87.028, 1042.255 82.309, 1051.071 77.591, 1059.888 73.446, 1067.634 80.759, 1074.454 88.072, 1081.275 95.385, 1088.095 102.698, 1094.916 110.011, 1101.737 117.324, 1108.557 124.637, 1115.378 131.949, 1122.198 139.262, 1129.019 146.575, 1135.840 153.888, 1142.660 161.201, 1149.481 168.514, 1156.302 175.827, 1163.122 183.140, 1169.943 190.453, 1176.763 197.766, 1183.584 205.079, 1190.405 212.392, 1197.225 219.705, 1204.046 227.018, 1210.866 234.331, 1217.687 241.644, 1224.508 248.957, 1231.328 256.270, 1238.149 263.583, 1244.969 270.896, 1251.790 278.208, 1258.611 285.521, 1265.431 292.834, 1272.252 300.147, 1279.073 307.460, 1285.893 314.773, 1292.714 322.086, 1299.534 329.399, 1306.355 336.712, 1313.176 344.025, 1319.996 351.338, 1326.817 358.651, 1333.637 365.964, 1340.458 373.277, 1347.279 380.590, 1354.099 387.903, 1360.920 395.216, 1367.741 402.529, 1374.561 409.842, 1381.382 417.155, 1388.202 424.467, 1395.023 431.780, 1401.844 439.093, 1408.664 446.406, 1415.485 453.719, 1422.305 461.032, 1429.126 468.345, 1435.947 475.658, 1442.767 482.971, 1449.588 490.284, 1456.408 497.597, 1463.229 504.910, 1470.050 512.223, 1476.870 519.536, 1483.691 526.849, 1490.512 534.162, 1497.332 541.475, 1504.153 548.788, 1510.973 556.101, 1517.794 563.414, 1524.615 570.727, 1531.435 578.039, 1538.256 585.352, 1545.076 592.665, 1551.897 599.978, 1558.718 607.291, 1565.538 614.604, 1572.359 621.917, 1579.179 629.230, 1586.000 636.543, 1592.821 643.856, 1599.641 651.169, 1606.462 658.482, 1613.283 664.766, 1619.144 671.153, 1611.449 677.539, 1603.754 683.925, 1596.059 690.312, 1588.363 696.698, 1580.668 703.084, 1572.973 709.471, 1565.278 715.857, 1557.583 722.243, 1549.888 728.630, 1542.193 735.016, 1534.498 741.402, 1526.803 747.789, 1519.108 754.175, 1511.412 760.561, 1503.717 766.948, 1496.022 773.334, 1488.327 779.720, 1480.632 786.107, 1472.937 792.493, 1465.242 798.879, 1457.547 805.266, 1449.852 811.652, 1442.156 818.039, 1434.461 824.425, 1426.766 830.811, 1419.071 837.198, 1411.376 843.584, 1403.681 849.970, 1395.986 856.357, 1388.291 862.743, 1380.596 869.129, 1372.900 875.516, 1365.205 881.902, 1357.510 888.288, 1349.815 894.675, 1342.120 901.061, 1334.425 907.447, 1326.730 913.834, 1319.035 920.220, 1311.340 926.606, 1303.645 932.993, 1295.949 939.379, 1288.254 945.765, 1280.559 952.152, 1272.864 958.538, 1265.169 964.924, 1257.474 971.311, 1249.779 977.697, 1242.084 984.083, 1234.389 990.470, 1226.693 996.856, 1218.998 1003.242, 1211.303 1009.629, 1203.608 1016.015, 1195.913 1022.401, 1188.218 1028.788, 1180.523 1035.174, 1172.828 1041.560, 1165.133 1047.947, 1157.437 1054.333, 1149.742 1060.719, 1142.047 1067.106, 1134.352 1073.492, 1126.657 1079.878, 1118.962 1086.265, 1111.267 1092.651, 1103.572 1099.037, 1095.877 1105.424, 1088.181 1111.810, 1080.486 1118.196, 1072.791 1124.583, 1065.096 1130.969, 1057.401 1137.355, 1049.706 1143.742, 1042.011 1150.128, 1034.316 1156.514, 1026.621 1162.901, 1018.926 1169.287, 1011.230 1175.673, 1003.535 1182.060, 995.840 1191.405, 984.579 1195.159, 975.310 1198.912, 966.042 1202.665, 956.773 1206.419, 947.504 1209.308, 940.368 " fill="none" stroke="rgb(157, 20, 170)" stroke-linecap="butt" stroke-linejoin="round" stroke-opacity="1.0" stroke-width="3.0" />
            <path d=" M 666.798, 403.289 674.867, 409.197 678.724, 412.021 686.792, 417.929 694.861, 423.836 697.868, 426.038 705.936, 431.946 714.005, 437.854 722.073, 443.761 730.142, 449.669 738.210, 455.576 746.279, 461.484 754.347, 467.392 762.415, 473.299 770.484, 479.207 778.552, 485.115 786.621, 491.022 794.689, 496.930 802.758, 502.837 810.826, 508.745 818.895, 514.653 826.963, 520.560 835.031, 526.468 843.100, 532.376 851.168, 538.283 859.237, 544.191 867.305, 550.099 875.374, 556.006 883.442, 561.914 891.511, 567.821 899.579, 573.729 907.819, 579.762 915.374, 585.294 923.443, 591.202 931.511, 597.109 939.580, 603.017 947.648, 608.925 955.717, 614.832 963.785, 620.740 971.853, 626.648 979.922, 632.555 987.990, 638.463 996.059, 644.370 1004.127, 650.278 1008.420, 653.421 1016.488, 659.329 1024.557, 665.236 1032.625, 671.144 1040.693, 677.051 1046.068, 680.987 1054.137, 686.895 1062.205, 692.802 1070.274, 698.710 1078.342, 704.617 1086.411, 710.525 1094.479, 716.433 1102.547, 722.340 1110.616, 728.248 1118.684, 734.156 1126.753, 740.063 1134.821, 745.971 1142.890, 751.879 1150.958, 757.786 1159.027, 763.694 1167.095, 769.601 1175.164, 775.509 1183.232, 781.417 1191.301, 787.324 1199.369, 793.232 1207.437, 799.140 1215.506, 805.047 1223.574, 810.955 1231.643, 816.862 1239.711, 822.770 1247.780, 828.678 1252.991, 832.493 1261.059, 838.401 1269.128, 844.309 1277.196, 850.216 1281.231, 853.171 " fill="none" stroke="rgb(157, 20, 170)" stroke-linecap="butt" stroke-linejoin="round" stroke-opacity="1.0" stroke-width="3.0" />
            <path d=" M 1209.308, 940.368 1215.671, 932.654 1222.034, 924.940 1228.397, 917.225 1234.760, 909.511 1241.123, 901.796 1247.486, 894.082 1253.849, 886.368 1260.212, 878.653 1266.575, 870.939 1272.938, 863.224 1279.301, 855.510 1281.231, 853.171 1284.154, 843.607 1287.077, 834.044 1290.000, 824.481 1292.923, 814.917 1295.846, 805.354 1298.769, 795.791 1301.692, 786.228 1304.615, 776.664 1307.538, 767.101 1310.461, 757.538 1313.384, 747.975 1316.347, 738.281 1308.198, 732.485 1300.049, 726.689 1291.900, 720.893 1283.751, 715.096 1275.602, 709.300 1267.453, 703.504 1259.305, 697.708 1251.156, 691.912 1243.007, 686.116 1234.858, 680.320 1226.709, 674.523 1218.560, 668.727 1210.411, 662.931 1202.262, 657.135 1194.113, 651.339 1185.964, 645.543 1177.816, 639.747 1169.667, 633.951 1161.518, 628.154 1153.369, 622.358 1145.220, 616.562 1137.071, 610.766 1128.922, 604.970 1120.773, 599.174 1112.624, 593.378 1104.475, 587.581 1096.326, 581.785 1088.177, 575.989 1080.029, 570.193 1071.989, 564.475 " fill="none" stroke="rgb(157, 20, 170)" stroke-linecap="butt" stroke-linejoin="round" stroke-opacity="1.0" stroke-width="3.0" />
            <path d=" M 729.593, 410.296 719.655, 409.187 709.716, 408.078 699.778, 406.969 689.840, 405.860 679.901, 404.751 669.963, 403.642 666.798, 403.289 661.707, 411.896 661.152, 412.836 656.061, 421.443 655.447, 422.480 650.356, 431.088 645.265, 439.695 640.174, 448.302 639.066, 450.177 636.962, 453.733 " fill="none" stroke="rgb(157, 20, 170)" stroke-linecap="butt" stroke-linejoin="round" stroke-opacity="1.0" stroke-width="3.0" />
            <path d=" M 1071.989, 564.475 1077.803, 556.339 1083.618, 548.203 1089.433, 540.067 1095.247, 531.932 1101.062, 523.796 1105.950, 516.957 1097.758, 511.221 1089.567, 505.484 1081.376, 499.748 1073.185, 494.012 1064.993, 488.276 1056.802, 482.540 1048.611, 476.804 1040.419, 471.068 1032.228, 465.332 1024.037, 459.595 1015.846, 453.859 1007.654, 448.123 999.463, 442.387 991.272, 436.651 983.081, 430.915 974.889, 425.179 966.698, 419.443 958.507, 413.706 950.315, 407.970 942.124, 402.234 933.933, 396.498 925.742, 390.762 917.550, 385.026 909.359, 379.290 901.168, 373.554 892.977, 367.818 884.785, 362.081 876.594, 356.345 868.403, 350.609 860.212, 344.873 852.020, 339.137 843.829, 333.401 835.638, 327.665 827.446, 321.928 819.255, 316.192 811.064, 310.456 802.873, 304.720 794.681, 298.984 786.490, 293.248 778.299, 287.512 770.108, 281.776 761.916, 276.039 753.725, 270.303 745.534, 264.567 737.343, 258.831 729.151, 253.095 720.960, 247.359 712.769, 241.623 707.486, 237.923 698.074, 234.544 688.663, 231.164 679.251, 227.785 669.840, 224.405 660.428, 221.026 651.016, 217.646 641.605, 214.266 632.193, 210.887 622.781, 207.507 613.370, 204.128 603.958, 200.748 594.547, 197.369 585.135, 193.989 575.723, 190.609 566.312, 187.230 556.900, 183.850 547.489, 180.471 538.077, 177.091 528.665, 173.712 519.254, 170.332 509.842, 166.953 500.430, 163.573 491.019, 160.193 481.607, 156.814 472.196, 153.434 462.784, 150.055 453.372, 146.675 448.798, 145.033 444.264, 153.946 439.730, 162.859 435.195, 171.771 430.661, 180.684 426.127, 189.597 421.592, 198.510 417.058, 207.423 412.523, 216.336 407.989, 225.249 404.263, 232.573 " fill="none" stroke="rgb(157, 20, 170)" stroke-linecap="butt" stroke-linejoin="round" stroke-opacity="1.0" stroke-width="3.0" />
            <path d=" M 448.798, 145.033 456.932, 150.851 465.065, 156.669 473.198, 162.487 481.332, 168.305 489.465, 174.123 497.598, 179.941 505.731, 185.759 513.865, 191.578 521.998, 197.396 530.131, 203.214 538.264, 209.032 546.398, 214.850 554.531, 220.668 562.664, 226.486 570.797, 232.304 578.931, 238.122 587.064, 243.940 595.197, 249.758 603.330, 255.576 611.464, 261.395 619.597, 267.213 627.730, 273.031 635.863, 278.849 643.997, 284.667 652.130, 290.485 660.263, 296.303 668.396, 302.121 676.530, 307.939 684.663, 313.757 692.796, 319.575 700.929, 325.393 709.063, 331.212 717.196, 337.030 725.329, 342.848 733.463, 348.666 741.596, 354.484 749.729, 360.302 757.862, 366.120 765.996, 371.938 774.129, 377.756 782.262, 383.574 790.395, 389.392 798.529, 395.210 806.662, 401.029 814.795, 406.847 822.928, 412.665 831.062, 418.483 836.252, 422.196 844.385, 428.014 852.518, 433.832 860.652, 439.650 868.785, 445.468 876.918, 451.286 885.051, 457.104 893.185, 462.922 901.318, 468.740 909.451, 474.558 917.584, 480.377 925.718, 486.195 933.851, 492.013 941.984, 497.831 950.117, 503.649 958.251, 509.467 966.384, 515.285 974.517, 521.103 982.651, 526.921 987.439, 530.347 " fill="none" stroke="rgb(157, 20, 170)" stroke-linecap="butt" stroke-linejoin="round" stroke-opacity="1.0" stroke-width="3.0" />
            <path d=" M 956.496, 575.315 962.165, 567.077 967.834, 558.839 973.502, 550.600 976.036, 546.919 981.704, 538.681 987.439, 530.347 997.376, 529.224 1007.312, 528.101 1017.249, 526.978 1018.995, 526.781 1028.932, 525.659 1038.869, 524.536 1048.805, 523.413 1058.742, 522.290 1068.679, 521.168 1078.616, 520.045 1088.552, 518.922 1098.489, 517.800 1105.950, 516.957 " fill="none" stroke="rgb(157, 20, 170)" stroke-linecap="butt" stroke-linejoin="round" stroke-opacity="1.0" stroke-width="3.0" />
            <path d=" M 316.147, 210.150 324.172, 216.116 332.198, 222.081 340.224, 228.047 348.250, 234.012 356.275, 239.978 364.301, 245.943 372.327, 251.909 380.352, 257.875 388.362, 263.828 396.388, 269.794 404.413, 275.759 412.439, 281.725 420.465, 287.690 428.491, 293.656 436.516, 299.621 444.542, 305.587 452.568, 311.552 460.594, 317.518 468.619, 323.484 476.645, 329.449 484.671, 335.415 492.697, 341.380 500.722, 347.346 508.748, 353.311 516.774, 359.277 524.799, 365.242 532.825, 371.208 540.851, 377.173 548.877, 383.139 556.902, 389.105 564.928, 395.070 572.954, 401.036 580.979, 407.001 589.005, 412.967 594.982, 417.409 603.008, 423.375 606.522, 425.987 614.547, 431.952 622.573, 437.918 630.599, 443.883 638.625, 449.849 639.066, 450.177 " fill="none" stroke="rgb(157, 20, 170)" stroke-linecap="butt" stroke-linejoin="round" stroke-opacity="1.0" stroke-width="3.0" />
            <path d=" M 404.263, 232.573 394.572, 230.107 384.880, 227.641 375.189, 225.175 365.498, 222.709 355.807, 220.243 346.116, 217.777 336.425, 215.310 326.734, 212.844 317.042, 210.378 316.147, 210.150 311.774, 219.144 307.401, 228.137 303.029, 237.130 298.656, 246.124 294.283, 255.117 289.911, 264.110 285.538, 273.104 281.166, 282.097 276.793, 291.090 272.420, 300.084 268.048, 309.077 263.675, 318.070 259.302, 327.064 254.930, 336.057 250.557, 345.050 246.184, 354.044 241.812, 363.037 237.439, 372.030 233.066, 381.024 228.694, 390.017 224.321, 399.010 219.949, 408.004 215.576, 416.997 211.203, 425.990 206.831, 434.984 202.458, 443.977 198.085, 452.970 193.713, 461.964 189.340, 470.957 184.967, 479.950 180.595, 488.944 176.222, 497.937 171.849, 506.930 167.477, 515.924 163.104, 524.917 158.732, 533.910 154.359, 542.904 149.986, 551.897 145.614, 560.890 141.241, 569.884 136.868, 578.877 132.496, 587.870 128.123, 596.864 123.750, 605.857 119.378, 614.850 115.005, 623.844 110.633, 632.837 106.260, 641.830 101.887, 650.824 97.515, 659.817 93.142, 668.810 88.769, 677.804 82.594, 690.505 90.166, 697.036 97.739, 703.567 105.312, 710.098 112.885, 716.629 120.457, 723.160 128.030, 729.691 135.603, 736.222 143.176, 742.753 150.748, 749.284 158.321, 755.815 165.894, 762.346 173.467, 768.877 181.040, 775.408 188.612, 781.939 196.185, 788.469 203.758, 795.000 211.331, 801.531 214.425, 804.200 " fill="none" stroke="rgb(157, 20, 170)" stroke-linecap="butt" stroke-linejoin="round" stroke-opacity="1.0" stroke-width="3.0" />
        </g>
    </g>
    <g id="fressstylelayer_hidden lines" inkscape:groupmode="lineset" inkscape:label="fressstylelayer_hidden lines" xmlns:inkscape="http://www.inkscape.org/namespaces/inkscape">
        <g id="strokes" inkscape:groupmode="layer" inkscape:label="strokes" xmlns:inkscape="http://www.inkscape.org/namespaces/inkscape">
            <path d=" M 806.451, 424.950 796.502, 423.943 787.601, 423.042 777.652, 422.035 767.703, 421.028 759.928, 420.241 749.979, 419.234 740.030, 418.227 730.081, 417.220 725.660, 416.772 715.710, 415.765 705.761, 414.758 695.812, 413.751 685.863, 412.744 678.724, 412.021 668.775, 411.014 666.237, 410.757 663.837, 414.809 659.111, 422.788 654.014, 431.391 648.917, 439.995 643.821, 448.599 641.718, 452.148 639.611, 455.705 634.514, 464.308 629.418, 472.912 624.321, 481.516 619.224, 490.120 614.127, 498.723 609.031, 507.327 603.934, 515.931 598.837, 524.534 598.351, 525.355 595.382, 530.367 590.285, 538.971 585.188, 547.575 580.092, 556.178 574.995, 564.782 569.898, 573.386 564.802, 581.989 559.705, 590.593 554.580, 599.244 549.483, 607.848 545.873, 613.942 544.672, 615.971 541.793, 620.830 536.696, 629.433 531.599, 638.037 526.503, 646.641 525.648, 648.084 520.551, 656.688 517.061, 662.580 511.964, 671.184 507.619, 678.519 502.522, 687.123 497.974, 694.799 492.878, 703.403 487.781, 712.006 482.603, 720.747 477.507, 729.350 472.410, 737.954 468.151, 745.143 470.969, 747.440 478.720, 753.758 486.472, 760.076 494.223, 766.394 501.974, 772.712 509.725, 779.031 517.476, 785.349 525.227, 791.667 530.400, 795.883 531.897, 797.104 539.649, 803.422 542.344, 805.620 550.095, 811.938 557.847, 818.256 565.598, 824.574 573.349, 830.892 574.100, 831.505 581.852, 837.823 586.522, 841.630 590.850, 845.158 596.460, 849.731 604.211, 856.049 611.962, 862.367 612.684, 862.956 614.708, 864.605 622.459, 870.923 630.210, 877.241 637.961, 883.560 645.712, 889.878 653.463, 896.196 661.215, 902.514 668.966, 908.832 675.909, 914.492 683.661, 920.811 691.412, 927.129 699.163, 933.447 706.149, 939.141 713.900, 945.459 721.651, 951.778 729.402, 958.096 734.400, 962.169 738.285, 965.336 743.810, 969.840 751.561, 976.158 756.145, 979.895 763.896, 986.213 771.629, 992.516 778.608, 986.818 786.354, 980.493 794.100, 974.169 798.826, 970.310 806.572, 963.986 814.318, 957.661 822.065, 951.337 829.811, 945.013 837.557, 938.688 845.303, 932.364 853.049, 926.039 860.795, 919.715 868.541, 913.390 876.287, 907.066 884.033, 900.742 888.442, 897.141 894.335, 889.062 900.227, 880.982 906.119, 872.902 912.011, 864.822 917.903, 856.742 923.795, 848.662 929.687, 840.583 935.579, 832.503 941.471, 824.423 947.363, 816.343 953.255, 808.263 955.679, 804.939 961.571, 796.859 967.463, 788.779 973.355, 780.700 979.247, 772.620 985.139, 764.540 991.031, 756.460 996.923, 748.380 1002.815, 740.300 1008.707, 732.221 1014.599, 724.141 1020.492, 716.061 1026.384, 707.981 1032.276, 699.901 1038.168, 691.821 1044.060, 683.742 1046.068, 680.987 1051.960, 672.907 1057.852, 664.827 1063.745, 656.747 1065.453, 654.405 1071.345, 646.325 1077.237, 638.245 1083.129, 630.166 1086.106, 626.083 1077.987, 620.244 1069.869, 614.405 1061.751, 608.567 1053.632, 602.728 1047.699, 598.461 1039.581, 592.622 1031.463, 586.783 1023.344, 580.944 1015.226, 575.105 1007.108, 569.266 998.989, 563.427 990.871, 557.588 982.753, 551.750 976.036, 546.919 967.917, 541.080 959.799, 535.241 951.681, 529.402 943.562, 523.563 935.444, 517.724 927.326, 511.885 919.207, 506.047 911.089, 500.208 902.971, 494.369 894.852, 488.530 886.734, 482.691 878.616, 476.852 870.497, 471.013 862.379, 465.174 856.598, 461.017 848.480, 455.178 840.361, 449.339 832.243, 443.500 824.125, 437.661 816.006, 431.823 807.888, 425.984 806.451, 424.950 " fill="none" stroke="rgb(0, 119, 0)" stroke-linecap="butt" stroke-linejoin="round" stroke-opacity="1.0" stroke-width="3.0" />
            <path d=" M 666.237, 410.757 674.301, 416.672 682.364, 422.586 685.677, 425.016 693.740, 430.930 701.804, 436.845 709.867, 442.759 717.931, 448.674 725.994, 454.588 734.057, 460.502 742.121, 466.417 750.184, 472.331 758.248, 478.246 766.311, 484.160 774.375, 490.075 782.438, 495.989 790.502, 501.904 798.565, 507.818 806.629, 513.732 814.692, 519.647 822.756, 525.561 830.819, 531.476 838.882, 537.390 846.946, 543.305 855.009, 549.219 863.073, 555.133 871.136, 561.048 879.200, 566.962 887.263, 572.877 895.327, 578.791 904.114, 585.236 911.654, 590.767 919.718, 596.682 927.781, 602.596 935.845, 608.511 943.908, 614.425 951.972, 620.340 960.035, 626.254 968.099, 632.169 976.162, 638.083 984.226, 643.997 992.289, 649.912 1000.353, 655.826 1004.517, 658.881 1008.496, 661.799 " fill="none" stroke="rgb(0, 119, 0)" stroke-linecap="butt" stroke-linejoin="round" stroke-opacity="1.0" stroke-width="3.0" />
            <path d=" M 771.629, 992.516 777.452, 984.386 783.275, 976.256 789.097, 968.127 794.920, 959.997 800.743, 951.867 806.566, 943.737 812.389, 935.607 818.211, 927.477 824.034, 919.347 829.857, 911.217 835.680, 903.087 841.503, 894.958 847.325, 886.828 853.148, 878.698 858.971, 870.568 864.794, 862.438 870.617, 854.308 876.439, 846.178 882.262, 838.048 888.085, 829.919 893.908, 821.789 899.731, 813.659 905.553, 805.529 911.376, 797.399 917.199, 789.269 923.022, 781.139 930.250, 771.047 936.073, 762.917 941.896, 754.787 947.719, 746.657 953.541, 738.527 959.364, 730.398 965.187, 722.268 971.010, 714.138 976.833, 706.008 982.655, 697.878 988.478, 689.748 994.301, 681.618 1000.124, 673.488 1005.946, 665.359 1008.496, 661.799 1017.580, 657.619 1026.664, 653.438 1035.748, 649.258 1044.833, 645.077 1049.588, 642.889 1058.672, 638.708 1067.756, 634.528 1076.840, 630.347 1086.106, 626.083 " fill="none" stroke="rgb(0, 119, 0)" stroke-linecap="butt" stroke-linejoin="round" stroke-opacity="1.0" stroke-width="3.0" />
            <path d=" M 468.151, 745.143 477.777, 742.432 487.403, 739.721 497.028, 737.010 506.654, 734.300 516.279, 731.589 525.905, 728.878 535.530, 726.167 545.156, 723.456 554.782, 720.746 564.407, 718.035 574.033, 715.324 581.331, 713.269 590.956, 710.558 600.582, 707.847 601.048, 707.716 610.674, 705.005 620.299, 702.294 629.925, 699.583 634.933, 698.173 " fill="none" stroke="rgb(0, 119, 0)" stroke-linecap="butt" stroke-linejoin="round" stroke-opacity="1.0" stroke-width="3.0" />
            <path d=" M 806.451, 424.950 801.402, 432.994 796.085, 441.463 793.948, 444.867 788.631, 453.337 788.577, 453.424 783.260, 461.893 777.943, 470.363 772.626, 478.832 767.310, 487.302 761.993, 495.771 756.676, 504.240 751.359, 512.710 746.042, 521.179 740.726, 529.649 740.169, 530.535 734.852, 539.005 729.536, 547.474 724.219, 555.944 718.902, 564.413 713.585, 572.882 708.268, 581.352 702.952, 589.821 699.327, 595.596 694.010, 604.065 688.693, 612.535 683.376, 621.004 678.060, 629.474 672.743, 637.943 667.426, 646.413 662.109, 654.882 656.792, 663.352 651.476, 671.821 646.159, 680.290 640.842, 688.760 634.933, 698.173 642.799, 704.347 650.666, 710.521 658.532, 716.695 666.399, 722.869 674.265, 729.043 682.132, 735.217 689.998, 741.391 697.865, 747.565 705.731, 753.739 713.597, 759.913 721.464, 766.087 727.164, 770.561 731.155, 773.693 739.021, 779.867 746.888, 786.041 754.754, 792.216 762.621, 798.390 767.792, 802.448 775.658, 808.622 783.525, 814.796 791.391, 820.970 799.258, 827.144 807.124, 833.318 814.991, 839.492 822.857, 845.667 830.724, 851.841 838.590, 858.015 846.457, 864.189 853.714, 869.885 859.305, 874.273 867.172, 880.447 875.038, 886.621 882.904, 892.795 888.442, 897.141 " fill="none" stroke="rgb(0, 119, 0)" stroke-linecap="butt" stroke-linejoin="round" stroke-opacity="1.0" stroke-width="3.0" />
            <path d=" M 1209.308, 940.368 1213.061, 931.099 1216.815, 921.831 1220.568, 912.562 1224.321, 903.293 1228.075, 894.024 1231.828, 884.755 1235.581, 875.486 1239.335, 866.217 1243.088, 856.948 1246.841, 847.679 1250.595, 838.411 1252.991, 832.493 1256.744, 823.224 1260.498, 813.956 1264.251, 804.687 1265.911, 800.588 1266.121, 800.068 1258.028, 794.194 1249.936, 788.319 1241.843, 782.445 1233.750, 776.571 1225.658, 770.696 1217.565, 764.822 1209.472, 758.947 1201.380, 753.073 1193.287, 747.199 1185.194, 741.324 1177.102, 735.450 1169.009, 729.576 1160.916, 723.701 1152.823, 717.827 1144.731, 711.952 1136.638, 706.078 1128.546, 700.203 1120.453, 694.329 1112.360, 688.455 1104.267, 682.580 1096.175, 676.706 1088.082, 670.832 1079.989, 664.957 1071.897, 659.083 1065.453, 654.405 1057.360, 648.531 1049.588, 642.889 1041.495, 637.014 1033.402, 631.140 1027.438, 626.811 1019.345, 620.936 1011.253, 615.062 1003.160, 609.187 995.067, 603.313 986.974, 597.439 978.882, 591.564 970.789, 585.690 962.696, 579.815 956.496, 575.315 948.404, 569.440 940.311, 563.566 933.501, 558.623 925.874, 553.086 917.781, 547.212 916.778, 546.483 911.391, 542.574 903.299, 536.699 895.206, 530.825 887.113, 524.950 879.021, 519.076 870.928, 513.202 862.835, 507.327 854.743, 501.453 846.650, 495.578 838.238, 489.472 830.145, 483.598 822.052, 477.723 813.960, 471.849 805.867, 465.975 797.774, 460.100 789.682, 454.226 788.577, 453.424 780.484, 447.549 772.391, 441.675 764.299, 435.801 757.771, 431.062 747.806, 430.227 737.841, 429.391 727.876, 428.555 718.958, 427.807 708.993, 426.971 699.028, 426.135 697.868, 426.038 687.903, 425.203 685.677, 425.016 676.711, 424.264 666.746, 423.428 659.111, 422.788 655.447, 422.480 645.482, 421.645 635.517, 420.809 625.552, 419.973 615.587, 419.137 610.733, 418.730 603.260, 418.103 594.982, 417.409 " fill="none" stroke="rgb(0, 119, 0)" stroke-linecap="butt" stroke-linejoin="round" stroke-opacity="1.0" stroke-width="3.0" />
            <path d=" M 664.766, 1619.144 670.172, 1610.731 675.578, 1602.318 680.984, 1593.906 686.391, 1585.493 691.797, 1577.080 697.203, 1568.667 702.609, 1560.255 708.015, 1551.842 713.421, 1543.429 718.827, 1535.016 724.233, 1526.603 729.639, 1518.191 735.045, 1509.778 740.451, 1501.365 745.857, 1492.952 751.263, 1484.540 756.669, 1476.127 762.075, 1467.714 767.481, 1459.301 772.887, 1450.888 778.293, 1442.476 783.699, 1434.063 789.105, 1425.650 794.511, 1417.237 799.917, 1408.825 805.323, 1400.412 810.729, 1391.999 816.135, 1383.586 821.542, 1375.174 826.408, 1367.600 831.814, 1359.187 837.220, 1350.774 842.626, 1342.362 848.032, 1333.949 853.439, 1325.536 858.845, 1317.123 864.251, 1308.710 869.657, 1300.298 875.063, 1291.885 880.469, 1283.472 885.875, 1275.059 891.281, 1266.647 896.687, 1258.234 902.151, 1249.731 " fill="none" stroke="rgb(0, 119, 0)" stroke-linecap="butt" stroke-linejoin="round" stroke-opacity="1.0" stroke-width="3.0" />
            <path d=" M 474.175, 890.646 481.836, 897.073 489.497, 903.501 497.158, 909.928 504.818, 916.356 512.479, 922.783 514.940, 924.849 522.601, 931.276 530.262, 937.704 537.922, 944.131 545.583, 950.559 553.244, 956.987 560.904, 963.414 568.565, 969.842 574.786, 975.061 582.447, 981.489 590.108, 987.917 597.768, 994.344 605.429, 1000.772 613.090, 1007.199 620.750, 1013.627 628.411, 1020.055 636.072, 1026.482 643.733, 1032.910 651.081, 1039.076 658.742, 1045.503 666.403, 1051.931 674.063, 1058.358 675.691, 1059.724 683.352, 1066.152 689.706, 1071.483 697.367, 1077.911 705.028, 1084.338 712.688, 1090.766 720.349, 1097.193 728.010, 1103.621 735.670, 1110.049 743.331, 1116.476 750.992, 1122.904 758.652, 1129.331 766.313, 1135.759 773.974, 1142.187 781.635, 1148.614 789.295, 1155.042 796.956, 1161.469 804.617, 1167.897 812.277, 1174.324 819.938, 1180.752 827.599, 1187.180 835.259, 1193.607 842.920, 1200.035 850.581, 1206.462 858.241, 1212.890 865.902, 1219.318 873.563, 1225.745 881.224, 1232.173 888.884, 1238.600 896.545, 1245.028 902.151, 1249.731 908.442, 1241.958 914.734, 1234.186 921.025, 1226.413 927.317, 1218.640 933.608, 1210.867 939.900, 1203.094 946.191, 1195.322 952.483, 1187.549 958.774, 1179.776 965.066, 1172.003 971.358, 1164.230 977.649, 1156.458 983.941, 1148.685 990.232, 1140.912 996.524, 1133.139 1002.815, 1125.366 1009.107, 1117.594 1015.398, 1109.821 1021.690, 1102.048 1027.981, 1094.275 1034.273, 1086.502 1040.564, 1078.729 1046.856, 1070.957 1053.147, 1063.184 1059.439, 1055.411 1065.731, 1047.638 1072.022, 1039.865 1078.314, 1032.093 1084.605, 1024.320 1090.897, 1016.547 1097.188, 1008.774 1103.480, 1001.001 1109.771, 993.229 1116.063, 985.456 1122.354, 977.683 1128.646, 969.910 1134.938, 962.137 1141.229, 954.365 1147.521, 946.592 1153.812, 938.819 1160.104, 931.046 1166.395, 923.273 1172.687, 915.501 1178.978, 907.728 1185.270, 899.955 1191.561, 892.182 1197.853, 884.409 1204.144, 876.636 1210.436, 868.864 1216.728, 861.091 1223.019, 853.318 1229.311, 845.545 1235.602, 837.772 1241.894, 830.000 1248.185, 822.227 1254.477, 814.454 1260.768, 806.681 1266.121, 800.068 " fill="none" stroke="rgb(0, 119, 0)" stroke-linecap="butt" stroke-linejoin="round" stroke-opacity="1.0" stroke-width="3.0" />
            <path d=" M 73.446, 1067.634 82.593, 1063.593 91.741, 1059.553 100.888, 1055.513 110.036, 1051.473 119.184, 1047.433 128.331, 1043.393 137.479, 1039.353 146.626, 1035.312 155.774, 1031.272 164.921, 1027.232 174.069, 1023.192 183.216, 1019.152 192.364, 1015.112 201.511, 1011.072 210.659, 1007.031 219.806, 1002.991 228.954, 998.951 238.101, 994.911 247.249, 990.871 256.396, 986.831 265.544, 982.791 274.691, 978.750 283.839, 974.710 292.987, 970.670 302.134, 966.630 311.282, 962.590 320.429, 958.550 329.577, 954.510 338.724, 950.470 344.723, 947.820 353.870, 943.780 363.018, 939.740 368.684, 937.237 377.832, 933.197 386.979, 929.157 395.739, 925.288 404.887, 921.248 414.034, 917.208 423.182, 913.168 432.330, 909.127 440.353, 905.584 449.500, 901.544 458.648, 897.504 467.795, 893.463 474.175, 890.646 479.427, 882.135 484.678, 873.625 489.930, 865.115 495.181, 856.605 500.432, 848.095 505.684, 839.585 506.435, 838.368 511.686, 829.858 516.937, 821.347 522.189, 812.837 527.440, 804.327 531.897, 797.104 537.149, 788.594 542.400, 780.084 547.652, 771.573 552.903, 763.063 558.154, 754.553 563.406, 746.043 568.657, 737.533 573.909, 729.023 579.160, 720.512 584.411, 712.002 589.663, 703.492 591.645, 700.279 596.897, 691.769 602.148, 683.259 607.399, 674.749 612.651, 666.239 617.902, 657.728 623.154, 649.218 628.405, 640.708 633.656, 632.198 638.908, 623.688 644.159, 615.178 649.410, 606.667 654.662, 598.157 659.913, 589.647 663.157, 584.391 668.408, 575.880 673.660, 567.370 678.911, 558.860 684.162, 550.350 689.414, 541.840 694.665, 533.330 699.917, 524.819 705.168, 516.309 710.167, 508.209 715.418, 499.698 720.669, 491.188 725.921, 482.678 731.172, 474.168 736.424, 465.658 741.675, 457.148 746.926, 448.638 752.178, 440.127 757.771, 431.062 " fill="none" stroke="rgb(0, 119, 0)" stroke-linecap="butt" stroke-linejoin="round" stroke-opacity="1.0" stroke-width="3.0" />
            <path d=" M 620.509, 441.490 610.524, 440.936 600.539, 440.381 598.242, 440.254 590.689, 439.835 580.704, 439.280 570.720, 438.726 560.735, 438.172 550.750, 437.618 540.766, 437.064 530.781, 436.510 520.797, 435.955 510.812, 435.401 501.940, 434.909 491.956, 434.354 481.971, 433.800 477.709, 433.564 474.944, 438.585 470.121, 447.345 465.297, 456.105 460.474, 464.864 455.650, 473.624 450.827, 482.384 446.003, 491.144 441.180, 499.903 436.356, 508.663 431.532, 517.423 426.709, 526.183 421.885, 534.942 417.062, 543.702 412.113, 552.689 407.290, 561.448 402.466, 570.208 397.643, 578.968 392.819, 587.728 387.996, 596.487 384.156, 603.461 379.332, 612.221 374.509, 620.980 369.685, 629.740 364.862, 638.500 360.253, 646.869 357.281, 652.268 352.457, 661.027 347.634, 669.787 342.810, 678.547 337.986, 687.307 333.449, 695.548 341.160, 701.914 348.871, 708.281 356.012, 714.176 363.724, 720.543 371.435, 726.910 379.146, 733.276 386.858, 739.643 394.569, 746.010 402.281, 752.376 409.992, 758.743 417.703, 765.110 425.415, 771.476 427.907, 773.534 435.618, 779.901 441.279, 784.574 446.415, 788.814 454.126, 795.181 461.838, 801.548 469.549, 807.914 477.260, 814.281 484.972, 820.648 492.683, 827.014 500.395, 833.381 503.138, 835.646 503.223, 835.716 506.435, 838.368 514.146, 844.734 521.857, 851.101 529.569, 857.468 536.950, 863.562 544.662, 869.928 548.001, 872.685 555.712, 879.052 563.423, 885.419 564.496, 886.304 573.495, 881.944 576.776, 880.354 585.775, 875.994 590.098, 873.899 599.097, 869.539 608.097, 865.178 612.684, 862.956 617.204, 860.766 626.203, 856.405 635.202, 852.045 641.269, 849.105 645.987, 846.819 654.986, 842.459 660.525, 839.775 669.524, 835.415 678.524, 831.055 687.523, 826.694 691.058, 824.982 696.586, 816.649 701.558, 809.156 707.086, 800.823 712.615, 792.490 717.445, 785.210 722.612, 777.422 727.164, 770.561 732.276, 762.855 737.805, 754.522 743.333, 746.190 748.862, 737.857 754.391, 729.524 759.919, 721.191 761.312, 719.092 766.840, 710.759 772.369, 702.427 777.897, 694.094 783.426, 685.761 788.754, 677.730 794.282, 669.397 795.013, 668.296 800.541, 659.964 806.070, 651.631 811.599, 643.298 817.127, 634.965 822.656, 626.632 828.184, 618.300 833.713, 609.967 838.075, 603.392 830.052, 597.422 827.320, 595.388 819.298, 589.419 811.275, 583.449 803.253, 577.479 795.230, 571.509 788.525, 566.519 781.742, 561.472 773.720, 555.502 765.697, 549.532 757.675, 543.562 749.652, 537.592 741.630, 531.622 740.169, 530.535 732.147, 524.565 724.124, 518.595 716.102, 512.625 710.167, 508.209 702.144, 502.239 694.122, 496.269 686.099, 490.299 682.589, 487.687 674.567, 481.717 666.544, 475.747 658.522, 469.777 650.500, 463.807 642.477, 457.838 639.611, 455.705 636.962, 453.733 628.939, 447.764 620.917, 441.794 620.509, 441.490 " fill="none" stroke="rgb(0, 119, 0)" stroke-linecap="butt" stroke-linejoin="round" stroke-opacity="1.0" stroke-width="3.0" />
            <path d=" M 477.709, 433.564 485.668, 439.619 493.626, 445.674 501.584, 451.729 509.543, 457.784 517.501, 463.840 525.459, 469.895 533.418, 475.950 541.376, 482.005 549.334, 488.060 557.292, 494.115 564.016, 499.231 571.975, 505.287 579.933, 511.342 587.891, 517.397 595.764, 523.387 598.351, 525.355 606.309, 531.410 614.268, 537.466 622.226, 543.521 630.184, 549.576 638.143, 555.631 646.101, 561.686 654.059, 567.741 662.018, 573.797 669.976, 579.852 673.993, 582.908 681.951, 588.963 689.910, 595.019 697.868, 601.074 705.826, 607.129 713.785, 613.184 721.743, 619.239 729.701, 625.294 731.027, 626.303 " fill="none" stroke="rgb(0, 119, 0)" stroke-linecap="butt" stroke-linejoin="round" stroke-opacity="1.0" stroke-width="3.0" />
            <path d=" M 564.496, 886.304 569.889, 877.883 575.283, 869.462 580.676, 861.042 586.070, 852.621 590.850, 845.158 596.244, 836.737 601.637, 828.316 607.031, 819.896 612.424, 811.475 617.818, 803.054 623.211, 794.633 628.605, 786.212 634.053, 777.707 639.446, 769.286 644.840, 760.865 650.233, 752.444 652.712, 748.575 658.105, 740.154 663.499, 731.733 668.892, 723.313 674.286, 714.892 679.680, 706.471 685.073, 698.050 690.467, 689.629 695.860, 681.209 701.254, 672.788 706.647, 664.367 712.041, 655.946 717.434, 647.526 722.828, 639.105 728.221, 630.684 731.027, 626.303 737.827, 624.848 747.606, 622.755 757.384, 620.662 767.163, 618.569 776.942, 616.476 786.720, 614.383 796.499, 612.290 806.277, 610.197 816.056, 608.104 825.834, 606.012 835.613, 603.919 838.075, 603.392 " fill="none" stroke="rgb(0, 119, 0)" stroke-linecap="butt" stroke-linejoin="round" stroke-opacity="1.0" stroke-width="3.0" />
            <path d=" M 333.449, 695.548 343.256, 693.595 353.064, 691.642 362.871, 689.690 372.679, 687.737 382.486, 685.785 392.294, 683.832 402.101, 681.880 411.909, 679.927 421.716, 677.975 431.524, 676.022 441.331, 674.070 451.139, 672.117 460.946, 670.164 470.754, 668.212 480.562, 666.259 489.928, 664.395 " fill="none" stroke="rgb(0, 119, 0)" stroke-linecap="butt" stroke-linejoin="round" stroke-opacity="1.0" stroke-width="3.0" />
            <path d=" M 620.509, 441.490 615.454, 450.118 610.399, 458.747 605.345, 467.375 600.290, 476.004 595.235, 484.632 590.181, 493.261 585.126, 501.889 580.071, 510.517 575.017, 519.146 569.962, 527.774 564.907, 536.403 559.853, 545.031 554.798, 553.660 549.743, 562.288 544.689, 570.917 539.634, 579.545 534.579, 588.174 529.525, 596.802 523.741, 606.675 518.687, 615.303 513.632, 623.932 508.577, 632.560 507.767, 633.943 502.713, 642.571 497.658, 651.200 492.603, 659.828 489.928, 664.395 491.269, 665.465 499.084, 671.704 505.166, 676.560 507.619, 678.519 515.433, 684.758 523.248, 690.998 531.063, 697.237 538.877, 703.477 546.692, 709.716 554.507, 715.956 562.321, 722.195 570.136, 728.434 571.373, 729.422 579.187, 735.661 587.002, 741.901 594.817, 748.140 602.631, 754.380 610.446, 760.619 618.261, 766.858 626.075, 773.098 632.566, 778.280 640.381, 784.520 648.196, 790.759 656.010, 796.999 663.825, 803.238 671.640, 809.478 679.455, 815.717 687.269, 821.957 691.058, 824.982 " fill="none" stroke="rgb(0, 119, 0)" stroke-linecap="butt" stroke-linejoin="round" stroke-opacity="1.0" stroke-width="3.0" />
            <path d=" M 1071.989, 564.475 1063.840, 558.678 1055.691, 552.882 1047.542, 547.086 1039.393, 541.290 1031.244, 535.494 1023.095, 529.698 1018.995, 526.781 1010.846, 520.985 1002.697, 515.189 994.548, 509.393 986.399, 503.597 978.250, 497.801 970.102, 492.004 961.953, 486.208 953.804, 480.412 945.655, 474.616 937.506, 468.820 929.357, 463.024 921.208, 457.228 913.059, 451.431 904.910, 445.635 896.761, 439.839 888.612, 434.043 880.463, 428.247 878.598, 426.920 868.660, 425.812 858.722, 424.703 848.783, 423.594 838.845, 422.485 836.252, 422.196 826.314, 421.087 816.375, 419.978 806.437, 418.869 796.499, 417.760 786.560, 416.651 777.307, 415.619 767.369, 414.510 757.430, 413.401 749.213, 412.484 739.275, 411.376 729.593, 410.296 " fill="none" stroke="rgb(0, 119, 0)" stroke-linecap="butt" stroke-linejoin="round" stroke-opacity="1.0" stroke-width="3.0" />
            <path d=" M 636.962, 453.733 631.871, 462.341 626.780, 470.948 621.689, 479.555 616.598, 488.162 611.507, 496.769 606.417, 505.376 601.326, 513.983 596.235, 522.591 595.764, 523.387 592.799, 528.399 587.708, 537.006 582.617, 545.613 577.527, 554.220 572.436, 562.827 567.345, 571.435 562.254, 580.042 557.163, 588.649 552.072, 597.256 550.572, 599.792 545.481, 608.400 542.164, 614.007 541.839, 614.558 539.290, 618.867 534.199, 627.474 529.108, 636.081 524.017, 644.688 523.169, 646.123 518.078, 654.730 514.594, 660.620 509.503, 669.227 505.166, 676.560 500.075, 685.168 495.536, 692.842 490.445, 701.449 485.354, 710.056 480.187, 718.792 475.096, 727.399 470.005, 736.006 464.914, 744.613 459.823, 753.220 454.732, 761.828 449.642, 770.435 444.551, 779.042 442.940, 781.766 441.279, 784.574 436.188, 793.181 431.097, 801.788 426.006, 810.395 420.915, 819.002 415.824, 827.609 410.733, 836.217 405.642, 844.824 400.552, 853.431 395.461, 862.038 393.274, 865.735 388.183, 874.342 387.745, 875.082 383.071, 882.986 377.980, 891.593 372.889, 900.200 370.722, 903.864 365.631, 912.471 360.540, 921.078 356.962, 927.128 351.871, 935.735 346.780, 944.342 344.723, 947.820 344.093, 948.884 351.645, 955.440 359.196, 961.995 366.748, 968.551 374.299, 975.107 381.850, 981.662 389.402, 988.218 396.953, 994.774 404.505, 1001.329 412.056, 1007.885 419.607, 1014.441 427.159, 1020.996 434.710, 1027.552 442.262, 1034.108 449.813, 1040.663 457.364, 1047.219 464.916, 1053.775 472.467, 1060.330 480.019, 1066.886 487.570, 1073.441 495.121, 1079.997 502.673, 1086.553 510.224, 1093.108 517.775, 1099.664 525.327, 1106.220 532.878, 1112.775 540.430, 1119.331 547.981, 1125.887 555.532, 1132.442 563.084, 1138.998 570.635, 1145.554 578.187, 1152.109 585.738, 1158.665 593.289, 1165.221 600.841, 1171.776 608.392, 1178.332 615.944, 1184.887 623.495, 1191.443 631.046, 1197.999 638.598, 1204.554 646.149, 1211.110 653.701, 1217.666 661.252, 1224.221 668.803, 1230.777 676.355, 1237.333 683.906, 1243.888 691.457, 1250.444 699.009, 1257.000 706.560, 1263.555 714.112, 1270.111 721.663, 1276.667 729.214, 1283.222 736.766, 1289.778 744.317, 1296.333 751.869, 1302.889 759.420, 1309.445 766.971, 1316.000 774.523, 1322.556 782.074, 1329.112 789.626, 1335.667 797.177, 1342.223 804.728, 1348.779 812.280, 1355.334 819.831, 1361.890 826.408, 1367.600 833.960, 1374.156 841.511, 1380.711 844.187, 1383.034 850.550, 1375.319 856.913, 1367.605 863.276, 1359.891 869.639, 1352.176 876.002, 1344.462 882.365, 1336.748 888.728, 1329.033 895.091, 1321.319 901.454, 1313.604 907.817, 1305.890 914.180, 1298.176 920.543, 1290.461 926.906, 1282.747 933.269, 1275.032 939.632, 1267.318 945.995, 1259.604 952.358, 1251.889 958.721, 1244.175 965.084, 1236.460 971.447, 1228.746 977.810, 1221.032 984.173, 1213.317 990.536, 1205.603 996.899, 1197.888 1003.262, 1190.174 1009.625, 1182.460 1015.988, 1174.745 1022.351, 1167.031 1028.714, 1159.316 1035.077, 1151.602 1041.440, 1143.888 1047.803, 1136.173 1054.167, 1128.459 1060.530, 1120.744 1066.893, 1113.030 1073.255, 1105.316 1079.619, 1097.601 1085.982, 1089.887 1092.345, 1082.172 1098.708, 1074.458 1105.071, 1066.744 1111.434, 1059.029 1117.797, 1051.315 1124.160, 1043.600 1130.523, 1035.886 1136.886, 1028.172 1143.249, 1020.457 1149.612, 1012.743 1155.975, 1005.028 1162.338, 997.314 1168.701, 989.600 1175.064, 981.885 1180.007, 975.893 1186.370, 968.178 1192.733, 960.464 1199.096, 952.750 1205.459, 945.035 1209.308, 940.368 " fill="none" stroke="rgb(0, 119, 0)" stroke-linecap="butt" stroke-linejoin="round" stroke-opacity="1.0" stroke-width="3.0" />
            <path d=" M 844.187, 1383.034 849.405, 1374.504 854.624, 1365.973 859.843, 1357.443 865.061, 1348.913 870.280, 1340.382 875.499, 1331.852 880.717, 1323.322 885.936, 1314.792 891.154, 1306.261 896.373, 1297.731 901.592, 1289.201 906.810, 1280.670 912.029, 1272.140 917.248, 1263.610 922.466, 1255.080 927.685, 1246.549 932.904, 1238.019 938.122, 1229.489 943.341, 1220.958 948.560, 1212.428 953.778, 1203.898 958.997, 1195.368 964.215, 1186.837 969.434, 1178.307 974.653, 1169.777 979.871, 1161.246 985.090, 1152.716 990.309, 1144.186 995.527, 1135.656 998.154, 1131.363 " fill="none" stroke="rgb(0, 119, 0)" stroke-linecap="butt" stroke-linejoin="round" stroke-opacity="1.0" stroke-width="3.0" />
            <path d=" M 620.797, 826.467 628.576, 832.751 636.354, 839.036 644.132, 845.321 645.987, 846.819 653.766, 853.104 661.544, 859.389 669.322, 865.674 677.100, 871.958 684.879, 878.243 692.657, 884.528 700.435, 890.812 705.149, 894.621 712.928, 900.906 720.706, 907.191 728.484, 913.475 736.263, 919.760 744.041, 926.045 751.819, 932.330 759.597, 938.614 767.376, 944.899 772.100, 948.716 776.020, 951.883 783.798, 958.168 791.576, 964.452 793.519, 966.022 798.826, 970.310 806.605, 976.595 814.383, 982.880 822.161, 989.164 829.940, 995.449 837.718, 1001.734 845.496, 1008.019 853.275, 1014.303 861.053, 1020.588 868.831, 1026.873 876.610, 1033.158 884.388, 1039.442 892.166, 1045.727 899.945, 1052.012 907.723, 1058.296 915.501, 1064.581 923.279, 1070.866 931.058, 1077.151 938.836, 1083.435 946.614, 1089.720 954.393, 1096.005 962.171, 1102.289 969.949, 1108.574 977.728, 1114.859 985.506, 1121.144 993.284, 1127.428 998.154, 1131.363 1004.445, 1123.590 1010.737, 1115.817 1017.029, 1108.045 1023.321, 1100.272 1029.613, 1092.500 1035.904, 1084.727 1042.196, 1076.954 1048.488, 1069.182 1054.780, 1061.409 1061.072, 1053.637 1067.363, 1045.864 1073.655, 1038.091 1079.947, 1030.319 1086.239, 1022.546 1092.531, 1014.774 1098.822, 1007.001 1105.114, 999.228 1111.406, 991.456 1117.698, 983.683 1123.990, 975.911 1130.281, 968.138 1136.573, 960.365 1142.865, 952.593 1149.157, 944.820 1155.449, 937.048 1161.740, 929.275 1168.032, 921.502 1174.324, 913.730 1180.616, 905.957 1186.908, 898.185 1193.199, 890.412 1199.491, 882.639 1205.783, 874.867 1212.075, 867.094 1218.367, 859.322 1224.658, 851.549 1230.950, 843.776 1237.242, 836.004 1243.534, 828.231 1249.826, 820.459 1256.117, 812.686 1262.409, 804.913 1265.911, 800.588 1272.203, 792.815 1278.494, 785.043 1284.786, 777.270 1291.078, 769.497 1297.370, 761.725 1303.661, 753.952 1309.953, 746.180 1316.347, 738.281 " fill="none" stroke="rgb(0, 119, 0)" stroke-linecap="butt" stroke-linejoin="round" stroke-opacity="1.0" stroke-width="3.0" />
            <path d=" M 344.093, 948.884 353.238, 944.838 362.383, 940.792 369.273, 937.745 378.418, 933.699 387.563, 929.653 396.315, 925.781 405.460, 921.735 414.605, 917.689 423.750, 913.643 432.895, 909.597 440.907, 906.053 450.052, 902.007 459.197, 897.961 468.342, 893.915 477.487, 889.869 486.632, 885.823 495.777, 881.778 504.922, 877.732 514.067, 873.686 523.212, 869.640 532.357, 865.594 536.950, 863.562 546.095, 859.516 555.240, 855.470 560.342, 853.213 569.487, 849.167 578.632, 845.121 586.522, 841.630 595.667, 837.585 604.812, 833.539 613.957, 829.493 620.797, 826.467 626.219, 818.064 631.641, 809.661 637.062, 801.259 642.484, 792.856 647.906, 784.453 653.328, 776.051 658.297, 768.350 663.718, 759.947 664.858, 758.181 670.279, 749.778 675.701, 741.375 681.123, 732.973 686.545, 724.570 691.966, 716.167 697.388, 707.765 702.810, 699.362 708.231, 690.959 713.653, 682.557 719.075, 674.154 724.497, 665.751 729.918, 657.349 735.340, 648.946 740.762, 640.543 746.592, 631.507 752.014, 623.104 757.435, 614.702 762.857, 606.299 768.279, 597.896 773.701, 589.494 779.122, 581.091 784.544, 572.688 788.525, 566.519 793.946, 558.116 799.368, 549.713 804.790, 541.311 810.211, 532.908 815.633, 524.505 821.055, 516.103 826.477, 507.700 831.898, 499.297 837.320, 490.895 838.238, 489.472 843.660, 481.069 843.755, 480.922 849.177, 472.519 851.411, 469.056 856.598, 461.017 862.020, 452.614 867.442, 444.212 872.863, 435.809 878.285, 427.406 878.598, 426.920 " fill="none" stroke="rgb(0, 119, 0)" stroke-linecap="butt" stroke-linejoin="round" stroke-opacity="1.0" stroke-width="3.0" />
            <path d=" M 681.310, 581.907 673.993, 582.908 665.798, 584.029 663.157, 584.391 653.249, 585.746 643.341, 587.101 633.434, 588.457 623.526, 589.812 620.295, 590.254 610.388, 591.610 600.480, 592.965 590.572, 594.320 580.665, 595.676 570.757, 597.031 560.849, 598.387 554.580, 599.244 550.572, 599.792 540.664, 601.148 530.756, 602.503 527.959, 602.886 525.109, 607.747 520.051, 616.374 519.078, 618.034 514.020, 626.661 509.122, 635.014 504.064, 643.641 500.619, 649.518 495.561, 658.144 491.269, 665.465 486.211, 674.091 481.719, 681.754 476.661, 690.380 471.603, 699.007 466.496, 707.716 461.439, 716.343 456.381, 724.970 451.323, 733.596 446.265, 742.223 441.207, 750.849 436.149, 759.476 431.091, 768.103 429.554, 770.724 427.907, 773.534 422.849, 782.161 417.791, 790.787 412.734, 799.414 407.676, 808.040 402.618, 816.667 397.560, 825.294 392.502, 833.920 387.444, 842.547 382.386, 851.173 380.292, 854.746 375.234, 863.372 374.808, 864.100 369.750, 872.727 364.692, 881.353 359.634, 889.980 357.921, 892.902 365.516, 899.406 370.722, 903.864 378.317, 910.369 385.913, 916.873 393.508, 923.377 395.739, 925.288 396.315, 925.781 403.910, 932.285 411.506, 938.790 419.102, 945.294 426.697, 951.798 434.293, 958.303 441.888, 964.807 449.484, 971.312 457.079, 977.816 464.675, 984.320 472.270, 990.825 479.866, 997.329 487.462, 1003.834 493.877, 1009.327 501.472, 1015.832 503.631, 1017.681 511.227, 1024.185 518.823, 1030.690 526.418, 1037.194 534.014, 1043.698 541.609, 1050.203 549.205, 1056.707 556.800, 1063.212 564.396, 1069.716 571.991, 1076.220 579.587, 1082.725 587.183, 1089.229 594.778, 1095.734 602.374, 1102.238 609.969, 1108.743 617.565, 1115.247 625.160, 1121.751 627.254, 1123.544 634.935, 1117.141 642.617, 1110.738 650.298, 1104.335 657.979, 1097.932 665.660, 1091.529 673.341, 1085.126 681.022, 1078.722 688.703, 1072.319 689.706, 1071.483 697.387, 1065.080 705.068, 1058.677 712.750, 1052.274 720.431, 1045.871 728.112, 1039.467 735.793, 1033.064 743.474, 1026.661 751.155, 1020.258 758.836, 1013.855 759.796, 1013.055 765.623, 1004.928 771.450, 996.801 777.277, 988.675 778.608, 986.818 784.435, 978.691 790.262, 970.564 793.519, 966.022 799.346, 957.895 805.173, 949.769 811.000, 941.642 816.827, 933.515 822.654, 925.388 828.482, 917.261 834.309, 909.134 840.136, 901.008 845.963, 892.881 851.790, 884.754 857.617, 876.627 859.305, 874.273 865.132, 866.146 870.959, 858.019 876.786, 849.892 882.613, 841.766 888.440, 833.639 894.268, 825.512 900.095, 817.385 905.922, 809.258 911.749, 801.131 917.576, 793.005 923.403, 784.878 925.506, 781.945 931.333, 773.818 932.237, 772.557 930.250, 771.047 926.428, 768.143 918.466, 762.094 910.503, 756.044 902.541, 749.994 894.579, 743.944 886.616, 737.895 878.654, 731.845 870.691, 725.795 862.729, 719.745 859.042, 716.944 851.079, 710.894 843.117, 704.845 837.187, 700.339 829.937, 694.831 821.975, 688.781 814.012, 682.732 806.050, 676.682 798.087, 670.632 795.013, 668.296 787.050, 662.247 784.504, 660.312 776.542, 654.262 768.579, 648.213 760.617, 642.163 752.654, 636.113 746.592, 631.507 739.963, 626.471 737.827, 624.848 729.865, 618.798 721.903, 612.748 713.940, 606.699 705.978, 600.649 699.327, 595.596 691.364, 589.546 683.402, 583.496 681.310, 581.907 " fill="none" stroke="rgb(0, 119, 0)" stroke-linecap="butt" stroke-linejoin="round" stroke-opacity="1.0" stroke-width="3.0" />
            <path d=" M 527.959, 602.886 535.833, 609.051 542.164, 614.007 544.672, 615.971 552.545, 622.135 560.419, 628.300 568.293, 634.465 576.167, 640.630 584.040, 646.794 591.914, 652.959 599.788, 659.124 607.662, 665.288 615.535, 671.453 623.409, 677.618 631.283, 683.783 639.157, 689.947 647.030, 696.112 654.904, 702.277 662.778, 708.442 670.652, 714.606 678.525, 720.771 686.399, 726.936 694.273, 733.100 702.147, 739.265 710.020, 745.430 717.894, 751.595 725.768, 757.759 732.276, 762.855 740.150, 769.020 740.763, 769.500 748.637, 775.665 756.511, 781.829 764.384, 787.994 772.258, 794.159 773.020, 794.755 780.894, 800.920 788.768, 807.085 796.641, 813.250 804.515, 819.414 812.389, 825.579 820.263, 831.744 827.863, 837.695 " fill="none" stroke="rgb(0, 119, 0)" stroke-linecap="butt" stroke-linejoin="round" stroke-opacity="1.0" stroke-width="3.0" />
            <path d=" M 627.254, 1123.544 632.999, 1115.359 638.743, 1107.174 644.488, 1098.988 650.232, 1090.803 655.977, 1082.617 661.721, 1074.432 667.360, 1066.398 673.104, 1058.213 678.849, 1050.027 684.593, 1041.842 690.338, 1033.656 696.082, 1025.471 701.827, 1017.286 707.571, 1009.100 713.316, 1000.915 719.060, 992.729 724.805, 984.544 725.562, 983.464 731.307, 975.279 737.051, 967.093 738.285, 965.336 744.029, 957.151 749.773, 948.965 755.518, 940.780 761.263, 932.595 767.007, 924.409 772.752, 916.224 778.496, 908.038 784.240, 899.853 789.985, 891.667 795.729, 883.482 801.474, 875.297 807.218, 867.111 812.240, 859.955 817.985, 851.770 823.729, 843.585 827.863, 837.695 836.347, 832.400 844.830, 827.106 853.314, 821.811 861.797, 816.517 870.281, 811.223 878.764, 805.928 887.248, 800.634 895.731, 795.340 904.215, 790.045 912.698, 784.751 916.057, 782.654 924.541, 777.360 932.237, 772.557 " fill="none" stroke="rgb(0, 119, 0)" stroke-linecap="butt" stroke-linejoin="round" stroke-opacity="1.0" stroke-width="3.0" />
            <path d=" M 357.921, 892.902 367.224, 889.234 376.527, 885.566 383.071, 882.986 392.374, 879.318 392.620, 879.221 401.923, 875.553 403.936, 874.759 413.239, 871.091 422.542, 867.423 431.845, 863.755 441.148, 860.087 450.451, 856.419 459.754, 852.751 469.057, 849.083 478.360, 845.415 487.663, 841.747 496.966, 838.079 503.138, 835.646 506.770, 834.213 516.073, 830.545 525.376, 826.877 530.360, 824.912 " fill="none" stroke="rgb(0, 119, 0)" stroke-linecap="butt" stroke-linejoin="round" stroke-opacity="1.0" stroke-width="3.0" />
            <path d=" M 681.310, 581.907 676.034, 590.402 670.757, 598.896 665.480, 607.391 660.204, 615.885 654.927, 624.380 649.650, 632.874 644.374, 641.369 639.097, 649.863 633.820, 658.358 628.544, 666.853 623.267, 675.347 617.991, 683.842 612.714, 692.336 607.437, 700.831 602.465, 708.836 597.188, 717.330 591.911, 725.825 586.635, 734.319 581.358, 742.814 576.081, 751.309 570.805, 759.803 565.528, 768.298 560.251, 776.792 554.975, 785.287 549.698, 793.781 544.421, 802.276 542.344, 805.620 537.068, 814.114 531.791, 822.609 530.360, 824.912 538.093, 831.253 545.825, 837.594 553.558, 843.935 561.290, 850.276 561.891, 850.769 569.624, 857.109 577.356, 863.450 585.089, 869.791 590.098, 873.899 597.831, 880.240 605.563, 886.581 613.296, 892.922 621.029, 899.263 628.761, 905.604 636.494, 911.944 644.226, 918.285 651.959, 924.626 654.927, 927.060 662.660, 933.401 670.392, 939.742 678.125, 946.083 685.857, 952.424 693.590, 958.765 701.323, 965.106 709.055, 971.446 716.788, 977.787 724.593, 984.188 732.326, 990.529 740.058, 996.870 742.614, 998.966 750.347, 1005.307 758.080, 1011.648 759.796, 1013.055 " fill="none" stroke="rgb(0, 119, 0)" stroke-linecap="butt" stroke-linejoin="round" stroke-opacity="1.0" stroke-width="3.0" />
            <path d=" M 451.409, 549.956 441.434, 550.650 437.361, 550.933 427.385, 551.627 417.409, 552.320 412.113, 552.689 402.138, 553.382 392.162, 554.076 382.186, 554.770 372.210, 555.463 362.234, 556.157 352.258, 556.851 346.586, 557.245 336.610, 557.939 328.161, 558.526 323.473, 567.359 318.785, 576.192 314.096, 585.025 309.408, 593.857 304.719, 602.690 300.031, 611.523 295.342, 620.356 290.654, 629.189 285.965, 638.021 281.277, 646.854 276.588, 655.687 274.081, 660.412 270.987, 666.240 266.299, 675.073 261.610, 683.905 256.922, 692.738 252.233, 701.571 247.545, 710.404 242.856, 719.237 238.168, 728.069 235.832, 732.469 231.144, 741.302 230.834, 741.886 238.458, 748.358 242.482, 751.774 250.105, 758.245 257.729, 764.716 265.353, 771.188 272.977, 777.659 280.600, 784.131 288.224, 790.602 295.848, 797.074 303.471, 803.545 311.095, 810.017 318.719, 816.488 326.342, 822.959 333.966, 829.431 341.590, 835.902 349.213, 842.374 356.837, 848.845 364.461, 855.317 372.084, 861.788 374.808, 864.100 382.431, 870.571 387.745, 875.082 392.620, 879.221 392.714, 879.300 402.017, 875.631 404.029, 874.838 413.332, 871.169 422.634, 867.500 431.937, 863.831 441.239, 860.162 450.542, 856.493 459.845, 852.824 469.147, 849.155 478.450, 845.486 487.753, 841.817 497.055, 838.148 503.223, 835.716 506.686, 834.350 506.770, 834.213 512.018, 825.701 517.266, 817.188 522.514, 808.676 527.761, 800.164 530.400, 795.883 535.648, 787.371 540.896, 778.859 545.401, 771.550 550.649, 763.037 555.897, 754.525 561.145, 746.012 566.393, 737.500 571.373, 729.422 576.620, 720.909 581.177, 713.518 581.331, 713.269 586.579, 704.756 590.095, 699.053 595.342, 690.540 600.590, 682.028 605.838, 673.516 606.863, 671.854 598.993, 665.683 591.124, 659.513 583.255, 653.342 575.386, 647.171 567.517, 641.001 559.647, 634.830 551.778, 628.660 543.909, 622.489 541.793, 620.830 539.290, 618.867 535.106, 615.586 527.237, 609.416 525.109, 607.747 523.741, 606.675 515.872, 600.504 508.569, 594.778 503.404, 590.727 495.535, 584.557 487.666, 578.386 479.796, 572.216 471.927, 566.045 464.058, 559.875 456.189, 553.704 451.409, 549.956 " fill="none" stroke="rgb(0, 119, 0)" stroke-linecap="butt" stroke-linejoin="round" stroke-opacity="1.0" stroke-width="3.0" />
            <path d=" M 328.161, 558.526 335.961, 564.785 340.571, 568.485 348.370, 574.743 356.169, 581.002 363.969, 587.261 371.768, 593.520 379.567, 599.778 384.156, 603.461 391.955, 609.720 399.754, 615.979 407.553, 622.237 415.353, 628.496 423.152, 634.755 430.951, 641.014 438.750, 647.272 446.550, 653.531 454.349, 659.790 462.148, 666.049 469.947, 672.307 477.746, 678.566 481.719, 681.754 489.518, 688.013 495.536, 692.842 497.974, 694.799 500.843, 697.101 " fill="none" stroke="rgb(0, 119, 0)" stroke-linecap="butt" stroke-linejoin="round" stroke-opacity="1.0" stroke-width="3.0" />
            <path d=" M 392.714, 879.300 397.818, 870.701 398.260, 869.955 403.364, 861.356 408.468, 852.756 413.571, 844.156 418.675, 835.557 423.778, 826.957 428.882, 818.357 433.985, 809.758 439.089, 801.158 444.193, 792.559 446.415, 788.814 451.518, 780.215 456.622, 771.615 461.725, 763.015 466.829, 754.416 470.969, 747.440 476.073, 738.840 481.176, 730.240 486.280, 721.641 491.384, 713.041 496.487, 704.441 500.843, 697.101 510.571, 694.785 520.299, 692.468 530.027, 690.151 539.755, 687.835 549.483, 685.518 559.211, 683.201 567.543, 681.217 577.271, 678.901 586.999, 676.584 596.727, 674.267 606.455, 671.951 606.863, 671.854 " fill="none" stroke="rgb(0, 119, 0)" stroke-linecap="butt" stroke-linejoin="round" stroke-opacity="1.0" stroke-width="3.0" />
            <path d=" M 230.834, 741.886 240.598, 739.725 243.615, 739.057 250.050, 737.632 259.813, 735.471 269.577, 733.310 279.340, 731.149 289.104, 728.987 298.868, 726.826 308.631, 724.665 318.395, 722.503 328.159, 720.342 337.922, 718.181 347.686, 716.019 356.012, 714.176 359.947, 713.305 " fill="none" stroke="rgb(0, 119, 0)" stroke-linecap="butt" stroke-linejoin="round" stroke-opacity="1.0" stroke-width="3.0" />
            <path d=" M 451.409, 549.956 446.524, 558.682 441.638, 567.407 436.753, 576.132 431.867, 584.858 426.982, 593.583 422.096, 602.308 417.211, 611.034 412.326, 619.759 407.440, 628.484 402.555, 637.210 397.669, 645.935 392.784, 654.661 387.898, 663.386 383.013, 672.111 378.127, 680.837 373.242, 689.562 368.356, 698.287 363.471, 707.013 359.947, 713.305 367.662, 719.669 375.376, 726.032 383.090, 732.395 390.804, 738.759 398.518, 745.122 406.232, 751.485 413.946, 757.849 421.660, 764.212 429.554, 770.724 437.269, 777.088 442.940, 781.766 450.654, 788.129 458.368, 794.492 466.082, 800.856 473.796, 807.219 481.510, 813.583 489.224, 819.946 496.938, 826.309 504.652, 832.673 506.686, 834.350 " fill="none" stroke="rgb(0, 119, 0)" stroke-linecap="butt" stroke-linejoin="round" stroke-opacity="1.0" stroke-width="3.0" />
            <path d=" M 404.263, 232.573 399.728, 241.486 395.194, 250.399 390.660, 259.312 388.362, 263.828 383.828, 272.741 379.293, 281.654 374.759, 290.567 370.225, 299.480 365.690, 308.393 361.156, 317.305 356.621, 326.218 352.087, 335.131 347.553, 344.044 343.018, 352.957 338.484, 361.870 333.950, 370.783 329.415, 379.696 324.881, 388.609 320.346, 397.521 315.812, 406.434 311.278, 415.347 306.743, 424.260 302.209, 433.173 297.674, 442.086 293.140, 450.999 288.606, 459.911 284.071, 468.824 279.537, 477.737 275.003, 486.650 270.468, 495.563 265.934, 504.476 261.400, 513.389 256.865, 522.302 252.331, 531.215 247.796, 540.127 243.262, 549.040 238.728, 557.953 234.193, 566.866 229.659, 575.779 225.124, 584.692 220.590, 593.605 216.056, 602.518 211.521, 611.430 206.987, 620.343 202.453, 629.256 197.918, 638.169 193.384, 647.082 188.849, 655.995 184.315, 664.908 179.000, 675.354 175.796, 681.652 183.429, 688.113 191.062, 694.574 198.695, 701.034 206.327, 707.495 213.960, 713.956 221.593, 720.417 229.226, 726.877 235.832, 732.469 243.465, 738.930 243.615, 739.057 247.519, 742.361 255.152, 748.822 262.784, 755.283 270.417, 761.743 278.050, 768.204 285.683, 774.665 293.316, 781.125 300.948, 787.586 308.581, 794.047 316.214, 800.508 323.847, 806.968 331.479, 813.429 339.112, 819.890 346.745, 826.350 354.378, 832.811 362.011, 839.272 369.643, 845.733 377.276, 852.193 380.292, 854.746 387.925, 861.207 393.274, 865.735 398.260, 869.955 403.936, 874.759 404.029, 874.838 411.662, 881.299 419.295, 887.759 426.927, 894.220 434.560, 900.681 440.353, 905.584 440.907, 906.053 448.539, 912.513 456.172, 918.974 463.805, 925.435 471.438, 931.896 479.071, 938.356 486.703, 944.817 494.336, 951.278 501.969, 957.738 509.602, 964.199 517.234, 970.660 518.203, 971.480 525.836, 977.941 533.469, 984.401 541.102, 990.862 544.129, 993.424 551.762, 999.885 559.394, 1006.346 567.027, 1012.806 574.660, 1019.267 582.293, 1025.728 589.925, 1032.188 597.558, 1038.649 605.191, 1045.110 612.824, 1051.571 620.457, 1058.031 622.911, 1060.109 628.585, 1055.872 636.598, 1049.890 644.611, 1043.907 651.081, 1039.076 659.094, 1033.093 667.107, 1027.110 675.120, 1021.127 683.133, 1015.144 691.146, 1009.161 699.158, 1003.179 707.171, 997.196 707.924, 996.634 712.839, 992.964 720.852, 986.981 724.593, 984.188 725.562, 983.464 733.575, 977.481 741.588, 971.498 743.810, 969.840 751.822, 963.857 759.835, 957.874 767.848, 951.891 772.100, 948.716 780.113, 942.734 785.212, 938.926 793.225, 932.944 801.238, 926.961 809.251, 920.978 817.264, 914.995 825.276, 909.012 826.293, 908.254 832.107, 900.118 837.922, 891.982 843.736, 883.846 849.551, 875.711 853.714, 869.885 859.529, 861.749 865.344, 853.613 871.158, 845.478 876.973, 837.342 882.787, 829.206 888.602, 821.070 894.416, 812.935 900.231, 804.799 906.046, 796.663 911.860, 788.527 916.057, 782.654 919.717, 777.534 925.532, 769.398 926.428, 768.143 932.243, 760.008 938.058, 751.872 943.872, 743.736 949.687, 735.600 955.501, 727.464 961.316, 719.329 967.130, 711.193 972.945, 703.057 978.760, 694.921 984.574, 686.786 990.389, 678.650 996.203, 670.514 1002.018, 662.378 1004.517, 658.881 1008.420, 653.421 1014.234, 645.285 1020.049, 637.149 1025.863, 629.014 1027.438, 626.811 1033.252, 618.675 1039.067, 610.539 1044.882, 602.403 1047.699, 598.461 1053.514, 590.325 1059.328, 582.189 1065.143, 574.053 1070.958, 565.917 1071.989, 564.475 " fill="none" stroke="rgb(0, 119, 0)" stroke-linecap="butt" stroke-linejoin="round" stroke-opacity="1.0" stroke-width="3.0" />
            <path d=" M 175.796, 681.652 185.668, 680.054 195.539, 678.456 205.411, 676.857 215.282, 675.259 225.154, 673.661 235.025, 672.062 244.896, 670.464 254.768, 668.866 264.639, 667.267 270.987, 666.240 280.858, 664.641 289.895, 663.178 299.766, 661.580 309.637, 659.982 319.509, 658.383 329.380, 656.785 339.252, 655.187 349.123, 653.588 357.281, 652.268 367.152, 650.669 377.023, 649.071 386.895, 647.473 396.766, 645.874 406.638, 644.276 416.509, 642.678 426.381, 641.079 436.252, 639.481 446.124, 637.883 455.995, 636.284 465.866, 634.686 475.738, 633.088 479.227, 632.523 " fill="none" stroke="rgb(0, 119, 0)" stroke-linecap="butt" stroke-linejoin="round" stroke-opacity="1.0" stroke-width="3.0" />
            <path d=" M 707.486, 237.923 702.479, 246.579 697.472, 255.236 692.464, 263.892 687.457, 272.548 682.450, 281.204 677.443, 289.860 672.436, 298.516 667.429, 307.172 662.421, 315.828 657.414, 324.484 655.504, 327.787 650.497, 336.443 645.489, 345.099 640.482, 353.755 635.475, 362.411 630.468, 371.067 625.461, 379.724 620.454, 388.380 615.446, 397.036 610.439, 405.692 605.432, 414.348 603.260, 418.103 598.252, 426.760 593.245, 435.416 590.689, 439.835 585.682, 448.491 580.675, 457.147 575.667, 465.803 570.660, 474.459 565.653, 483.115 560.646, 491.771 555.639, 500.427 550.632, 509.083 545.624, 517.740 540.617, 526.396 535.610, 535.052 530.603, 543.708 525.596, 552.364 520.588, 561.020 515.581, 569.676 510.574, 578.332 505.567, 586.988 503.404, 590.727 498.397, 599.383 493.390, 608.040 488.382, 616.696 483.375, 625.352 479.227, 632.523 487.057, 638.743 494.887, 644.964 500.619, 649.518 508.449, 655.738 514.594, 660.620 517.061, 662.580 524.890, 668.801 532.720, 675.021 540.550, 681.241 548.380, 687.462 556.210, 693.682 564.039, 699.903 571.869, 706.123 579.699, 712.344 581.177, 713.518 589.007, 719.739 596.837, 725.959 604.666, 732.180 612.496, 738.400 620.326, 744.621 628.156, 750.841 635.986, 757.062 643.815, 763.282 651.645, 769.503 652.843, 770.454 660.673, 776.675 668.503, 782.895 676.333, 789.116 684.162, 795.336 691.992, 801.557 699.822, 807.777 701.558, 809.156 709.387, 815.377 717.217, 821.597 725.047, 827.818 732.877, 834.038 740.706, 840.258 741.608, 840.975 749.438, 847.195 757.268, 853.416 765.098, 859.636 772.927, 865.857 780.757, 872.077 788.587, 878.298 796.417, 884.518 804.247, 890.739 812.076, 896.959 813.938, 898.438 821.768, 904.659 826.293, 908.254 " fill="none" stroke="rgb(0, 119, 0)" stroke-linecap="butt" stroke-linejoin="round" stroke-opacity="1.0" stroke-width="3.0" />
            <path d=" M 734.661, 401.951 724.739, 400.710 714.816, 399.469 704.893, 398.227 694.971, 396.986 685.048, 395.745 675.125, 394.504 665.203, 393.262 655.280, 392.021 645.357, 390.780 635.435, 389.539 628.198, 388.634 623.179, 397.283 618.160, 405.932 613.141, 414.581 610.733, 418.730 606.522, 425.987 601.502, 434.636 598.242, 440.254 593.223, 448.903 588.204, 457.552 583.184, 466.201 578.165, 474.850 573.146, 483.499 568.127, 492.149 564.016, 499.231 561.106, 504.246 556.087, 512.896 551.068, 521.545 546.048, 530.194 541.029, 538.843 536.010, 547.492 530.991, 556.141 525.971, 564.790 520.952, 573.439 515.933, 582.088 510.914, 590.738 508.569, 594.778 503.550, 603.427 498.531, 612.076 493.511, 620.725 492.738, 622.057 500.582, 628.260 507.767, 633.943 509.122, 635.014 516.966, 641.217 523.169, 646.123 525.648, 648.084 533.491, 654.287 541.335, 660.490 549.178, 666.693 557.022, 672.897 564.865, 679.100 567.543, 681.217 575.386, 687.420 583.230, 693.624 590.095, 699.053 591.645, 700.279 599.489, 706.482 601.048, 707.716 602.465, 708.836 610.308, 715.039 618.151, 721.242 625.995, 727.445 633.839, 733.649 641.682, 739.852 649.526, 746.055 652.712, 748.575 658.524, 753.172 664.858, 758.181 671.347, 763.313 677.434, 768.127 685.277, 774.330 693.121, 780.533 701.073, 786.823 710.238, 782.822 712.928, 781.648 722.093, 777.648 722.612, 777.422 731.155, 773.693 740.320, 769.693 740.763, 769.500 749.928, 765.500 759.093, 761.500 768.258, 757.499 777.423, 753.499 786.589, 749.499 795.598, 745.567 801.203, 737.285 806.808, 729.004 812.413, 720.722 818.018, 712.441 823.559, 704.254 829.164, 695.973 829.937, 694.831 835.542, 686.550 841.147, 678.268 846.753, 669.987 852.358, 661.705 857.963, 653.424 863.568, 645.142 869.173, 636.861 874.778, 628.579 880.383, 620.298 885.988, 612.016 891.593, 603.735 897.198, 595.453 902.804, 587.172 904.114, 585.236 907.819, 579.762 913.424, 571.481 919.029, 563.199 924.634, 554.918 925.874, 553.086 931.479, 544.805 931.652, 544.549 926.421, 540.762 918.321, 534.899 910.220, 529.035 902.120, 523.171 894.020, 517.307 885.919, 511.444 877.819, 505.580 869.718, 499.716 861.618, 493.852 853.518, 487.989 845.417, 482.125 843.755, 480.922 835.654, 475.058 827.554, 469.194 819.454, 463.330 811.353, 457.467 803.253, 451.603 795.152, 445.739 793.948, 444.867 785.848, 439.004 777.747, 433.140 769.647, 427.276 761.546, 421.412 759.928, 420.241 751.828, 414.377 749.213, 412.484 741.113, 406.621 734.661, 401.951 " fill="none" stroke="rgb(0, 119, 0)" stroke-linecap="butt" stroke-linejoin="round" stroke-opacity="1.0" stroke-width="3.0" />
            <path d=" M 628.198, 388.634 636.258, 394.553 644.318, 400.473 652.378, 406.392 660.437, 412.312 661.152, 412.836 663.837, 414.809 671.897, 420.728 676.711, 424.264 684.771, 430.183 692.831, 436.103 700.891, 442.022 708.951, 447.942 717.010, 453.861 725.070, 459.781 733.130, 465.700 741.190, 471.620 749.249, 477.539 757.309, 483.458 765.369, 489.378 773.429, 495.297 781.489, 501.217 789.548, 507.136 797.608, 513.056 805.668, 518.975 813.728, 524.895 821.787, 530.814 829.847, 536.734 837.907, 542.653 845.967, 548.572 854.204, 554.622 " fill="none" stroke="rgb(0, 119, 0)" stroke-linecap="butt" stroke-linejoin="round" stroke-opacity="1.0" stroke-width="3.0" />
            <path d=" M 701.073, 786.823 706.579, 778.474 707.374, 777.269 712.879, 768.921 718.385, 760.573 723.890, 752.225 729.395, 743.876 734.901, 735.528 740.406, 727.180 745.911, 718.832 751.417, 710.484 756.922, 702.136 762.428, 693.788 767.933, 685.440 773.438, 677.092 778.944, 668.744 784.504, 660.312 790.010, 651.964 795.515, 643.616 801.020, 635.268 806.526, 626.920 812.031, 618.572 817.537, 610.224 823.042, 601.875 827.320, 595.388 832.826, 587.040 838.331, 578.692 843.836, 570.344 849.342, 561.996 854.204, 554.622 864.121, 553.333 874.037, 552.043 883.954, 550.753 893.870, 549.463 903.787, 548.173 913.703, 546.883 916.778, 546.483 926.694, 545.194 931.652, 544.549 " fill="none" stroke="rgb(0, 119, 0)" stroke-linecap="butt" stroke-linejoin="round" stroke-opacity="1.0" stroke-width="3.0" />
            <path d=" M 492.738, 622.057 502.624, 620.547 512.509, 619.037 519.078, 618.034 528.963, 616.524 535.106, 615.586 541.839, 614.558 545.873, 613.942 555.759, 612.432 565.644, 610.922 575.530, 609.412 585.415, 607.902 595.300, 606.393 605.186, 604.883 612.047, 603.835 " fill="none" stroke="rgb(0, 119, 0)" stroke-linecap="butt" stroke-linejoin="round" stroke-opacity="1.0" stroke-width="3.0" />
            <path d=" M 734.661, 401.951 729.593, 410.296 725.660, 416.772 720.469, 425.319 718.958, 427.807 713.766, 436.354 708.575, 444.901 703.384, 453.448 698.193, 461.995 693.002, 470.542 687.811, 479.090 682.589, 487.687 677.398, 496.234 672.207, 504.781 667.016, 513.328 661.825, 521.876 656.634, 530.423 651.443, 538.970 646.252, 547.517 641.061, 556.064 635.870, 564.611 630.679, 573.158 625.488, 581.705 620.295, 590.254 615.104, 598.801 612.047, 603.835 619.962, 609.947 627.877, 616.058 635.792, 622.170 643.707, 628.282 651.622, 634.393 659.537, 640.505 667.452, 646.617 675.367, 652.729 683.282, 658.840 691.197, 664.952 699.112, 671.064 707.027, 677.175 714.942, 683.287 722.857, 689.399 730.772, 695.510 738.687, 701.622 746.602, 707.734 754.517, 713.846 761.312, 719.092 769.227, 725.204 777.142, 731.316 785.057, 737.427 792.972, 743.539 795.598, 745.567 " fill="none" stroke="rgb(0, 119, 0)" stroke-linecap="butt" stroke-linejoin="round" stroke-opacity="1.0" stroke-width="3.0" />
            <path d=" M 214.425, 804.200 221.998, 810.731 229.571, 817.262 237.143, 823.793 244.716, 830.324 252.289, 836.855 259.862, 843.386 267.435, 849.917 275.007, 856.448 282.580, 862.979 290.153, 869.510 297.726, 876.041 305.298, 882.571 312.871, 889.102 320.444, 895.633 328.017, 902.164 335.589, 908.695 343.162, 915.226 350.735, 921.757 356.962, 927.128 364.535, 933.658 368.684, 937.237 369.273, 937.745 376.845, 944.276 384.418, 950.806 391.991, 957.337 399.564, 963.868 407.137, 970.399 414.709, 976.930 422.282, 983.461 429.855, 989.992 437.428, 996.523 445.000, 1003.054 452.573, 1009.585 460.146, 1016.116 467.719, 1022.647 475.291, 1029.178 479.040, 1032.410 487.618, 1027.272 496.197, 1022.133 503.631, 1017.681 512.210, 1012.542 520.789, 1007.404 529.368, 1002.265 537.947, 997.127 544.129, 993.424 550.302, 989.727 558.880, 984.589 567.459, 979.450 574.786, 975.061 583.365, 969.923 591.944, 964.785 600.523, 959.646 609.102, 954.508 617.681, 949.369 626.259, 944.231 634.838, 939.093 636.737, 937.955 645.316, 932.817 653.895, 927.679 654.927, 927.060 663.506, 921.922 672.085, 916.783 675.909, 914.492 684.488, 909.354 693.067, 904.216 701.646, 899.077 702.447, 898.597 705.149, 894.621 710.770, 886.350 713.465, 882.386 719.086, 874.115 724.707, 865.844 730.328, 857.573 735.949, 849.303 741.608, 840.975 747.229, 832.704 752.850, 824.434 757.853, 817.072 763.474, 808.801 767.792, 802.448 773.020, 794.755 778.641, 786.485 784.262, 778.214 789.883, 769.943 795.504, 761.672 801.125, 753.402 806.746, 745.131 812.367, 736.860 817.988, 728.590 823.609, 720.319 829.230, 712.048 830.784, 709.760 836.405, 701.490 837.187, 700.339 842.808, 692.069 848.429, 683.798 854.050, 675.527 859.671, 667.257 865.292, 658.986 870.913, 650.715 876.534, 642.444 882.155, 634.174 887.776, 625.903 893.397, 617.632 899.018, 609.362 904.639, 601.091 910.260, 592.820 911.654, 590.767 915.374, 585.294 920.995, 577.023 926.616, 568.753 932.237, 560.482 933.501, 558.623 939.122, 550.352 944.743, 542.081 947.354, 538.240 939.242, 532.391 931.131, 526.542 923.020, 520.693 914.909, 514.844 906.798, 508.995 898.687, 503.146 890.576, 497.297 882.465, 491.448 874.354, 485.599 866.242, 479.750 858.131, 473.901 851.411, 469.056 843.300, 463.207 835.189, 457.358 827.078, 451.509 818.967, 445.660 810.856, 439.811 802.745, 433.962 801.402, 432.994 793.291, 427.145 787.601, 423.042 779.490, 417.193 777.307, 415.619 769.196, 409.770 761.085, 403.921 752.974, 398.072 744.862, 392.223 736.751, 386.374 728.640, 380.526 720.529, 374.677 712.418, 368.828 704.307, 362.979 696.196, 357.130 688.085, 351.281 679.974, 345.432 671.862, 339.583 663.751, 333.734 655.504, 327.787 647.393, 321.938 639.282, 316.089 631.170, 310.240 623.059, 304.391 614.948, 298.542 606.837, 292.693 598.726, 286.844 590.615, 280.995 588.470, 279.449 578.779, 276.983 569.088, 274.517 559.397, 272.051 549.706, 269.584 540.014, 267.118 530.323, 264.652 520.632, 262.186 510.941, 259.720 501.250, 257.254 491.559, 254.788 481.868, 252.322 472.176, 249.855 462.485, 247.389 452.794, 244.923 443.103, 242.457 433.412, 239.991 423.721, 237.525 414.030, 235.059 404.263, 232.573 " fill="none" stroke="rgb(0, 119, 0)" stroke-linecap="butt" stroke-linejoin="round" stroke-opacity="1.0" stroke-width="3.0" />
            <path d=" M 784.023, 557.924 793.951, 556.727 803.879, 555.531 813.807, 554.334 823.735, 553.138 833.664, 551.941 843.592, 550.745 853.520, 549.548 863.448, 548.352 873.376, 547.155 883.304, 545.959 893.233, 544.762 903.161, 543.566 911.391, 542.574 921.320, 541.377 926.421, 540.762 936.349, 539.566 946.278, 538.369 947.354, 538.240 " fill="none" stroke="rgb(0, 119, 0)" stroke-linecap="butt" stroke-linejoin="round" stroke-opacity="1.0" stroke-width="3.0" />
            <path d=" M 639.066, 450.177 641.718, 452.148 649.744, 458.114 657.769, 464.079 665.795, 470.045 673.821, 476.010 681.847, 481.976 689.872, 487.941 697.898, 493.907 705.924, 499.873 713.949, 505.838 721.975, 511.804 730.001, 517.769 738.027, 523.735 746.052, 529.700 754.078, 535.666 762.104, 541.631 770.130, 547.597 778.155, 553.562 784.023, 557.924 781.742, 561.472 776.335, 569.884 770.928, 578.296 765.521, 586.708 760.114, 595.120 754.707, 603.532 749.300, 611.945 743.893, 620.357 739.963, 626.471 734.556, 634.883 729.149, 643.295 723.742, 651.707 718.335, 660.119 712.928, 668.531 707.521, 676.943 702.114, 685.356 696.707, 693.768 691.300, 702.180 685.893, 710.592 680.486, 719.004 675.079, 727.416 669.672, 735.828 664.265, 744.241 658.524, 753.172 653.117, 761.584 647.710, 769.996 645.625, 773.240 640.218, 781.653 634.811, 790.065 629.404, 798.477 623.997, 806.889 618.590, 815.301 613.183, 823.713 607.776, 832.125 602.369, 840.538 596.962, 848.950 596.460, 849.731 591.053, 858.143 585.646, 866.555 580.239, 874.967 576.776, 880.354 571.369, 888.766 565.962, 897.178 560.555, 905.590 555.148, 914.002 549.741, 922.415 544.334, 930.827 538.927, 939.239 533.520, 947.651 528.113, 956.063 522.706, 964.475 521.900, 965.729 518.203, 971.480 512.796, 979.892 507.389, 988.304 501.982, 996.716 496.575, 1005.129 493.877, 1009.327 488.470, 1017.739 483.063, 1026.151 479.040, 1032.410 " fill="none" stroke="rgb(0, 119, 0)" stroke-linecap="butt" stroke-linejoin="round" stroke-opacity="1.0" stroke-width="3.0" />
            <path d=" M 82.594, 690.505 92.472, 688.953 102.351, 687.400 112.230, 685.848 122.109, 684.295 131.987, 682.743 141.866, 681.190 151.745, 679.638 161.624, 678.085 171.502, 676.533 179.000, 675.354 188.879, 673.802 198.758, 672.249 208.637, 670.697 218.515, 669.144 228.394, 667.592 238.273, 666.039 248.152, 664.487 258.030, 662.934 267.909, 661.382 274.081, 660.412 283.959, 658.859 292.963, 657.444 302.842, 655.892 312.721, 654.339 322.599, 652.787 332.478, 651.234 342.357, 649.682 352.236, 648.129 360.253, 646.869 370.132, 645.317 380.011, 643.764 386.235, 642.786 " fill="none" stroke="rgb(0, 119, 0)" stroke-linecap="butt" stroke-linejoin="round" stroke-opacity="1.0" stroke-width="3.0" />
            <path d=" M 588.470, 279.449 583.607, 288.187 578.743, 296.924 573.880, 305.662 569.016, 314.400 564.153, 323.137 559.289, 331.875 554.426, 340.613 549.563, 349.350 544.699, 358.088 539.836, 366.826 534.972, 375.563 530.109, 384.301 525.245, 393.039 520.382, 401.776 515.396, 410.734 510.533, 419.472 505.669, 428.210 501.940, 434.909 497.077, 443.646 492.214, 452.384 487.350, 461.122 482.487, 469.859 477.623, 478.597 472.760, 487.335 467.896, 496.072 463.033, 504.810 458.169, 513.548 453.306, 522.286 448.443, 531.023 443.579, 539.761 438.716, 548.499 437.361, 550.933 432.497, 559.671 427.634, 568.408 422.770, 577.146 417.907, 585.884 413.043, 594.621 408.180, 603.359 403.317, 612.097 398.453, 620.835 393.590, 629.572 388.726, 638.310 386.235, 642.786 394.009, 649.075 401.784, 655.365 409.558, 661.654 417.333, 667.944 425.107, 674.233 432.882, 680.523 440.656, 686.812 448.431, 693.102 456.205, 699.391 463.980, 705.681 466.496, 707.716 474.271, 714.006 480.187, 718.792 482.603, 720.747 490.378, 727.036 498.152, 733.326 505.927, 739.615 513.701, 745.905 521.476, 752.194 529.250, 758.484 537.025, 764.773 545.401, 771.550 553.176, 777.839 560.950, 784.129 568.725, 790.418 576.499, 796.708 584.274, 802.997 589.492, 807.219 597.267, 813.508 605.041, 819.798 612.816, 826.087 620.590, 832.377 628.365, 838.666 636.139, 844.956 641.269, 849.105 649.044, 855.395 656.818, 861.684 664.593, 867.974 672.367, 874.263 680.142, 880.553 687.916, 886.842 695.691, 893.132 702.447, 898.597 " fill="none" stroke="rgb(0, 119, 0)" stroke-linecap="butt" stroke-linejoin="round" stroke-opacity="1.0" stroke-width="3.0" />
            <path d=" M 683.651, 758.564 674.322, 762.164 671.347, 763.313 662.017, 766.913 658.297, 768.350 652.843, 770.454 645.625, 773.240 636.296, 776.841 634.053, 777.707 632.566, 778.280 623.237, 781.881 613.908, 785.482 604.579, 789.083 599.824, 790.918 594.470, 799.364 589.492, 807.219 584.139, 815.665 578.786, 824.112 574.100, 831.505 568.747, 839.951 563.394, 848.398 561.891, 850.769 560.342, 853.213 554.989, 861.659 549.635, 870.106 548.001, 872.685 542.647, 881.132 537.294, 889.578 531.941, 898.025 526.588, 906.471 521.234, 914.918 515.881, 923.364 514.940, 924.849 509.587, 933.295 504.234, 941.742 500.494, 947.642 508.132, 954.096 515.771, 960.550 521.900, 965.729 529.538, 972.183 537.177, 978.637 544.815, 985.091 550.302, 989.727 557.940, 996.181 565.578, 1002.635 573.217, 1009.089 580.855, 1015.543 588.494, 1021.997 596.132, 1028.451 603.770, 1034.905 611.409, 1041.359 619.047, 1047.813 626.841, 1054.398 628.585, 1055.872 636.224, 1062.326 643.862, 1068.780 651.500, 1075.234 653.850, 1077.219 661.654, 1070.968 667.360, 1066.398 675.164, 1060.146 675.691, 1059.724 683.496, 1053.473 691.301, 1047.221 699.106, 1040.969 706.911, 1034.718 714.716, 1028.466 722.521, 1022.214 730.857, 1015.538 736.643, 1007.382 742.430, 999.226 742.614, 998.966 748.401, 990.810 754.187, 982.654 756.145, 979.895 761.932, 971.739 767.718, 963.583 773.505, 955.428 776.020, 951.883 781.806, 943.727 785.212, 938.926 790.999, 930.771 796.785, 922.615 802.572, 914.459 808.358, 906.303 813.938, 898.438 819.725, 890.283 825.511, 882.127 830.838, 874.619 822.985, 868.428 815.133, 862.236 812.240, 859.955 804.388, 853.764 796.535, 847.572 788.683, 841.380 780.830, 835.189 778.787, 833.577 770.934, 827.386 763.082, 821.194 757.853, 817.072 750.001, 810.880 742.148, 804.688 734.296, 798.497 726.443, 792.305 718.591, 786.113 717.445, 785.210 712.928, 781.648 707.374, 777.269 699.521, 771.077 691.669, 764.885 683.651, 758.564 " fill="none" stroke="rgb(0, 119, 0)" stroke-linecap="butt" stroke-linejoin="round" stroke-opacity="1.0" stroke-width="3.0" />
            <path d=" M 599.824, 790.918 607.614, 797.188 615.404, 803.458 623.194, 809.728 630.984, 815.998 638.774, 822.269 646.564, 828.539 654.354, 834.809 660.525, 839.775 668.315, 846.046 676.105, 852.316 683.895, 858.586 691.685, 864.856 699.476, 871.126 707.266, 877.396 713.465, 882.386 721.255, 888.656 729.045, 894.926 736.835, 901.196 744.625, 907.466 752.415, 913.736 760.205, 920.006 762.581, 921.918 " fill="none" stroke="rgb(0, 119, 0)" stroke-linecap="butt" stroke-linejoin="round" stroke-opacity="1.0" stroke-width="3.0" />
            <path d=" M 653.850, 1077.219 659.585, 1069.027 665.320, 1060.836 671.056, 1052.644 676.791, 1044.452 682.526, 1036.260 688.262, 1028.068 693.997, 1019.877 699.732, 1011.685 705.468, 1003.493 711.203, 995.301 712.839, 992.964 718.575, 984.772 724.310, 976.580 730.046, 968.388 734.400, 962.169 740.135, 953.978 745.870, 945.786 751.606, 937.594 757.341, 929.402 762.581, 921.918 770.800, 916.222 779.020, 910.527 787.239, 904.831 795.458, 899.135 803.678, 893.440 811.897, 887.744 820.117, 882.049 828.336, 876.353 830.838, 874.619 " fill="none" stroke="rgb(0, 119, 0)" stroke-linecap="butt" stroke-linejoin="round" stroke-opacity="1.0" stroke-width="3.0" />
            <path d=" M 500.494, 947.642 509.372, 943.040 518.249, 938.437 527.127, 933.834 536.005, 929.231 544.883, 924.628 553.760, 920.025 562.638, 915.423 571.516, 910.820 580.393, 906.217 589.271, 901.614 591.345, 900.539 " fill="none" stroke="rgb(0, 119, 0)" stroke-linecap="butt" stroke-linejoin="round" stroke-opacity="1.0" stroke-width="3.0" />
            <path d=" M 683.651, 758.564 678.200, 766.948 677.434, 768.127 671.983, 776.511 666.532, 784.894 661.081, 793.278 655.630, 801.662 650.180, 810.046 644.729, 818.430 639.278, 826.814 633.827, 835.197 628.376, 843.581 622.926, 851.965 617.204, 860.766 614.708, 864.605 609.257, 872.989 603.806, 881.373 598.355, 889.756 592.904, 898.140 591.345, 900.539 599.061, 906.900 606.778, 913.260 614.494, 919.621 622.211, 925.981 629.927, 932.342 636.737, 937.955 644.453, 944.316 652.170, 950.677 659.886, 957.037 667.603, 963.398 675.319, 969.758 683.035, 976.119 690.752, 982.479 698.468, 988.840 706.185, 995.201 707.924, 996.634 715.640, 1002.995 723.356, 1009.355 730.857, 1015.538 " fill="none" stroke="rgb(0, 119, 0)" stroke-linecap="butt" stroke-linejoin="round" stroke-opacity="1.0" stroke-width="3.0" />
            <path d=" M 956.496, 575.315 950.828, 583.553 945.159, 591.791 939.491, 600.029 933.822, 608.267 928.153, 616.505 922.485, 624.744 916.816, 632.982 911.147, 641.220 905.479, 649.458 899.810, 657.696 894.142, 665.934 888.473, 674.172 882.804, 682.410 877.136, 690.649 871.467, 698.887 865.798, 707.125 860.130, 715.363 859.042, 716.944 853.373, 725.182 847.704, 733.420 842.036, 741.659 836.367, 749.897 830.699, 758.135 825.030, 766.373 819.361, 774.611 813.693, 782.849 808.024, 791.087 802.355, 799.325 796.687, 807.564 791.018, 815.802 785.350, 824.040 779.681, 832.278 778.787, 833.577 773.118, 841.816 767.449, 850.054 761.781, 858.292 756.112, 866.530 750.444, 874.768 744.775, 883.006 739.106, 891.244 733.438, 899.482 727.769, 907.721 722.100, 915.959 716.432, 924.197 710.763, 932.435 706.149, 939.141 700.480, 947.379 694.811, 955.617 689.143, 963.856 683.474, 972.094 677.805, 980.332 672.137, 988.570 666.468, 996.808 660.800, 1005.046 655.131, 1013.284 649.462, 1021.522 643.794, 1029.761 638.125, 1037.999 632.456, 1046.237 626.841, 1054.398 622.911, 1060.109 " fill="none" stroke="rgb(0, 119, 0)" stroke-linecap="butt" stroke-linejoin="round" stroke-opacity="1.0" stroke-width="3.0" />
        </g>
    </g>
</svg>
