<?xml version='1.0' encoding='ascii'?>
<svg xmlns="http://www.w3.org/2000/svg" xmlns:inkscape="http://www.inkscape.org/namespaces/inkscape" height="1500" version="1.1" width="1500">
    <g id="fressstylelayer_LineSet" inkscape:groupmode="lineset" inkscape:label="fressstylelayer_LineSet">
        <g id="strokes" inkscape:groupmode="layer" inkscape:label="strokes">
            <path d=" M 446.931, 977.776 447.665, 985.671 454.391, 993.071 460.511, 999.805 467.237, 1007.205 473.963, 1014.605 480.689, 1022.005 481.585, 1022.991 488.311, 1030.391 495.037, 1037.791 501.763, 1045.191 508.489, 1052.591 515.215, 1059.991 521.941, 1067.391 528.667, 1074.791 535.393, 1082.191 542.120, 1089.591 548.846, 1096.991 555.572, 1104.391 562.298, 1111.791 569.024, 1119.191 575.750, 1126.591 582.476, 1133.991 589.202, 1141.391 595.928, 1148.791 602.654, 1156.191 609.380, 1163.591 614.388, 1169.101 621.114, 1176.501 627.840, 1183.901 634.566, 1191.301 641.292, 1198.701 648.018, 1206.101 654.744, 1213.501 661.470, 1220.901 668.196, 1228.302 674.922, 1235.702 681.648, 1243.102 688.374, 1250.502 695.100, 1257.902 701.826, 1265.302 708.552, 1272.702 715.278, 1280.102 722.004, 1287.502 728.730, 1294.902 735.456, 1302.302 742.182, 1309.702 748.908, 1317.102 755.634, 1324.502 762.360, 1331.902 766.827, 1336.816 775.805, 1332.411 784.782, 1328.006 793.760, 1323.601 802.737, 1319.196 811.715, 1314.791 820.692, 1310.386 829.669, 1305.981 838.647, 1301.576 847.624, 1297.170 856.602, 1292.765 865.579, 1288.360 874.557, 1283.955 883.534, 1279.550 892.512, 1275.145 901.489, 1270.740 910.467, 1266.335 919.444, 1261.929 928.422, 1257.524 937.399, 1253.119 946.377, 1248.714 955.354, 1244.309 964.332, 1239.904 973.309, 1235.499 982.286, 1231.094 991.264, 1226.689 1000.241, 1222.283 1009.219, 1217.878 1018.196, 1213.473 1027.174, 1209.068 1036.151, 1204.663 1045.129, 1200.258 1054.106, 1195.853 1063.084, 1191.448 1072.061, 1187.043 1081.039, 1182.637 1090.016, 1178.232 1098.994, 1173.827 1107.971, 1169.422 1116.948, 1165.017 1125.926, 1160.612 1134.903, 1156.207 1143.881, 1151.802 1152.858, 1147.397 1161.836, 1142.991 1170.813, 1138.586 1179.791, 1134.181 1188.768, 1129.776 1197.746, 1125.371 1206.723, 1120.966 1215.701, 1116.561 1224.678, 1112.156 1233.656, 1107.751 1242.633, 1103.345 1251.611, 1098.940 1260.588, 1094.535 1269.566, 1090.130 1278.543, 1085.725 1287.521, 1081.320 1296.498, 1076.915 1306.846, 1071.837 1303.095, 1062.567 1299.345, 1053.297 1295.595, 1044.027 1291.844, 1034.757 1288.094, 1025.487 1284.344, 1016.217 1280.593, 1006.947 1276.843, 997.677 1273.092, 988.406 1269.342, 979.136 1265.592, 969.866 1261.841, 960.596 1258.091, 951.326 1254.340, 942.056 1250.590, 932.786 1246.840, 923.516 1243.089, 914.246 1239.339, 904.976 1235.589, 895.705 1231.838, 886.435 1228.088, 877.165 1224.337, 867.895 1221.392, 860.614 1217.641, 851.344 1213.891, 842.074 1210.141, 832.804 1206.390, 823.534 1202.640, 814.264 1198.890, 804.994 1195.139, 795.724 1191.389, 786.454 1187.638, 777.183 1183.888, 767.913 1180.138, 758.643 1178.626, 754.906 1174.875, 745.636 1171.125, 736.366 1167.375, 727.096 1163.624, 717.826 1159.874, 708.556 1156.124, 699.285 1152.373, 690.015 1148.623, 680.745 1144.872, 671.475 1141.122, 662.205 1137.372, 652.935 1133.621, 643.665 1129.871, 634.395 1127.145, 627.656 1121.014, 619.756 1114.883, 611.855 1108.752, 603.955 1102.622, 596.055 1096.491, 588.155 1090.360, 580.254 1084.229, 572.354 1078.099, 564.454 1071.968, 556.554 1065.837, 548.653 1059.706, 540.753 1053.576, 532.853 1047.445, 524.953 1041.314, 517.052 1035.183, 509.152 1029.053, 501.252 1026.741, 498.273 1020.610, 490.373 1016.031, 484.472 1009.900, 476.572 1003.770, 468.672 997.639, 460.771 991.508, 452.871 985.377, 444.971 979.247, 437.071 973.116, 429.170 966.985, 421.270 960.854, 413.370 954.724, 405.470 948.593, 397.569 942.462, 389.669 936.331, 381.769 930.201, 373.869 924.070, 365.968 917.939, 358.068 911.808, 350.168 905.678, 342.268 902.533, 338.215 893.789, 343.068 885.046, 347.922 876.303, 352.775 867.559, 357.628 858.816, 362.481 850.073, 367.334 841.391, 372.153 " fill="none" stroke="rgb(157, 20, 170)" stroke-linecap="butt" stroke-linejoin="round" stroke-opacity="1.0" stroke-width="3.0" />
            <path d=" M 1127.145, 627.656 1118.297, 632.317 1109.450, 636.979 1100.603, 641.640 1091.756, 646.302 1087.127, 648.741 1078.280, 653.402 1069.433, 658.064 1060.586, 662.725 1051.739, 667.387 1042.892, 672.048 1034.045, 676.710 1025.198, 681.371 1016.351, 686.033 1007.504, 690.694 998.657, 695.356 989.810, 700.017 980.963, 704.679 972.116, 709.340 963.269, 714.002 954.422, 718.663 945.574, 723.325 936.727, 727.986 927.880, 732.648 919.033, 737.309 910.186, 741.970 901.339, 746.632 892.492, 751.293 883.645, 755.955 874.798, 760.616 865.951, 765.278 857.104, 769.939 848.257, 774.601 839.410, 779.262 830.563, 783.924 821.716, 788.585 812.868, 793.247 804.021, 797.908 795.174, 802.570 786.327, 807.231 777.480, 811.893 768.633, 816.554 759.786, 821.216 750.939, 825.877 742.092, 830.539 733.245, 835.200 724.398, 839.862 715.551, 844.523 706.704, 849.185 697.857, 853.846 689.010, 858.508 680.162, 863.169 671.315, 867.831 662.468, 872.492 653.621, 877.154 644.774, 881.815 635.927, 886.476 627.080, 891.138 618.233, 895.799 609.386, 900.461 600.539, 905.122 591.692, 909.784 582.845, 914.445 573.998, 919.107 565.151, 923.768 556.304, 928.430 547.456, 933.091 538.609, 937.753 529.762, 942.414 520.915, 947.076 512.068, 951.737 503.221, 956.399 494.374, 961.060 485.527, 965.722 472.387, 972.645 471.692, 973.011 470.810, 973.476 469.864, 973.974 461.017, 978.636 452.006, 983.384 447.665, 985.671 " fill="none" stroke="rgb(157, 20, 170)" stroke-linecap="butt" stroke-linejoin="round" stroke-opacity="1.0" stroke-width="3.0" />
            <path d=" M 1221.392, 860.614 1230.308, 856.087 1239.224, 851.559 1246.871, 847.676 1243.260, 838.351 1239.649, 829.026 1236.038, 819.700 1232.427, 810.375 1228.816, 801.050 1225.205, 791.725 1221.594, 782.399 1217.982, 773.074 1214.371, 763.749 1210.760, 754.424 1207.149, 745.099 1203.538, 735.773 1199.927, 726.448 1196.316, 717.123 1192.705, 707.798 1189.094, 698.472 1185.483, 689.147 1181.872, 679.822 1178.260, 670.497 1174.649, 661.171 1171.038, 651.846 1167.427, 642.521 1163.816, 633.196 1160.205, 623.870 1156.594, 614.545 1152.983, 605.220 1149.372, 595.895 1145.761, 586.570 1142.150, 577.244 1138.538, 567.919 1134.927, 558.594 1131.316, 549.269 1127.705, 539.943 1124.094, 530.618 1120.483, 521.293 1116.872, 511.968 1113.261, 502.642 1109.650, 493.317 1106.039, 483.992 1102.427, 474.667 1098.816, 465.341 1096.912, 460.424 1090.266, 452.953 1083.619, 445.482 1076.972, 438.010 1070.325, 430.539 1063.678, 423.068 1057.032, 415.597 1050.385, 408.125 1043.738, 400.654 1037.091, 393.183 1030.445, 385.711 1023.798, 378.240 1017.151, 370.769 1010.504, 363.297 1003.858, 355.826 997.211, 348.355 990.564, 340.884 983.917, 333.412 977.271, 325.941 970.624, 318.470 963.977, 310.998 957.330, 303.527 950.683, 296.056 944.037, 288.584 937.390, 281.113 930.743, 273.642 924.096, 266.170 920.579, 262.216 911.852, 267.100 903.126, 271.983 894.399, 276.867 885.673, 281.750 876.946, 286.634 868.220, 291.517 859.493, 296.401 850.767, 301.284 842.040, 306.168 833.314, 311.051 824.587, 315.935 815.861, 320.818 807.134, 325.702 798.408, 330.585 789.681, 335.469 780.955, 340.352 772.228, 345.236 763.502, 350.119 754.775, 355.003 746.995, 359.357 " fill="none" stroke="rgb(157, 20, 170)" stroke-linecap="butt" stroke-linejoin="round" stroke-opacity="1.0" stroke-width="3.0" />
            <path d=" M 953.460, 554.310 949.175, 545.275 944.889, 536.240 940.604, 527.204 936.319, 518.169 932.034, 509.134 930.922, 506.791 925.385, 498.464 919.848, 490.137 914.311, 481.810 908.773, 473.483 903.236, 465.156 897.699, 456.829 892.161, 448.502 886.624, 440.175 881.087, 431.848 875.550, 423.521 870.012, 415.194 864.475, 406.867 858.938, 398.540 853.401, 390.214 848.931, 383.492 843.393, 375.165 841.391, 372.153 841.020, 371.596 832.277, 376.450 823.534, 381.303 814.791, 386.157 806.048, 391.010 797.304, 395.864 788.561, 400.717 779.818, 405.571 774.302, 408.633 " fill="none" stroke="rgb(157, 20, 170)" stroke-linecap="butt" stroke-linejoin="round" stroke-opacity="1.0" stroke-width="3.0" />
            <path d=" M 677.638, 270.558 672.925, 261.738 668.212, 252.918 663.499, 244.099 658.786, 235.279 654.073, 226.459 650.919, 220.558 642.243, 225.531 633.567, 230.504 624.891, 235.476 616.215, 240.449 607.539, 245.422 598.863, 250.394 590.187, 255.367 581.511, 260.340 572.835, 265.312 564.159, 270.285 555.483, 275.258 546.807, 280.230 538.131, 285.203 529.455, 290.176 520.779, 295.148 512.103, 300.121 503.427, 305.094 494.751, 310.066 486.075, 315.039 477.399, 320.012 468.723, 324.984 460.047, 329.957 451.371, 334.930 442.695, 339.902 434.019, 344.875 425.344, 349.848 416.668, 354.820 407.992, 359.793 399.316, 364.766 390.640, 369.738 381.964, 374.711 373.288, 379.683 364.612, 384.656 355.936, 389.629 347.260, 394.601 338.584, 399.574 329.908, 404.547 321.232, 409.519 312.556, 414.492 303.880, 419.465 295.204, 424.437 286.528, 429.410 277.852, 434.383 269.176, 439.355 260.500, 444.328 251.824, 449.301 243.148, 454.273 234.472, 459.246 225.796, 464.219 217.120, 469.191 208.444, 474.164 199.768, 479.137 191.092, 484.109 182.416, 489.082 173.740, 494.055 165.181, 498.960 163.538, 508.825 161.895, 518.689 160.252, 528.553 158.610, 538.417 156.967, 548.281 155.324, 558.145 153.681, 568.009 152.039, 577.874 150.396, 587.738 148.753, 597.602 147.110, 607.466 145.468, 617.330 143.825, 627.194 142.182, 637.058 140.539, 646.923 138.897, 656.787 137.254, 666.651 135.611, 676.515 133.968, 686.379 132.326, 696.243 130.683, 706.107 129.040, 715.972 127.397, 725.836 125.755, 735.700 124.112, 745.564 122.469, 755.428 120.826, 765.292 119.184, 775.156 117.541, 785.021 115.898, 794.885 114.255, 804.749 112.613, 814.613 110.970, 824.477 109.327, 834.341 108.689, 838.174 115.843, 845.161 122.997, 852.148 130.151, 859.135 137.305, 866.122 144.460, 873.109 151.614, 880.096 158.768, 887.083 165.922, 894.070 173.076, 901.057 180.230, 908.044 187.384, 915.031 194.538, 922.018 201.692, 929.005 208.847, 935.992 216.001, 942.979 223.155, 949.966 230.309, 956.953 237.463, 963.940 244.617, 970.927 251.771, 977.914 258.925, 984.901 266.080, 991.888 273.234, 998.875 280.388, 1005.863 287.542, 1012.850 294.696, 1019.837 301.850, 1026.824 309.004, 1033.811 316.158, 1040.798 323.313, 1047.785 330.467, 1054.772 337.621, 1061.759 344.775, 1068.746 351.929, 1075.733 359.083, 1082.720 366.237, 1089.707 373.391, 1096.694 380.546, 1103.681 387.700, 1110.668 394.854, 1117.655 402.008, 1124.642 409.162, 1131.629 416.316, 1138.616 423.470, 1145.603 430.624, 1152.590 437.778, 1159.577 444.933, 1166.564 452.087, 1173.551 459.241, 1180.538 466.395, 1187.525 473.549, 1194.512 480.703, 1201.499 487.857, 1208.486 495.011, 1215.473 504.607, 1224.845 513.524, 1220.318 522.440, 1215.790 531.356, 1211.263 540.273, 1206.735 549.189, 1202.208 558.106, 1197.680 567.022, 1193.152 575.938, 1188.625 584.855, 1184.097 593.771, 1179.570 602.687, 1175.042 611.604, 1170.515 614.388, 1169.101 " fill="none" stroke="rgb(157, 20, 170)" stroke-linecap="butt" stroke-linejoin="round" stroke-opacity="1.0" stroke-width="3.0" />
            <path d=" M 108.689, 838.174 117.448, 833.350 126.208, 828.526 134.967, 823.702 143.727, 818.878 152.486, 814.053 161.134, 809.291 169.894, 804.466 178.653, 799.642 187.413, 794.818 196.172, 789.994 204.932, 785.170 213.691, 780.346 222.451, 775.522 231.210, 770.698 239.970, 765.874 248.729, 761.050 257.489, 756.226 259.643, 755.039 268.403, 750.215 277.162, 745.391 285.922, 740.567 294.681, 735.743 303.441, 730.919 312.200, 726.095 320.960, 721.270 329.719, 716.446 338.478, 711.622 347.238, 706.798 355.997, 701.974 364.757, 697.150 373.516, 692.326 382.276, 687.502 391.035, 682.678 399.795, 677.854 408.554, 673.030 417.314, 668.206 426.073, 663.381 434.833, 658.557 443.592, 653.733 452.352, 648.909 461.111, 644.085 469.870, 639.261 478.630, 634.437 487.389, 629.613 496.149, 624.789 504.908, 619.965 513.668, 615.141 522.427, 610.317 533.899, 603.999 534.571, 603.629 543.330, 598.805 552.090, 593.981 560.849, 589.156 569.609, 584.332 578.368, 579.508 587.128, 574.684 595.887, 569.860 604.647, 565.036 613.406, 560.212 622.165, 555.388 630.925, 550.564 639.684, 545.740 648.444, 540.916 657.203, 536.092 665.963, 531.268 674.722, 526.443 683.482, 521.619 692.241, 516.795 701.001, 511.971 709.760, 507.147 718.520, 502.323 727.279, 497.499 736.039, 492.675 744.798, 487.851 753.557, 483.027 762.317, 478.203 771.076, 473.379 780.647, 468.107 " fill="none" stroke="rgb(157, 20, 170)" stroke-linecap="butt" stroke-linejoin="round" stroke-opacity="1.0" stroke-width="3.0" />
            <path d=" M 919.977, 728.251 915.255, 719.436 910.534, 710.621 905.813, 701.806 901.091, 692.990 896.370, 684.175 891.649, 675.360 886.927, 666.544 882.206, 657.729 877.485, 648.914 872.763, 640.099 868.042, 631.283 863.321, 622.468 858.599, 613.653 853.878, 604.838 849.157, 596.022 844.435, 587.207 839.714, 578.392 834.993, 569.576 830.271, 560.761 825.550, 551.946 820.829, 543.131 816.107, 534.315 811.386, 525.500 806.665, 516.685 801.943, 507.870 797.222, 499.054 792.501, 490.239 787.779, 481.424 783.058, 472.609 780.647, 468.107 776.006, 459.250 771.364, 450.393 766.722, 441.535 764.689, 437.656 761.645, 431.847 757.003, 422.989 755.381, 419.894 750.739, 411.036 746.098, 402.179 741.456, 393.322 736.814, 384.464 732.172, 375.607 728.949, 369.455 724.307, 360.598 719.665, 351.741 715.023, 342.883 710.382, 334.026 705.740, 325.168 701.098, 316.311 696.456, 307.453 691.815, 298.596 687.173, 289.739 682.531, 280.881 677.889, 272.024 673.248, 263.166 668.606, 254.309 663.964, 245.451 659.322, 236.594 654.681, 227.737 650.919, 220.558 " fill="none" stroke="rgb(157, 20, 170)" stroke-linecap="butt" stroke-linejoin="round" stroke-opacity="1.0" stroke-width="3.0" />
            <path d=" M 792.012, 488.726 787.366, 479.871 782.720, 471.016 778.074, 462.161 773.428, 453.306 768.782, 444.450 765.098, 437.430 762.051, 431.622 757.405, 422.767 755.781, 419.672 751.135, 410.817 746.489, 401.961 741.843, 393.106 737.197, 384.251 732.551, 375.396 729.324, 369.245 724.678, 360.390 720.032, 351.535 715.386, 342.680 710.740, 333.825 706.094, 324.969 701.448, 316.114 696.802, 307.259 692.156, 298.404 687.510, 289.549 682.864, 280.694 678.218, 271.838 677.567, 270.598 677.638, 270.558 686.331, 265.615 692.958, 261.847 697.805, 270.594 702.652, 279.341 707.500, 288.087 712.347, 296.834 717.194, 305.581 722.041, 314.328 726.888, 323.074 731.735, 331.821 736.582, 340.568 741.429, 349.315 746.277, 358.061 746.995, 359.357 751.842, 368.104 756.689, 376.850 761.536, 385.597 766.383, 394.344 771.230, 403.090 774.302, 408.633 774.623, 409.213 779.470, 417.960 781.171, 421.029 786.018, 429.776 790.865, 438.523 795.713, 447.270 797.491, 450.479 802.339, 459.226 807.186, 467.973 812.033, 476.720 812.465, 477.500 817.100, 486.361 821.735, 495.222 826.370, 504.083 831.005, 512.944 835.640, 521.805 840.275, 530.666 844.910, 539.527 849.545, 548.388 850.580, 550.365 855.215, 559.226 859.850, 568.087 864.485, 576.948 869.120, 585.809 873.755, 594.670 874.792, 596.653 879.427, 605.514 884.062, 614.375 888.697, 623.236 893.332, 632.097 897.967, 640.958 902.602, 649.818 907.237, 658.679 911.872, 667.540 916.507, 676.401 919.237, 681.620 921.426, 685.804 " fill="none" stroke="rgb(157, 20, 170)" stroke-linecap="butt" stroke-linejoin="round" stroke-opacity="1.0" stroke-width="3.0" />
            <path d=" M 446.931, 977.776 455.776, 973.111 464.621, 968.445 464.844, 968.328 465.794, 967.827 470.822, 965.174 471.513, 964.810 480.358, 960.144 489.203, 955.479 498.048, 950.813 506.893, 946.148 515.737, 941.482 524.582, 936.816 533.427, 932.151 542.272, 927.485 551.117, 922.820 559.962, 918.154 568.807, 913.489 577.652, 908.823 586.497, 904.157 595.342, 899.492 604.187, 894.826 613.031, 890.161 621.876, 885.495 630.721, 880.830 639.566, 876.164 648.411, 871.498 657.256, 866.833 666.101, 862.167 674.946, 857.502 683.791, 852.836 692.636, 848.171 701.481, 843.505 710.326, 838.840 719.170, 834.174 728.015, 829.508 736.860, 824.843 745.705, 820.177 754.550, 815.512 763.395, 810.846 772.240, 806.181 781.085, 801.515 789.930, 796.849 798.775, 792.184 807.620, 787.518 816.464, 782.853 825.309, 778.187 834.154, 773.522 842.999, 768.856 851.844, 764.190 860.689, 759.525 869.534, 754.859 878.379, 750.194 887.224, 745.528 896.069, 740.863 904.914, 736.197 913.758, 731.531 919.977, 728.251 915.317, 719.404 910.657, 710.556 905.997, 701.708 902.818, 695.673 " fill="none" stroke="rgb(157, 20, 170)" stroke-linecap="butt" stroke-linejoin="round" stroke-opacity="1.0" stroke-width="3.0" />
            <path d=" M 812.465, 477.500 809.223, 479.280 800.457, 484.091 792.012, 488.726 796.732, 497.542 801.453, 506.358 806.173, 515.174 810.893, 523.990 815.614, 532.805 820.334, 541.621 825.054, 550.437 829.774, 559.253 834.495, 568.069 839.215, 576.884 843.935, 585.700 848.656, 594.516 853.376, 603.332 858.096, 612.148 862.817, 620.964 867.537, 629.779 872.257, 638.595 876.977, 647.411 881.698, 656.227 886.418, 665.043 891.138, 673.859 895.859, 682.674 900.579, 691.490 902.818, 695.673 911.653, 690.987 920.487, 686.302 921.426, 685.804 " fill="none" stroke="rgb(157, 20, 170)" stroke-linecap="butt" stroke-linejoin="round" stroke-opacity="1.0" stroke-width="3.0" />
            <path d=" M 850.580, 550.365 859.370, 545.598 868.161, 540.830 876.951, 536.063 885.741, 531.295 894.532, 526.528 903.322, 521.760 912.113, 516.993 920.903, 512.225 924.565, 510.239 930.922, 506.791 " fill="none" stroke="rgb(157, 20, 170)" stroke-linecap="butt" stroke-linejoin="round" stroke-opacity="1.0" stroke-width="3.0" />
            <path d=" M 874.792, 596.653 883.598, 591.913 892.403, 587.174 901.209, 582.434 910.014, 577.695 918.820, 572.955 927.625, 568.216 936.431, 563.476 945.236, 558.737 953.460, 554.310 " fill="none" stroke="rgb(157, 20, 170)" stroke-linecap="butt" stroke-linejoin="round" stroke-opacity="1.0" stroke-width="3.0" />
            <path d=" M 1026.741, 498.273 1035.542, 493.526 1044.344, 488.779 1053.145, 484.032 1061.947, 479.284 1070.748, 474.537 1079.549, 469.790 1088.350, 465.042 1096.912, 460.424 " fill="none" stroke="rgb(157, 20, 170)" stroke-linecap="butt" stroke-linejoin="round" stroke-opacity="1.0" stroke-width="3.0" />
        </g>
    </g>
    <g id="fressstylelayer_hidden lines" inkscape:groupmode="lineset" inkscape:label="fressstylelayer_hidden lines" xmlns:inkscape="http://www.inkscape.org/namespaces/inkscape">
        <g id="strokes" inkscape:groupmode="layer" inkscape:label="strokes" xmlns:inkscape="http://www.inkscape.org/namespaces/inkscape">
            <path d=" M 1079.509, 730.029 1085.047, 738.356 1090.585, 746.682 1096.123, 755.009 1101.661, 763.335 1107.199, 771.662 1112.737, 779.988 1118.275, 788.315 1123.812, 796.641 1129.350, 804.968 1134.888, 813.294 1140.426, 821.621 1145.964, 829.947 1151.502, 838.274 1157.040, 846.600 1162.578, 854.927 1168.116, 863.253 1173.654, 871.580 1179.192, 879.906 1184.730, 888.233 1190.268, 896.559 1195.806, 904.886 1201.344, 913.213 1206.882, 921.539 1212.420, 929.866 1217.958, 938.192 1223.496, 946.519 1229.034, 954.845 1234.572, 963.172 1240.110, 971.498 1245.648, 979.825 1251.186, 988.151 1256.724, 996.478 1262.262, 1004.804 1267.800, 1013.131 1273.338, 1021.457 1278.876, 1029.784 1284.414, 1038.110 1289.952, 1046.437 1295.490, 1054.763 1301.028, 1063.090 1306.846, 1071.837 " fill="none" stroke="rgb(0, 119, 0)" stroke-linecap="butt" stroke-linejoin="round" stroke-opacity="1.0" stroke-width="3.0" />
            <path d=" M 1047.839, 752.326 1038.971, 756.948 1030.103, 761.570 1021.236, 766.192 1012.368, 770.814 1003.500, 775.436 994.632, 780.058 985.765, 784.680 976.897, 789.302 968.029, 793.925 959.162, 798.547 950.294, 803.169 941.426, 807.791 932.558, 812.413 923.691, 817.035 914.823, 821.657 905.955, 826.279 897.088, 830.901 888.220, 835.523 879.352, 840.146 870.484, 844.768 861.617, 849.390 852.749, 854.012 843.881, 858.634 835.014, 863.256 826.146, 867.878 817.278, 872.500 808.411, 877.122 799.543, 881.744 790.675, 886.366 781.807, 890.989 772.940, 895.611 764.072, 900.233 755.204, 904.855 746.337, 909.477 735.939, 914.897 " fill="none" stroke="rgb(0, 119, 0)" stroke-linecap="butt" stroke-linejoin="round" stroke-opacity="1.0" stroke-width="3.0" />
            <path d=" M 1200.281, 996.121 1194.980, 987.642 1189.678, 979.163 1184.376, 970.684 1179.074, 962.205 1173.773, 953.727 1168.471, 945.248 1163.169, 936.769 1157.867, 928.290 1152.566, 919.811 1147.264, 911.332 1141.962, 902.853 1136.660, 894.374 1131.359, 885.896 1126.057, 877.417 1120.755, 868.938 1115.453, 860.459 1110.151, 851.980 1104.850, 843.501 1099.548, 835.022 1094.246, 826.543 1088.944, 818.065 1083.643, 809.586 1078.341, 801.107 1073.039, 792.628 1067.737, 784.149 1062.436, 775.670 1057.134, 767.191 1051.832, 758.712 1047.839, 752.326 1052.122, 761.362 1056.406, 770.398 1060.689, 779.434 1064.972, 788.470 1069.256, 797.507 1073.539, 806.543 1076.407, 812.592 " fill="none" stroke="rgb(0, 119, 0)" stroke-linecap="butt" stroke-linejoin="round" stroke-opacity="1.0" stroke-width="3.0" />
            <path d=" M 666.489, 945.470 675.355, 940.845 684.221, 936.220 693.087, 931.595 701.954, 926.970 710.820, 922.346 719.686, 917.721 728.553, 913.096 737.419, 908.471 746.285, 903.846 755.151, 899.221 764.018, 894.596 772.884, 889.972 781.750, 885.347 790.616, 880.722 799.483, 876.097 808.349, 871.472 817.215, 866.847 826.082, 862.223 834.948, 857.598 843.814, 852.973 852.680, 848.348 861.547, 843.723 870.413, 839.098 879.279, 834.473 888.145, 829.849 897.012, 825.224 905.878, 820.599 914.744, 815.974 923.611, 811.349 932.477, 806.724 941.343, 802.100 950.209, 797.475 959.076, 792.850 967.942, 788.225 976.808, 783.600 985.674, 778.975 994.541, 774.350 1003.407, 769.726 1012.273, 765.101 1021.140, 760.476 1030.006, 755.851 1038.872, 751.226 1047.738, 746.601 1056.605, 741.977 1065.471, 737.352 1074.337, 732.727 1079.509, 730.029 1075.392, 720.916 1071.276, 711.802 1067.160, 702.689 1065.938, 699.983 " fill="none" stroke="rgb(0, 119, 0)" stroke-linecap="butt" stroke-linejoin="round" stroke-opacity="1.0" stroke-width="3.0" />
            <path d=" M 635.422, 904.399 641.454, 912.374 647.487, 920.350 653.520, 928.325 659.553, 936.300 665.585, 944.276 666.489, 945.470 668.972, 955.156 671.456, 964.843 673.939, 974.530 676.423, 984.217 678.907, 993.903 681.390, 1003.590 683.874, 1013.277 686.357, 1022.963 688.841, 1032.650 691.325, 1042.337 693.808, 1052.023 696.292, 1061.710 698.775, 1071.397 701.259, 1081.083 703.743, 1090.770 706.226, 1100.457 708.710, 1110.143 711.193, 1119.830 713.677, 1129.517 716.161, 1139.203 718.644, 1148.890 721.128, 1158.577 723.611, 1168.263 726.095, 1177.950 728.579, 1187.637 731.062, 1197.323 733.546, 1207.010 736.029, 1216.697 738.513, 1226.384 740.997, 1236.070 743.480, 1245.757 745.964, 1255.444 748.447, 1265.130 750.931, 1274.817 753.415, 1284.504 755.898, 1294.190 758.382, 1303.877 760.865, 1313.564 763.349, 1323.250 766.827, 1336.816 " fill="none" stroke="rgb(0, 119, 0)" stroke-linecap="butt" stroke-linejoin="round" stroke-opacity="1.0" stroke-width="3.0" />
            <path d=" M 618.287, 1167.121 616.421, 1157.297 614.554, 1147.473 612.687, 1137.648 610.820, 1127.824 608.953, 1118.000 607.086, 1108.176 605.219, 1098.352 603.352, 1088.528 601.485, 1078.703 599.618, 1068.879 597.920, 1059.944 596.053, 1050.120 594.186, 1040.295 592.319, 1030.471 590.452, 1020.647 588.585, 1010.823 586.718, 1000.999 584.852, 991.174 582.985, 981.350 581.217, 972.050 579.350, 962.226 578.551, 958.019 577.184, 950.825 " fill="none" stroke="rgb(0, 119, 0)" stroke-linecap="butt" stroke-linejoin="round" stroke-opacity="1.0" stroke-width="3.0" />
            <path d=" M 675.855, 1072.289 669.550, 1064.528 663.245, 1056.766 662.109, 1055.368 655.804, 1047.606 649.499, 1039.844 643.193, 1032.083 641.140, 1029.554 634.834, 1021.793 628.529, 1014.031 622.224, 1006.269 615.919, 998.508 609.613, 990.746 603.308, 982.984 597.003, 975.222 590.698, 967.461 584.392, 959.699 578.626, 952.601 577.184, 950.825 574.034, 952.478 567.830, 955.732 569.281, 957.501 575.624, 965.232 581.217, 972.050 587.560, 979.781 593.902, 987.513 600.245, 995.244 606.587, 1002.975 612.930, 1010.707 619.272, 1018.438 625.615, 1026.169 631.957, 1033.900 636.844, 1039.857 643.186, 1047.588 649.529, 1055.319 655.871, 1063.050 662.214, 1070.782 667.122, 1076.764 675.855, 1072.289 " fill="none" stroke="rgb(0, 119, 0)" stroke-linecap="butt" stroke-linejoin="round" stroke-opacity="1.0" stroke-width="3.0" />
            <path d=" M 614.388, 1169.101 618.287, 1167.121 611.577, 1159.707 604.867, 1152.292 598.157, 1144.878 591.447, 1137.463 584.737, 1130.049 578.027, 1122.634 571.317, 1115.220 564.607, 1107.805 557.897, 1100.391 551.187, 1092.976 544.477, 1085.562 537.766, 1078.147 531.056, 1070.733 524.346, 1063.318 517.636, 1055.904 510.926, 1048.489 504.216, 1041.075 497.506, 1033.660 490.796, 1026.246 484.086, 1018.831 480.682, 1015.070 473.972, 1007.655 467.262, 1000.241 460.552, 992.826 459.712, 991.899 453.002, 984.484 452.006, 983.384 446.931, 977.776 " fill="none" stroke="rgb(0, 119, 0)" stroke-linecap="butt" stroke-linejoin="round" stroke-opacity="1.0" stroke-width="3.0" />
            <path d=" M 675.855, 1072.289 673.514, 1062.567 671.173, 1052.845 668.831, 1043.123 666.490, 1033.401 664.148, 1023.679 661.807, 1013.957 659.466, 1004.235 657.124, 994.513 654.783, 984.791 652.441, 975.069 650.100, 965.347 647.759, 955.625 645.417, 945.903 643.076, 936.181 640.734, 926.459 638.393, 916.737 636.052, 907.015 635.422, 904.399 644.273, 899.746 653.125, 895.093 661.976, 890.440 670.828, 885.787 679.680, 881.135 688.531, 876.482 697.383, 871.829 706.234, 867.176 715.086, 862.523 723.938, 857.870 732.789, 853.217 733.811, 852.680 " fill="none" stroke="rgb(0, 119, 0)" stroke-linecap="butt" stroke-linejoin="round" stroke-opacity="1.0" stroke-width="3.0" />
            <path d=" M 908.162, 350.678 904.046, 341.565 902.533, 338.215 " fill="none" stroke="rgb(0, 119, 0)" stroke-linecap="butt" stroke-linejoin="round" stroke-opacity="1.0" stroke-width="3.0" />
            <path d=" M 744.518, 868.458 753.376, 863.815 762.233, 859.173 771.090, 854.530 779.947, 849.888 788.804, 845.245 797.661, 840.603 806.518, 835.960 815.375, 831.318 824.232, 826.675 833.089, 822.033 841.946, 817.390 850.803, 812.748 859.660, 808.105 868.517, 803.463 877.374, 798.820 886.231, 794.178 895.088, 789.535 903.945, 784.893 912.802, 780.250 921.659, 775.608 930.516, 770.965 939.374, 766.323 948.231, 761.680 957.088, 757.038 965.945, 752.396 974.802, 747.753 983.659, 743.111 992.516, 738.468 1001.373, 733.826 1010.230, 729.183 1019.087, 724.541 1027.944, 719.898 1036.801, 715.256 1045.658, 710.613 1054.515, 705.971 1065.938, 699.983 1071.509, 708.288 1077.080, 716.592 1082.651, 724.897 1088.222, 733.201 1093.793, 741.506 1099.364, 749.810 1104.935, 758.114 1110.506, 766.419 1116.077, 774.723 1121.648, 783.028 1127.219, 791.332 1132.790, 799.637 1138.361, 807.941 1143.932, 816.246 1149.503, 824.550 1155.074, 832.854 1160.645, 841.159 1166.216, 849.463 1171.787, 857.768 1177.358, 866.072 1182.929, 874.377 1185.816, 878.680 " fill="none" stroke="rgb(0, 119, 0)" stroke-linecap="butt" stroke-linejoin="round" stroke-opacity="1.0" stroke-width="3.0" />
            <path d=" M 746.995, 359.357 744.867, 360.547 736.141, 365.431 730.134, 368.792 730.066, 368.830 729.324, 369.245 728.949, 369.455 720.222, 374.339 711.496, 379.222 702.769, 384.106 694.043, 388.989 685.316, 393.873 676.590, 398.756 667.863, 403.640 659.137, 408.523 650.410, 413.407 641.684, 418.290 632.957, 423.174 624.231, 428.057 615.504, 432.941 606.778, 437.824 598.051, 442.708 589.325, 447.591 580.598, 452.475 571.872, 457.358 563.145, 462.242 554.419, 467.125 545.692, 472.009 536.966, 476.892 528.239, 481.776 518.167, 487.412 520.336, 497.174 522.505, 506.936 524.674, 516.698 526.843, 526.460 529.012, 536.222 530.856, 544.520 533.025, 554.282 533.859, 558.037 542.607, 553.191 551.354, 548.345 556.650, 545.411 565.397, 540.566 574.144, 535.720 582.892, 530.874 591.639, 526.028 600.387, 521.182 609.134, 516.336 617.881, 511.490 626.629, 506.644 635.376, 501.798 644.124, 496.952 652.871, 492.106 661.618, 487.260 670.366, 482.414 679.113, 477.568 687.860, 472.722 696.608, 467.876 705.355, 463.031 714.103, 458.185 722.850, 453.339 731.597, 448.493 740.345, 443.647 749.092, 438.801 757.840, 433.955 761.645, 431.847 762.051, 431.622 763.264, 430.950 763.331, 430.912 772.079, 426.067 777.690, 422.958 777.913, 422.834 778.141, 422.708 781.171, 421.029 789.919, 416.183 798.666, 411.338 807.413, 406.492 816.161, 401.646 824.908, 396.800 833.656, 391.954 842.403, 387.108 847.251, 384.422 848.931, 383.492 857.678, 378.646 866.425, 373.800 875.173, 368.954 883.920, 364.108 892.668, 359.262 901.415, 354.416 908.162, 350.678 914.267, 358.599 920.371, 366.519 926.476, 374.439 932.581, 382.360 938.685, 390.280 944.790, 398.201 950.895, 406.121 956.999, 414.042 963.104, 421.962 969.209, 429.882 975.313, 437.803 981.418, 445.723 987.522, 453.644 993.627, 461.564 999.732, 469.485 1005.836, 477.405 1011.941, 485.326 1018.046, 493.246 1022.006, 498.384 1023.336, 500.110 1027.280, 509.299 1031.224, 518.489 1035.168, 527.678 1039.112, 536.868 1043.056, 546.057 1047.000, 555.246 1050.944, 564.436 1054.888, 573.625 1058.832, 582.814 1062.776, 592.004 1066.720, 601.193 1068.362, 605.017 1072.306, 614.207 1076.250, 623.396 1080.194, 632.586 1084.138, 641.775 1087.127, 648.741 1091.072, 657.930 1095.016, 667.120 1098.960, 676.309 1102.904, 685.498 1106.848, 694.688 1110.792, 703.877 1114.736, 713.066 1118.680, 722.256 1122.624, 731.445 1126.568, 740.635 1130.512, 749.824 1134.456, 759.013 1138.400, 768.203 1142.344, 777.392 1146.288, 786.581 1150.232, 795.771 1154.176, 804.960 1158.120, 814.150 1162.064, 823.339 1166.008, 832.528 1169.952, 841.718 1173.896, 850.907 1177.840, 860.096 1181.784, 869.286 1185.816, 878.680 1194.732, 874.152 1203.648, 869.624 1212.565, 865.097 1221.392, 860.614 " fill="none" stroke="rgb(0, 119, 0)" stroke-linecap="butt" stroke-linejoin="round" stroke-opacity="1.0" stroke-width="3.0" />
            <path d=" M 730.500, 842.593 733.619, 852.094 733.811, 852.680 739.427, 860.955 744.518, 868.458 741.363, 858.969 738.208, 849.480 735.052, 839.991 731.897, 830.501 728.741, 821.012 725.586, 811.523 722.430, 802.034 719.275, 792.545 717.918, 788.466 " fill="none" stroke="rgb(0, 119, 0)" stroke-linecap="butt" stroke-linejoin="round" stroke-opacity="1.0" stroke-width="3.0" />
            <path d=" M 773.773, 968.781 782.659, 964.194 791.545, 959.608 800.432, 955.022 809.318, 950.436 818.204, 945.849 827.091, 941.263 835.977, 936.677 844.863, 932.091 853.750, 927.505 862.636, 922.918 871.522, 918.332 880.408, 913.746 889.295, 909.160 898.181, 904.574 907.067, 899.987 915.954, 895.401 924.840, 890.815 933.726, 886.229 942.613, 881.643 951.499, 877.056 960.385, 872.470 969.272, 867.884 978.158, 863.298 987.044, 858.711 995.931, 854.125 1004.817, 849.539 1013.703, 844.953 1022.590, 840.367 1031.476, 835.780 1040.362, 831.194 1049.249, 826.608 1058.135, 822.022 1067.021, 817.436 1076.407, 812.592 1081.663, 821.099 1086.919, 829.606 1092.176, 838.113 1097.432, 846.620 1102.688, 855.127 1107.944, 863.635 1113.201, 872.142 1118.457, 880.649 1123.713, 889.156 1128.970, 897.663 1134.226, 906.170 1139.482, 914.677 1144.739, 923.185 1149.995, 931.692 1155.251, 940.199 1160.507, 948.706 1165.764, 957.213 1171.020, 965.720 1176.276, 974.227 1181.532, 982.735 1186.789, 991.242 1192.274, 1000.119 1197.530, 1008.626 1202.787, 1017.134 1208.043, 1025.641 1213.299, 1034.148 1218.556, 1042.655 1223.812, 1051.162 1228.676, 1059.034 " fill="none" stroke="rgb(0, 119, 0)" stroke-linecap="butt" stroke-linejoin="round" stroke-opacity="1.0" stroke-width="3.0" />
            <path d=" M 863.059, 1239.700 872.024, 1235.270 880.989, 1230.840 889.955, 1226.410 898.920, 1221.980 907.885, 1217.550 916.850, 1213.120 925.815, 1208.690 934.781, 1204.260 943.746, 1199.830 952.711, 1195.400 961.676, 1190.970 970.641, 1186.539 979.606, 1182.109 988.572, 1177.679 997.537, 1173.249 1006.502, 1168.819 1015.467, 1164.389 1024.432, 1159.959 1033.397, 1155.529 1042.363, 1151.099 1051.328, 1146.669 1060.293, 1142.239 1069.258, 1137.809 1078.223, 1133.379 1087.189, 1128.949 1096.154, 1124.519 1105.119, 1120.088 1114.084, 1115.658 1123.049, 1111.228 1132.015, 1106.798 1140.980, 1102.368 1149.945, 1097.938 1158.910, 1093.508 1167.875, 1089.078 1176.840, 1084.648 1185.806, 1080.218 1194.771, 1075.788 1203.736, 1071.358 1212.701, 1066.928 1221.666, 1062.498 1228.676, 1059.034 1224.562, 1049.919 1220.448, 1040.805 1216.335, 1031.690 1212.221, 1022.575 1208.107, 1013.461 1203.994, 1004.346 1200.281, 996.121 1192.274, 1000.119 1183.327, 1004.587 1174.381, 1009.054 1165.434, 1013.522 1156.488, 1017.989 1147.541, 1022.457 1138.594, 1026.924 1129.648, 1031.392 1120.701, 1035.859 1111.755, 1040.327 1102.808, 1044.794 1093.861, 1049.262 1084.915, 1053.729 1075.968, 1058.197 1067.022, 1062.664 1058.075, 1067.131 1049.128, 1071.599 1040.182, 1076.066 1031.235, 1080.534 1022.289, 1085.001 1013.342, 1089.469 1004.395, 1093.936 995.449, 1098.404 986.502, 1102.871 977.556, 1107.339 968.609, 1111.806 959.662, 1116.274 950.716, 1120.741 941.769, 1125.209 932.823, 1129.676 923.876, 1134.144 914.929, 1138.611 905.983, 1143.079 897.036, 1147.546 888.090, 1152.013 879.143, 1156.481 870.196, 1160.948 861.250, 1165.416 852.303, 1169.883 841.781, 1175.138 832.835, 1179.605 823.888, 1184.072 821.037, 1185.496 827.164, 1193.399 833.291, 1201.303 839.418, 1209.206 845.545, 1217.109 851.672, 1225.012 857.799, 1232.915 863.059, 1239.700 " fill="none" stroke="rgb(0, 119, 0)" stroke-linecap="butt" stroke-linejoin="round" stroke-opacity="1.0" stroke-width="3.0" />
            <path d=" M 863.059, 1239.700 859.929, 1230.203 856.799, 1220.705 853.669, 1211.208 850.539, 1201.710 847.409, 1192.213 844.279, 1182.715 841.781, 1175.138 838.651, 1165.640 835.521, 1156.142 832.391, 1146.645 829.261, 1137.147 826.131, 1127.650 823.001, 1118.152 819.871, 1108.655 816.741, 1099.157 813.611, 1089.660 810.481, 1080.162 807.350, 1070.665 804.220, 1061.167 801.090, 1051.670 797.960, 1042.172 794.830, 1032.675 791.700, 1023.177 788.570, 1013.680 785.440, 1004.182 782.310, 994.685 779.180, 985.187 776.050, 975.690 773.773, 968.781 768.026, 960.596 762.280, 952.412 756.534, 944.228 750.787, 936.044 745.041, 927.860 739.294, 919.676 735.939, 914.897 738.939, 924.436 741.939, 933.975 744.939, 943.515 747.939, 953.054 750.938, 962.594 753.938, 972.133 756.938, 981.672 759.938, 991.212 762.938, 1000.751 765.938, 1010.291 768.938, 1019.830 771.938, 1029.369 774.938, 1038.909 777.938, 1048.448 780.938, 1057.988 783.938, 1067.527 786.938, 1077.067 789.938, 1086.606 792.938, 1096.145 795.938, 1105.685 798.938, 1115.224 801.938, 1124.764 804.938, 1134.303 807.938, 1143.842 810.938, 1153.382 813.938, 1162.921 816.937, 1172.461 819.937, 1182.000 821.037, 1185.496 " fill="none" stroke="rgb(0, 119, 0)" stroke-linecap="butt" stroke-linejoin="round" stroke-opacity="1.0" stroke-width="3.0" />
            <path d=" M 1067.016, 603.189 1068.362, 605.017 1074.287, 613.073 1080.213, 621.128 1086.139, 629.183 1092.065, 637.238 1097.990, 645.293 1103.916, 653.349 1109.842, 661.404 1115.767, 669.459 1121.693, 677.514 1127.619, 685.569 1133.545, 693.624 1139.470, 701.680 1145.396, 709.735 1151.322, 717.790 1157.247, 725.845 1163.173, 733.900 1169.099, 741.955 1175.025, 750.011 1178.626, 754.906 1184.552, 762.961 1190.477, 771.016 1196.403, 779.072 1202.329, 787.127 1208.254, 795.182 1214.180, 803.237 1220.106, 811.292 1226.031, 819.347 1231.957, 827.403 1237.883, 835.458 1243.809, 843.513 1246.871, 847.676 " fill="none" stroke="rgb(0, 119, 0)" stroke-linecap="butt" stroke-linejoin="round" stroke-opacity="1.0" stroke-width="3.0" />
            <path d=" M 518.167, 487.412 523.695, 495.745 529.224, 504.078 534.753, 512.410 540.282, 520.743 545.811, 529.076 549.275, 534.296 554.803, 542.629 556.650, 545.411 560.235, 550.815 565.763, 559.147 571.292, 567.480 576.821, 575.812 582.350, 584.145 587.879, 592.478 593.407, 600.810 598.936, 609.143 604.465, 617.476 609.994, 625.808 615.522, 634.141 621.051, 642.474 626.580, 650.806 632.109, 659.139 637.638, 667.471 643.166, 675.804 648.695, 684.137 654.224, 692.469 659.753, 700.802 665.281, 709.135 670.810, 717.467 676.339, 725.800 681.868, 734.132 687.396, 742.465 692.925, 750.798 698.454, 759.130 703.983, 767.463 709.512, 775.796 715.040, 784.128 717.918, 788.466 726.751, 783.778 735.585, 779.090 744.418, 774.402 753.251, 769.714 762.084, 765.026 770.917, 760.338 779.750, 755.650 788.583, 750.962 797.416, 746.274 806.249, 741.586 815.082, 736.898 823.915, 732.210 832.748, 727.522 841.581, 722.834 850.414, 718.146 859.247, 713.458 868.080, 708.770 876.913, 704.082 885.747, 699.394 894.580, 694.706 903.413, 690.018 912.246, 685.330 919.155, 681.663 919.237, 681.620 928.070, 676.932 936.903, 672.244 945.736, 667.556 954.569, 662.868 963.402, 658.180 972.235, 653.492 981.068, 648.804 989.901, 644.116 998.734, 639.428 1007.568, 634.740 1016.401, 630.052 1025.234, 625.364 1034.067, 620.676 1042.900, 615.988 1051.733, 611.300 1060.566, 606.612 1067.016, 603.189 1063.070, 594.000 1059.124, 584.812 1055.178, 575.623 1051.232, 566.435 1047.286, 557.247 1043.339, 548.058 1039.393, 538.870 1035.447, 529.681 1031.501, 520.493 1027.555, 511.304 1023.609, 502.116 1022.006, 498.384 1018.060, 489.196 1016.031, 484.472 1012.085, 475.284 1008.139, 466.095 1004.193, 456.907 1000.246, 447.718 996.300, 438.530 992.354, 429.341 988.408, 420.153 984.462, 410.964 980.515, 401.776 976.569, 392.588 972.623, 383.399 968.677, 374.211 964.731, 365.022 960.785, 355.834 956.838, 346.645 952.892, 337.457 948.946, 328.268 945.000, 319.080 941.054, 309.891 937.107, 300.703 933.161, 291.515 929.215, 282.326 925.269, 273.138 920.579, 262.216 " fill="none" stroke="rgb(0, 119, 0)" stroke-linecap="butt" stroke-linejoin="round" stroke-opacity="1.0" stroke-width="3.0" />
            <path d=" M 841.391, 372.153 841.312, 372.197 832.569, 377.050 823.825, 381.903 815.082, 386.756 806.339, 391.609 797.595, 396.462 788.852, 401.316 780.108, 406.169 774.623, 409.213 771.637, 410.871 771.626, 410.877 771.402, 411.001 762.659, 415.854 756.971, 419.011 756.904, 419.049 755.781, 419.672 755.381, 419.894 746.638, 424.747 737.894, 429.600 729.151, 434.453 720.407, 439.307 711.664, 444.160 702.921, 449.013 694.177, 453.866 685.434, 458.719 676.690, 463.572 667.947, 468.425 659.204, 473.279 650.460, 478.132 641.717, 482.985 632.973, 487.838 624.230, 492.691 615.487, 497.544 606.743, 502.397 598.000, 507.251 589.256, 512.104 580.513, 516.957 571.770, 521.810 563.026, 526.663 554.283, 531.516 549.275, 534.296 540.531, 539.149 531.788, 544.003 530.856, 544.520 522.113, 549.373 513.369, 554.226 504.626, 559.079 503.936, 559.462 503.251, 559.842 508.953, 568.057 514.539, 576.106 520.241, 584.321 525.943, 592.536 531.645, 600.751 533.899, 603.999 539.601, 612.214 545.303, 620.429 551.005, 628.644 556.707, 636.859 562.408, 645.074 568.110, 653.289 573.812, 661.505 579.514, 669.720 585.216, 677.935 586.569, 679.884 590.934, 686.173 592.079, 687.823 600.869, 683.054 609.659, 678.285 613.901, 675.984 611.310, 666.441 608.472, 667.983 599.685, 672.757 590.898, 677.531 587.218, 679.531 586.569, 679.884 577.782, 684.658 568.995, 689.432 560.208, 694.206 551.421, 698.980 542.635, 703.754 533.848, 708.528 525.061, 713.302 516.274, 718.076 507.487, 722.850 498.700, 727.624 496.672, 728.727 497.913, 736.657 501.299, 734.819 510.088, 730.049 518.878, 725.279 527.667, 720.509 536.456, 715.739 545.245, 710.969 554.034, 706.199 562.823, 701.430 571.612, 696.660 580.401, 691.890 589.190, 687.120 590.934, 686.173 591.581, 685.822 587.218, 679.531 581.518, 671.314 575.819, 663.097 570.120, 654.880 564.420, 646.663 558.721, 638.447 553.022, 630.230 547.322, 622.013 541.623, 613.796 535.924, 605.579 534.571, 603.629 528.871, 595.412 523.172, 587.195 517.473, 578.978 515.219, 575.729 509.520, 567.512 503.936, 559.462 498.237, 551.245 492.537, 543.028 486.838, 534.811 481.139, 526.594 475.439, 518.377 469.740, 510.161 464.041, 501.944 458.341, 493.727 456.209, 490.653 447.491, 495.552 438.773, 500.450 430.055, 505.348 421.337, 510.247 412.619, 515.145 403.901, 520.044 395.182, 524.942 386.464, 529.840 377.746, 534.739 369.028, 539.637 360.310, 544.535 351.592, 549.434 342.873, 554.332 334.155, 559.230 325.437, 564.129 316.719, 569.027 308.001, 573.925 299.283, 578.824 290.565, 583.722 281.846, 588.620 273.128, 593.519 264.410, 598.417 255.692, 603.315 253.289, 604.665 244.571, 609.564 235.853, 614.462 227.135, 619.360 218.417, 624.259 209.699, 629.157 200.981, 634.055 192.262, 638.954 183.544, 643.852 182.153, 644.634 180.887, 654.553 179.621, 664.473 178.354, 674.392 177.088, 684.312 175.822, 694.231 174.556, 704.151 173.289, 714.070 172.023, 723.990 170.757, 733.909 169.491, 743.829 168.224, 753.748 166.958, 763.668 165.692, 773.587 164.426, 783.507 163.160, 793.426 161.893, 803.346 161.134, 809.291 159.868, 819.210 158.602, 829.130 157.372, 838.768 164.432, 845.850 171.492, 852.932 178.552, 860.014 185.612, 867.096 192.673, 874.177 199.733, 881.259 206.793, 888.341 213.853, 895.423 220.913, 902.505 227.973, 909.587 235.034, 916.669 242.094, 923.751 249.154, 930.833 256.214, 937.915 263.274, 944.997 270.335, 952.079 277.395, 959.161 284.455, 966.243 291.515, 973.325 298.575, 980.407 305.635, 987.489 312.696, 994.570 319.756, 1001.652 326.816, 1008.734 333.876, 1015.816 340.936, 1022.898 347.996, 1029.980 355.057, 1037.062 362.117, 1044.144 371.095, 1053.150 379.949, 1048.502 388.803, 1043.854 397.657, 1039.206 406.511, 1034.558 415.366, 1029.910 424.220, 1025.262 433.074, 1020.614 441.928, 1015.966 450.782, 1011.318 459.636, 1006.670 461.126, 1005.888 454.387, 998.499 447.649, 991.110 440.911, 983.721 434.172, 976.333 427.434, 968.944 420.696, 961.555 413.957, 954.166 407.219, 946.777 400.481, 939.389 393.742, 932.000 387.004, 924.611 380.266, 917.222 373.527, 909.833 366.789, 902.444 365.546, 901.082 358.808, 893.693 352.070, 886.304 345.331, 878.915 338.593, 871.526 331.855, 864.138 325.116, 856.749 318.378, 849.360 311.639, 841.971 304.901, 834.582 298.163, 827.193 291.424, 819.805 284.686, 812.416 277.948, 805.027 271.209, 797.638 264.471, 790.249 258.241, 783.418 258.734, 773.430 259.228, 763.442 259.643, 755.039 260.137, 745.051 260.631, 735.063 260.719, 733.268 261.213, 723.280 261.706, 713.292 262.200, 703.304 262.694, 693.317 263.187, 683.329 263.681, 673.341 264.175, 663.353 264.668, 653.365 265.162, 643.378 265.655, 633.390 266.149, 623.402 266.303, 620.278 275.028, 615.391 283.752, 610.503 292.476, 605.616 301.201, 600.729 309.925, 595.841 318.649, 590.954 327.374, 586.067 336.098, 581.179 344.822, 576.292 353.547, 571.405 362.271, 566.517 370.995, 561.630 379.720, 556.742 388.444, 551.855 397.168, 546.968 405.893, 542.080 414.617, 537.193 423.341, 532.306 432.065, 527.418 440.790, 522.531 449.514, 517.644 459.485, 512.058 465.215, 520.254 470.945, 528.449 476.674, 536.645 482.404, 544.841 488.134, 553.037 493.863, 561.232 499.593, 569.428 505.323, 577.624 507.129, 580.207 514.539, 576.106 515.219, 575.729 523.969, 570.887 532.718, 566.044 537.498, 563.399 546.247, 558.556 554.997, 553.714 560.235, 550.815 568.984, 545.972 577.733, 541.130 586.483, 536.287 595.232, 531.445 603.981, 526.602 612.731, 521.760 621.480, 516.918 630.229, 512.075 638.979, 507.233 647.728, 502.390 656.477, 497.548 665.227, 492.705 673.976, 487.863 682.725, 483.020 691.475, 478.178 700.224, 473.336 708.973, 468.493 717.723, 463.651 726.472, 458.808 735.221, 453.966 743.971, 449.123 752.720, 444.281 761.469, 439.438 764.689, 437.656 765.098, 437.430 766.356, 436.734 766.422, 436.697 763.331, 430.912 758.618, 422.093 756.971, 419.011 752.258, 410.192 747.545, 401.372 742.832, 392.552 738.119, 383.733 733.405, 374.913 730.134, 368.792 725.421, 359.972 720.708, 351.153 715.995, 342.333 711.282, 333.513 706.568, 324.694 701.855, 315.874 697.142, 307.055 692.429, 298.235 687.716, 289.415 683.003, 280.596 678.289, 271.776 677.638, 270.558 " fill="none" stroke="rgb(0, 119, 0)" stroke-linecap="butt" stroke-linejoin="round" stroke-opacity="1.0" stroke-width="3.0" />
            <path d=" M 613.901, 675.984 608.472, 667.983 602.856, 659.709 597.241, 651.434 591.626, 643.160 586.010, 634.885 580.395, 626.611 574.780, 618.336 569.164, 610.061 563.549, 601.787 557.934, 593.512 552.319, 585.238 546.703, 576.963 541.088, 568.689 537.498, 563.399 533.859, 558.037 " fill="none" stroke="rgb(0, 119, 0)" stroke-linecap="butt" stroke-linejoin="round" stroke-opacity="1.0" stroke-width="3.0" />
            <path d=" M 625.246, 898.007 634.094, 893.349 642.943, 888.690 651.791, 884.031 660.640, 879.373 669.489, 874.714 678.337, 870.056 687.186, 865.397 696.034, 860.738 704.883, 856.080 713.731, 851.421 722.580, 846.763 730.500, 842.593 724.896, 834.311 719.292, 826.028 713.688, 817.746 708.084, 809.464 702.480, 801.182 696.876, 792.900 691.272, 784.617 685.668, 776.335 680.064, 768.053 674.460, 759.771 668.856, 751.489 663.252, 743.206 657.648, 734.924 652.044, 726.642 646.440, 718.360 640.836, 710.078 635.232, 701.795 629.628, 693.513 624.024, 685.231 618.420, 676.949 612.816, 668.667 611.310, 666.441 " fill="none" stroke="rgb(0, 119, 0)" stroke-linecap="butt" stroke-linejoin="round" stroke-opacity="1.0" stroke-width="3.0" />
            <path d=" M 1023.336, 500.110 1026.741, 498.273 " fill="none" stroke="rgb(0, 119, 0)" stroke-linecap="butt" stroke-linejoin="round" stroke-opacity="1.0" stroke-width="3.0" />
            <path d=" M 540.621, 972.529 542.208, 982.403 543.795, 992.276 545.382, 1002.149 546.969, 1012.022 548.556, 1021.896 550.143, 1031.769 551.729, 1041.642 553.316, 1051.516 554.903, 1061.389 556.490, 1071.262 557.984, 1080.554 " fill="none" stroke="rgb(0, 119, 0)" stroke-linecap="butt" stroke-linejoin="round" stroke-opacity="1.0" stroke-width="3.0" />
            <path d=" M 473.079, 985.506 477.929, 990.935 484.591, 998.393 491.253, 1005.851 497.915, 1013.309 504.577, 1020.766 511.239, 1028.224 517.901, 1035.682 524.563, 1043.140 531.224, 1050.598 537.886, 1058.055 544.548, 1065.513 551.210, 1072.971 557.984, 1080.554 566.870, 1075.968 575.756, 1071.382 584.643, 1066.796 593.529, 1062.210 597.920, 1059.944 606.807, 1055.358 615.693, 1050.772 624.579, 1046.186 633.466, 1041.600 636.844, 1039.857 642.763, 1036.802 636.445, 1029.051 630.127, 1021.299 623.809, 1013.548 617.491, 1005.796 611.173, 998.045 604.856, 990.293 598.538, 982.542 592.220, 974.790 585.902, 967.039 579.584, 959.287 578.551, 958.019 575.480, 954.251 574.034, 952.478 567.716, 944.726 565.274, 941.730 556.423, 946.383 547.571, 951.035 538.719, 955.688 530.180, 960.176 521.328, 964.829 512.477, 969.482 503.625, 974.134 494.773, 978.787 485.921, 983.440 477.575, 987.827 474.730, 984.637 473.863, 976.913 472.719, 975.625 471.877, 974.676 470.810, 973.476 465.794, 967.827 459.153, 960.350 456.188, 957.011 455.233, 957.516 456.367, 958.792 463.012, 966.266 464.844, 968.328 469.864, 973.974 472.075, 976.461 472.919, 977.410 472.719, 975.625 472.387, 972.645 471.513, 964.810 470.404, 954.872 469.295, 944.933 468.187, 934.995 467.078, 925.057 465.969, 915.118 464.860, 905.180 463.752, 895.242 462.643, 885.303 461.996, 879.509 461.854, 878.229 461.206, 878.575 462.310, 888.514 463.413, 898.453 464.517, 908.391 465.621, 918.330 466.724, 928.269 467.828, 938.208 468.931, 948.147 470.035, 958.086 470.822, 965.174 471.692, 973.011 471.877, 974.676 472.075, 976.461 473.079, 985.506 " fill="none" stroke="rgb(0, 119, 0)" stroke-linecap="butt" stroke-linejoin="round" stroke-opacity="1.0" stroke-width="3.0" />
            <path d=" M 461.206, 878.575 461.996, 879.509 468.452, 887.147 474.907, 894.784 481.363, 902.421 487.818, 910.059 494.273, 917.696 500.729, 925.333 507.184, 932.970 513.640, 940.608 520.095, 948.245 526.550, 955.882 530.180, 960.176 536.635, 967.814 540.621, 972.529 549.478, 967.885 558.334, 963.241 567.190, 958.598 569.281, 957.501 575.480, 954.251 578.626, 952.601 587.483, 947.957 596.339, 943.313 605.195, 938.669 614.051, 934.026 619.149, 931.353 " fill="none" stroke="rgb(0, 119, 0)" stroke-linecap="butt" stroke-linejoin="round" stroke-opacity="1.0" stroke-width="3.0" />
            <path d=" M 473.079, 985.506 474.730, 984.637 " fill="none" stroke="rgb(0, 119, 0)" stroke-linecap="butt" stroke-linejoin="round" stroke-opacity="1.0" stroke-width="3.0" />
            <path d=" M 473.863, 976.913 472.919, 977.410 " fill="none" stroke="rgb(0, 119, 0)" stroke-linecap="butt" stroke-linejoin="round" stroke-opacity="1.0" stroke-width="3.0" />
            <path d=" M 511.192, 936.638 520.035, 931.968 528.878, 927.299 537.721, 922.630 546.564, 917.961 555.407, 913.292 564.250, 908.623 573.093, 903.954 581.936, 899.285 590.625, 894.697 " fill="none" stroke="rgb(0, 119, 0)" stroke-linecap="butt" stroke-linejoin="round" stroke-opacity="1.0" stroke-width="3.0" />
            <path d=" M 583.763, 861.776 585.804, 871.566 587.844, 881.355 589.885, 891.145 590.625, 894.697 596.766, 902.589 602.908, 910.481 609.049, 918.373 615.190, 926.265 619.149, 931.353 621.334, 941.111 623.519, 950.869 625.704, 960.628 627.890, 970.386 630.075, 980.144 632.260, 989.903 634.445, 999.661 636.631, 1009.419 638.816, 1019.178 641.140, 1029.554 642.763, 1036.802 " fill="none" stroke="rgb(0, 119, 0)" stroke-linecap="butt" stroke-linejoin="round" stroke-opacity="1.0" stroke-width="3.0" />
            <path d=" M 461.854, 878.229 468.307, 885.868 474.760, 893.508 481.213, 901.147 487.666, 908.786 494.119, 916.426 500.572, 924.065 507.025, 931.704 511.192, 936.638 509.774, 926.739 508.356, 916.840 506.938, 906.941 506.352, 902.849 " fill="none" stroke="rgb(0, 119, 0)" stroke-linecap="butt" stroke-linejoin="round" stroke-opacity="1.0" stroke-width="3.0" />
            <path d=" M 363.661, 849.401 364.025, 859.394 364.390, 869.387 364.754, 879.381 365.119, 889.374 365.484, 899.367 365.546, 901.082 365.911, 911.075 366.276, 921.068 366.640, 931.062 367.005, 941.055 367.369, 951.049 367.734, 961.042 368.099, 971.035 368.463, 981.029 368.828, 991.022 369.193, 1001.015 369.557, 1011.009 369.922, 1021.002 370.286, 1030.995 370.651, 1040.989 371.016, 1050.982 371.095, 1053.150 " fill="none" stroke="rgb(0, 119, 0)" stroke-linecap="butt" stroke-linejoin="round" stroke-opacity="1.0" stroke-width="3.0" />
            <path d=" M 182.153, 644.634 188.786, 652.117 195.420, 659.600 202.053, 667.084 208.686, 674.567 215.319, 682.050 221.953, 689.533 228.586, 697.017 235.219, 704.500 241.852, 711.983 248.486, 719.467 255.119, 726.950 260.719, 733.268 267.353, 740.751 273.986, 748.234 280.619, 755.718 287.252, 763.201 293.886, 770.684 300.519, 778.168 307.152, 785.651 313.785, 793.134 320.419, 800.617 327.052, 808.101 333.685, 815.584 340.319, 823.067 346.952, 830.551 353.585, 838.034 360.218, 845.517 363.661, 849.401 372.460, 844.650 381.260, 839.900 390.059, 835.149 398.859, 830.399 407.659, 825.648 416.458, 820.898 425.258, 816.147 434.057, 811.397 442.857, 806.646 451.657, 801.896 460.456, 797.146 469.256, 792.395 478.056, 787.645 486.855, 782.894 495.655, 778.144 504.454, 773.393 513.254, 768.643 519.656, 765.187 " fill="none" stroke="rgb(0, 119, 0)" stroke-linecap="butt" stroke-linejoin="round" stroke-opacity="1.0" stroke-width="3.0" />
            <path d=" M 157.372, 838.768 166.139, 833.957 174.905, 829.146 183.672, 824.336 192.439, 819.525 201.206, 814.714 209.973, 809.904 218.740, 805.093 227.506, 800.282 236.273, 795.472 245.040, 790.661 253.807, 785.851 258.241, 783.418 " fill="none" stroke="rgb(0, 119, 0)" stroke-linecap="butt" stroke-linejoin="round" stroke-opacity="1.0" stroke-width="3.0" />
            <path d=" M 459.485, 512.058 457.972, 502.173 456.460, 492.288 456.209, 490.653 " fill="none" stroke="rgb(0, 119, 0)" stroke-linecap="butt" stroke-linejoin="round" stroke-opacity="1.0" stroke-width="3.0" />
            <path d=" M 592.079, 687.823 591.581, 685.822 " fill="none" stroke="rgb(0, 119, 0)" stroke-linecap="butt" stroke-linejoin="round" stroke-opacity="1.0" stroke-width="3.0" />
            <path d=" M 507.129, 580.207 505.258, 570.383 503.388, 560.560 503.251, 559.842 " fill="none" stroke="rgb(0, 119, 0)" stroke-linecap="butt" stroke-linejoin="round" stroke-opacity="1.0" stroke-width="3.0" />
            <path d=" M 497.913, 736.657 503.975, 744.610 510.036, 752.564 516.097, 760.518 519.656, 765.187 521.343, 775.044 522.533, 781.994 " fill="none" stroke="rgb(0, 119, 0)" stroke-linecap="butt" stroke-linejoin="round" stroke-opacity="1.0" stroke-width="3.0" />
            <path d=" M 677.567, 270.598 682.280, 279.418 686.994, 288.237 691.707, 297.057 696.421, 305.876 701.134, 314.696 705.848, 323.515 710.561, 332.335 715.274, 341.154 719.988, 349.974 724.701, 358.793 729.415, 367.613 730.066, 368.830 734.779, 377.650 739.492, 386.469 744.206, 395.289 748.919, 404.108 753.633, 412.928 756.904, 419.049 761.617, 427.868 763.264, 430.950 766.356, 436.734 771.069, 445.553 772.299, 447.854 781.052, 443.019 786.622, 439.941 791.430, 448.710 793.582, 452.635 794.350, 452.211 797.491, 450.479 806.249, 445.651 815.006, 440.823 823.763, 435.995 832.521, 431.167 841.278, 426.339 850.035, 421.511 858.793, 416.683 862.049, 414.888 867.532, 423.251 873.015, 431.614 878.498, 439.977 883.981, 448.339 889.464, 456.702 894.947, 465.065 900.430, 473.428 905.913, 481.791 911.396, 490.153 916.879, 498.516 922.362, 506.879 924.565, 510.239 930.048, 518.602 935.531, 526.965 941.014, 535.328 946.497, 543.690 951.980, 552.053 953.460, 554.310 " fill="none" stroke="rgb(0, 119, 0)" stroke-linecap="butt" stroke-linejoin="round" stroke-opacity="1.0" stroke-width="3.0" />
            <path d=" M 862.049, 414.888 857.680, 405.893 853.311, 396.898 848.941, 387.903 847.251, 384.422 842.881, 375.427 841.312, 372.197 841.020, 371.596 " fill="none" stroke="rgb(0, 119, 0)" stroke-linecap="butt" stroke-linejoin="round" stroke-opacity="1.0" stroke-width="3.0" />
            <path d=" M 772.299, 447.854 767.639, 439.007 766.422, 436.697 " fill="none" stroke="rgb(0, 119, 0)" stroke-linecap="butt" stroke-linejoin="round" stroke-opacity="1.0" stroke-width="3.0" />
            <path d=" M 567.830, 955.732 566.034, 945.894 565.274, 941.730 " fill="none" stroke="rgb(0, 119, 0)" stroke-linecap="butt" stroke-linejoin="round" stroke-opacity="1.0" stroke-width="3.0" />
            <path d=" M 496.672, 728.727 501.299, 734.819 507.348, 742.782 513.396, 750.746 519.445, 758.709 525.493, 766.673 531.542, 774.636 537.590, 782.600 543.638, 790.563 549.687, 798.526 555.735, 806.490 561.784, 814.453 567.832, 822.417 573.881, 830.380 579.929, 838.344 585.978, 846.307 592.026, 854.270 598.075, 862.234 604.123, 870.197 610.172, 878.161 616.220, 886.124 622.268, 894.088 625.246, 898.007 627.526, 907.744 629.807, 917.480 632.088, 927.217 634.369, 936.953 636.650, 946.689 638.931, 956.426 641.212, 966.162 643.493, 975.899 645.773, 985.635 648.054, 995.371 650.335, 1005.108 652.616, 1014.844 654.897, 1024.581 657.178, 1034.317 659.459, 1044.053 661.739, 1053.790 662.109, 1055.368 664.390, 1065.104 666.671, 1074.840 667.122, 1076.764 " fill="none" stroke="rgb(0, 119, 0)" stroke-linecap="butt" stroke-linejoin="round" stroke-opacity="1.0" stroke-width="3.0" />
            <path d=" M 455.233, 957.516 454.235, 947.565 453.237, 937.615 452.239, 927.665 451.241, 917.715 450.243, 907.765 449.245, 897.815 448.247, 887.865 447.249, 877.915 446.251, 867.965 445.253, 858.015 444.255, 848.065 443.257, 838.115 442.259, 828.165 441.979, 825.376 448.370, 833.067 454.761, 840.758 461.151, 848.450 467.542, 856.141 473.933, 863.833 480.324, 871.524 486.715, 879.215 493.106, 886.907 499.496, 894.598 506.352, 902.849 515.186, 898.162 524.020, 893.475 532.853, 888.788 541.687, 884.101 550.520, 879.414 559.354, 874.728 568.188, 870.041 577.021, 865.354 583.763, 861.776 577.675, 853.843 571.587, 845.910 565.498, 837.977 559.410, 830.044 553.322, 822.111 547.234, 814.178 541.145, 806.245 535.057, 798.312 528.969, 790.379 522.533, 781.994 513.728, 786.735 504.924, 791.477 496.120, 796.218 487.315, 800.960 478.511, 805.702 469.706, 810.443 460.902, 815.185 452.098, 819.926 443.293, 824.668 441.979, 825.376 " fill="none" stroke="rgb(0, 119, 0)" stroke-linecap="butt" stroke-linejoin="round" stroke-opacity="1.0" stroke-width="3.0" />
            <path d=" M 771.317, 410.290 771.626, 410.877 776.280, 419.728 777.913, 422.834 782.567, 431.685 787.221, 440.536 791.875, 449.388 793.582, 452.635 " fill="none" stroke="rgb(0, 119, 0)" stroke-linecap="butt" stroke-linejoin="round" stroke-opacity="1.0" stroke-width="3.0" />
            <path d=" M 774.302, 408.633 771.317, 410.290 771.637, 410.871 776.452, 419.635 778.141, 422.708 782.956, 431.473 787.771, 440.237 792.587, 449.001 794.350, 452.211 799.166, 460.975 803.981, 469.740 808.797, 478.504 809.223, 479.280 814.039, 488.044 818.854, 496.808 823.669, 505.572 828.485, 514.337 833.300, 523.101 838.116, 531.865 842.931, 540.629 847.746, 549.394 848.808, 551.326 853.451, 560.183 858.094, 569.040 862.736, 577.897 867.379, 586.754 872.022, 595.611 873.057, 597.587 877.865, 606.355 882.672, 615.124 887.480, 623.892 892.288, 632.661 897.095, 641.429 901.903, 650.198 906.711, 658.966 911.518, 667.734 916.326, 676.503 919.155, 681.663 921.426, 685.804 " fill="none" stroke="rgb(0, 119, 0)" stroke-linecap="butt" stroke-linejoin="round" stroke-opacity="1.0" stroke-width="3.0" />
            <path d=" M 786.622, 439.941 781.968, 431.091 777.690, 422.958 773.036, 414.107 771.402, 411.001 766.747, 402.151 762.093, 393.300 757.438, 384.449 752.783, 375.599 748.128, 366.748 744.867, 360.547 740.212, 351.697 735.558, 342.846 730.903, 333.995 726.248, 325.145 721.593, 316.294 716.939, 307.444 712.284, 298.593 707.629, 289.742 702.974, 280.892 698.320, 272.041 693.665, 263.191 692.958, 261.847 " fill="none" stroke="rgb(0, 119, 0)" stroke-linecap="butt" stroke-linejoin="round" stroke-opacity="1.0" stroke-width="3.0" />
            <path d=" M 848.808, 551.326 850.580, 550.365 " fill="none" stroke="rgb(0, 119, 0)" stroke-linecap="butt" stroke-linejoin="round" stroke-opacity="1.0" stroke-width="3.0" />
            <path d=" M 873.057, 597.587 874.792, 596.653 " fill="none" stroke="rgb(0, 119, 0)" stroke-linecap="butt" stroke-linejoin="round" stroke-opacity="1.0" stroke-width="3.0" />
            <path d=" M 456.188, 957.011 456.367, 958.792 457.373, 968.741 458.378, 978.691 459.383, 988.640 459.712, 991.899 460.511, 999.805 461.126, 1005.888 " fill="none" stroke="rgb(0, 119, 0)" stroke-linecap="butt" stroke-linejoin="round" stroke-opacity="1.0" stroke-width="3.0" />
            <path d=" M 165.181, 498.960 171.584, 506.642 177.986, 514.323 184.389, 522.005 190.792, 529.686 197.195, 537.368 203.597, 545.049 210.000, 552.731 216.403, 560.412 222.806, 568.093 229.208, 575.775 235.611, 583.456 242.014, 591.138 248.417, 598.819 253.289, 604.665 259.692, 612.347 266.095, 620.028 266.303, 620.278 " fill="none" stroke="rgb(0, 119, 0)" stroke-linecap="butt" stroke-linejoin="round" stroke-opacity="1.0" stroke-width="3.0" />
            <path d=" M 477.575, 987.827 477.929, 990.935 479.062, 1000.871 480.196, 1010.806 480.682, 1015.070 481.585, 1022.991 482.718, 1032.926 483.852, 1042.862 484.985, 1052.798 486.118, 1062.733 487.251, 1072.669 488.384, 1082.604 489.518, 1092.540 490.651, 1102.475 491.784, 1112.411 492.917, 1122.347 494.050, 1132.282 495.183, 1142.218 496.317, 1152.153 497.450, 1162.089 498.583, 1172.025 499.716, 1181.960 500.849, 1191.896 501.983, 1201.831 503.116, 1211.767 504.249, 1221.703 504.607, 1224.845 " fill="none" stroke="rgb(0, 119, 0)" stroke-linecap="butt" stroke-linejoin="round" stroke-opacity="1.0" stroke-width="3.0" />
        </g>
    </g>
</svg>
