<?xml version='1.0' encoding='ascii'?>
<svg xmlns="http://www.w3.org/2000/svg" xmlns:inkscape="http://www.inkscape.org/namespaces/inkscape" height="1500" version="1.1" width="1500">
    <g id="fressstylelayer_LineSet" inkscape:groupmode="lineset" inkscape:label="fressstylelayer_LineSet">
        <g id="strokes" inkscape:groupmode="layer" inkscape:label="strokes">
            <path d=" M 926.833, 638.310 930.302, 647.689 933.771, 657.068 937.240, 666.447 940.709, 675.826 941.379, 677.637 " fill="none" stroke="rgb(157, 20, 170)" stroke-linecap="butt" stroke-linejoin="round" stroke-opacity="1.0" stroke-width="3.0" />
            <path d=" M 728.332, 806.958 736.880, 801.769 745.429, 796.580 753.977, 791.391 762.526, 786.202 771.074, 781.013 779.622, 775.824 788.171, 770.635 796.719, 765.446 805.267, 760.257 813.816, 755.068 822.364, 749.880 830.913, 744.691 839.461, 739.502 848.009, 734.313 856.558, 729.124 865.106, 723.935 873.655, 718.746 882.203, 713.557 890.751, 708.368 899.300, 703.179 907.848, 697.990 916.397, 692.801 924.945, 687.612 933.493, 682.423 941.379, 677.637 947.621, 685.450 953.862, 693.263 960.104, 701.075 966.346, 708.888 972.588, 716.701 978.829, 724.514 985.071, 732.327 991.313, 740.140 997.554, 747.953 1003.796, 755.766 1010.038, 763.579 1016.279, 771.391 1022.521, 779.204 1028.763, 787.017 1035.004, 794.830 1041.246, 802.643 1047.488, 810.456 1053.422, 817.884 1059.663, 825.696 1065.905, 833.509 1069.572, 838.099 1075.813, 845.912 1076.103, 846.275 1082.345, 854.088 1088.587, 861.901 1094.828, 869.714 1101.070, 877.527 1107.312, 885.339 1113.554, 893.152 1113.992, 893.702 " fill="none" stroke="rgb(157, 20, 170)" stroke-linecap="butt" stroke-linejoin="round" stroke-opacity="1.0" stroke-width="3.0" />
            <path d=" M 1087.311, 908.264 1096.089, 903.473 1104.866, 898.683 1113.644, 893.892 1113.992, 893.702 1110.029, 884.521 1106.066, 875.339 1102.103, 866.158 1098.140, 856.977 1095.317, 850.439 " fill="none" stroke="rgb(157, 20, 170)" stroke-linecap="butt" stroke-linejoin="round" stroke-opacity="1.0" stroke-width="3.0" />
            <path d=" M 863.398, 326.194 871.640, 320.532 876.533, 317.172 884.775, 311.509 893.018, 305.847 901.260, 300.185 901.675, 299.900 907.267, 308.191 912.858, 316.481 918.450, 324.772 924.041, 333.063 929.633, 341.353 935.224, 349.644 940.816, 357.935 946.408, 366.225 951.999, 374.516 957.591, 382.807 963.182, 391.097 968.774, 399.388 974.365, 407.679 979.957, 415.969 985.548, 424.260 991.140, 432.551 996.731, 440.841 1002.323, 449.132 1007.914, 457.422 1013.506, 465.713 1019.097, 474.004 1024.689, 482.294 1030.280, 490.585 1035.872, 498.876 1041.463, 507.166 1047.055, 515.457 1052.646, 523.748 1058.238, 532.038 1063.829, 540.329 1069.421, 548.620 1075.012, 556.910 1079.375, 563.379 1084.016, 572.237 1088.657, 581.095 1093.298, 589.952 1097.940, 598.810 1102.581, 607.668 1107.222, 616.526 1111.863, 625.383 1116.504, 634.241 1121.145, 643.099 1125.786, 651.957 1130.427, 660.815 1135.068, 669.672 1139.710, 678.530 1144.351, 687.388 1148.992, 696.246 1153.633, 705.103 1158.274, 713.961 1162.915, 722.819 1167.556, 731.677 1172.197, 740.534 1176.838, 749.392 1181.479, 758.250 1186.121, 767.108 1190.762, 775.966 1195.403, 784.823 1199.447, 792.541 1190.707, 797.401 1181.967, 802.260 1173.227, 807.120 1164.487, 811.979 1155.747, 816.839 1147.007, 821.698 1138.268, 826.558 1129.528, 831.417 1120.788, 836.277 1112.048, 841.136 1103.200, 846.056 1095.317, 850.439 1094.594, 850.841 1088.398, 842.992 1086.433, 840.502 1080.237, 832.653 1074.041, 824.804 1067.845, 816.954 1063.894, 811.948 1057.698, 804.099 1052.767, 797.853 1046.572, 790.003 1040.376, 782.154 1034.180, 774.305 1027.984, 766.455 1021.788, 758.606 1015.592, 750.757 1009.397, 742.907 1003.201, 735.058 997.005, 727.209 990.809, 719.359 984.613, 711.510 978.417, 703.661 972.221, 695.812 966.026, 687.962 959.830, 680.113 953.634, 672.264 947.438, 664.414 941.242, 656.565 935.047, 648.716 928.851, 640.866 926.833, 638.310 918.321, 643.558 909.809, 648.806 901.296, 654.054 892.784, 659.302 884.272, 664.551 875.760, 669.799 867.247, 675.047 858.735, 680.295 850.223, 685.543 841.711, 690.791 833.199, 696.039 824.686, 701.287 816.174, 706.535 807.662, 711.783 799.150, 717.031 790.638, 722.280 782.125, 727.528 773.613, 732.776 765.101, 738.024 756.589, 743.272 748.077, 748.520 739.564, 753.768 731.052, 759.016 720.637, 765.437 " fill="none" stroke="rgb(157, 20, 170)" stroke-linecap="butt" stroke-linejoin="round" stroke-opacity="1.0" stroke-width="3.0" />
            <path d=" M 617.852, 406.672 612.728, 400.661 604.565, 406.437 596.402, 412.212 588.238, 417.988 580.075, 423.764 571.912, 429.540 563.749, 435.316 555.585, 441.092 547.422, 446.868 539.259, 452.644 531.096, 458.420 522.932, 464.196 521.544, 465.178 516.534, 468.723 508.371, 474.499 503.357, 478.046 503.697, 488.041 503.965, 495.879 " fill="none" stroke="rgb(157, 20, 170)" stroke-linecap="butt" stroke-linejoin="round" stroke-opacity="1.0" stroke-width="3.0" />
            <path d=" M 628.441, 477.500 622.992, 471.296 " fill="none" stroke="rgb(157, 20, 170)" stroke-linecap="butt" stroke-linejoin="round" stroke-opacity="1.0" stroke-width="3.0" />
            <path d=" M 612.728, 400.661 613.997, 409.392 615.435, 419.288 616.873, 429.184 618.310, 439.080 619.748, 448.976 621.186, 458.872 622.624, 468.768 622.992, 471.296 614.765, 476.982 606.539, 482.667 598.312, 488.353 590.086, 494.038 583.133, 498.844 " fill="none" stroke="rgb(157, 20, 170)" stroke-linecap="butt" stroke-linejoin="round" stroke-opacity="1.0" stroke-width="3.0" />
            <path d=" M 588.664, 504.909 596.898, 499.235 605.133, 493.561 613.367, 487.887 621.602, 482.213 628.441, 477.500 626.962, 467.610 625.484, 457.720 624.005, 447.830 622.527, 437.940 621.048, 428.050 619.570, 418.160 618.091, 408.270 617.852, 406.672 " fill="none" stroke="rgb(157, 20, 170)" stroke-linecap="butt" stroke-linejoin="round" stroke-opacity="1.0" stroke-width="3.0" />
            <path d=" M 876.533, 317.172 870.842, 308.949 865.151, 300.726 859.460, 292.503 853.770, 284.280 848.079, 276.057 842.388, 267.834 836.698, 259.611 831.007, 251.388 825.316, 243.165 819.626, 234.943 813.935, 226.720 808.244, 218.497 805.197, 214.094 797.073, 219.925 788.949, 225.756 780.825, 231.587 772.701, 237.418 764.578, 243.249 756.454, 249.080 748.330, 254.911 740.206, 260.743 732.082, 266.574 723.958, 272.405 715.834, 278.236 707.710, 284.067 699.586, 289.898 691.462, 295.729 683.338, 301.560 675.214, 307.391 667.090, 313.222 658.966, 319.053 650.842, 324.885 642.719, 330.716 634.595, 336.547 626.471, 342.378 618.347, 348.209 610.223, 354.040 602.099, 359.871 593.975, 365.702 585.851, 371.533 577.727, 377.365 569.603, 383.196 561.479, 389.027 553.355, 394.858 545.231, 400.689 537.107, 406.520 528.983, 412.351 520.860, 418.182 512.736, 424.013 504.612, 429.844 496.488, 435.675 488.364, 441.507 480.240, 447.338 472.116, 453.169 463.992, 459.000 455.868, 464.831 447.744, 470.662 438.530, 477.276 438.273, 487.272 438.016, 497.269 437.759, 507.266 437.502, 517.263 437.246, 527.259 436.989, 537.256 436.838, 543.109 " fill="none" stroke="rgb(157, 20, 170)" stroke-linecap="butt" stroke-linejoin="round" stroke-opacity="1.0" stroke-width="3.0" />
            <path d=" M 805.197, 214.094 809.013, 223.337 812.830, 232.580 816.646, 241.823 820.462, 251.067 824.278, 260.310 828.094, 269.553 831.911, 278.796 835.727, 288.039 839.543, 297.282 843.359, 306.526 847.175, 315.769 850.992, 325.012 854.808, 334.255 858.624, 343.498 862.440, 352.742 866.257, 361.985 870.073, 371.228 873.889, 380.471 877.705, 389.714 881.521, 398.958 885.338, 408.201 889.154, 417.444 892.970, 426.687 896.786, 435.930 900.602, 445.173 902.338, 449.377 " fill="none" stroke="rgb(157, 20, 170)" stroke-linecap="butt" stroke-linejoin="round" stroke-opacity="1.0" stroke-width="3.0" />
            <path d=" M 628.634, 629.232 636.991, 623.740 645.348, 618.248 653.706, 612.757 662.063, 607.265 670.420, 601.774 678.777, 596.282 687.134, 590.790 695.491, 585.299 703.849, 579.807 712.206, 574.316 720.563, 568.824 728.920, 563.332 737.277, 557.841 745.634, 552.349 753.992, 546.858 762.349, 541.366 770.706, 535.874 779.063, 530.383 787.420, 524.891 795.778, 519.400 804.135, 513.908 812.492, 508.416 820.849, 502.925 829.206, 497.433 837.563, 491.942 845.921, 486.450 854.278, 480.958 862.635, 475.467 870.992, 469.975 879.349, 464.484 887.706, 458.992 896.064, 453.500 902.338, 449.377 908.211, 457.471 914.084, 465.565 919.957, 473.658 925.830, 481.752 931.703, 489.846 934.973, 494.351 " fill="none" stroke="rgb(157, 20, 170)" stroke-linecap="butt" stroke-linejoin="round" stroke-opacity="1.0" stroke-width="3.0" />
            <path d=" M 665.488, 667.896 673.896, 662.482 682.303, 657.067 690.711, 651.653 699.118, 646.239 707.526, 640.824 715.933, 635.410 724.341, 629.996 732.748, 624.582 741.156, 619.167 749.563, 613.753 757.970, 608.339 766.378, 602.924 774.785, 597.510 783.193, 592.096 791.600, 586.681 800.008, 581.267 808.415, 575.853 816.823, 570.438 825.230, 565.024 833.638, 559.610 842.045, 554.196 850.452, 548.781 858.860, 543.367 867.267, 537.953 875.675, 532.538 884.082, 527.124 892.490, 521.710 900.897, 516.295 909.305, 510.881 917.712, 505.467 926.120, 500.052 934.973, 494.351 931.056, 485.150 927.140, 475.949 923.223, 466.748 919.307, 457.547 915.390, 448.345 911.474, 439.144 907.558, 429.943 903.641, 420.742 899.725, 411.541 895.808, 402.339 891.892, 393.138 887.975, 383.937 884.059, 374.736 880.143, 365.535 876.226, 356.334 872.310, 347.132 868.393, 337.931 864.477, 328.730 863.398, 326.194 " fill="none" stroke="rgb(157, 20, 170)" stroke-linecap="butt" stroke-linejoin="round" stroke-opacity="1.0" stroke-width="3.0" />
            <path d=" M 853.408, 985.903 855.770, 995.620 858.131, 1005.337 859.945, 1012.798 851.181, 1017.616 842.418, 1022.433 833.655, 1027.250 824.892, 1032.067 816.128, 1036.884 807.365, 1041.701 806.557, 1042.146 797.794, 1046.963 789.030, 1051.780 780.267, 1056.597 771.504, 1061.414 762.741, 1066.232 753.977, 1071.049 745.214, 1075.866 736.451, 1080.683 727.688, 1085.500 718.924, 1090.317 710.161, 1095.135 701.398, 1099.952 692.635, 1104.769 683.871, 1109.586 675.108, 1114.403 666.345, 1119.220 664.679, 1120.136 655.916, 1124.953 647.152, 1129.771 638.389, 1134.588 629.626, 1139.405 620.862, 1144.222 612.099, 1149.039 603.336, 1153.856 594.573, 1158.674 585.809, 1163.491 577.046, 1168.308 568.283, 1173.125 559.520, 1177.942 550.756, 1182.759 541.993, 1187.577 533.230, 1192.394 524.467, 1197.211 515.703, 1202.028 506.940, 1206.845 500.876, 1210.178 492.517, 1204.691 484.157, 1199.203 475.798, 1193.715 467.438, 1188.227 459.078, 1182.739 450.719, 1177.251 442.359, 1171.764 433.999, 1166.276 425.640, 1160.788 417.280, 1155.300 408.920, 1149.812 400.561, 1144.324 392.201, 1138.837 383.841, 1133.349 375.482, 1127.861 367.122, 1122.373 358.762, 1116.885 350.403, 1111.397 342.043, 1105.910 333.684, 1100.422 325.324, 1094.934 316.964, 1089.446 308.605, 1083.958 300.245, 1078.470 291.885, 1072.983 283.526, 1067.495 275.166, 1062.007 266.806, 1056.519 258.447, 1051.031 250.087, 1045.543 241.727, 1040.056 233.368, 1034.568 225.008, 1029.080 216.648, 1023.592 208.289, 1018.104 199.929, 1012.616 191.570, 1007.129 183.210, 1001.641 172.946, 994.903 174.748, 985.067 176.550, 975.230 178.353, 965.394 180.155, 955.558 181.957, 945.722 183.760, 935.885 185.562, 926.049 187.364, 916.213 189.167, 906.377 190.969, 896.540 192.771, 886.704 194.573, 876.868 196.376, 867.032 198.178, 857.195 199.980, 847.359 201.783, 837.523 203.585, 827.687 205.387, 817.850 207.190, 808.014 208.992, 798.178 210.794, 788.342 212.596, 778.505 214.399, 768.669 216.201, 758.833 218.003, 748.997 219.806, 739.160 221.608, 729.324 223.410, 719.488 225.212, 709.652 227.015, 699.815 228.923, 689.400 237.102, 683.645 245.280, 677.891 253.459, 672.137 261.637, 666.382 269.815, 660.628 277.994, 654.873 286.172, 649.119 294.351, 643.365 302.529, 637.610 310.708, 631.856 318.886, 626.101 327.064, 620.347 335.243, 614.593 343.421, 608.838 351.600, 603.084 359.778, 597.329 367.957, 591.575 376.135, 585.821 384.314, 580.066 392.492, 574.312 400.670, 568.557 408.849, 562.803 417.027, 557.049 425.206, 551.294 433.384, 545.540 436.838, 543.109 445.017, 537.355 453.195, 531.601 461.374, 525.846 469.552, 520.092 475.950, 515.590 484.129, 509.836 492.307, 504.081 500.485, 498.327 503.965, 495.879 512.143, 490.125 513.711, 489.021 521.889, 483.267 521.973, 483.208 522.454, 482.869 530.633, 477.115 538.811, 471.361 546.990, 465.606 550.544, 463.105 557.282, 470.494 564.020, 477.884 570.758, 485.273 577.496, 492.662 583.133, 498.844 588.664, 504.909 595.402, 512.298 595.621, 512.538 601.430, 518.909 608.168, 526.299 614.906, 533.688 616.289, 535.204 617.590, 545.119 618.892, 555.033 620.194, 564.948 621.496, 574.863 622.797, 584.778 624.099, 594.693 625.401, 604.608 626.703, 614.523 628.005, 624.438 628.634, 629.232 635.534, 636.470 642.433, 643.708 649.333, 650.947 656.232, 658.185 663.132, 665.424 665.488, 667.896 667.032, 677.776 668.576, 687.656 670.119, 697.536 671.663, 707.417 673.124, 716.768 " fill="none" stroke="rgb(157, 20, 170)" stroke-linecap="butt" stroke-linejoin="round" stroke-opacity="1.0" stroke-width="3.0" />
            <path d=" M 707.470, 446.354 699.217, 452.001 690.964, 457.648 682.711, 463.295 674.458, 468.942 666.205, 474.589 657.952, 480.236 649.699, 485.883 641.446, 491.530 633.193, 497.177 624.940, 502.823 616.687, 508.470 608.434, 514.117 601.430, 518.909 " fill="none" stroke="rgb(157, 20, 170)" stroke-linecap="butt" stroke-linejoin="round" stroke-opacity="1.0" stroke-width="3.0" />
            <path d=" M 641.337, 1011.311 641.870, 1016.236 649.576, 1022.609 657.282, 1028.982 664.988, 1035.355 672.694, 1041.728 675.883, 1044.366 684.593, 1039.452 693.302, 1034.538 702.012, 1029.624 710.721, 1024.710 719.431, 1019.796 722.207, 1018.230 721.439, 1013.352 " fill="none" stroke="rgb(157, 20, 170)" stroke-linecap="butt" stroke-linejoin="round" stroke-opacity="1.0" stroke-width="3.0" />
            <path d=" M 722.207, 1018.230 718.498, 1015.014 710.944, 1008.462 703.389, 1001.910 695.835, 995.358 688.825, 989.278 " fill="none" stroke="rgb(157, 20, 170)" stroke-linecap="butt" stroke-linejoin="round" stroke-opacity="1.0" stroke-width="3.0" />
            <path d=" M 688.143, 984.387 688.825, 989.278 680.152, 994.257 671.480, 999.236 662.808, 1004.215 654.135, 1009.194 645.063, 1014.402 641.870, 1016.236 " fill="none" stroke="rgb(157, 20, 170)" stroke-linecap="butt" stroke-linejoin="round" stroke-opacity="1.0" stroke-width="3.0" />
            <path d=" M 721.439, 1013.352 713.894, 1006.789 706.349, 1000.225 698.804, 993.662 691.260, 987.098 688.143, 984.387 679.475, 989.373 670.806, 994.359 662.138, 999.345 653.470, 1004.332 644.802, 1009.318 641.337, 1011.311 " fill="none" stroke="rgb(157, 20, 170)" stroke-linecap="butt" stroke-linejoin="round" stroke-opacity="1.0" stroke-width="3.0" />
            <path d=" M 984.737, 783.854 988.230, 793.224 991.723, 802.594 995.217, 811.964 998.710, 821.334 1002.203, 830.704 1005.696, 840.074 1009.190, 849.444 1010.229, 852.232 " fill="none" stroke="rgb(157, 20, 170)" stroke-linecap="butt" stroke-linejoin="round" stroke-opacity="1.0" stroke-width="3.0" />
            <path d=" M 823.973, 957.444 832.679, 952.526 841.386, 947.608 850.093, 942.689 858.800, 937.771 867.507, 932.853 876.214, 927.934 884.921, 923.016 893.628, 918.098 902.335, 913.179 911.042, 908.261 919.748, 903.343 928.455, 898.424 937.162, 893.506 945.869, 888.588 954.576, 883.669 963.283, 878.751 971.990, 873.833 980.697, 868.914 989.404, 863.996 998.110, 859.078 1006.817, 854.159 1010.229, 852.232 1016.680, 859.873 1023.132, 867.513 1029.583, 875.154 1036.035, 882.795 1042.486, 890.435 1048.938, 898.076 1055.389, 905.716 1061.841, 913.357 1068.292, 920.998 1074.744, 928.638 1081.195, 936.279 1087.646, 943.919 1094.098, 951.560 1100.549, 959.201 1107.001, 966.841 1113.452, 974.482 1119.904, 982.122 1126.355, 989.763 1132.807, 997.403 1139.258, 1005.044 1145.710, 1012.685 1152.161, 1020.325 1158.613, 1027.966 1165.064, 1035.606 1171.516, 1043.247 1177.967, 1050.888 1184.418, 1058.528 1190.870, 1066.169 1197.321, 1073.809 1203.773, 1081.450 1209.229, 1087.911 " fill="none" stroke="rgb(157, 20, 170)" stroke-linecap="butt" stroke-linejoin="round" stroke-opacity="1.0" stroke-width="3.0" />
            <path d=" M 664.679, 1120.136 672.580, 1126.265 680.482, 1132.394 688.383, 1138.524 696.285, 1144.653 704.186, 1150.782 712.088, 1156.911 719.989, 1163.040 727.891, 1169.169 735.792, 1175.298 743.694, 1181.428 751.595, 1187.557 759.497, 1193.686 767.398, 1199.815 775.300, 1205.944 783.201, 1212.073 791.103, 1218.202 799.004, 1224.332 806.906, 1230.461 814.807, 1236.590 822.709, 1242.719 830.610, 1248.848 838.512, 1254.977 846.413, 1261.106 852.749, 1266.021 861.695, 1261.552 870.641, 1257.082 879.586, 1252.613 888.532, 1248.143 897.477, 1243.674 906.423, 1239.204 915.368, 1234.735 924.314, 1230.265 933.260, 1225.796 942.205, 1221.326 951.151, 1216.856 960.096, 1212.387 969.042, 1207.917 977.987, 1203.448 986.933, 1198.978 995.879, 1194.509 1004.824, 1190.039 1013.770, 1185.570 1022.715, 1181.100 1031.661, 1176.631 1040.606, 1172.161 1049.552, 1167.692 1058.498, 1163.222 1067.443, 1158.753 1076.389, 1154.283 1085.334, 1149.813 1094.280, 1145.344 1103.225, 1140.874 1112.171, 1136.405 1121.117, 1131.935 1130.062, 1127.466 1139.008, 1122.996 1147.953, 1118.527 1156.899, 1114.057 1165.844, 1109.588 1174.790, 1105.118 1183.736, 1100.649 1192.681, 1096.179 1201.627, 1091.710 1209.229, 1087.911 1205.214, 1078.753 1201.198, 1069.594 1197.183, 1060.436 1193.168, 1051.277 1189.153, 1042.119 1185.138, 1032.960 1181.123, 1023.801 1177.108, 1014.643 1173.093, 1005.484 1169.078, 996.326 1165.063, 987.167 1161.048, 978.009 1157.032, 968.850 1153.017, 959.692 1149.002, 950.533 1144.987, 941.375 1140.972, 932.216 1136.957, 923.057 1132.942, 913.899 1128.927, 904.740 1124.912, 895.582 1120.897, 886.423 1116.882, 877.265 1112.866, 868.106 1108.851, 858.948 1104.836, 849.789 1103.200, 846.056 " fill="none" stroke="rgb(157, 20, 170)" stroke-linecap="butt" stroke-linejoin="round" stroke-opacity="1.0" stroke-width="3.0" />
            <path d=" M 1087.311, 908.264 1080.949, 900.548 1074.588, 892.833 1068.226, 885.117 1061.865, 877.401 1055.504, 869.686 1049.142, 861.970 1042.781, 854.254 1036.419, 846.539 1030.058, 838.823 1023.696, 831.107 1017.335, 823.391 1010.973, 815.676 1004.612, 807.960 998.250, 800.244 991.889, 792.529 984.737, 783.854 976.091, 788.878 967.444, 793.902 958.798, 798.927 950.152, 803.951 941.505, 808.975 932.859, 813.999 924.213, 819.023 915.567, 824.047 906.920, 829.071 898.274, 834.096 889.628, 839.120 880.982, 844.144 872.335, 849.168 863.689, 854.192 855.043, 859.216 846.396, 864.240 837.750, 869.264 829.104, 874.289 820.458, 879.313 811.811, 884.337 807.791, 886.673 " fill="none" stroke="rgb(157, 20, 170)" stroke-linecap="butt" stroke-linejoin="round" stroke-opacity="1.0" stroke-width="3.0" />
            <path d=" M 1001.944, 508.697 1007.655, 516.905 1013.367, 525.114 1019.078, 533.322 1024.790, 541.531 1030.501, 549.739 1036.213, 557.947 1041.924, 566.156 1042.690, 567.256 1048.401, 575.464 1054.113, 583.673 1059.825, 591.881 1065.536, 600.090 1071.248, 608.298 1076.959, 616.507 1082.671, 624.715 1088.382, 632.923 1094.094, 641.132 1099.805, 649.340 1105.517, 657.549 1111.228, 665.757 1116.940, 673.966 1122.651, 682.174 1128.363, 690.382 1134.075, 698.591 1139.786, 706.799 1145.498, 715.008 1151.209, 723.216 1156.921, 731.424 1162.632, 739.633 1168.344, 747.841 1174.055, 756.050 1179.767, 764.258 1185.479, 772.467 1191.190, 780.675 1196.902, 788.883 1199.447, 792.541 " fill="none" stroke="rgb(157, 20, 170)" stroke-linecap="butt" stroke-linejoin="round" stroke-opacity="1.0" stroke-width="3.0" />
            <path d=" M 901.675, 299.900 906.004, 308.915 910.333, 317.929 914.662, 326.943 918.991, 335.958 923.320, 344.972 927.649, 353.987 931.978, 363.001 936.307, 372.016 940.636, 381.030 944.965, 390.045 949.293, 399.059 953.622, 408.074 957.951, 417.088 962.280, 426.103 966.609, 435.117 970.938, 444.131 975.267, 453.146 979.596, 462.160 983.925, 471.175 985.770, 475.016 990.098, 484.031 994.427, 493.045 998.756, 502.060 1001.944, 508.697 994.641, 513.318 986.191, 518.665 977.740, 524.012 969.290, 529.359 960.840, 534.707 952.390, 540.054 943.939, 545.401 935.489, 550.748 927.039, 556.095 918.588, 561.443 910.138, 566.790 901.688, 572.137 893.237, 577.484 884.787, 582.831 876.337, 588.178 867.887, 593.526 859.436, 598.873 850.986, 604.220 842.536, 609.567 834.085, 614.914 825.635, 620.262 817.185, 625.609 808.734, 630.956 800.284, 636.303 791.834, 641.650 783.384, 646.998 774.933, 652.345 766.483, 657.692 758.033, 663.039 749.582, 668.386 741.132, 673.734 732.682, 679.081 724.231, 684.428 715.781, 689.775 707.331, 695.122 698.881, 700.469 690.430, 705.817 681.980, 711.164 673.124, 716.768 680.109, 723.923 687.095, 731.079 694.081, 738.234 701.066, 745.390 708.052, 752.545 715.037, 759.701 720.637, 765.437 722.460, 775.270 724.282, 785.102 726.104, 794.935 727.926, 804.768 728.332, 806.958 735.392, 814.040 742.451, 821.123 749.511, 828.205 756.571, 835.287 763.630, 842.370 770.690, 849.452 777.750, 856.535 784.810, 863.617 791.869, 870.699 798.929, 877.782 805.989, 884.864 807.791, 886.673 810.020, 896.421 812.249, 906.170 814.478, 915.918 816.707, 925.666 818.936, 935.415 821.165, 945.163 823.393, 954.912 823.973, 957.444 831.162, 964.395 838.351, 971.346 845.541, 978.297 852.730, 985.247 853.408, 985.903 " fill="none" stroke="rgb(157, 20, 170)" stroke-linecap="butt" stroke-linejoin="round" stroke-opacity="1.0" stroke-width="3.0" />
            <path d=" M 684.043, 344.045 678.939, 337.620 670.789, 343.414 662.639, 349.208 654.489, 355.003 646.338, 360.797 638.188, 366.591 630.038, 372.385 621.887, 378.179 613.737, 383.974 605.587, 389.768 597.437, 395.562 589.286, 401.356 581.136, 407.151 572.986, 412.945 564.835, 418.739 556.685, 424.533 548.535, 430.327 540.385, 436.121 532.234, 441.916 524.084, 447.710 515.828, 453.580 516.294, 463.569 516.534, 468.723 " fill="none" stroke="rgb(157, 20, 170)" stroke-linecap="butt" stroke-linejoin="round" stroke-opacity="1.0" stroke-width="3.0" />
            <path d=" M 684.043, 344.045 686.275, 353.792 688.507, 363.540 690.739, 373.288 692.971, 383.036 695.203, 392.783 697.435, 402.531 699.667, 412.279 701.899, 422.026 704.131, 431.774 706.363, 441.522 707.470, 446.354 701.896, 439.589 " fill="none" stroke="rgb(157, 20, 170)" stroke-linecap="butt" stroke-linejoin="round" stroke-opacity="1.0" stroke-width="3.0" />
            <path d=" M 678.939, 337.620 680.889, 346.280 683.085, 356.036 685.282, 365.792 687.478, 375.548 689.674, 385.304 691.871, 395.060 694.067, 404.815 696.263, 414.571 698.460, 424.327 700.656, 434.083 701.896, 439.589 693.651, 445.248 685.406, 450.907 677.162, 456.567 668.917, 462.226 660.673, 467.885 652.428, 473.544 644.184, 479.204 635.939, 484.863 627.694, 490.522 619.450, 496.181 611.205, 501.841 602.961, 507.500 595.621, 512.538 " fill="none" stroke="rgb(157, 20, 170)" stroke-linecap="butt" stroke-linejoin="round" stroke-opacity="1.0" stroke-width="3.0" />
            <path d=" M 572.227, 738.682 563.811, 744.082 555.395, 749.483 546.979, 754.884 538.563, 760.284 530.146, 765.685 521.730, 771.086 513.314, 776.487 504.898, 781.887 496.482, 787.288 488.066, 792.689 479.649, 798.089 471.233, 803.490 462.817, 808.891 454.401, 814.292 445.985, 819.692 437.568, 825.093 429.152, 830.494 420.736, 835.894 412.320, 841.295 403.904, 846.696 395.487, 852.097 387.071, 857.497 378.655, 862.898 370.239, 868.299 361.823, 873.699 353.407, 879.100 344.990, 884.501 336.574, 889.902 328.158, 895.302 319.742, 900.703 311.326, 906.104 302.909, 911.505 294.493, 916.905 286.077, 922.306 277.661, 927.707 269.245, 933.107 260.828, 938.508 252.412, 943.909 243.996, 949.310 235.580, 954.710 227.164, 960.111 218.747, 965.512 210.331, 970.912 201.915, 976.313 193.499, 981.714 185.083, 987.115 172.946, 994.903 " fill="none" stroke="rgb(157, 20, 170)" stroke-linecap="butt" stroke-linejoin="round" stroke-opacity="1.0" stroke-width="3.0" />
            <path d=" M 859.945, 1012.798 852.705, 1005.900 845.464, 999.003 839.707, 993.518 832.467, 986.620 825.227, 979.722 817.987, 972.824 810.747, 965.926 803.507, 959.028 796.267, 952.130 789.027, 945.233 781.786, 938.335 774.546, 931.437 767.306, 924.539 760.066, 917.641 752.826, 910.743 745.586, 903.845 738.346, 896.947 731.106, 890.050 723.866, 883.152 716.625, 876.254 709.385, 869.356 702.145, 862.458 694.905, 855.560 687.665, 848.662 680.425, 841.764 673.185, 834.867 665.945, 827.969 658.705, 821.071 651.464, 814.173 644.224, 807.275 636.984, 800.377 629.744, 793.479 622.504, 786.581 614.582, 779.034 607.342, 772.136 600.102, 765.238 592.862, 758.341 585.622, 751.443 582.377, 748.352 575.137, 741.454 572.227, 738.682 571.443, 728.712 570.659, 718.743 569.874, 708.774 569.090, 698.805 568.305, 688.836 567.521, 678.866 566.737, 668.897 565.952, 658.928 565.168, 648.959 564.383, 638.990 563.599, 629.020 562.815, 619.051 562.030, 609.082 561.246, 599.113 560.461, 589.144 559.677, 579.174 559.262, 573.904 558.478, 563.935 557.693, 553.966 556.909, 543.997 556.125, 534.028 555.340, 524.059 554.556, 514.089 553.771, 504.120 552.987, 494.151 552.203, 484.182 551.418, 474.213 550.634, 464.243 550.544, 463.105 " fill="none" stroke="rgb(157, 20, 170)" stroke-linecap="butt" stroke-linejoin="round" stroke-opacity="1.0" stroke-width="3.0" />
        </g>
    </g>
    <g id="fressstylelayer_hidden lines" inkscape:groupmode="lineset" inkscape:label="fressstylelayer_hidden lines" xmlns:inkscape="http://www.inkscape.org/namespaces/inkscape">
        <g id="strokes" inkscape:groupmode="layer" inkscape:label="strokes" xmlns:inkscape="http://www.inkscape.org/namespaces/inkscape">
            <path d=" M 1075.791, 805.205 1073.844, 802.705 " fill="none" stroke="rgb(0, 119, 0)" stroke-linecap="butt" stroke-linejoin="round" stroke-opacity="1.0" stroke-width="3.0" />
            <path d=" M 863.398, 326.194 869.140, 334.381 874.882, 342.568 880.624, 350.755 886.366, 358.942 892.108, 367.129 897.851, 375.316 903.593, 383.503 909.335, 391.691 915.077, 399.878 920.819, 408.065 926.561, 416.252 932.304, 424.439 938.046, 432.626 943.788, 440.813 949.530, 449.000 955.272, 457.187 961.014, 465.374 966.757, 473.561 972.499, 481.748 978.241, 489.935 983.983, 498.122 989.725, 506.309 994.641, 513.318 1000.383, 521.505 1006.125, 529.692 1011.867, 537.879 1013.674, 540.454 1019.416, 548.641 1025.158, 556.828 1030.900, 565.015 1036.642, 573.202 1042.385, 581.389 1044.670, 584.648 1049.038, 593.644 1053.405, 602.640 1057.772, 611.636 1062.139, 620.632 1066.507, 629.628 1070.874, 638.624 1075.241, 647.620 1079.608, 656.616 1083.976, 665.612 1088.343, 674.608 1092.710, 683.604 1097.077, 692.600 1101.445, 701.596 1105.812, 710.592 1110.179, 719.588 1114.547, 728.583 1118.914, 737.579 1123.281, 746.575 1127.648, 755.571 1132.016, 764.567 1133.966, 768.586 1125.269, 773.521 1116.572, 778.457 1107.875, 783.392 1099.178, 788.328 1090.481, 793.264 1081.784, 798.199 1080.007, 799.208 1073.844, 802.705 1075.093, 805.600 1077.791, 811.860 1081.750, 821.043 1085.708, 830.227 1089.418, 838.834 1093.376, 848.017 1094.594, 850.841 " fill="none" stroke="rgb(0, 119, 0)" stroke-linecap="butt" stroke-linejoin="round" stroke-opacity="1.0" stroke-width="3.0" />
            <path d=" M 404.405, 740.232 403.945, 750.221 403.567, 758.427 403.108, 768.416 402.648, 778.405 402.188, 788.395 401.984, 792.832 410.354, 787.359 418.723, 781.887 425.630, 777.371 425.924, 767.375 426.167, 759.133 426.461, 749.138 426.755, 739.142 427.050, 729.146 427.169, 725.090 418.843, 730.629 410.516, 736.167 404.405, 740.232 " fill="none" stroke="rgb(0, 119, 0)" stroke-linecap="butt" stroke-linejoin="round" stroke-opacity="1.0" stroke-width="3.0" />
            <path d=" M 404.405, 740.232 411.954, 746.789 419.504, 753.347 426.167, 759.133 433.717, 765.691 441.267, 772.248 448.816, 778.805 456.366, 785.363 463.916, 791.920 471.466, 798.477 479.016, 805.035 486.566, 811.592 494.116, 818.149 501.666, 824.707 509.216, 831.264 516.766, 837.821 524.316, 844.379 531.866, 850.936 535.843, 854.390 " fill="none" stroke="rgb(0, 119, 0)" stroke-linecap="butt" stroke-linejoin="round" stroke-opacity="1.0" stroke-width="3.0" />
            <path d=" M 554.653, 842.693 546.161, 847.974 537.669, 853.255 535.843, 854.390 536.318, 864.379 536.793, 874.368 537.267, 884.357 537.742, 894.345 538.217, 904.334 538.692, 914.323 539.167, 924.311 539.642, 934.300 540.117, 944.289 540.592, 954.278 541.067, 964.266 541.463, 972.600 541.938, 982.589 542.413, 992.578 542.690, 998.406 " fill="none" stroke="rgb(0, 119, 0)" stroke-linecap="butt" stroke-linejoin="round" stroke-opacity="1.0" stroke-width="3.0" />
            <path d=" M 523.554, 983.271 531.397, 989.474 539.241, 995.678 542.690, 998.406 551.302, 993.324 559.914, 988.241 568.527, 983.159 577.139, 978.077 585.751, 972.994 594.363, 967.912 602.975, 962.830 611.588, 957.747 617.234, 954.415 625.846, 949.333 626.745, 948.802 635.357, 943.720 639.543, 941.250 642.573, 939.461 638.993, 936.335 631.460, 929.759 624.121, 923.351 615.530, 928.470 606.940, 933.588 598.604, 938.555 590.013, 943.673 581.423, 948.792 572.832, 953.910 564.241, 959.029 555.650, 964.147 547.060, 969.266 541.463, 972.600 532.872, 977.719 524.282, 982.838 523.554, 983.271 " fill="none" stroke="rgb(0, 119, 0)" stroke-linecap="butt" stroke-linejoin="round" stroke-opacity="1.0" stroke-width="3.0" />
            <path d=" M 523.554, 983.271 523.195, 973.277 522.835, 963.284 522.476, 953.290 522.117, 943.297 521.757, 933.303 521.398, 923.310 521.038, 913.316 520.679, 903.323 520.320, 893.329 520.279, 892.205 " fill="none" stroke="rgb(0, 119, 0)" stroke-linecap="butt" stroke-linejoin="round" stroke-opacity="1.0" stroke-width="3.0" />
            <path d=" M 495.133, 907.691 503.648, 902.447 512.162, 897.203 520.279, 892.205 512.622, 885.773 504.965, 879.341 501.795, 876.678 494.138, 870.245 486.482, 863.813 478.825, 857.381 471.168, 850.949 463.511, 844.517 455.854, 838.085 448.197, 831.653 440.540, 825.221 432.883, 818.789 425.226, 812.357 417.569, 805.925 409.913, 799.492 401.984, 792.832 " fill="none" stroke="rgb(0, 119, 0)" stroke-linecap="butt" stroke-linejoin="round" stroke-opacity="1.0" stroke-width="3.0" />
            <path d=" M 633.374, 858.737 627.447, 862.342 618.903, 867.539 610.359, 872.735 601.815, 877.932 593.272, 883.128 584.728, 888.325 576.184, 893.522 567.641, 898.718 558.407, 904.334 566.022, 910.817 573.636, 917.299 581.250, 923.781 588.865, 930.264 596.479, 936.746 598.604, 938.555 606.218, 945.037 613.833, 951.519 617.234, 954.415 624.848, 960.897 628.295, 963.831 635.909, 970.314 643.519, 976.792 652.161, 971.761 660.803, 966.730 669.445, 961.698 678.088, 956.667 686.730, 951.635 695.372, 946.604 704.014, 941.573 712.656, 936.541 716.107, 934.532 708.734, 927.777 701.360, 921.022 693.987, 914.267 686.613, 907.512 679.240, 900.756 671.866, 894.001 664.493, 887.246 657.119, 880.491 649.746, 873.736 642.372, 866.981 637.004, 862.063 633.374, 858.737 " fill="none" stroke="rgb(0, 119, 0)" stroke-linecap="butt" stroke-linejoin="round" stroke-opacity="1.0" stroke-width="3.0" />
            <path d=" M 633.374, 858.737 634.506, 868.673 635.638, 878.608 636.771, 888.544 637.903, 898.480 639.035, 908.415 640.168, 918.351 641.300, 928.287 642.432, 938.222 642.573, 939.461 " fill="none" stroke="rgb(0, 119, 0)" stroke-linecap="butt" stroke-linejoin="round" stroke-opacity="1.0" stroke-width="3.0" />
            <path d=" M 537.744, 827.739 545.235, 834.364 552.726, 840.989 554.653, 842.693 555.261, 852.674 555.869, 862.656 556.477, 872.637 557.085, 882.619 557.693, 892.600 558.300, 902.582 558.407, 904.334 " fill="none" stroke="rgb(0, 119, 0)" stroke-linecap="butt" stroke-linejoin="round" stroke-opacity="1.0" stroke-width="3.0" />
            <path d=" M 372.783, 652.564 380.218, 659.251 387.653, 665.939 395.088, 672.626 402.523, 679.313 409.958, 686.000 417.393, 692.688 417.873, 693.119 425.308, 699.807 432.744, 706.494 440.179, 713.181 447.614, 719.868 455.049, 726.556 462.484, 733.243 469.919, 739.930 477.354, 746.617 484.789, 753.305 486.535, 754.875 " fill="none" stroke="rgb(0, 119, 0)" stroke-linecap="butt" stroke-linejoin="round" stroke-opacity="1.0" stroke-width="3.0" />
            <path d=" M 560.511, 706.783 552.127, 712.234 543.743, 717.684 535.359, 723.135 526.975, 728.585 518.591, 734.036 510.207, 739.486 501.823, 744.937 493.439, 750.388 486.535, 754.875 486.683, 764.874 486.831, 774.873 486.879, 778.050 " fill="none" stroke="rgb(0, 119, 0)" stroke-linecap="butt" stroke-linejoin="round" stroke-opacity="1.0" stroke-width="3.0" />
            <path d=" M 425.630, 777.371 418.043, 770.856 410.456, 764.342 403.567, 758.427 395.980, 751.912 388.394, 745.397 380.807, 738.883 373.220, 732.368 367.233, 727.227 " fill="none" stroke="rgb(0, 119, 0)" stroke-linecap="butt" stroke-linejoin="round" stroke-opacity="1.0" stroke-width="3.0" />
            <path d=" M 562.139, 729.504 553.736, 734.924 545.332, 740.345 536.929, 745.766 528.525, 751.186 520.122, 756.607 511.719, 762.027 503.315, 767.448 494.912, 772.868 486.879, 778.050 479.397, 771.415 471.916, 764.779 464.435, 758.144 456.954, 751.508 449.472, 744.872 441.991, 738.237 434.510, 731.601 427.169, 725.090 " fill="none" stroke="rgb(0, 119, 0)" stroke-linecap="butt" stroke-linejoin="round" stroke-opacity="1.0" stroke-width="3.0" />
            <path d=" M 372.783, 652.564 372.042, 662.536 371.300, 672.509 370.559, 682.482 369.818, 692.454 369.076, 702.426 368.335, 712.399 367.594, 722.371 367.233, 727.227 375.527, 721.641 383.821, 716.055 392.115, 710.468 400.409, 704.882 408.703, 699.295 416.998, 693.709 417.873, 693.119 426.168, 687.533 434.462, 681.947 442.756, 676.360 448.462, 672.517 448.602, 662.518 448.742, 652.519 448.793, 648.874 448.933, 638.875 449.073, 628.876 449.213, 618.877 449.354, 608.878 449.482, 599.696 441.249, 605.371 435.130, 609.589 426.896, 615.264 418.663, 620.939 410.429, 626.615 402.196, 632.290 393.962, 637.965 385.729, 643.640 377.495, 649.316 372.783, 652.564 " fill="none" stroke="rgb(0, 119, 0)" stroke-linecap="butt" stroke-linejoin="round" stroke-opacity="1.0" stroke-width="3.0" />
            <path d=" M 516.960, 477.853 521.973, 483.208 522.501, 483.771 " fill="none" stroke="rgb(0, 119, 0)" stroke-linecap="butt" stroke-linejoin="round" stroke-opacity="1.0" stroke-width="3.0" />
            <path d=" M 503.965, 495.879 504.305, 505.873 504.646, 515.867 504.987, 525.861 505.328, 535.856 505.674, 546.025 505.886, 552.233 512.885, 559.376 517.493, 564.079 517.221, 557.847 516.784, 547.856 516.651, 544.793 516.214, 534.803 515.778, 524.812 515.342, 514.822 514.906, 504.831 514.470, 494.841 514.240, 489.582 522.501, 483.771 522.454, 482.869 522.013, 474.288 521.544, 465.178 521.248, 459.439 529.407, 453.656 537.565, 447.873 545.723, 442.090 553.882, 436.307 562.040, 430.524 570.198, 424.741 578.357, 418.958 586.515, 413.176 594.673, 407.393 602.832, 401.610 610.990, 395.827 619.148, 390.044 627.307, 384.261 635.465, 378.478 643.623, 372.696 651.782, 366.913 659.940, 361.130 668.098, 355.347 676.257, 349.564 680.889, 346.280 684.043, 344.045 " fill="none" stroke="rgb(0, 119, 0)" stroke-linecap="butt" stroke-linejoin="round" stroke-opacity="1.0" stroke-width="3.0" />
            <path d=" M 516.534, 468.723 516.960, 477.853 522.013, 474.288 530.184, 468.523 538.355, 462.759 546.526, 456.994 554.697, 451.229 562.868, 445.464 571.039, 439.699 579.210, 433.934 587.381, 428.169 595.552, 422.405 603.724, 416.640 611.895, 410.875 613.997, 409.392 617.852, 406.672 " fill="none" stroke="rgb(0, 119, 0)" stroke-linecap="butt" stroke-linejoin="round" stroke-opacity="1.0" stroke-width="3.0" />
            <path d=" M 514.240, 489.582 513.711, 489.021 506.849, 481.748 503.357, 478.046 " fill="none" stroke="rgb(0, 119, 0)" stroke-linecap="butt" stroke-linejoin="round" stroke-opacity="1.0" stroke-width="3.0" />
            <path d=" M 517.493, 564.079 520.873, 561.757 526.322, 558.014 " fill="none" stroke="rgb(0, 119, 0)" stroke-linecap="butt" stroke-linejoin="round" stroke-opacity="1.0" stroke-width="3.0" />
            <path d=" M 520.415, 551.936 528.650, 546.262 536.884, 540.588 545.119, 534.914 553.353, 529.240 561.587, 523.566 569.822, 517.892 578.056, 512.218 586.291, 506.544 588.664, 504.909 " fill="none" stroke="rgb(0, 119, 0)" stroke-linecap="butt" stroke-linejoin="round" stroke-opacity="1.0" stroke-width="3.0" />
            <path d=" M 526.322, 558.014 520.415, 551.936 520.865, 561.578 520.873, 561.757 520.968, 563.781 526.933, 569.883 526.820, 567.675 526.426, 560.035 526.322, 558.014 " fill="none" stroke="rgb(0, 119, 0)" stroke-linecap="butt" stroke-linejoin="round" stroke-opacity="1.0" stroke-width="3.0" />
            <path d=" M 1103.200, 846.056 1099.185, 836.897 1097.945, 834.069 1093.929, 824.910 1089.914, 815.752 1086.140, 807.141 1080.007, 799.208 1073.890, 791.296 1067.774, 783.384 1061.658, 775.473 1055.542, 767.561 1049.426, 759.650 1043.310, 751.738 1037.194, 743.826 1031.078, 735.915 1024.962, 728.003 1022.007, 724.182 1025.860, 733.410 1029.713, 742.637 1033.566, 751.865 1037.419, 761.093 1041.272, 770.321 1045.125, 779.549 1048.978, 788.777 1052.767, 797.853 1056.620, 807.080 1059.656, 814.350 1062.278, 820.630 1066.131, 829.858 1069.572, 838.099 1073.425, 847.327 1073.575, 847.688 1076.103, 846.275 1084.833, 841.396 1086.433, 840.502 1089.418, 838.834 1090.135, 838.433 1097.945, 834.069 1106.674, 829.190 1115.403, 824.312 1124.132, 819.433 1132.862, 814.555 1141.591, 809.676 1150.320, 804.797 1157.380, 800.852 1152.973, 791.876 1148.565, 782.899 1144.158, 773.923 1139.751, 764.946 1135.344, 755.970 1130.937, 746.993 1126.529, 738.017 1122.122, 729.041 1117.715, 720.064 1113.308, 711.088 1108.901, 702.111 1104.493, 693.135 1100.086, 684.158 1095.679, 675.182 1091.272, 666.205 1086.865, 657.229 1082.457, 648.253 1078.050, 639.276 1073.643, 630.300 1069.236, 621.323 1064.828, 612.347 1060.421, 603.370 1056.014, 594.394 1051.607, 585.417 1049.712, 581.558 1045.305, 572.582 1042.690, 567.256 1038.283, 558.280 1033.875, 549.303 1029.468, 540.327 1025.807, 532.869 1020.116, 524.646 1014.425, 516.423 1008.735, 508.200 1003.044, 499.977 997.353, 491.754 991.663, 483.532 985.770, 475.016 980.079, 466.793 974.388, 458.570 968.697, 450.347 963.007, 442.125 957.316, 433.902 951.625, 425.679 945.935, 417.456 940.244, 409.233 934.553, 401.010 928.863, 392.787 923.172, 384.564 917.481, 376.341 911.791, 368.118 906.100, 359.896 900.409, 351.673 894.719, 343.450 889.028, 335.227 883.337, 327.004 877.646, 318.781 876.533, 317.172 " fill="none" stroke="rgb(0, 119, 0)" stroke-linecap="butt" stroke-linejoin="round" stroke-opacity="1.0" stroke-width="3.0" />
            <path d=" M 1025.807, 532.869 1017.327, 538.170 1013.674, 540.454 1005.194, 545.755 996.715, 551.056 988.236, 556.357 979.756, 561.658 971.277, 566.959 962.797, 572.260 954.318, 577.561 945.839, 582.862 937.359, 588.163 928.880, 593.464 920.401, 598.765 911.921, 604.066 903.442, 609.367 894.962, 614.667 886.483, 619.968 878.004, 625.269 869.524, 630.570 861.045, 635.871 852.565, 641.172 844.086, 646.473 835.607, 651.774 827.127, 657.075 818.648, 662.376 810.169, 667.677 801.689, 672.978 793.210, 678.279 784.730, 683.580 776.251, 688.881 767.772, 694.182 759.292, 699.483 750.813, 704.784 742.334, 710.085 733.854, 715.386 725.375, 720.687 716.895, 725.988 708.416, 731.288 699.937, 736.589 694.879, 739.751 " fill="none" stroke="rgb(0, 119, 0)" stroke-linecap="butt" stroke-linejoin="round" stroke-opacity="1.0" stroke-width="3.0" />
            <path d=" M 722.182, 900.616 720.509, 890.757 718.835, 880.898 717.162, 871.039 715.489, 861.180 713.815, 851.321 712.142, 841.462 710.469, 831.603 708.795, 821.744 707.122, 811.885 705.449, 802.026 703.776, 792.167 702.102, 782.308 700.429, 772.449 698.756, 762.590 697.082, 752.731 695.409, 742.872 694.879, 739.751 687.892, 732.597 680.905, 725.443 673.918, 718.289 666.931, 711.135 659.944, 703.981 652.957, 696.827 645.970, 689.673 638.983, 682.519 631.995, 675.365 625.008, 668.211 618.021, 661.056 611.034, 653.902 604.047, 646.748 597.060, 639.594 590.073, 632.440 583.086, 625.286 576.099, 618.132 569.112, 610.978 562.125, 603.824 555.138, 596.670 548.150, 589.516 543.410, 584.662 536.423, 577.508 529.436, 570.354 526.820, 567.675 520.865, 561.578 517.221, 557.847 510.233, 550.693 505.674, 546.025 498.687, 538.871 491.700, 531.716 484.713, 524.562 477.726, 517.408 475.950, 515.590 468.963, 508.436 461.976, 501.282 454.989, 494.128 448.002, 486.974 441.015, 479.820 438.530, 477.276 " fill="none" stroke="rgb(0, 119, 0)" stroke-linecap="butt" stroke-linejoin="round" stroke-opacity="1.0" stroke-width="3.0" />
            <path d=" M 1022.007, 724.182 1013.389, 729.253 1004.770, 734.325 996.152, 739.397 987.533, 744.468 978.915, 749.540 970.296, 754.611 961.678, 759.683 953.059, 764.755 944.441, 769.826 935.822, 774.898 927.204, 779.970 918.585, 785.041 909.967, 790.113 901.348, 795.184 892.730, 800.256 884.111, 805.328 875.493, 810.399 866.874, 815.471 858.256, 820.543 849.637, 825.614 841.019, 830.686 832.400, 835.758 823.782, 840.829 815.163, 845.901 806.545, 850.972 797.926, 856.044 789.308, 861.116 780.689, 866.187 772.071, 871.259 763.452, 876.331 754.834, 881.402 746.215, 886.474 737.597, 891.545 728.978, 896.617 722.182, 900.616 714.899, 893.764 714.409, 893.304 " fill="none" stroke="rgb(0, 119, 0)" stroke-linecap="butt" stroke-linejoin="round" stroke-opacity="1.0" stroke-width="3.0" />
            <path d=" M 709.862, 895.991 714.409, 893.304 712.778, 883.438 711.146, 873.572 709.515, 863.706 707.883, 853.840 706.252, 843.974 704.620, 834.108 702.989, 824.242 702.653, 822.210 " fill="none" stroke="rgb(0, 119, 0)" stroke-linecap="butt" stroke-linejoin="round" stroke-opacity="1.0" stroke-width="3.0" />
            <path d=" M 448.462, 672.517 441.121, 665.726 433.860, 659.009 " fill="none" stroke="rgb(0, 119, 0)" stroke-linecap="butt" stroke-linejoin="round" stroke-opacity="1.0" stroke-width="3.0" />
            <path d=" M 614.632, 779.503 614.582, 779.034 613.519, 769.091 612.455, 759.148 611.392, 749.204 610.328, 739.261 609.452, 731.070 601.023, 736.451 592.593, 741.831 584.164, 747.211 582.377, 748.352 582.108, 748.524 573.678, 753.904 565.249, 759.284 556.820, 764.664 548.390, 770.044 539.961, 775.424 535.290, 778.406 535.787, 788.394 536.284, 798.381 536.781, 808.369 537.278, 818.357 537.744, 827.739 546.215, 822.425 554.686, 817.110 563.157, 811.796 568.364, 808.530 576.835, 803.215 585.306, 797.901 593.777, 792.587 602.248, 787.272 610.719, 781.958 614.632, 779.503 " fill="none" stroke="rgb(0, 119, 0)" stroke-linecap="butt" stroke-linejoin="round" stroke-opacity="1.0" stroke-width="3.0" />
            <path d=" M 614.632, 779.503 607.391, 772.606 600.150, 765.709 592.909, 758.812 585.668, 751.915 582.108, 748.524 574.867, 741.627 567.626, 734.730 562.139, 729.504 561.424, 719.529 560.709, 709.555 560.511, 706.783 553.313, 699.841 546.115, 692.899 538.918, 685.956 531.720, 679.014 524.522, 672.072 517.325, 665.130 510.127, 658.188 502.929, 651.246 495.732, 644.303 488.534, 637.361 481.336, 630.419 479.127, 628.288 471.929, 621.346 464.732, 614.404 457.534, 607.462 450.336, 600.520 449.482, 599.696 " fill="none" stroke="rgb(0, 119, 0)" stroke-linecap="butt" stroke-linejoin="round" stroke-opacity="1.0" stroke-width="3.0" />
            <path d=" M 631.086, 865.657 637.004, 862.063 645.553, 856.874 654.101, 851.685 662.649, 846.495 671.197, 841.306 679.745, 836.117 688.293, 830.927 696.841, 825.738 702.653, 822.210 695.503, 815.218 688.353, 808.227 681.204, 801.235 674.054, 794.244 666.904, 787.252 659.755, 780.261 652.605, 773.269 645.455, 766.277 638.305, 759.286 631.156, 752.294 624.006, 745.303 616.856, 738.311 609.452, 731.070 " fill="none" stroke="rgb(0, 119, 0)" stroke-linecap="butt" stroke-linejoin="round" stroke-opacity="1.0" stroke-width="3.0" />
            <path d=" M 1133.966, 768.586 1139.839, 776.679 1145.712, 784.773 1151.585, 792.867 1157.380, 800.852 " fill="none" stroke="rgb(0, 119, 0)" stroke-linecap="butt" stroke-linejoin="round" stroke-opacity="1.0" stroke-width="3.0" />
            <path d=" M 436.838, 543.109 436.581, 553.106 436.325, 563.103 436.068, 573.100 435.811, 583.096 435.554, 593.093 435.297, 603.090 435.130, 609.589 434.873, 619.585 434.616, 629.582 434.359, 639.579 434.102, 649.575 433.860, 659.009 442.135, 653.393 448.793, 648.874 457.068, 643.259 465.342, 637.643 473.617, 632.028 479.127, 628.288 487.401, 622.673 495.676, 617.057 503.950, 611.442 512.225, 605.826 520.499, 600.211 528.774, 594.595 537.048, 588.980 543.410, 584.662 551.685, 579.047 559.262, 573.904 567.537, 568.289 575.811, 562.674 584.086, 557.058 592.360, 551.443 600.635, 545.827 608.909, 540.212 616.289, 535.204 " fill="none" stroke="rgb(0, 119, 0)" stroke-linecap="butt" stroke-linejoin="round" stroke-opacity="1.0" stroke-width="3.0" />
            <path d=" M 675.883, 1044.366 675.260, 1039.456 " fill="none" stroke="rgb(0, 119, 0)" stroke-linecap="butt" stroke-linejoin="round" stroke-opacity="1.0" stroke-width="3.0" />
            <path d=" M 721.439, 1013.352 718.498, 1015.014 709.793, 1019.935 701.088, 1024.856 692.382, 1029.777 683.677, 1034.698 675.260, 1039.456 667.564, 1033.071 659.868, 1026.686 652.172, 1020.300 645.063, 1014.402 641.337, 1011.311 " fill="none" stroke="rgb(0, 119, 0)" stroke-linecap="butt" stroke-linejoin="round" stroke-opacity="1.0" stroke-width="3.0" />
            <path d=" M 1073.575, 847.688 1067.323, 839.884 1061.070, 832.080 1054.817, 824.276 1050.859, 819.336 " fill="none" stroke="rgb(0, 119, 0)" stroke-linecap="butt" stroke-linejoin="round" stroke-opacity="1.0" stroke-width="3.0" />
            <path d=" M 1095.317, 850.439 1091.354, 841.258 1090.135, 838.433 1086.172, 829.252 1082.208, 820.071 1078.493, 811.464 1075.791, 805.205 1075.093, 805.600 1066.393, 810.531 1063.894, 811.948 1059.656, 814.350 1053.422, 817.884 1050.859, 819.336 1053.438, 825.627 1057.230, 834.880 1061.023, 844.133 1064.816, 853.386 1068.609, 862.639 1072.401, 871.891 1076.194, 881.144 1079.987, 890.397 1083.780, 899.650 1087.311, 908.264 " fill="none" stroke="rgb(0, 119, 0)" stroke-linecap="butt" stroke-linejoin="round" stroke-opacity="1.0" stroke-width="3.0" />
            <path d=" M 852.749, 1266.021 850.729, 1256.228 848.708, 1246.434 846.687, 1236.640 844.666, 1226.847 842.646, 1217.053 840.625, 1207.259 838.604, 1197.465 836.583, 1187.672 834.563, 1177.878 832.542, 1168.084 830.521, 1158.291 828.500, 1148.497 826.480, 1138.703 824.459, 1128.909 822.438, 1119.116 820.418, 1109.322 818.397, 1099.528 816.376, 1089.735 814.355, 1079.941 812.335, 1070.147 810.314, 1060.354 808.293, 1050.560 806.557, 1042.146 804.536, 1032.352 802.516, 1022.558 800.966, 1015.051 798.946, 1005.257 796.925, 995.463 794.904, 985.670 792.884, 975.876 792.337, 973.228 " fill="none" stroke="rgb(0, 119, 0)" stroke-linecap="butt" stroke-linejoin="round" stroke-opacity="1.0" stroke-width="3.0" />
            <path d=" M 716.107, 934.532 714.508, 924.661 712.908, 914.789 711.309, 904.918 709.862, 895.991 717.161, 902.826 724.460, 909.662 731.759, 916.497 739.058, 923.333 746.357, 930.168 753.656, 937.004 760.955, 943.839 768.254, 950.675 775.553, 957.510 782.853, 964.346 790.152, 971.181 792.337, 973.228 801.042, 968.307 809.748, 963.386 818.453, 958.465 827.158, 953.543 835.864, 948.622 844.569, 943.701 853.274, 938.780 861.980, 933.859 870.685, 928.938 879.390, 924.017 888.096, 919.096 896.801, 914.174 905.506, 909.253 914.211, 904.332 922.917, 899.411 931.622, 894.490 940.327, 889.569 949.033, 884.648 957.738, 879.726 966.443, 874.805 975.149, 869.884 983.854, 864.963 992.559, 860.042 1001.265, 855.121 1009.970, 850.200 1018.675, 845.279 1027.381, 840.357 1036.086, 835.436 1044.791, 830.515 1053.438, 825.627 1062.143, 820.706 1062.278, 820.630 1070.983, 815.709 1077.791, 811.860 1078.493, 811.464 1086.140, 807.141 " fill="none" stroke="rgb(0, 119, 0)" stroke-linecap="butt" stroke-linejoin="round" stroke-opacity="1.0" stroke-width="3.0" />
            <path d=" M 535.290, 778.406 542.683, 785.140 550.076, 791.873 557.469, 798.607 564.862, 805.340 568.364, 808.530 575.757, 815.263 583.150, 821.997 590.543, 828.731 597.936, 835.464 605.329, 842.198 612.722, 848.931 620.116, 855.665 627.447, 862.342 631.086, 865.657 632.198, 875.595 633.309, 885.533 634.421, 895.471 635.533, 905.409 636.645, 915.347 637.757, 925.285 638.869, 935.223 638.993, 936.335 639.543, 941.250 640.655, 951.188 641.766, 961.126 642.878, 971.064 643.519, 976.792 " fill="none" stroke="rgb(0, 119, 0)" stroke-linecap="butt" stroke-linejoin="round" stroke-opacity="1.0" stroke-width="3.0" />
            <path d=" M 1079.375, 563.379 1070.849, 568.604 1062.323, 573.830 1053.797, 579.055 1049.712, 581.558 1044.670, 584.648 " fill="none" stroke="rgb(0, 119, 0)" stroke-linecap="butt" stroke-linejoin="round" stroke-opacity="1.0" stroke-width="3.0" />
            <path d=" M 521.248, 459.439 515.828, 453.580 " fill="none" stroke="rgb(0, 119, 0)" stroke-linecap="butt" stroke-linejoin="round" stroke-opacity="1.0" stroke-width="3.0" />
            <path d=" M 500.876, 1210.178 500.687, 1200.180 500.497, 1190.182 500.307, 1180.184 500.117, 1170.186 499.927, 1160.188 499.737, 1150.189 499.548, 1140.191 499.358, 1130.193 499.168, 1120.195 498.978, 1110.197 498.788, 1100.198 498.598, 1090.200 498.408, 1080.202 498.219, 1070.204 498.029, 1060.206 497.839, 1050.207 497.649, 1040.209 497.459, 1030.211 497.269, 1020.213 497.079, 1010.215 496.890, 1000.216 496.700, 990.218 496.510, 980.220 496.320, 970.222 496.130, 960.224 495.940, 950.225 495.751, 940.227 495.561, 930.229 495.371, 920.231 495.133, 907.691 487.400, 901.350 479.667, 895.009 471.935, 888.669 464.202, 882.328 456.469, 875.987 448.737, 869.646 441.004, 863.305 433.271, 856.965 425.539, 850.624 417.806, 844.283 410.073, 837.942 402.341, 831.602 394.608, 825.261 386.875, 818.920 379.142, 812.579 371.410, 806.238 363.677, 799.898 355.944, 793.557 348.212, 787.216 340.479, 780.875 332.746, 774.534 325.014, 768.194 317.281, 761.853 309.548, 755.512 301.816, 749.171 294.083, 742.831 286.350, 736.490 278.618, 730.149 270.885, 723.808 263.152, 717.467 255.419, 711.127 247.687, 704.786 239.954, 698.445 232.221, 692.104 228.923, 689.400 " fill="none" stroke="rgb(0, 119, 0)" stroke-linecap="butt" stroke-linejoin="round" stroke-opacity="1.0" stroke-width="3.0" />
            <path d=" M 624.121, 923.351 625.147, 933.298 626.172, 943.246 626.745, 948.802 627.771, 958.749 628.295, 963.831 629.320, 973.779 630.346, 983.726 631.372, 993.673 632.397, 1003.620 633.423, 1013.568 634.449, 1023.515 635.474, 1033.462 636.500, 1043.410 637.525, 1053.357 638.551, 1063.304 639.577, 1073.251 640.602, 1083.199 641.628, 1093.146 642.649, 1103.048 " fill="none" stroke="rgb(0, 119, 0)" stroke-linecap="butt" stroke-linejoin="round" stroke-opacity="1.0" stroke-width="3.0" />
            <path d=" M 853.408, 985.903 844.667, 990.761 839.707, 993.518 830.967, 998.376 822.226, 1003.234 813.486, 1008.092 804.745, 1012.951 800.966, 1015.051 792.226, 1019.909 783.485, 1024.767 774.745, 1029.626 766.004, 1034.484 757.264, 1039.342 748.523, 1044.200 739.782, 1049.058 731.042, 1053.917 722.301, 1058.775 713.561, 1063.633 704.820, 1068.491 696.080, 1073.350 687.339, 1078.208 678.598, 1083.066 669.858, 1087.924 661.117, 1092.782 652.377, 1097.641 642.649, 1103.048 650.550, 1109.177 658.452, 1115.306 664.679, 1120.136 " fill="none" stroke="rgb(0, 119, 0)" stroke-linecap="butt" stroke-linejoin="round" stroke-opacity="1.0" stroke-width="3.0" />
            <path d=" M 583.133, 498.844 574.907, 504.530 566.680, 510.215 558.454, 515.901 550.228, 521.586 542.001, 527.272 533.775, 532.958 525.548, 538.643 517.322, 544.329 516.651, 544.793 508.424, 550.479 505.886, 552.233 " fill="none" stroke="rgb(0, 119, 0)" stroke-linecap="butt" stroke-linejoin="round" stroke-opacity="1.0" stroke-width="3.0" />
            <path d=" M 595.621, 512.538 587.376, 518.197 579.131, 523.857 570.887, 529.516 562.642, 535.175 554.398, 540.834 546.153, 546.494 537.909, 552.153 529.664, 557.812 526.426, 560.035 520.968, 563.781 " fill="none" stroke="rgb(0, 119, 0)" stroke-linecap="butt" stroke-linejoin="round" stroke-opacity="1.0" stroke-width="3.0" />
            <path d=" M 601.430, 518.909 593.177, 524.556 584.924, 530.203 576.671, 535.850 568.418, 541.497 560.165, 547.144 551.912, 552.791 543.659, 558.438 535.406, 564.085 526.933, 569.883 " fill="none" stroke="rgb(0, 119, 0)" stroke-linecap="butt" stroke-linejoin="round" stroke-opacity="1.0" stroke-width="3.0" />
        </g>
    </g>
</svg>
