<?xml version='1.0' encoding='ascii'?>
<svg xmlns="http://www.w3.org/2000/svg" xmlns:inkscape="http://www.inkscape.org/namespaces/inkscape" height="1500" version="1.1" width="1500">
    <g id="fressstylelayer_LineSet" inkscape:groupmode="lineset" inkscape:label="fressstylelayer_LineSet">
        <g id="strokes" inkscape:groupmode="layer" inkscape:label="strokes">
            <path d=" M 1060.508, 738.718 1066.476, 730.694 1072.444, 722.670 1078.412, 714.646 1084.380, 706.622 1090.348, 698.598 1096.316, 690.574 1102.284, 682.550 1108.252, 674.527 1114.220, 666.503 1120.188, 658.479 1126.156, 650.455 1132.124, 642.431 1138.092, 634.407 1144.060, 626.383 1150.028, 618.359 1155.996, 610.335 1161.964, 602.311 1167.932, 594.287 1173.900, 586.263 1179.868, 578.239 1185.836, 570.216 1191.804, 562.192 1197.771, 554.168 1202.763, 547.457 1195.005, 541.147 1187.246, 534.838 1179.488, 528.528 1171.730, 522.219 1163.972, 515.909 1156.213, 509.600 1148.455, 503.290 1140.697, 496.981 1132.938, 490.672 1125.180, 484.362 1117.422, 478.053 1109.664, 471.743 1101.905, 465.434 1094.147, 459.124 1086.389, 452.815 1078.631, 446.505 1070.872, 440.196 1063.114, 433.886 1055.356, 427.577 1047.598, 421.268 1039.839, 414.958 1032.081, 408.649 1024.323, 402.339 1016.564, 396.030 1008.806, 389.720 1001.048, 383.411 993.290, 377.101 985.531, 370.792 977.773, 364.483 970.015, 358.173 962.256, 351.864 954.498, 345.554 946.740, 339.245 938.982, 332.935 933.173, 328.212 924.555, 323.140 915.936, 318.068 907.318, 312.997 898.699, 307.925 890.081, 302.853 881.462, 297.781 872.844, 292.710 864.226, 287.638 855.607, 282.566 846.989, 277.495 838.370, 272.423 829.752, 267.351 821.133, 262.280 812.515, 257.208 803.896, 252.136 795.278, 247.064 786.659, 241.993 778.041, 236.921 769.422, 231.849 760.804, 226.778 752.186, 221.706 743.567, 216.634 734.949, 211.563 726.330, 206.491 717.712, 201.419 709.093, 196.348 700.475, 191.276 691.856, 186.204 683.238, 181.132 674.619, 176.061 666.001, 170.989 657.382, 165.917 648.764, 160.846 640.146, 155.774 631.527, 150.702 622.909, 145.631 614.290, 140.559 605.672, 135.487 597.053, 130.416 588.435, 125.344 579.816, 120.272 571.198, 115.200 562.579, 110.129 553.961, 105.057 542.685, 98.422 538.042, 107.278 533.399, 116.135 528.756, 124.992 524.113, 133.849 519.470, 142.705 514.827, 151.562 510.184, 160.419 505.541, 169.276 500.898, 178.132 496.255, 186.989 491.612, 195.846 486.969, 204.703 482.325, 213.559 477.682, 222.416 473.039, 231.273 468.396, 240.130 463.753, 248.986 459.110, 257.843 454.467, 266.700 449.824, 275.557 445.181, 284.413 440.538, 293.270 435.895, 302.127 431.252, 310.984 426.609, 319.840 421.965, 328.697 417.322, 337.554 416.034, 340.012 " fill="none" stroke="rgb(157, 20, 170)" stroke-linecap="butt" stroke-linejoin="round" stroke-opacity="1.0" stroke-width="3.0" />
            <path d=" M 542.685, 98.422 549.927, 105.318 557.168, 112.215 564.410, 119.111 571.651, 126.008 578.893, 132.904 586.134, 139.800 593.376, 146.697 600.617, 153.593 607.859, 160.490 615.100, 167.386 622.342, 174.283 629.583, 181.179 636.824, 188.076 644.066, 194.972 651.307, 201.869 658.549, 208.765 665.790, 215.661 673.032, 222.558 680.273, 229.454 687.515, 236.351 694.756, 243.247 701.998, 250.144 709.239, 257.040 716.481, 263.937 723.722, 270.833 730.964, 277.730 738.205, 284.626 745.447, 291.523 753.808, 299.486 " fill="none" stroke="rgb(157, 20, 170)" stroke-linecap="butt" stroke-linejoin="round" stroke-opacity="1.0" stroke-width="3.0" />
            <path d=" M 602.126, 553.392 607.255, 544.808 612.092, 536.710 617.221, 528.125 619.868, 523.693 624.997, 515.109 630.125, 506.524 635.254, 497.939 640.382, 489.354 640.625, 488.948 645.754, 480.363 650.882, 471.778 656.011, 463.193 659.867, 456.738 661.988, 453.188 667.116, 444.603 672.245, 436.018 677.373, 427.433 682.502, 418.849 685.370, 414.047 690.499, 405.463 695.627, 396.878 700.756, 388.293 705.884, 379.708 711.013, 371.123 716.141, 362.539 721.270, 353.954 726.398, 345.369 731.526, 336.784 736.655, 328.199 741.784, 319.615 746.912, 311.030 752.040, 302.445 753.808, 299.486 762.562, 304.321 771.315, 309.156 780.069, 313.990 788.822, 318.825 797.576, 323.660 806.329, 328.495 815.083, 333.330 823.837, 338.165 832.590, 342.999 841.344, 347.834 850.097, 352.669 858.851, 357.504 867.604, 362.339 876.358, 367.173 885.111, 372.008 893.865, 376.843 902.618, 381.678 911.372, 386.513 920.125, 391.348 928.879, 396.182 937.633, 401.017 946.386, 405.852 955.140, 410.687 963.893, 415.522 972.647, 420.357 981.400, 425.192 990.154, 430.026 998.907, 434.861 1007.661, 439.696 1016.414, 444.531 1025.168, 449.366 1033.921, 454.200 1042.675, 459.035 1051.428, 463.870 1060.182, 468.705 1068.936, 473.540 1077.689, 478.375 1086.443, 483.209 1095.196, 488.044 1103.950, 492.879 1112.703, 497.714 1121.457, 502.549 1130.210, 507.384 1138.964, 512.218 1147.717, 517.053 1156.471, 521.888 1165.224, 526.723 1173.978, 531.558 1182.732, 536.393 1191.485, 541.227 1202.763, 547.457 " fill="none" stroke="rgb(157, 20, 170)" stroke-linecap="butt" stroke-linejoin="round" stroke-opacity="1.0" stroke-width="3.0" />
            <path d=" M 399.149, 332.243 404.192, 340.878 409.235, 349.513 410.193, 351.154 415.236, 359.789 420.278, 368.424 425.321, 377.060 430.364, 385.695 435.407, 394.331 440.450, 402.966 445.492, 411.601 450.535, 420.237 455.578, 428.872 460.621, 437.508 465.664, 446.143 470.706, 454.778 475.749, 463.414 480.792, 472.049 485.835, 480.685 490.878, 489.320 494.990, 496.362 500.033, 504.998 505.076, 513.633 508.334, 519.212 513.376, 527.847 518.419, 536.483 523.462, 545.118 528.505, 553.754 530.609, 557.357 535.652, 565.992 540.695, 574.628 545.737, 583.263 546.293, 584.215 550.782, 591.902 555.825, 600.538 560.432, 608.426 565.475, 617.062 570.518, 625.697 572.653, 629.354 577.696, 637.990 582.739, 646.625 587.782, 655.261 592.825, 663.896 597.867, 672.531 602.910, 681.167 607.953, 689.802 612.996, 698.438 618.039, 707.073 621.112, 712.335 " fill="none" stroke="rgb(157, 20, 170)" stroke-linecap="butt" stroke-linejoin="round" stroke-opacity="1.0" stroke-width="3.0" />
            <path d=" M 203.189, 1379.410 208.498, 1370.936 213.807, 1362.462 219.116, 1353.987 224.425, 1345.513 229.734, 1337.039 235.043, 1328.565 240.352, 1320.090 245.662, 1311.616 250.971, 1303.142 256.280, 1294.668 261.589, 1286.193 266.898, 1277.719 272.207, 1269.245 277.516, 1260.771 282.826, 1252.296 288.135, 1243.822 293.444, 1235.348 298.753, 1226.874 304.062, 1218.399 309.371, 1209.925 314.680, 1201.451 319.989, 1192.977 325.299, 1184.502 330.608, 1176.028 335.917, 1167.554 341.226, 1159.079 347.752, 1148.664 353.061, 1140.189 358.370, 1131.715 363.679, 1123.241 366.551, 1118.656 371.861, 1110.182 377.170, 1101.707 382.479, 1093.233 387.788, 1084.759 393.097, 1076.285 397.387, 1069.437 402.696, 1060.963 402.751, 1060.876 408.060, 1052.402 413.369, 1043.927 418.678, 1035.453 423.987, 1026.979 429.296, 1018.505 434.605, 1010.030 439.914, 1001.556 445.224, 993.082 450.533, 984.608 455.842, 976.133 461.151, 967.659 464.761, 961.898 470.070, 953.423 470.587, 952.598 475.896, 944.124 481.205, 935.650 486.514, 927.175 491.823, 918.701 497.132, 910.227 502.441, 901.753 507.751, 893.278 509.591, 890.341 514.900, 881.867 520.209, 873.393 525.518, 864.919 530.827, 856.444 536.136, 847.970 541.445, 839.496 546.755, 831.021 552.064, 822.547 557.373, 814.073 562.682, 805.599 567.991, 797.124 573.300, 788.650 578.609, 780.176 583.919, 771.702 586.795, 767.111 590.967, 760.451 596.276, 751.976 601.586, 743.502 606.895, 735.028 607.298, 734.383 612.608, 725.909 617.917, 717.435 621.112, 712.335 630.588, 715.529 640.064, 718.724 649.540, 721.918 659.016, 725.112 668.492, 728.306 677.968, 731.500 687.445, 734.695 696.921, 737.889 704.642, 740.491 714.118, 743.686 723.594, 746.880 733.070, 750.074 742.547, 753.268 752.023, 756.462 761.499, 759.657 770.975, 762.851 780.451, 766.045 789.927, 769.239 799.403, 772.433 808.880, 775.627 818.356, 778.822 826.729, 781.644 836.205, 784.838 845.681, 788.032 855.157, 791.227 859.427, 792.666 868.903, 795.860 878.415, 799.066 887.891, 802.260 897.367, 805.455 906.843, 808.649 916.319, 811.843 925.796, 815.037 935.272, 818.231 944.748, 821.425 954.224, 824.620 963.700, 827.814 973.176, 831.008 982.652, 834.202 988.119, 836.045 997.596, 839.239 998.867, 839.668 1007.092, 842.440 1016.568, 845.634 1026.045, 848.829 1035.521, 852.023 1044.997, 855.217 1054.473, 858.411 1063.949, 861.605 1073.425, 864.800 1082.901, 867.994 1092.378, 871.188 1101.854, 874.382 1105.532, 875.622 1115.009, 878.816 1124.485, 882.010 1133.961, 885.205 1143.437, 888.399 1152.913, 891.593 1162.389, 894.787 1171.865, 897.981 1181.342, 901.176 1190.818, 904.370 1200.294, 907.564 1209.770, 910.758 1219.246, 913.952 1224.262, 915.643 " fill="none" stroke="rgb(157, 20, 170)" stroke-linecap="butt" stroke-linejoin="round" stroke-opacity="1.0" stroke-width="3.0" />
            <path d=" M 416.034, 340.012 406.949, 335.832 399.149, 332.243 394.540, 341.117 389.931, 349.992 385.322, 358.866 380.713, 367.741 376.104, 376.615 371.495, 385.490 366.886, 394.364 362.277, 403.239 357.668, 412.113 353.059, 420.987 348.450, 429.862 343.841, 438.736 339.232, 447.611 334.622, 456.485 330.013, 465.360 325.404, 474.234 320.795, 483.109 316.186, 491.983 311.577, 500.858 306.968, 509.732 302.359, 518.607 297.750, 527.481 293.141, 536.356 288.532, 545.230 283.923, 554.105 279.314, 562.979 274.705, 571.854 270.096, 580.728 265.486, 589.603 260.877, 598.477 256.268, 607.352 251.659, 616.226 247.050, 625.101 242.441, 633.975 237.832, 642.850 233.223, 651.724 228.614, 660.599 224.005, 669.473 219.396, 678.348 214.787, 687.222 210.178, 696.097 205.569, 704.971 200.960, 713.846 196.350, 722.720 191.741, 731.595 187.132, 740.469 182.523, 749.343 177.914, 758.218 173.305, 767.092 168.696, 775.967 164.087, 784.841 159.478, 793.716 154.869, 802.590 150.260, 811.465 145.651, 820.339 141.042, 829.214 136.433, 838.088 131.824, 846.963 127.215, 855.837 123.263, 863.445 124.794, 873.328 126.325, 883.210 127.855, 893.092 129.386, 902.974 130.917, 912.856 132.448, 922.738 133.979, 932.620 135.509, 942.503 137.040, 952.385 138.571, 962.267 140.102, 972.149 141.633, 982.031 143.163, 991.913 144.694, 1001.795 146.225, 1011.678 147.756, 1021.560 149.287, 1031.442 150.817, 1041.324 152.348, 1051.206 153.879, 1061.088 155.410, 1070.970 156.941, 1080.853 158.471, 1090.735 160.002, 1100.617 161.533, 1110.499 163.064, 1120.381 164.594, 1130.263 166.125, 1140.145 167.656, 1150.028 169.187, 1159.910 170.718, 1169.792 172.248, 1179.674 173.779, 1189.556 175.310, 1199.438 176.841, 1209.320 178.372, 1219.203 179.902, 1229.085 181.433, 1238.967 182.964, 1248.849 184.495, 1258.731 186.026, 1268.613 187.556, 1278.495 189.087, 1288.378 190.618, 1298.260 192.149, 1308.142 193.680, 1318.024 195.210, 1327.906 196.741, 1337.788 198.272, 1347.670 199.803, 1357.552 201.333, 1367.435 203.189, 1379.410 213.182, 1379.762 223.176, 1380.114 233.170, 1380.466 243.164, 1380.817 253.158, 1381.169 263.151, 1381.521 273.145, 1381.873 283.139, 1382.224 293.133, 1382.576 303.127, 1382.928 313.120, 1383.280 323.114, 1383.631 333.108, 1383.983 343.102, 1384.335 353.096, 1384.687 363.090, 1385.038 373.083, 1385.390 383.077, 1385.742 393.071, 1386.094 403.065, 1386.445 413.059, 1386.797 423.052, 1387.149 433.046, 1387.501 443.040, 1387.852 453.034, 1388.204 463.028, 1388.556 473.021, 1388.908 483.015, 1389.259 493.009, 1389.611 503.003, 1389.963 512.997, 1390.315 522.991, 1390.667 532.984, 1391.018 542.978, 1391.370 552.972, 1391.722 562.966, 1392.074 572.960, 1392.425 582.953, 1392.777 592.947, 1393.129 602.941, 1393.481 612.935, 1393.832 622.929, 1394.184 632.922, 1394.536 642.916, 1394.888 652.910, 1395.239 662.904, 1395.591 672.898, 1395.943 682.891, 1396.295 692.885, 1396.646 702.879, 1396.998 712.873, 1397.350 722.867, 1397.702 732.861, 1398.053 742.854, 1398.405 752.848, 1398.757 762.842, 1399.109 772.836, 1399.460 782.830, 1399.812 792.823, 1400.164 802.817, 1400.516 812.811, 1400.868 824.411, 1401.276 830.768, 1393.556 837.124, 1385.836 843.480, 1378.116 849.837, 1370.396 856.193, 1362.676 862.549, 1354.956 868.906, 1347.236 875.262, 1339.516 881.618, 1331.796 887.974, 1324.076 894.331, 1316.356 900.687, 1308.636 907.043, 1300.916 913.400, 1293.197 919.756, 1285.477 926.112, 1277.757 932.468, 1270.037 938.825, 1262.317 945.181, 1254.597 951.537, 1246.877 957.894, 1239.157 964.250, 1231.437 970.606, 1223.717 976.962, 1215.997 983.319, 1208.277 989.675, 1200.557 996.031, 1192.837 1002.388, 1185.117 1008.744, 1177.397 1015.100, 1169.677 1021.456, 1161.957 1027.813, 1154.237 1034.169, 1146.518 1040.525, 1138.798 1046.882, 1131.078 1053.238, 1123.358 1059.594, 1115.638 1065.950, 1107.918 1072.307, 1100.198 1078.663, 1092.478 1085.019, 1084.758 1091.376, 1077.038 1097.732, 1069.318 1104.088, 1061.598 1110.444, 1053.878 1116.801, 1046.158 1123.157, 1038.438 1129.513, 1030.718 1135.870, 1022.998 1142.226, 1015.278 1148.582, 1007.558 1154.938, 999.838 1161.295, 992.119 1167.651, 984.399 1174.007, 976.679 1180.364, 968.959 1186.720, 961.239 1193.076, 953.519 1199.432, 945.799 1205.789, 938.079 1212.145, 930.359 1218.501, 922.639 1224.262, 915.643 1217.469, 908.304 1210.676, 900.965 1203.884, 893.626 1197.091, 886.287 1190.299, 878.948 1183.506, 871.609 1176.713, 864.270 1169.921, 856.931 1163.128, 849.592 1156.336, 842.253 1149.543, 834.914 1142.750, 827.575 1135.958, 820.236 1129.165, 812.897 1122.373, 805.558 1115.580, 798.219 1108.787, 790.880 1101.995, 783.541 1095.202, 776.202 1088.410, 768.863 1081.617, 761.524 1074.824, 754.185 1068.032, 746.846 1060.508, 738.718 " fill="none" stroke="rgb(157, 20, 170)" stroke-linecap="butt" stroke-linejoin="round" stroke-opacity="1.0" stroke-width="3.0" />
            <path d=" M 749.310, 578.111 758.528, 581.986 767.747, 585.861 776.965, 589.736 786.184, 593.612 795.403, 597.487 804.621, 601.362 813.840, 605.237 823.058, 609.112 826.462, 610.543 835.681, 614.418 844.899, 618.294 854.118, 622.169 863.336, 626.044 872.555, 629.919 881.774, 633.794 890.992, 637.670 900.211, 641.545 909.429, 645.420 918.648, 649.295 927.867, 653.171 937.085, 657.046 946.304, 660.921 950.612, 662.732 " fill="none" stroke="rgb(157, 20, 170)" stroke-linecap="butt" stroke-linejoin="round" stroke-opacity="1.0" stroke-width="3.0" />
            <path d=" M 913.185, 716.064 918.930, 707.878 924.674, 699.693 930.419, 691.507 936.163, 683.322 941.907, 675.136 947.652, 666.951 950.612, 662.732 943.958, 655.268 937.303, 647.804 930.648, 640.340 923.993, 632.876 917.052, 625.092 " fill="none" stroke="rgb(157, 20, 170)" stroke-linecap="butt" stroke-linejoin="round" stroke-opacity="1.0" stroke-width="3.0" />
            <path d=" M 736.190, 561.185 742.316, 569.089 748.443, 576.992 749.305, 578.105 749.310, 578.111 743.935, 586.543 741.592, 590.218 736.217, 598.651 730.842, 607.084 725.468, 615.516 720.093, 623.949 716.356, 629.811 " fill="none" stroke="rgb(157, 20, 170)" stroke-linecap="butt" stroke-linejoin="round" stroke-opacity="1.0" stroke-width="3.0" />
        </g>
    </g>
    <g id="fressstylelayer_hidden lines" inkscape:groupmode="lineset" inkscape:label="fressstylelayer_hidden lines" xmlns:inkscape="http://www.inkscape.org/namespaces/inkscape">
        <g id="strokes" inkscape:groupmode="layer" inkscape:label="strokes" xmlns:inkscape="http://www.inkscape.org/namespaces/inkscape">
            <path d=" M 880.855, 693.976 872.090, 690.557 862.774, 686.923 853.458, 683.289 844.141, 679.655 834.825, 676.021 825.509, 672.387 823.490, 671.600 821.913, 670.985 812.597, 667.351 803.281, 663.717 793.731, 659.992 784.414, 656.358 775.098, 652.724 768.620, 650.197 759.304, 646.563 749.987, 642.929 743.943, 640.571 734.627, 636.938 730.007, 635.135 720.691, 631.501 716.356, 629.811 707.040, 626.177 697.724, 622.543 688.407, 618.909 679.091, 615.275 669.775, 611.641 660.458, 608.007 651.142, 604.373 641.826, 600.739 632.509, 597.105 623.193, 593.471 613.877, 589.837 604.560, 586.203 595.244, 582.569 586.690, 579.232 579.482, 576.420 570.165, 572.786 563.748, 570.283 563.583, 570.219 563.483, 570.180 554.167, 566.546 544.851, 562.912 535.534, 559.278 530.609, 557.357 521.293, 553.723 511.971, 550.087 506.987, 558.757 502.048, 567.350 497.065, 576.019 492.081, 584.689 487.098, 593.359 486.891, 593.719 481.908, 602.389 476.924, 611.059 472.259, 619.176 467.275, 627.846 462.292, 636.516 461.712, 637.524 456.729, 646.194 451.746, 654.864 446.762, 663.533 441.779, 672.203 436.796, 680.873 431.812, 689.543 426.829, 698.213 421.846, 706.883 416.862, 715.553 411.879, 724.222 406.896, 732.892 401.912, 741.562 396.929, 750.232 391.946, 758.902 390.639, 761.174 385.656, 769.844 381.645, 776.821 381.186, 777.622 376.202, 786.291 374.388, 789.448 369.404, 798.118 364.421, 806.788 359.438, 815.458 356.114, 821.240 351.131, 829.910 348.124, 835.140 343.141, 843.810 338.158, 852.480 333.080, 861.314 328.096, 869.984 326.299, 873.110 321.316, 881.780 316.333, 890.450 315.649, 891.639 310.666, 900.309 308.309, 904.409 303.326, 913.079 298.342, 921.749 293.359, 930.419 291.135, 934.289 293.688, 943.957 296.241, 953.626 298.795, 963.294 301.348, 972.963 303.902, 982.631 306.455, 992.300 309.009, 1001.968 311.562, 1011.637 314.116, 1021.305 316.669, 1030.974 319.223, 1040.642 321.776, 1050.311 324.330, 1059.979 326.883, 1069.648 329.437, 1079.316 331.990, 1088.985 334.544, 1098.653 337.097, 1108.322 338.791, 1114.735 341.344, 1124.403 343.898, 1134.072 346.451, 1143.740 347.752, 1148.664 350.305, 1158.332 352.858, 1168.001 355.412, 1177.669 357.965, 1187.338 360.519, 1197.006 363.072, 1206.675 365.626, 1216.343 368.179, 1226.012 370.733, 1235.680 373.286, 1245.349 375.840, 1255.017 378.393, 1264.686 380.947, 1274.354 383.500, 1284.023 386.054, 1293.691 388.607, 1303.360 391.333, 1313.682 401.313, 1314.323 411.292, 1314.965 421.271, 1315.606 431.251, 1316.247 441.230, 1316.889 451.210, 1317.530 461.189, 1318.172 471.168, 1318.813 481.148, 1319.454 491.127, 1320.096 501.107, 1320.737 511.086, 1321.379 521.065, 1322.020 531.045, 1322.662 541.024, 1323.303 551.004, 1323.944 560.983, 1324.586 570.963, 1325.227 580.942, 1325.869 590.921, 1326.510 600.901, 1327.152 610.880, 1327.793 620.860, 1328.434 630.839, 1329.076 640.818, 1329.717 650.798, 1330.359 660.777, 1331.000 670.757, 1331.642 680.736, 1332.283 690.715, 1332.924 700.695, 1333.566 710.674, 1334.207 720.654, 1334.849 730.633, 1335.490 740.612, 1336.131 750.592, 1336.773 760.571, 1337.414 770.551, 1338.056 780.530, 1338.697 790.510, 1339.339 794.851, 1339.618 804.830, 1340.259 814.809, 1340.900 824.789, 1341.542 825.394, 1341.581 831.682, 1333.805 837.970, 1326.030 844.258, 1318.254 850.546, 1310.478 856.834, 1302.703 863.122, 1294.927 869.410, 1287.152 875.698, 1279.376 881.987, 1271.600 888.275, 1263.825 894.563, 1256.049 900.851, 1248.274 907.139, 1240.498 913.427, 1232.722 919.715, 1224.947 926.003, 1217.171 932.291, 1209.396 938.579, 1201.620 944.867, 1193.844 951.156, 1186.069 957.444, 1178.293 963.732, 1170.518 970.020, 1162.742 976.308, 1154.966 982.596, 1147.191 988.884, 1139.415 995.172, 1131.640 1001.460, 1123.864 1007.748, 1116.088 1014.036, 1108.313 1020.325, 1100.537 1026.613, 1092.762 1032.901, 1084.986 1039.189, 1077.210 1045.477, 1069.435 1051.765, 1061.659 1058.053, 1053.884 1064.341, 1046.108 1070.629, 1038.332 1076.917, 1030.557 1083.205, 1022.781 1089.494, 1015.006 1095.782, 1007.230 1102.070, 999.454 1108.358, 991.679 1115.172, 983.252 1108.878, 975.481 1102.584, 967.711 1096.290, 959.940 1089.995, 952.170 1083.701, 944.399 1077.407, 936.629 1071.113, 928.858 1067.421, 924.301 1061.127, 916.530 1054.833, 908.759 1048.538, 900.989 1042.244, 893.218 1035.950, 885.448 1029.655, 877.677 1023.361, 869.906 1017.067, 862.136 1010.773, 854.365 1004.218, 846.273 998.867, 839.668 992.573, 831.897 991.860, 831.016 989.921, 828.623 983.627, 820.853 977.332, 813.082 971.038, 805.311 964.744, 797.541 958.450, 789.770 952.155, 782.000 946.621, 775.168 940.327, 767.397 934.033, 759.627 927.739, 751.856 921.444, 744.085 915.150, 736.315 908.856, 728.544 906.483, 725.614 900.188, 717.844 893.894, 710.073 887.600, 702.303 881.305, 694.532 880.855, 693.976 " fill="none" stroke="rgb(0, 119, 0)" stroke-linecap="butt" stroke-linejoin="round" stroke-opacity="1.0" stroke-width="3.0" />
            <path d=" M 511.971, 550.087 516.925, 558.773 521.879, 567.460 526.833, 576.147 527.306, 576.977 532.260, 585.664 537.214, 594.351 542.168, 603.037 543.171, 604.795 548.125, 613.482 552.674, 621.460 557.628, 630.146 562.582, 638.833 564.710, 642.564 569.664, 651.250 574.618, 659.937 579.572, 668.624 584.526, 677.310 589.480, 685.997 594.434, 694.684 599.388, 703.370 604.342, 712.057 609.296, 720.744 614.250, 729.430 619.203, 738.117 624.157, 746.804 629.111, 755.490 634.065, 764.177 639.019, 772.864 640.795, 775.978 645.749, 784.664 650.703, 793.351 650.827, 793.567 655.781, 802.254 660.734, 810.940 665.688, 819.627 666.425, 820.919 671.379, 829.606 676.333, 838.292 681.287, 846.979 685.487, 854.344 690.441, 863.031 691.919, 865.623 " fill="none" stroke="rgb(0, 119, 0)" stroke-linecap="butt" stroke-linejoin="round" stroke-opacity="1.0" stroke-width="3.0" />
            <path d=" M 391.333, 1313.682 396.904, 1305.377 402.475, 1297.073 408.047, 1288.769 413.618, 1280.464 419.189, 1272.160 424.760, 1263.855 430.331, 1255.551 435.902, 1247.247 441.473, 1238.942 447.044, 1230.638 452.615, 1222.333 458.186, 1214.029 463.758, 1205.725 469.329, 1197.420 474.900, 1189.116 480.471, 1180.812 486.042, 1172.507 491.613, 1164.203 497.184, 1155.898 502.755, 1147.594 508.699, 1138.734 514.270, 1130.429 519.841, 1122.125 524.129, 1115.734 529.700, 1107.429 530.183, 1106.710 535.754, 1098.406 541.325, 1090.101 545.026, 1084.585 550.597, 1076.280 556.168, 1067.976 561.739, 1059.671 567.310, 1051.367 572.881, 1043.063 578.453, 1034.758 584.024, 1026.454 589.595, 1018.150 595.166, 1009.845 600.737, 1001.541 605.902, 993.842 607.098, 992.060 612.669, 983.755 618.240, 975.451 620.707, 971.773 626.278, 963.469 631.849, 955.165 637.420, 946.860 642.991, 938.556 648.562, 930.252 651.849, 925.352 657.420, 917.048 662.991, 908.743 668.562, 900.439 674.133, 892.135 679.705, 883.830 685.276, 875.526 686.037, 874.391 691.608, 866.086 691.919, 865.623 701.554, 868.300 711.189, 870.978 720.824, 873.656 730.459, 876.333 740.094, 879.011 749.728, 881.689 758.104, 884.017 767.739, 886.694 777.374, 889.372 787.009, 892.050 796.644, 894.727 806.279, 897.405 808.384, 897.990 818.019, 900.668 827.654, 903.346 832.963, 904.821 842.597, 907.499 852.232, 910.176 861.867, 912.854 871.502, 915.532 881.137, 918.209 890.772, 920.887 900.406, 923.565 910.041, 926.242 919.150, 928.774 928.785, 931.452 938.339, 934.107 947.973, 936.784 957.608, 939.462 967.243, 942.140 976.878, 944.818 986.513, 947.495 996.148, 950.173 1005.782, 952.851 1015.417, 955.528 1025.052, 958.206 1031.862, 960.099 1038.048, 961.818 1047.683, 964.495 1057.318, 967.173 1066.953, 969.851 1076.587, 972.529 1086.222, 975.206 1095.857, 977.884 1105.492, 980.562 1115.172, 983.252 " fill="none" stroke="rgb(0, 119, 0)" stroke-linecap="butt" stroke-linejoin="round" stroke-opacity="1.0" stroke-width="3.0" />
            <path d=" M 291.135, 934.289 300.924, 936.328 310.714, 938.368 320.504, 940.408 330.294, 942.448 340.083, 944.487 348.331, 946.206 358.121, 948.246 360.065, 948.651 369.855, 950.691 379.645, 952.730 389.435, 954.770 399.225, 956.810 409.014, 958.850 418.804, 960.890 428.594, 962.929 438.384, 964.969 448.173, 967.009 457.963, 969.049 467.753, 971.088 478.553, 973.339 488.343, 975.379 498.133, 977.418 507.922, 979.458 517.712, 981.498 527.502, 983.538 537.292, 985.577 547.082, 987.617 556.871, 989.657 566.661, 991.697 576.451, 993.737 586.241, 995.776 596.030, 997.816 602.560, 999.177 612.350, 1001.216 622.140, 1003.256 631.930, 1005.296 637.374, 1006.430 647.164, 1008.470 656.954, 1010.510 661.860, 1011.532 " fill="none" stroke="rgb(0, 119, 0)" stroke-linecap="butt" stroke-linejoin="round" stroke-opacity="1.0" stroke-width="3.0" />
            <path d=" M 880.855, 693.976 875.178, 702.208 869.501, 710.441 863.824, 718.673 862.047, 721.249 856.370, 729.481 850.693, 737.713 845.016, 745.945 839.338, 754.178 833.661, 762.410 827.984, 770.642 823.511, 777.128 817.834, 785.361 815.765, 788.361 810.087, 796.594 804.410, 804.826 798.733, 813.058 793.056, 821.290 787.379, 829.523 781.702, 837.755 776.024, 845.987 771.867, 852.016 766.190, 860.248 760.513, 868.480 754.836, 876.712 754.204, 877.628 748.527, 885.860 742.850, 894.092 737.173, 902.324 731.496, 910.557 725.818, 918.789 720.141, 927.021 714.464, 935.253 711.216, 939.963 705.539, 948.195 699.862, 956.427 694.185, 964.660 688.508, 972.892 682.831, 981.124 677.153, 989.356 671.476, 997.589 666.595, 1004.667 665.401, 1006.397 661.860, 1011.532 666.300, 1020.493 670.740, 1029.453 675.179, 1038.414 679.619, 1047.374 684.059, 1056.334 688.499, 1065.295 692.938, 1074.255 697.378, 1083.216 700.604, 1089.725 705.043, 1098.686 709.483, 1107.646 713.923, 1116.606 718.362, 1125.567 722.802, 1134.527 724.018, 1136.981 728.458, 1145.941 728.906, 1146.847 729.597, 1148.240 734.036, 1157.200 738.476, 1166.161 742.916, 1175.121 747.355, 1184.082 751.795, 1193.042 756.235, 1202.002 760.675, 1210.963 765.114, 1219.923 769.554, 1228.884 773.994, 1237.844 778.434, 1246.804 782.873, 1255.765 787.313, 1264.725 791.753, 1273.686 796.193, 1282.646 800.632, 1291.606 805.072, 1300.567 809.512, 1309.527 813.951, 1318.488 818.391, 1327.448 822.831, 1336.408 825.394, 1341.581 " fill="none" stroke="rgb(0, 119, 0)" stroke-linecap="butt" stroke-linejoin="round" stroke-opacity="1.0" stroke-width="3.0" />
            <path d=" M 416.034, 340.012 411.391, 348.869 410.193, 351.154 405.550, 360.010 400.907, 368.867 396.264, 377.724 391.620, 386.581 386.977, 395.437 382.334, 404.294 377.691, 413.151 373.048, 422.008 368.405, 430.864 363.762, 439.721 359.119, 448.578 354.476, 457.435 349.833, 466.291 345.190, 475.148 340.547, 484.005 335.904, 492.862 331.261, 501.718 326.617, 510.575 321.974, 519.432 317.331, 528.288 312.688, 537.145 308.045, 546.002 303.402, 554.859 301.464, 558.556 304.912, 567.942 308.361, 577.329 311.376, 585.538 314.825, 594.925 318.273, 604.312 321.721, 613.698 325.169, 623.085 328.618, 632.472 332.066, 641.858 335.514, 651.245 338.962, 660.632 342.411, 670.018 345.859, 679.405 349.307, 688.792 352.755, 698.178 356.204, 707.565 359.652, 716.952 363.100, 726.338 364.034, 728.882 365.173, 731.980 368.621, 741.366 372.069, 750.753 373.787, 755.430 374.165, 756.458 377.613, 765.845 381.061, 775.232 381.645, 776.821 385.094, 786.208 387.611, 793.059 391.059, 802.446 394.507, 811.833 397.955, 821.219 401.404, 830.606 402.354, 833.194 405.803, 842.581 408.680, 850.413 412.128, 859.800 414.776, 867.007 424.486, 869.396 434.196, 871.786 440.105, 873.240 449.815, 875.630 453.117, 876.443 462.827, 878.832 472.537, 881.222 482.247, 883.612 488.620, 885.180 492.242, 886.072 501.952, 888.461 509.591, 890.341 519.301, 892.731 529.011, 895.121 530.840, 895.571 533.899, 896.324 543.610, 898.714 553.320, 901.103 563.030, 903.493 572.740, 905.883 582.451, 908.273 592.145, 910.659 601.855, 913.048 611.566, 915.438 617.107, 916.802 626.817, 919.192 636.528, 921.581 640.051, 922.449 646.854, 924.123 651.382, 925.237 651.423, 925.247 651.849, 925.352 652.057, 925.403 655.291, 926.199 665.001, 928.589 674.711, 930.979 678.824, 931.991 688.534, 934.381 698.245, 936.770 707.955, 939.160 711.216, 939.963 720.927, 942.353 730.637, 944.742 737.898, 946.529 747.608, 948.919 757.319, 951.309 759.360, 951.811 768.662, 954.101 778.373, 956.490 788.083, 958.880 793.340, 960.174 803.050, 962.564 812.760, 964.953 822.470, 967.343 825.911, 968.190 830.990, 969.440 840.700, 971.830 850.410, 974.219 860.121, 976.609 869.831, 978.999 879.943, 981.488 885.911, 973.464 891.879, 965.440 897.847, 957.416 903.815, 949.392 905.349, 947.330 911.317, 939.306 917.285, 931.282 919.150, 928.774 925.118, 920.750 931.086, 912.726 937.054, 904.702 943.022, 896.678 948.990, 888.654 954.958, 880.630 960.926, 872.607 962.861, 870.005 968.829, 861.981 974.797, 853.957 980.765, 845.933 986.733, 837.909 988.119, 836.045 991.860, 831.016 992.887, 829.635 998.855, 821.611 999.366, 820.924 1005.334, 812.900 1011.302, 804.876 1015.017, 799.881 1020.985, 791.857 1026.953, 783.833 1032.921, 775.810 1038.889, 767.786 1044.857, 759.762 1050.372, 752.347 1056.340, 744.323 1060.508, 738.718 " fill="none" stroke="rgb(0, 119, 0)" stroke-linecap="butt" stroke-linejoin="round" stroke-opacity="1.0" stroke-width="3.0" />
            <path d=" M 301.464, 558.556 310.888, 561.900 320.312, 565.245 329.736, 568.590 339.160, 571.935 348.584, 575.280 358.008, 578.625 367.432, 581.970 376.856, 585.315 386.280, 588.659 395.704, 592.004 405.128, 595.349 414.552, 598.694 423.976, 602.039 433.557, 605.440 436.038, 606.320 445.462, 609.665 454.904, 613.016 464.328, 616.361 472.259, 619.176 481.683, 622.521 491.107, 625.866 500.531, 629.211 509.955, 632.556 519.379, 635.900 523.867, 637.493 533.291, 640.838 539.771, 643.138 549.195, 646.483 558.619, 649.828 560.038, 650.332 569.462, 653.677 578.886, 657.022 588.310, 660.366 597.734, 663.711 607.158, 667.056 616.582, 670.401 626.006, 673.746 635.430, 677.091 644.854, 680.436 654.278, 683.781 663.702, 687.126 673.126, 690.470 682.550, 693.815 691.974, 697.160 695.168, 698.294 " fill="none" stroke="rgb(0, 119, 0)" stroke-linecap="butt" stroke-linejoin="round" stroke-opacity="1.0" stroke-width="3.0" />
            <path d=" M 933.173, 328.212 927.764, 336.622 922.355, 345.033 916.946, 353.444 911.537, 361.855 906.128, 370.266 900.719, 378.676 895.310, 387.087 889.900, 395.498 884.491, 403.909 879.082, 412.320 873.673, 420.730 868.264, 429.141 862.855, 437.552 857.446, 445.963 852.037, 454.374 846.628, 462.784 841.219, 471.195 835.809, 479.606 830.400, 488.017 824.991, 496.428 819.582, 504.839 814.173, 513.249 809.227, 520.940 807.130, 524.201 801.721, 532.612 796.312, 541.023 790.902, 549.433 788.093, 553.802 782.684, 562.213 777.275, 570.624 771.866, 579.034 767.535, 585.768 762.126, 594.179 759.828, 597.753 754.419, 606.164 749.009, 614.574 743.600, 622.985 738.191, 631.396 734.627, 636.938 729.218, 645.348 724.780, 652.250 719.371, 660.661 718.732, 661.653 713.323, 670.064 707.914, 678.475 702.505, 686.886 697.096, 695.297 695.168, 698.294 700.633, 706.669 706.097, 715.044 711.562, 723.419 713.672, 726.653 719.136, 735.028 724.601, 743.403 730.065, 751.778 735.530, 760.153 740.994, 768.528 741.857, 769.851 747.321, 778.226 752.786, 786.601 758.250, 794.976 763.715, 803.351 769.179, 811.726 774.643, 820.101 780.108, 828.476 785.572, 836.851 791.037, 845.226 796.501, 853.601 801.090, 860.634 806.554, 869.009 812.019, 877.384 817.272, 885.435 822.737, 893.810 828.201, 902.185 831.371, 907.044 836.836, 915.419 842.300, 923.794 847.765, 932.169 853.229, 940.544 858.693, 948.919 864.158, 957.294 869.622, 965.669 875.087, 974.044 879.943, 981.488 " fill="none" stroke="rgb(0, 119, 0)" stroke-linecap="butt" stroke-linejoin="round" stroke-opacity="1.0" stroke-width="3.0" />
            <path d=" M 826.457, 610.537 817.239, 606.662 808.020, 602.787 801.429, 600.016 792.210, 596.141 782.991, 592.266 773.773, 588.390 767.535, 585.768 758.316, 581.893 749.305, 578.105 740.087, 574.230 730.868, 570.354 730.498, 570.199 721.279, 566.324 712.061, 562.448 702.842, 558.573 693.623, 554.698 684.405, 550.823 675.186, 546.947 670.893, 545.142 662.839, 541.757 653.620, 537.882 644.401, 534.006 635.183, 530.131 625.964, 526.256 624.607, 525.685 619.868, 523.693 612.667, 520.666 603.448, 516.791 596.781, 513.988 587.562, 510.113 578.343, 506.237 569.125, 502.362 568.619, 502.150 559.401, 498.274 550.182, 494.399 540.964, 490.524 531.745, 486.649 522.526, 482.774 513.308, 478.898 506.450, 476.015 501.542, 484.729 496.635, 493.442 494.990, 496.362 490.083, 505.076 485.176, 513.789 480.268, 522.502 475.361, 531.215 470.454, 539.928 465.547, 548.641 460.639, 557.354 455.732, 566.068 450.825, 574.781 445.917, 583.494 441.010, 592.207 436.103, 600.920 433.557, 605.440 428.650, 614.153 423.743, 622.866 423.022, 624.145 418.115, 632.858 413.208, 641.571 408.301, 650.285 403.393, 658.998 398.486, 667.711 393.579, 676.424 388.672, 685.137 383.764, 693.850 378.857, 702.563 373.950, 711.276 369.043, 719.990 364.034, 728.882 359.127, 737.595 354.220, 746.308 349.313, 755.021 344.405, 763.734 341.467, 768.952 336.560, 777.665 331.652, 786.378 326.745, 795.091 321.838, 803.804 317.622, 811.289 318.622, 814.524 321.574, 824.079 321.625, 824.242 323.037, 828.813 325.989, 838.367 328.941, 847.921 331.893, 857.476 333.080, 861.314 336.032, 870.869 338.984, 880.423 341.936, 889.977 344.471, 898.181 347.423, 907.735 349.192, 913.459 352.144, 923.014 355.096, 932.568 358.048, 942.122 360.065, 948.651 363.018, 958.205 365.970, 967.760 368.922, 977.314 371.874, 986.868 374.826, 996.422 377.779, 1005.977 380.731, 1015.531 383.683, 1025.085 386.635, 1034.640 389.733, 1044.667 392.686, 1054.221 394.307, 1059.469 397.259, 1069.023 397.387, 1069.437 400.339, 1078.991 403.291, 1088.546 406.154, 1097.809 416.040, 1099.311 425.927, 1100.813 435.813, 1102.315 445.700, 1103.817 455.586, 1105.319 465.473, 1106.821 475.359, 1108.324 485.246, 1109.826 495.132, 1111.328 499.146, 1111.938 509.033, 1113.440 518.919, 1114.942 524.129, 1115.734 524.338, 1115.765 534.224, 1117.267 544.111, 1118.769 553.997, 1120.272 563.884, 1121.774 573.771, 1123.276 583.657, 1124.778 593.544, 1126.280 603.430, 1127.782 613.317, 1129.284 623.203, 1130.786 633.090, 1132.289 642.976, 1133.791 652.863, 1135.293 662.749, 1136.795 672.636, 1138.297 682.522, 1139.799 692.409, 1141.301 700.350, 1142.508 703.013, 1142.912 704.544, 1143.145 714.431, 1144.647 724.317, 1146.149 728.906, 1146.847 738.793, 1148.349 748.679, 1149.851 758.566, 1151.353 768.452, 1152.855 773.673, 1153.648 779.657, 1145.670 785.658, 1137.670 791.658, 1129.671 797.658, 1121.671 803.658, 1113.671 809.658, 1105.671 815.659, 1097.671 821.659, 1089.671 827.659, 1081.671 831.819, 1076.125 837.819, 1068.125 839.146, 1066.356 845.147, 1058.356 851.147, 1050.356 857.147, 1042.356 863.147, 1034.356 869.148, 1026.356 875.148, 1018.357 881.148, 1010.357 887.148, 1002.357 893.148, 994.357 899.149, 986.357 905.149, 978.357 911.149, 970.358 917.149, 962.358 923.149, 954.358 924.576, 952.456 930.577, 944.456 936.577, 936.456 938.339, 934.107 944.339, 926.107 950.339, 918.107 956.339, 910.107 962.339, 902.107 968.340, 894.108 974.340, 886.108 974.763, 885.544 980.763, 877.544 986.763, 869.544 992.763, 861.545 998.763, 853.545 1004.218, 846.273 1007.092, 842.440 1011.843, 836.106 1005.494, 828.380 999.366, 820.924 993.017, 813.198 986.667, 805.473 980.318, 797.747 973.968, 790.021 968.156, 782.949 961.806, 775.223 955.457, 767.498 949.107, 759.772 942.758, 752.046 936.409, 744.321 930.059, 736.595 923.710, 728.870 917.361, 721.144 913.185, 716.064 906.836, 708.338 900.486, 700.612 894.137, 692.887 887.788, 685.161 881.255, 677.213 874.906, 669.487 868.556, 661.762 862.207, 654.036 855.858, 646.310 849.508, 638.585 846.279, 634.656 839.930, 626.930 833.581, 619.205 827.231, 611.479 826.462, 610.543 826.457, 610.537 " fill="none" stroke="rgb(0, 119, 0)" stroke-linecap="butt" stroke-linejoin="round" stroke-opacity="1.0" stroke-width="3.0" />
            <path d=" M 506.450, 476.015 511.644, 484.561 516.838, 493.106 520.284, 498.776 525.478, 507.321 530.672, 515.867 535.866, 524.412 541.060, 532.957 546.254, 541.503 551.448, 550.048 556.642, 558.593 561.836, 567.138 563.645, 570.114 563.748, 570.283 568.942, 578.828 573.543, 586.398 578.737, 594.944 580.033, 597.076 585.227, 605.621 586.081, 607.026 591.275, 615.572 596.469, 624.117 601.663, 632.662 606.857, 641.207 612.051, 649.753 617.245, 658.298 622.439, 666.843 627.633, 675.389 632.827, 683.934 638.021, 692.479 643.215, 701.025 648.409, 709.570 650.316, 712.707 " fill="none" stroke="rgb(0, 119, 0)" stroke-linecap="butt" stroke-linejoin="round" stroke-opacity="1.0" stroke-width="3.0" />
            <path d=" M 406.154, 1097.809 411.508, 1089.363 416.863, 1080.918 422.218, 1072.472 427.007, 1064.918 432.362, 1056.472 437.716, 1048.027 443.071, 1039.581 448.426, 1031.136 453.780, 1022.690 459.135, 1014.245 464.490, 1005.799 469.844, 997.354 475.199, 988.908 481.012, 979.740 486.367, 971.294 489.060, 967.047 494.414, 958.601 499.769, 950.156 505.124, 941.710 510.478, 933.264 515.833, 924.819 521.188, 916.373 526.542, 907.928 532.294, 898.856 533.899, 896.324 539.254, 887.878 544.609, 879.433 549.963, 870.987 555.318, 862.542 560.673, 854.096 566.027, 845.651 571.382, 837.205 576.737, 828.759 582.091, 820.314 587.446, 811.868 592.801, 803.423 598.155, 794.977 600.036, 792.012 605.390, 783.566 607.442, 780.330 612.797, 771.884 615.249, 768.017 620.603, 759.572 621.060, 758.852 626.414, 750.407 631.769, 741.961 637.124, 733.516 642.478, 725.070 647.833, 716.624 650.316, 712.707 659.780, 715.938 669.244, 719.168 678.708, 722.398 688.172, 725.628 697.636, 728.859 707.100, 732.089 709.574, 732.934 719.038, 736.164 728.502, 739.394 737.966, 742.624 747.430, 745.855 756.893, 749.085 766.357, 752.315 775.821, 755.545 785.285, 758.776 794.749, 762.006 804.213, 765.236 813.677, 768.466 818.516, 770.118 827.980, 773.348 837.443, 776.579 846.907, 779.809 856.371, 783.039 864.287, 785.741 873.750, 788.971 883.263, 792.218 892.727, 795.448 902.191, 798.679 911.655, 801.909 921.118, 805.139 930.582, 808.369 940.046, 811.600 949.510, 814.830 958.974, 818.060 968.438, 821.290 977.902, 824.521 987.366, 827.751 989.921, 828.623 992.887, 829.635 1002.351, 832.866 1011.843, 836.106 " fill="none" stroke="rgb(0, 119, 0)" stroke-linecap="butt" stroke-linejoin="round" stroke-opacity="1.0" stroke-width="3.0" />
            <path d=" M 317.622, 811.289 320.087, 811.926 329.769, 814.429 339.451, 816.932 349.132, 819.435 356.114, 821.240 365.796, 823.743 375.477, 826.246 385.159, 828.749 394.841, 831.252 401.485, 832.970 402.354, 833.194 412.036, 835.697 421.718, 838.200 427.189, 839.615 436.871, 842.118 446.553, 844.620 456.234, 847.123 465.916, 849.626 475.598, 852.129 485.280, 854.632 494.961, 857.135 504.643, 859.638 514.325, 862.141 524.006, 864.644 533.688, 867.147 541.699, 869.218 551.381, 871.721 561.062, 874.224 570.744, 876.727 580.426, 879.230 590.107, 881.733 599.789, 884.235 609.471, 886.738 619.153, 889.241 628.834, 891.744 638.683, 894.290 " fill="none" stroke="rgb(0, 119, 0)" stroke-linecap="butt" stroke-linejoin="round" stroke-opacity="1.0" stroke-width="3.0" />
            <path d=" M 826.457, 610.537 820.939, 618.877 815.420, 627.216 809.901, 635.556 804.383, 643.895 803.275, 645.569 797.756, 653.909 793.731, 659.992 788.212, 668.331 782.694, 676.671 777.175, 685.010 771.656, 693.349 767.880, 699.057 762.361, 707.396 756.842, 715.735 751.324, 724.075 745.805, 732.414 740.287, 740.753 734.768, 749.093 729.249, 757.432 723.731, 765.771 718.212, 774.111 712.694, 782.450 707.175, 790.790 701.656, 799.129 696.180, 807.405 690.661, 815.745 685.142, 824.084 683.838, 826.055 678.320, 834.394 672.801, 842.733 670.332, 846.465 664.813, 854.804 659.295, 863.143 653.776, 871.483 648.258, 879.822 642.739, 888.161 638.683, 894.290 643.300, 903.161 647.516, 911.260 652.132, 920.131 653.645, 923.037 655.291, 926.199 659.908, 935.070 664.525, 943.940 669.142, 952.810 673.758, 961.681 678.375, 970.551 682.992, 979.422 687.609, 988.292 692.226, 997.163 696.636, 1005.636 699.794, 1011.702 704.410, 1020.573 709.027, 1029.443 713.644, 1038.314 718.261, 1047.184 722.878, 1056.055 723.647, 1057.533 728.264, 1066.404 732.881, 1075.274 737.498, 1084.144 742.115, 1093.015 746.732, 1101.885 751.349, 1110.756 755.965, 1119.626 760.582, 1128.497 765.199, 1137.367 768.624, 1143.947 773.241, 1152.818 773.673, 1153.648 " fill="none" stroke="rgb(0, 119, 0)" stroke-linecap="butt" stroke-linejoin="round" stroke-opacity="1.0" stroke-width="3.0" />
            <path d=" M 1060.508, 738.718 1053.716, 731.379 1046.923, 724.040 1040.131, 716.701 1033.338, 709.362 1026.545, 702.023 1019.753, 694.684 1012.960, 687.345 1006.168, 680.006 999.375, 672.667 992.582, 665.328 985.790, 657.989 978.997, 650.650 972.205, 643.311 965.412, 635.972 958.619, 628.633 951.827, 621.294 945.034, 613.955 938.242, 606.616 931.449, 599.277 924.656, 591.938 917.864, 584.599 911.071, 577.260 904.279, 569.922 897.486, 562.583 895.824, 560.787 886.740, 556.607 877.656, 552.427 868.571, 548.247 859.487, 544.067 850.402, 539.886 841.318, 535.706 832.234, 531.526 823.149, 527.346 814.065, 523.166 809.227, 520.940 800.143, 516.760 791.058, 512.579 781.974, 508.399 772.890, 504.219 772.328, 503.961 763.244, 499.780 754.159, 495.600 745.075, 491.420 735.991, 487.240 726.906, 483.060 717.822, 478.880 708.737, 474.699 707.495, 474.128 698.410, 469.947 689.326, 465.767 680.242, 461.587 671.157, 457.407 666.718, 455.364 661.988, 453.188 652.904, 449.007 643.819, 444.827 634.735, 440.647 625.650, 436.467 616.566, 432.287 607.482, 428.107 605.739, 427.305 596.655, 423.125 587.570, 418.944 578.486, 414.764 569.401, 410.584 560.317, 406.404 551.233, 402.224 542.148, 398.043 533.064, 393.863 523.979, 389.683 514.895, 385.503 505.811, 381.323 496.726, 377.143 487.642, 372.962 478.557, 368.782 469.473, 364.602 460.389, 360.422 451.304, 356.242 442.220, 352.062 433.136, 347.881 424.051, 343.701 416.034, 340.012 " fill="none" stroke="rgb(0, 119, 0)" stroke-linecap="butt" stroke-linejoin="round" stroke-opacity="1.0" stroke-width="3.0" />
            <path d=" M 123.263, 863.445 133.027, 865.607 134.018, 865.826 143.782, 867.988 153.546, 870.149 163.309, 872.311 173.073, 874.472 182.837, 876.633 192.600, 878.795 202.364, 880.956 212.127, 883.117 221.891, 885.279 231.655, 887.440 241.418, 889.602 251.182, 891.763 260.946, 893.924 270.709, 896.086 280.473, 898.247 290.237, 900.408 300.000, 902.570 308.309, 904.409 318.073, 906.571 327.836, 908.732 337.694, 910.914 347.457, 913.075 349.192, 913.459 358.955, 915.621 368.719, 917.782 378.483, 919.944 388.246, 922.105 398.010, 924.266 407.773, 926.428 417.537, 928.589 427.301, 930.750 437.064, 932.912 438.236, 933.171 448.000, 935.333 457.763, 937.494 465.438, 939.193 475.201, 941.354 484.965, 943.516 494.729, 945.677 504.492, 947.838 514.256, 950.000 524.019, 952.161 533.783, 954.322 543.547, 956.484 553.310, 958.645 559.367, 959.986 569.130, 962.147 578.894, 964.309 588.658, 966.470 598.421, 968.631 608.185, 970.793 617.949, 972.954 619.193, 973.230 " fill="none" stroke="rgb(0, 119, 0)" stroke-linecap="butt" stroke-linejoin="round" stroke-opacity="1.0" stroke-width="3.0" />
            <path d=" M 895.824, 560.787 890.254, 569.092 884.684, 577.397 880.324, 583.898 874.903, 591.980 869.333, 600.285 863.762, 608.590 858.192, 616.895 852.622, 625.200 847.052, 633.505 846.279, 634.656 840.709, 642.961 835.139, 651.266 829.569, 659.571 823.998, 667.876 822.423, 670.225 821.913, 670.985 816.343, 679.290 810.773, 687.595 805.202, 695.900 799.632, 704.205 794.062, 712.510 788.492, 720.815 786.015, 724.507 780.445, 732.812 774.874, 741.117 769.304, 749.422 763.734, 757.727 758.164, 766.032 756.406, 768.652 750.836, 776.957 745.266, 785.262 739.695, 793.567 734.125, 801.872 728.555, 810.177 722.984, 818.482 720.426, 822.296 714.856, 830.601 712.280, 834.442 706.709, 842.747 701.139, 851.052 695.569, 859.357 689.999, 867.662 685.786, 873.943 680.216, 882.248 674.645, 890.553 669.075, 898.858 663.505, 907.163 657.935, 915.468 652.364, 923.773 651.382, 925.237 645.812, 933.542 640.242, 941.847 634.671, 950.152 629.101, 958.457 623.531, 966.762 620.482, 971.307 619.193, 973.230 619.516, 973.904 623.839, 982.922 628.163, 991.939 630.609, 997.042 631.683, 999.282 636.007, 1008.300 640.330, 1017.317 644.653, 1026.334 648.976, 1035.351 653.299, 1044.369 657.622, 1053.386 661.945, 1062.403 666.269, 1071.420 670.592, 1080.438 674.915, 1089.455 679.238, 1098.472 683.655, 1107.686 687.978, 1116.703 692.302, 1125.720 695.570, 1132.538 699.894, 1141.556 700.350, 1142.508 704.673, 1151.525 708.996, 1160.542 713.320, 1169.560 717.643, 1178.577 721.966, 1187.594 726.289, 1196.611 730.612, 1205.629 734.935, 1214.646 739.258, 1223.663 743.582, 1232.680 747.905, 1241.697 752.228, 1250.715 756.551, 1259.732 760.874, 1268.749 765.197, 1277.766 769.520, 1286.784 773.844, 1295.801 778.167, 1304.818 782.490, 1313.835 786.813, 1322.853 791.136, 1331.870 794.851, 1339.618 799.174, 1348.635 803.497, 1357.652 807.820, 1366.669 812.143, 1375.687 816.466, 1384.704 820.789, 1393.721 824.411, 1401.276 " fill="none" stroke="rgb(0, 119, 0)" stroke-linecap="butt" stroke-linejoin="round" stroke-opacity="1.0" stroke-width="3.0" />
            <path d=" M 714.805, 813.089 713.314, 812.634 703.750, 809.715 696.180, 807.405 686.615, 804.487 677.050, 801.569 667.485, 798.650 657.921, 795.732 650.827, 793.567 650.125, 793.353 646.045, 792.108 638.461, 789.794 628.896, 786.876 619.332, 783.957 618.304, 783.644 608.739, 780.725 607.442, 780.330 599.386, 777.872 595.657, 783.777 590.317, 792.232 584.978, 800.687 579.638, 809.142 576.359, 814.335 571.019, 822.790 565.680, 831.245 560.340, 839.700 560.054, 840.153 554.714, 848.608 552.444, 852.203 547.105, 860.658 541.699, 869.218 536.359, 877.673 533.667, 881.937 528.456, 890.188 530.840, 895.571 532.294, 898.856 536.344, 907.999 540.393, 917.143 544.442, 926.286 548.492, 935.429 552.541, 944.573 556.590, 953.716 559.367, 959.986 563.416, 969.129 567.465, 978.273 570.099, 984.219 571.109, 986.501 580.894, 988.565 590.678, 990.630 600.463, 992.695 605.475, 993.752 605.902, 993.842 606.110, 993.886 615.894, 995.951 625.679, 998.016 631.683, 999.282 634.191, 999.812 635.174, 1000.019 644.958, 1002.084 654.743, 1004.148 664.528, 1006.213 665.401, 1006.397 675.186, 1008.462 684.971, 1010.527 692.162, 1012.044 693.353, 1010.338 696.636, 1005.636 702.360, 997.436 708.084, 989.236 708.851, 988.138 713.007, 982.185 718.731, 973.985 724.456, 965.785 730.180, 957.586 735.904, 949.386 737.898, 946.529 743.622, 938.330 747.917, 932.178 753.641, 923.979 759.365, 915.779 765.089, 907.580 769.037, 901.925 763.826, 893.390 758.616, 884.854 758.104, 884.017 754.204, 877.628 749.219, 869.461 744.009, 860.926 738.798, 852.391 733.588, 843.856 731.258, 840.039 726.047, 831.504 720.837, 822.969 720.450, 822.335 720.426, 822.296 715.216, 813.761 714.805, 813.089 " fill="none" stroke="rgb(0, 119, 0)" stroke-linecap="butt" stroke-linejoin="round" stroke-opacity="1.0" stroke-width="3.0" />
            <path d=" M 599.386, 777.872 604.118, 786.681 608.850, 795.491 613.582, 804.301 614.242, 805.529 618.974, 814.339 623.705, 823.149 628.437, 831.958 633.169, 840.768 637.901, 849.578 642.632, 858.387 647.364, 867.197 648.477, 869.269 " fill="none" stroke="rgb(0, 119, 0)" stroke-linecap="butt" stroke-linejoin="round" stroke-opacity="1.0" stroke-width="3.0" />
            <path d=" M 571.109, 986.501 572.306, 984.687 577.814, 976.341 583.323, 967.995 588.831, 959.648 594.339, 951.302 599.847, 942.956 605.355, 934.609 610.863, 926.263 616.371, 917.917 617.107, 916.802 622.615, 908.456 628.123, 900.109 633.632, 891.763 639.140, 883.417 644.648, 875.070 648.477, 869.269 658.129, 871.883 667.781, 874.498 671.390, 875.475 681.042, 878.090 683.377, 878.722 693.029, 881.337 702.681, 883.951 712.333, 886.566 721.985, 889.180 731.638, 891.795 741.290, 894.409 750.942, 897.024 760.594, 899.638 769.037, 901.925 " fill="none" stroke="rgb(0, 119, 0)" stroke-linecap="butt" stroke-linejoin="round" stroke-opacity="1.0" stroke-width="3.0" />
            <path d=" M 528.456, 890.188 538.161, 892.597 547.867, 895.005 557.573, 897.413 567.278, 899.822 576.984, 902.230 586.690, 904.639 596.395, 907.047 606.101, 909.456 615.806, 911.864 625.512, 914.272 635.218, 916.681 642.666, 918.529 644.163, 918.901 " fill="none" stroke="rgb(0, 119, 0)" stroke-linecap="butt" stroke-linejoin="round" stroke-opacity="1.0" stroke-width="3.0" />
            <path d=" M 714.805, 813.089 709.253, 821.405 703.700, 829.722 702.479, 831.552 696.926, 839.869 691.374, 848.186 685.821, 856.502 680.478, 864.506 674.926, 872.823 669.373, 881.139 663.821, 889.456 658.268, 897.773 652.716, 906.090 647.163, 914.407 644.163, 918.901 646.854, 924.123 649.488, 929.233 654.068, 938.122 658.649, 947.011 663.230, 955.900 667.811, 964.790 672.391, 973.679 676.972, 982.568 681.553, 991.457 686.134, 1000.346 691.029, 1009.845 692.162, 1012.044 " fill="none" stroke="rgb(0, 119, 0)" stroke-linecap="butt" stroke-linejoin="round" stroke-opacity="1.0" stroke-width="3.0" />
            <path d=" M 769.124, 601.594 759.828, 597.753 750.586, 593.934 741.592, 590.218 732.350, 586.399 723.108, 582.581 722.767, 582.440 713.525, 578.621 704.283, 574.802 695.041, 570.984 687.302, 567.786 679.134, 564.411 669.892, 560.592 660.650, 556.774 651.408, 552.955 642.166, 549.136 632.924, 545.317 623.681, 541.499 616.832, 538.669 612.092, 536.710 604.889, 533.734 595.647, 529.915 588.999, 527.168 583.490, 524.892 574.248, 521.073 565.006, 517.255 555.764, 513.436 546.522, 509.617 537.280, 505.798 528.038, 501.980 520.284, 498.776 520.033, 498.672 515.083, 507.362 510.134, 516.051 508.334, 519.212 503.384, 527.901 498.435, 536.591 493.486, 545.280 488.536, 553.969 484.685, 560.731 479.736, 569.420 476.824, 574.533 471.874, 583.222 466.925, 591.911 461.976, 600.601 457.026, 609.290 454.904, 613.016 449.955, 621.706 445.005, 630.395 444.362, 631.524 439.413, 640.214 434.464, 648.903 429.514, 657.592 424.565, 666.282 419.616, 674.971 414.666, 683.660 409.717, 692.350 404.768, 701.039 399.818, 709.728 394.869, 718.417 389.920, 727.107 384.970, 735.796 380.021, 744.485 375.072, 753.175 373.787, 755.430 373.337, 756.221 376.780, 765.610 380.223, 774.998 381.186, 777.622 384.629, 787.010 386.763, 792.828 390.206, 802.216 393.649, 811.605 397.093, 820.993 400.536, 830.382 401.485, 832.970 404.929, 842.358 407.802, 850.192 411.245, 859.580 414.689, 868.969 418.132, 878.357 421.575, 887.745 425.019, 897.134 428.462, 906.522 430.842, 913.011 434.285, 922.400 437.729, 931.788 438.236, 933.171 441.679, 942.560 445.123, 951.948 445.903, 954.076 447.425, 958.224 457.207, 960.297 464.761, 961.898 474.543, 963.971 474.991, 964.065 484.774, 966.138 489.060, 967.047 498.842, 969.120 508.625, 971.193 518.408, 973.266 528.191, 975.339 537.973, 977.412 547.756, 979.485 557.539, 981.558 567.322, 983.631 570.099, 984.219 572.306, 984.687 582.089, 986.760 591.872, 988.833 601.655, 990.906 606.671, 991.969 607.098, 992.060 607.306, 992.104 617.089, 994.177 626.871, 996.250 630.609, 997.042 633.114, 997.573 634.096, 997.781 643.879, 999.854 653.662, 1001.927 663.445, 1004.000 666.595, 1004.667 676.377, 1006.740 686.160, 1008.813 691.029, 1009.845 693.353, 1010.338 699.794, 1011.702 709.576, 1013.775 719.359, 1015.848 724.221, 1016.879 729.999, 1008.717 735.776, 1000.555 741.554, 992.393 743.832, 989.176 749.610, 981.014 755.388, 972.853 761.166, 964.691 764.293, 960.274 768.662, 954.101 774.440, 945.939 780.218, 937.777 785.996, 929.615 791.774, 921.453 797.552, 913.292 803.330, 905.130 808.384, 897.990 814.162, 889.828 817.272, 885.435 820.970, 880.212 826.748, 872.050 832.526, 863.888 838.304, 855.726 844.082, 847.565 849.363, 840.104 855.141, 831.943 858.843, 826.713 864.621, 818.551 870.399, 810.389 872.627, 807.242 878.415, 799.066 883.263, 792.218 889.041, 784.056 894.819, 775.894 899.428, 769.383 893.294, 761.485 887.264, 753.720 886.998, 753.378 880.865, 745.480 874.731, 737.582 868.598, 729.684 862.464, 721.786 862.047, 721.249 856.191, 713.708 850.057, 705.810 843.924, 697.912 837.790, 690.013 831.656, 682.115 825.523, 674.217 823.490, 671.600 822.423, 670.225 816.289, 662.327 810.155, 654.429 804.022, 646.531 803.275, 645.569 797.141, 637.671 791.008, 629.773 786.103, 623.457 779.969, 615.559 773.836, 607.661 769.124, 601.594 " fill="none" stroke="rgb(0, 119, 0)" stroke-linecap="butt" stroke-linejoin="round" stroke-opacity="1.0" stroke-width="3.0" />
            <path d=" M 520.033, 498.672 525.226, 507.218 530.419, 515.764 535.611, 524.310 540.804, 532.856 545.997, 541.402 551.190, 549.948 556.383, 558.494 561.576, 567.040 563.483, 570.180 563.546, 570.283 568.739, 578.829 573.442, 586.568 578.634, 595.115 579.764, 596.973 584.957, 605.519 585.977, 607.199 591.170, 615.745 596.363, 624.291 601.556, 632.837 606.749, 641.383 611.941, 649.929 617.134, 658.475 622.327, 667.021 625.283, 671.885 " fill="none" stroke="rgb(0, 119, 0)" stroke-linecap="butt" stroke-linejoin="round" stroke-opacity="1.0" stroke-width="3.0" />
            <path d=" M 447.425, 958.224 452.701, 949.729 457.977, 941.235 463.072, 933.033 468.348, 924.539 473.625, 916.044 478.901, 907.549 484.177, 899.055 489.454, 890.560 492.242, 886.072 497.518, 877.577 502.795, 869.082 508.071, 860.588 513.348, 852.093 518.624, 843.598 523.900, 835.104 529.177, 826.609 534.453, 818.114 539.730, 809.620 545.006, 801.125 550.283, 792.630 555.559, 784.136 560.835, 775.641 566.112, 767.146 571.388, 758.652 573.679, 754.964 577.266, 749.190 582.542, 740.695 587.818, 732.201 593.095, 723.706 597.398, 716.779 602.674, 708.284 607.951, 699.789 613.227, 691.295 618.503, 682.800 623.780, 674.305 625.283, 671.885 634.705, 675.236 644.127, 678.587 653.549, 681.938 662.971, 685.289 672.392, 688.640 681.814, 691.990 691.236, 695.341 700.658, 698.692 710.080, 702.043 719.502, 705.394 726.030, 707.715 735.452, 711.066 744.873, 714.417 754.295, 717.768 763.717, 721.119 773.139, 724.469 782.561, 727.820 790.349, 730.590 799.771, 733.941 809.193, 737.292 818.615, 740.643 828.037, 743.994 837.459, 747.344 846.881, 750.695 856.303, 754.046 865.724, 757.397 875.146, 760.748 880.492, 762.649 889.914, 766.000 899.428, 769.383 " fill="none" stroke="rgb(0, 119, 0)" stroke-linecap="butt" stroke-linejoin="round" stroke-opacity="1.0" stroke-width="3.0" />
            <path d=" M 373.337, 756.221 374.165, 756.458 383.779, 759.210 390.639, 761.174 400.253, 763.926 409.867, 766.678 419.481, 769.430 429.095, 772.182 438.709, 774.933 442.146, 775.917 451.760, 778.669 461.373, 781.421 470.987, 784.173 480.601, 786.925 490.215, 789.677 499.829, 792.429 509.443, 795.180 519.057, 797.932 528.671, 800.684 538.285, 803.436 547.899, 806.188 557.512, 808.940 567.126, 811.692 576.359, 814.335 585.973, 817.086 595.587, 819.838 605.201, 822.590 614.815, 825.342 623.051, 827.700 " fill="none" stroke="rgb(0, 119, 0)" stroke-linecap="butt" stroke-linejoin="round" stroke-opacity="1.0" stroke-width="3.0" />
            <path d=" M 769.124, 601.594 763.698, 609.994 758.271, 618.393 752.845, 626.793 747.418, 635.192 743.943, 640.571 738.517, 648.971 734.103, 655.803 728.676, 664.203 724.732, 670.308 719.306, 678.708 713.879, 687.107 708.453, 695.507 703.026, 703.907 697.600, 712.306 692.173, 720.706 686.747, 729.105 681.320, 737.505 675.894, 745.905 670.467, 754.304 665.041, 762.704 659.615, 771.103 653.840, 780.042 648.413, 788.442 646.045, 792.108 642.686, 797.307 637.260, 805.707 633.672, 811.260 628.246, 819.659 623.051, 827.700 627.767, 836.518 632.483, 845.336 637.199, 854.154 641.914, 862.973 646.630, 871.791 651.346, 880.609 656.062, 889.427 658.740, 894.435 663.456, 903.254 664.991, 906.125 669.707, 914.943 674.423, 923.761 678.824, 931.991 683.540, 940.809 688.256, 949.627 692.972, 958.446 697.687, 967.264 702.403, 976.082 707.119, 984.900 708.851, 988.138 713.567, 996.957 718.282, 1005.775 722.998, 1014.593 724.221, 1016.879 " fill="none" stroke="rgb(0, 119, 0)" stroke-linecap="butt" stroke-linejoin="round" stroke-opacity="1.0" stroke-width="3.0" />
            <path d=" M 929.171, 826.016 919.681, 822.865 910.190, 819.714 900.700, 816.562 891.209, 813.411 881.719, 810.260 872.627, 807.242 863.137, 804.090 853.625, 800.932 844.135, 797.781 836.397, 795.212 826.906, 792.061 817.416, 788.909 815.765, 788.361 806.933, 785.429 797.442, 782.278 787.952, 779.127 778.461, 775.975 768.971, 772.824 759.480, 769.673 756.447, 768.666 756.406, 768.652 746.915, 765.501 745.267, 764.954 745.150, 764.915 741.857, 769.851 736.307, 778.169 730.757, 786.488 725.208, 794.807 721.587, 800.233 716.037, 808.552 713.314, 812.634 707.765, 820.952 702.215, 829.271 700.987, 831.112 695.437, 839.430 689.887, 847.749 685.487, 854.344 679.938, 862.663 679.668, 863.066 674.164, 871.317 671.390, 875.475 666.582, 882.681 661.032, 891.000 658.740, 894.435 653.190, 902.754 647.641, 911.073 647.516, 911.260 642.666, 918.529 640.051, 922.449 634.501, 930.767 628.952, 939.086 623.402, 947.404 617.852, 955.723 615.525, 959.212 615.025, 959.960 619.359, 968.972 620.482, 971.307 620.502, 971.348 620.707, 971.773 620.807, 971.981 625.141, 980.993 629.475, 990.005 633.114, 997.573 634.191, 999.812 637.374, 1006.430 641.708, 1015.442 646.043, 1024.454 650.377, 1033.466 654.711, 1042.478 659.045, 1051.490 663.379, 1060.502 667.713, 1069.514 672.047, 1078.526 676.382, 1087.538 680.716, 1096.550 685.050, 1105.562 686.282, 1108.123 690.616, 1117.135 694.950, 1126.147 698.223, 1132.953 702.557, 1141.965 703.013, 1142.912 703.689, 1144.319 713.577, 1145.816 723.464, 1147.312 729.597, 1148.240 739.484, 1149.736 749.371, 1151.233 759.259, 1152.729 769.146, 1154.225 779.034, 1155.722 788.921, 1157.218 798.808, 1158.714 808.696, 1160.211 818.583, 1161.707 828.471, 1163.203 838.358, 1164.700 848.246, 1166.196 858.133, 1167.692 868.020, 1169.189 877.908, 1170.685 887.795, 1172.181 897.683, 1173.678 903.074, 1174.494 909.283, 1166.655 915.492, 1158.816 921.701, 1150.977 927.910, 1143.138 934.119, 1135.299 940.328, 1127.460 946.537, 1119.621 952.746, 1111.782 958.955, 1103.943 965.163, 1096.104 971.372, 1088.265 977.581, 1080.426 983.790, 1072.587 989.999, 1064.748 996.208, 1056.909 1002.417, 1049.070 1008.626, 1041.231 1014.835, 1033.392 1021.044, 1025.553 1027.252, 1017.714 1033.461, 1009.875 1039.670, 1002.036 1045.879, 994.197 1052.030, 986.432 1045.950, 978.492 1039.869, 970.553 1035.587, 964.962 1031.862, 960.099 1025.782, 952.160 1019.701, 944.220 1013.621, 936.281 1007.541, 928.342 1001.460, 920.403 995.380, 912.464 989.300, 904.525 983.219, 896.586 977.139, 888.647 974.763, 885.544 968.682, 877.605 962.861, 870.005 956.781, 862.066 950.701, 854.126 944.620, 846.187 938.540, 838.248 932.459, 830.309 929.171, 826.016 " fill="none" stroke="rgb(0, 119, 0)" stroke-linecap="butt" stroke-linejoin="round" stroke-opacity="1.0" stroke-width="3.0" />
            <path d=" M 745.150, 764.915 750.644, 773.270 756.139, 781.626 761.633, 789.981 767.128, 798.336 772.622, 806.691 778.117, 815.047 783.611, 823.402 789.106, 831.757 794.600, 840.112 800.095, 848.468 805.589, 856.823 809.781, 863.197 815.275, 871.552 820.770, 879.907 820.970, 880.212 826.464, 888.567 831.959, 896.922 835.147, 901.770 840.641, 910.125 846.136, 918.480 851.630, 926.836 856.553, 934.322 " fill="none" stroke="rgb(0, 119, 0)" stroke-linecap="butt" stroke-linejoin="round" stroke-opacity="1.0" stroke-width="3.0" />
            <path d=" M 703.689, 1144.319 704.544, 1143.145 710.429, 1135.060 710.561, 1134.879 716.446, 1126.795 722.331, 1118.710 728.216, 1110.625 734.102, 1102.540 739.987, 1094.455 745.872, 1086.371 751.757, 1078.286 757.643, 1070.201 763.528, 1062.116 769.413, 1054.031 775.298, 1045.947 781.183, 1037.862 787.069, 1029.777 792.954, 1021.692 798.839, 1013.607 804.724, 1005.522 810.609, 997.438 816.495, 989.353 822.380, 981.268 828.265, 973.183 830.990, 969.440 836.875, 961.355 842.760, 953.270 848.646, 945.185 854.531, 937.101 856.553, 934.322 866.216, 936.898 875.878, 939.474 885.541, 942.050 895.204, 944.625 905.349, 947.330 915.012, 949.906 924.576, 952.456 934.239, 955.031 943.901, 957.607 953.564, 960.183 963.227, 962.759 972.889, 965.335 982.552, 967.910 992.214, 970.486 1001.877, 973.062 1011.539, 975.638 1021.202, 978.214 1024.519, 979.098 1034.182, 981.674 1043.844, 984.249 1052.030, 986.432 " fill="none" stroke="rgb(0, 119, 0)" stroke-linecap="butt" stroke-linejoin="round" stroke-opacity="1.0" stroke-width="3.0" />
            <path d=" M 615.025, 959.960 624.778, 962.172 627.043, 962.686 636.795, 964.898 646.548, 967.110 656.300, 969.322 666.052, 971.534 675.804, 973.746 685.557, 975.958 695.309, 978.170 705.061, 980.382 713.007, 982.185 722.759, 984.397 732.512, 986.609 742.264, 988.821 743.832, 989.176 753.584, 991.388 763.336, 993.600 768.563, 994.786 778.316, 996.998 788.068, 999.210 797.820, 1001.422 801.215, 1002.192 " fill="none" stroke="rgb(0, 119, 0)" stroke-linecap="butt" stroke-linejoin="round" stroke-opacity="1.0" stroke-width="3.0" />
            <path d=" M 929.171, 826.016 923.295, 834.107 917.418, 842.198 911.542, 850.289 905.665, 858.380 899.789, 866.471 893.912, 874.562 888.035, 882.654 882.159, 890.745 876.282, 898.836 870.406, 906.927 864.529, 915.018 858.653, 923.109 852.776, 931.200 846.900, 939.291 841.023, 947.383 835.146, 955.474 829.270, 963.565 825.911, 968.190 820.034, 976.281 814.158, 984.372 808.281, 992.463 802.404, 1000.554 801.215, 1002.192 806.304, 1010.800 811.393, 1019.409 816.482, 1028.017 821.571, 1036.625 826.660, 1045.234 831.749, 1053.842 836.838, 1062.450 839.146, 1066.356 844.235, 1074.964 849.324, 1083.572 854.413, 1092.181 859.502, 1100.789 864.591, 1109.397 869.680, 1118.005 874.769, 1126.614 879.858, 1135.222 884.947, 1143.830 889.507, 1151.544 894.596, 1160.152 899.685, 1168.761 903.074, 1174.494 " fill="none" stroke="rgb(0, 119, 0)" stroke-linecap="butt" stroke-linejoin="round" stroke-opacity="1.0" stroke-width="3.0" />
            <path d=" M 694.120, 626.151 684.797, 622.536 675.473, 618.920 666.150, 615.305 656.826, 611.689 647.503, 608.074 638.179, 604.458 628.855, 600.843 619.532, 597.228 610.208, 593.612 600.885, 589.997 597.185, 588.562 592.031, 597.132 589.821, 600.807 586.081, 607.026 585.977, 607.199 580.824, 615.768 575.670, 624.338 572.653, 629.354 567.500, 637.924 564.710, 642.564 560.038, 650.332 554.885, 658.902 550.059, 666.927 549.488, 667.876 544.334, 676.446 541.282, 681.520 537.940, 687.078 542.598, 695.927 547.257, 704.776 551.915, 713.624 552.090, 713.956 556.748, 722.805 561.407, 731.654 566.065, 740.503 570.724, 749.351 573.122, 753.906 573.679, 754.964 573.741, 755.083 581.721, 757.569 590.967, 760.451 600.514, 763.426 610.062, 766.401 615.249, 768.017 624.796, 770.992 626.107, 771.401 628.544, 772.160 638.091, 775.135 640.795, 775.978 650.343, 778.953 653.840, 780.042 657.919, 781.314 667.466, 784.289 674.610, 786.515 675.120, 785.734 680.585, 777.359 686.050, 768.984 691.514, 760.609 696.979, 752.235 702.444, 743.860 704.642, 740.491 709.574, 732.934 713.672, 726.653 715.306, 724.150 720.770, 715.775 726.030, 707.715 731.494, 699.341 736.959, 690.966 737.974, 689.410 732.277, 681.192 727.339, 674.069 724.732, 670.308 719.035, 662.090 718.732, 661.653 713.035, 653.435 707.700, 645.739 706.920, 644.615 701.223, 636.396 695.526, 628.178 694.120, 626.151 " fill="none" stroke="rgb(0, 119, 0)" stroke-linecap="butt" stroke-linejoin="round" stroke-opacity="1.0" stroke-width="3.0" />
            <path d=" M 597.185, 588.562 602.505, 597.029 607.825, 605.497 609.619, 608.353 614.939, 616.821 620.259, 625.288 625.579, 633.756 630.899, 642.223 636.219, 650.691 637.410, 652.586 " fill="none" stroke="rgb(0, 119, 0)" stroke-linecap="butt" stroke-linejoin="round" stroke-opacity="1.0" stroke-width="3.0" />
            <path d=" M 573.741, 755.083 577.328, 749.308 582.605, 740.813 587.882, 732.319 593.158, 723.824 597.463, 716.895 602.740, 708.400 608.016, 699.905 613.293, 691.411 618.569, 682.916 623.846, 674.422 629.123, 665.927 634.399, 657.433 637.410, 652.586 646.800, 656.025 656.191, 659.463 665.581, 662.901 674.971, 666.340 684.361, 669.778 693.752, 673.217 703.142, 676.655 712.532, 680.094 721.922, 683.532 731.313, 686.971 737.974, 689.410 " fill="none" stroke="rgb(0, 119, 0)" stroke-linecap="butt" stroke-linejoin="round" stroke-opacity="1.0" stroke-width="3.0" />
            <path d=" M 537.940, 687.078 545.607, 689.654 555.087, 692.838 564.566, 696.022 574.046, 699.206 583.526, 702.390 590.652, 704.784 600.131, 707.968 609.611, 711.152 619.090, 714.336 628.570, 717.520 635.066, 719.702 " fill="none" stroke="rgb(0, 119, 0)" stroke-linecap="butt" stroke-linejoin="round" stroke-opacity="1.0" stroke-width="3.0" />
            <path d=" M 694.120, 626.151 688.782, 634.607 686.787, 637.768 681.449, 646.224 676.111, 654.680 670.773, 663.136 665.435, 671.592 660.097, 680.049 654.759, 688.505 649.421, 696.961 644.083, 705.417 638.745, 713.873 635.066, 719.702 640.159, 728.308 645.253, 736.913 650.346, 745.519 655.439, 754.125 660.533, 762.730 665.626, 771.336 670.720, 779.942 674.610, 786.515 " fill="none" stroke="rgb(0, 119, 0)" stroke-linecap="butt" stroke-linejoin="round" stroke-opacity="1.0" stroke-width="3.0" />
            <path d=" M 924.740, 613.898 915.586, 609.872 906.432, 605.846 897.278, 601.820 895.675, 601.115 886.521, 597.090 877.367, 593.064 874.903, 591.980 865.749, 587.954 856.595, 583.929 847.441, 579.903 838.288, 575.877 829.134, 571.851 821.918, 568.678 812.764, 564.652 803.610, 560.626 794.456, 556.601 788.093, 553.802 778.939, 549.776 769.785, 545.751 760.631, 541.725 751.121, 537.542 741.967, 533.516 732.813, 529.491 723.659, 525.465 714.505, 521.439 705.352, 517.413 700.663, 515.351 691.509, 511.326 686.185, 508.984 677.031, 504.958 667.877, 500.933 658.723, 496.907 649.569, 492.881 645.360, 491.030 640.625, 488.948 633.429, 485.783 624.275, 481.757 617.554, 478.801 612.470, 487.412 607.386, 496.024 602.302, 504.635 598.510, 511.058 596.781, 513.988 591.697, 522.599 588.999, 527.168 587.092, 530.400 582.008, 539.011 576.924, 547.622 571.840, 556.233 566.756, 564.845 563.645, 570.114 563.583, 570.219 563.546, 570.283 558.462, 578.894 553.662, 587.024 550.782, 591.902 545.699, 600.513 543.171, 604.795 538.087, 613.406 533.003, 622.018 527.919, 630.629 523.867, 637.493 518.783, 646.105 516.451, 650.054 513.314, 655.368 508.230, 663.979 503.147, 672.590 498.063, 681.202 492.979, 689.813 487.895, 698.424 482.811, 707.035 477.727, 715.647 472.644, 724.258 467.560, 732.869 462.476, 741.481 457.392, 750.092 452.308, 758.703 447.224, 767.315 442.146, 775.917 437.062, 784.529 431.978, 793.140 426.894, 801.751 425.859, 803.505 420.775, 812.116 418.262, 816.373 421.848, 825.708 425.433, 835.043 427.189, 839.615 428.735, 843.639 432.321, 852.974 433.768, 856.741 437.353, 866.076 440.105, 873.240 443.691, 882.576 445.891, 888.304 449.477, 897.640 453.063, 906.975 456.648, 916.310 460.234, 925.645 461.495, 928.928 463.072, 933.033 465.438, 939.193 469.023, 948.528 470.587, 952.598 474.172, 961.933 474.991, 964.065 478.553, 973.339 481.012, 979.740 484.597, 989.075 488.183, 998.410 491.769, 1007.745 495.354, 1017.080 498.940, 1026.415 502.526, 1035.750 506.111, 1045.085 509.697, 1054.420 513.282, 1063.755 516.868, 1073.090 519.659, 1080.358 523.245, 1089.693 526.831, 1099.028 529.756, 1106.643 530.183, 1106.710 530.391, 1106.743 540.272, 1108.286 550.152, 1109.829 560.032, 1111.372 569.912, 1112.915 579.793, 1114.458 589.673, 1116.001 599.553, 1117.544 609.433, 1119.087 619.314, 1120.629 629.194, 1122.172 639.074, 1123.715 648.954, 1125.258 658.835, 1126.801 668.715, 1128.344 678.595, 1129.887 688.475, 1131.430 695.570, 1132.538 698.223, 1132.953 708.103, 1134.496 710.561, 1134.879 720.441, 1136.422 724.018, 1136.981 733.898, 1138.524 743.779, 1140.067 753.659, 1141.610 763.539, 1143.153 768.624, 1143.947 778.504, 1145.490 779.657, 1145.670 789.538, 1147.213 799.418, 1148.756 809.298, 1150.299 819.178, 1151.842 829.059, 1153.385 838.939, 1154.928 848.819, 1156.471 858.699, 1158.014 868.580, 1159.557 878.460, 1161.100 881.637, 1161.596 887.802, 1153.722 889.507, 1151.544 895.672, 1143.670 901.837, 1135.796 908.001, 1127.923 914.166, 1120.049 920.330, 1112.175 926.495, 1104.301 932.660, 1096.427 938.824, 1088.553 944.989, 1080.679 951.153, 1072.806 957.318, 1064.932 963.483, 1057.058 969.647, 1049.184 975.812, 1041.310 981.976, 1033.436 988.141, 1025.562 994.306, 1017.689 1000.470, 1009.815 1006.635, 1001.941 1012.799, 994.067 1018.964, 986.193 1024.519, 979.098 1030.684, 971.224 1035.587, 964.962 1038.048, 961.818 1044.213, 953.944 1050.377, 946.070 1056.542, 938.196 1062.706, 930.322 1067.421, 924.301 1073.586, 916.427 1079.750, 908.553 1085.915, 900.679 1092.079, 892.805 1098.244, 884.931 1104.409, 877.057 1105.532, 875.622 1111.697, 867.748 1117.862, 859.874 1124.026, 852.001 1130.191, 844.127 1131.795, 842.077 1125.075, 834.672 1118.355, 827.266 1111.635, 819.861 1104.915, 812.455 1098.195, 805.050 1091.475, 797.644 1084.755, 790.239 1078.036, 782.833 1071.316, 775.427 1064.596, 768.022 1057.876, 760.616 1050.372, 752.347 1043.652, 744.941 1036.932, 737.536 1030.212, 730.130 1023.492, 722.725 1016.772, 715.319 1010.052, 707.913 1003.332, 700.508 996.612, 693.102 989.892, 685.697 983.172, 678.291 976.452, 670.886 969.732, 663.480 963.012, 656.075 956.292, 648.669 949.572, 641.263 942.852, 633.858 936.132, 626.452 929.412, 619.047 924.740, 613.898 " fill="none" stroke="rgb(0, 119, 0)" stroke-linecap="butt" stroke-linejoin="round" stroke-opacity="1.0" stroke-width="3.0" />
            <path d=" M 617.554, 478.801 623.393, 486.919 628.515, 494.039 634.354, 502.157 640.194, 510.275 646.033, 518.393 651.872, 526.511 657.712, 534.629 662.839, 541.757 668.678, 549.875 674.517, 557.993 679.134, 564.411 684.974, 572.529 690.813, 580.647 696.652, 588.765 702.492, 596.883 702.869, 597.408 708.709, 605.526 714.548, 613.644 720.388, 621.762 726.227, 629.880 730.007, 635.135 735.846, 643.253 741.686, 651.371 747.525, 659.489 753.365, 667.607 759.204, 675.725 765.043, 683.843 770.883, 691.961 776.722, 700.079 782.562, 708.197 788.401, 716.315 790.036, 718.588 " fill="none" stroke="rgb(0, 119, 0)" stroke-linecap="butt" stroke-linejoin="round" stroke-opacity="1.0" stroke-width="3.0" />
            <path d=" M 529.756, 1106.643 535.326, 1098.338 540.897, 1090.034 544.599, 1084.513 550.169, 1076.209 555.740, 1067.904 561.310, 1059.599 566.880, 1051.294 572.451, 1042.989 578.021, 1034.684 583.591, 1026.379 589.162, 1018.074 594.732, 1009.769 600.302, 1001.464 605.475, 993.752 606.671, 991.969 612.242, 983.664 617.812, 975.359 620.502, 971.348 626.073, 963.043 631.643, 954.738 637.213, 946.434 642.784, 938.129 648.354, 929.824 651.423, 925.247 656.994, 916.942 662.564, 908.638 668.134, 900.333 673.705, 892.028 679.275, 883.723 684.845, 875.418 685.808, 873.983 691.378, 865.678 696.949, 857.373 702.519, 849.068 708.089, 840.763 712.321, 834.454 717.891, 826.150 720.450, 822.335 726.020, 814.030 731.591, 805.725 737.161, 797.420 742.731, 789.115 748.302, 780.810 753.872, 772.505 756.447, 768.666 762.017, 760.361 767.588, 752.056 773.158, 743.751 778.728, 735.446 784.299, 727.142 786.041, 724.544 790.036, 718.588 799.441, 721.986 808.846, 725.385 818.250, 728.783 827.655, 732.181 837.060, 735.580 846.465, 738.978 855.870, 742.376 865.275, 745.774 874.680, 749.173 884.084, 752.571 886.861, 753.574 887.264, 753.720 896.669, 757.118 906.074, 760.516 915.479, 763.915 924.883, 767.313 934.288, 770.711 943.693, 774.110 946.621, 775.168 956.026, 778.566 965.431, 781.964 968.156, 782.949 977.561, 786.347 986.965, 789.745 996.370, 793.144 1005.775, 796.542 1015.017, 799.881 1024.422, 803.280 1033.827, 806.678 1043.231, 810.076 1052.636, 813.475 1062.041, 816.873 1071.446, 820.271 1080.851, 823.669 1090.256, 827.068 1099.661, 830.466 1109.066, 833.864 1118.470, 837.263 1127.875, 840.661 1131.795, 842.077 " fill="none" stroke="rgb(0, 119, 0)" stroke-linecap="butt" stroke-linejoin="round" stroke-opacity="1.0" stroke-width="3.0" />
            <path d=" M 418.262, 816.373 427.924, 818.953 437.585, 821.532 447.246, 824.112 456.908, 826.692 466.569, 829.272 476.231, 831.852 485.892, 834.432 495.554, 837.012 505.215, 839.592 514.877, 842.171 524.538, 844.751 534.200, 847.331 543.861, 849.911 552.444, 852.203 562.106, 854.783 571.767, 857.363 581.429, 859.943 591.090, 862.522 600.752, 865.102 610.413, 867.682 620.075, 870.262 629.736, 872.842 639.398, 875.422 649.059, 878.002 658.721, 880.582 666.582, 882.681 676.244, 885.261 678.573, 885.883 688.234, 888.463 697.896, 891.042 707.557, 893.622 717.219, 896.202 726.880, 898.782 728.740, 899.279 " fill="none" stroke="rgb(0, 119, 0)" stroke-linecap="butt" stroke-linejoin="round" stroke-opacity="1.0" stroke-width="3.0" />
            <path d=" M 924.740, 613.898 919.079, 622.141 917.052, 625.092 911.391, 633.335 905.729, 641.578 900.068, 649.821 894.407, 658.064 888.745, 666.307 883.084, 674.550 881.255, 677.213 875.594, 685.456 872.090, 690.557 866.429, 698.800 860.768, 707.044 856.191, 713.708 850.529, 721.951 844.868, 730.194 839.207, 738.437 833.545, 746.680 827.884, 754.923 822.223, 763.166 817.972, 769.355 812.311, 777.598 806.933, 785.429 801.271, 793.672 795.610, 801.915 789.949, 810.158 784.287, 818.401 778.626, 826.644 772.964, 834.888 767.303, 843.131 762.997, 849.400 757.336, 857.643 751.675, 865.886 749.219, 869.461 743.558, 877.705 737.896, 885.948 732.235, 894.191 728.740, 899.279 733.776, 907.918 738.812, 916.558 743.848, 925.198 747.917, 932.178 752.952, 940.818 757.988, 949.458 759.360, 951.811 764.293, 960.274 769.328, 968.913 774.364, 977.553 777.297, 982.585 782.333, 991.225 787.369, 999.864 792.404, 1008.504 797.440, 1017.143 802.476, 1025.783 807.511, 1034.422 812.547, 1043.062 817.583, 1051.701 822.619, 1060.341 827.654, 1068.980 831.819, 1076.125 836.855, 1084.765 841.890, 1093.404 846.926, 1102.044 851.962, 1110.683 856.997, 1119.323 862.033, 1127.962 867.069, 1136.602 872.105, 1145.241 877.140, 1153.881 881.637, 1161.596 " fill="none" stroke="rgb(0, 119, 0)" stroke-linecap="butt" stroke-linejoin="round" stroke-opacity="1.0" stroke-width="3.0" />
            <path d=" M 738.161, 657.351 734.103, 655.803 724.780, 652.250 715.436, 648.688 707.700, 645.739 706.496, 645.280 697.152, 641.719 687.808, 638.157 686.787, 637.768 677.443, 634.206 668.099, 630.644 658.755, 627.083 649.410, 623.521 640.066, 619.959 630.722, 616.397 621.378, 612.835 612.034, 609.274 609.619, 608.353 600.275, 604.791 590.931, 601.230 589.821, 600.807 580.477, 597.245 580.033, 597.076 579.764, 596.973 576.773, 595.833 569.563, 593.085 560.219, 589.523 553.662, 587.024 546.293, 584.215 536.949, 580.653 527.605, 577.091 527.306, 576.977 517.962, 573.416 508.618, 569.854 502.048, 567.350 492.704, 563.788 484.685, 560.731 475.341, 557.169 465.997, 553.607 465.806, 553.535 460.893, 562.245 455.981, 570.955 451.069, 579.666 446.157, 588.376 441.245, 597.087 436.038, 606.320 431.125, 615.030 426.213, 623.741 425.502, 625.002 420.590, 633.713 415.677, 642.423 410.765, 651.134 405.853, 659.844 400.941, 668.554 396.029, 677.265 391.117, 685.975 386.204, 694.685 381.292, 703.396 376.380, 712.106 371.468, 720.817 366.556, 729.527 365.173, 731.980 360.260, 740.690 355.348, 749.400 350.436, 758.111 345.524, 766.821 342.537, 772.118 337.625, 780.828 332.713, 789.538 327.801, 798.249 322.888, 806.959 320.087, 811.926 318.622, 814.524 313.710, 823.235 312.117, 826.059 315.003, 835.633 315.063, 835.831 317.949, 845.406 320.835, 854.980 323.721, 864.555 326.299, 873.110 329.185, 882.685 332.071, 892.260 333.076, 895.595 335.962, 905.169 337.694, 910.914 340.579, 920.489 343.465, 930.063 346.351, 939.638 348.331, 946.206 351.217, 955.781 354.103, 965.355 356.989, 974.930 359.874, 984.504 362.760, 994.079 365.646, 1003.653 368.532, 1013.228 371.418, 1022.802 374.304, 1032.377 377.190, 1041.951 380.075, 1051.526 381.844, 1057.392 391.708, 1059.036 394.307, 1059.469 402.751, 1060.876 412.615, 1062.520 422.479, 1064.163 427.007, 1064.918 436.871, 1066.562 446.735, 1068.205 456.599, 1069.849 466.463, 1071.493 476.327, 1073.137 485.589, 1074.680 495.453, 1076.324 505.317, 1077.968 515.181, 1079.611 519.659, 1080.358 529.523, 1082.001 539.387, 1083.645 544.599, 1084.513 545.026, 1084.585 545.234, 1084.619 555.099, 1086.263 564.962, 1087.907 574.826, 1089.551 584.690, 1091.194 594.554, 1092.838 604.418, 1094.482 614.282, 1096.125 624.146, 1097.769 634.010, 1099.413 643.874, 1101.057 653.738, 1102.700 663.602, 1104.344 673.466, 1105.988 683.655, 1107.686 686.282, 1108.123 687.311, 1108.295 693.132, 1100.163 698.952, 1092.032 700.604, 1089.725 706.424, 1081.594 712.245, 1073.462 718.065, 1065.331 723.647, 1057.533 729.468, 1049.402 735.289, 1041.270 741.109, 1033.139 746.930, 1025.007 752.751, 1016.876 758.571, 1008.745 764.392, 1000.613 768.563, 994.786 774.384, 986.655 777.297, 982.585 783.118, 974.454 788.938, 966.322 793.340, 960.174 799.160, 952.042 804.981, 943.911 810.802, 935.780 816.622, 927.648 822.443, 919.517 828.264, 911.385 831.371, 907.044 832.963, 904.821 835.147, 901.770 840.967, 893.638 846.788, 885.507 852.609, 877.376 858.429, 869.244 864.250, 861.113 870.071, 852.981 873.825, 847.737 868.021, 839.593 862.218, 831.449 858.843, 826.713 853.040, 818.569 847.237, 810.425 847.099, 810.232 841.296, 802.088 836.397, 795.212 830.594, 787.068 826.729, 781.644 823.511, 777.128 818.516, 770.118 817.972, 769.355 812.169, 761.211 806.366, 753.067 800.563, 744.923 794.760, 736.779 790.349, 730.590 786.041, 724.544 786.015, 724.507 780.212, 716.363 774.409, 708.219 768.606, 700.075 767.880, 699.057 762.076, 690.913 756.273, 682.769 751.606, 676.219 745.803, 668.075 740.000, 659.931 738.161, 657.351 " fill="none" stroke="rgb(0, 119, 0)" stroke-linecap="butt" stroke-linejoin="round" stroke-opacity="1.0" stroke-width="3.0" />
            <path d=" M 465.806, 553.535 470.452, 562.390 475.098, 571.245 476.824, 574.533 481.470, 583.388 486.116, 592.243 486.891, 593.719 491.538, 602.574 496.184, 611.429 500.830, 620.284 505.477, 629.139 510.123, 637.994 514.769, 646.849 516.451, 650.054 520.553, 657.871 525.199, 666.726 529.845, 675.581 534.492, 684.436 539.138, 693.291 543.785, 702.146 548.431, 711.001 553.077, 719.856 557.724, 728.711 562.370, 737.566 567.017, 746.421 570.518, 753.094 " fill="none" stroke="rgb(0, 119, 0)" stroke-linecap="butt" stroke-linejoin="round" stroke-opacity="1.0" stroke-width="3.0" />
            <path d=" M 381.844, 1057.392 387.113, 1048.893 389.733, 1044.667 395.003, 1036.168 400.273, 1027.669 405.542, 1019.170 410.812, 1010.672 416.081, 1002.173 421.351, 993.674 426.621, 985.175 431.890, 976.676 437.160, 968.177 442.429, 959.678 445.903, 954.076 451.173, 945.577 456.442, 937.078 461.495, 928.928 466.765, 920.430 472.034, 911.931 477.304, 903.432 482.573, 894.933 487.843, 886.434 488.620, 885.180 493.890, 876.681 499.159, 868.183 504.429, 859.684 509.699, 851.185 514.968, 842.686 520.238, 834.187 525.507, 825.688 530.777, 817.189 536.047, 808.690 541.316, 800.191 546.586, 791.692 551.855, 783.193 557.125, 774.695 562.395, 766.196 567.664, 757.697 570.518, 753.094 573.122, 753.906 581.097, 756.395 590.643, 759.373 600.189, 762.352 609.735, 765.331 619.281, 768.310 627.889, 770.996 637.435, 773.974 646.981, 776.953 656.527, 779.932 666.073, 782.911 675.120, 785.734 684.666, 788.712 694.212, 791.691 703.758, 794.670 713.304, 797.649 721.587, 800.233 731.133, 803.212 740.679, 806.191 750.225, 809.170 759.771, 812.148 769.318, 815.127 778.864, 818.106 788.410, 821.084 797.956, 824.063 807.502, 827.042 817.048, 830.021 826.594, 832.999 830.308, 834.158 839.854, 837.137 849.363, 840.104 858.909, 843.083 868.455, 846.062 873.825, 847.737 " fill="none" stroke="rgb(0, 119, 0)" stroke-linecap="butt" stroke-linejoin="round" stroke-opacity="1.0" stroke-width="3.0" />
            <path d=" M 312.117, 826.059 321.814, 828.504 323.037, 828.813 332.733, 831.258 342.430, 833.704 348.124, 835.140 357.821, 837.586 367.517, 840.031 377.213, 842.477 386.910, 844.922 396.606, 847.368 406.302, 849.813 407.802, 850.192 408.680, 850.413 418.376, 852.859 428.073, 855.304 433.768, 856.741 443.464, 859.186 453.160, 861.632 462.857, 864.077 472.553, 866.523 482.249, 868.968 491.946, 871.414 501.642, 873.860 511.338, 876.305 521.035, 878.751 530.731, 881.196 533.667, 881.937 543.363, 884.382 553.059, 886.828 562.756, 889.273 572.452, 891.719 582.148, 894.165 584.487, 894.754 " fill="none" stroke="rgb(0, 119, 0)" stroke-linecap="butt" stroke-linejoin="round" stroke-opacity="1.0" stroke-width="3.0" />
            <path d=" M 738.161, 657.351 732.727, 665.745 727.339, 674.069 721.905, 682.464 716.471, 690.858 711.037, 699.253 705.603, 707.648 700.169, 716.043 694.735, 724.437 689.301, 732.832 683.867, 741.227 678.433, 749.622 672.999, 758.016 667.565, 766.411 662.131, 774.806 657.919, 781.314 652.485, 789.708 650.125, 793.353 644.955, 801.341 639.521, 809.736 637.755, 812.464 632.321, 820.858 626.887, 829.253 621.453, 837.648 616.019, 846.043 610.585, 854.437 605.151, 862.832 599.717, 871.227 594.283, 879.622 588.849, 888.016 584.487, 894.754 588.826, 903.764 592.145, 910.659 596.484, 919.668 600.822, 928.678 605.161, 937.688 609.499, 946.698 613.837, 955.708 615.525, 959.212 619.863, 968.222 621.311, 971.229 625.650, 980.239 629.988, 989.249 634.096, 997.781 635.174, 1000.019 639.512, 1009.029 643.851, 1018.039 648.189, 1027.049 652.528, 1036.059 656.866, 1045.068 661.205, 1054.078 665.543, 1063.088 669.881, 1072.098 674.220, 1081.108 678.558, 1090.118 682.897, 1099.128 687.311, 1108.295 " fill="none" stroke="rgb(0, 119, 0)" stroke-linecap="butt" stroke-linejoin="round" stroke-opacity="1.0" stroke-width="3.0" />
            <path d=" M 574.822, 676.637 565.371, 673.369 555.920, 670.101 549.488, 667.876 540.037, 664.608 536.432, 663.362 530.544, 661.326 521.093, 658.057 520.553, 657.871 513.314, 655.368 503.863, 652.100 494.413, 648.831 484.962, 645.563 475.511, 642.295 466.060, 639.027 461.712, 637.524 452.262, 634.256 444.362, 631.524 434.911, 628.256 425.502, 625.002 423.022, 624.145 413.572, 620.877 404.121, 617.609 394.670, 614.341 385.219, 611.073 375.768, 607.805 366.317, 604.537 356.866, 601.269 347.415, 598.000 337.964, 594.732 328.513, 591.464 319.062, 588.196 311.376, 585.538 301.925, 582.270 292.475, 579.002 283.024, 575.734 275.244, 573.044 270.633, 581.917 266.022, 590.791 261.411, 599.664 256.800, 608.538 252.189, 617.411 247.578, 626.285 242.967, 635.158 238.356, 644.032 233.745, 652.905 229.134, 661.779 224.522, 670.652 219.911, 679.525 215.300, 688.399 210.689, 697.272 206.078, 706.146 201.467, 715.019 196.856, 723.893 192.245, 732.766 187.634, 741.640 183.023, 750.513 178.412, 759.386 173.801, 768.260 169.190, 777.133 164.579, 786.007 159.968, 794.880 155.357, 803.754 150.746, 812.627 146.134, 821.501 141.523, 830.374 136.912, 839.248 131.418, 849.821 133.022, 859.692 134.018, 865.826 135.622, 875.697 137.226, 885.568 138.830, 895.438 140.434, 905.309 142.038, 915.179 143.642, 925.050 145.246, 934.920 146.850, 944.791 148.454, 954.661 150.058, 964.532 151.662, 974.402 153.265, 984.273 154.869, 994.143 156.473, 1004.014 158.077, 1013.884 159.681, 1023.755 161.285, 1033.626 162.889, 1043.496 164.493, 1053.367 166.097, 1063.237 167.701, 1073.108 169.305, 1082.978 170.605, 1090.979 180.506, 1092.378 190.408, 1093.776 200.310, 1095.175 210.212, 1096.573 220.113, 1097.972 230.015, 1099.371 239.917, 1100.769 249.818, 1102.168 259.720, 1103.566 269.622, 1104.965 279.524, 1106.364 289.425, 1107.762 299.327, 1109.161 309.229, 1110.559 319.130, 1111.958 329.032, 1113.356 338.791, 1114.735 348.693, 1116.133 358.594, 1117.532 366.551, 1118.656 376.453, 1120.055 386.355, 1121.453 396.257, 1122.852 406.158, 1124.250 416.060, 1125.649 425.962, 1127.047 435.863, 1128.446 445.765, 1129.845 455.667, 1131.243 465.569, 1132.642 475.470, 1134.040 485.372, 1135.439 495.274, 1136.838 505.175, 1138.236 508.699, 1138.734 508.908, 1138.763 514.479, 1130.459 520.051, 1122.155 524.338, 1115.765 529.909, 1107.461 530.391, 1106.743 535.963, 1098.438 541.534, 1090.134 545.234, 1084.619 550.806, 1076.315 556.378, 1068.011 561.949, 1059.707 567.520, 1051.403 573.092, 1043.099 578.663, 1034.795 584.235, 1026.490 589.806, 1018.186 595.378, 1009.882 600.949, 1001.578 602.560, 999.177 606.110, 993.886 607.306, 992.104 612.877, 983.800 618.449, 975.495 619.516, 973.904 620.807, 971.981 621.311, 971.229 626.883, 962.925 627.043, 962.686 632.615, 954.382 638.186, 946.078 643.758, 937.774 649.488, 929.233 652.057, 925.403 653.645, 923.037 659.216, 914.733 664.788, 906.428 664.991, 906.125 670.563, 897.821 676.134, 889.517 678.573, 885.883 683.377, 878.722 686.149, 874.590 686.037, 874.391 685.808, 873.983 685.786, 873.943 680.884, 865.227 680.478, 864.506 679.668, 863.066 674.767, 854.350 670.332, 846.465 665.430, 837.748 660.528, 829.032 655.626, 820.316 653.886, 817.221 648.984, 808.505 644.955, 801.341 642.686, 797.307 638.461, 789.794 633.559, 781.078 628.657, 772.362 628.544, 772.160 627.889, 770.996 627.175, 769.726 622.273, 761.010 621.060, 758.852 616.158, 750.136 611.256, 741.420 607.298, 734.383 602.397, 725.667 597.463, 716.895 597.398, 716.779 592.496, 708.063 590.652, 704.784 585.750, 696.068 580.848, 687.351 575.946, 678.635 574.822, 676.637 " fill="none" stroke="rgb(0, 119, 0)" stroke-linecap="butt" stroke-linejoin="round" stroke-opacity="1.0" stroke-width="3.0" />
            <path d=" M 275.244, 573.044 278.446, 582.517 281.649, 591.991 284.851, 601.464 288.053, 610.938 291.256, 620.411 294.458, 629.884 297.660, 639.358 300.862, 648.831 304.065, 658.305 307.267, 667.778 310.469, 677.251 313.672, 686.725 316.874, 696.198 320.076, 705.672 323.279, 715.145 326.481, 724.618 329.683, 734.092 332.885, 743.565 336.088, 753.039 339.290, 762.512 341.467, 768.952 342.537, 772.118 345.752, 781.628 " fill="none" stroke="rgb(0, 119, 0)" stroke-linecap="butt" stroke-linejoin="round" stroke-opacity="1.0" stroke-width="3.0" />
            <path d=" M 170.605, 1090.979 175.532, 1082.277 180.458, 1073.575 185.385, 1064.873 190.312, 1056.171 195.239, 1047.469 200.166, 1038.767 205.093, 1030.065 210.020, 1021.363 214.947, 1012.661 219.874, 1003.959 224.800, 995.257 229.727, 986.554 234.654, 977.852 239.581, 969.150 244.508, 960.448 249.435, 951.746 254.362, 943.044 259.289, 934.342 264.216, 925.640 269.142, 916.938 274.069, 908.236 278.996, 899.534 283.923, 890.832 288.850, 882.130 293.777, 873.428 298.704, 864.726 303.631, 856.024 308.557, 847.322 313.484, 838.620 315.063, 835.831 319.990, 827.129 321.625, 824.242 326.551, 815.540 331.478, 806.838 336.405, 798.136 341.332, 789.434 345.752, 781.628 355.398, 784.262 365.045, 786.897 374.388, 789.448 384.034, 792.083 386.763, 792.828 387.611, 793.059 397.257, 795.694 406.904, 798.328 416.551, 800.963 425.859, 803.505 435.506, 806.139 445.152, 808.774 454.799, 811.408 464.446, 814.043 474.092, 816.677 483.739, 819.312 493.386, 821.946 503.033, 824.581 512.679, 827.215 522.326, 829.850 531.973, 832.484 541.620, 835.119 551.266, 837.753 560.054, 840.153 569.701, 842.788 579.347, 845.422 588.994, 848.057 598.641, 850.691 608.288, 853.326 617.934, 855.960 627.581, 858.595 637.228, 861.229 646.874, 863.864 656.521, 866.498 666.168, 869.133 674.164, 871.317 683.811, 873.951 686.149, 874.590 " fill="none" stroke="rgb(0, 119, 0)" stroke-linecap="butt" stroke-linejoin="round" stroke-opacity="1.0" stroke-width="3.0" />
            <path d=" M 131.418, 849.821 141.170, 852.035 150.922, 854.248 160.674, 856.462 170.425, 858.676 180.177, 860.889 189.929, 863.103 199.681, 865.316 209.433, 867.530 219.185, 869.743 228.937, 871.957 238.689, 874.170 248.441, 876.384 258.193, 878.597 267.945, 880.811 277.697, 883.024 287.449, 885.238 297.201, 887.452 306.953, 889.665 315.649, 891.639 325.401, 893.853 333.076, 895.595 342.828, 897.808 344.471, 898.181 354.223, 900.395 363.975, 902.608 373.727, 904.822 383.479, 907.035 393.231, 909.249 402.983, 911.462 412.734, 913.676 422.486, 915.889 428.287, 917.206 " fill="none" stroke="rgb(0, 119, 0)" stroke-linecap="butt" stroke-linejoin="round" stroke-opacity="1.0" stroke-width="3.0" />
            <path d=" M 574.822, 676.637 569.620, 685.177 564.418, 693.718 559.216, 702.258 555.529, 708.311 552.090, 713.956 546.888, 722.497 541.686, 731.037 536.484, 739.578 531.282, 748.118 526.079, 756.658 520.877, 765.199 515.675, 773.739 510.473, 782.280 505.271, 790.820 500.069, 799.360 494.867, 807.901 489.665, 816.441 484.463, 824.981 479.260, 833.522 474.058, 842.062 468.856, 850.603 463.654, 859.143 458.452, 867.683 453.117, 876.443 447.914, 884.983 445.891, 888.304 440.689, 896.845 435.487, 905.385 430.842, 913.011 428.287, 917.206 431.706, 926.603 435.126, 936.000 438.545, 945.398 441.965, 954.795 445.384, 964.192 448.804, 973.589 452.223, 982.986 455.643, 992.384 459.062, 1001.781 462.482, 1011.178 465.901, 1020.575 469.321, 1029.972 472.740, 1039.370 476.160, 1048.767 479.579, 1058.164 482.999, 1067.561 485.589, 1074.680 489.008, 1084.077 492.428, 1093.474 495.847, 1102.872 499.146, 1111.938 502.566, 1121.335 505.985, 1130.732 508.908, 1138.763 " fill="none" stroke="rgb(0, 119, 0)" stroke-linecap="butt" stroke-linejoin="round" stroke-opacity="1.0" stroke-width="3.0" />
            <path d=" M 730.811, 435.990 721.806, 431.642 712.801, 427.293 703.795, 422.945 694.790, 418.596 685.370, 414.047 676.365, 409.699 667.360, 405.350 658.355, 401.002 649.350, 396.653 640.345, 392.305 631.340, 387.957 629.179, 386.913 624.160, 395.562 619.140, 404.211 614.121, 412.860 609.102, 421.510 605.739, 427.305 600.720, 435.954 595.701, 444.603 590.681, 453.252 585.662, 461.901 580.643, 470.550 575.624, 479.199 570.604, 487.849 565.274, 497.034 568.619, 502.150 574.092, 510.519 579.565, 518.889 583.490, 524.892 587.092, 530.400 592.564, 538.769 597.447, 546.236 602.126, 553.392 605.200, 558.093 614.477, 561.827 623.753, 565.561 633.030, 569.295 642.306, 573.029 651.583, 576.764 660.860, 580.498 670.136, 584.232 679.413, 587.966 688.690, 591.700 697.966, 595.434 702.869, 597.408 711.198, 600.761 716.537, 592.305 721.877, 583.850 722.767, 582.440 728.107, 573.985 730.498, 570.199 735.837, 561.744 736.190, 561.185 741.530, 552.730 746.869, 544.275 751.121, 537.542 756.460, 529.087 761.800, 520.632 767.140, 512.177 770.223, 507.294 772.328, 503.961 777.668, 495.505 779.804, 492.123 773.228, 484.589 766.652, 477.055 760.077, 469.521 753.501, 461.987 746.925, 454.453 740.350, 446.919 733.774, 439.385 730.811, 435.990 " fill="none" stroke="rgb(0, 119, 0)" stroke-linecap="butt" stroke-linejoin="round" stroke-opacity="1.0" stroke-width="3.0" />
            <path d=" M 629.179, 386.913 635.457, 394.696 641.736, 402.479 648.015, 410.263 654.294, 418.046 660.572, 425.829 666.851, 433.612 673.130, 441.396 674.250, 442.785 " fill="none" stroke="rgb(0, 119, 0)" stroke-linecap="butt" stroke-linejoin="round" stroke-opacity="1.0" stroke-width="3.0" />
            <path d=" M 605.200, 558.093 610.338, 549.513 615.475, 540.934 616.832, 538.669 621.969, 530.089 624.607, 525.685 629.744, 517.106 634.882, 508.527 640.020, 499.947 645.360, 491.030 650.497, 482.451 655.635, 473.871 660.773, 465.292 664.597, 458.905 666.718, 455.364 671.855, 446.785 674.250, 442.785 683.310, 447.020 692.369, 451.254 701.428, 455.489 710.487, 459.723 719.547, 463.958 728.606, 468.192 737.665, 472.427 746.724, 476.661 755.783, 480.896 764.842, 485.130 773.902, 489.365 779.804, 492.123 " fill="none" stroke="rgb(0, 119, 0)" stroke-linecap="butt" stroke-linejoin="round" stroke-opacity="1.0" stroke-width="3.0" />
            <path d=" M 565.274, 497.034 574.487, 500.922 583.701, 504.809 592.914, 508.697 598.510, 511.058 607.723, 514.946 614.395, 517.762 623.609, 521.649 632.822, 525.537 642.035, 529.425 651.248, 533.313 660.462, 537.201 667.197, 540.043 " fill="none" stroke="rgb(0, 119, 0)" stroke-linecap="butt" stroke-linejoin="round" stroke-opacity="1.0" stroke-width="3.0" />
            <path d=" M 730.811, 435.990 725.595, 444.522 720.378, 453.054 715.162, 461.586 709.946, 470.118 707.495, 474.128 705.379, 477.588 700.163, 486.120 694.947, 494.652 689.731, 503.184 686.185, 508.984 680.969, 517.516 675.753, 526.048 670.536, 534.580 667.197, 540.043 670.893, 545.142 676.760, 553.240 682.628, 561.337 687.302, 567.786 693.170, 575.883 699.038, 583.981 704.906, 592.078 710.773, 600.175 711.198, 600.761 " fill="none" stroke="rgb(0, 119, 0)" stroke-linecap="butt" stroke-linejoin="round" stroke-opacity="1.0" stroke-width="3.0" />
            <path d=" M 917.052, 625.092 910.397, 617.628 903.742, 610.163 897.087, 602.699 895.675, 601.115 889.020, 593.651 882.365, 586.187 880.324, 583.898 873.669, 576.434 867.014, 568.970 860.359, 561.506 853.704, 554.042 847.049, 546.578 840.886, 539.665 831.795, 535.500 822.704, 531.336 813.612, 527.171 807.130, 524.201 798.038, 520.036 788.947, 515.871 779.856, 511.706 770.764, 507.542 770.223, 507.294 761.132, 503.129 752.040, 498.964 742.949, 494.799 733.858, 490.634 724.766, 486.469 715.675, 482.305 706.583, 478.140 705.379, 477.588 696.288, 473.423 687.196, 469.258 678.105, 465.093 669.013, 460.929 664.597, 458.905 659.867, 456.738 652.677, 453.444 647.562, 462.038 642.448, 470.631 637.333, 479.224 633.429, 485.783 628.515, 494.039 623.400, 502.632 618.286, 511.225 614.395, 517.762 612.667, 520.666 607.552, 529.259 604.889, 533.734 599.774, 542.327 597.447, 546.236 592.333, 554.829 587.218, 563.423 582.103, 572.016 579.482, 576.420 574.367, 585.013 573.543, 586.398 573.442, 586.568 569.563, 593.085 564.449, 601.678 560.432, 608.426 555.317, 617.019 552.674, 621.460 547.560, 630.053 542.445, 638.646 539.771, 643.138 534.657, 651.732 529.790, 659.908 530.544, 661.326 533.889, 667.617 538.584, 676.446 541.282, 681.520 545.607, 689.654 550.302, 698.483 554.997, 707.312 555.529, 708.311 560.224, 717.141 564.918, 725.970 569.613, 734.799 574.308, 743.629 577.266, 749.190 577.328, 749.308 581.097, 756.395 581.721, 757.569 586.416, 766.399 586.795, 767.111 591.490, 775.940 595.657, 783.777 600.036, 792.012 604.731, 800.841 605.919, 803.075 614.242, 805.529 623.833, 808.358 633.425, 811.187 633.672, 811.260 637.755, 812.464 647.346, 815.292 653.886, 817.221 663.477, 820.050 666.425, 820.919 676.017, 823.748 683.838, 826.055 693.430, 828.883 700.987, 831.112 702.479, 831.552 712.070, 834.381 712.280, 834.442 712.321, 834.454 721.912, 837.283 731.258, 840.039 740.849, 842.868 750.441, 845.697 760.033, 848.525 762.997, 849.400 771.867, 852.016 781.459, 854.844 791.050, 857.673 800.642, 860.502 801.090, 860.634 809.781, 863.197 809.904, 863.233 815.648, 855.048 821.392, 846.862 827.137, 838.677 830.308, 834.158 836.052, 825.973 841.797, 817.787 847.099, 810.232 852.844, 802.046 853.625, 800.932 859.427, 792.666 864.287, 785.741 870.031, 777.555 875.775, 769.370 880.492, 762.649 886.237, 754.464 886.861, 753.574 886.998, 753.378 892.743, 745.193 898.487, 737.007 904.232, 728.822 906.483, 725.614 912.227, 717.429 913.185, 716.064 " fill="none" stroke="rgb(0, 119, 0)" stroke-linecap="butt" stroke-linejoin="round" stroke-opacity="1.0" stroke-width="3.0" />
            <path d=" M 652.677, 453.444 658.803, 461.348 664.929, 469.252 671.056, 477.155 677.182, 485.059 683.309, 492.963 689.435, 500.866 695.561, 508.770 700.663, 515.351 706.789, 523.255 712.916, 531.159 719.042, 539.062 725.168, 546.966 731.295, 554.870 736.190, 561.185 " fill="none" stroke="rgb(0, 119, 0)" stroke-linecap="butt" stroke-linejoin="round" stroke-opacity="1.0" stroke-width="3.0" />
            <path d=" M 529.790, 659.908 539.240, 663.180 548.689, 666.452 550.059, 666.927 559.508, 670.199 568.958, 673.471 578.407, 676.743 587.856, 680.016 597.306, 683.288 606.755, 686.560 616.205, 689.832 625.654, 693.104 635.104, 696.377 644.553, 699.649 654.003, 702.921 663.452, 706.193 672.902, 709.466 682.351, 712.738 691.801, 716.010 701.250, 719.282 710.700, 722.555 715.306, 724.150 719.353, 725.551 " fill="none" stroke="rgb(0, 119, 0)" stroke-linecap="butt" stroke-linejoin="round" stroke-opacity="1.0" stroke-width="3.0" />
            <path d=" M 840.886, 539.665 835.414, 548.035 829.942, 556.405 824.470, 564.775 821.918, 568.678 816.446, 577.048 810.973, 585.417 805.501, 593.787 801.429, 600.016 795.956, 608.386 790.484, 616.756 786.103, 623.457 780.630, 631.827 775.158, 640.197 769.686, 648.567 768.620, 650.197 763.148, 658.567 757.676, 666.937 752.203, 675.307 751.606, 676.219 746.134, 684.589 740.662, 692.959 735.190, 701.329 729.717, 709.699 724.245, 718.068 719.353, 725.551 724.848, 733.906 730.343, 742.261 735.838, 750.616 741.333, 758.971 745.267, 764.954 750.762, 773.309 756.257, 781.664 761.752, 790.019 767.247, 798.374 772.742, 806.729 778.237, 815.084 783.732, 823.439 789.227, 831.794 794.722, 840.149 800.217, 848.504 805.711, 856.859 809.904, 863.233 " fill="none" stroke="rgb(0, 119, 0)" stroke-linecap="butt" stroke-linejoin="round" stroke-opacity="1.0" stroke-width="3.0" />
            <path d=" M 716.356, 629.811 710.981, 638.243 706.920, 644.615 706.496, 645.280 701.121, 653.713 695.746, 662.146 690.371, 670.578 684.996, 679.011 679.621, 687.444 674.246, 695.876 668.871, 704.309 663.496, 712.742 658.121, 721.174 652.747, 729.607 647.372, 738.040 641.997, 746.473 636.622, 754.905 631.247, 763.338 627.175, 769.726 626.107, 771.401 620.732, 779.833 618.304, 783.644 612.929, 792.076 607.554, 800.509 605.919, 803.075 " fill="none" stroke="rgb(0, 119, 0)" stroke-linecap="butt" stroke-linejoin="round" stroke-opacity="1.0" stroke-width="3.0" />
            <path d=" M 602.126, 553.392 596.998, 561.977 591.869, 570.562 586.690, 579.232 581.561, 587.817 576.773, 595.833 571.644, 604.418 566.516, 613.002 561.387, 621.587 556.259, 630.172 551.130, 638.757 546.002, 647.342 540.873, 655.926 536.432, 663.362 533.889, 667.617 528.761, 676.202 523.632, 684.787 518.504, 693.371 513.375, 701.956 508.247, 710.541 503.119, 719.126 497.990, 727.711 492.862, 736.295 487.733, 744.880 482.605, 753.465 477.476, 762.050 472.348, 770.635 467.219, 779.219 462.091, 787.804 456.962, 796.389 451.834, 804.974 446.705, 813.558 441.577, 822.143 436.448, 830.728 431.320, 839.313 428.735, 843.639 423.607, 852.224 418.478, 860.809 414.776, 867.007 " fill="none" stroke="rgb(0, 119, 0)" stroke-linecap="butt" stroke-linejoin="round" stroke-opacity="1.0" stroke-width="3.0" />
        </g>
    </g>
</svg>
