<?xml version='1.0' encoding='ascii'?>
<svg xmlns="http://www.w3.org/2000/svg" xmlns:inkscape="http://www.inkscape.org/namespaces/inkscape" height="1500" version="1.1" width="1500">
    <g id="fressstylelayer_LineSet" inkscape:groupmode="lineset" inkscape:label="fressstylelayer_LineSet">
        <g id="strokes" inkscape:groupmode="layer" inkscape:label="strokes">
            <path d=" M 495.334, 1036.484 505.334, 1036.437 515.333, 1036.389 525.333, 1036.342 535.333, 1036.294 545.333, 1036.247 555.333, 1036.200 565.333, 1036.152 575.333, 1036.105 585.333, 1036.057 595.333, 1036.010 605.332, 1035.962 615.332, 1035.915 625.332, 1035.868 635.332, 1035.820 645.332, 1035.773 655.332, 1035.725 665.332, 1035.678 675.332, 1035.630 685.331, 1035.583 695.331, 1035.536 699.010, 1035.518 705.445, 1035.488 715.445, 1035.440 725.445, 1035.393 735.444, 1035.345 736.681, 1035.339 739.641, 1035.325 749.641, 1035.278 759.641, 1035.230 769.641, 1035.183 779.641, 1035.136 789.641, 1035.088 799.641, 1035.041 809.641, 1034.993 819.641, 1034.946 829.640, 1034.898 839.640, 1034.851 849.640, 1034.804 859.640, 1034.756 869.640, 1034.709 879.640, 1034.661 889.640, 1034.614 899.640, 1034.566 909.639, 1034.519 919.639, 1034.472 929.639, 1034.424 939.639, 1034.377 942.060, 1034.365 952.060, 1034.318 962.060, 1034.270 972.060, 1034.223 982.060, 1034.175 992.060, 1034.128 1001.457, 1034.083 1004.063, 1034.071 1006.563, 1024.389 1009.062, 1014.706 1010.688, 1008.410 1013.188, 998.727 1015.687, 989.044 1018.187, 979.362 1020.687, 969.679 1023.186, 959.997 1025.686, 950.314 1028.186, 940.632 1030.685, 930.949 1033.185, 921.267 1035.685, 911.584 1038.184, 901.902 1040.684, 892.219 1043.184, 882.537 1045.684, 872.854 1048.183, 863.172 1050.683, 853.489 1053.183, 843.806 1055.271, 835.716 1057.771, 826.034 1060.271, 816.351 1062.770, 806.669 1065.270, 796.986 1067.770, 787.304 1070.270, 777.621 1072.769, 767.939 1075.269, 758.256 1077.769, 748.574 1080.268, 738.891 1082.768, 729.208 1085.268, 719.526 1087.767, 709.843 1090.267, 700.161 1092.767, 690.478 1095.266, 680.796 1097.766, 671.113 1100.266, 661.431 1102.766, 651.748 1105.265, 642.066 1107.765, 632.383 1110.265, 622.701 1112.764, 613.018 1115.264, 603.336 1117.764, 593.653 1120.264, 583.970 1123.190, 572.633 1116.702, 565.024 1110.214, 557.414 1103.725, 549.805 1097.237, 542.196 1090.748, 534.587 1084.260, 526.977 1077.772, 519.368 1071.283, 511.759 1064.918, 504.294 " fill="none" stroke="rgb(157, 20, 170)" stroke-linecap="butt" stroke-linejoin="round" stroke-opacity="1.0" stroke-width="3.0" />
            <path d=" M 653.068, 362.119 643.098, 361.344 633.128, 360.570 625.490, 359.976 615.520, 359.202 605.550, 358.427 595.580, 357.652 585.610, 356.878 575.640, 356.103 565.670, 355.328 555.701, 354.553 545.731, 353.779 535.761, 353.004 525.791, 352.229 515.821, 351.455 507.059, 350.774 506.517, 360.759 505.975, 370.745 505.433, 380.730 504.891, 390.715 504.349, 400.701 503.807, 410.686 503.265, 420.671 502.723, 430.656 502.181, 440.642 501.639, 450.627 501.097, 460.612 500.555, 470.598 500.013, 480.583 499.471, 490.568 498.929, 500.554 498.387, 510.539 497.845, 520.524 497.303, 530.509 496.761, 540.495 496.219, 550.480 495.677, 560.465 495.135, 570.451 494.812, 576.413 " fill="none" stroke="rgb(157, 20, 170)" stroke-linecap="butt" stroke-linejoin="round" stroke-opacity="1.0" stroke-width="3.0" />
            <path d=" M 495.334, 1036.484 495.973, 1026.505 496.611, 1016.525 497.250, 1006.546 497.889, 996.566 498.528, 986.586 499.167, 976.607 499.806, 966.627 500.445, 956.648 501.084, 946.668 501.722, 936.689 502.361, 926.709 502.535, 924.003 503.173, 914.023 503.812, 904.043 504.451, 894.064 505.090, 884.084 505.729, 874.105 506.368, 864.125 507.007, 854.146 507.646, 844.166 508.285, 834.186 508.923, 824.207 509.605, 813.565 510.244, 803.585 510.882, 793.606 511.521, 783.626 512.160, 773.647 512.799, 763.667 513.438, 753.688 514.077, 743.708 514.716, 733.728 515.355, 723.749 515.994, 713.769 516.632, 703.790 517.271, 693.810 517.910, 683.831 518.549, 673.851 519.188, 663.871 519.827, 653.892 520.466, 643.912 521.105, 633.933 521.743, 623.953 522.382, 613.974 523.021, 603.994 523.660, 594.014 524.299, 584.035 524.690, 577.921 525.329, 567.942 525.968, 557.962 526.607, 547.983 527.132, 539.786 " fill="none" stroke="rgb(157, 20, 170)" stroke-linecap="butt" stroke-linejoin="round" stroke-opacity="1.0" stroke-width="3.0" />
            <path d=" M 1123.190, 572.633 1113.206, 572.083 1103.221, 571.532 1093.236, 570.982 1083.251, 570.432 1073.266, 569.882 1063.281, 569.331 1053.297, 568.781 1043.312, 568.231 1033.327, 567.681 1023.342, 567.131 1013.357, 566.580 1003.372, 566.030 993.387, 565.480 983.403, 564.930 973.418, 564.379 963.433, 563.829 953.448, 563.279 943.463, 562.729 933.478, 562.178 923.493, 561.628 913.509, 561.078 903.524, 560.528 893.539, 559.978 883.554, 559.427 873.569, 558.877 863.584, 558.327 853.599, 557.777 844.075, 557.252 834.090, 556.701 824.105, 556.151 822.614, 556.069 812.629, 555.519 802.644, 554.969 792.660, 554.418 782.675, 553.868 772.690, 553.318 762.705, 552.768 752.720, 552.217 742.735, 551.667 732.750, 551.117 722.766, 550.567 712.781, 550.016 702.796, 549.466 692.811, 548.916 682.826, 548.366 672.841, 547.816 662.857, 547.265 652.872, 546.715 642.887, 546.165 632.902, 545.615 622.917, 545.064 612.932, 544.514 608.831, 544.288 607.943, 544.239 597.958, 543.689 587.973, 543.139 577.988, 542.589 568.003, 542.038 558.206, 541.498 548.222, 540.948 538.237, 540.398 528.252, 539.848 527.132, 539.786 526.076, 529.842 525.020, 519.898 523.964, 509.954 522.908, 500.010 521.852, 490.066 520.795, 480.121 519.739, 470.177 518.683, 460.233 517.627, 450.289 516.571, 440.345 515.515, 430.401 514.459, 420.457 513.403, 410.513 512.347, 400.569 511.291, 390.625 510.235, 380.681 509.179, 370.737 508.123, 360.792 507.059, 350.774 " fill="none" stroke="rgb(157, 20, 170)" stroke-linecap="butt" stroke-linejoin="round" stroke-opacity="1.0" stroke-width="3.0" />
            <path d=" M 723.206, 1121.622 724.829, 1129.493 734.828, 1129.329 744.826, 1129.166 754.825, 1129.002 764.824, 1128.839 774.822, 1128.675 784.821, 1128.511 794.820, 1128.348 804.818, 1128.184 814.817, 1128.020 824.815, 1127.857 834.814, 1127.693 844.813, 1127.530 854.812, 1127.366 864.810, 1127.202 874.809, 1127.039 884.807, 1126.875 894.806, 1126.712 904.805, 1126.548 914.803, 1126.384 924.802, 1126.221 934.801, 1126.057 944.799, 1125.894 954.798, 1125.730 964.797, 1125.566 974.795, 1125.403 977.985, 1125.351 980.476, 1115.666 982.967, 1105.981 985.457, 1096.296 987.948, 1086.611 990.439, 1076.926 992.929, 1067.242 995.420, 1057.557 997.911, 1047.872 1000.401, 1038.187 1001.457, 1034.083 " fill="none" stroke="rgb(157, 20, 170)" stroke-linecap="butt" stroke-linejoin="round" stroke-opacity="1.0" stroke-width="3.0" />
            <path d=" M 724.829, 1129.493 726.383, 1119.614 727.937, 1109.736 729.491, 1099.857 731.044, 1089.979 732.598, 1080.100 734.152, 1070.222 735.706, 1060.343 737.260, 1050.465 738.814, 1040.586 739.641, 1035.325 " fill="none" stroke="rgb(157, 20, 170)" stroke-linecap="butt" stroke-linejoin="round" stroke-opacity="1.0" stroke-width="3.0" />
            <path d=" M 494.812, 576.413 484.825, 575.908 474.837, 575.404 464.850, 574.900 454.863, 574.395 444.875, 573.891 434.888, 573.387 424.901, 572.883 414.914, 572.378 404.926, 571.874 394.939, 571.370 384.952, 570.865 374.965, 570.361 364.977, 569.857 354.990, 569.352 345.003, 568.848 335.015, 568.344 325.028, 567.839 317.432, 567.456 315.819, 577.325 314.206, 587.194 312.593, 597.063 310.980, 606.932 309.368, 616.801 307.755, 626.670 306.142, 636.539 304.529, 646.408 302.916, 656.277 301.303, 666.146 299.690, 676.016 298.077, 685.885 296.464, 695.754 294.851, 705.623 293.238, 715.492 291.625, 725.361 290.012, 735.230 288.399, 745.099 286.786, 754.968 285.173, 764.837 283.806, 773.203 283.959, 783.202 284.111, 793.201 284.264, 803.200 284.417, 813.198 284.569, 823.197 284.722, 833.196 284.875, 843.195 285.027, 853.194 285.180, 863.193 285.333, 873.192 285.485, 883.190 285.638, 893.189 285.791, 903.188 285.943, 913.187 286.096, 923.186 286.249, 933.185 286.401, 943.183 286.554, 953.182 286.707, 963.181 286.859, 973.180 287.012, 983.179 287.165, 993.178 287.317, 1003.176 287.470, 1013.175 287.623, 1023.174 287.775, 1033.173 287.928, 1043.172 288.081, 1053.171 288.233, 1063.169 288.386, 1073.168 288.539, 1083.167 288.691, 1093.166 288.844, 1103.165 288.997, 1113.164 289.150, 1123.162 289.302, 1133.161 289.455, 1143.160 289.537, 1148.534 299.535, 1148.357 309.534, 1148.179 319.532, 1148.001 329.531, 1147.824 339.529, 1147.646 349.527, 1147.469 359.526, 1147.291 369.524, 1147.114 379.523, 1146.936 389.521, 1146.759 399.520, 1146.581 409.518, 1146.403 419.516, 1146.226 429.515, 1146.048 439.513, 1145.871 449.512, 1145.693 459.510, 1145.516 469.509, 1145.338 479.507, 1145.161 489.505, 1144.983 499.504, 1144.805 509.502, 1144.628 519.501, 1144.450 529.499, 1144.273 539.498, 1144.095 549.496, 1143.918 559.494, 1143.740 569.493, 1143.562 579.491, 1143.385 589.490, 1143.207 599.488, 1143.030 609.487, 1142.852 619.485, 1142.675 629.483, 1142.497 639.482, 1142.320 649.480, 1142.142 659.479, 1141.964 669.477, 1141.787 679.475, 1141.609 689.474, 1141.432 699.472, 1141.254 709.471, 1141.077 720.198, 1140.886 721.740, 1131.006 723.206, 1121.622 724.749, 1111.742 726.292, 1101.862 727.835, 1091.981 729.378, 1082.101 730.921, 1072.221 732.464, 1062.341 734.007, 1052.461 735.550, 1042.580 736.681, 1035.339 " fill="none" stroke="rgb(157, 20, 170)" stroke-linecap="butt" stroke-linejoin="round" stroke-opacity="1.0" stroke-width="3.0" />
            <path d=" M 1010.688, 1008.410 1020.688, 1008.395 1030.688, 1008.380 1040.688, 1008.366 1050.688, 1008.351 1060.688, 1008.336 1070.688, 1008.322 1080.688, 1008.307 1090.688, 1008.293 1100.688, 1008.278 1110.688, 1008.263 1120.688, 1008.249 1130.688, 1008.234 1140.688, 1008.219 1150.688, 1008.205 1154.652, 1008.199 1157.635, 998.654 1160.619, 989.110 1163.602, 979.565 1166.585, 970.020 1169.569, 960.476 1172.552, 950.931 1175.535, 941.387 1178.519, 931.842 1181.502, 922.297 1184.485, 912.753 1187.469, 903.208 1190.452, 893.664 1193.435, 884.119 1196.419, 874.574 1199.402, 865.030 1202.385, 855.485 1205.369, 845.940 1208.352, 836.396 1211.335, 826.851 1214.319, 817.307 1217.302, 807.762 1220.285, 798.217 1223.269, 788.673 1226.252, 779.128 1229.235, 769.583 1232.219, 760.039 1235.202, 750.494 1238.185, 740.950 1241.169, 731.405 1244.152, 721.860 1247.135, 712.316 1250.119, 702.771 1253.102, 693.226 1256.085, 683.682 1259.068, 674.137 1262.052, 664.593 1265.035, 655.048 1268.018, 645.503 1271.002, 635.959 1273.985, 626.414 1276.968, 616.870 1279.952, 607.325 1282.935, 597.780 1285.918, 588.236 1288.902, 578.691 1291.885, 569.146 1294.868, 559.602 1297.852, 550.057 1300.835, 540.513 1303.818, 530.968 1307.344, 519.688 1299.764, 513.166 1292.183, 506.644 1284.603, 500.122 1277.023, 493.599 1269.443, 487.077 1261.862, 480.555 1254.282, 474.033 1246.702, 467.510 1239.122, 460.988 1231.542, 454.466 1223.961, 447.944 1216.381, 441.421 1208.801, 434.899 1201.220, 428.377 1193.640, 421.854 1186.060, 415.332 1178.480, 408.810 1170.900, 402.288 1163.319, 395.766 1155.739, 389.243 1148.159, 382.721 1140.578, 376.199 1132.998, 369.676 1125.418, 363.154 1117.838, 356.632 1110.258, 350.110 1102.677, 343.587 1097.843, 339.428 1087.879, 338.580 1077.915, 337.732 1067.951, 336.884 1057.987, 336.036 1048.023, 335.188 1038.059, 334.340 1028.095, 333.492 1018.131, 332.644 1008.167, 331.796 998.204, 330.948 988.240, 330.100 978.276, 329.252 968.312, 328.404 958.348, 327.555 948.384, 326.707 938.420, 325.859 928.456, 325.011 918.492, 324.163 908.528, 323.315 898.564, 322.467 888.600, 321.619 878.636, 320.771 868.672, 319.923 858.708, 319.075 848.744, 318.227 838.780, 317.379 828.816, 316.531 818.852, 315.683 808.888, 314.835 798.924, 313.987 788.960, 313.139 778.996, 312.291 769.032, 311.443 759.068, 310.595 749.104, 309.746 739.140, 308.898 729.176, 308.050 719.212, 307.202 709.248, 306.354 699.284, 305.506 689.320, 304.658 679.356, 303.810 669.392, 302.962 659.428, 302.114 649.464, 301.266 639.500, 300.418 630.939, 299.689 630.039, 309.649 629.139, 319.608 628.239, 329.568 627.339, 339.527 626.438, 349.486 625.490, 359.976 " fill="none" stroke="rgb(157, 20, 170)" stroke-linecap="butt" stroke-linejoin="round" stroke-opacity="1.0" stroke-width="3.0" />
            <path d=" M 1307.344, 519.688 1297.364, 519.055 1287.384, 518.421 1277.404, 517.787 1267.424, 517.153 1257.444, 516.520 1247.464, 515.886 1237.485, 515.252 1227.505, 514.619 1217.525, 513.985 1207.545, 513.351 1197.565, 512.717 1187.585, 512.084 1177.605, 511.450 1167.625, 510.816 1157.645, 510.182 1147.666, 509.549 1137.686, 508.915 1127.706, 508.281 1117.726, 507.647 1107.746, 507.014 1097.766, 506.380 1087.786, 505.746 1077.806, 505.113 1067.826, 504.479 1064.918, 504.294 1054.938, 503.660 1044.958, 503.027 1034.978, 502.393 1024.998, 501.759 1015.018, 501.125 1005.038, 500.492 995.059, 499.858 985.079, 499.224 975.099, 498.591 965.119, 497.957 955.139, 497.323 945.159, 496.689 935.179, 496.056 925.199, 495.422 915.219, 494.788 905.239, 494.154 895.260, 493.521 885.280, 492.887 875.300, 492.253 865.320, 491.619 855.340, 490.986 845.360, 490.352 835.380, 489.718 825.400, 489.085 815.420, 488.451 805.440, 487.817 795.461, 487.183 785.481, 486.550 775.501, 485.916 765.521, 485.282 755.541, 484.648 745.561, 484.015 735.581, 483.381 725.601, 482.747 715.621, 482.113 705.641, 481.480 695.140, 480.813 691.799, 471.387 688.458, 461.962 685.117, 452.537 681.776, 443.111 678.435, 433.686 675.094, 424.260 671.753, 414.835 668.413, 405.410 665.072, 395.984 661.731, 386.559 658.390, 377.133 655.049, 367.708 653.068, 362.119 649.727, 352.694 646.386, 343.268 643.045, 333.843 639.704, 324.417 636.363, 314.992 633.023, 305.567 630.939, 299.689 " fill="none" stroke="rgb(157, 20, 170)" stroke-linecap="butt" stroke-linejoin="round" stroke-opacity="1.0" stroke-width="3.0" />
            <path d=" M 485.279, 778.483 475.282, 778.221 465.286, 777.959 455.289, 777.697 445.292, 777.435 435.296, 777.173 425.299, 776.911 415.303, 776.649 405.306, 776.387 395.310, 776.125 385.313, 775.863 375.316, 775.601 365.320, 775.339 355.323, 775.077 345.327, 774.815 335.330, 774.553 325.334, 774.291 315.337, 774.029 305.341, 773.767 295.344, 773.505 283.806, 773.203 " fill="none" stroke="rgb(157, 20, 170)" stroke-linecap="butt" stroke-linejoin="round" stroke-opacity="1.0" stroke-width="3.0" />
        </g>
    </g>
    <g id="fressstylelayer_hidden lines" inkscape:groupmode="lineset" inkscape:label="fressstylelayer_hidden lines" xmlns:inkscape="http://www.inkscape.org/namespaces/inkscape">
        <g id="strokes" inkscape:groupmode="layer" inkscape:label="strokes" xmlns:inkscape="http://www.inkscape.org/namespaces/inkscape">
            <path d=" M 921.817, 747.086 922.620, 743.153 924.623, 733.355 926.625, 723.558 928.628, 713.760 930.630, 703.963 932.632, 694.165 934.635, 684.368 936.592, 674.789 938.595, 664.992 940.597, 655.194 941.962, 648.515 937.011, 639.826 932.059, 631.138 927.108, 622.450 922.156, 613.762 920.545, 610.934 915.593, 602.246 914.325, 600.020 904.337, 599.519 894.350, 599.018 885.212, 598.559 875.225, 598.058 865.237, 597.557 864.655, 597.527 858.968, 597.242 848.981, 596.741 842.139, 596.397 832.152, 595.896 827.809, 595.678 817.822, 595.177 816.068, 595.089 809.657, 594.767 808.101, 604.645 806.545, 614.524 806.340, 615.827 805.522, 621.016 803.966, 630.895 802.392, 640.887 802.131, 642.546 800.615, 652.166 799.059, 662.044 797.503, 671.922 797.035, 674.895 795.478, 684.773 794.902, 688.435 794.514, 690.897 798.080, 700.239 798.424, 701.139 798.927, 702.458 802.494, 711.800 803.211, 713.679 806.778, 723.021 806.924, 723.404 810.491, 732.747 813.120, 739.635 814.671, 743.697 824.666, 744.013 834.661, 744.330 844.656, 744.646 854.651, 744.962 864.646, 745.278 866.755, 745.344 869.291, 745.425 869.991, 745.447 876.893, 745.665 883.028, 745.859 883.281, 745.867 893.276, 746.183 894.190, 746.212 902.906, 746.488 912.901, 746.804 921.817, 747.086 " fill="none" stroke="rgb(0, 119, 0)" stroke-linecap="butt" stroke-linejoin="round" stroke-opacity="1.0" stroke-width="3.0" />
            <path d=" M 921.817, 747.086 917.409, 738.110 913.001, 729.134 908.593, 720.158 904.184, 711.182 899.776, 702.206 896.125, 694.770 " fill="none" stroke="rgb(0, 119, 0)" stroke-linecap="butt" stroke-linejoin="round" stroke-opacity="1.0" stroke-width="3.0" />
            <path d=" M 794.514, 690.897 800.023, 691.107 810.016, 691.488 820.009, 691.869 830.001, 692.250 839.994, 692.631 849.987, 693.012 859.980, 693.392 869.972, 693.773 878.845, 694.112 879.557, 694.139 886.573, 694.406 896.125, 694.770 898.011, 684.950 899.898, 675.129 901.784, 665.309 903.670, 655.488 905.557, 645.668 907.443, 635.848 909.329, 626.027 909.480, 625.242 911.366, 615.422 913.253, 605.602 914.325, 600.020 " fill="none" stroke="rgb(0, 119, 0)" stroke-linecap="butt" stroke-linejoin="round" stroke-opacity="1.0" stroke-width="3.0" />
            <path d=" M 814.671, 743.697 816.322, 733.834 817.972, 723.972 819.597, 714.257 821.247, 704.394 822.898, 694.531 824.548, 684.669 826.198, 674.806 827.848, 664.943 829.499, 655.080 831.149, 645.217 831.415, 643.627 " fill="none" stroke="rgb(0, 119, 0)" stroke-linecap="butt" stroke-linejoin="round" stroke-opacity="1.0" stroke-width="3.0" />
            <path d=" M 941.962, 648.515 931.972, 648.073 921.982, 647.631 921.725, 647.620 911.735, 647.178 901.745, 646.736 895.625, 646.466 888.504, 646.151 878.514, 645.709 868.523, 645.268 865.740, 645.145 855.750, 644.703 845.759, 644.261 835.769, 643.820 831.415, 643.627 827.347, 634.492 823.279, 625.357 819.310, 616.443 815.242, 607.308 811.174, 598.173 809.657, 594.767 " fill="none" stroke="rgb(0, 119, 0)" stroke-linecap="butt" stroke-linejoin="round" stroke-opacity="1.0" stroke-width="3.0" />
            <path d=" M 1004.063, 1034.071 1002.414, 1030.361 998.354, 1021.222 994.293, 1012.084 992.672, 1008.436 988.612, 999.297 984.551, 990.159 980.491, 981.020 976.430, 971.882 972.370, 962.743 968.309, 953.605 964.248, 944.466 960.188, 935.328 956.127, 926.190 952.067, 917.051 948.033, 907.972 943.972, 898.833 939.911, 889.695 935.851, 880.556 931.790, 871.418 929.404, 866.047 925.343, 856.909 921.283, 847.770 917.222, 838.632 913.162, 829.493 909.101, 820.355 905.041, 811.216 900.980, 802.078 896.920, 792.939 892.859, 783.801 888.694, 774.427 " fill="none" stroke="rgb(0, 119, 0)" stroke-linecap="butt" stroke-linejoin="round" stroke-opacity="1.0" stroke-width="3.0" />
            <path d=" M 484.679, 763.095 494.675, 763.375 504.671, 763.656 514.667, 763.936 524.663, 764.216 534.659, 764.497 541.681, 764.694 551.677, 764.974 561.673, 765.255 571.669, 765.535 581.666, 765.815 591.662, 766.096 595.909, 766.215 596.961, 766.244 606.957, 766.525 616.953, 766.805 622.179, 766.952 632.175, 767.232 642.171, 767.512 652.167, 767.793 662.163, 768.073 672.159, 768.353 682.155, 768.634 688.431, 768.810 698.427, 769.090 708.423, 769.370 717.646, 769.629 727.642, 769.909 737.638, 770.190 747.634, 770.470 757.630, 770.751 767.626, 771.031 770.711, 771.117 780.707, 771.398 790.703, 771.678 800.699, 771.959 810.695, 772.239 820.691, 772.519 830.687, 772.800 840.683, 773.080 850.679, 773.360 860.676, 773.641 864.019, 773.734 864.713, 773.754 874.709, 774.034 884.706, 774.315 888.694, 774.427 889.556, 770.002 891.468, 760.186 893.380, 750.371 894.190, 746.212 896.103, 736.397 896.699, 733.335 898.611, 723.519 900.524, 713.704 902.436, 703.888 904.348, 694.073 906.260, 684.257 908.172, 674.442 910.085, 664.626 911.997, 654.811 913.909, 644.995 915.584, 636.397 917.496, 626.582 919.408, 616.766 920.545, 610.934 922.457, 601.118 924.369, 591.303 926.281, 581.488 928.193, 571.672 930.106, 561.857 932.018, 552.041 933.930, 542.226 935.842, 532.410 937.754, 522.595 939.667, 512.779 941.579, 502.964 943.491, 493.148 945.403, 483.333 947.315, 473.517 949.228, 463.702 951.140, 453.886 953.052, 444.071 954.964, 434.255 956.876, 424.440 958.789, 414.625 960.701, 404.809 962.613, 394.994 964.306, 386.303 " fill="none" stroke="rgb(0, 119, 0)" stroke-linecap="butt" stroke-linejoin="round" stroke-opacity="1.0" stroke-width="3.0" />
            <path d=" M 1064.918, 504.294 1060.689, 499.335 1054.200, 491.725 1047.712, 484.116 1041.224, 476.507 1034.735, 468.898 1028.247, 461.288 1021.758, 453.679 1015.270, 446.070 1008.781, 438.461 1002.293, 430.851 995.805, 423.242 989.316, 415.633 982.828, 408.024 976.339, 400.414 969.851, 392.805 964.306, 386.303 954.336, 385.528 944.366, 384.753 934.396, 383.979 924.426, 383.204 914.456, 382.429 904.486, 381.655 894.516, 380.880 884.547, 380.105 874.577, 379.330 864.607, 378.556 854.637, 377.781 844.667, 377.006 834.697, 376.232 824.727, 375.457 814.757, 374.682 804.787, 373.908 794.817, 373.133 784.847, 372.358 774.877, 371.584 764.907, 370.809 754.937, 370.034 744.967, 369.260 734.997, 368.485 725.027, 367.710 715.057, 366.936 705.087, 366.161 695.117, 365.386 685.148, 364.612 675.178, 363.837 665.208, 363.062 653.068, 362.119 " fill="none" stroke="rgb(0, 119, 0)" stroke-linecap="butt" stroke-linejoin="round" stroke-opacity="1.0" stroke-width="3.0" />
            <path d=" M 494.812, 576.413 494.270, 586.398 493.728, 596.383 493.186, 606.369 492.644, 616.354 492.076, 626.812 491.534, 636.797 491.129, 644.265 490.587, 654.250 490.187, 661.620 489.645, 671.605 489.212, 679.588 488.670, 689.573 488.128, 699.558 487.586, 709.544 487.044, 719.529 486.502, 729.514 485.960, 739.500 485.418, 749.485 484.876, 759.470 484.679, 763.095 485.068, 773.087 485.279, 778.483 485.668, 788.475 486.058, 798.467 486.447, 808.460 486.836, 818.452 487.226, 828.445 487.525, 836.129 487.915, 846.122 488.304, 856.114 488.694, 866.107 489.083, 876.099 489.167, 878.242 489.265, 880.756 489.654, 890.748 489.908, 897.276 490.298, 907.268 490.687, 917.261 490.946, 923.901 491.335, 933.893 491.725, 943.886 492.114, 953.878 492.504, 963.870 492.893, 973.863 493.283, 983.855 493.672, 993.848 494.061, 1003.840 494.451, 1013.833 494.840, 1023.825 495.230, 1033.817 495.334, 1036.484 " fill="none" stroke="rgb(0, 119, 0)" stroke-linecap="butt" stroke-linejoin="round" stroke-opacity="1.0" stroke-width="3.0" />
            <path d=" M 767.501, 680.090 768.439, 673.748 769.161, 668.862 767.053, 663.048 757.061, 662.634 754.707, 662.537 753.294, 672.436 753.194, 673.136 753.109, 673.732 755.122, 679.603 765.114, 679.996 767.501, 680.090 " fill="none" stroke="rgb(0, 119, 0)" stroke-linecap="butt" stroke-linejoin="round" stroke-opacity="1.0" stroke-width="3.0" />
            <path d=" M 767.501, 680.090 765.411, 674.225 " fill="none" stroke="rgb(0, 119, 0)" stroke-linecap="butt" stroke-linejoin="round" stroke-opacity="1.0" stroke-width="3.0" />
            <path d=" M 753.109, 673.732 763.101, 674.132 765.411, 674.225 766.864, 664.331 767.053, 663.048 " fill="none" stroke="rgb(0, 119, 0)" stroke-linecap="butt" stroke-linejoin="round" stroke-opacity="1.0" stroke-width="3.0" />
            <path d=" M 755.122, 679.603 756.544, 669.705 756.738, 668.356 " fill="none" stroke="rgb(0, 119, 0)" stroke-linecap="butt" stroke-linejoin="round" stroke-opacity="1.0" stroke-width="3.0" />
            <path d=" M 769.161, 668.862 759.170, 668.455 756.738, 668.356 754.707, 662.537 " fill="none" stroke="rgb(0, 119, 0)" stroke-linecap="butt" stroke-linejoin="round" stroke-opacity="1.0" stroke-width="3.0" />
            <path d=" M 787.313, 770.844 787.911, 767.094 789.171, 759.187 790.336, 751.875 791.911, 742.000 792.279, 739.692 792.394, 738.969 793.968, 729.094 795.542, 719.219 796.463, 713.440 798.037, 703.565 798.424, 701.139 799.998, 691.264 800.023, 691.107 800.415, 688.647 801.990, 678.772 802.572, 675.117 804.146, 665.242 805.720, 655.367 806.192, 652.405 802.383, 643.159 802.131, 642.546 801.430, 640.845 797.621, 631.599 793.812, 622.352 793.020, 620.430 790.820, 615.089 787.011, 605.843 783.202, 596.596 782.165, 594.081 772.178, 593.581 762.190, 593.081 752.203, 592.580 742.216, 592.080 734.945, 591.715 724.958, 591.215 716.571, 590.795 711.681, 590.550 710.226, 590.477 700.239, 589.977 690.251, 589.476 682.603, 589.093 672.615, 588.593 662.628, 588.092 654.415, 587.681 653.356, 597.624 652.296, 607.568 652.197, 608.498 651.138, 618.442 650.079, 628.386 649.470, 634.099 648.411, 644.042 647.901, 648.825 646.842, 658.769 645.770, 668.825 644.711, 678.769 643.652, 688.713 642.592, 698.656 642.169, 702.625 644.243, 712.408 646.317, 722.190 648.391, 731.973 648.897, 734.359 649.055, 735.103 651.129, 744.886 653.203, 754.668 655.277, 764.451 655.848, 767.145 661.968, 767.317 668.658, 767.505 678.654, 767.787 688.056, 768.051 688.524, 768.064 698.520, 768.346 708.516, 768.627 711.561, 768.713 717.746, 768.887 719.314, 768.931 729.310, 769.212 739.306, 769.493 749.302, 769.775 759.298, 770.056 769.294, 770.337 770.467, 770.370 780.463, 770.652 787.313, 770.844 " fill="none" stroke="rgb(0, 119, 0)" stroke-linecap="butt" stroke-linejoin="round" stroke-opacity="1.0" stroke-width="3.0" />
            <path d=" M 787.313, 770.844 786.005, 767.039 783.245, 759.011 779.995, 749.555 776.744, 740.098 773.493, 730.641 770.242, 721.184 767.226, 712.407 765.387, 707.058 " fill="none" stroke="rgb(0, 119, 0)" stroke-linecap="butt" stroke-linejoin="round" stroke-opacity="1.0" stroke-width="3.0" />
            <path d=" M 642.169, 702.625 652.163, 702.985 662.157, 703.344 672.150, 703.704 682.144, 704.063 692.137, 704.423 702.131, 704.783 710.351, 705.078 720.344, 705.438 730.338, 705.797 740.331, 706.157 749.583, 706.490 759.577, 706.849 765.387, 707.058 766.856, 697.167 768.325, 687.275 769.794, 677.384 771.263, 667.492 772.732, 657.601 774.201, 647.709 775.670, 637.818 777.139, 627.926 778.608, 618.035 779.128, 614.533 780.597, 604.641 782.066, 594.750 782.165, 594.081 " fill="none" stroke="rgb(0, 119, 0)" stroke-linecap="butt" stroke-linejoin="round" stroke-opacity="1.0" stroke-width="3.0" />
            <path d=" M 655.848, 767.145 656.977, 757.209 658.107, 747.273 659.236, 737.337 660.365, 727.401 661.495, 717.465 662.624, 707.529 663.753, 697.593 664.882, 687.657 666.012, 677.721 667.141, 667.785 668.270, 657.849 669.399, 647.913 669.556, 646.533 " fill="none" stroke="rgb(0, 119, 0)" stroke-linecap="butt" stroke-linejoin="round" stroke-opacity="1.0" stroke-width="3.0" />
            <path d=" M 806.192, 652.405 800.615, 652.166 790.624, 651.736 780.634, 651.307 770.643, 650.877 760.652, 650.448 750.661, 650.019 740.671, 649.589 730.843, 649.167 720.853, 648.738 710.862, 648.308 709.279, 648.240 699.289, 647.811 689.298, 647.381 679.307, 646.952 669.556, 646.533 667.065, 636.848 664.573, 627.164 662.081, 617.479 659.865, 608.863 657.373, 599.178 654.882, 589.494 654.415, 587.681 " fill="none" stroke="rgb(0, 119, 0)" stroke-linecap="butt" stroke-linejoin="round" stroke-opacity="1.0" stroke-width="3.0" />
            <path d=" M 626.739, 726.346 627.023, 723.571 626.749, 722.139 626.725, 722.014 623.560, 721.908 623.280, 724.681 623.572, 726.241 626.321, 726.332 626.739, 726.346 " fill="none" stroke="rgb(0, 119, 0)" stroke-linecap="butt" stroke-linejoin="round" stroke-opacity="1.0" stroke-width="3.0" />
            <path d=" M 626.739, 726.346 626.466, 724.911 626.442, 724.786 " fill="none" stroke="rgb(0, 119, 0)" stroke-linecap="butt" stroke-linejoin="round" stroke-opacity="1.0" stroke-width="3.0" />
            <path d=" M 623.280, 724.681 626.442, 724.786 626.725, 722.014 " fill="none" stroke="rgb(0, 119, 0)" stroke-linecap="butt" stroke-linejoin="round" stroke-opacity="1.0" stroke-width="3.0" />
            <path d=" M 623.572, 726.241 623.852, 723.465 " fill="none" stroke="rgb(0, 119, 0)" stroke-linecap="butt" stroke-linejoin="round" stroke-opacity="1.0" stroke-width="3.0" />
            <path d=" M 627.023, 723.571 626.604, 723.557 623.852, 723.465 623.560, 721.908 " fill="none" stroke="rgb(0, 119, 0)" stroke-linecap="butt" stroke-linejoin="round" stroke-opacity="1.0" stroke-width="3.0" />
            <path d=" M 848.705, 859.616 850.538, 849.785 851.210, 846.181 853.043, 836.351 854.876, 826.520 855.959, 820.712 857.791, 810.881 859.624, 801.050 861.457, 791.220 863.290, 781.389 864.713, 773.754 865.541, 769.315 867.000, 761.490 868.349, 754.255 869.034, 750.583 869.991, 745.447 870.730, 741.486 872.562, 731.655 874.395, 721.825 875.438, 716.230 877.271, 706.399 879.104, 696.569 879.557, 694.139 881.390, 684.308 883.223, 674.478 885.056, 664.647 886.888, 654.816 888.504, 646.151 888.770, 644.722 884.220, 635.817 879.670, 626.912 878.404, 624.434 875.690, 619.124 871.140, 610.219 866.590, 601.314 864.655, 597.527 860.375, 589.151 855.824, 580.246 851.274, 571.341 846.724, 562.436 845.559, 560.156 844.075, 557.252 839.524, 548.347 836.513, 542.453 826.529, 541.884 816.545, 541.316 806.561, 540.748 796.577, 540.180 786.593, 539.612 776.609, 539.044 766.626, 538.475 756.642, 537.907 746.658, 537.339 736.674, 536.771 726.690, 536.203 716.706, 535.635 706.723, 535.067 696.739, 534.498 688.975, 534.057 678.991, 533.488 669.007, 532.920 659.024, 532.352 649.040, 531.784 639.056, 531.216 629.072, 530.648 619.088, 530.079 610.161, 529.571 609.269, 529.521 608.372, 539.480 607.987, 543.751 607.943, 544.239 607.046, 554.199 606.148, 564.159 605.251, 574.118 604.545, 581.954 603.647, 591.913 602.750, 601.873 601.853, 611.833 600.955, 621.792 600.058, 631.752 599.161, 641.712 598.263, 651.671 597.366, 661.631 596.894, 666.864 595.997, 676.824 595.100, 686.783 594.202, 696.743 593.305, 706.703 592.408, 716.662 591.510, 726.622 590.914, 733.241 592.412, 743.128 593.910, 753.015 595.408, 762.902 595.909, 766.215 597.330, 775.590 598.216, 781.442 599.714, 791.329 601.212, 801.216 602.710, 811.103 604.208, 820.991 605.706, 830.878 607.204, 840.765 608.702, 850.652 609.435, 855.494 610.580, 855.514 616.758, 855.620 626.756, 855.793 636.755, 855.965 646.753, 856.137 651.674, 856.222 658.167, 856.334 668.165, 856.506 676.993, 856.658 677.447, 856.666 687.446, 856.838 697.444, 857.010 705.814, 857.154 715.813, 857.327 719.176, 857.385 729.175, 857.557 739.173, 857.729 743.820, 857.809 753.818, 857.981 763.817, 858.153 764.350, 858.163 774.349, 858.335 784.347, 858.507 794.346, 858.679 804.344, 858.852 813.029, 859.001 823.028, 859.173 833.026, 859.346 843.025, 859.518 848.031, 859.604 848.705, 859.616 " fill="none" stroke="rgb(0, 119, 0)" stroke-linecap="butt" stroke-linejoin="round" stroke-opacity="1.0" stroke-width="3.0" />
            <path d=" M 848.705, 859.616 848.254, 858.404 844.765, 849.032 841.276, 839.661 837.787, 830.289 834.298, 820.918 830.808, 811.546 827.319, 802.174 823.830, 792.803 820.341, 783.431 816.852, 774.060 814.542, 767.856 811.561, 759.850 808.072, 750.478 804.583, 741.106 804.198, 740.073 " fill="none" stroke="rgb(0, 119, 0)" stroke-linecap="butt" stroke-linejoin="round" stroke-opacity="1.0" stroke-width="3.0" />
            <path d=" M 590.914, 733.241 591.931, 733.273 601.925, 733.593 611.920, 733.914 621.915, 734.234 625.504, 734.349 635.499, 734.669 645.493, 734.989 649.055, 735.103 659.050, 735.423 669.045, 735.744 679.040, 736.064 689.035, 736.384 692.471, 736.494 702.466, 736.814 712.460, 737.135 719.553, 737.362 729.548, 737.682 739.543, 738.002 749.538, 738.322 759.533, 738.643 760.100, 738.661 770.095, 738.981 780.090, 739.301 790.085, 739.621 792.279, 739.692 802.273, 740.012 804.198, 740.073 805.812, 730.204 806.924, 723.404 808.484, 713.865 810.098, 703.996 811.711, 694.127 813.325, 684.258 814.939, 674.389 816.553, 664.520 818.166, 654.651 819.780, 644.782 821.394, 634.913 823.007, 625.044 824.375, 616.684 825.988, 606.815 827.602, 596.946 827.809, 595.678 829.423, 585.809 831.037, 575.940 831.339, 574.091 832.953, 564.222 833.724, 559.508 835.338, 549.639 836.513, 542.453 " fill="none" stroke="rgb(0, 119, 0)" stroke-linecap="butt" stroke-linejoin="round" stroke-opacity="1.0" stroke-width="3.0" />
            <path d=" M 609.435, 855.494 609.889, 850.987 610.891, 841.037 611.892, 831.087 612.894, 821.138 613.895, 811.188 614.897, 801.238 615.898, 791.289 616.900, 781.339 617.901, 771.389 618.903, 761.439 619.904, 751.490 620.906, 741.540 621.907, 731.590 622.909, 721.640 623.910, 711.691 624.912, 701.741 625.913, 691.791 626.915, 681.842 627.916, 671.892 628.918, 661.942 629.919, 651.992 630.921, 642.043 631.799, 633.314 " fill="none" stroke="rgb(0, 119, 0)" stroke-linecap="butt" stroke-linejoin="round" stroke-opacity="1.0" stroke-width="3.0" />
            <path d=" M 888.770, 644.722 878.780, 644.279 868.790, 643.835 865.025, 643.668 855.035, 643.224 845.045, 642.781 835.054, 642.337 825.064, 641.894 815.074, 641.450 805.084, 641.007 802.392, 640.887 801.430, 640.845 791.440, 640.401 781.450, 639.958 771.459, 639.514 761.469, 639.071 751.479, 638.627 741.489, 638.184 731.499, 637.740 727.043, 637.542 717.053, 637.099 710.729, 636.818 700.739, 636.375 690.749, 635.931 680.759, 635.488 670.769, 635.044 660.778, 634.601 650.788, 634.157 649.470, 634.099 639.480, 633.655 635.789, 633.491 631.799, 633.314 629.678, 623.542 627.557, 613.769 625.435, 603.997 623.314, 594.224 621.193, 584.452 620.829, 582.776 618.708, 573.004 616.586, 563.231 614.465, 553.459 612.411, 543.995 610.290, 534.222 609.902, 532.436 609.269, 529.521 " fill="none" stroke="rgb(0, 119, 0)" stroke-linecap="butt" stroke-linejoin="round" stroke-opacity="1.0" stroke-width="3.0" />
            <path d=" M 977.985, 1125.351 974.313, 1116.049 970.640, 1106.748 966.968, 1097.447 963.295, 1088.146 959.623, 1078.845 955.950, 1069.543 952.278, 1060.242 948.605, 1050.941 944.932, 1041.640 942.060, 1034.365 938.388, 1025.064 934.715, 1015.763 931.857, 1008.525 928.185, 999.224 927.697, 997.990 924.025, 988.688 920.352, 979.387 916.680, 970.086 915.386, 966.809 " fill="none" stroke="rgb(0, 119, 0)" stroke-linecap="butt" stroke-linejoin="round" stroke-opacity="1.0" stroke-width="3.0" />
            <path d=" M 691.107, 965.954 693.927, 965.964 703.927, 966.002 713.927, 966.041 723.927, 966.079 733.927, 966.117 743.927, 966.155 747.483, 966.169 757.483, 966.207 767.483, 966.245 777.483, 966.283 787.483, 966.321 797.483, 966.359 807.483, 966.398 817.482, 966.436 827.482, 966.474 837.482, 966.512 847.482, 966.550 857.482, 966.588 867.482, 966.626 877.482, 966.665 887.482, 966.703 897.482, 966.741 907.664, 966.780 915.386, 966.809 917.522, 957.040 919.659, 947.271 921.795, 937.502 923.932, 927.733 926.068, 917.964 928.205, 908.195 930.341, 898.425 932.478, 888.656 934.614, 878.887 936.751, 869.118 938.887, 859.349 941.024, 849.580 943.160, 839.811 945.297, 830.042 947.433, 820.273 949.570, 810.503 951.706, 800.734 953.843, 790.965 955.979, 781.196 957.999, 771.960 " fill="none" stroke="rgb(0, 119, 0)" stroke-linecap="butt" stroke-linejoin="round" stroke-opacity="1.0" stroke-width="3.0" />
            <path d=" M 1001.457, 1034.083 1002.414, 1030.361 1004.905, 1020.676 1007.396, 1010.991 1008.058, 1008.413 1010.549, 998.729 1013.040, 989.044 1015.530, 979.359 1018.021, 969.674 1020.512, 959.989 1023.003, 950.304 1025.493, 940.619 1027.984, 930.935 1030.474, 921.250 1031.954, 915.498 1027.374, 906.609 1022.794, 897.719 1018.213, 888.830 1013.633, 879.940 1009.053, 871.051 1004.473, 862.161 999.893, 853.272 995.313, 844.382 990.733, 835.493 986.153, 826.603 981.573, 817.714 976.993, 808.824 972.430, 799.969 967.850, 791.080 963.270, 782.191 958.690, 773.301 957.999, 771.960 948.003, 771.674 938.007, 771.388 928.011, 771.102 918.016, 770.816 914.335, 770.710 904.339, 770.424 894.343, 770.138 889.556, 770.002 879.560, 769.716 878.729, 769.692 878.479, 769.685 868.483, 769.399 865.541, 769.315 864.846, 769.295 854.850, 769.009 844.854, 768.723 834.858, 768.437 824.862, 768.151 814.542, 767.856 804.546, 767.570 794.550, 767.284 788.605, 767.114 787.911, 767.094 786.005, 767.039 776.009, 766.753 769.221, 766.559 759.225, 766.273 749.229, 765.987 739.233, 765.701 729.237, 765.415 719.241, 765.129 718.258, 765.101 717.746, 768.887 717.646, 769.629 716.407, 778.795 715.688, 784.115 715.633, 784.519 714.294, 794.429 712.954, 804.338 711.614, 814.248 710.275, 824.158 708.935, 834.068 707.665, 843.466 706.325, 853.376 705.814, 857.154 704.475, 867.064 703.263, 876.023 701.924, 885.933 700.584, 895.843 699.245, 905.753 697.905, 915.663 696.703, 924.557 695.363, 934.467 694.023, 944.377 692.684, 954.287 692.215, 957.755 691.107, 965.954 693.126, 975.747 695.146, 985.541 697.165, 995.335 699.185, 1005.129 699.299, 1005.682 699.955, 1008.864 701.974, 1018.658 703.994, 1028.452 705.445, 1035.488 707.464, 1045.282 709.484, 1055.075 711.503, 1064.869 713.523, 1074.663 715.542, 1084.457 717.562, 1094.251 719.582, 1104.045 721.601, 1113.839 723.206, 1121.622 " fill="none" stroke="rgb(0, 119, 0)" stroke-linecap="butt" stroke-linejoin="round" stroke-opacity="1.0" stroke-width="3.0" />
            <path d=" M 758.939, 912.643 756.962, 905.472 754.304, 895.832 751.646, 886.192 748.988, 876.551 746.330, 866.911 743.820, 857.809 741.162, 848.169 738.504, 838.529 735.846, 828.888 733.188, 819.248 730.530, 809.608 727.872, 799.967 725.214, 790.327 722.555, 780.687 719.897, 771.047 719.314, 768.931 718.258, 765.101 " fill="none" stroke="rgb(0, 119, 0)" stroke-linecap="butt" stroke-linejoin="round" stroke-opacity="1.0" stroke-width="3.0" />
            <path d=" M 1031.954, 915.498 1021.954, 915.394 1011.955, 915.289 1001.955, 915.185 991.956, 915.080 981.956, 914.975 971.957, 914.871 961.957, 914.766 951.958, 914.662 946.534, 914.605 936.535, 914.500 926.535, 914.396 918.986, 914.317 908.987, 914.212 898.987, 914.108 888.988, 914.003 878.989, 913.899 868.989, 913.794 858.990, 913.690 848.990, 913.585 838.991, 913.480 838.001, 913.470 828.001, 913.365 818.002, 913.261 808.002, 913.156 798.003, 913.052 788.003, 912.947 778.004, 912.843 768.005, 912.738 758.939, 912.643 757.385, 922.522 756.981, 925.094 755.427, 934.973 753.873, 944.851 752.319, 954.730 750.765, 964.608 749.211, 974.487 747.657, 984.366 746.014, 994.815 744.460, 1004.693 744.312, 1005.634 743.814, 1008.800 742.260, 1018.679 740.706, 1028.557 739.641, 1035.325 " fill="none" stroke="rgb(0, 119, 0)" stroke-linecap="butt" stroke-linejoin="round" stroke-opacity="1.0" stroke-width="3.0" />
            <path d=" M 567.110, 924.569 567.213, 923.403 568.086, 913.441 568.960, 903.480 569.420, 898.227 570.294, 888.265 571.167, 878.304 572.041, 868.342 572.903, 858.514 571.739, 848.582 570.574, 838.650 569.410, 828.718 568.245, 818.786 567.784, 814.848 564.219, 814.770 554.222, 814.549 544.817, 814.342 534.819, 814.121 524.822, 813.901 514.824, 813.680 509.605, 813.565 499.607, 813.344 489.610, 813.124 488.831, 813.107 488.265, 823.091 487.699, 833.075 487.525, 836.129 486.959, 846.113 486.393, 856.097 485.827, 866.081 485.261, 876.065 485.141, 878.184 485.494, 888.178 485.814, 897.227 486.166, 907.221 486.519, 917.214 486.754, 923.864 490.946, 923.901 500.946, 923.989 502.535, 924.003 512.534, 924.090 522.534, 924.178 532.533, 924.266 542.533, 924.353 552.533, 924.441 562.532, 924.529 567.110, 924.569 " fill="none" stroke="rgb(0, 119, 0)" stroke-linecap="butt" stroke-linejoin="round" stroke-opacity="1.0" stroke-width="3.0" />
            <path d=" M 567.110, 924.569 566.987, 923.401 565.939, 913.456 564.890, 903.511 563.842, 893.567 562.793, 883.622 562.336, 879.284 " fill="none" stroke="rgb(0, 119, 0)" stroke-linecap="butt" stroke-linejoin="round" stroke-opacity="1.0" stroke-width="3.0" />
            <path d=" M 485.141, 878.184 489.167, 878.242 499.166, 878.384 509.165, 878.526 519.164, 878.669 529.163, 878.811 539.161, 878.954 549.160, 879.096 550.979, 879.122 560.978, 879.265 562.336, 879.284 563.178, 869.320 564.021, 859.355 564.863, 849.391 565.706, 839.426 566.548, 829.462 567.391, 819.497 567.784, 814.848 " fill="none" stroke="rgb(0, 119, 0)" stroke-linecap="butt" stroke-linejoin="round" stroke-opacity="1.0" stroke-width="3.0" />
            <path d=" M 486.754, 923.864 487.336, 913.881 487.917, 903.898 488.498, 893.915 489.080, 883.932 489.265, 880.756 489.846, 870.773 490.427, 860.789 490.640, 857.133 " fill="none" stroke="rgb(0, 119, 0)" stroke-linecap="butt" stroke-linejoin="round" stroke-opacity="1.0" stroke-width="3.0" />
            <path d=" M 572.903, 858.514 562.904, 858.346 552.906, 858.178 548.980, 858.112 538.982, 857.944 528.983, 857.777 518.985, 857.609 508.986, 857.441 498.987, 857.273 490.640, 857.133 490.230, 847.141 489.819, 837.150 489.408, 827.158 488.997, 817.167 488.831, 813.107 " fill="none" stroke="rgb(0, 119, 0)" stroke-linecap="butt" stroke-linejoin="round" stroke-opacity="1.0" stroke-width="3.0" />
            <path d=" M 515.325, 680.582 515.955, 670.602 516.584, 660.622 517.214, 650.642 517.546, 645.383 516.727, 635.417 516.107, 627.879 506.117, 627.436 496.127, 626.992 492.076, 626.812 482.086, 626.368 476.615, 626.125 476.124, 636.113 475.633, 646.101 475.142, 656.089 474.901, 661.005 475.224, 671.000 475.486, 679.065 485.479, 679.446 489.212, 679.588 499.204, 679.968 509.197, 680.349 515.325, 680.582 " fill="none" stroke="rgb(0, 119, 0)" stroke-linecap="butt" stroke-linejoin="round" stroke-opacity="1.0" stroke-width="3.0" />
            <path d=" M 515.325, 680.582 514.562, 670.611 513.948, 662.576 " fill="none" stroke="rgb(0, 119, 0)" stroke-linecap="butt" stroke-linejoin="round" stroke-opacity="1.0" stroke-width="3.0" />
            <path d=" M 474.901, 661.005 484.893, 661.407 490.187, 661.620 500.179, 662.022 510.171, 662.424 513.948, 662.576 514.569, 652.596 515.190, 642.615 515.811, 632.634 516.107, 627.879 " fill="none" stroke="rgb(0, 119, 0)" stroke-linecap="butt" stroke-linejoin="round" stroke-opacity="1.0" stroke-width="3.0" />
            <path d=" M 475.486, 679.065 475.982, 669.077 476.478, 659.090 476.974, 649.102 477.243, 643.677 " fill="none" stroke="rgb(0, 119, 0)" stroke-linecap="butt" stroke-linejoin="round" stroke-opacity="1.0" stroke-width="3.0" />
            <path d=" M 517.546, 645.383 507.555, 644.960 497.564, 644.537 491.129, 644.265 481.138, 643.842 477.243, 643.677 476.886, 633.684 476.615, 626.125 " fill="none" stroke="rgb(0, 119, 0)" stroke-linecap="butt" stroke-linejoin="round" stroke-opacity="1.0" stroke-width="3.0" />
            <path d=" M 720.198, 1140.886 718.226, 1131.082 716.255, 1121.279 714.284, 1111.475 712.312, 1101.671 710.341, 1091.867 708.370, 1082.063 706.398, 1072.260 704.427, 1062.456 702.456, 1052.652 700.484, 1042.848 699.010, 1035.518 697.039, 1025.714 695.068, 1015.911 693.653, 1008.873 693.012, 1005.689 691.041, 995.885 689.070, 986.081 687.098, 976.277 685.127, 966.474 683.156, 956.670 681.184, 946.866 679.213, 937.062 677.242, 927.258 676.663, 924.379 674.691, 914.575 672.720, 904.771 671.650, 899.450 " fill="none" stroke="rgb(0, 119, 0)" stroke-linecap="butt" stroke-linejoin="round" stroke-opacity="1.0" stroke-width="3.0" />
            <path d=" M 318.532, 895.226 328.531, 895.345 338.531, 895.465 348.530, 895.584 358.529, 895.704 368.529, 895.824 378.528, 895.943 388.527, 896.063 398.526, 896.183 408.526, 896.302 418.525, 896.422 428.524, 896.542 438.524, 896.661 448.523, 896.781 458.522, 896.900 468.521, 897.020 478.521, 897.140 485.814, 897.227 489.908, 897.276 499.908, 897.396 509.907, 897.515 519.906, 897.635 529.906, 897.754 539.905, 897.874 549.904, 897.994 552.777, 898.028 562.776, 898.148 569.420, 898.227 579.420, 898.347 589.419, 898.466 599.418, 898.586 609.417, 898.706 617.183, 898.799 623.604, 898.875 633.604, 898.995 643.603, 899.115 653.602, 899.234 663.601, 899.354 671.650, 899.450 672.889, 889.527 674.128, 879.604 675.367, 869.681 676.606, 859.758 676.993, 856.658 678.232, 846.735 679.471, 836.812 680.710, 826.889 681.948, 816.966 683.187, 807.043 684.426, 797.120 685.665, 787.197 686.904, 777.274 688.056, 768.051 689.294, 758.128 690.533, 748.205 691.772, 738.282 693.011, 728.359 694.250, 718.436 695.489, 708.513 696.728, 698.591 697.967, 688.668 699.206, 678.745 700.445, 668.822 701.684, 658.899 702.922, 648.976 704.161, 639.053 705.400, 629.130 706.639, 619.207 707.647, 611.135 708.886, 601.212 710.125, 591.289 710.226, 590.477 710.622, 587.310 " fill="none" stroke="rgb(0, 119, 0)" stroke-linecap="butt" stroke-linejoin="round" stroke-opacity="1.0" stroke-width="3.0" />
            <path d=" M 736.681, 1035.339 738.224, 1025.459 739.767, 1015.579 740.825, 1008.804 741.319, 1005.637 742.862, 995.757 743.010, 994.814 744.552, 984.934 746.096, 975.053 747.483, 966.169 749.026, 956.288 750.569, 946.408 752.112, 936.528 753.655, 926.648 753.902, 925.067 755.445, 915.187 756.962, 905.472 758.505, 895.592 760.048, 885.712 761.426, 876.890 762.969, 867.010 764.350, 858.163 765.893, 848.282 766.472, 844.579 768.015, 834.698 769.558, 824.818 770.494, 818.821 772.037, 808.941 773.580, 799.060 775.123, 789.180 775.606, 786.090 773.725, 780.338 770.711, 771.117 770.467, 770.370 769.221, 766.559 766.592, 758.519 764.159, 751.077 761.052, 741.572 760.100, 738.661 759.859, 737.924 756.752, 728.419 753.645, 718.914 751.334, 711.846 749.583, 706.490 746.476, 696.985 743.369, 687.480 743.029, 686.442 739.922, 676.937 738.486, 672.546 737.344, 669.053 734.237, 659.548 731.130, 650.043 730.843, 649.167 727.736, 639.662 727.043, 637.542 723.936, 628.037 720.829, 618.532 718.580, 611.654 715.473, 602.149 715.226, 601.394 712.118, 591.889 711.681, 590.550 710.622, 587.310 700.634, 586.806 690.647, 586.301 682.971, 585.914 672.984, 585.410 662.996, 584.905 653.009, 584.401 643.022, 583.897 633.035, 583.392 623.047, 582.888 620.829, 582.776 610.842, 582.272 605.422, 581.998 604.545, 581.954 594.558, 581.449 584.570, 580.945 574.583, 580.441 564.596, 579.936 563.955, 579.904 555.395, 579.472 545.408, 578.968 535.420, 578.463 525.433, 577.959 524.690, 577.921 514.703, 577.417 504.716, 576.913 494.812, 576.413 " fill="none" stroke="rgb(0, 119, 0)" stroke-linecap="butt" stroke-linejoin="round" stroke-opacity="1.0" stroke-width="3.0" />
            <path d=" M 289.537, 1148.534 290.674, 1138.599 291.811, 1128.664 292.949, 1118.729 294.086, 1108.794 295.223, 1098.859 296.360, 1088.923 297.498, 1078.988 298.635, 1069.053 299.772, 1059.118 300.909, 1049.183 302.047, 1039.248 303.184, 1029.313 304.321, 1019.378 305.458, 1009.442 306.595, 999.507 307.733, 989.572 308.870, 979.637 310.007, 969.702 311.144, 959.767 312.282, 949.832 313.419, 939.897 314.556, 929.961 315.693, 920.026 316.831, 910.091 317.968, 900.156 318.532, 895.226 318.499, 885.226 318.465, 875.226 318.432, 865.226 318.398, 855.226 318.364, 845.226 318.331, 835.226 318.297, 825.226 318.264, 815.226 318.230, 805.226 318.197, 795.226 318.163, 785.226 318.130, 775.226 318.096, 765.226 318.062, 755.226 318.029, 745.226 317.995, 735.227 317.962, 725.227 317.928, 715.227 317.895, 705.227 317.861, 695.227 317.828, 685.227 317.794, 675.227 317.760, 665.227 317.727, 655.227 317.693, 645.227 317.660, 635.227 317.626, 625.227 317.593, 615.227 317.559, 605.227 317.526, 595.227 317.492, 585.227 317.458, 575.227 317.432, 567.456 " fill="none" stroke="rgb(0, 119, 0)" stroke-linecap="butt" stroke-linejoin="round" stroke-opacity="1.0" stroke-width="3.0" />
            <path d=" M 775.606, 786.090 765.609, 785.828 755.613, 785.566 745.616, 785.304 735.619, 785.042 725.623, 784.780 715.633, 784.519 705.637, 784.257 695.640, 783.995 686.562, 783.757 676.566, 783.495 666.569, 783.233 656.572, 782.971 646.576, 782.709 636.579, 782.447 626.583, 782.185 620.641, 782.030 610.645, 781.768 600.648, 781.506 599.284, 781.470 598.216, 781.442 588.220, 781.180 578.223, 780.918 568.227, 780.656 558.230, 780.394 548.234, 780.132 541.546, 779.957 531.550, 779.695 521.553, 779.433 511.557, 779.171 501.560, 778.909 491.563, 778.647 485.279, 778.483 " fill="none" stroke="rgb(0, 119, 0)" stroke-linecap="butt" stroke-linejoin="round" stroke-opacity="1.0" stroke-width="3.0" />
            <path d=" M 901.604, 994.856 903.714, 985.081 905.823, 975.306 907.664, 966.780 908.813, 961.454 910.923, 951.679 913.032, 941.904 915.142, 932.129 917.252, 922.354 918.986, 914.317 921.096, 904.542 923.206, 894.767 925.315, 884.992 927.425, 875.217 929.404, 866.047 931.514, 856.272 933.623, 846.497 935.733, 836.722 937.843, 826.947 938.793, 822.544 934.526, 813.500 930.258, 804.457 925.991, 795.413 921.724, 786.369 917.456, 777.325 914.335, 770.710 910.068, 761.667 907.129, 755.439 902.906, 746.488 901.004, 742.458 896.699, 733.335 892.432, 724.291 888.852, 716.704 888.597, 716.695 882.405, 716.476 875.438, 716.230 874.731, 716.205 864.738, 715.852 854.744, 715.499 853.757, 715.464 843.763, 715.111 833.769, 714.758 823.775, 714.405 819.597, 714.257 809.603, 713.904 808.484, 713.865 803.211, 713.679 797.170, 713.465 796.463, 713.440 786.469, 713.087 776.476, 712.734 767.226, 712.407 757.232, 712.054 751.334, 711.846 741.340, 711.493 731.568, 711.148 721.574, 710.795 711.883, 710.453 701.889, 710.100 695.797, 709.884 694.557, 719.807 693.316, 729.730 692.562, 735.762 692.471, 736.494 691.230, 746.417 690.927, 748.842 689.687, 758.765 688.524, 768.064 688.431, 768.810 687.280, 778.011 686.562, 783.757 685.322, 793.680 684.081, 803.602 682.841, 813.525 681.600, 823.448 680.360, 833.371 679.165, 842.927 677.924, 852.850 677.447, 856.666 676.207, 866.589 675.080, 875.604 677.122, 885.393 679.164, 895.182 681.205, 904.972 683.247, 914.761 685.269, 924.455 687.311, 934.245 689.353, 944.034 691.395, 953.823 692.215, 957.755 693.927, 965.964 695.969, 975.754 698.011, 985.543 699.942, 994.802 709.942, 994.805 719.942, 994.808 729.942, 994.810 739.942, 994.813 743.010, 994.814 746.014, 994.815 756.014, 994.817 766.014, 994.820 776.014, 994.823 786.014, 994.825 796.014, 994.828 806.014, 994.831 816.014, 994.833 826.014, 994.836 836.014, 994.839 846.014, 994.841 856.014, 994.844 866.014, 994.847 876.014, 994.849 886.014, 994.852 896.014, 994.855 901.604, 994.856 " fill="none" stroke="rgb(0, 119, 0)" stroke-linecap="butt" stroke-linejoin="round" stroke-opacity="1.0" stroke-width="3.0" />
            <path d=" M 901.604, 994.856 898.098, 985.491 894.591, 976.126 891.085, 966.761 887.579, 957.396 884.072, 948.031 880.566, 938.666 877.060, 929.300 873.553, 919.935 870.047, 910.570 866.541, 901.205 863.034, 891.840 859.528, 882.475 857.975, 878.328 " fill="none" stroke="rgb(0, 119, 0)" stroke-linecap="butt" stroke-linejoin="round" stroke-opacity="1.0" stroke-width="3.0" />
            <path d=" M 675.080, 875.604 685.079, 875.753 695.078, 875.902 703.263, 876.023 713.262, 876.172 723.261, 876.321 733.260, 876.470 743.259, 876.619 753.258, 876.768 761.426, 876.890 771.424, 877.039 781.423, 877.188 791.422, 877.337 801.421, 877.486 811.420, 877.635 821.419, 877.783 831.418, 877.932 841.417, 878.081 844.581, 878.128 854.580, 878.277 857.975, 878.328 859.852, 868.506 861.728, 858.683 863.605, 848.861 865.481, 839.039 867.358, 829.216 869.234, 819.394 871.110, 809.571 872.987, 799.749 874.863, 789.927 876.740, 780.104 878.729, 769.692 880.606, 759.869 882.482, 750.047 883.281, 745.867 885.157, 736.045 887.033, 726.222 888.852, 716.704 " fill="none" stroke="rgb(0, 119, 0)" stroke-linecap="butt" stroke-linejoin="round" stroke-opacity="1.0" stroke-width="3.0" />
            <path d=" M 699.942, 994.802 701.328, 984.899 702.714, 974.995 704.101, 965.092 705.487, 955.188 706.873, 945.285 708.259, 935.382 709.645, 925.478 709.758, 924.674 711.144, 914.770 712.530, 904.867 713.916, 894.963 715.303, 885.060 716.689, 875.156 718.075, 865.253 719.176, 857.385 720.563, 847.481 721.949, 837.578 723.335, 827.674 724.716, 817.808 " fill="none" stroke="rgb(0, 119, 0)" stroke-linecap="butt" stroke-linejoin="round" stroke-opacity="1.0" stroke-width="3.0" />
            <path d=" M 938.793, 822.544 928.795, 822.323 918.798, 822.102 908.800, 821.881 898.803, 821.659 888.805, 821.438 878.808, 821.217 868.810, 820.996 858.812, 820.775 855.959, 820.712 855.275, 820.697 845.278, 820.475 835.280, 820.254 825.282, 820.033 815.285, 819.812 805.287, 819.591 795.290, 819.370 785.292, 819.148 775.295, 818.927 770.494, 818.821 760.497, 818.600 750.499, 818.379 740.502, 818.157 730.504, 817.936 724.716, 817.808 722.128, 808.149 719.539, 798.490 716.951, 788.830 715.688, 784.115 713.099, 774.456 711.561, 768.713 708.972, 759.053 706.384, 749.394 703.796, 739.735 701.208, 730.076 698.619, 720.416 696.031, 710.757 695.797, 709.884 " fill="none" stroke="rgb(0, 119, 0)" stroke-linecap="butt" stroke-linejoin="round" stroke-opacity="1.0" stroke-width="3.0" />
            <path d=" M 873.867, 761.694 875.232, 754.465 876.893, 745.665 877.641, 741.708 879.496, 731.881 881.352, 722.055 882.405, 716.476 884.261, 706.649 886.116, 696.823 886.573, 694.406 888.428, 684.580 890.284, 674.754 892.139, 664.927 893.995, 655.101 895.625, 646.466 897.481, 636.640 899.336, 626.813 899.598, 625.428 896.759, 620.125 892.039, 611.309 887.318, 602.493 885.212, 598.559 880.492, 589.743 875.772, 580.927 871.051, 572.112 866.331, 563.296 865.227, 561.232 855.242, 560.686 845.559, 560.156 835.573, 559.609 833.724, 559.508 824.022, 558.976 821.853, 558.858 811.868, 558.311 801.883, 557.764 791.898, 557.217 781.912, 556.671 771.927, 556.124 761.942, 555.577 751.957, 555.031 741.972, 554.484 731.987, 553.937 721.324, 553.353 720.065, 563.274 718.805, 573.194 717.546, 583.115 716.571, 590.795 715.312, 600.715 715.226, 601.394 713.967, 611.315 713.951, 611.434 712.692, 621.355 711.433, 631.275 710.729, 636.818 709.470, 646.739 709.279, 648.240 708.020, 658.161 706.761, 668.081 706.358, 671.257 705.098, 681.177 704.618, 684.965 707.359, 694.582 710.100, 704.199 710.351, 705.078 711.883, 710.453 714.624, 720.069 717.366, 729.686 719.343, 736.622 719.553, 737.362 722.295, 746.979 723.106, 749.824 725.235, 757.295 735.231, 757.590 745.227, 757.886 755.222, 758.182 765.218, 758.478 766.592, 758.519 776.588, 758.814 783.245, 759.011 789.171, 759.187 789.868, 759.208 799.863, 759.503 809.859, 759.799 811.561, 759.850 821.557, 760.145 831.552, 760.441 841.548, 760.737 851.544, 761.033 861.539, 761.329 866.303, 761.470 867.000, 761.490 873.867, 761.694 " fill="none" stroke="rgb(0, 119, 0)" stroke-linecap="butt" stroke-linejoin="round" stroke-opacity="1.0" stroke-width="3.0" />
            <path d=" M 873.867, 761.694 869.878, 752.524 869.034, 750.583 868.541, 749.451 866.755, 745.344 862.766, 736.174 858.777, 727.005 854.788, 717.835 853.757, 715.464 849.768, 706.294 845.779, 697.124 842.800, 690.276 " fill="none" stroke="rgb(0, 119, 0)" stroke-linecap="butt" stroke-linejoin="round" stroke-opacity="1.0" stroke-width="3.0" />
            <path d=" M 704.618, 684.965 714.610, 685.349 724.603, 685.733 734.595, 686.117 743.029, 686.442 753.022, 686.826 763.014, 687.210 773.007, 687.594 783.000, 687.978 792.992, 688.362 794.902, 688.435 800.415, 688.647 810.408, 689.031 820.401, 689.415 830.393, 689.799 840.386, 690.183 842.800, 690.276 844.512, 680.423 846.224, 670.571 847.936, 660.719 849.649, 650.867 851.361, 641.014 853.073, 631.162 854.631, 622.199 855.334, 618.156 857.046, 608.304 858.758, 598.451 858.968, 597.242 860.375, 589.151 862.087, 579.299 863.799, 569.446 865.227, 561.232 " fill="none" stroke="rgb(0, 119, 0)" stroke-linecap="butt" stroke-linejoin="round" stroke-opacity="1.0" stroke-width="3.0" />
            <path d=" M 725.235, 757.295 726.595, 747.387 727.954, 737.480 729.314, 727.573 730.674, 717.666 731.568, 711.148 732.927, 701.241 734.287, 691.334 735.646, 681.426 737.006, 671.519 737.344, 669.053 738.704, 659.146 740.063, 649.239 741.423, 639.331 742.783, 629.424 744.142, 619.517 744.330, 618.147 " fill="none" stroke="rgb(0, 119, 0)" stroke-linecap="butt" stroke-linejoin="round" stroke-opacity="1.0" stroke-width="3.0" />
            <path d=" M 899.598, 625.428 889.609, 624.959 879.620, 624.491 878.404, 624.434 868.414, 623.965 858.425, 623.497 855.186, 623.345 845.197, 622.877 835.208, 622.408 825.219, 621.940 815.230, 621.472 805.522, 621.016 795.533, 620.548 793.020, 620.430 783.031, 619.962 773.042, 619.493 763.053, 619.025 753.064, 618.557 744.330, 618.147 742.427, 612.788 739.081, 603.365 735.735, 593.941 734.945, 591.715 731.599, 582.292 728.253, 572.868 724.907, 563.445 721.561, 554.021 721.324, 553.353 " fill="none" stroke="rgb(0, 119, 0)" stroke-linecap="butt" stroke-linejoin="round" stroke-opacity="1.0" stroke-width="3.0" />
            <path d=" M 926.014, 1005.439 927.697, 997.990 929.901, 988.235 932.104, 978.481 934.308, 968.727 936.511, 958.973 938.715, 949.219 940.918, 939.464 943.122, 929.710 945.325, 919.956 946.534, 914.605 948.033, 907.972 950.236, 898.217 952.440, 888.463 954.643, 878.709 956.847, 868.955 959.050, 859.201 961.254, 849.446 963.457, 839.692 965.661, 829.938 967.864, 820.184 970.068, 810.430 972.430, 799.969 974.634, 790.215 976.838, 780.461 979.041, 770.707 981.245, 760.953 981.974, 757.722 977.174, 748.950 974.921, 744.833 970.121, 736.061 965.320, 727.288 960.520, 718.516 955.720, 709.743 950.919, 700.971 946.119, 692.198 941.318, 683.426 936.592, 674.789 931.792, 666.017 926.992, 657.244 922.191, 648.472 921.725, 647.620 916.925, 638.847 915.584, 636.397 910.784, 627.625 909.480, 625.242 906.945, 620.610 896.956, 620.135 896.759, 620.125 886.770, 619.650 876.781, 619.176 875.690, 619.124 865.701, 618.649 855.713, 618.174 855.334, 618.156 852.611, 618.026 842.622, 617.552 832.633, 617.077 824.375, 616.684 819.310, 616.443 812.709, 616.129 806.340, 615.827 796.351, 615.352 790.820, 615.089 780.831, 614.614 779.128, 614.533 769.139, 614.058 759.151, 613.583 749.162, 613.108 742.427, 612.788 732.439, 612.313 722.450, 611.838 718.580, 611.654 713.951, 611.434 707.647, 611.135 697.658, 610.660 687.670, 610.185 680.202, 609.830 670.213, 609.355 660.225, 608.880 659.865, 608.863 652.197, 608.498 642.209, 608.024 638.405, 607.843 637.391, 617.791 636.376, 627.740 635.789, 633.491 634.775, 643.440 633.760, 653.388 632.746, 663.336 632.241, 668.282 631.227, 678.231 630.212, 688.179 629.198, 698.128 628.183, 708.076 627.169, 718.024 626.749, 722.139 626.604, 723.557 626.466, 724.911 626.321, 726.332 625.579, 733.610 625.504, 734.349 624.489, 744.297 623.475, 754.246 622.460, 764.194 622.179, 766.952 621.232, 776.234 620.641, 782.030 619.627, 791.978 618.612, 801.926 617.597, 811.875 616.583, 821.823 615.568, 831.772 614.555, 841.705 616.119, 851.582 616.758, 855.620 618.321, 865.497 619.885, 875.375 621.448, 885.252 623.011, 895.129 623.604, 898.875 625.168, 908.752 626.731, 918.629 627.572, 923.941 629.135, 933.818 630.699, 943.695 632.262, 953.572 633.825, 963.449 635.389, 973.326 636.964, 983.276 638.527, 993.154 640.090, 1003.031 640.520, 1005.745 650.520, 1005.734 660.520, 1005.723 670.520, 1005.713 680.520, 1005.702 690.520, 1005.691 693.012, 1005.689 699.299, 1005.682 709.299, 1005.671 719.299, 1005.661 729.299, 1005.650 739.299, 1005.639 741.319, 1005.637 744.312, 1005.634 754.312, 1005.623 764.312, 1005.612 774.312, 1005.602 784.312, 1005.591 794.312, 1005.580 804.312, 1005.569 814.312, 1005.559 824.312, 1005.548 834.312, 1005.537 844.312, 1005.527 854.312, 1005.516 864.312, 1005.505 874.312, 1005.494 884.312, 1005.484 894.312, 1005.473 904.312, 1005.462 914.312, 1005.452 926.014, 1005.439 " fill="none" stroke="rgb(0, 119, 0)" stroke-linecap="butt" stroke-linejoin="round" stroke-opacity="1.0" stroke-width="3.0" />
            <path d=" M 926.014, 1005.439 922.372, 996.126 918.730, 986.813 915.088, 977.500 911.446, 968.186 908.813, 961.454 905.171, 952.141 901.529, 942.828 897.887, 933.515 894.244, 924.202 890.602, 914.888 886.960, 905.575 883.318, 896.262 879.676, 886.949 876.034, 877.636 872.392, 868.323 868.749, 859.010 865.107, 849.696 863.826, 846.420 " fill="none" stroke="rgb(0, 119, 0)" stroke-linecap="butt" stroke-linejoin="round" stroke-opacity="1.0" stroke-width="3.0" />
            <path d=" M 614.555, 841.705 624.553, 841.894 634.552, 842.083 644.550, 842.272 654.548, 842.461 664.546, 842.651 674.544, 842.840 679.165, 842.927 689.163, 843.116 699.161, 843.305 707.665, 843.466 717.663, 843.655 727.661, 843.844 737.659, 844.034 747.657, 844.223 757.656, 844.412 766.472, 844.579 776.470, 844.768 786.468, 844.957 796.466, 845.146 806.464, 845.335 816.463, 845.524 826.461, 845.713 836.459, 845.902 846.457, 846.091 850.532, 846.169 851.210, 846.181 861.208, 846.370 863.826, 846.420 865.702, 836.597 867.577, 826.775 869.453, 816.952 871.328, 807.130 873.204, 797.307 875.080, 787.485 876.955, 777.662 878.479, 769.685 880.354, 759.862 882.230, 750.040 883.028, 745.859 884.904, 736.037 886.779, 726.214 888.597, 716.695 890.473, 706.872 892.349, 697.049 894.224, 687.227 896.100, 677.404 897.975, 667.582 899.851, 657.759 901.727, 647.937 903.602, 638.114 905.478, 628.292 906.945, 620.610 " fill="none" stroke="rgb(0, 119, 0)" stroke-linecap="butt" stroke-linejoin="round" stroke-opacity="1.0" stroke-width="3.0" />
            <path d=" M 640.520, 1005.745 641.693, 995.814 642.866, 985.883 644.039, 975.952 645.212, 966.021 646.385, 956.090 647.558, 946.159 648.731, 936.228 649.903, 926.297 650.158, 924.142 651.331, 914.211 652.504, 904.280 653.677, 894.349 654.850, 884.419 656.023, 874.488 657.195, 864.557 658.167, 856.334 659.340, 846.403 660.512, 836.472 661.685, 826.541 662.858, 816.610 664.031, 806.679 665.204, 796.748 666.377, 786.817 667.550, 776.886 668.658, 767.505 669.831, 757.574 670.934, 748.232 " fill="none" stroke="rgb(0, 119, 0)" stroke-linecap="butt" stroke-linejoin="round" stroke-opacity="1.0" stroke-width="3.0" />
            <path d=" M 981.974, 757.722 971.979, 757.417 961.984, 757.112 951.988, 756.807 941.993, 756.502 931.997, 756.197 922.002, 755.892 912.007, 755.588 907.129, 755.439 897.134, 755.134 887.138, 754.829 877.143, 754.524 875.232, 754.465 868.349, 754.255 867.650, 754.234 857.655, 753.929 847.660, 753.624 837.664, 753.319 827.669, 753.014 817.674, 752.709 807.678, 752.404 797.683, 752.099 790.336, 751.875 780.341, 751.570 770.346, 751.265 764.159, 751.077 754.164, 750.772 744.169, 750.467 734.173, 750.162 724.178, 749.857 723.106, 749.824 713.111, 749.519 703.115, 749.214 693.120, 748.909 690.927, 748.842 680.932, 748.537 670.934, 748.232 668.677, 738.490 666.420, 728.748 664.162, 719.006 661.905, 709.264 659.648, 699.523 657.391, 689.781 655.133, 680.039 652.876, 670.297 650.619, 660.555 648.362, 650.813 647.901, 648.825 645.644, 639.083 643.387, 629.341 641.129, 619.599 638.872, 609.858 638.405, 607.843 " fill="none" stroke="rgb(0, 119, 0)" stroke-linecap="butt" stroke-linejoin="round" stroke-opacity="1.0" stroke-width="3.0" />
            <path d=" M 835.706, 925.796 837.536, 915.965 838.001, 913.470 839.831, 903.639 841.662, 893.808 843.492, 883.977 844.581, 878.128 846.412, 868.297 848.031, 859.604 848.254, 858.404 850.085, 848.573 850.532, 846.169 852.363, 836.338 854.193, 826.506 855.275, 820.697 857.106, 810.866 858.936, 801.034 860.767, 791.203 862.597, 781.372 864.019, 773.734 864.846, 769.295 866.303, 761.470 867.650, 754.234 868.541, 749.451 869.291, 745.425 870.028, 741.463 871.859, 731.632 873.689, 721.801 874.731, 716.205 876.562, 706.374 878.393, 696.543 878.845, 694.112 880.676, 684.281 881.790, 678.296 877.432, 669.295 873.075, 660.295 868.717, 651.294 865.740, 645.145 865.025, 643.668 860.667, 634.667 856.310, 625.667 855.186, 623.345 854.631, 622.199 852.611, 618.026 848.253, 609.026 843.895, 600.025 842.139, 596.397 837.781, 587.397 833.424, 578.396 831.339, 574.091 826.982, 565.090 824.022, 558.976 822.614, 556.069 822.376, 555.578 812.391, 555.027 802.407, 554.476 792.422, 553.925 782.437, 553.374 772.452, 552.824 762.467, 552.273 752.483, 551.722 742.498, 551.171 732.513, 550.620 722.528, 550.069 712.543, 549.519 702.558, 548.968 692.574, 548.417 687.346, 548.129 677.361, 547.578 667.376, 547.027 657.391, 546.476 647.407, 545.925 637.422, 545.374 627.437, 544.824 617.452, 544.273 612.411, 543.995 608.875, 543.800 607.987, 543.751 598.002, 543.200 588.017, 542.649 578.032, 542.098 568.048, 541.547 558.243, 541.006 558.206, 541.498 557.468, 551.471 556.730, 561.444 555.991, 571.417 555.395, 579.472 554.657, 589.445 553.918, 599.417 553.180, 609.390 552.441, 619.363 551.703, 629.335 550.965, 639.308 550.226, 649.281 549.488, 659.253 548.750, 669.226 548.011, 679.199 547.273, 689.172 546.534, 699.144 545.796, 709.117 545.058, 719.090 544.319, 729.062 543.581, 739.035 542.843, 749.008 542.104, 758.980 541.681, 764.694 540.987, 774.074 541.546, 779.957 542.493, 789.912 543.440, 799.867 544.387, 809.822 544.817, 814.342 545.764, 824.297 546.711, 834.252 547.658, 844.207 548.605, 854.162 548.980, 858.112 549.927, 868.067 550.874, 878.022 550.979, 879.122 551.926, 889.077 552.777, 898.028 553.724, 907.983 554.671, 917.938 555.181, 923.296 565.180, 923.385 566.987, 923.401 567.213, 923.403 577.212, 923.492 587.212, 923.581 597.211, 923.671 607.211, 923.760 617.211, 923.849 621.010, 923.883 627.572, 923.941 637.571, 924.030 643.817, 924.086 650.158, 924.142 660.158, 924.232 670.157, 924.321 676.663, 924.379 685.269, 924.455 695.269, 924.544 696.703, 924.557 706.702, 924.646 709.758, 924.674 719.758, 924.763 729.757, 924.852 739.757, 924.941 749.756, 925.030 753.902, 925.067 756.981, 925.094 766.980, 925.183 776.980, 925.273 786.979, 925.362 796.979, 925.451 806.979, 925.540 816.978, 925.629 826.978, 925.718 835.706, 925.796 " fill="none" stroke="rgb(0, 119, 0)" stroke-linecap="butt" stroke-linejoin="round" stroke-opacity="1.0" stroke-width="3.0" />
            <path d=" M 835.706, 925.796 832.491, 916.327 829.276, 906.858 826.061, 897.388 822.847, 887.919 819.632, 878.450 816.417, 868.981 813.029, 859.001 809.814, 849.532 806.600, 840.063 803.385, 830.594 800.170, 821.124 796.956, 811.655 793.741, 802.186 790.526, 792.717 787.311, 783.248 786.440, 780.680 " fill="none" stroke="rgb(0, 119, 0)" stroke-linecap="butt" stroke-linejoin="round" stroke-opacity="1.0" stroke-width="3.0" />
            <path d=" M 540.987, 774.074 550.983, 774.343 560.979, 774.612 570.976, 774.881 580.972, 775.150 590.969, 775.419 597.330, 775.590 598.391, 775.619 608.387, 775.888 618.384, 776.157 621.232, 776.234 631.229, 776.503 641.225, 776.772 651.221, 777.041 661.218, 777.310 671.214, 777.579 681.210, 777.848 687.280, 778.011 697.277, 778.280 707.273, 778.549 716.407, 778.795 726.403, 779.064 736.400, 779.333 746.396, 779.602 756.392, 779.871 766.389, 780.140 773.725, 780.338 783.721, 780.607 786.440, 780.680 788.016, 770.805 788.605, 767.114 789.868, 759.208 791.444, 749.333 793.021, 739.458 794.597, 729.583 796.174, 719.708 797.170, 713.465 798.747, 703.590 798.927, 702.458 800.504, 692.583 802.080, 682.708 803.657, 672.833 805.233, 662.958 806.810, 653.083 808.386, 643.208 809.963, 633.333 811.539, 623.458 812.709, 616.129 814.286, 606.255 815.862, 596.380 816.068, 595.089 817.645, 585.214 819.221, 575.339 820.798, 565.464 821.853, 558.858 822.376, 555.578 " fill="none" stroke="rgb(0, 119, 0)" stroke-linecap="butt" stroke-linejoin="round" stroke-opacity="1.0" stroke-width="3.0" />
            <path d=" M 555.181, 923.296 556.011, 913.331 556.841, 903.365 557.671, 893.400 558.501, 883.434 559.331, 873.469 560.160, 863.503 560.990, 853.538 561.820, 843.572 562.650, 833.607 563.480, 823.641 564.219, 814.770 565.049, 804.804 565.879, 794.839 566.709, 784.873 567.539, 774.908 568.369, 764.942 569.199, 754.977 570.029, 745.011 570.859, 735.046 571.689, 725.080 572.519, 715.115 573.349, 705.149 574.179, 695.184 575.009, 685.218 575.839, 675.253 576.605, 666.050 " fill="none" stroke="rgb(0, 119, 0)" stroke-linecap="butt" stroke-linejoin="round" stroke-opacity="1.0" stroke-width="3.0" />
            <path d=" M 881.790, 678.296 871.798, 677.895 861.806, 677.494 851.814, 677.093 841.822, 676.692 831.830, 676.291 821.838, 675.890 811.846, 675.490 802.572, 675.117 797.035, 674.895 787.043, 674.494 777.051, 674.093 768.439, 673.748 758.447, 673.347 753.194, 673.136 743.202, 672.735 738.486, 672.546 728.494, 672.145 718.502, 671.744 708.510, 671.343 706.358, 671.257 696.366, 670.856 686.374, 670.455 676.382, 670.054 666.390, 669.653 656.398, 669.252 646.406, 668.851 645.770, 668.825 635.778, 668.424 632.241, 668.282 622.249, 667.882 612.257, 667.481 602.266, 667.080 597.748, 666.898 596.894, 666.864 586.902, 666.463 576.910, 666.062 576.605, 666.050 575.152, 656.156 573.699, 646.262 572.247, 636.368 570.794, 626.474 569.341, 616.581 567.888, 606.687 566.435, 596.793 564.982, 586.899 563.955, 579.904 562.502, 570.010 561.049, 560.116 559.596, 550.222 558.243, 541.006 " fill="none" stroke="rgb(0, 119, 0)" stroke-linecap="butt" stroke-linejoin="round" stroke-opacity="1.0" stroke-width="3.0" />
            <path d=" M 1154.652, 1008.199 1149.660, 999.534 1144.667, 990.870 1139.675, 982.205 1134.683, 973.540 1129.690, 964.876 1124.698, 956.211 1119.705, 947.546 1114.713, 938.882 1109.721, 930.217 1104.728, 921.552 1099.736, 912.888 1094.744, 904.223 1089.751, 895.559 1084.759, 886.894 1079.766, 878.229 1074.774, 869.565 1069.781, 860.900 1064.789, 852.235 1059.797, 843.571 1055.271, 835.716 1050.279, 827.052 1045.286, 818.387 1040.294, 809.722 1035.302, 801.058 1030.309, 792.393 1025.317, 783.729 1020.325, 775.064 1015.332, 766.399 1010.340, 757.735 1005.347, 749.070 1003.434, 745.749 " fill="none" stroke="rgb(0, 119, 0)" stroke-linecap="butt" stroke-linejoin="round" stroke-opacity="1.0" stroke-width="3.0" />
            <path d=" M 591.816, 732.525 601.811, 732.847 611.806, 733.168 621.801, 733.489 625.579, 733.610 635.574, 733.931 645.569, 734.252 648.897, 734.359 658.892, 734.680 668.887, 735.001 678.882, 735.323 688.877, 735.644 692.562, 735.762 702.557, 736.083 712.552, 736.404 719.343, 736.622 729.338, 736.943 739.332, 737.265 749.327, 737.586 759.322, 737.907 759.859, 737.924 769.854, 738.245 779.849, 738.566 789.844, 738.887 792.394, 738.969 802.389, 739.290 812.383, 739.611 813.120, 739.635 823.115, 739.956 833.110, 740.277 843.105, 740.598 853.100, 740.919 863.095, 741.240 870.028, 741.463 870.730, 741.486 877.641, 741.708 887.635, 742.029 897.630, 742.350 901.004, 742.458 910.999, 742.779 920.994, 743.101 922.620, 743.153 932.615, 743.474 942.610, 743.795 952.605, 744.116 962.600, 744.437 972.595, 744.758 974.921, 744.833 984.916, 745.154 994.911, 745.475 1003.434, 745.749 1005.697, 736.008 1007.960, 726.268 1010.224, 716.527 1012.487, 706.787 1014.750, 697.046 1017.013, 687.306 1019.276, 677.565 1021.540, 667.825 1023.803, 658.084 1026.066, 648.344 1028.329, 638.603 1030.593, 628.863 1032.856, 619.122 1035.119, 609.382 1037.382, 599.641 1039.646, 589.901 1041.909, 580.160 1044.172, 570.420 1046.435, 560.679 1048.698, 550.939 1050.962, 541.198 1053.225, 531.458 1055.488, 521.717 1057.751, 511.976 1060.015, 502.236 1060.689, 499.335 1062.952, 489.594 1065.215, 479.853 1067.478, 470.113 1069.742, 460.372 1072.005, 450.632 1074.268, 440.891 1076.531, 431.151 1078.795, 421.410 1081.058, 411.670 1083.321, 401.929 1085.584, 392.189 1087.848, 382.448 1090.111, 372.708 1092.374, 362.967 1094.637, 353.227 1096.900, 343.486 1097.843, 339.428 " fill="none" stroke="rgb(0, 119, 0)" stroke-linecap="butt" stroke-linejoin="round" stroke-opacity="1.0" stroke-width="3.0" />
            <path d=" M 625.490, 359.976 624.590, 369.936 623.690, 379.895 622.790, 389.854 621.889, 399.814 620.989, 409.773 620.089, 419.733 619.189, 429.692 618.289, 439.651 617.388, 449.611 616.488, 459.570 615.588, 469.530 614.688, 479.489 613.787, 489.448 612.887, 499.408 611.987, 509.367 611.087, 519.327 610.161, 529.571 609.902, 532.436 609.002, 542.396 608.875, 543.800 608.831, 544.288 607.930, 554.248 607.030, 564.207 606.130, 574.166 605.422, 581.998 604.522, 591.957 603.622, 601.917 602.722, 611.876 601.821, 621.836 600.921, 631.795 600.021, 641.754 599.121, 651.714 598.221, 661.673 597.748, 666.898 596.848, 676.858 595.948, 686.817 595.048, 696.777 594.147, 706.736 593.247, 716.695 592.347, 726.655 591.816, 732.525 591.931, 733.273 593.439, 743.159 594.947, 753.044 596.455, 762.930 596.961, 766.244 598.391, 775.619 599.284, 781.470 600.792, 791.356 602.300, 801.241 603.808, 811.127 605.316, 821.012 606.824, 830.898 608.333, 840.784 609.889, 850.987 610.580, 855.514 612.088, 865.400 613.596, 875.285 615.104, 885.171 616.612, 895.056 617.183, 898.799 618.692, 908.684 620.200, 918.570 621.010, 923.883 622.518, 933.768 624.027, 943.654 625.535, 953.539 627.043, 963.425 628.551, 973.311 630.059, 983.196 631.567, 993.082 633.076, 1002.968 633.990, 1008.961 643.990, 1008.946 653.990, 1008.931 663.990, 1008.917 673.990, 1008.902 683.990, 1008.888 693.653, 1008.873 699.955, 1008.864 709.955, 1008.850 719.955, 1008.835 729.955, 1008.820 739.955, 1008.806 740.825, 1008.804 743.814, 1008.800 753.814, 1008.785 763.814, 1008.771 773.814, 1008.756 783.814, 1008.742 793.814, 1008.727 803.814, 1008.712 813.814, 1008.698 823.814, 1008.683 833.814, 1008.668 843.814, 1008.654 853.814, 1008.639 863.814, 1008.624 873.814, 1008.610 883.814, 1008.595 893.814, 1008.581 903.814, 1008.566 913.814, 1008.551 923.814, 1008.537 931.857, 1008.525 941.857, 1008.510 951.857, 1008.496 961.857, 1008.481 971.857, 1008.466 981.857, 1008.452 991.857, 1008.437 992.672, 1008.436 1002.672, 1008.421 1008.058, 1008.413 1010.688, 1008.410 " fill="none" stroke="rgb(0, 119, 0)" stroke-linecap="butt" stroke-linejoin="round" stroke-opacity="1.0" stroke-width="3.0" />
            <path d=" M 633.990, 1008.961 635.140, 999.027 636.290, 989.093 636.964, 983.276 638.114, 973.343 639.264, 963.409 640.414, 953.476 641.564, 943.542 642.714, 933.608 643.817, 924.086 644.967, 914.152 646.117, 904.219 647.267, 894.285 648.417, 884.351 649.568, 874.418 650.718, 864.484 651.674, 856.222 652.824, 846.288 653.975, 836.355 655.125, 826.421 656.275, 816.487 657.425, 806.554 658.575, 796.620 659.725, 786.686 660.875, 776.753 661.968, 767.317 663.118, 757.384 664.268, 747.450 665.418, 737.516 666.568, 727.583 667.719, 717.649 668.869, 707.715 670.019, 697.782 671.169, 687.848 672.319, 677.914 673.469, 667.981 674.619, 658.047 675.769, 648.114 676.920, 638.180 678.070, 628.246 679.220, 618.313 680.202, 609.830 681.352, 599.896 682.502, 589.963 682.603, 589.093 682.971, 585.914 684.121, 575.980 685.271, 566.047 686.421, 556.113 687.346, 548.129 688.496, 538.195 688.975, 534.057 690.125, 524.123 691.275, 514.189 692.426, 504.256 693.576, 494.322 694.726, 484.388 695.140, 480.813 " fill="none" stroke="rgb(0, 119, 0)" stroke-linecap="butt" stroke-linejoin="round" stroke-opacity="1.0" stroke-width="3.0" />
        </g>
    </g>
</svg>
