<?xml version='1.0' encoding='ascii'?>
<svg xmlns="http://www.w3.org/2000/svg" xmlns:inkscape="http://www.inkscape.org/namespaces/inkscape" height="1500" version="1.1" width="1500">
    <g id="fressstylelayer_LineSet" inkscape:groupmode="lineset" inkscape:label="fressstylelayer_LineSet">
        <g id="strokes" inkscape:groupmode="layer" inkscape:label="strokes">
            <path d=" M 250.488, 537.171 241.855, 541.714 233.005, 546.370 224.155, 551.027 215.306, 555.683 206.456, 560.340 197.606, 564.997 188.757, 569.653 184.337, 571.978 189.154, 580.742 193.970, 589.506 198.786, 598.270 203.602, 607.034 208.419, 615.797 213.235, 624.561 218.051, 633.325 222.867, 642.089 227.684, 650.852 232.500, 659.616 237.316, 668.380 242.132, 677.144 246.949, 685.908 251.765, 694.671 256.581, 703.435 261.781, 712.896 266.597, 721.660 271.413, 730.424 276.229, 739.188 278.333, 743.015 283.149, 751.779 287.163, 759.084 289.606, 763.528 294.038, 771.592 298.854, 780.356 303.670, 789.120 306.887, 794.973 311.703, 803.737 316.519, 812.500 321.335, 821.264 326.152, 830.028 330.968, 838.792 335.784, 847.556 340.600, 856.319 345.417, 865.083 350.233, 873.847 355.049, 882.611 359.865, 891.375 364.682, 900.138 369.498, 908.902 374.314, 917.666 379.130, 926.430 383.947, 935.193 388.763, 943.957 391.395, 948.747 394.344, 954.112 " fill="none" stroke="rgb(157, 20, 170)" stroke-linecap="butt" stroke-linejoin="round" stroke-opacity="1.0" stroke-width="3.0" />
            <path d=" M 658.885, 354.076 667.218, 348.547 675.551, 343.019 683.884, 337.491 692.217, 331.962 693.760, 330.939 702.093, 325.410 707.212, 322.014 715.545, 316.486 715.735, 316.360 " fill="none" stroke="rgb(157, 20, 170)" stroke-linecap="butt" stroke-linejoin="round" stroke-opacity="1.0" stroke-width="3.0" />
            <path d=" M 723.711, 334.593 719.703, 325.431 715.735, 316.360 706.581, 320.577 697.499, 324.762 692.124, 327.239 " fill="none" stroke="rgb(157, 20, 170)" stroke-linecap="butt" stroke-linejoin="round" stroke-opacity="1.0" stroke-width="3.0" />
            <path d=" M 653.898, 351.677 644.812, 355.854 635.727, 360.032 626.641, 364.210 617.556, 368.387 608.470, 372.565 599.385, 376.743 590.299, 380.921 581.214, 385.098 572.128, 389.276 563.042, 393.454 553.957, 397.631 544.871, 401.809 535.786, 405.987 526.700, 410.164 517.615, 414.342 508.529, 418.520 499.444, 422.697 490.358, 426.875 481.273, 431.053 472.187, 435.230 463.101, 439.408 454.016, 443.586 444.930, 447.763 435.845, 451.941 426.759, 456.119 417.674, 460.296 408.588, 464.474 399.503, 468.652 390.417, 472.829 381.332, 477.007 372.246, 481.185 363.161, 485.362 354.075, 489.540 344.989, 493.718 335.904, 497.896 326.818, 502.073 317.733, 506.251 308.647, 510.429 299.562, 514.606 290.476, 518.784 281.391, 522.962 272.305, 527.139 263.220, 531.317 250.488, 537.171 " fill="none" stroke="rgb(157, 20, 170)" stroke-linecap="butt" stroke-linejoin="round" stroke-opacity="1.0" stroke-width="3.0" />
            <path d=" M 692.124, 327.239 683.698, 332.625 675.273, 338.011 666.848, 343.398 658.422, 348.784 653.898, 351.677 649.791, 342.559 645.684, 333.441 641.577, 324.323 638.664, 317.856 " fill="none" stroke="rgb(157, 20, 170)" stroke-linecap="butt" stroke-linejoin="round" stroke-opacity="1.0" stroke-width="3.0" />
            <path d=" M 184.337, 571.978 193.425, 567.805 202.513, 563.633 211.601, 559.460 220.688, 555.287 229.776, 551.114 238.864, 546.941 243.514, 544.806 252.391, 540.730 261.478, 536.557 270.566, 532.384 279.654, 528.211 288.742, 524.038 297.829, 519.865 306.917, 515.692 316.005, 511.519 325.092, 507.347 334.180, 503.174 343.268, 499.001 352.356, 494.828 361.443, 490.655 370.531, 486.482 379.619, 482.309 388.707, 478.136 397.794, 473.963 406.882, 469.790 415.970, 465.618 425.058, 461.445 434.145, 457.272 443.233, 453.099 452.321, 448.926 461.408, 444.753 470.496, 440.580 479.584, 436.407 488.672, 432.234 497.759, 428.061 506.847, 423.889 515.935, 419.716 525.023, 415.543 534.110, 411.370 543.198, 407.197 552.286, 403.024 561.374, 398.851 570.461, 394.678 579.549, 390.505 588.637, 386.332 597.724, 382.160 606.812, 377.987 615.900, 373.814 624.988, 369.641 634.075, 365.468 643.163, 361.295 652.251, 357.122 658.885, 354.076 662.987, 363.196 667.089, 372.316 667.417, 373.045 " fill="none" stroke="rgb(157, 20, 170)" stroke-linecap="butt" stroke-linejoin="round" stroke-opacity="1.0" stroke-width="3.0" />
            <path d=" M 706.581, 320.577 702.559, 311.422 698.537, 302.266 694.516, 293.111 694.041, 292.029 684.974, 296.249 675.908, 300.468 666.842, 304.687 657.776, 308.906 648.709, 313.126 639.643, 317.345 630.577, 321.564 621.510, 325.783 612.444, 330.003 603.378, 334.222 594.311, 338.441 585.245, 342.661 576.179, 346.880 567.112, 351.099 558.046, 355.318 548.980, 359.537 539.914, 363.757 530.847, 367.976 521.781, 372.195 512.715, 376.415 503.648, 380.634 494.582, 384.853 485.516, 389.072 476.449, 393.292 467.383, 397.511 458.317, 401.730 449.250, 405.949 440.184, 410.169 431.118, 414.388 422.052, 418.607 412.985, 422.826 403.919, 427.046 394.853, 431.265 385.786, 435.484 376.720, 439.703 364.833, 445.235 355.768, 449.457 346.703, 453.679 337.638, 457.901 328.573, 462.123 319.508, 466.345 310.443, 470.568 301.378, 474.790 292.313, 479.012 283.248, 483.234 274.183, 487.456 265.118, 491.678 256.053, 495.900 246.988, 500.122 237.923, 504.344 228.858, 508.566 225.023, 510.352 229.752, 519.163 234.481, 527.974 239.210, 536.786 241.855, 541.714 " fill="none" stroke="rgb(157, 20, 170)" stroke-linecap="butt" stroke-linejoin="round" stroke-opacity="1.0" stroke-width="3.0" />
            <path d=" M 225.023, 510.352 234.089, 506.133 243.155, 501.914 252.222, 497.695 261.288, 493.475 270.354, 489.256 279.421, 485.037 288.487, 480.818 297.553, 476.599 306.620, 472.379 315.686, 468.160 324.752, 463.941 333.819, 459.722 342.885, 455.503 351.951, 451.283 361.018, 447.064 370.084, 442.845 379.150, 438.626 388.217, 434.407 397.283, 430.187 406.349, 425.968 415.416, 421.749 424.482, 417.530 433.548, 413.311 442.615, 409.091 451.681, 404.872 460.747, 400.653 469.814, 396.434 478.880, 392.215 487.946, 387.995 497.013, 383.776 506.079, 379.557 515.145, 375.338 524.212, 371.119 533.278, 366.899 542.344, 362.680 551.411, 358.461 560.477, 354.242 569.543, 350.023 578.610, 345.803 587.676, 341.584 596.742, 337.365 605.809, 333.146 614.875, 328.927 623.941, 324.708 633.008, 320.488 638.664, 317.856 647.727, 313.629 656.790, 309.402 665.853, 305.176 674.916, 300.949 683.978, 296.722 693.041, 292.496 694.041, 292.029 " fill="none" stroke="rgb(157, 20, 170)" stroke-linecap="butt" stroke-linejoin="round" stroke-opacity="1.0" stroke-width="3.0" />
            <path d=" M 203.816, 857.987 196.593, 864.903 189.371, 871.819 182.853, 878.061 187.875, 886.708 192.898, 895.355 197.920, 904.002 202.943, 912.650 207.965, 921.297 212.987, 929.944 218.010, 938.591 223.032, 947.239 228.055, 955.886 233.077, 964.533 238.099, 973.181 243.122, 981.828 248.144, 990.475 253.167, 999.122 258.189, 1007.770 263.716, 1017.285 " fill="none" stroke="rgb(157, 20, 170)" stroke-linecap="butt" stroke-linejoin="round" stroke-opacity="1.0" stroke-width="3.0" />
            <path d=" M 283.915, 990.961 281.821, 993.689 275.734, 1001.623 269.646, 1009.556 263.716, 1017.285 257.628, 1025.218 251.540, 1033.152 249.455, 1035.870 254.508, 1044.499 259.561, 1053.128 264.614, 1061.758 269.667, 1070.387 274.720, 1079.017 279.773, 1087.646 284.826, 1096.275 289.879, 1104.905 294.932, 1113.534 299.985, 1122.164 305.038, 1130.793 310.091, 1139.423 315.144, 1148.052 320.198, 1156.681 325.251, 1165.311 330.304, 1173.940 335.357, 1182.570 340.410, 1191.199 345.463, 1199.828 350.516, 1208.458 355.569, 1217.087 360.622, 1225.717 365.675, 1234.346 370.728, 1242.975 375.781, 1251.605 380.834, 1260.234 385.887, 1268.864 390.940, 1277.493 395.993, 1286.123 401.046, 1294.752 406.099, 1303.381 411.152, 1312.011 416.205, 1320.640 421.258, 1329.270 426.311, 1337.899 431.364, 1346.528 436.418, 1355.158 441.471, 1363.787 446.524, 1372.417 451.577, 1381.046 456.630, 1389.675 458.924, 1393.594 468.429, 1390.486 477.934, 1387.377 487.438, 1384.269 496.943, 1381.161 506.447, 1378.052 515.952, 1374.944 525.457, 1371.836 534.961, 1368.727 544.466, 1365.619 553.971, 1362.511 563.475, 1359.403 572.980, 1356.294 582.485, 1353.186 591.989, 1350.078 601.494, 1346.969 610.999, 1343.861 620.503, 1340.753 630.008, 1337.644 639.513, 1334.536 649.017, 1331.428 658.522, 1328.319 668.026, 1325.211 677.531, 1322.103 687.036, 1318.994 696.540, 1315.886 706.045, 1312.778 715.550, 1309.669 725.054, 1306.561 734.559, 1303.453 744.064, 1300.344 753.568, 1297.236 763.073, 1294.128 772.578, 1291.019 782.082, 1287.911 791.587, 1284.803 801.092, 1281.694 810.596, 1278.586 820.101, 1275.478 829.606, 1272.369 839.110, 1269.261 848.615, 1266.153 856.146, 1263.690 856.469, 1253.695 856.793, 1243.700 857.116, 1233.706 857.440, 1223.711 857.763, 1213.716 858.086, 1203.721 858.410, 1193.727 858.733, 1183.732 858.986, 1175.907 " fill="none" stroke="rgb(157, 20, 170)" stroke-linecap="butt" stroke-linejoin="round" stroke-opacity="1.0" stroke-width="3.0" />
            <path d=" M 1090.234, 943.159 1092.830, 952.816 1095.426, 962.473 1098.022, 972.130 1100.618, 981.787 1103.214, 991.444 1105.811, 1001.101 1108.407, 1010.759 1111.003, 1020.416 1113.599, 1030.073 1116.195, 1039.730 1118.791, 1049.387 1121.387, 1059.044 1123.984, 1068.701 1126.580, 1078.358 1128.296, 1084.744 1118.824, 1087.951 1109.352, 1091.157 1099.880, 1094.363 1090.408, 1097.570 1080.936, 1100.776 1071.464, 1103.982 1061.992, 1107.189 1052.520, 1110.395 1043.048, 1113.601 1033.576, 1116.808 1024.104, 1120.014 1014.632, 1123.220 1005.160, 1126.427 995.688, 1129.633 986.216, 1132.839 976.744, 1136.045 967.272, 1139.252 957.800, 1142.458 948.328, 1145.664 938.856, 1148.871 929.383, 1152.077 919.911, 1155.283 910.439, 1158.490 900.967, 1161.696 891.495, 1164.902 882.023, 1168.109 872.551, 1171.315 863.079, 1174.521 858.986, 1175.907 849.514, 1179.113 840.042, 1182.319 830.537, 1185.537 826.142, 1176.554 825.330, 1174.893 820.935, 1165.911 816.540, 1156.928 816.418, 1156.678 812.023, 1147.696 807.629, 1138.713 803.234, 1129.730 798.839, 1120.748 794.445, 1111.765 790.050, 1102.783 785.655, 1093.800 781.260, 1084.818 776.866, 1075.835 772.471, 1066.853 768.076, 1057.870 763.682, 1048.887 759.287, 1039.905 758.160, 1037.600 " fill="none" stroke="rgb(157, 20, 170)" stroke-linecap="butt" stroke-linejoin="round" stroke-opacity="1.0" stroke-width="3.0" />
            <path d=" M 261.781, 712.896 254.029, 719.214 246.278, 725.532 238.527, 731.850 230.776, 738.169 223.024, 744.487 215.273, 750.805 207.522, 757.123 199.771, 763.441 192.019, 769.759 184.268, 776.077 176.517, 782.395 168.766, 788.713 165.518, 791.360 170.501, 800.030 175.485, 808.700 180.468, 817.370 185.452, 826.039 190.436, 834.709 195.419, 843.379 200.403, 852.049 203.816, 857.987 208.800, 866.656 209.096, 867.172 214.080, 875.842 219.063, 884.512 224.047, 893.182 229.031, 901.851 234.014, 910.521 238.998, 919.191 243.981, 927.860 248.965, 936.530 253.948, 945.200 258.932, 953.870 263.915, 962.539 268.899, 971.209 273.883, 979.879 278.866, 988.549 281.821, 993.689 " fill="none" stroke="rgb(157, 20, 170)" stroke-linecap="butt" stroke-linejoin="round" stroke-opacity="1.0" stroke-width="3.0" />
            <path d=" M 283.915, 990.961 293.223, 987.305 302.531, 983.649 311.838, 979.993 321.146, 976.338 330.454, 972.682 339.755, 969.029 349.063, 965.373 358.370, 961.718 367.678, 958.062 376.986, 954.406 386.294, 950.750 391.395, 948.747 " fill="none" stroke="rgb(157, 20, 170)" stroke-linecap="butt" stroke-linejoin="round" stroke-opacity="1.0" stroke-width="3.0" />
            <path d=" M 888.406, 424.457 897.573, 420.460 906.739, 416.463 914.971, 412.873 " fill="none" stroke="rgb(157, 20, 170)" stroke-linecap="butt" stroke-linejoin="round" stroke-opacity="1.0" stroke-width="3.0" />
            <path d=" M 932.833, 456.352 929.033, 447.102 925.233, 437.852 921.433, 428.602 917.633, 419.352 914.971, 412.873 913.830, 402.939 912.688, 393.004 911.546, 383.069 910.405, 373.135 909.263, 363.200 909.106, 361.835 " fill="none" stroke="rgb(157, 20, 170)" stroke-linecap="butt" stroke-linejoin="round" stroke-opacity="1.0" stroke-width="3.0" />
            <path d=" M 924.353, 399.181 920.573, 389.922 916.793, 380.664 913.014, 371.406 909.106, 361.835 899.963, 365.886 890.821, 369.937 883.408, 373.222 " fill="none" stroke="rgb(157, 20, 170)" stroke-linecap="butt" stroke-linejoin="round" stroke-opacity="1.0" stroke-width="3.0" />
            <path d=" M 707.544, 341.994 714.575, 338.775 723.711, 334.593 732.804, 330.430 741.896, 326.268 750.989, 322.105 760.081, 317.943 769.174, 313.780 778.266, 309.618 787.359, 305.455 796.451, 301.293 805.544, 297.130 814.636, 292.968 823.729, 288.805 832.821, 284.643 841.914, 280.480 844.568, 279.265 848.388, 288.507 852.208, 297.748 856.028, 306.990 859.849, 316.231 863.669, 325.473 867.489, 334.714 871.310, 343.956 875.130, 353.197 878.950, 362.439 882.771, 371.680 883.408, 373.222 887.228, 382.463 888.773, 386.199 888.677, 396.199 888.581, 406.198 888.485, 416.198 888.406, 424.457 892.248, 433.690 896.090, 442.922 899.932, 452.155 903.774, 461.387 906.401, 467.700 " fill="none" stroke="rgb(157, 20, 170)" stroke-linecap="butt" stroke-linejoin="round" stroke-opacity="1.0" stroke-width="3.0" />
            <path d=" M 923.454, 399.574 924.353, 399.181 933.515, 395.174 940.331, 392.193 944.085, 401.462 947.840, 410.730 951.594, 419.999 955.349, 429.267 959.103, 438.536 962.858, 447.804 966.612, 457.072 970.367, 466.341 974.121, 475.609 977.876, 484.878 981.630, 494.146 985.385, 503.414 989.140, 512.683 992.894, 521.951 996.649, 531.220 1000.403, 540.488 1004.158, 549.756 1007.912, 559.025 1011.667, 568.293 1015.421, 577.562 1019.176, 586.830 1022.930, 596.098 1026.685, 605.367 1030.440, 614.635 1034.194, 623.904 1037.949, 633.172 1041.703, 642.440 1045.458, 651.709 1049.212, 660.977 1052.967, 670.246 1056.721, 679.514 1060.476, 688.783 1064.230, 698.051 1067.985, 707.319 1071.740, 716.588 1075.494, 725.856 1079.249, 735.125 1083.003, 744.393 1086.758, 753.661 1088.931, 759.026 1092.277, 768.450 1095.624, 777.873 1098.970, 787.297 1102.316, 796.720 1105.663, 806.144 1109.009, 815.567 1112.355, 824.991 1115.702, 834.414 1119.048, 843.838 1122.394, 853.261 1125.741, 862.685 1129.087, 872.108 1132.433, 881.532 1135.780, 890.955 1139.126, 900.379 1142.472, 909.802 1145.819, 919.226 1147.084, 922.789 1137.670, 926.162 1128.256, 929.535 1118.842, 932.908 1109.428, 936.281 1100.014, 939.654 1090.234, 943.159 1080.820, 946.532 1072.315, 949.579 1068.423, 940.368 1064.530, 931.156 1062.941, 927.396 " fill="none" stroke="rgb(157, 20, 170)" stroke-linecap="butt" stroke-linejoin="round" stroke-opacity="1.0" stroke-width="3.0" />
            <path d=" M 343.367, 520.837 334.738, 525.890 326.109, 530.944 317.480, 535.997 308.851, 541.051 300.222, 546.105 291.593, 551.158 284.057, 555.571 288.744, 564.405 293.432, 573.238 298.119, 582.071 302.807, 590.905 307.494, 599.738 312.182, 608.571 316.869, 617.405 321.557, 626.238 325.267, 633.229 325.573, 633.806 330.260, 642.639 334.948, 651.472 337.530, 656.338 342.217, 665.171 346.905, 674.004 348.855, 677.680 349.258, 678.440 349.803, 679.465 354.490, 688.299 357.495, 693.961 362.062, 702.566 366.749, 711.400 371.286, 719.949 374.530, 726.063 379.218, 734.896 383.905, 743.730 388.593, 752.563 393.280, 761.396 397.968, 770.230 402.655, 779.063 407.343, 787.896 412.030, 796.729 416.718, 805.563 421.405, 814.396 426.093, 823.229 430.780, 832.063 435.468, 840.896 440.155, 849.729 444.843, 858.563 449.530, 867.396 454.218, 876.229 458.905, 885.063 463.593, 893.896 468.280, 902.729 472.968, 911.562 478.126, 921.283 482.814, 930.116 487.501, 938.949 489.480, 942.679 494.168, 951.512 498.855, 960.346 503.543, 969.179 508.230, 978.012 512.918, 986.845 517.605, 995.679 522.293, 1004.512 526.980, 1013.345 531.015, 1020.949 535.703, 1029.783 540.390, 1038.616 544.331, 1046.041 553.706, 1042.562 563.081, 1039.083 572.457, 1035.604 577.746, 1033.641 " fill="none" stroke="rgb(157, 20, 170)" stroke-linecap="butt" stroke-linejoin="round" stroke-opacity="1.0" stroke-width="3.0" />
            <path d=" M 827.681, 308.233 831.539, 317.459 835.397, 326.685 839.255, 335.911 843.113, 345.136 846.972, 354.362 850.830, 363.588 854.688, 372.814 858.546, 382.039 859.322, 383.894 863.180, 393.120 864.722, 396.807 868.580, 406.033 872.438, 415.259 876.296, 424.484 880.155, 433.710 884.013, 442.936 887.871, 452.162 891.729, 461.387 895.587, 470.613 899.445, 479.839 903.304, 489.065 907.162, 498.290 911.020, 507.516 914.878, 516.742 918.736, 525.968 922.594, 535.193 926.453, 544.419 930.311, 553.645 934.169, 562.871 938.027, 572.096 941.885, 581.322 945.743, 590.548 949.602, 599.774 953.460, 608.999 957.318, 618.225 961.176, 627.451 965.034, 636.677 968.892, 645.902 972.751, 655.128 976.609, 664.354 980.467, 673.580 984.325, 682.805 988.183, 692.031 992.041, 701.257 995.900, 710.483 999.758, 719.708 1003.616, 728.934 1007.474, 738.160 1011.332, 747.386 1015.190, 756.612 1019.049, 765.837 1022.907, 775.063 1026.765, 784.289 1030.623, 793.515 1034.481, 802.740 1039.411, 814.529 1039.744, 815.324 1043.602, 824.550 1047.460, 833.776 1051.318, 843.002 1054.907, 851.582 1056.716, 855.908 " fill="none" stroke="rgb(157, 20, 170)" stroke-linecap="butt" stroke-linejoin="round" stroke-opacity="1.0" stroke-width="3.0" />
            <path d=" M 1050.041, 858.384 1050.178, 858.333 1056.716, 855.908 1055.558, 851.340 1053.677, 843.919 1051.220, 834.225 1048.762, 824.532 1048.353, 822.917 1045.896, 813.224 1043.439, 803.530 1042.773, 800.902 " fill="none" stroke="rgb(157, 20, 170)" stroke-linecap="butt" stroke-linejoin="round" stroke-opacity="1.0" stroke-width="3.0" />
            <path d=" M 906.803, 474.484 906.401, 467.700 915.590, 463.755 924.779, 459.810 932.833, 456.352 931.203, 446.485 929.573, 436.619 927.944, 426.753 926.314, 416.886 924.684, 407.020 923.454, 399.574 " fill="none" stroke="rgb(157, 20, 170)" stroke-linecap="butt" stroke-linejoin="round" stroke-opacity="1.0" stroke-width="3.0" />
            <path d=" M 1042.773, 800.902 1038.927, 791.671 1035.082, 782.440 1031.237, 773.208 1027.392, 763.977 1023.547, 754.746 1019.701, 745.515 1015.856, 736.284 1012.011, 727.053 1008.166, 717.821 1004.320, 708.590 1000.475, 699.359 996.630, 690.128 992.785, 680.897 988.939, 671.666 985.094, 662.435 981.249, 653.203 977.404, 643.972 973.558, 634.741 969.713, 625.510 965.868, 616.279 962.023, 607.048 958.177, 597.816 954.332, 588.585 950.487, 579.354 946.642, 570.123 942.797, 560.892 938.951, 551.661 935.106, 542.430 931.261, 533.198 927.416, 523.967 923.570, 514.736 919.725, 505.505 915.880, 496.274 912.035, 487.043 908.189, 477.812 906.803, 474.484 915.995, 470.546 925.187, 466.608 934.379, 462.669 943.571, 458.731 947.015, 457.256 947.908, 456.873 956.194, 453.323 " fill="none" stroke="rgb(157, 20, 170)" stroke-linecap="butt" stroke-linejoin="round" stroke-opacity="1.0" stroke-width="3.0" />
            <path d=" M 844.568, 279.265 839.531, 287.904 834.495, 296.544 829.459, 305.183 827.681, 308.233 818.579, 312.375 809.477, 316.516 800.374, 320.657 791.272, 324.799 782.170, 328.940 773.068, 333.081 763.966, 337.223 754.863, 341.364 745.761, 345.505 736.659, 349.646 731.352, 352.061 722.234, 356.210 715.215, 359.403 707.832, 362.762 698.730, 366.904 689.628, 371.045 680.525, 375.186 671.423, 379.328 662.321, 383.469 653.219, 387.610 644.117, 391.751 635.015, 395.893 625.912, 400.034 616.810, 404.175 607.708, 408.317 598.606, 412.458 589.504, 416.599 580.401, 420.741 571.299, 424.882 562.197, 429.023 553.095, 433.165 543.993, 437.306 534.891, 441.447 525.788, 445.588 516.686, 449.730 507.584, 453.871 498.482, 458.012 489.380, 462.154 480.278, 466.295 471.175, 470.436 462.073, 474.578 452.971, 478.719 443.869, 482.860 434.767, 487.002 425.665, 491.143 416.562, 495.284 407.460, 499.425 398.358, 503.567 389.256, 507.708 380.154, 511.849 371.051, 515.991 361.949, 520.132 352.847, 524.273 346.612, 527.110 337.510, 531.251 328.408, 535.393 319.306, 539.534 310.203, 543.675 301.101, 547.817 291.999, 551.958 284.057, 555.571 " fill="none" stroke="rgb(157, 20, 170)" stroke-linecap="butt" stroke-linejoin="round" stroke-opacity="1.0" stroke-width="3.0" />
            <path d=" M 707.544, 341.994 700.916, 347.123 693.008, 353.242 685.099, 359.362 677.190, 365.482 669.281, 371.602 667.417, 373.045 658.318, 377.194 649.220, 381.344 640.121, 385.493 631.023, 389.643 621.925, 393.793 612.826, 397.942 603.728, 402.092 594.629, 406.241 585.531, 410.391 576.433, 414.541 567.334, 418.690 558.236, 422.840 549.137, 426.989 540.039, 431.139 530.941, 435.288 521.842, 439.438 512.744, 443.588 503.645, 447.737 494.547, 451.887 485.449, 456.036 476.350, 460.186 467.252, 464.336 458.153, 468.485 449.055, 472.635 439.957, 476.784 430.858, 480.934 421.760, 485.084 412.661, 489.233 403.563, 493.383 394.465, 497.532 385.366, 501.682 376.268, 505.831 367.169, 509.981 358.071, 514.131 348.973, 518.280 343.367, 520.837 " fill="none" stroke="rgb(157, 20, 170)" stroke-linecap="butt" stroke-linejoin="round" stroke-opacity="1.0" stroke-width="3.0" />
            <path d=" M 1056.614, 850.947 1059.087, 860.637 1061.560, 870.326 1064.033, 880.015 1066.506, 889.705 1066.695, 890.444 1069.169, 900.134 1071.642, 909.823 1074.115, 919.512 1075.013, 923.031 1066.612, 926.069 1062.941, 927.396 1061.923, 927.764 1052.519, 931.164 1043.115, 934.565 1040.944, 935.350 1031.540, 938.750 1027.268, 940.295 1017.864, 943.695 1008.459, 947.096 999.055, 950.496 989.651, 953.896 980.247, 957.297 970.843, 960.697 961.439, 964.098 952.035, 967.498 942.631, 970.898 933.227, 974.299 923.822, 977.699 914.418, 981.100 905.014, 984.500 895.610, 987.900 886.206, 991.301 876.802, 994.701 867.398, 998.102 857.994, 1001.502 848.589, 1004.902 839.185, 1008.303 829.781, 1011.703 820.377, 1015.103 810.973, 1018.504 801.569, 1021.904 792.165, 1025.305 782.761, 1028.705 773.357, 1032.105 763.952, 1035.506 758.160, 1037.600 748.755, 1041.001 746.958, 1041.651 737.554, 1045.051 728.150, 1048.451 718.746, 1051.852 709.341, 1055.252 704.704, 1056.929 695.299, 1060.330 685.895, 1063.730 676.491, 1067.130 673.968, 1068.043 664.564, 1071.443 655.160, 1074.843 645.756, 1078.244 643.463, 1079.073 634.058, 1082.473 632.552, 1083.018 623.148, 1086.419 613.744, 1089.819 608.183, 1091.830 603.548, 1082.969 601.641, 1079.322 597.006, 1070.461 592.371, 1061.600 587.736, 1052.739 583.101, 1043.878 578.466, 1035.017 577.746, 1033.641 573.111, 1024.781 568.476, 1015.920 564.529, 1008.374 562.486, 1004.468 557.851, 995.607 553.216, 986.746 548.581, 977.885 543.946, 969.024 539.311, 960.164 538.080, 957.810 534.344, 950.668 529.709, 941.807 525.074, 932.946 522.744, 928.491 518.109, 919.630 517.184, 917.861 515.359, 914.373 512.025, 908.000 507.390, 899.138 502.755, 890.278 498.120, 881.417 493.485, 872.556 488.850, 863.695 484.215, 854.834 479.580, 845.973 474.945, 837.112 470.760, 829.110 469.282, 826.284 464.647, 817.423 460.012, 808.562 455.377, 799.701 450.742, 790.841 446.107, 781.980 441.472, 773.119 436.837, 764.258 432.202, 755.397 427.567, 746.536 422.932, 737.675 418.297, 728.814 413.662, 719.953 409.027, 711.092 404.392, 702.231 399.757, 693.370 396.774, 687.668 392.139, 678.807 387.862, 670.630 383.227, 661.769 378.961, 653.613 386.446, 646.982 388.413, 645.239 397.581, 641.245 404.163, 638.377 413.331, 634.383 422.498, 630.389 431.666, 626.395 440.834, 622.401 450.002, 618.407 459.169, 614.413 468.337, 610.419 477.505, 606.425 486.672, 602.431 495.840, 598.436 505.008, 594.442 514.176, 590.448 523.343, 586.454 532.511, 582.460 541.679, 578.466 550.847, 574.472 560.014, 570.478 569.182, 566.484 578.350, 562.490 587.518, 558.496 596.685, 554.502 605.853, 550.508 615.021, 546.513 624.189, 542.519 633.356, 538.525 642.524, 534.531 651.692, 530.537 660.859, 526.543 670.027, 522.549 679.195, 518.555 688.363, 514.561 697.530, 510.567 706.698, 506.573 715.866, 502.579 725.034, 498.585 734.201, 494.591 743.369, 490.596 752.537, 486.602 761.705, 482.608 772.043, 478.104 776.673, 476.087 785.841, 472.093 795.009, 468.099 804.176, 464.105 813.344, 460.111 822.512, 456.117 831.680, 452.122 840.847, 448.128 850.015, 444.134 859.183, 440.140 864.904, 437.648 865.928, 437.202 866.189, 437.088 872.168, 434.483 " fill="none" stroke="rgb(157, 20, 170)" stroke-linecap="butt" stroke-linejoin="round" stroke-opacity="1.0" stroke-width="3.0" />
            <path d=" M 871.798, 439.196 872.168, 434.483 876.037, 443.704 879.907, 452.925 883.776, 462.146 887.645, 471.367 891.514, 480.589 895.384, 489.810 899.253, 499.031 903.122, 508.252 906.991, 517.473 910.861, 526.694 914.730, 535.915 918.599, 545.136 922.469, 554.357 926.338, 563.578 930.207, 572.800 934.076, 582.021 937.946, 591.242 941.815, 600.463 945.684, 609.684 949.553, 618.905 953.423, 628.126 957.292, 637.347 961.161, 646.568 965.030, 655.790 968.900, 665.011 972.769, 674.232 977.561, 685.652 981.430, 694.873 985.300, 704.094 989.169, 713.315 993.038, 722.537 996.907, 731.758 1000.777, 740.979 1004.646, 750.200 1008.515, 759.421 1012.384, 768.642 1016.254, 777.863 1020.123, 787.084 1023.992, 796.305 1027.861, 805.527 1031.731, 814.748 1035.600, 823.969 1039.469, 833.190 1043.339, 842.411 1047.208, 851.632 1048.228, 854.064 1050.041, 858.384 " fill="none" stroke="rgb(157, 20, 170)" stroke-linecap="butt" stroke-linejoin="round" stroke-opacity="1.0" stroke-width="3.0" />
            <path d=" M 1056.614, 850.947 1053.677, 843.919 " fill="none" stroke="rgb(157, 20, 170)" stroke-linecap="butt" stroke-linejoin="round" stroke-opacity="1.0" stroke-width="3.0" />
            <path d=" M 378.961, 653.613 388.130, 649.624 390.223, 648.714 399.392, 644.724 405.966, 641.864 415.136, 637.875 424.306, 633.885 433.476, 629.896 442.645, 625.906 451.815, 621.917 460.985, 617.927 470.155, 613.938 479.324, 609.948 488.494, 605.959 497.664, 601.969 506.834, 597.980 516.003, 593.991 525.173, 590.001 534.343, 586.012 543.513, 582.022 552.682, 578.033 561.852, 574.043 571.022, 570.054 580.192, 566.064 589.361, 562.075 598.531, 558.086 607.701, 554.096 616.871, 550.107 626.040, 546.117 635.210, 542.128 644.380, 538.138 653.549, 534.149 662.719, 530.159 671.889, 526.170 681.059, 522.180 690.229, 518.191 699.398, 514.202 708.568, 510.212 717.738, 506.223 726.908, 502.233 736.077, 498.244 745.247, 494.254 754.417, 490.265 763.586, 486.275 773.702, 481.874 778.330, 479.861 787.500, 475.872 796.669, 471.882 805.839, 467.893 815.009, 463.903 824.179, 459.914 833.348, 455.924 842.518, 451.935 851.688, 447.945 860.858, 443.956 866.522, 441.491 867.546, 441.046 867.807, 440.932 871.798, 439.196 875.670, 448.416 879.543, 457.636 883.415, 466.856 887.288, 476.075 891.160, 485.295 895.032, 494.515 898.905, 503.735 902.777, 512.955 906.650, 522.174 910.522, 531.394 914.394, 540.614 918.267, 549.834 922.139, 559.054 926.012, 568.273 929.884, 577.493 933.756, 586.713 937.629, 595.933 941.501, 605.152 945.374, 614.372 949.246, 623.592 953.118, 632.812 956.991, 642.032 960.863, 651.251 964.736, 660.471 968.608, 669.691 972.480, 678.911 976.353, 688.131 979.236, 694.996 983.109, 704.216 986.981, 713.436 990.854, 722.656 994.726, 731.875 998.598, 741.095 1002.471, 750.315 1006.343, 759.535 1010.216, 768.755 1014.088, 777.974 1017.960, 787.194 1021.833, 796.414 1025.705, 805.634 1029.578, 814.854 1033.450, 824.073 1037.323, 833.293 1041.195, 842.513 1045.067, 851.733 1046.341, 854.766 1050.214, 863.986 1053.377, 871.517 1057.249, 880.737 1061.122, 889.956 1064.994, 899.176 1068.866, 908.396 1072.739, 917.616 1075.013, 923.031 " fill="none" stroke="rgb(157, 20, 170)" stroke-linecap="butt" stroke-linejoin="round" stroke-opacity="1.0" stroke-width="3.0" />
            <path d=" M 940.331, 392.193 942.842, 401.873 945.354, 411.552 947.866, 421.232 950.378, 430.911 952.890, 440.590 955.402, 450.270 956.194, 453.323 959.961, 462.586 963.728, 471.850 967.494, 481.113 971.261, 490.377 975.028, 499.640 978.794, 508.904 982.561, 518.167 986.328, 527.431 990.094, 536.694 993.861, 545.958 997.627, 555.221 1001.394, 564.485 1005.161, 573.748 1008.927, 583.012 1012.694, 592.275 1016.461, 601.539 1020.227, 610.802 1023.994, 620.066 1027.760, 629.329 1031.527, 638.593 1035.294, 647.856 1039.060, 657.120 1042.827, 666.383 1046.594, 675.647 1050.360, 684.910 1054.127, 694.174 1057.894, 703.438 1061.660, 712.701 1065.427, 721.964 1069.193, 731.228 1072.960, 740.491 1076.727, 749.755 1080.493, 759.018 1084.260, 768.282 1088.027, 777.545 1091.793, 786.809 1095.560, 796.073 1099.327, 805.336 1103.093, 814.599 1106.860, 823.863 1110.626, 833.127 1114.393, 842.390 1118.160, 851.654 1121.926, 860.917 1125.693, 870.180 1129.460, 879.444 1133.226, 888.708 1136.993, 897.971 1140.760, 907.235 1144.526, 916.498 1147.084, 922.789 " fill="none" stroke="rgb(157, 20, 170)" stroke-linecap="butt" stroke-linejoin="round" stroke-opacity="1.0" stroke-width="3.0" />
            <path d=" M 209.096, 867.172 199.860, 871.005 190.623, 874.837 182.853, 878.061 " fill="none" stroke="rgb(157, 20, 170)" stroke-linecap="butt" stroke-linejoin="round" stroke-opacity="1.0" stroke-width="3.0" />
            <path d=" M 278.333, 743.015 269.141, 746.954 259.949, 750.893 250.758, 754.832 241.566, 758.771 232.375, 762.710 223.183, 766.648 213.992, 770.587 204.800, 774.526 195.609, 778.465 186.417, 782.404 177.225, 786.343 168.034, 790.282 165.518, 791.360 " fill="none" stroke="rgb(157, 20, 170)" stroke-linecap="butt" stroke-linejoin="round" stroke-opacity="1.0" stroke-width="3.0" />
            <path d=" M 478.126, 921.283 468.815, 924.931 459.505, 928.579 450.194, 932.228 440.883, 935.876 431.572, 939.524 422.262, 943.173 412.951, 946.821 403.640, 950.469 394.344, 954.112 " fill="none" stroke="rgb(157, 20, 170)" stroke-linecap="butt" stroke-linejoin="round" stroke-opacity="1.0" stroke-width="3.0" />
            <path d=" M 489.480, 942.679 480.158, 946.298 470.836, 949.918 461.514, 953.537 452.192, 957.156 442.870, 960.776 433.548, 964.395 424.226, 968.014 414.904, 971.633 405.582, 975.253 396.260, 978.872 386.938, 982.491 377.616, 986.111 368.294, 989.730 358.972, 993.349 354.402, 995.123 345.080, 998.743 335.758, 1002.362 326.436, 1005.981 317.114, 1009.601 307.792, 1013.220 298.718, 1016.743 295.738, 1017.900 286.416, 1021.519 277.094, 1025.139 269.900, 1027.932 260.578, 1031.551 251.255, 1035.171 249.455, 1035.870 " fill="none" stroke="rgb(157, 20, 170)" stroke-linecap="butt" stroke-linejoin="round" stroke-opacity="1.0" stroke-width="3.0" />
            <path d=" M 746.958, 1041.651 751.371, 1050.624 755.784, 1059.598 760.196, 1068.572 764.609, 1077.545 769.022, 1086.519 773.435, 1095.493 777.848, 1104.466 782.260, 1113.440 786.673, 1122.414 791.086, 1131.388 795.499, 1140.361 799.912, 1149.335 804.325, 1158.309 805.384, 1160.463 809.797, 1169.436 814.209, 1178.410 814.321, 1178.638 818.734, 1187.611 823.147, 1196.585 827.560, 1205.559 831.973, 1214.532 836.386, 1223.506 840.798, 1232.480 845.211, 1241.454 849.624, 1250.427 854.037, 1259.401 856.146, 1263.690 " fill="none" stroke="rgb(157, 20, 170)" stroke-linecap="butt" stroke-linejoin="round" stroke-opacity="1.0" stroke-width="3.0" />
            <path d=" M 1061.923, 927.764 1065.818, 936.975 1069.712, 946.185 1073.606, 955.396 1077.500, 964.606 1081.395, 973.817 1085.289, 983.027 1089.183, 992.238 1093.078, 1001.448 1096.972, 1010.659 1100.866, 1019.870 1104.761, 1029.080 1108.655, 1038.291 1112.549, 1047.501 1116.444, 1056.712 1120.338, 1065.922 1124.232, 1075.133 1128.296, 1084.744 " fill="none" stroke="rgb(157, 20, 170)" stroke-linecap="butt" stroke-linejoin="round" stroke-opacity="1.0" stroke-width="3.0" />
        </g>
    </g>
    <g id="fressstylelayer_hidden lines" inkscape:groupmode="lineset" inkscape:label="fressstylelayer_hidden lines" xmlns:inkscape="http://www.inkscape.org/namespaces/inkscape">
        <g id="strokes" inkscape:groupmode="layer" inkscape:label="strokes" xmlns:inkscape="http://www.inkscape.org/namespaces/inkscape">
            <path d=" M 883.408, 373.222 874.265, 377.273 865.122, 381.324 859.322, 383.894 857.340, 384.772 848.197, 388.823 844.951, 390.262 848.832, 399.478 850.372, 403.136 854.253, 412.353 856.288, 417.185 856.467, 417.612 860.348, 426.828 864.229, 436.044 864.904, 437.648 866.522, 441.491 870.403, 450.708 874.284, 459.924 878.164, 469.140 882.045, 478.357 885.926, 487.573 889.807, 496.789 893.687, 506.005 897.568, 515.222 901.449, 524.438 905.330, 533.654 909.210, 542.871 913.091, 552.087 916.972, 561.303 920.853, 570.520 924.733, 579.736 928.614, 588.952 932.495, 598.168 936.375, 607.385 940.256, 616.601 944.137, 625.817 948.018, 635.034 951.898, 644.250 955.779, 653.466 959.660, 662.682 962.949, 670.493 966.829, 679.709 970.710, 688.926 974.591, 698.142 978.472, 707.358 981.127, 713.664 983.443, 719.165 983.664, 719.689 981.899, 709.846 980.134, 700.003 979.236, 694.996 977.561, 685.652 975.796, 675.809 974.031, 665.966 973.272, 661.730 969.411, 652.506 965.549, 643.281 961.688, 634.057 957.827, 624.832 953.965, 615.608 950.104, 606.383 946.243, 597.159 942.382, 587.934 938.520, 578.710 934.659, 569.486 930.798, 560.261 926.936, 551.037 923.075, 541.812 919.214, 532.588 915.353, 523.363 911.491, 514.139 907.630, 504.914 903.769, 495.690 899.908, 486.466 896.046, 477.241 892.185, 468.017 888.324, 458.792 884.462, 449.568 880.601, 440.343 876.740, 431.119 872.879, 421.894 869.017, 412.670 865.156, 403.445 862.743, 397.680 858.881, 388.456 857.340, 384.772 853.478, 375.548 849.613, 366.315 840.481, 370.388 831.348, 374.461 822.215, 378.534 813.082, 382.607 803.949, 386.680 794.816, 390.753 785.683, 394.826 776.550, 398.900 767.417, 402.973 764.480, 404.283 760.057, 406.255 755.875, 408.120 748.317, 411.491 746.812, 412.162 743.153, 413.794 743.681, 414.996 744.459, 416.763 745.487, 419.099 748.121, 425.086 750.166, 429.734 750.538, 430.579 754.566, 439.732 754.693, 440.021 755.776, 442.481 759.803, 451.634 762.899, 458.669 763.397, 458.450 768.037, 456.414 777.195, 452.396 786.352, 448.378 795.509, 444.360 804.666, 440.342 813.823, 436.324 822.981, 432.305 832.138, 428.287 841.295, 424.269 850.452, 420.251 856.467, 417.612 857.494, 417.161 861.373, 426.378 865.252, 435.595 865.928, 437.202 867.546, 441.046 871.425, 450.263 875.304, 459.480 879.183, 468.697 883.062, 477.914 886.942, 487.131 890.821, 496.348 894.700, 505.565 898.579, 514.782 902.458, 523.999 906.337, 533.216 910.216, 542.433 914.095, 551.650 917.974, 560.867 921.854, 570.084 925.733, 579.301 929.612, 588.518 933.491, 597.735 937.370, 606.952 941.249, 616.169 945.128, 625.385 949.007, 634.602 952.887, 643.819 956.766, 653.036 960.645, 662.253 962.277, 666.132 962.949, 670.493 964.471, 680.377 965.993, 690.260 967.515, 700.144 969.037, 710.027 970.255, 717.938 971.273, 724.550 975.174, 733.757 979.075, 742.965 982.976, 752.173 985.019, 756.994 986.692, 766.853 986.991, 768.613 990.896, 777.819 994.801, 787.025 996.173, 790.261 994.411, 780.417 992.648, 770.574 991.954, 766.698 990.192, 756.855 989.880, 755.111 988.117, 745.267 986.354, 735.424 984.592, 725.580 983.545, 719.735 983.443, 719.165 982.371, 713.175 978.492, 703.957 974.613, 694.740 970.735, 685.523 966.856, 676.306 962.977, 667.089 962.532, 666.030 958.653, 656.813 954.774, 647.596 950.896, 638.379 947.017, 629.162 943.138, 619.944 939.259, 610.727 935.381, 601.510 931.502, 592.293 927.623, 583.076 923.745, 573.859 919.866, 564.642 915.987, 555.424 912.108, 546.207 908.230, 536.990 904.351, 527.773 900.472, 518.556 896.594, 509.339 892.715, 500.122 888.836, 490.904 884.958, 481.687 881.079, 472.470 877.200, 463.253 873.321, 454.036 869.443, 444.819 867.807, 440.932 866.189, 437.088 862.311, 427.871 858.432, 418.653 857.576, 416.620 856.288, 417.185 847.131, 421.204 837.974, 425.223 828.817, 429.241 819.660, 433.260 810.503, 437.279 801.346, 441.297 792.189, 445.316 783.032, 449.335 773.875, 453.353 767.854, 455.996 763.214, 458.032 763.397, 458.450 767.424, 467.604 771.451, 476.757 772.043, 478.104 773.702, 481.874 777.729, 491.028 781.756, 500.181 785.782, 509.335 789.809, 518.488 793.836, 527.642 797.863, 536.795 801.890, 545.948 805.916, 555.102 809.943, 564.255 813.970, 573.409 817.997, 582.562 822.023, 591.715 826.050, 600.869 830.077, 610.022 834.104, 619.176 838.131, 628.329 842.157, 637.483 846.184, 646.636 850.211, 655.789 854.238, 664.943 858.264, 674.096 862.291, 683.250 866.924, 693.779 870.950, 702.933 871.007, 703.062 871.396, 693.069 871.438, 691.966 867.419, 682.809 863.399, 673.652 859.380, 664.496 855.360, 655.339 851.341, 646.183 847.321, 637.026 843.302, 627.869 839.282, 618.713 835.263, 609.556 831.243, 600.400 827.224, 591.243 823.204, 582.086 819.185, 572.930 815.165, 563.773 811.146, 554.617 807.126, 545.460 803.107, 536.303 799.087, 527.147 795.068, 517.990 791.048, 508.833 787.029, 499.677 783.009, 490.520 778.330, 479.861 776.673, 476.087 772.654, 466.930 768.634, 457.774 768.037, 456.414 767.854, 455.996 763.834, 446.839 760.924, 440.209 758.158, 433.908 755.693, 428.293 753.753, 423.874 751.763, 419.341 748.845, 412.694 748.317, 411.491 747.020, 408.535 745.619, 405.345 744.113, 406.018 737.133, 409.138 729.790, 412.420 720.660, 416.500 711.531, 420.581 702.401, 424.662 693.272, 428.742 684.142, 432.823 675.012, 436.903 665.883, 440.984 656.753, 445.065 647.624, 449.145 638.494, 453.226 629.365, 457.306 620.235, 461.387 611.106, 465.468 601.976, 469.548 592.846, 473.629 583.717, 477.709 574.587, 481.790 565.458, 485.871 556.328, 489.951 547.199, 494.032 538.069, 498.112 528.940, 502.193 519.810, 506.274 510.681, 510.354 501.551, 514.435 492.421, 518.515 483.292, 522.596 474.162, 526.677 462.382, 531.942 454.475, 538.064 451.187, 540.611 447.451, 543.504 456.583, 539.428 464.377, 535.950 473.509, 531.875 482.640, 527.799 491.772, 523.724 500.904, 519.649 510.036, 515.573 519.168, 511.498 528.300, 507.422 537.432, 503.347 546.564, 499.272 555.695, 495.196 564.827, 491.121 573.959, 487.045 583.091, 482.970 592.223, 478.895 601.355, 474.819 610.487, 470.744 619.619, 466.668 628.750, 462.593 637.882, 458.518 647.014, 454.442 656.146, 450.367 665.278, 446.292 674.410, 442.216 683.542, 438.141 692.674, 434.065 701.805, 429.990 710.937, 425.914 720.069, 421.839 731.666, 416.663 739.006, 413.388 740.358, 412.784 741.718, 415.871 743.681, 414.996 747.341, 413.365 748.845, 412.694 756.402, 409.325 758.784, 408.263 765.006, 405.490 764.480, 404.283 763.188, 401.317 754.580, 405.160 747.020, 408.535 745.514, 409.207 741.676, 410.921 738.537, 412.322 731.196, 415.600 722.065, 419.676 712.933, 423.753 703.802, 427.830 694.671, 431.906 685.539, 435.983 676.408, 440.060 667.277, 444.137 658.146, 448.213 649.014, 452.290 639.883, 456.367 630.752, 460.443 621.620, 464.520 612.489, 468.597 603.358, 472.673 594.227, 476.750 585.095, 480.827 575.964, 484.904 566.833, 488.980 557.701, 493.057 548.570, 497.134 539.439, 501.210 530.307, 505.287 521.176, 509.364 512.045, 513.441 502.914, 517.517 493.782, 521.594 484.651, 525.671 475.520, 529.747 463.877, 534.945 454.745, 539.022 451.187, 540.611 442.056, 544.687 439.280, 545.927 431.340, 552.006 423.401, 558.086 422.418, 558.838 414.479, 564.917 406.539, 570.997 398.599, 577.077 390.660, 583.156 382.720, 589.236 379.873, 591.416 371.933, 597.495 363.993, 603.575 356.054, 609.654 348.114, 615.734 340.174, 621.813 332.235, 627.893 325.267, 633.229 323.071, 634.910 327.762, 643.741 332.454, 652.572 335.033, 657.429 339.725, 666.260 344.416, 675.092 346.768, 679.519 348.855, 677.680 351.648, 675.219 359.151, 668.608 366.654, 661.997 374.157, 655.386 381.660, 648.775 389.163, 642.164 396.666, 635.553 400.812, 631.899 408.092, 625.485 399.449, 629.264 390.287, 633.270 381.124, 637.276 371.962, 641.283 362.799, 645.289 353.637, 649.295 344.474, 653.301 340.868, 654.878 337.530, 656.338 335.033, 657.429 325.871, 661.435 323.808, 662.337 319.362, 665.961 311.833, 672.098 304.081, 678.417 296.330, 684.735 288.579, 691.053 280.828, 697.371 273.076, 703.689 265.325, 710.007 261.781, 712.896 " fill="none" stroke="rgb(0, 119, 0)" stroke-linecap="butt" stroke-linejoin="round" stroke-opacity="1.0" stroke-width="3.0" />
            <path d=" M 973.272, 661.730 963.988, 665.447 962.532, 666.030 962.277, 666.132 " fill="none" stroke="rgb(0, 119, 0)" stroke-linecap="butt" stroke-linejoin="round" stroke-opacity="1.0" stroke-width="3.0" />
            <path d=" M 394.344, 954.112 399.842, 945.760 400.136, 945.314 395.333, 936.543 390.530, 927.772 385.727, 919.000 380.924, 910.229 376.121, 901.458 371.319, 892.687 366.516, 883.916 361.713, 875.145 356.910, 866.374 352.107, 857.603 347.304, 848.832 342.501, 840.060 337.698, 831.289 332.895, 822.518 328.093, 813.747 323.290, 804.976 318.487, 796.205 313.900, 787.828 309.097, 779.057 304.294, 770.286 301.235, 764.700 296.867, 756.723 294.460, 752.327 289.657, 743.556 287.265, 739.187 294.723, 732.526 302.182, 725.864 309.640, 719.203 317.099, 712.542 324.557, 705.881 332.015, 699.219 335.489, 696.117 334.049, 693.423 329.333, 684.604 324.617, 675.786 319.901, 666.968 319.362, 665.961 314.647, 657.143 309.931, 648.324 305.215, 639.506 300.499, 630.688 295.783, 621.870 291.067, 613.052 286.352, 604.233 281.636, 595.415 276.920, 586.597 272.204, 577.779 267.488, 568.961 262.772, 560.142 258.056, 551.324 253.341, 542.506 252.391, 540.730 250.488, 537.171 " fill="none" stroke="rgb(0, 119, 0)" stroke-linecap="butt" stroke-linejoin="round" stroke-opacity="1.0" stroke-width="3.0" />
            <path d=" M 364.833, 445.235 369.354, 454.155 373.876, 463.074 378.397, 471.994 382.918, 480.913 387.440, 489.833 391.961, 498.752 396.482, 507.672 401.004, 516.591 405.525, 525.511 410.046, 534.430 414.568, 543.350 419.089, 552.269 422.418, 558.838 422.995, 559.976 " fill="none" stroke="rgb(0, 119, 0)" stroke-linecap="butt" stroke-linejoin="round" stroke-opacity="1.0" stroke-width="3.0" />
            <path d=" M 241.855, 541.714 243.514, 544.806 248.243, 553.617 252.972, 562.428 257.701, 571.239 262.430, 580.050 267.159, 588.862 271.888, 597.673 276.617, 606.484 281.346, 615.295 286.075, 624.106 290.804, 632.917 295.533, 641.729 300.262, 650.540 304.991, 659.351 309.720, 668.162 311.833, 672.098 316.562, 680.910 321.291, 689.721 326.020, 698.532 326.749, 699.890 334.049, 693.423 338.359, 689.604 345.844, 682.972 349.803, 679.465 352.590, 676.996 351.648, 675.219 346.966, 666.383 342.283, 657.547 340.868, 654.878 336.186, 646.042 331.504, 637.206 328.919, 632.329 336.846, 626.233 344.773, 620.137 352.700, 614.040 360.626, 607.944 368.553, 601.847 376.480, 595.751 380.511, 592.650 388.438, 586.554 396.365, 580.457 404.292, 574.361 412.219, 568.265 420.145, 562.168 422.995, 559.976 432.130, 555.907 441.264, 551.837 442.071, 551.478 449.736, 548.063 458.871, 543.993 466.654, 540.526 475.788, 536.457 484.923, 532.387 494.057, 528.318 503.192, 524.248 512.326, 520.179 521.461, 516.109 530.595, 512.040 539.730, 507.970 548.864, 503.901 557.999, 499.831 567.133, 495.762 576.268, 491.693 585.403, 487.623 594.537, 483.554 603.672, 479.484 612.806, 475.415 621.941, 471.345 631.075, 467.276 640.210, 463.206 649.344, 459.137 658.479, 455.067 667.613, 450.998 676.748, 446.928 685.882, 442.859 695.017, 438.789 704.151, 434.720 713.286, 430.651 722.420, 426.581 733.808, 421.508 741.144, 418.239 744.459, 416.763 748.118, 415.133 747.341, 413.365 746.812, 412.162 745.514, 409.207 744.508, 406.916 744.113, 406.018 740.092, 396.862 736.070, 387.706 732.048, 378.551 728.026, 369.395 724.004, 360.240 722.234, 356.210 718.212, 347.054 714.575, 338.775 710.553, 329.620 707.212, 322.014 706.581, 320.577 " fill="none" stroke="rgb(0, 119, 0)" stroke-linecap="butt" stroke-linejoin="round" stroke-opacity="1.0" stroke-width="3.0" />
            <path d=" M 263.716, 1017.285 268.738, 1025.932 269.900, 1027.932 274.922, 1036.579 279.944, 1045.226 284.967, 1053.874 289.989, 1062.521 295.012, 1071.168 300.034, 1079.816 305.056, 1088.463 310.079, 1097.110 315.101, 1105.757 320.124, 1114.405 325.146, 1123.052 330.169, 1131.699 335.191, 1140.346 340.213, 1148.994 345.236, 1157.641 350.258, 1166.288 355.281, 1174.936 360.303, 1183.583 365.325, 1192.230 370.348, 1200.877 375.370, 1209.525 380.393, 1218.172 385.415, 1226.819 390.438, 1235.466 392.908, 1239.721 402.342, 1236.403 411.775, 1233.085 421.209, 1229.767 430.642, 1226.449 440.076, 1223.130 449.509, 1219.812 458.943, 1216.495 468.376, 1213.176 478.127, 1209.747 473.237, 1201.024 468.346, 1192.302 463.456, 1183.579 458.565, 1174.857 453.674, 1166.134 448.784, 1157.412 443.893, 1148.689 439.903, 1141.572 435.012, 1132.849 430.122, 1124.127 426.255, 1117.232 423.510, 1118.240 418.615, 1109.520 413.720, 1100.800 408.825, 1092.079 403.931, 1083.359 399.036, 1074.639 394.141, 1065.919 389.246, 1057.199 384.352, 1048.479 379.457, 1039.759 374.562, 1031.038 369.667, 1022.318 364.772, 1013.598 359.878, 1004.878 354.402, 995.123 349.507, 986.403 344.613, 977.683 339.755, 969.029 334.860, 960.309 329.965, 951.589 325.070, 942.869 320.176, 934.148 315.281, 925.428 310.386, 916.708 305.491, 907.988 300.596, 899.268 295.702, 890.548 290.807, 881.828 285.912, 873.107 281.017, 864.387 276.122, 855.667 271.228, 846.947 268.700, 842.444 275.657, 835.260 282.614, 828.077 289.571, 820.894 291.931, 818.457 289.008, 813.186 284.158, 804.441 279.307, 795.697 275.685, 789.166 271.089, 780.880 278.386, 774.042 285.683, 767.204 289.606, 763.528 296.867, 756.723 304.164, 749.885 311.461, 743.048 318.758, 736.210 326.055, 729.372 333.352, 722.534 340.648, 715.696 348.405, 708.428 357.594, 704.484 362.062, 702.566 371.251, 698.622 380.440, 694.678 387.097, 691.822 396.286, 687.878 396.774, 687.668 405.964, 683.724 407.996, 682.852 417.186, 678.908 423.684, 676.119 432.285, 672.427 439.251, 665.252 446.216, 658.077 453.182, 650.902 460.147, 643.727 467.395, 636.262 458.215, 640.229 449.035, 644.196 439.856, 648.162 430.676, 652.129 423.436, 655.258 414.820, 658.981 405.640, 662.948 399.104, 665.772 389.924, 669.739 387.862, 670.630 378.682, 674.597 378.167, 674.819 370.830, 681.614 363.492, 688.408 357.495, 693.961 350.157, 700.755 346.244, 704.379 338.906, 711.173 331.569, 717.967 324.231, 724.761 316.894, 731.555 309.556, 738.349 302.219, 745.143 294.460, 752.327 287.163, 759.084 279.826, 765.878 272.488, 772.672 265.151, 779.466 257.813, 786.260 257.330, 786.708 262.201, 795.441 264.614, 799.768 269.484, 808.502 274.355, 817.235 278.224, 824.172 285.229, 817.036 289.008, 813.186 296.013, 806.050 303.018, 798.914 306.887, 794.973 313.900, 787.828 320.905, 780.692 327.910, 773.556 334.916, 766.419 341.222, 759.995 348.228, 752.858 355.233, 745.722 362.238, 738.586 369.243, 731.449 374.530, 726.063 381.536, 718.927 387.183, 713.174 377.983, 717.095 371.286, 719.949 362.086, 723.869 352.887, 727.790 343.687, 731.710 334.488, 735.631 329.269, 737.855 322.046, 744.771 314.824, 751.688 307.601, 758.604 301.235, 764.700 294.038, 771.592 286.815, 778.508 279.592, 785.425 275.685, 789.166 268.463, 796.082 264.614, 799.768 257.391, 806.684 250.168, 813.600 242.946, 820.517 235.723, 827.433 228.501, 834.349 221.278, 841.265 214.055, 848.182 206.833, 855.098 203.816, 857.987 " fill="none" stroke="rgb(0, 119, 0)" stroke-linecap="butt" stroke-linejoin="round" stroke-opacity="1.0" stroke-width="3.0" />
            <path d=" M 329.269, 737.855 334.020, 746.655 338.771, 755.454 341.222, 759.995 345.973, 768.794 350.724, 777.593 355.475, 786.393 360.226, 795.192 364.977, 803.991 369.728, 812.791 374.479, 821.590 379.229, 830.390 383.980, 839.189 388.731, 847.988 393.482, 856.788 398.233, 865.587 402.984, 874.387 407.735, 883.186 412.486, 891.985 417.236, 900.785 421.987, 909.584 426.738, 918.383 431.489, 927.183 436.240, 935.982 440.991, 944.782 445.742, 953.581 450.493, 962.380 455.243, 971.180 459.994, 979.979 464.745, 988.779 469.496, 997.578 474.247, 1006.377 478.998, 1015.177 483.749, 1023.976 488.500, 1032.775 490.352, 1036.207 " fill="none" stroke="rgb(0, 119, 0)" stroke-linecap="butt" stroke-linejoin="round" stroke-opacity="1.0" stroke-width="3.0" />
            <path d=" M 655.268, 974.327 645.905, 977.840 636.543, 981.353 627.180, 984.866 617.817, 988.379 608.455, 991.892 605.320, 993.068 595.958, 996.581 586.595, 1000.094 577.233, 1003.608 575.360, 1004.310 565.997, 1007.823 564.529, 1008.374 555.167, 1011.887 545.804, 1015.400 536.441, 1018.913 531.015, 1020.949 521.653, 1024.462 512.290, 1027.975 502.928, 1031.488 493.565, 1035.001 490.352, 1036.207 486.034, 1045.226 481.715, 1054.246 477.397, 1063.265 473.078, 1072.285 468.759, 1081.304 464.441, 1090.323 460.122, 1099.343 455.804, 1108.362 451.485, 1117.382 447.167, 1126.401 442.848, 1135.421 439.903, 1141.572 435.584, 1150.591 431.266, 1159.611 426.947, 1168.630 422.628, 1177.650 418.310, 1186.669 413.991, 1195.688 409.673, 1204.708 405.354, 1213.727 401.036, 1222.747 396.717, 1231.766 392.908, 1239.721 " fill="none" stroke="rgb(0, 119, 0)" stroke-linecap="butt" stroke-linejoin="round" stroke-opacity="1.0" stroke-width="3.0" />
            <path d=" M 639.462, 942.888 643.954, 951.822 648.446, 960.757 652.937, 969.691 655.268, 974.327 652.359, 983.895 649.451, 993.462 646.542, 1003.030 643.633, 1012.598 640.725, 1022.165 638.415, 1029.764 635.506, 1039.332 632.597, 1048.899 629.689, 1058.467 626.780, 1068.035 626.046, 1070.448 " fill="none" stroke="rgb(0, 119, 0)" stroke-linecap="butt" stroke-linejoin="round" stroke-opacity="1.0" stroke-width="3.0" />
            <path d=" M 519.165, 1109.312 515.382, 1118.569 511.600, 1127.826 507.817, 1137.083 504.035, 1146.340 500.253, 1155.597 496.470, 1164.854 492.688, 1174.112 488.905, 1183.369 485.123, 1192.626 481.340, 1201.883 478.127, 1209.747 " fill="none" stroke="rgb(0, 119, 0)" stroke-linecap="butt" stroke-linejoin="round" stroke-opacity="1.0" stroke-width="3.0" />
            <path d=" M 638.903, 1095.289 634.306, 1086.408 632.552, 1083.018 627.956, 1074.137 626.046, 1070.448 616.648, 1073.865 607.250, 1077.282 601.641, 1079.322 592.243, 1082.740 582.845, 1086.157 573.447, 1089.574 564.049, 1092.991 554.651, 1096.409 545.253, 1099.826 535.855, 1103.243 526.457, 1106.660 519.165, 1109.312 523.929, 1118.104 528.694, 1126.896 533.459, 1135.688 538.224, 1144.479 542.989, 1153.271 544.709, 1156.446 " fill="none" stroke="rgb(0, 119, 0)" stroke-linecap="butt" stroke-linejoin="round" stroke-opacity="1.0" stroke-width="3.0" />
            <path d=" M 268.700, 842.444 259.463, 846.276 250.227, 850.108 240.990, 853.940 231.753, 857.772 222.517, 861.604 213.280, 865.437 209.096, 867.172 " fill="none" stroke="rgb(0, 119, 0)" stroke-linecap="butt" stroke-linejoin="round" stroke-opacity="1.0" stroke-width="3.0" />
            <path d=" M 378.167, 674.819 382.817, 683.673 387.097, 691.822 391.746, 700.675 396.396, 709.528 401.046, 718.381 405.695, 727.235 410.345, 736.088 414.995, 744.941 419.644, 753.795 424.294, 762.648 428.944, 771.501 433.593, 780.354 438.243, 789.208 442.893, 798.061 447.542, 806.914 452.192, 815.768 456.842, 824.621 461.491, 833.474 466.141, 842.327 470.791, 851.181 475.440, 860.034 480.090, 868.887 484.740, 877.741 489.389, 886.594 494.039, 895.447 498.688, 904.300 503.338, 913.154 507.988, 922.007 512.637, 930.860 517.287, 939.714 521.937, 948.567 524.940, 954.286 " fill="none" stroke="rgb(0, 119, 0)" stroke-linecap="butt" stroke-linejoin="round" stroke-opacity="1.0" stroke-width="3.0" />
            <path d=" M 573.711, 935.521 564.378, 939.112 555.045, 942.703 545.712, 946.294 545.247, 946.473 535.914, 950.064 534.344, 950.668 532.994, 951.187 524.940, 954.286 520.577, 963.284 519.838, 964.807 " fill="none" stroke="rgb(0, 119, 0)" stroke-linecap="butt" stroke-linejoin="round" stroke-opacity="1.0" stroke-width="3.0" />
            <path d=" M 569.259, 945.851 559.922, 949.432 550.585, 953.013 548.974, 953.631 539.638, 957.212 538.080, 957.810 536.731, 958.327 527.394, 961.908 519.838, 964.807 515.175, 955.961 510.511, 947.115 505.848, 938.269 501.184, 929.423 496.521, 920.577 491.857, 911.731 487.194, 902.885 482.530, 894.038 477.867, 885.192 473.204, 876.346 468.540, 867.500 463.877, 858.654 459.213, 849.808 454.550, 840.962 449.886, 832.116 445.223, 823.270 440.560, 814.424 435.896, 805.578 431.233, 796.732 426.569, 787.886 421.906, 779.040 417.242, 770.194 412.579, 761.348 407.915, 752.502 403.252, 743.656 398.589, 734.810 393.925, 725.964 389.262, 717.118 387.183, 713.174 " fill="none" stroke="rgb(0, 119, 0)" stroke-linecap="butt" stroke-linejoin="round" stroke-opacity="1.0" stroke-width="3.0" />
            <path d=" M 393.523, 1181.870 398.040, 1172.948 402.558, 1164.027 407.076, 1155.106 411.594, 1146.184 416.111, 1137.263 420.629, 1128.342 425.147, 1119.420 426.255, 1117.232 " fill="none" stroke="rgb(0, 119, 0)" stroke-linecap="butt" stroke-linejoin="round" stroke-opacity="1.0" stroke-width="3.0" />
            <path d=" M 281.821, 993.689 286.805, 1002.359 291.788, 1011.029 295.738, 1017.900 300.722, 1026.570 305.705, 1035.239 310.689, 1043.909 315.672, 1052.579 320.656, 1061.249 325.640, 1069.918 330.623, 1078.588 335.607, 1087.258 340.590, 1095.927 345.574, 1104.597 350.557, 1113.267 355.541, 1121.937 360.524, 1130.606 365.508, 1139.276 370.492, 1147.946 375.475, 1156.616 380.459, 1165.285 385.442, 1173.955 390.597, 1182.922 393.523, 1181.870 392.256, 1179.663 387.276, 1170.990 382.297, 1162.318 377.318, 1153.646 372.339, 1144.973 367.360, 1136.301 362.381, 1127.629 357.402, 1118.957 352.423, 1110.284 347.444, 1101.612 342.465, 1092.940 337.486, 1084.267 332.507, 1075.595 327.528, 1066.923 322.548, 1058.250 317.569, 1049.578 312.590, 1040.906 307.611, 1032.234 302.632, 1023.561 298.718, 1016.743 293.739, 1008.071 288.759, 999.399 283.915, 990.961 " fill="none" stroke="rgb(0, 119, 0)" stroke-linecap="butt" stroke-linejoin="round" stroke-opacity="1.0" stroke-width="3.0" />
            <path d=" M 681.945, 1107.611 672.524, 1110.964 663.103, 1114.316 653.681, 1117.669 644.260, 1121.021 634.839, 1124.374 625.417, 1127.726 615.996, 1131.079 606.575, 1134.431 597.154, 1137.784 587.732, 1141.136 578.311, 1144.489 568.890, 1147.841 559.468, 1151.194 550.047, 1154.546 544.709, 1156.446 541.308, 1165.850 537.906, 1175.253 534.504, 1184.657 531.103, 1194.060 527.701, 1203.464 524.299, 1212.868 520.898, 1222.271 517.496, 1231.675 514.094, 1241.079 510.693, 1250.482 507.291, 1259.886 503.890, 1269.290 500.488, 1278.693 497.086, 1288.097 493.685, 1297.501 490.283, 1306.904 486.881, 1316.308 483.480, 1325.712 480.078, 1335.115 476.676, 1344.519 473.275, 1353.923 469.873, 1363.326 466.471, 1372.730 463.070, 1382.134 458.924, 1393.594 " fill="none" stroke="rgb(0, 119, 0)" stroke-linecap="butt" stroke-linejoin="round" stroke-opacity="1.0" stroke-width="3.0" />
            <path d=" M 858.986, 1175.907 859.310, 1165.912 859.394, 1163.306 859.718, 1153.312 860.041, 1143.317 860.093, 1141.699 850.634, 1144.943 841.175, 1148.187 832.634, 1151.117 823.175, 1154.361 816.418, 1156.678 806.959, 1159.922 805.384, 1160.463 795.925, 1163.707 786.466, 1166.951 777.006, 1170.195 767.547, 1173.439 758.088, 1176.684 748.629, 1179.928 739.170, 1183.172 729.711, 1186.416 720.252, 1189.660 710.793, 1192.905 701.333, 1196.149 691.874, 1199.393 682.415, 1202.637 672.339, 1206.093 662.880, 1209.337 658.184, 1210.948 662.836, 1219.800 667.457, 1228.594 676.924, 1225.373 686.391, 1222.153 695.859, 1218.933 705.326, 1215.712 714.793, 1212.492 724.261, 1209.272 733.728, 1206.052 743.195, 1202.831 752.663, 1199.611 762.130, 1196.391 771.597, 1193.170 781.064, 1189.950 790.532, 1186.730 799.999, 1183.509 809.466, 1180.289 814.321, 1178.638 823.789, 1175.417 825.330, 1174.893 831.309, 1172.859 840.777, 1169.639 850.244, 1166.419 859.394, 1163.306 868.861, 1160.086 878.329, 1156.866 887.796, 1153.645 897.263, 1150.425 906.731, 1147.205 916.198, 1143.985 925.665, 1140.764 935.133, 1137.544 944.600, 1134.324 954.067, 1131.103 963.534, 1127.883 973.002, 1124.663 982.469, 1121.443 991.936, 1118.222 1001.404, 1115.002 1010.871, 1111.782 1020.338, 1108.561 1029.806, 1105.341 1039.273, 1102.121 1048.740, 1098.901 1058.207, 1095.680 1067.675, 1092.460 1072.740, 1090.737 1070.735, 1080.940 1068.730, 1071.143 1066.726, 1061.346 1064.721, 1051.549 1062.716, 1041.752 1060.712, 1031.955 1058.707, 1022.158 1056.702, 1012.361 1054.698, 1002.564 1052.693, 992.767 1050.688, 982.970 1048.683, 973.173 1046.679, 963.376 1044.674, 953.579 1042.669, 943.782 1040.944, 935.350 1038.939, 925.553 1036.935, 915.756 1035.197, 907.265 1033.248, 902.691 1029.328, 893.492 1025.407, 884.293 1021.487, 875.093 1019.710, 870.923 1015.790, 861.724 1011.869, 852.524 1007.949, 843.325 1004.028, 834.125 1000.108, 824.926 996.188, 815.726 992.267, 806.527 989.650, 800.385 988.390, 797.429 986.854, 793.825 982.934, 784.626 979.014, 775.426 975.093, 766.227 971.173, 757.027 968.709, 751.245 970.113, 761.146 971.518, 771.047 972.923, 780.948 974.327, 790.848 975.373, 798.217 976.914, 801.813 977.381, 805.065 981.322, 814.256 985.262, 823.447 989.203, 832.638 993.143, 841.829 997.084, 851.020 1001.024, 860.211 1004.965, 869.402 1007.551, 875.433 1011.491, 884.624 1015.432, 893.815 1019.372, 903.006 1021.139, 907.125 1022.052, 912.069 1023.869, 921.903 1025.686, 931.736 1027.268, 940.295 1029.085, 950.128 1030.902, 959.962 1032.719, 969.796 1034.536, 979.629 1036.353, 989.463 1038.169, 999.296 1039.986, 1009.130 1041.803, 1018.963 1041.959, 1019.803 1032.522, 1023.112 1023.085, 1026.421 1013.649, 1029.730 1004.212, 1033.039 994.775, 1036.348 985.339, 1039.657 975.902, 1042.966 966.465, 1046.275 957.029, 1049.584 947.592, 1052.893 938.155, 1056.202 928.718, 1059.511 919.282, 1062.820 909.845, 1066.128 900.408, 1069.437 890.972, 1072.746 881.535, 1076.055 872.098, 1079.364 862.662, 1082.673 853.225, 1085.982 843.788, 1089.291 836.239, 1091.938 835.631, 1101.920 835.023, 1111.901 834.415, 1121.883 833.807, 1131.864 833.199, 1141.846 832.634, 1151.117 832.026, 1161.098 831.418, 1171.080 831.309, 1172.859 830.701, 1182.841 830.537, 1185.537 " fill="none" stroke="rgb(0, 119, 0)" stroke-linecap="butt" stroke-linejoin="round" stroke-opacity="1.0" stroke-width="3.0" />
            <path d=" M 669.954, 1084.123 674.501, 1093.029 679.048, 1101.936 681.945, 1107.611 679.704, 1117.357 677.463, 1127.103 675.222, 1136.848 672.982, 1146.594 670.741, 1156.340 668.500, 1166.085 666.259, 1175.831 664.018, 1185.577 661.777, 1195.323 659.536, 1205.068 658.184, 1210.948 " fill="none" stroke="rgb(0, 119, 0)" stroke-linecap="butt" stroke-linejoin="round" stroke-opacity="1.0" stroke-width="3.0" />
            <path d=" M 860.093, 1141.699 855.771, 1132.681 851.448, 1123.664 847.125, 1114.647 842.802, 1105.629 838.480, 1096.612 836.239, 1091.938 " fill="none" stroke="rgb(0, 119, 0)" stroke-linecap="butt" stroke-linejoin="round" stroke-opacity="1.0" stroke-width="3.0" />
            <path d=" M 1056.614, 850.947 1055.558, 851.340 1054.907, 851.582 1049.067, 853.753 1048.931, 853.803 1048.228, 854.064 1046.341, 854.766 1036.968, 858.250 1034.161, 859.293 1035.426, 865.094 1026.050, 868.572 1019.710, 870.923 1010.334, 874.401 1007.551, 875.433 998.175, 878.911 988.799, 882.388 979.423, 885.866 970.047, 889.343 960.672, 892.821 951.296, 896.299 941.920, 899.776 932.544, 903.254 923.168, 906.731 913.792, 910.209 904.417, 913.687 895.041, 917.164 885.665, 920.642 876.289, 924.119 866.913, 927.597 857.537, 931.075 848.162, 934.552 838.786, 938.030 829.410, 941.507 820.034, 944.985 810.658, 948.463 801.282, 951.940 791.907, 955.418 782.531, 958.895 773.155, 962.373 763.779, 965.850 754.403, 969.328 745.027, 972.806 735.651, 976.283 729.311, 978.635 727.282, 988.427 725.356, 997.723 715.973, 1001.181 706.590, 1004.639 701.957, 1006.346 692.574, 1009.804 688.094, 1011.455 678.710, 1014.913 669.327, 1018.371 659.944, 1021.829 659.515, 1021.988 650.132, 1025.446 640.749, 1028.904 638.415, 1029.764 629.032, 1033.222 626.445, 1034.175 621.875, 1025.281 617.304, 1016.387 612.733, 1007.492 608.162, 998.598 605.320, 993.068 603.296, 989.129 593.936, 992.648 584.575, 996.166 575.214, 999.684 573.322, 1000.396 563.961, 1003.914 562.486, 1004.468 561.145, 1004.973 556.507, 996.113 551.870, 987.253 547.233, 978.393 542.596, 969.533 537.959, 960.673 536.731, 958.327 532.994, 951.187 528.357, 942.327 523.720, 933.467 521.944, 930.075 522.744, 928.491 527.253, 919.565 529.216, 915.680 530.797, 912.549 526.183, 903.677 521.570, 894.805 516.956, 885.933 512.342, 877.061 507.728, 868.189 503.114, 859.317 498.500, 850.445 493.887, 841.573 489.273, 832.701 484.509, 823.541 489.968, 815.162 493.109, 810.343 488.514, 801.460 483.920, 792.578 479.326, 783.696 474.732, 774.814 470.138, 765.931 465.544, 757.049 460.950, 748.167 456.355, 739.285 451.761, 730.403 447.167, 721.520 442.573, 712.638 437.979, 703.756 433.385, 694.874 428.790, 685.992 423.684, 676.119 419.090, 667.237 414.820, 658.981 410.226, 650.099 405.966, 641.864 404.163, 638.377 400.812, 631.899 399.449, 629.264 394.855, 620.382 390.261, 611.500 385.667, 602.617 381.073, 593.735 380.511, 592.650 379.873, 591.416 375.279, 582.533 370.685, 573.651 366.090, 564.769 361.496, 555.887 356.902, 547.005 352.308, 538.122 347.714, 529.240 346.612, 527.110 343.367, 520.837 " fill="none" stroke="rgb(0, 119, 0)" stroke-linecap="butt" stroke-linejoin="round" stroke-opacity="1.0" stroke-width="3.0" />
            <path d=" M 725.356, 997.723 729.769, 1006.696 734.182, 1015.670 738.595, 1024.644 743.008, 1033.617 746.958, 1041.651 " fill="none" stroke="rgb(0, 119, 0)" stroke-linecap="butt" stroke-linejoin="round" stroke-opacity="1.0" stroke-width="3.0" />
            <path d=" M 521.944, 930.075 512.622, 933.694 503.300, 937.313 493.978, 940.933 489.480, 942.679 " fill="none" stroke="rgb(0, 119, 0)" stroke-linecap="butt" stroke-linejoin="round" stroke-opacity="1.0" stroke-width="3.0" />
            <path d=" M 667.457, 1228.594 669.577, 1218.821 671.698, 1209.048 672.339, 1206.093 674.459, 1196.321 676.580, 1186.548 678.700, 1176.775 680.820, 1167.003 682.941, 1157.230 685.061, 1147.458 687.182, 1137.685 689.302, 1127.912 691.422, 1118.140 693.543, 1108.367 695.663, 1098.594 697.784, 1088.822 699.904, 1079.049 702.024, 1069.277 704.145, 1059.504 704.704, 1056.929 706.824, 1047.157 708.944, 1037.384 711.065, 1027.611 711.509, 1025.566 " fill="none" stroke="rgb(0, 119, 0)" stroke-linecap="butt" stroke-linejoin="round" stroke-opacity="1.0" stroke-width="3.0" />
            <path d=" M 693.578, 989.485 698.028, 998.440 701.957, 1006.346 706.407, 1015.301 710.858, 1024.256 711.509, 1025.566 720.901, 1022.133 730.293, 1018.700 739.686, 1015.268 749.078, 1011.835 758.470, 1008.402 767.863, 1004.970 777.255, 1001.537 786.648, 998.104 796.040, 994.671 805.432, 991.239 814.825, 987.806 824.217, 984.373 833.609, 980.941 843.002, 977.508 852.394, 974.075 861.786, 970.643 871.179, 967.210 880.571, 963.777 889.964, 960.344 899.356, 956.912 908.748, 953.479 918.141, 950.046 927.533, 946.614 936.925, 943.181 946.318, 939.748 955.710, 936.316 965.102, 932.883 974.495, 929.450 983.887, 926.017 993.280, 922.585 1002.672, 919.152 1012.064, 915.719 1022.052, 912.069 1031.445, 908.636 1035.197, 907.265 " fill="none" stroke="rgb(0, 119, 0)" stroke-linecap="butt" stroke-linejoin="round" stroke-opacity="1.0" stroke-width="3.0" />
            <path d=" M 1041.959, 1019.803 1045.939, 1028.977 1049.920, 1038.150 1053.901, 1047.324 1057.882, 1056.497 1061.863, 1065.671 1065.843, 1074.844 1069.824, 1084.018 1072.740, 1090.737 " fill="none" stroke="rgb(0, 119, 0)" stroke-linecap="butt" stroke-linejoin="round" stroke-opacity="1.0" stroke-width="3.0" />
            <path d=" M 921.268, 828.638 925.302, 837.789 929.336, 846.939 933.370, 856.089 937.403, 865.240 941.437, 874.390 945.471, 883.540 945.777, 884.235 949.811, 893.385 950.181, 894.225 949.325, 884.262 949.212, 882.954 945.184, 873.802 941.156, 864.649 937.128, 855.496 933.100, 846.343 929.072, 837.190 925.044, 828.037 924.728, 827.319 922.439, 822.119 918.411, 812.966 914.383, 803.813 910.355, 794.660 906.327, 785.507 902.299, 776.355 900.478, 772.217 898.947, 768.739 899.007, 772.791 903.037, 781.942 907.068, 791.094 911.098, 800.246 915.129, 809.398 919.159, 818.550 920.977, 822.677 921.268, 828.638 " fill="none" stroke="rgb(0, 119, 0)" stroke-linecap="butt" stroke-linejoin="round" stroke-opacity="1.0" stroke-width="3.0" />
            <path d=" M 921.268, 828.638 924.728, 827.319 934.072, 823.757 943.416, 820.195 952.760, 816.633 962.082, 813.079 " fill="none" stroke="rgb(0, 119, 0)" stroke-linecap="butt" stroke-linejoin="round" stroke-opacity="1.0" stroke-width="3.0" />
            <path d=" M 669.268, 987.304 666.561, 996.931 663.854, 1006.558 661.147, 1016.184 659.515, 1021.988 656.808, 1031.614 654.101, 1041.241 651.394, 1050.868 648.687, 1060.494 645.980, 1070.121 643.463, 1079.073 640.756, 1088.700 638.903, 1095.289 648.313, 1091.905 657.723, 1088.521 667.133, 1085.137 669.954, 1084.123 672.376, 1074.420 673.968, 1068.043 676.390, 1058.340 678.812, 1048.638 681.234, 1038.936 683.656, 1029.233 686.078, 1019.531 688.094, 1011.455 690.515, 1001.753 692.937, 992.051 693.578, 989.485 702.953, 986.005 712.327, 982.524 721.702, 979.044 731.077, 975.564 740.452, 972.084 749.827, 968.603 759.202, 965.123 768.577, 961.643 777.951, 958.163 787.326, 954.682 796.701, 951.202 806.076, 947.722 815.451, 944.242 824.826, 940.761 834.200, 937.281 843.575, 933.801 852.950, 930.320 862.325, 926.840 871.700, 923.360 881.075, 919.880 890.450, 916.399 899.824, 912.919 909.199, 909.439 918.574, 905.959 927.949, 902.478 937.324, 898.998 946.699, 895.518 950.181, 894.225 " fill="none" stroke="rgb(0, 119, 0)" stroke-linecap="butt" stroke-linejoin="round" stroke-opacity="1.0" stroke-width="3.0" />
            <path d=" M 940.159, 762.349 941.750, 761.731 951.070, 758.106 960.390, 754.481 968.709, 751.245 " fill="none" stroke="rgb(0, 119, 0)" stroke-linecap="butt" stroke-linejoin="round" stroke-opacity="1.0" stroke-width="3.0" />
            <path d=" M 940.159, 762.349 944.126, 771.529 948.093, 780.708 952.060, 789.888 956.027, 799.067 959.818, 807.839 962.082, 813.079 961.400, 807.235 957.435, 798.054 953.471, 788.873 949.507, 779.693 945.542, 770.512 941.750, 761.731 939.682, 756.940 940.159, 762.349 " fill="none" stroke="rgb(0, 119, 0)" stroke-linecap="butt" stroke-linejoin="round" stroke-opacity="1.0" stroke-width="3.0" />
            <path d=" M 982.371, 713.175 981.127, 713.664 971.820, 717.323 970.255, 717.938 960.949, 721.598 951.642, 725.257 942.336, 728.917 933.030, 732.576 923.723, 736.235 914.417, 739.895 905.110, 743.554 895.804, 747.213 886.498, 750.873 877.191, 754.532 867.885, 758.192 858.578, 761.851 854.918, 763.290 848.360, 765.869 " fill="none" stroke="rgb(0, 119, 0)" stroke-linecap="butt" stroke-linejoin="round" stroke-opacity="1.0" stroke-width="3.0" />
            <path d=" M 827.907, 720.316 832.003, 729.438 836.099, 738.561 840.195, 747.684 844.291, 756.806 848.360, 765.869 847.616, 775.841 846.872, 785.814 846.622, 789.157 850.735, 798.272 854.848, 807.387 856.669, 811.424 860.782, 820.539 864.895, 829.654 869.007, 838.769 872.378, 846.239 872.659, 836.243 872.940, 826.247 873.222, 816.251 873.503, 806.255 873.541, 804.898 869.456, 795.771 865.370, 786.643 863.540, 782.555 859.455, 773.427 855.370, 764.300 854.918, 763.290 850.832, 754.163 846.747, 745.036 842.661, 735.908 838.576, 726.781 834.501, 717.676 830.377, 708.463 826.291, 699.335 822.206, 690.208 818.120, 681.080 814.035, 671.953 809.950, 662.826 805.864, 653.698 801.779, 644.571 797.693, 635.443 793.608, 626.316 789.522, 617.189 785.437, 608.061 781.352, 598.934 777.266, 589.806 773.181, 580.679 769.095, 571.552 765.010, 562.424 760.924, 553.297 756.839, 544.169 752.754, 535.042 749.461, 527.685 740.275, 531.638 731.090, 535.591 721.904, 539.544 712.718, 543.497 703.533, 547.450 694.347, 551.402 685.162, 555.355 675.976, 559.308 666.791, 563.261 657.605, 567.214 648.419, 571.167 639.234, 575.120 630.048, 579.073 620.863, 583.026 611.677, 586.979 602.492, 590.932 593.306, 594.885 584.121, 598.837 574.935, 602.790 565.750, 606.743 556.564, 610.696 547.378, 614.649 538.193, 618.602 529.007, 622.555 519.822, 626.508 511.271, 630.187 502.086, 634.140 494.513, 637.399 486.919, 640.667 477.734, 644.620 472.715, 646.780 469.617, 648.113 462.768, 655.398 455.918, 662.684 449.068, 669.970 442.219, 677.256 441.360, 678.169 450.554, 674.236 459.748, 670.302 468.941, 666.369 477.098, 662.879 480.190, 661.556 486.838, 654.085 491.201, 649.182 498.788, 645.928 505.391, 638.419 511.762, 631.173 520.948, 627.221 530.134, 623.270 539.320, 619.318 548.506, 615.367 557.692, 611.415 566.878, 607.463 576.065, 603.512 585.251, 599.560 594.437, 595.608 603.623, 591.657 612.809, 587.705 621.995, 583.753 631.181, 579.802 640.367, 575.850 649.553, 571.898 658.740, 567.947 667.926, 563.995 677.112, 560.044 686.298, 556.092 695.484, 552.140 704.670, 548.189 713.856, 544.237 723.042, 540.285 732.228, 536.334 741.414, 532.382 748.807, 529.202 752.894, 538.329 756.981, 547.456 761.068, 556.582 765.155, 565.709 769.242, 574.835 773.330, 583.962 777.417, 593.089 781.504, 602.215 785.591, 611.342 789.678, 620.468 793.765, 629.595 797.853, 638.722 801.940, 647.848 806.027, 656.975 810.114, 666.101 814.201, 675.228 818.288, 684.355 822.376, 693.481 826.463, 702.608 829.282, 708.902 828.086, 718.831 827.907, 720.316 " fill="none" stroke="rgb(0, 119, 0)" stroke-linecap="butt" stroke-linejoin="round" stroke-opacity="1.0" stroke-width="3.0" />
            <path d=" M 827.907, 720.316 834.501, 717.676 843.784, 713.959 853.068, 710.243 862.352, 706.526 871.007, 703.062 " fill="none" stroke="rgb(0, 119, 0)" stroke-linecap="butt" stroke-linejoin="round" stroke-opacity="1.0" stroke-width="3.0" />
            <path d=" M 323.808, 662.337 328.516, 671.159 333.224, 679.982 337.933, 688.804 338.359, 689.604 343.067, 698.426 346.244, 704.379 348.405, 708.428 " fill="none" stroke="rgb(0, 119, 0)" stroke-linecap="butt" stroke-linejoin="round" stroke-opacity="1.0" stroke-width="3.0" />
            <path d=" M 423.510, 1118.240 418.975, 1127.152 414.440, 1136.065 409.905, 1144.977 405.370, 1153.890 400.835, 1162.803 396.300, 1171.715 392.256, 1179.663 390.597, 1182.922 " fill="none" stroke="rgb(0, 119, 0)" stroke-linecap="butt" stroke-linejoin="round" stroke-opacity="1.0" stroke-width="3.0" />
            <path d=" M 287.265, 739.187 278.333, 743.015 " fill="none" stroke="rgb(0, 119, 0)" stroke-linecap="butt" stroke-linejoin="round" stroke-opacity="1.0" stroke-width="3.0" />
            <path d=" M 844.951, 390.262 842.616, 399.985 840.850, 407.336 " fill="none" stroke="rgb(0, 119, 0)" stroke-linecap="butt" stroke-linejoin="round" stroke-opacity="1.0" stroke-width="3.0" />
            <path d=" M 707.544, 341.994 711.576, 351.145 715.215, 359.403 719.248, 368.554 723.281, 377.704 727.314, 386.855 731.346, 396.006 735.379, 405.157 737.133, 409.138 738.537, 412.322 739.006, 413.388 741.144, 418.239 743.106, 422.690 745.170, 427.373 749.202, 436.524 752.471, 443.940 755.776, 442.481 760.924, 440.209 770.072, 436.171 779.221, 432.133 788.369, 428.095 797.518, 424.057 806.666, 420.019 815.814, 415.981 824.963, 411.943 834.111, 407.905 839.993, 405.309 840.850, 407.336 850.000, 403.301 850.372, 403.136 859.522, 399.101 862.743, 397.680 864.722, 396.807 873.871, 392.771 883.021, 388.736 888.773, 386.199 " fill="none" stroke="rgb(0, 119, 0)" stroke-linecap="butt" stroke-linejoin="round" stroke-opacity="1.0" stroke-width="3.0" />
            <path d=" M 1058.774, 728.422 1057.910, 728.757 1048.585, 732.369 1039.260, 735.981 1029.936, 739.594 1020.611, 743.206 1011.286, 746.818 1001.961, 750.430 992.636, 754.043 989.880, 755.111 985.019, 756.994 " fill="none" stroke="rgb(0, 119, 0)" stroke-linecap="butt" stroke-linejoin="round" stroke-opacity="1.0" stroke-width="3.0" />
            <path d=" M 971.273, 724.550 980.583, 720.898 983.545, 719.735 983.664, 719.689 " fill="none" stroke="rgb(0, 119, 0)" stroke-linecap="butt" stroke-linejoin="round" stroke-opacity="1.0" stroke-width="3.0" />
            <path d=" M 923.454, 399.574 927.236, 408.831 931.017, 418.089 934.798, 427.346 938.579, 436.604 942.361, 445.861 946.142, 455.119 947.015, 457.256 950.796, 466.513 954.577, 475.771 958.359, 485.028 962.140, 494.286 965.921, 503.544 969.702, 512.801 973.484, 522.059 977.265, 531.316 981.046, 540.574 984.827, 549.831 988.609, 559.089 992.390, 568.346 996.171, 577.604 999.952, 586.861 1003.734, 596.119 1007.515, 605.377 1011.296, 614.634 1015.077, 623.892 1018.859, 633.149 1022.640, 642.407 1026.421, 651.664 1030.203, 660.922 1033.984, 670.179 1037.765, 679.437 1041.546, 688.694 1045.328, 697.952 1049.109, 707.209 1052.890, 716.467 1056.671, 725.725 1057.910, 728.757 1061.691, 738.014 1062.320, 739.553 1059.284, 730.025 1058.774, 728.422 1054.994, 719.164 1051.214, 709.906 1047.434, 700.648 1043.654, 691.390 1039.874, 682.132 1036.095, 672.874 1032.315, 663.615 1028.535, 654.357 1024.755, 645.099 1020.975, 635.841 1017.195, 626.583 1013.416, 617.325 1009.636, 608.067 1005.856, 598.809 1002.076, 589.550 998.296, 580.292 994.516, 571.034 990.737, 561.776 986.957, 552.518 983.177, 543.260 979.397, 534.002 975.617, 524.744 971.837, 515.485 968.057, 506.227 964.278, 496.969 960.498, 487.711 956.718, 478.453 952.938, 469.195 949.158, 459.937 947.908, 456.873 944.128, 447.615 940.348, 438.357 936.568, 429.099 932.788, 419.841 929.008, 410.583 925.229, 401.325 924.353, 399.181 " fill="none" stroke="rgb(0, 119, 0)" stroke-linecap="butt" stroke-linejoin="round" stroke-opacity="1.0" stroke-width="3.0" />
            <path d=" M 961.400, 807.235 959.818, 807.839 950.476, 811.408 941.135, 814.977 931.793, 818.545 922.439, 822.119 920.977, 822.677 " fill="none" stroke="rgb(0, 119, 0)" stroke-linecap="butt" stroke-linejoin="round" stroke-opacity="1.0" stroke-width="3.0" />
            <path d=" M 899.007, 772.791 900.478, 772.217 909.795, 768.586 919.113, 764.956 928.430, 761.325 937.748, 757.694 939.682, 756.940 " fill="none" stroke="rgb(0, 119, 0)" stroke-linecap="butt" stroke-linejoin="round" stroke-opacity="1.0" stroke-width="3.0" />
            <path d=" M 871.438, 691.966 866.924, 693.779 857.644, 697.507 848.365, 701.235 839.086, 704.963 830.377, 708.463 829.282, 708.902 " fill="none" stroke="rgb(0, 119, 0)" stroke-linecap="butt" stroke-linejoin="round" stroke-opacity="1.0" stroke-width="3.0" />
            <path d=" M 511.762, 631.173 511.271, 630.187 506.816, 621.235 502.361, 612.282 497.906, 603.329 493.451, 594.376 488.996, 585.424 484.541, 576.471 480.086, 567.518 475.630, 558.565 471.175, 549.613 466.654, 540.526 464.377, 535.950 463.877, 534.945 462.382, 531.942 " fill="none" stroke="rgb(0, 119, 0)" stroke-linecap="butt" stroke-linejoin="round" stroke-opacity="1.0" stroke-width="3.0" />
            <path d=" M 873.541, 804.898 864.215, 808.505 856.669, 811.424 847.342, 815.031 838.016, 818.638 828.689, 822.245 819.362, 825.853 810.035, 829.460 800.709, 833.067 791.382, 836.674 782.055, 840.281 772.728, 843.889 763.402, 847.496 754.075, 851.103 744.748, 854.710 735.421, 858.317 726.095, 861.925 716.768, 865.532 707.441, 869.139 698.115, 872.746 688.788, 876.354 679.461, 879.961 670.134, 883.568 660.808, 887.175 651.481, 890.782 642.154, 894.390 632.827, 897.997 623.501, 901.604 614.174, 905.211 604.847, 908.818 602.199, 909.843 " fill="none" stroke="rgb(0, 119, 0)" stroke-linecap="butt" stroke-linejoin="round" stroke-opacity="1.0" stroke-width="3.0" />
            <path d=" M 579.499, 965.692 583.264, 956.428 587.030, 947.164 590.795, 937.900 594.560, 928.636 598.326, 919.372 602.199, 909.843 597.680, 900.922 593.161, 892.001 588.642, 883.080 584.123, 874.160 579.604, 865.239 575.085, 856.318 570.567, 847.397 566.048, 838.477 561.529, 829.556 557.010, 820.635 552.491, 811.714 547.972, 802.794 543.453, 793.873 538.934, 784.952 534.416, 776.031 529.897, 767.111 525.378, 758.190 520.859, 749.269 516.340, 740.348 511.821, 731.428 507.302, 722.507 502.783, 713.586 498.265, 704.665 493.746, 695.745 489.227, 686.824 484.708, 677.903 480.189, 668.982 477.098, 662.879 472.579, 653.959 469.617, 648.113 " fill="none" stroke="rgb(0, 119, 0)" stroke-linecap="butt" stroke-linejoin="round" stroke-opacity="1.0" stroke-width="3.0" />
            <path d=" M 475.080, 817.670 469.496, 825.966 469.282, 826.284 466.113, 830.992 470.755, 839.850 475.397, 848.707 480.039, 857.564 484.681, 866.421 489.324, 875.279 493.966, 884.136 498.608, 892.993 503.250, 901.850 507.419, 909.804 512.061, 918.662 512.583, 919.657 515.359, 914.373 520.011, 905.521 520.441, 904.702 515.819, 895.834 511.197, 886.966 506.575, 878.098 501.953, 869.231 497.331, 860.363 492.709, 851.495 488.088, 842.627 483.466, 833.759 479.250, 825.671 475.080, 817.670 " fill="none" stroke="rgb(0, 119, 0)" stroke-linecap="butt" stroke-linejoin="round" stroke-opacity="1.0" stroke-width="3.0" />
            <path d=" M 1090.234, 943.159 1087.638, 933.502 1085.042, 923.844 1082.445, 914.187 1079.849, 904.530 1077.253, 894.873 1075.223, 887.322 1071.373, 878.093 1067.522, 868.864 1063.672, 859.635 1059.822, 850.406 1055.971, 841.177 1052.121, 831.948 1048.353, 822.917 1044.503, 813.688 1040.652, 804.459 1039.660, 802.081 1035.810, 792.852 1032.183, 784.158 1034.540, 793.876 1036.794, 803.167 1036.996, 803.996 1039.353, 813.714 1039.744, 815.324 1042.102, 825.043 1044.459, 834.761 1046.817, 844.479 1049.067, 853.753 1050.178, 858.333 1052.536, 868.051 1053.377, 871.517 1055.734, 881.235 1058.092, 890.953 1058.681, 893.379 1061.038, 903.097 1063.396, 912.815 1065.754, 922.533 1066.612, 926.069 1068.969, 935.787 1071.327, 945.505 1072.315, 949.579 " fill="none" stroke="rgb(0, 119, 0)" stroke-linecap="butt" stroke-linejoin="round" stroke-opacity="1.0" stroke-width="3.0" />
            <path d=" M 1035.426, 865.094 1039.320, 874.305 1043.214, 883.515 1047.109, 892.726 1051.003, 901.936 1054.897, 911.147 1058.792, 920.357 1061.923, 927.764 " fill="none" stroke="rgb(0, 119, 0)" stroke-linecap="butt" stroke-linejoin="round" stroke-opacity="1.0" stroke-width="3.0" />
            <path d=" M 1075.223, 887.322 1066.695, 890.444 1058.681, 893.379 1049.291, 896.817 1039.900, 900.256 1033.248, 902.691 1023.858, 906.130 1021.139, 907.125 " fill="none" stroke="rgb(0, 119, 0)" stroke-linecap="butt" stroke-linejoin="round" stroke-opacity="1.0" stroke-width="3.0" />
            <path d=" M 977.381, 805.065 986.724, 801.501 989.650, 800.385 998.993, 796.820 1008.336, 793.256 1017.679, 789.691 1027.022, 786.127 1032.183, 784.158 " fill="none" stroke="rgb(0, 119, 0)" stroke-linecap="butt" stroke-linejoin="round" stroke-opacity="1.0" stroke-width="3.0" />
            <path d=" M 561.145, 1004.973 557.356, 1014.227 553.567, 1023.482 549.778, 1032.736 545.989, 1041.990 544.331, 1046.041 " fill="none" stroke="rgb(0, 119, 0)" stroke-linecap="butt" stroke-linejoin="round" stroke-opacity="1.0" stroke-width="3.0" />
            <path d=" M 603.296, 989.129 599.874, 998.526 596.452, 1007.922 593.030, 1017.318 589.608, 1026.714 588.544, 1029.634 " fill="none" stroke="rgb(0, 119, 0)" stroke-linecap="butt" stroke-linejoin="round" stroke-opacity="1.0" stroke-width="3.0" />
            <path d=" M 577.746, 1033.641 587.121, 1030.163 588.544, 1029.634 583.927, 1020.765 579.309, 1011.895 575.360, 1004.310 573.322, 1000.396 568.704, 991.526 564.086, 982.656 559.468, 973.786 554.850, 964.916 550.232, 956.046 548.974, 953.631 545.247, 946.473 540.629, 937.603 536.011, 928.733 531.393, 919.863 529.216, 915.680 528.128, 913.591 523.510, 904.721 518.892, 895.851 514.274, 886.981 509.656, 878.111 505.038, 869.242 500.420, 860.372 495.802, 851.502 491.184, 842.632 486.566, 833.762 481.813, 824.633 477.645, 816.627 473.027, 807.758 468.409, 798.888 463.791, 790.018 459.173, 781.148 454.555, 772.278 449.937, 763.408 445.319, 754.538 440.701, 745.669 436.083, 736.799 431.465, 727.929 426.847, 719.059 422.229, 710.189 417.611, 701.319 412.993, 692.449 407.996, 682.852 403.378, 673.982 399.104, 665.772 394.486, 656.902 390.223, 648.714 388.413, 645.239 " fill="none" stroke="rgb(0, 119, 0)" stroke-linecap="butt" stroke-linejoin="round" stroke-opacity="1.0" stroke-width="3.0" />
            <path d=" M 626.445, 1034.175 623.426, 1043.708 620.406, 1053.242 617.386, 1062.775 614.367, 1072.308 611.347, 1081.841 608.183, 1091.830 " fill="none" stroke="rgb(0, 119, 0)" stroke-linecap="butt" stroke-linejoin="round" stroke-opacity="1.0" stroke-width="3.0" />
            <path d=" M 1042.773, 800.902 1039.660, 802.081 1036.794, 803.167 1036.669, 803.214 1039.024, 812.933 1039.411, 814.529 1041.767, 824.248 1044.123, 833.967 1046.478, 843.685 1048.834, 853.404 1048.931, 853.803 1050.041, 858.384 " fill="none" stroke="rgb(0, 119, 0)" stroke-linecap="butt" stroke-linejoin="round" stroke-opacity="1.0" stroke-width="3.0" />
            <path d=" M 949.212, 882.954 945.777, 884.235 936.407, 887.728 927.037, 891.220 917.667, 894.713 908.296, 898.206 898.926, 901.699 889.556, 905.192 880.186, 908.684 870.815, 912.177 861.445, 915.670 852.075, 919.163 842.705, 922.655 833.335, 926.148 823.964, 929.641 814.594, 933.134 805.224, 936.626 795.854, 940.119 786.484, 943.612 777.114, 947.105 767.743, 950.597 758.373, 954.090 749.003, 957.583 739.633, 961.076 730.263, 964.568 720.892, 968.061 711.522, 971.554 702.152, 975.047 692.782, 978.540 683.412, 982.032 674.041, 985.525 669.268, 987.304 664.786, 978.365 660.305, 969.425 655.823, 960.486 651.342, 951.546 646.860, 942.607 642.499, 933.908 " fill="none" stroke="rgb(0, 119, 0)" stroke-linecap="butt" stroke-linejoin="round" stroke-opacity="1.0" stroke-width="3.0" />
            <path d=" M 846.622, 789.157 855.938, 785.521 863.540, 782.555 872.856, 778.920 882.172, 775.284 891.488, 771.649 898.947, 768.739 " fill="none" stroke="rgb(0, 119, 0)" stroke-linecap="butt" stroke-linejoin="round" stroke-opacity="1.0" stroke-width="3.0" />
            <path d=" M 441.360, 678.169 445.933, 687.062 450.507, 695.955 455.080, 704.848 459.654, 713.741 464.227, 722.634 468.800, 731.527 473.374, 740.420 477.947, 749.313 482.521, 758.205 487.094, 767.098 491.668, 775.991 496.241, 784.884 500.814, 793.777 505.388, 802.670 509.961, 811.563 514.535, 820.456 519.108, 829.349 523.682, 838.242 528.255, 847.134 532.829, 856.027 537.402, 864.920 541.975, 873.813 546.549, 882.706 551.122, 891.599 555.696, 900.492 560.269, 909.385 564.843, 918.278 569.416, 927.171 573.711, 935.521 569.753, 944.705 569.259, 945.851 573.845, 954.737 578.431, 963.623 579.499, 965.692 588.846, 962.138 598.193, 958.583 607.540, 955.028 616.887, 951.474 626.234, 947.919 635.581, 944.364 639.462, 942.888 642.499, 933.908 651.843, 930.345 661.186, 926.781 670.530, 923.218 679.873, 919.655 689.217, 916.091 698.561, 912.528 707.904, 908.965 717.248, 905.401 726.591, 901.838 735.935, 898.275 745.279, 894.711 754.622, 891.148 763.966, 887.585 773.309, 884.021 782.653, 880.458 791.996, 876.894 801.340, 873.331 810.684, 869.768 820.027, 866.204 829.371, 862.641 838.714, 859.078 848.058, 855.514 857.401, 851.951 866.745, 848.388 872.378, 846.239 " fill="none" stroke="rgb(0, 119, 0)" stroke-linecap="butt" stroke-linejoin="round" stroke-opacity="1.0" stroke-width="3.0" />
            <path d=" M 1088.931, 759.026 1079.589, 762.595 1070.248, 766.163 1060.906, 769.731 1051.564, 773.299 1042.222, 776.867 1032.881, 780.436 1023.539, 784.004 1014.197, 787.572 1004.855, 791.140 995.514, 794.708 988.390, 797.429 979.048, 800.997 976.914, 801.813 " fill="none" stroke="rgb(0, 119, 0)" stroke-linecap="butt" stroke-linejoin="round" stroke-opacity="1.0" stroke-width="3.0" />
            <path d=" M 986.991, 768.613 991.954, 766.698 1001.284, 763.099 1010.614, 759.500 1019.944, 755.901 1029.274, 752.301 1038.604, 748.702 1047.933, 745.103 1057.263, 741.504 1062.320, 739.553 " fill="none" stroke="rgb(0, 119, 0)" stroke-linecap="butt" stroke-linejoin="round" stroke-opacity="1.0" stroke-width="3.0" />
            <path d=" M 975.373, 798.217 984.713, 794.644 986.854, 793.825 996.173, 790.261 " fill="none" stroke="rgb(0, 119, 0)" stroke-linecap="butt" stroke-linejoin="round" stroke-opacity="1.0" stroke-width="3.0" />
            <path d=" M 439.280, 545.927 442.071, 551.478 446.564, 560.412 451.056, 569.346 455.548, 578.280 460.041, 587.214 464.533, 596.148 469.026, 605.082 473.518, 614.016 478.011, 622.951 482.503, 631.885 486.919, 640.667 491.201, 649.182 " fill="none" stroke="rgb(0, 119, 0)" stroke-linecap="butt" stroke-linejoin="round" stroke-opacity="1.0" stroke-width="3.0" />
            <path d=" M 432.285, 672.427 427.704, 663.538 423.436, 655.258 418.855, 646.369 414.274, 637.480 409.693, 628.591 408.092, 625.485 " fill="none" stroke="rgb(0, 119, 0)" stroke-linecap="butt" stroke-linejoin="round" stroke-opacity="1.0" stroke-width="3.0" />
            <path d=" M 480.190, 661.556 475.676, 652.633 472.715, 646.780 468.201, 637.857 467.395, 636.262 " fill="none" stroke="rgb(0, 119, 0)" stroke-linecap="butt" stroke-linejoin="round" stroke-opacity="1.0" stroke-width="3.0" />
            <path d=" M 493.109, 810.343 483.845, 814.108 477.645, 816.627 475.080, 817.670 " fill="none" stroke="rgb(0, 119, 0)" stroke-linecap="butt" stroke-linejoin="round" stroke-opacity="1.0" stroke-width="3.0" />
            <path d=" M 466.113, 830.992 470.760, 829.110 479.250, 825.671 481.813, 824.633 484.509, 823.541 " fill="none" stroke="rgb(0, 119, 0)" stroke-linecap="butt" stroke-linejoin="round" stroke-opacity="1.0" stroke-width="3.0" />
            <path d=" M 745.619, 405.345 744.508, 406.916 741.676, 410.921 740.358, 412.784 " fill="none" stroke="rgb(0, 119, 0)" stroke-linecap="butt" stroke-linejoin="round" stroke-opacity="1.0" stroke-width="3.0" />
            <path d=" M 762.899, 458.669 763.214, 458.032 " fill="none" stroke="rgb(0, 119, 0)" stroke-linecap="butt" stroke-linejoin="round" stroke-opacity="1.0" stroke-width="3.0" />
            <path d=" M 741.718, 415.871 743.153, 413.794 " fill="none" stroke="rgb(0, 119, 0)" stroke-linecap="butt" stroke-linejoin="round" stroke-opacity="1.0" stroke-width="3.0" />
            <path d=" M 498.788, 645.928 494.513, 637.399 490.032, 628.459 485.551, 619.519 481.070, 610.580 476.590, 601.640 472.109, 592.700 467.628, 583.760 463.147, 574.820 458.666, 565.880 454.186, 556.940 449.736, 548.063 447.451, 543.504 " fill="none" stroke="rgb(0, 119, 0)" stroke-linecap="butt" stroke-linejoin="round" stroke-opacity="1.0" stroke-width="3.0" />
            <path d=" M 749.461, 527.685 748.807, 529.202 " fill="none" stroke="rgb(0, 119, 0)" stroke-linecap="butt" stroke-linejoin="round" stroke-opacity="1.0" stroke-width="3.0" />
            <path d=" M 346.768, 679.519 349.258, 678.440 352.590, 676.996 " fill="none" stroke="rgb(0, 119, 0)" stroke-linecap="butt" stroke-linejoin="round" stroke-opacity="1.0" stroke-width="3.0" />
            <path d=" M 328.919, 632.329 325.573, 633.806 323.071, 634.910 " fill="none" stroke="rgb(0, 119, 0)" stroke-linecap="butt" stroke-linejoin="round" stroke-opacity="1.0" stroke-width="3.0" />
            <path d=" M 857.494, 417.161 857.576, 416.620 " fill="none" stroke="rgb(0, 119, 0)" stroke-linecap="butt" stroke-linejoin="round" stroke-opacity="1.0" stroke-width="3.0" />
            <path d=" M 520.441, 904.702 512.025, 908.000 507.419, 909.804 498.108, 913.453 488.797, 917.101 479.487, 920.749 478.126, 921.283 " fill="none" stroke="rgb(0, 119, 0)" stroke-linecap="butt" stroke-linejoin="round" stroke-opacity="1.0" stroke-width="3.0" />
            <path d=" M 530.797, 912.549 528.128, 913.591 518.812, 917.226 517.184, 917.861 512.583, 919.657 " fill="none" stroke="rgb(0, 119, 0)" stroke-linecap="butt" stroke-linejoin="round" stroke-opacity="1.0" stroke-width="3.0" />
            <path d=" M 257.330, 786.708 266.538, 782.808 271.089, 780.880 " fill="none" stroke="rgb(0, 119, 0)" stroke-linecap="butt" stroke-linejoin="round" stroke-opacity="1.0" stroke-width="3.0" />
            <path d=" M 291.931, 818.457 282.701, 822.305 278.224, 824.172 " fill="none" stroke="rgb(0, 119, 0)" stroke-linecap="butt" stroke-linejoin="round" stroke-opacity="1.0" stroke-width="3.0" />
            <path d=" M 748.118, 415.133 745.487, 419.099 743.106, 422.690 737.841, 430.627 " fill="none" stroke="rgb(0, 119, 0)" stroke-linecap="butt" stroke-linejoin="round" stroke-opacity="1.0" stroke-width="3.0" />
            <path d=" M 692.124, 327.239 693.760, 330.939 697.804, 340.084 700.916, 347.123 704.960, 356.268 707.832, 362.762 711.876, 371.908 715.920, 381.054 719.964, 390.200 724.008, 399.345 728.053, 408.491 729.790, 412.420 731.196, 415.600 731.666, 416.663 733.808, 421.508 737.841, 430.627 745.170, 427.373 747.260, 426.445 749.318, 431.120 750.538, 430.579 755.693, 428.293 763.237, 424.949 759.229, 415.788 759.010, 415.286 757.100, 410.920 756.402, 409.325 755.875, 408.120 754.580, 405.160 750.572, 395.998 746.565, 386.836 742.557, 377.674 738.549, 368.513 734.541, 359.351 731.352, 352.061 727.345, 342.899 723.711, 334.593 " fill="none" stroke="rgb(0, 119, 0)" stroke-linecap="butt" stroke-linejoin="round" stroke-opacity="1.0" stroke-width="3.0" />
            <path d=" M 747.260, 426.445 748.121, 425.086 751.763, 419.341 757.100, 410.920 758.784, 408.263 760.057, 406.255 763.188, 401.317 " fill="none" stroke="rgb(0, 119, 0)" stroke-linecap="butt" stroke-linejoin="round" stroke-opacity="1.0" stroke-width="3.0" />
            <path d=" M 326.749, 699.890 335.489, 696.117 " fill="none" stroke="rgb(0, 119, 0)" stroke-linecap="butt" stroke-linejoin="round" stroke-opacity="1.0" stroke-width="3.0" />
            <path d=" M 752.471, 443.940 754.693, 440.021 758.158, 433.908 763.090, 425.209 763.237, 424.949 " fill="none" stroke="rgb(0, 119, 0)" stroke-linecap="butt" stroke-linejoin="round" stroke-opacity="1.0" stroke-width="3.0" />
            <path d=" M 749.318, 431.120 750.166, 429.734 753.753, 423.874 759.010, 415.286 764.230, 406.757 765.006, 405.490 " fill="none" stroke="rgb(0, 119, 0)" stroke-linecap="butt" stroke-linejoin="round" stroke-opacity="1.0" stroke-width="3.0" />
            <path d=" M 849.613, 366.315 847.218, 376.024 844.823, 385.733 842.427, 395.441 839.993, 405.309 " fill="none" stroke="rgb(0, 119, 0)" stroke-linecap="butt" stroke-linejoin="round" stroke-opacity="1.0" stroke-width="3.0" />
            <path d=" M 391.395, 948.747 400.136, 945.314 " fill="none" stroke="rgb(0, 119, 0)" stroke-linecap="butt" stroke-linejoin="round" stroke-opacity="1.0" stroke-width="3.0" />
            <path d=" M 758.160, 1037.600 753.765, 1028.618 749.370, 1019.635 744.975, 1010.653 740.581, 1001.670 736.186, 992.688 731.791, 983.705 729.311, 978.635 " fill="none" stroke="rgb(0, 119, 0)" stroke-linecap="butt" stroke-linejoin="round" stroke-opacity="1.0" stroke-width="3.0" />
            <path d=" M 1053.677, 843.919 1049.821, 834.692 1045.966, 825.465 1042.111, 816.238 1038.255, 807.011 1036.996, 803.996 1036.669, 803.214 " fill="none" stroke="rgb(0, 119, 0)" stroke-linecap="butt" stroke-linejoin="round" stroke-opacity="1.0" stroke-width="3.0" />
            <path d=" M 1062.941, 927.396 1059.048, 918.185 1055.156, 908.973 1051.263, 899.762 1047.371, 890.551 1043.478, 881.340 1039.585, 872.128 1035.693, 862.917 1034.161, 859.293 " fill="none" stroke="rgb(0, 119, 0)" stroke-linecap="butt" stroke-linejoin="round" stroke-opacity="1.0" stroke-width="3.0" />
        </g>
    </g>
</svg>
