<?xml version='1.0' encoding='ascii'?>
<svg xmlns="http://www.w3.org/2000/svg" xmlns:inkscape="http://www.inkscape.org/namespaces/inkscape" height="1500" version="1.1" width="1500">
    <g id="fressstylelayer_LineSet" inkscape:groupmode="lineset" inkscape:label="fressstylelayer_LineSet">
        <g id="strokes" inkscape:groupmode="layer" inkscape:label="strokes">
            <path d=" M 526.592, 380.560 516.598, 380.209 506.604, 379.858 496.611, 379.507 491.498, 379.327 484.032, 379.064 483.913, 389.064 483.793, 399.063 483.674, 409.062 483.601, 415.189 " fill="none" stroke="rgb(157, 20, 170)" stroke-linecap="butt" stroke-linejoin="round" stroke-opacity="1.0" stroke-width="3.0" />
            <path d=" M 484.032, 379.064 491.458, 382.346 500.605, 386.387 509.752, 390.429 518.898, 394.471 526.265, 397.726 534.880, 401.533 537.035, 402.485 546.182, 406.527 555.328, 410.568 564.475, 414.610 573.622, 418.652 574.634, 419.099 " fill="none" stroke="rgb(157, 20, 170)" stroke-linecap="butt" stroke-linejoin="round" stroke-opacity="1.0" stroke-width="3.0" />
            <path d=" M 573.939, 444.636 574.211, 434.640 574.483, 424.643 574.634, 419.099 584.631, 419.375 594.627, 419.651 604.623, 419.928 614.619, 420.204 624.615, 420.480 634.612, 420.756 644.608, 421.032 654.604, 421.308 664.600, 421.584 674.596, 421.860 684.592, 422.137 694.589, 422.413 704.585, 422.689 714.581, 422.965 724.577, 423.241 734.573, 423.517 744.570, 423.793 754.566, 424.070 764.562, 424.346 774.558, 424.622 784.554, 424.898 794.551, 425.174 804.547, 425.450 814.543, 425.726 824.539, 426.002 834.535, 426.279 844.531, 426.555 854.528, 426.831 864.524, 427.107 874.520, 427.383 884.516, 427.659 894.512, 427.935 904.509, 428.212 914.505, 428.488 924.501, 428.764 934.497, 429.040 944.493, 429.316 954.490, 429.592 964.486, 429.868 974.482, 430.145 984.478, 430.421 994.474, 430.697 1004.470, 430.973 1014.467, 431.249 1023.753, 431.505 1024.521, 431.527 " fill="none" stroke="rgb(157, 20, 170)" stroke-linecap="butt" stroke-linejoin="round" stroke-opacity="1.0" stroke-width="3.0" />
            <path d=" M 1021.617, 459.689 1022.643, 449.742 1023.669, 439.794 1024.521, 431.527 1023.768, 431.356 " fill="none" stroke="rgb(157, 20, 170)" stroke-linecap="butt" stroke-linejoin="round" stroke-opacity="1.0" stroke-width="3.0" />
            <path d=" M 727.723, 423.168 718.228, 420.033 708.732, 416.898 699.236, 413.762 689.740, 410.627 680.245, 407.491 670.332, 404.219 " fill="none" stroke="rgb(157, 20, 170)" stroke-linecap="butt" stroke-linejoin="round" stroke-opacity="1.0" stroke-width="3.0" />
            <path d=" M 671.704, 372.490 671.272, 382.480 670.840, 392.471 670.408, 402.462 670.332, 404.219 660.337, 403.906 650.342, 403.593 640.347, 403.281 630.352, 402.968 620.357, 402.656 610.362, 402.343 600.367, 402.031 590.371, 401.718 580.376, 401.405 579.299, 401.372 " fill="none" stroke="rgb(157, 20, 170)" stroke-linecap="butt" stroke-linejoin="round" stroke-opacity="1.0" stroke-width="3.0" />
            <path d=" M 1023.768, 431.356 1013.772, 431.080 1003.776, 430.803 993.779, 430.527 983.783, 430.250 973.787, 429.974 963.791, 429.697 953.795, 429.421 943.799, 429.144 933.802, 428.868 923.806, 428.591 913.810, 428.315 903.814, 428.038 893.818, 427.762 883.822, 427.485 873.825, 427.209 863.829, 426.933 853.833, 426.656 843.837, 426.380 833.841, 426.103 823.844, 425.827 813.848, 425.550 803.852, 425.274 793.856, 424.997 783.860, 424.721 773.864, 424.444 763.867, 424.168 753.871, 423.891 743.875, 423.615 733.879, 423.339 727.723, 423.168 728.253, 413.182 728.782, 403.196 729.312, 393.210 729.841, 383.224 730.140, 377.598 " fill="none" stroke="rgb(157, 20, 170)" stroke-linecap="butt" stroke-linejoin="round" stroke-opacity="1.0" stroke-width="3.0" />
            <path d=" M 580.203, 369.022 579.923, 379.018 579.644, 389.014 579.365, 399.010 579.299, 401.372 569.997, 397.699 560.696, 394.026 551.395, 390.354 542.094, 386.681 537.403, 384.829 535.240, 383.975 526.592, 380.560 " fill="none" stroke="rgb(157, 20, 170)" stroke-linecap="butt" stroke-linejoin="round" stroke-opacity="1.0" stroke-width="3.0" />
            <path d=" M 1061.164, 1210.620 1068.181, 1209.576 1078.072, 1208.104 1084.851, 1207.095 1086.144, 1197.178 1087.436, 1187.262 1088.728, 1177.346 1090.020, 1167.430 1091.312, 1157.514 1092.604, 1147.598 1093.896, 1137.681 1095.188, 1127.765 1096.480, 1117.849 1097.772, 1107.933 1099.064, 1098.017 1100.356, 1088.101 1101.648, 1078.184 1102.941, 1068.268 1104.233, 1058.352 1105.525, 1048.436 1106.817, 1038.520 1108.109, 1028.603 1109.401, 1018.687 1110.693, 1008.771 1111.985, 998.855 1113.277, 988.939 1114.569, 979.023 1115.861, 969.106 1117.153, 959.190 1118.445, 949.274 1119.738, 939.358 1121.030, 929.442 1122.322, 919.526 1123.614, 909.609 1124.906, 899.693 1126.198, 889.777 1127.490, 879.861 1128.782, 869.945 1130.074, 860.029 1131.366, 850.112 1132.658, 840.196 1133.950, 830.280 1135.243, 820.364 1136.809, 808.338 1128.181, 803.283 1121.663, 799.465 1113.035, 794.410 1104.406, 789.356 1095.778, 784.301 1087.150, 779.246 1084.281, 777.566 " fill="none" stroke="rgb(157, 20, 170)" stroke-linecap="butt" stroke-linejoin="round" stroke-opacity="1.0" stroke-width="3.0" />
            <path d=" M 1136.809, 808.338 1126.827, 808.923 1120.411, 809.299 1110.428, 809.884 1100.445, 810.469 1090.462, 811.054 1080.184, 811.657 " fill="none" stroke="rgb(157, 20, 170)" stroke-linecap="butt" stroke-linejoin="round" stroke-opacity="1.0" stroke-width="3.0" />
            <path d=" M 538.275, 343.019 536.082, 342.925 526.091, 342.497 516.100, 342.069 506.109, 341.641 496.118, 341.213 492.002, 341.037 491.871, 351.036 491.739, 361.035 491.607, 371.034 491.498, 379.327 " fill="none" stroke="rgb(157, 20, 170)" stroke-linecap="butt" stroke-linejoin="round" stroke-opacity="1.0" stroke-width="3.0" />
            <path d=" M 492.002, 341.037 501.534, 344.061 511.066, 347.085 520.597, 350.110 530.129, 353.134 535.835, 354.945 538.012, 355.635 547.544, 358.660 557.076, 361.684 566.607, 364.708 576.139, 367.733 580.203, 369.022 590.195, 369.401 600.188, 369.779 610.181, 370.158 620.174, 370.537 630.167, 370.916 640.160, 371.294 650.152, 371.673 660.145, 372.052 670.138, 372.430 671.704, 372.490 666.666, 371.142 " fill="none" stroke="rgb(157, 20, 170)" stroke-linecap="butt" stroke-linejoin="round" stroke-opacity="1.0" stroke-width="3.0" />
            <path d=" M 632.800, 369.850 623.180, 367.120 613.560, 364.389 603.940, 361.659 594.320, 358.928 584.700, 356.197 575.080, 353.467 565.460, 350.736 555.840, 348.005 546.220, 345.275 538.275, 343.019 " fill="none" stroke="rgb(157, 20, 170)" stroke-linecap="butt" stroke-linejoin="round" stroke-opacity="1.0" stroke-width="3.0" />
            <path d=" M 667.058, 361.886 666.666, 371.142 656.673, 370.761 646.681, 370.380 636.688, 369.999 632.800, 369.850 633.167, 359.857 633.349, 354.905 " fill="none" stroke="rgb(157, 20, 170)" stroke-linecap="butt" stroke-linejoin="round" stroke-opacity="1.0" stroke-width="3.0" />
            <path d=" M 443.633, 446.085 451.674, 452.031 459.714, 457.977 467.754, 463.923 468.705, 464.626 " fill="none" stroke="rgb(157, 20, 170)" stroke-linecap="butt" stroke-linejoin="round" stroke-opacity="1.0" stroke-width="3.0" />
            <path d=" M 468.877, 446.629 458.879, 446.413 448.881, 446.198 443.633, 446.085 443.581, 456.085 443.528, 466.085 443.476, 476.085 443.424, 486.085 443.371, 496.084 443.319, 506.084 443.266, 516.084 443.214, 526.084 443.161, 536.084 443.109, 546.084 443.057, 556.084 443.004, 566.083 442.952, 576.083 442.899, 586.083 442.847, 596.083 442.794, 606.083 442.775, 609.877 " fill="none" stroke="rgb(157, 20, 170)" stroke-linecap="butt" stroke-linejoin="round" stroke-opacity="1.0" stroke-width="3.0" />
            <path d=" M 1121.663, 799.465 1122.927, 789.545 1124.190, 779.625 1125.454, 769.706 1126.717, 759.786 1127.981, 749.866 1129.244, 739.946 1130.508, 730.026 1131.771, 720.106 1133.035, 710.186 1134.298, 700.267 1135.562, 690.347 1136.825, 680.427 1138.089, 670.507 1139.352, 660.587 1140.616, 650.667 1141.879, 640.747 1143.143, 630.828 1144.406, 620.908 1145.670, 610.988 1146.933, 601.068 1148.197, 591.148 1149.460, 581.228 1150.724, 571.308 1151.987, 561.389 1153.251, 551.469 1154.514, 541.549 1155.778, 531.629 1157.042, 521.709 1158.305, 511.789 1159.568, 501.869 1160.832, 491.950 1162.095, 482.030 1163.359, 472.110 1164.622, 462.190 1165.886, 452.270 1167.150, 442.350 1168.413, 432.430 1169.677, 422.511 1170.940, 412.591 1172.203, 402.671 1173.293, 394.120 1163.413, 392.573 1153.533, 391.026 1143.654, 389.479 1133.774, 387.932 1123.895, 386.385 1114.015, 384.838 1104.135, 383.291 1094.256, 381.744 1084.376, 380.197 1074.497, 378.650 1064.617, 377.103 1054.737, 375.556 1046.100, 374.203 " fill="none" stroke="rgb(157, 20, 170)" stroke-linecap="butt" stroke-linejoin="round" stroke-opacity="1.0" stroke-width="3.0" />
            <path d=" M 1173.293, 394.120 1163.300, 393.748 1153.307, 393.375 1143.313, 393.002 1133.320, 392.630 1123.327, 392.257 1113.334, 391.885 1103.341, 391.512 1093.348, 391.140 1083.355, 390.767 1073.362, 390.394 1063.369, 390.022 1053.376, 389.649 1043.383, 389.277 1033.390, 388.904 1023.397, 388.531 1013.404, 388.159 1003.411, 387.786 993.418, 387.414 983.425, 387.041 973.432, 386.669 963.438, 386.296 953.445, 385.923 943.452, 385.551 933.459, 385.178 923.466, 384.806 913.473, 384.433 903.480, 384.061 893.487, 383.688 883.494, 383.315 873.501, 382.943 863.508, 382.570 853.515, 382.198 843.522, 381.825 833.529, 381.452 823.536, 381.080 813.543, 380.707 803.550, 380.335 793.557, 379.962 783.563, 379.589 773.570, 379.217 763.577, 378.844 753.584, 378.472 743.591, 378.099 730.140, 377.598 720.436, 375.181 710.733, 372.764 701.029, 370.347 691.326, 367.930 681.622, 365.513 671.919, 363.096 667.058, 361.886 677.050, 362.286 687.042, 362.687 697.034, 363.087 707.026, 363.487 717.018, 363.887 727.010, 364.288 737.002, 364.688 746.994, 365.089 756.986, 365.489 766.978, 365.889 776.970, 366.289 786.962, 366.690 796.954, 367.090 806.946, 367.490 816.938, 367.891 826.930, 368.291 836.922, 368.692 846.914, 369.092 856.906, 369.492 866.898, 369.892 876.890, 370.293 886.882, 370.693 896.874, 371.094 906.866, 371.494 916.858, 371.894 926.850, 372.294 936.842, 372.695 946.834, 373.095 956.826, 373.495 966.818, 373.896 976.810, 374.296 986.802, 374.696 996.794, 375.097 1006.786, 375.497 1016.778, 375.897 1026.770, 376.298 1036.762, 376.698 1045.798, 377.060 1046.100, 374.203 1046.340, 371.932 1036.457, 370.410 1026.573, 368.888 1016.690, 367.366 1006.806, 365.845 996.922, 364.323 987.039, 362.801 977.156, 361.279 967.272, 359.757 957.388, 358.235 947.505, 356.713 937.621, 355.191 927.738, 353.669 917.854, 352.147 907.971, 350.625 898.087, 349.103 888.204, 347.581 877.498, 345.933 867.508, 345.479 857.518, 345.026 847.529, 344.573 837.539, 344.120 827.549, 343.666 817.559, 343.213 807.570, 342.760 797.580, 342.307 787.590, 341.853 777.601, 341.400 767.611, 340.947 757.621, 340.494 747.631, 340.040 737.642, 339.587 727.652, 339.134 717.662, 338.680 707.672, 338.227 697.683, 337.774 687.693, 337.321 677.703, 336.867 667.714, 336.414 657.724, 335.961 647.734, 335.507 637.744, 335.054 627.755, 334.601 617.765, 334.148 607.775, 333.694 597.786, 333.241 587.796, 332.788 577.806, 332.334 567.816, 331.881 557.827, 331.428 547.837, 330.975 536.337, 330.453 536.132, 340.451 536.082, 342.925 " fill="none" stroke="rgb(157, 20, 170)" stroke-linecap="butt" stroke-linejoin="round" stroke-opacity="1.0" stroke-width="3.0" />
            <path d=" M 258.231, 618.855 260.747, 628.534 263.263, 638.212 265.779, 647.890 268.296, 657.568 270.812, 667.247 273.328, 676.925 275.845, 686.603 278.361, 696.281 280.877, 705.960 283.393, 715.638 285.910, 725.316 288.258, 734.349 " fill="none" stroke="rgb(157, 20, 170)" stroke-linecap="butt" stroke-linejoin="round" stroke-opacity="1.0" stroke-width="3.0" />
            <path d=" M 298.880, 1215.462 298.659, 1205.464 298.438, 1195.466 298.218, 1185.469 297.997, 1175.471 297.776, 1165.474 297.555, 1155.476 297.335, 1145.479 297.114, 1135.481 296.893, 1125.483 296.673, 1115.486 296.452, 1105.488 296.231, 1095.491 296.010, 1085.493 295.790, 1075.496 295.569, 1065.498 295.348, 1055.501 295.128, 1045.503 294.907, 1035.505 294.686, 1025.508 294.465, 1015.510 294.245, 1005.513 294.024, 995.515 293.803, 985.518 293.583, 975.520 293.362, 965.522 293.141, 955.525 292.920, 945.527 292.700, 935.530 292.479, 925.532 292.258, 915.535 292.038, 905.537 291.817, 895.539 291.596, 885.542 291.375, 875.544 291.155, 865.547 290.934, 855.549 290.713, 845.552 290.493, 835.554 290.272, 825.557 290.051, 815.559 289.830, 805.561 289.610, 795.564 289.389, 785.566 289.168, 775.569 288.948, 765.571 288.727, 755.574 288.506, 745.576 288.258, 734.349 298.252, 734.002 304.833, 733.773 313.820, 733.461 323.814, 733.114 333.807, 732.767 343.801, 732.420 353.795, 732.073 363.789, 731.726 373.783, 731.378 383.777, 731.031 393.771, 730.684 403.765, 730.337 413.759, 729.990 423.753, 729.643 433.747, 729.296 442.150, 729.004 443.771, 728.948 453.764, 728.601 463.758, 728.253 473.752, 727.906 483.746, 727.559 493.740, 727.212 500.281, 726.985 503.907, 726.859 " fill="none" stroke="rgb(157, 20, 170)" stroke-linecap="butt" stroke-linejoin="round" stroke-opacity="1.0" stroke-width="3.0" />
            <path d=" M 503.592, 746.296 503.754, 736.298 503.907, 726.859 500.361, 721.812 494.613, 713.630 488.864, 705.448 483.115, 697.265 477.366, 689.083 471.617, 680.900 466.716, 673.924 466.771, 668.055 466.866, 658.055 466.961, 648.093 467.056, 638.093 467.151, 628.094 467.155, 627.746 467.215, 621.411 467.310, 611.412 467.327, 609.606 467.422, 599.606 467.517, 589.607 467.612, 579.607 467.707, 569.608 467.802, 559.608 467.898, 549.608 467.993, 539.609 468.088, 529.609 468.183, 519.610 468.278, 509.610 468.373, 499.611 468.468, 489.611 468.563, 479.612 468.658, 469.612 468.705, 464.626 468.801, 454.627 468.877, 446.629 468.972, 436.629 469.067, 426.630 469.162, 416.630 469.179, 414.787 479.175, 415.066 483.601, 415.189 491.022, 415.396 501.018, 415.675 511.015, 415.954 517.392, 416.132 " fill="none" stroke="rgb(157, 20, 170)" stroke-linecap="butt" stroke-linejoin="round" stroke-opacity="1.0" stroke-width="3.0" />
            <path d=" M 438.414, 616.625 428.415, 616.749 418.416, 616.873 408.417, 616.997 398.418, 617.120 388.418, 617.244 378.419, 617.368 368.420, 617.492 358.421, 617.615 348.421, 617.739 338.422, 617.863 328.423, 617.987 318.424, 618.110 308.424, 618.234 298.425, 618.358 288.426, 618.482 278.427, 618.605 268.427, 618.729 258.231, 618.855 258.499, 628.852 258.768, 638.848 259.036, 648.845 259.305, 658.841 259.573, 668.837 259.842, 678.834 260.110, 688.830 260.379, 698.827 260.647, 708.823 260.915, 718.819 261.184, 728.816 261.452, 738.812 261.721, 748.809 261.989, 758.805 262.258, 768.801 262.526, 778.798 262.795, 788.794 263.063, 798.790 263.332, 808.787 263.600, 818.783 263.869, 828.780 264.137, 838.776 264.406, 848.772 264.674, 858.769 264.943, 868.765 265.211, 878.762 265.480, 888.758 265.748, 898.754 266.017, 908.751 266.285, 918.747 266.554, 928.744 266.822, 938.740 267.091, 948.736 267.359, 958.733 267.628, 968.729 267.896, 978.726 268.164, 988.722 268.433, 998.718 268.570, 1003.837 269.988, 1013.736 271.406, 1023.635 272.824, 1033.534 274.241, 1043.433 275.659, 1053.332 277.077, 1063.231 278.495, 1073.130 279.912, 1083.029 281.330, 1092.928 282.748, 1102.827 284.166, 1112.726 285.583, 1122.625 287.001, 1132.524 288.419, 1142.423 289.837, 1152.322 291.254, 1162.221 292.672, 1172.120 294.090, 1182.019 295.508, 1191.918 296.926, 1201.817 298.343, 1211.716 298.880, 1215.462 308.799, 1214.194 318.718, 1212.926 328.638, 1211.658 338.557, 1210.390 348.476, 1209.122 358.395, 1207.854 368.315, 1206.586 378.234, 1205.318 388.153, 1204.050 398.073, 1202.782 407.992, 1201.514 417.911, 1200.246 427.830, 1198.978 437.750, 1197.710 447.669, 1196.442 457.588, 1195.174 467.508, 1193.906 469.452, 1193.657 470.372, 1193.540 " fill="none" stroke="rgb(157, 20, 170)" stroke-linecap="butt" stroke-linejoin="round" stroke-opacity="1.0" stroke-width="3.0" />
            <path d=" M 438.445, 609.925 442.744, 615.680 443.405, 616.564 449.390, 624.575 451.926, 627.969 457.911, 635.980 462.913, 642.674 466.961, 648.093 " fill="none" stroke="rgb(157, 20, 170)" stroke-linecap="butt" stroke-linejoin="round" stroke-opacity="1.0" stroke-width="3.0" />
            <path d=" M 536.337, 330.453 546.034, 332.897 555.731, 335.341 565.428, 337.785 575.124, 340.229 584.821, 342.673 594.518, 345.117 604.214, 347.562 613.911, 350.006 623.608, 352.450 633.349, 354.905 643.340, 355.317 653.332, 355.729 663.323, 356.141 673.315, 356.553 683.306, 356.965 693.298, 357.377 703.289, 357.789 713.281, 358.200 723.272, 358.612 733.264, 359.024 743.255, 359.436 753.247, 359.848 763.239, 360.260 773.230, 360.672 783.221, 361.084 793.213, 361.496 803.205, 361.908 813.196, 362.320 823.188, 362.732 833.179, 363.144 843.171, 363.556 853.162, 363.968 863.154, 364.380 873.145, 364.792 883.137, 365.203 893.128, 365.615 903.120, 366.027 913.111, 366.439 923.103, 366.851 933.094, 367.263 943.086, 367.675 953.077, 368.087 963.069, 368.499 973.060, 368.911 983.052, 369.323 993.043, 369.735 1002.384, 370.120 1012.375, 370.532 1022.367, 370.944 1026.326, 371.107 1036.317, 371.519 1046.340, 371.932 " fill="none" stroke="rgb(157, 20, 170)" stroke-linecap="butt" stroke-linejoin="round" stroke-opacity="1.0" stroke-width="3.0" />
            <path d=" M 1053.114, 1274.619 1060.056, 1273.487 1061.317, 1263.567 1062.578, 1253.647 1063.839, 1243.727 1065.101, 1233.807 1066.362, 1223.887 1067.623, 1213.966 1068.181, 1209.576 " fill="none" stroke="rgb(157, 20, 170)" stroke-linecap="butt" stroke-linejoin="round" stroke-opacity="1.0" stroke-width="3.0" />
            <path d=" M 469.179, 414.787 477.837, 419.791 483.507, 423.068 490.865, 427.321 499.523, 432.325 508.181, 437.329 516.930, 442.385 525.322, 447.236 526.416, 447.868 532.586, 451.434 541.244, 456.438 549.902, 461.442 558.560, 466.446 567.218, 471.450 575.920, 476.480 " fill="none" stroke="rgb(157, 20, 170)" stroke-linecap="butt" stroke-linejoin="round" stroke-opacity="1.0" stroke-width="3.0" />
            <path d=" M 560.188, 1043.828 560.465, 1033.832 560.742, 1023.836 561.020, 1013.840 561.297, 1003.843 561.574, 993.847 561.775, 986.607 562.052, 976.611 562.329, 966.615 562.606, 956.618 562.884, 946.622 563.161, 936.626 563.438, 926.630 563.715, 916.634 563.992, 906.638 564.270, 896.641 564.547, 886.645 564.824, 876.649 565.101, 866.653 565.378, 856.657 565.655, 846.661 565.933, 836.664 566.210, 826.668 566.487, 816.672 566.764, 806.676 567.041, 796.680 567.319, 786.684 567.596, 776.688 567.873, 766.691 568.150, 756.695 568.427, 746.699 568.705, 736.703 568.982, 726.707 569.259, 716.711 569.536, 706.714 569.813, 696.718 570.091, 686.722 570.368, 676.726 570.645, 666.730 570.922, 656.734 571.199, 646.738 571.476, 636.741 571.754, 626.745 572.031, 616.749 572.308, 606.753 572.585, 596.757 572.862, 586.761 573.140, 576.764 573.417, 566.768 573.694, 556.772 573.971, 546.776 574.248, 536.780 574.526, 526.784 574.803, 516.787 575.080, 506.791 575.357, 496.795 575.750, 482.637 575.905, 477.030 575.920, 476.480 585.919, 476.639 595.918, 476.798 605.917, 476.957 615.915, 477.117 625.914, 477.276 635.913, 477.435 645.912, 477.594 655.910, 477.753 665.909, 477.912 675.908, 478.071 685.906, 478.230 695.905, 478.389 705.904, 478.548 715.903, 478.707 725.901, 478.866 735.900, 479.025 745.899, 479.184 755.898, 479.343 765.896, 479.502 775.895, 479.661 785.894, 479.821 795.893, 479.980 805.891, 480.139 815.890, 480.298 825.889, 480.457 835.888, 480.616 845.886, 480.775 855.885, 480.934 865.884, 481.093 875.882, 481.252 885.881, 481.411 895.880, 481.570 905.879, 481.729 915.877, 481.888 925.876, 482.047 935.875, 482.206 945.874, 482.365 955.872, 482.525 965.871, 482.684 975.870, 482.843 985.869, 483.002 997.600, 483.188 1007.598, 483.347 1017.597, 483.506 1018.396, 483.519 1019.159, 483.531 1029.158, 483.690 1039.156, 483.849 1049.155, 484.008 1059.154, 484.168 1069.153, 484.327 1079.151, 484.486 1089.150, 484.645 1099.149, 484.804 1109.148, 484.963 1119.427, 485.126 " fill="none" stroke="rgb(157, 20, 170)" stroke-linecap="butt" stroke-linejoin="round" stroke-opacity="1.0" stroke-width="3.0" />
            <path d=" M 504.855, 932.443 509.216, 941.222 513.665, 950.178 513.966, 950.784 515.071, 953.009 517.531, 957.960 521.905, 966.766 526.354, 975.722 530.803, 984.678 535.252, 993.633 539.143, 1001.465 543.592, 1010.420 548.041, 1019.376 552.490, 1028.332 556.939, 1037.288 560.188, 1043.828 570.139, 1042.836 580.089, 1041.844 584.459, 1041.409 594.410, 1040.417 604.361, 1039.425 614.311, 1038.433 624.262, 1037.441 634.213, 1036.449 644.163, 1035.457 654.114, 1034.466 664.065, 1033.474 674.016, 1032.482 678.130, 1032.072 688.028, 1031.085 697.979, 1030.093 707.929, 1029.101 717.880, 1028.109 727.831, 1027.118 737.781, 1026.126 747.732, 1025.134 757.683, 1024.142 767.633, 1023.150 777.584, 1022.158 787.535, 1021.166 797.485, 1020.174 807.436, 1019.182 817.387, 1018.191 827.337, 1017.199 837.288, 1016.207 847.239, 1015.215 857.190, 1014.223 867.140, 1013.231 877.091, 1012.239 887.881, 1011.164 897.831, 1010.172 903.057, 1009.651 912.350, 1008.725 922.300, 1007.733 932.251, 1006.741 942.202, 1005.749 952.153, 1004.757 962.103, 1003.765 972.054, 1002.773 982.005, 1001.782 991.955, 1000.790 1001.906, 999.798 1011.857, 998.806 1021.807, 997.814 1031.758, 996.822 1041.709, 995.830 1046.739, 995.329 1056.689, 994.337 1058.247, 994.182 1059.440, 984.253 1060.634, 974.325 1061.827, 964.396 1063.020, 954.467 1064.213, 944.539 1065.406, 934.610 1066.600, 924.682 1067.793, 914.753 1068.422, 909.516 1068.463, 909.176 1068.761, 906.697 1069.391, 901.454 1070.585, 891.525 1071.340, 885.239 1072.533, 875.311 1073.727, 865.382 1073.965, 863.400 1075.158, 853.471 1076.351, 843.543 1077.025, 837.942 1078.218, 828.013 1078.646, 824.446 1078.907, 822.276 1080.101, 812.347 1080.117, 812.208 1080.184, 811.657 1081.377, 801.728 1082.570, 791.800 1083.763, 781.871 1084.281, 777.566 1085.474, 767.637 1086.667, 757.708 1087.860, 747.780 1089.054, 737.851 1090.247, 727.923 1091.440, 717.994 1092.634, 708.066 1093.827, 698.137 1095.020, 688.209 1096.213, 678.280 1097.406, 668.352 1098.600, 658.423 1099.793, 648.494 1100.986, 638.566 1102.180, 628.637 1103.373, 618.709 1104.566, 608.780 1105.759, 598.852 1106.953, 588.923 1108.146, 578.995 1109.339, 569.066 1110.532, 559.137 1111.726, 549.209 1112.919, 539.280 1114.112, 529.352 1115.305, 519.423 1116.499, 509.495 1117.692, 499.566 1118.885, 489.638 1119.427, 485.126 1109.749, 482.609 1100.071, 480.092 1090.393, 477.575 1080.715, 475.058 1071.037, 472.542 1061.359, 470.025 1051.681, 467.508 1042.003, 464.991 1032.325, 462.474 1022.647, 459.957 1021.617, 459.689 1020.870, 459.495 1011.192, 456.978 1001.514, 454.461 1000.483, 454.193 " fill="none" stroke="rgb(157, 20, 170)" stroke-linecap="butt" stroke-linejoin="round" stroke-opacity="1.0" stroke-width="3.0" />
            <path d=" M 1000.483, 454.193 990.485, 453.969 980.488, 453.745 970.490, 453.521 960.493, 453.297 950.495, 453.073 940.498, 452.849 930.500, 452.625 920.503, 452.401 910.505, 452.177 900.508, 451.953 890.510, 451.729 880.513, 451.505 870.516, 451.281 860.518, 451.057 850.521, 450.833 840.523, 450.609 830.526, 450.385 820.528, 450.161 810.531, 449.937 800.533, 449.713 790.536, 449.489 780.538, 449.265 770.541, 449.041 760.543, 448.817 750.546, 448.593 740.548, 448.369 730.551, 448.145 720.553, 447.921 710.556, 447.697 700.558, 447.473 690.561, 447.249 680.563, 447.025 670.566, 446.801 660.568, 446.577 650.571, 446.353 640.573, 446.129 630.576, 445.905 620.578, 445.681 610.581, 445.457 600.583, 445.233 590.586, 445.009 580.588, 444.785 573.939, 444.636 565.009, 440.135 556.079, 435.633 547.150, 431.132 538.220, 426.631 536.548, 425.788 534.405, 424.708 525.834, 420.387 517.392, 416.132 " fill="none" stroke="rgb(157, 20, 170)" stroke-linecap="butt" stroke-linejoin="round" stroke-opacity="1.0" stroke-width="3.0" />
            <path d=" M 572.290, 1418.464 572.612, 1408.469 572.935, 1398.475 573.258, 1388.480 573.580, 1378.485 573.903, 1368.490 574.225, 1358.495 574.548, 1348.501 574.871, 1338.506 575.193, 1328.511 575.516, 1318.516 575.838, 1308.521 576.161, 1298.527 576.483, 1288.532 576.806, 1278.537 577.129, 1268.542 577.451, 1258.547 577.774, 1248.553 578.096, 1238.558 578.419, 1228.563 578.541, 1224.782 578.759, 1218.023 579.082, 1208.028 579.404, 1198.033 579.727, 1188.039 580.049, 1178.044 580.372, 1168.049 580.695, 1158.054 581.017, 1148.059 581.340, 1138.065 581.662, 1128.070 581.985, 1118.075 582.307, 1108.080 582.630, 1098.085 582.953, 1088.091 583.275, 1078.096 583.598, 1068.101 583.920, 1058.106 584.243, 1048.111 584.459, 1041.409 " fill="none" stroke="rgb(157, 20, 170)" stroke-linecap="butt" stroke-linejoin="round" stroke-opacity="1.0" stroke-width="3.0" />
            <path d=" M 497.439, 1204.432 500.740, 1213.871 504.041, 1223.310 507.342, 1232.750 510.643, 1242.189 513.945, 1251.629 517.246, 1261.068 520.547, 1270.507 523.848, 1279.947 527.149, 1289.386 530.450, 1298.826 533.751, 1308.265 537.052, 1317.704 540.354, 1327.144 543.655, 1336.583 546.956, 1346.023 550.257, 1355.462 553.558, 1364.902 556.859, 1374.341 560.160, 1383.780 563.461, 1393.220 566.763, 1402.659 570.064, 1412.099 572.290, 1418.464 582.138, 1416.727 591.986, 1414.990 601.834, 1413.252 611.682, 1411.515 621.530, 1409.778 631.378, 1408.041 641.225, 1406.303 651.073, 1404.566 660.921, 1402.829 670.769, 1401.092 680.617, 1399.354 690.465, 1397.617 700.313, 1395.880 710.161, 1394.143 720.009, 1392.406 729.857, 1390.668 739.705, 1388.931 749.553, 1387.194 759.401, 1385.457 769.249, 1383.719 779.097, 1381.982 788.945, 1380.245 798.793, 1378.508 808.641, 1376.770 818.488, 1375.033 828.336, 1373.296 838.184, 1371.559 848.032, 1369.821 857.880, 1368.084 867.728, 1366.347 877.576, 1364.610 887.424, 1362.872 897.272, 1361.135 907.120, 1359.398 916.968, 1357.661 926.816, 1355.923 936.664, 1354.186 946.512, 1352.449 956.360, 1350.712 966.208, 1348.974 976.056, 1347.237 985.903, 1345.500 995.751, 1343.763 1005.599, 1342.025 1015.447, 1340.288 1025.295, 1338.551 1035.143, 1336.814 1045.520, 1334.983 1046.768, 1325.061 1048.016, 1315.139 1049.265, 1305.218 1050.513, 1295.296 1051.761, 1285.374 1053.009, 1275.452 1053.114, 1274.619 1054.116, 1266.647 1055.365, 1256.725 1056.613, 1246.804 1057.861, 1236.882 1059.109, 1226.960 1060.357, 1217.038 1061.164, 1210.620 1061.930, 1204.535 1062.874, 1197.034 1064.122, 1187.112 1064.318, 1185.552 1065.566, 1175.630 1066.814, 1165.709 1068.062, 1155.787 1069.310, 1145.865 1070.558, 1135.943 1071.807, 1126.021 1073.055, 1116.100 1074.303, 1106.178 1075.551, 1096.256 1076.799, 1086.334 1078.047, 1076.412 1079.295, 1066.491 1080.543, 1056.569 1081.791, 1046.647 1083.040, 1036.725 1084.288, 1026.803 1085.536, 1016.882 1086.784, 1006.960 1088.032, 997.038 1089.280, 987.116 1090.528, 977.194 1091.776, 967.272 1093.024, 957.351 1094.273, 947.429 1095.521, 937.507 1096.769, 927.585 1098.017, 917.663 1099.265, 907.742 1100.513, 897.820 1101.761, 887.898 1102.389, 882.904 1094.144, 877.246 1085.898, 871.588 1077.653, 865.930 1077.007, 865.487 1073.965, 863.400 " fill="none" stroke="rgb(157, 20, 170)" stroke-linecap="butt" stroke-linejoin="round" stroke-opacity="1.0" stroke-width="3.0" />
            <path d=" M 1102.389, 882.904 1092.418, 883.654 1082.446, 884.404 1074.651, 884.990 1071.340, 885.239 " fill="none" stroke="rgb(157, 20, 170)" stroke-linecap="butt" stroke-linejoin="round" stroke-opacity="1.0" stroke-width="3.0" />
            <path d=" M 504.972, 1179.486 508.417, 1188.874 511.862, 1198.262 512.818, 1200.868 522.734, 1199.575 525.131, 1199.262 525.726, 1199.184 534.506, 1198.040 " fill="none" stroke="rgb(157, 20, 170)" stroke-linecap="butt" stroke-linejoin="round" stroke-opacity="1.0" stroke-width="3.0" />
            <path d=" M 467.327, 609.606 457.328, 609.716 447.328, 609.827 442.775, 609.877 438.445, 609.925 438.414, 616.625 438.370, 626.625 438.363, 628.168 " fill="none" stroke="rgb(157, 20, 170)" stroke-linecap="butt" stroke-linejoin="round" stroke-opacity="1.0" stroke-width="3.0" />
            <path d=" M 475.355, 747.388 485.348, 747.001 495.340, 746.615 499.978, 746.436 503.592, 746.296 507.906, 752.685 " fill="none" stroke="rgb(157, 20, 170)" stroke-linecap="butt" stroke-linejoin="round" stroke-opacity="1.0" stroke-width="3.0" />
            <path d=" M 479.339, 753.827 489.331, 753.428 499.323, 753.029 499.876, 753.006 507.906, 752.685 507.737, 762.684 507.567, 772.683 507.397, 782.681 507.227, 792.680 507.055, 802.846 506.885, 812.845 506.715, 822.843 506.546, 832.842 506.376, 842.841 506.206, 852.839 506.036, 862.838 505.867, 872.836 505.697, 882.835 505.527, 892.833 505.357, 902.832 505.188, 912.831 505.018, 922.829 504.855, 932.443 " fill="none" stroke="rgb(157, 20, 170)" stroke-linecap="butt" stroke-linejoin="round" stroke-opacity="1.0" stroke-width="3.0" />
            <path d=" M 469.452, 1193.657 472.538, 1203.169 473.944, 1207.503 483.860, 1206.206 493.776, 1204.910 497.439, 1204.432 507.355, 1203.135 517.270, 1201.839 525.692, 1200.738 " fill="none" stroke="rgb(157, 20, 170)" stroke-linecap="butt" stroke-linejoin="round" stroke-opacity="1.0" stroke-width="3.0" />
            <path d=" M 470.372, 1193.540 470.484, 1183.540 470.596, 1173.541 470.707, 1163.542 470.819, 1153.542 470.931, 1143.543 471.042, 1133.543 471.068, 1131.216 471.170, 1122.115 471.260, 1114.032 471.306, 1109.964 471.417, 1099.964 471.529, 1089.965 471.641, 1079.965 471.752, 1069.966 471.864, 1059.967 471.976, 1049.967 472.087, 1039.968 472.199, 1029.968 472.311, 1019.969 472.423, 1009.970 472.534, 999.970 472.646, 989.971 472.758, 979.972 472.869, 969.972 472.981, 959.973 473.093, 949.973 473.204, 939.974 473.316, 929.975 473.428, 919.975 473.539, 909.976 473.651, 899.977 473.763, 889.977 473.874, 879.978 473.986, 869.978 474.098, 859.979 474.209, 849.980 474.321, 839.980 474.433, 829.981 474.544, 819.982 474.656, 809.982 474.768, 799.983 474.880, 789.983 474.991, 779.984 475.103, 769.985 475.215, 759.985 475.355, 747.388 479.339, 753.827 479.220, 763.826 479.102, 773.826 478.983, 783.825 478.864, 793.824 478.745, 803.824 478.626, 813.823 478.507, 823.822 478.388, 833.821 478.269, 843.821 478.150, 853.820 478.031, 863.819 477.912, 873.819 477.794, 883.818 477.675, 893.817 477.556, 903.817 477.437, 913.816 477.318, 923.815 477.199, 933.814 477.080, 943.814 476.961, 953.813 476.842, 963.812 476.723, 973.812 476.604, 983.811 476.486, 993.810 476.367, 1003.809 476.248, 1013.809 476.129, 1023.808 476.010, 1033.807 475.891, 1043.807 475.772, 1053.806 475.653, 1063.805 475.534, 1073.805 475.415, 1083.804 475.296, 1093.803 475.178, 1103.802 475.109, 1109.541 475.061, 1113.607 474.965, 1121.684 474.857, 1130.779 474.738, 1140.778 474.619, 1150.778 474.500, 1160.777 474.381, 1170.776 474.262, 1180.775 474.143, 1190.775 474.024, 1200.774 473.944, 1207.503 " fill="none" stroke="rgb(157, 20, 170)" stroke-linecap="butt" stroke-linejoin="round" stroke-opacity="1.0" stroke-width="3.0" />
            <path d=" M 466.771, 668.055 460.970, 659.910 458.443, 656.362 452.642, 648.217 446.841, 640.071 444.282, 636.479 442.647, 634.184 440.213, 630.766 438.363, 628.168 " fill="none" stroke="rgb(157, 20, 170)" stroke-linecap="butt" stroke-linejoin="round" stroke-opacity="1.0" stroke-width="3.0" />
            <path d=" M 509.216, 941.222 509.038, 951.220 508.859, 961.219 508.681, 971.217 508.503, 981.216 508.325, 991.214 508.147, 1001.212 507.969, 1011.211 507.791, 1021.209 507.613, 1031.208 507.435, 1041.206 507.257, 1051.204 507.079, 1061.203 506.901, 1071.201 506.723, 1081.200 506.545, 1091.198 506.367, 1101.197 506.188, 1111.195 506.010, 1121.193 505.832, 1131.192 505.654, 1141.190 505.538, 1147.744 505.359, 1157.743 505.181, 1167.741 505.003, 1177.740 504.972, 1179.486 " fill="none" stroke="rgb(157, 20, 170)" stroke-linecap="butt" stroke-linejoin="round" stroke-opacity="1.0" stroke-width="3.0" />
            <path d=" M 517.531, 957.960 517.337, 967.958 517.143, 977.956 516.949, 987.954 516.755, 997.952 516.561, 1007.951 516.367, 1017.949 516.173, 1027.947 515.979, 1037.945 515.785, 1047.943 515.591, 1057.941 515.397, 1067.939 515.203, 1077.937 515.009, 1087.936 514.815, 1097.934 514.621, 1107.932 514.427, 1117.930 514.233, 1127.928 514.039, 1137.926 513.845, 1147.924 513.651, 1157.922 513.445, 1168.537 513.253, 1178.444 513.059, 1188.442 512.865, 1198.440 512.818, 1200.868 " fill="none" stroke="rgb(157, 20, 170)" stroke-linecap="butt" stroke-linejoin="round" stroke-opacity="1.0" stroke-width="3.0" />
            <path d=" M 525.726, 1199.184 525.692, 1200.738 " fill="none" stroke="rgb(157, 20, 170)" stroke-linecap="butt" stroke-linejoin="round" stroke-opacity="1.0" stroke-width="3.0" />
            <path d=" M 539.143, 1001.465 538.907, 1011.462 538.671, 1021.459 538.435, 1031.456 538.200, 1041.454 537.964, 1051.451 537.728, 1061.448 537.492, 1071.445 537.346, 1077.633 537.110, 1087.631 536.875, 1097.628 536.639, 1107.625 536.403, 1117.622 536.227, 1125.097 535.991, 1135.094 535.755, 1145.092 535.519, 1155.089 535.283, 1165.086 535.048, 1175.083 534.812, 1185.080 534.576, 1195.078 534.506, 1198.040 " fill="none" stroke="rgb(157, 20, 170)" stroke-linecap="butt" stroke-linejoin="round" stroke-opacity="1.0" stroke-width="3.0" />
        </g>
    </g>
    <g id="fressstylelayer_hidden lines" inkscape:groupmode="lineset" inkscape:label="fressstylelayer_hidden lines" xmlns:inkscape="http://www.inkscape.org/namespaces/inkscape">
        <g id="strokes" inkscape:groupmode="layer" inkscape:label="strokes" xmlns:inkscape="http://www.inkscape.org/namespaces/inkscape">
            <path d=" M 811.911, 480.758 801.912, 480.600 791.913, 480.442 781.914, 480.284 772.054, 480.129 765.569, 480.026 755.571, 479.868 745.572, 479.710 735.573, 479.552 725.574, 479.395 715.576, 479.237 705.577, 479.079 695.578, 478.921 685.579, 478.763 675.581, 478.605 665.582, 478.447 655.583, 478.289 645.584, 478.131 635.586, 477.973 625.587, 477.815 615.588, 477.657 605.589, 477.499 595.591, 477.341 585.592, 477.183 575.905, 477.030 565.906, 476.872 555.908, 476.715 545.909, 476.557 535.910, 476.399 525.911, 476.241 516.336, 476.089 506.338, 475.932 504.185, 475.898 504.029, 485.896 504.005, 487.488 503.955, 490.694 503.799, 500.693 503.644, 510.692 503.488, 520.690 503.333, 530.689 503.178, 540.688 503.022, 550.687 502.867, 560.686 502.711, 570.684 502.556, 580.683 502.400, 590.682 502.245, 600.681 502.089, 610.680 501.934, 620.678 501.778, 630.677 501.623, 640.676 501.566, 644.320 501.431, 653.013 501.276, 663.012 501.120, 673.011 500.965, 683.010 500.809, 693.008 500.654, 703.007 500.498, 713.006 500.361, 721.812 500.281, 726.985 500.125, 736.984 499.978, 746.436 499.876, 753.006 499.721, 763.005 499.584, 771.834 499.536, 774.896 499.380, 784.895 499.298, 790.214 504.531, 798.736 507.055, 802.846 508.999, 806.013 509.173, 796.014 509.281, 789.740 509.455, 779.742 509.546, 774.452 507.613, 771.483 507.783, 761.484 507.953, 751.486 508.123, 741.487 508.292, 731.488 508.462, 721.490 508.632, 711.491 508.802, 701.493 508.972, 691.494 509.141, 681.496 509.311, 671.497 509.481, 661.499 509.628, 652.850 509.652, 651.449 509.821, 641.451 509.991, 631.452 510.161, 621.454 510.331, 611.455 510.501, 601.456 510.670, 591.458 510.840, 581.459 511.010, 571.461 511.180, 561.462 511.350, 551.464 511.519, 541.465 511.689, 531.467 511.859, 521.468 512.029, 511.469 512.199, 501.471 512.303, 495.319 512.333, 493.569 512.503, 483.570 512.534, 481.711 516.236, 481.765 526.235, 481.911 536.234, 482.058 546.233, 482.204 556.232, 482.351 566.231, 482.497 575.750, 482.637 585.749, 482.783 595.748, 482.930 605.747, 483.076 615.745, 483.223 625.744, 483.369 635.743, 483.516 645.742, 483.662 655.741, 483.809 665.740, 483.955 675.739, 484.102 685.738, 484.248 695.737, 484.394 705.736, 484.541 715.735, 484.687 725.734, 484.834 735.733, 484.980 745.732, 485.127 755.730, 485.273 765.246, 485.413 771.572, 488.021 781.571, 488.162 791.570, 488.303 801.569, 488.445 811.380, 488.583 821.379, 488.724 831.378, 488.865 833.567, 488.896 824.206, 485.379 814.845, 481.861 811.911, 480.758 " fill="none" stroke="rgb(0, 119, 0)" stroke-linecap="butt" stroke-linejoin="round" stroke-opacity="1.0" stroke-width="3.0" />
            <path d=" M 504.185, 475.898 512.392, 481.611 512.534, 481.711 " fill="none" stroke="rgb(0, 119, 0)" stroke-linecap="butt" stroke-linejoin="round" stroke-opacity="1.0" stroke-width="3.0" />
            <path d=" M 833.567, 488.896 832.852, 498.871 832.138, 508.845 831.423, 518.820 830.709, 528.794 830.480, 531.992 829.852, 540.761 " fill="none" stroke="rgb(0, 119, 0)" stroke-linecap="butt" stroke-linejoin="round" stroke-opacity="1.0" stroke-width="3.0" />
            <path d=" M 810.370, 531.895 809.690, 541.872 809.010, 551.849 808.330, 561.826 807.650, 571.802 806.969, 581.779 806.289, 591.756 805.609, 601.733 804.929, 611.710 804.249, 621.687 803.569, 631.663 802.888, 641.640 802.208, 651.617 801.528, 661.594 800.848, 671.571 800.168, 681.548 799.487, 691.524 798.807, 701.501 798.127, 711.478 797.447, 721.455 796.767, 731.432 796.087, 741.409 795.406, 751.385 794.726, 761.362 794.046, 771.339 793.604, 777.826 " fill="none" stroke="rgb(0, 119, 0)" stroke-linecap="butt" stroke-linejoin="round" stroke-opacity="1.0" stroke-width="3.0" />
            <path d=" M 523.957, 790.710 533.945, 790.233 543.934, 789.756 553.922, 789.278 563.911, 788.801 573.900, 788.324 583.888, 787.847 593.877, 787.369 603.865, 786.892 613.854, 786.415 623.843, 785.938 633.831, 785.460 643.820, 784.983 653.808, 784.506 663.797, 784.028 673.786, 783.551 683.774, 783.074 693.763, 782.597 703.751, 782.119 713.740, 781.642 723.729, 781.165 733.717, 780.688 743.706, 780.210 753.695, 779.733 763.683, 779.256 773.672, 778.778 783.660, 778.301 793.604, 777.826 791.857, 776.334 " fill="none" stroke="rgb(0, 119, 0)" stroke-linecap="butt" stroke-linejoin="round" stroke-opacity="1.0" stroke-width="3.0" />
            <path d=" M 810.370, 531.895 819.472, 536.037 828.574, 540.180 829.852, 540.761 830.591, 540.763 840.591, 540.793 850.591, 540.822 851.232, 540.824 842.083, 536.788 832.933, 532.751 831.220, 531.995 830.480, 531.992 820.480, 531.944 810.370, 531.895 " fill="none" stroke="rgb(0, 119, 0)" stroke-linecap="butt" stroke-linejoin="round" stroke-opacity="1.0" stroke-width="3.0" />
            <path d=" M 499.298, 790.214 509.281, 789.740 519.270, 789.267 529.259, 788.793 539.248, 788.319 549.236, 787.845 559.225, 787.371 569.214, 786.897 579.203, 786.423 589.191, 785.949 599.180, 785.475 609.169, 785.001 619.158, 784.527 629.146, 784.054 639.135, 783.580 649.124, 783.106 659.113, 782.632 669.102, 782.158 679.090, 781.684 689.079, 781.210 699.068, 780.736 709.057, 780.262 719.045, 779.788 729.034, 779.314 739.023, 778.841 749.012, 778.367 759.000, 777.893 768.989, 777.419 778.978, 776.945 788.967, 776.471 791.857, 776.334 792.534, 766.357 793.211, 756.380 793.888, 746.403 794.565, 736.426 795.242, 726.448 795.918, 716.471 796.595, 706.494 797.272, 696.517 797.949, 686.540 798.626, 676.563 799.303, 666.586 799.980, 656.609 800.657, 646.632 801.334, 636.655 802.011, 626.678 802.688, 616.701 803.364, 606.724 804.041, 596.747 804.718, 586.770 805.395, 576.793 806.072, 566.815 806.749, 556.838 807.426, 546.861 808.103, 536.884 808.780, 526.907 809.456, 516.930 810.133, 506.953 810.810, 496.976 811.380, 488.583 811.911, 480.758 " fill="none" stroke="rgb(0, 119, 0)" stroke-linecap="butt" stroke-linejoin="round" stroke-opacity="1.0" stroke-width="3.0" />
            <path d=" M 533.216, 804.784 527.720, 796.430 523.957, 790.710 523.757, 800.708 523.666, 805.269 523.466, 815.267 523.266, 825.265 523.067, 835.263 523.018, 837.721 528.194, 846.277 532.174, 852.855 532.391, 842.857 532.514, 837.177 532.731, 827.180 532.947, 817.182 533.164, 807.185 533.216, 804.784 " fill="none" stroke="rgb(0, 119, 0)" stroke-linecap="butt" stroke-linejoin="round" stroke-opacity="1.0" stroke-width="3.0" />
            <path d=" M 533.216, 804.784 523.666, 805.269 513.679, 805.775 508.999, 806.013 " fill="none" stroke="rgb(0, 119, 0)" stroke-linecap="butt" stroke-linejoin="round" stroke-opacity="1.0" stroke-width="3.0" />
            <path d=" M 901.604, 1025.523 910.872, 1024.567 " fill="none" stroke="rgb(0, 119, 0)" stroke-linecap="butt" stroke-linejoin="round" stroke-opacity="1.0" stroke-width="3.0" />
            <path d=" M 920.469, 921.681 919.540, 931.638 918.612, 941.595 917.683, 951.552 916.754, 961.508 915.825, 971.465 914.897, 981.422 913.968, 991.379 913.385, 997.626 912.456, 1007.583 912.350, 1008.725 911.421, 1018.681 910.872, 1024.567 917.772, 1031.806 924.671, 1039.044 931.571, 1046.283 938.470, 1053.521 945.370, 1060.760 952.269, 1067.998 959.169, 1075.237 966.068, 1082.475 972.968, 1089.714 979.867, 1096.952 986.767, 1104.191 993.667, 1111.430 1000.566, 1118.668 1007.466, 1125.907 1014.365, 1133.145 1021.265, 1140.384 1028.693, 1148.176 1035.592, 1155.415 1041.333, 1161.439 1048.233, 1168.677 1050.396, 1170.947 1057.296, 1178.185 1064.318, 1185.552 1071.217, 1192.791 1078.117, 1200.029 1084.851, 1207.095 " fill="none" stroke="rgb(0, 119, 0)" stroke-linecap="butt" stroke-linejoin="round" stroke-opacity="1.0" stroke-width="3.0" />
            <path d=" M 1073.965, 863.400 1065.719, 857.742 1057.474, 852.084 1054.360, 849.947 1053.384, 849.277 1052.230, 859.210 1051.076, 869.144 1049.922, 879.077 1049.826, 879.905 1048.673, 889.838 1048.454, 891.717 1047.301, 901.650 1047.120, 903.210 1048.080, 903.932 1055.763, 909.708 1056.354, 910.152 1056.759, 910.457 1055.587, 920.388 1054.414, 930.319 1053.242, 940.250 1052.069, 950.181 1050.897, 960.112 1049.724, 970.043 1048.552, 979.974 1047.904, 985.457 1046.739, 995.329 1045.566, 1005.260 1044.394, 1015.191 1043.221, 1025.122 1042.049, 1035.053 1040.876, 1044.984 1039.704, 1054.915 1038.531, 1064.846 1037.359, 1074.777 1036.186, 1084.708 1035.014, 1094.639 1033.841, 1104.570 1032.668, 1114.501 1031.496, 1124.432 1030.323, 1134.363 1029.151, 1144.294 1028.693, 1148.176 1027.520, 1158.108 1027.381, 1159.287 1026.208, 1169.218 1025.036, 1179.149 1023.863, 1189.080 1022.691, 1199.011 1021.518, 1208.942 1020.346, 1218.873 1019.422, 1226.693 1018.250, 1236.624 1017.077, 1246.555 1015.905, 1256.486 1014.732, 1266.417 1013.965, 1272.915 1012.991, 1281.161 1011.819, 1291.092 1011.764, 1291.558 1021.630, 1289.927 1031.496, 1288.296 1036.084, 1287.537 1037.302, 1277.612 1037.354, 1277.189 1038.573, 1267.263 1039.791, 1257.338 1040.564, 1251.040 1041.783, 1241.114 1043.001, 1231.189 1044.219, 1221.263 1045.235, 1212.991 1045.984, 1206.887 1047.203, 1196.962 1048.421, 1187.036 1049.005, 1182.284 1050.223, 1172.359 1050.396, 1170.947 1051.615, 1161.021 1052.833, 1151.096 1054.052, 1141.170 1055.270, 1131.245 1056.489, 1121.319 1057.707, 1111.394 1058.926, 1101.468 1060.144, 1091.543 1061.363, 1081.617 1062.581, 1071.692 1063.800, 1061.766 1065.018, 1051.841 1066.237, 1041.915 1067.455, 1031.990 1068.673, 1022.064 1069.892, 1012.139 1071.110, 1002.214 1072.329, 992.288 1073.547, 982.363 1074.766, 972.437 1075.984, 962.512 1077.203, 952.586 1078.421, 942.661 1079.640, 932.735 1080.858, 922.810 1082.077, 912.884 1082.631, 908.370 1074.548, 902.482 1072.771, 901.188 1071.798, 909.244 1070.599, 919.171 1069.399, 929.099 1068.200, 939.027 1067.001, 948.955 1065.802, 958.883 1064.602, 968.811 1063.403, 978.738 1062.204, 988.666 1061.005, 998.594 1059.805, 1008.522 1058.606, 1018.450 1057.407, 1028.378 1056.208, 1038.305 1055.008, 1048.233 1053.809, 1058.161 1052.610, 1068.089 1051.411, 1078.017 1050.211, 1087.945 1049.012, 1097.872 1047.813, 1107.800 1046.614, 1117.728 1045.414, 1127.656 1044.215, 1137.584 1043.016, 1147.512 1041.817, 1157.439 1041.333, 1161.439 1040.134, 1171.366 1039.975, 1172.681 1038.776, 1182.609 1037.577, 1192.537 1036.378, 1202.465 1035.660, 1208.410 1034.921, 1214.526 1044.812, 1213.054 1045.235, 1212.991 1055.126, 1211.519 1061.164, 1210.620 " fill="none" stroke="rgb(0, 119, 0)" stroke-linecap="butt" stroke-linejoin="round" stroke-opacity="1.0" stroke-width="3.0" />
            <path d=" M 1034.921, 1214.526 1030.172, 1209.219 " fill="none" stroke="rgb(0, 119, 0)" stroke-linecap="butt" stroke-linejoin="round" stroke-opacity="1.0" stroke-width="3.0" />
            <path d=" M 1068.953, 1203.500 1062.874, 1197.034 1056.023, 1189.748 1049.173, 1182.463 1049.005, 1182.284 1042.154, 1174.999 1039.975, 1172.681 1033.125, 1165.396 1027.381, 1159.287 1020.531, 1152.002 1013.680, 1144.716 1006.830, 1137.431 999.980, 1130.146 993.130, 1122.861 986.279, 1115.576 979.429, 1108.290 972.579, 1101.005 965.729, 1093.720 958.879, 1086.435 952.028, 1079.149 945.178, 1071.864 938.328, 1064.579 931.478, 1057.294 924.628, 1050.008 917.777, 1042.723 910.927, 1035.438 904.077, 1028.153 901.604, 1025.523 902.516, 1015.565 903.057, 1009.651 903.969, 999.693 904.075, 998.532 904.987, 988.574 905.899, 978.615 906.811, 968.657 907.722, 958.699 908.634, 948.740 909.546, 938.782 910.458, 928.824 911.042, 922.442 " fill="none" stroke="rgb(0, 119, 0)" stroke-linecap="butt" stroke-linejoin="round" stroke-opacity="1.0" stroke-width="3.0" />
            <path d=" M 1068.181, 1209.576 1068.953, 1203.500 1061.930, 1204.535 1052.037, 1205.994 1045.984, 1206.887 1036.091, 1208.346 1035.660, 1208.410 1030.172, 1209.219 1028.982, 1219.148 1027.793, 1229.077 1027.030, 1235.454 1025.841, 1245.383 1024.652, 1255.312 1023.463, 1265.241 1022.713, 1271.504 1013.965, 1272.915 1004.093, 1274.507 998.693, 1275.377 998.537, 1276.733 988.665, 1278.327 978.793, 1279.922 968.921, 1281.516 959.049, 1283.111 949.177, 1284.706 939.305, 1286.300 929.433, 1287.895 919.561, 1289.490 909.689, 1291.084 899.817, 1292.679 889.945, 1294.273 880.073, 1295.868 870.201, 1297.463 860.329, 1299.057 850.457, 1300.652 840.585, 1302.246 830.713, 1303.841 820.841, 1305.436 810.969, 1307.030 801.097, 1308.625 791.224, 1310.219 781.352, 1311.814 771.480, 1313.409 761.608, 1315.003 751.736, 1316.598 741.864, 1318.193 731.992, 1319.787 722.120, 1321.382 712.248, 1322.976 702.376, 1324.571 692.504, 1326.166 682.632, 1327.760 672.760, 1329.355 662.888, 1330.950 653.016, 1332.544 643.144, 1334.139 633.272, 1335.733 629.365, 1336.364 625.433, 1327.170 621.501, 1317.975 617.569, 1308.781 613.637, 1299.586 609.706, 1290.391 605.774, 1281.197 601.842, 1272.002 597.910, 1262.808 593.978, 1253.613 590.046, 1244.418 586.115, 1235.224 582.183, 1226.029 578.759, 1218.023 574.827, 1208.828 570.895, 1199.634 566.964, 1190.439 563.032, 1181.245 559.100, 1172.050 555.168, 1162.855 551.236, 1153.661 547.304, 1144.466 546.014, 1141.448 546.269, 1131.451 546.524, 1121.455 546.780, 1111.458 546.895, 1106.958 547.090, 1099.300 542.989, 1090.179 538.887, 1081.059 537.346, 1077.633 533.245, 1068.513 530.400, 1062.188 530.178, 1072.185 529.956, 1082.183 529.734, 1092.181 529.533, 1101.243 529.362, 1108.925 533.269, 1118.130 536.227, 1125.097 540.134, 1134.302 543.305, 1141.771 547.212, 1150.976 551.119, 1160.181 555.027, 1169.386 558.934, 1178.591 562.841, 1187.796 566.749, 1197.001 570.656, 1206.206 574.563, 1215.411 578.541, 1224.782 582.448, 1233.987 586.356, 1243.192 590.263, 1252.397 594.170, 1261.602 598.078, 1270.807 601.985, 1280.012 605.893, 1289.217 609.800, 1298.422 613.707, 1307.627 617.615, 1316.832 621.522, 1326.037 625.429, 1335.242 629.046, 1343.762 638.916, 1342.152 648.785, 1340.543 658.655, 1338.934 668.525, 1337.325 678.394, 1335.716 688.264, 1334.106 698.134, 1332.497 708.003, 1330.888 717.873, 1329.279 727.743, 1327.670 737.612, 1326.060 747.482, 1324.451 757.352, 1322.842 767.221, 1321.233 777.091, 1319.624 786.961, 1318.014 796.830, 1316.405 806.700, 1314.796 816.570, 1313.187 826.439, 1311.577 836.309, 1309.968 846.179, 1308.359 856.048, 1306.750 865.918, 1305.141 875.788, 1303.531 885.657, 1301.922 895.527, 1300.313 905.397, 1298.704 915.266, 1297.095 925.136, 1295.485 935.006, 1293.876 944.875, 1292.267 954.745, 1290.658 964.615, 1289.049 974.484, 1287.439 984.354, 1285.830 994.224, 1284.221 1003.374, 1282.729 1004.486, 1282.548 1012.991, 1281.161 1022.861, 1279.552 1028.638, 1278.610 1037.354, 1277.189 1047.224, 1275.580 1053.114, 1274.619 " fill="none" stroke="rgb(0, 119, 0)" stroke-linecap="butt" stroke-linejoin="round" stroke-opacity="1.0" stroke-width="3.0" />
            <path d=" M 1000.483, 454.193 999.493, 464.143 998.504, 474.094 997.600, 483.188 996.610, 493.139 995.621, 503.090 994.631, 513.041 993.642, 522.992 992.888, 530.569 1002.315, 533.906 1011.201, 537.051 1010.179, 546.999 1009.158, 556.946 1008.136, 566.894 1007.115, 576.842 1006.093, 586.790 1005.072, 596.737 1004.050, 606.685 1003.029, 616.633 1002.007, 626.580 1000.986, 636.528 999.964, 646.476 998.943, 656.423 997.921, 666.371 996.900, 676.319 995.878, 686.266 994.857, 696.214 993.835, 706.162 992.814, 716.109 991.792, 726.057 990.771, 736.005 989.749, 745.953 988.815, 755.047 987.874, 764.213 986.852, 774.160 985.831, 784.108 984.809, 794.056 984.739, 794.737 993.020, 800.344 1001.300, 805.951 1009.580, 811.558 1015.337, 815.457 1014.258, 825.399 1013.178, 835.340 1012.099, 845.282 1011.360, 852.083 1019.463, 857.943 1027.566, 863.804 1035.668, 869.664 1043.771, 875.525 1049.826, 879.905 1050.794, 880.604 1058.534, 886.203 1057.363, 896.134 1057.129, 898.117 1056.617, 902.461 1055.763, 909.708 1055.705, 910.205 1054.534, 920.136 1053.363, 930.067 1052.193, 939.999 1051.022, 949.930 1049.852, 959.861 1048.681, 969.792 1047.510, 979.724 1046.931, 984.637 1036.978, 985.605 1027.025, 986.573 1017.072, 987.541 1007.119, 988.509 997.166, 989.477 987.213, 990.445 977.260, 991.413 967.307, 992.382 957.354, 993.350 947.401, 994.318 937.448, 995.286 927.495, 996.254 917.542, 997.222 913.385, 997.626 904.075, 998.532 894.122, 999.500 888.871, 1000.011 878.918, 1000.979 868.965, 1001.947 859.012, 1002.915 849.059, 1003.883 839.105, 1004.851 829.152, 1005.819 819.199, 1006.788 809.246, 1007.756 799.293, 1008.724 790.955, 1009.535 790.793, 1009.551 780.839, 1010.519 770.886, 1011.487 760.933, 1012.455 750.980, 1013.423 741.027, 1014.391 731.074, 1015.359 721.121, 1016.327 711.168, 1017.295 701.215, 1018.264 700.265, 1018.356 692.785, 1019.084 682.832, 1020.052 681.166, 1020.214 671.213, 1021.182 671.039, 1021.199 661.086, 1022.167 651.133, 1023.135 641.180, 1024.103 631.227, 1025.071 621.274, 1026.039 611.321, 1027.007 601.368, 1027.975 591.415, 1028.944 584.841, 1029.583 580.112, 1020.772 575.383, 1011.961 570.654, 1003.150 565.925, 994.339 561.775, 986.607 557.046, 977.796 552.317, 968.985 549.875, 964.435 545.146, 955.624 542.555, 950.798 541.371, 948.592 540.431, 946.840 530.463, 947.634 520.494, 948.428 517.711, 948.649 513.214, 939.717 509.378, 932.099 504.855, 932.443 " fill="none" stroke="rgb(0, 119, 0)" stroke-linecap="butt" stroke-linejoin="round" stroke-opacity="1.0" stroke-width="3.0" />
            <path d=" M 1047.120, 903.210 1048.173, 903.127 1056.617, 902.461 1066.586, 901.675 1069.391, 901.454 1072.694, 901.194 1072.771, 901.188 " fill="none" stroke="rgb(0, 119, 0)" stroke-linecap="butt" stroke-linejoin="round" stroke-opacity="1.0" stroke-width="3.0" />
            <path d=" M 1011.360, 852.083 1021.338, 851.417 1031.316, 850.750 1041.294, 850.084 1051.271, 849.418 1053.384, 849.277 " fill="none" stroke="rgb(0, 119, 0)" stroke-linecap="butt" stroke-linejoin="round" stroke-opacity="1.0" stroke-width="3.0" />
            <path d=" M 1082.631, 908.370 1072.663, 909.174 1071.798, 909.244 1068.422, 909.516 1058.455, 910.320 1056.759, 910.457 " fill="none" stroke="rgb(0, 119, 0)" stroke-linecap="butt" stroke-linejoin="round" stroke-opacity="1.0" stroke-width="3.0" />
            <path d=" M 492.753, 450.902 497.266, 453.814 505.668, 459.236 514.071, 464.658 515.363, 465.492 516.194, 466.028 516.510, 466.232 519.180, 467.955 " fill="none" stroke="rgb(0, 119, 0)" stroke-linecap="butt" stroke-linejoin="round" stroke-opacity="1.0" stroke-width="3.0" />
            <path d=" M 519.180, 467.955 524.067, 468.040 524.102, 466.169 524.112, 465.649 520.202, 465.579 516.523, 465.513 515.363, 465.492 508.784, 465.374 498.786, 465.195 493.650, 465.103 493.559, 471.731 494.349, 471.744 504.348, 471.910 514.346, 472.076 516.406, 472.110 519.105, 472.155 519.180, 467.955 " fill="none" stroke="rgb(0, 119, 0)" stroke-linecap="butt" stroke-linejoin="round" stroke-opacity="1.0" stroke-width="3.0" />
            <path d=" M 524.067, 468.040 521.043, 466.114 520.202, 465.579 516.562, 463.261 508.128, 457.889 499.693, 452.517 497.306, 450.997 " fill="none" stroke="rgb(0, 119, 0)" stroke-linecap="butt" stroke-linejoin="round" stroke-opacity="1.0" stroke-width="3.0" />
            <path d=" M 497.306, 450.997 492.753, 450.902 492.738, 451.972 492.700, 454.806 497.250, 454.897 497.266, 453.814 497.306, 450.997 " fill="none" stroke="rgb(0, 119, 0)" stroke-linecap="butt" stroke-linejoin="round" stroke-opacity="1.0" stroke-width="3.0" />
            <path d=" M 510.175, 495.294 512.303, 495.319 514.771, 495.349 " fill="none" stroke="rgb(0, 119, 0)" stroke-linecap="butt" stroke-linejoin="round" stroke-opacity="1.0" stroke-width="3.0" />
            <path d=" M 483.601, 415.189 483.507, 423.068 483.388, 433.067 483.268, 443.066 483.222, 446.938 483.103, 456.937 482.984, 466.936 482.922, 472.095 492.921, 472.260 494.342, 472.283 494.349, 471.744 494.434, 465.640 504.432, 465.818 509.600, 465.910 516.194, 466.028 516.513, 466.034 521.043, 466.114 524.102, 466.169 524.961, 466.184 525.152, 456.186 525.245, 451.281 525.311, 447.844 525.322, 447.236 525.513, 437.238 525.703, 427.240 525.834, 420.387 526.024, 410.389 526.214, 400.391 526.265, 397.726 526.456, 387.728 526.592, 380.560 " fill="none" stroke="rgb(0, 119, 0)" stroke-linecap="butt" stroke-linejoin="round" stroke-opacity="1.0" stroke-width="3.0" />
            <path d=" M 494.342, 472.283 493.559, 471.731 " fill="none" stroke="rgb(0, 119, 0)" stroke-linecap="butt" stroke-linejoin="round" stroke-opacity="1.0" stroke-width="3.0" />
            <path d=" M 512.055, 651.402 512.229, 641.404 512.403, 631.405 512.577, 621.407 512.751, 611.408 512.925, 601.410 513.099, 591.411 513.273, 581.413 513.447, 571.414 513.621, 561.416 513.795, 551.417 513.969, 541.419 514.143, 531.420 514.317, 521.422 514.491, 511.423 514.665, 501.425 514.771, 495.349 512.333, 493.569 504.257, 487.672 504.005, 487.488 495.928, 481.591 487.852, 475.694 482.922, 472.095 " fill="none" stroke="rgb(0, 119, 0)" stroke-linecap="butt" stroke-linejoin="round" stroke-opacity="1.0" stroke-width="3.0" />
            <path d=" M 536.082, 342.925 535.877, 352.923 535.835, 354.945 535.630, 364.943 535.425, 374.940 535.240, 383.975 535.035, 393.973 534.880, 401.533 534.675, 411.531 534.470, 421.529 534.405, 424.708 534.200, 434.706 533.995, 444.704 533.927, 448.030 533.881, 450.285 536.036, 450.330 546.034, 450.541 556.032, 450.751 566.030, 450.962 576.027, 451.173 586.025, 451.384 596.023, 451.594 606.021, 451.805 616.019, 452.016 626.016, 452.227 636.014, 452.437 646.012, 452.648 656.010, 452.859 666.008, 453.070 676.005, 453.280 686.003, 453.491 696.001, 453.702 705.999, 453.913 715.996, 454.123 725.994, 454.334 735.992, 454.545 745.990, 454.756 755.987, 454.966 767.058, 455.200 773.568, 455.337 767.187, 453.053 757.189, 452.838 747.191, 452.623 737.194, 452.407 727.196, 452.192 717.198, 451.977 707.201, 451.761 697.203, 451.546 687.205, 451.331 677.208, 451.115 667.210, 450.900 657.212, 450.685 647.215, 450.469 637.217, 450.254 627.219, 450.039 617.222, 449.823 607.224, 449.608 597.226, 449.393 587.229, 449.178 577.231, 448.962 567.233, 448.747 557.235, 448.532 547.238, 448.316 536.083, 448.076 533.927, 448.030 526.416, 447.868 525.311, 447.844 516.837, 447.662 506.839, 447.446 496.842, 447.231 490.605, 447.097 483.222, 446.938 473.224, 446.722 468.877, 446.629 " fill="none" stroke="rgb(0, 119, 0)" stroke-linecap="butt" stroke-linejoin="round" stroke-opacity="1.0" stroke-width="3.0" />
            <path d=" M 491.498, 379.327 491.458, 382.346 491.326, 392.345 491.194, 402.344 491.063, 412.343 491.022, 415.396 490.891, 425.395 490.865, 427.321 490.733, 437.320 490.605, 447.097 490.559, 450.558 500.557, 450.766 510.555, 450.975 516.776, 451.104 525.245, 451.281 532.586, 451.434 536.012, 451.505 536.036, 450.330 536.083, 448.076 536.292, 438.078 536.501, 428.080 536.548, 425.788 536.757, 415.791 536.966, 405.793 537.035, 402.485 537.243, 392.487 537.403, 384.829 537.612, 374.831 537.820, 364.833 538.012, 355.635 538.221, 345.638 538.275, 343.019 " fill="none" stroke="rgb(0, 119, 0)" stroke-linecap="butt" stroke-linejoin="round" stroke-opacity="1.0" stroke-width="3.0" />
            <path d=" M 536.012, 451.505 533.881, 450.285 " fill="none" stroke="rgb(0, 119, 0)" stroke-linecap="butt" stroke-linejoin="round" stroke-opacity="1.0" stroke-width="3.0" />
            <path d=" M 519.105, 472.155 516.436, 470.402 509.600, 465.910 508.784, 465.374 500.427, 459.883 492.700, 454.806 " fill="none" stroke="rgb(0, 119, 0)" stroke-linecap="butt" stroke-linejoin="round" stroke-opacity="1.0" stroke-width="3.0" />
            <path d=" M 497.250, 454.897 492.738, 451.972 490.559, 450.558 " fill="none" stroke="rgb(0, 119, 0)" stroke-linecap="butt" stroke-linejoin="round" stroke-opacity="1.0" stroke-width="3.0" />
            <path d=" M 773.568, 455.337 772.959, 465.318 772.349, 475.300 772.054, 480.129 771.572, 488.021 " fill="none" stroke="rgb(0, 119, 0)" stroke-linecap="butt" stroke-linejoin="round" stroke-opacity="1.0" stroke-width="3.0" />
            <path d=" M 765.246, 485.413 765.569, 480.026 766.168, 470.044 766.766, 460.062 767.058, 455.200 767.187, 453.053 " fill="none" stroke="rgb(0, 119, 0)" stroke-linecap="butt" stroke-linejoin="round" stroke-opacity="1.0" stroke-width="3.0" />
            <path d=" M 442.775, 609.877 442.744, 615.680 442.740, 616.572 442.687, 626.572 442.679, 628.105 442.665, 630.729 442.647, 634.184 442.595, 644.184 442.542, 654.183 442.529, 656.686 442.477, 666.686 442.424, 676.686 442.372, 686.685 442.320, 696.685 442.267, 706.685 442.215, 716.685 442.162, 726.685 442.150, 729.004 442.098, 739.004 442.045, 749.004 441.993, 759.003 441.940, 769.003 441.912, 774.357 443.503, 777.382 443.520, 774.287 443.575, 764.287 443.630, 754.287 443.686, 744.287 443.741, 734.287 443.771, 728.948 443.826, 718.948 443.881, 708.948 443.936, 698.948 443.992, 688.948 444.047, 678.948 444.102, 668.949 444.158, 658.949 444.170, 656.652 444.226, 646.653 444.282, 636.479 444.314, 630.704 442.665, 630.729 440.213, 630.766 430.214, 630.918 420.216, 631.070 410.217, 631.222 400.218, 631.374 390.219, 631.526 380.220, 631.678 370.221, 631.830 360.223, 631.982 350.224, 632.133 340.225, 632.285 330.226, 632.437 320.227, 632.589 310.228, 632.741 302.903, 632.852 303.094, 642.851 303.285, 652.849 303.476, 662.847 303.668, 672.845 303.859, 682.843 304.050, 692.841 304.242, 702.840 304.433, 712.838 304.624, 722.836 304.833, 733.773 305.025, 743.771 305.216, 753.770 305.407, 763.768 305.599, 773.766 305.790, 783.764 305.981, 793.762 306.172, 803.760 306.364, 813.759 306.555, 823.757 306.746, 833.755 306.938, 843.753 307.129, 853.751 307.320, 863.750 307.511, 873.748 307.703, 883.746 307.894, 893.744 308.085, 903.742 308.277, 913.740 308.468, 923.739 308.659, 933.737 308.850, 943.735 309.042, 953.733 309.233, 963.731 309.298, 967.153 311.317, 976.947 313.335, 986.742 315.353, 996.536 316.012, 999.738 318.030, 1009.532 320.048, 1019.326 322.067, 1029.121 324.085, 1038.915 326.103, 1048.709 328.121, 1058.503 330.139, 1068.298 332.157, 1078.092 334.175, 1087.886 336.193, 1097.680 338.211, 1107.475 340.229, 1117.269 342.247, 1127.063 344.199, 1136.534 350.264, 1135.845 352.091, 1135.638 362.027, 1134.510 371.963, 1133.381 381.899, 1132.253 391.836, 1131.124 401.772, 1129.996 411.708, 1128.868 421.644, 1127.739 431.580, 1126.611 441.516, 1125.483 447.126, 1124.845 447.984, 1124.748 457.920, 1123.620 467.856, 1122.491 471.170, 1122.115 474.965, 1121.684 478.594, 1121.272 483.851, 1120.675 487.176, 1120.297 490.184, 1119.956 487.291, 1112.238 481.009, 1112.941 478.695, 1113.200 475.061, 1113.607 471.260, 1114.032 461.322, 1115.145 451.384, 1116.257 445.437, 1116.923 444.587, 1117.018 434.649, 1118.131 424.711, 1119.243 414.773, 1120.356 404.835, 1121.469 394.897, 1122.581 384.959, 1123.694 375.021, 1124.806 365.084, 1125.919 355.146, 1127.031 351.996, 1127.384 350.543, 1120.688 348.424, 1110.916 346.304, 1101.143 344.184, 1091.370 342.065, 1081.597 339.945, 1071.824 337.825, 1062.052 335.706, 1052.279 333.586, 1042.506 331.466, 1032.733 329.346, 1022.961 327.227, 1013.188 325.107, 1003.415 322.987, 993.642 320.793, 983.526 318.674, 973.753 317.977, 970.542 317.619, 968.893 317.795, 978.891 317.881, 983.769 318.238, 985.446 320.321, 995.227 322.404, 1005.008 324.486, 1014.788 326.569, 1024.569 328.652, 1034.350 330.734, 1044.130 332.817, 1053.911 334.900, 1063.692 336.982, 1073.473 339.065, 1083.253 341.148, 1093.034 343.230, 1102.815 345.313, 1112.595 347.117, 1121.067 349.200, 1130.848 350.264, 1135.845 352.199, 1144.931 362.133, 1143.785 372.067, 1142.639 382.001, 1141.493 391.935, 1140.347 401.869, 1139.200 411.803, 1138.054 421.737, 1136.908 431.671, 1135.762 441.605, 1134.616 449.983, 1133.649 450.848, 1133.549 460.782, 1132.403 470.717, 1131.257 471.068, 1131.216 474.857, 1130.779 478.479, 1130.361 487.047, 1129.372 483.851, 1120.675 481.009, 1112.941 479.577, 1109.044 478.775, 1106.861 478.746, 1109.137 478.695, 1113.200 478.594, 1121.272 478.479, 1130.361 478.354, 1140.360 478.238, 1149.528 481.539, 1158.968 484.840, 1168.407 488.142, 1177.846 491.443, 1187.286 494.744, 1196.725 497.439, 1204.432 " fill="none" stroke="rgb(0, 119, 0)" stroke-linecap="butt" stroke-linejoin="round" stroke-opacity="1.0" stroke-width="3.0" />
            <path d=" M 444.314, 630.704 450.171, 638.809 456.029, 646.914 461.886, 655.019 462.793, 656.273 " fill="none" stroke="rgb(0, 119, 0)" stroke-linecap="butt" stroke-linejoin="round" stroke-opacity="1.0" stroke-width="3.0" />
            <path d=" M 470.372, 1193.540 467.277, 1184.031 464.183, 1174.522 461.088, 1165.012 457.993, 1155.503 454.899, 1145.994 451.804, 1136.485 450.848, 1133.549 447.984, 1124.748 445.437, 1116.923 444.154, 1112.981 443.323, 1110.426 433.384, 1111.525 423.444, 1112.625 413.505, 1113.724 403.565, 1114.824 393.626, 1115.923 383.687, 1117.022 373.747, 1118.122 363.808, 1119.221 353.869, 1120.320 350.543, 1120.688 347.117, 1121.067 344.001, 1121.412 341.952, 1111.624 339.903, 1101.836 337.854, 1092.048 335.805, 1082.261 333.756, 1072.473 331.707, 1062.685 329.658, 1052.897 327.609, 1043.109 325.560, 1033.321 323.511, 1023.534 321.462, 1013.746 319.413, 1003.958 318.485, 999.524 318.310, 989.526 318.238, 985.446 318.208, 983.741 318.033, 973.743 317.977, 970.542 317.948, 968.867 317.905, 966.465 317.730, 956.466 317.555, 946.468 317.379, 936.469 317.204, 926.471 317.029, 916.472 316.853, 906.474 316.678, 896.475 316.503, 886.477 316.327, 876.478 316.152, 866.480 315.977, 856.482 315.801, 846.483 315.626, 836.485 315.451, 826.486 315.275, 816.488 315.100, 806.489 314.925, 796.491 314.749, 786.492 314.574, 776.494 314.399, 766.495 314.223, 756.497 314.048, 746.498 313.873, 736.500 313.820, 733.461 313.644, 723.463 313.469, 713.464 313.294, 703.466 313.118, 693.467 312.943, 683.469 312.768, 673.470 312.592, 663.472 312.520, 659.332 322.518, 659.128 332.515, 658.925 342.513, 658.721 352.511, 658.518 362.509, 658.314 372.507, 658.111 382.505, 657.907 392.503, 657.704 402.501, 657.501 412.499, 657.297 422.497, 657.094 432.495, 656.890 442.529, 656.686 444.170, 656.652 454.168, 656.449 458.443, 656.362 462.793, 656.273 462.881, 646.274 462.913, 642.674 463.001, 632.674 463.043, 627.806 463.131, 617.806 463.144, 616.319 453.145, 616.443 443.405, 616.564 442.740, 616.572 438.414, 616.625 " fill="none" stroke="rgb(0, 119, 0)" stroke-linecap="butt" stroke-linejoin="round" stroke-opacity="1.0" stroke-width="3.0" />
            <path d=" M 507.579, 651.490 507.745, 641.491 507.911, 631.493 508.077, 621.494 508.244, 611.495 508.410, 601.497 508.576, 591.498 508.742, 581.499 508.908, 571.501 509.075, 561.502 509.241, 551.504 509.407, 541.505 509.573, 531.506 509.739, 521.508 509.905, 511.509 510.072, 501.510 510.175, 495.294 503.955, 490.694 495.915, 484.748 487.874, 478.802 479.834, 472.856 471.794, 466.910 468.705, 464.626 " fill="none" stroke="rgb(0, 119, 0)" stroke-linecap="butt" stroke-linejoin="round" stroke-opacity="1.0" stroke-width="3.0" />
            <path d=" M 463.144, 616.319 467.215, 621.411 472.219, 627.671 " fill="none" stroke="rgb(0, 119, 0)" stroke-linecap="butt" stroke-linejoin="round" stroke-opacity="1.0" stroke-width="3.0" />
            <path d=" M 438.363, 628.168 442.679, 628.105 451.926, 627.969 461.925, 627.822 463.043, 627.806 467.155, 627.746 472.219, 627.671 472.323, 617.672 472.408, 609.550 467.327, 609.606 " fill="none" stroke="rgb(0, 119, 0)" stroke-linecap="butt" stroke-linejoin="round" stroke-opacity="1.0" stroke-width="3.0" />
            <path d=" M 472.408, 609.550 478.833, 617.212 485.259, 624.874 491.685, 632.536 498.110, 640.199 501.566, 644.320 507.579, 651.490 509.652, 651.449 512.055, 651.402 513.224, 652.779 " fill="none" stroke="rgb(0, 119, 0)" stroke-linecap="butt" stroke-linejoin="round" stroke-opacity="1.0" stroke-width="3.0" />
            <path d=" M 507.613, 771.483 499.584, 771.834 489.593, 772.271 479.603, 772.708 469.612, 773.145 459.622, 773.582 449.631, 774.019 443.520, 774.287 441.912, 774.357 " fill="none" stroke="rgb(0, 119, 0)" stroke-linecap="butt" stroke-linejoin="round" stroke-opacity="1.0" stroke-width="3.0" />
            <path d=" M 762.533, 974.943 768.858, 982.689 775.183, 990.434 781.508, 998.180 787.832, 1005.926 790.793, 1009.551 790.941, 1009.732 " fill="none" stroke="rgb(0, 119, 0)" stroke-linecap="butt" stroke-linejoin="round" stroke-opacity="1.0" stroke-width="3.0" />
            <path d=" M 792.307, 990.383 791.603, 1000.358 790.955, 1009.535 790.941, 1009.732 780.988, 1010.701 771.035, 1011.669 761.082, 1012.638 751.129, 1013.606 741.176, 1014.575 731.223, 1015.543 721.270, 1016.512 711.317, 1017.480 701.364, 1018.449 700.394, 1018.543 " fill="none" stroke="rgb(0, 119, 0)" stroke-linecap="butt" stroke-linejoin="round" stroke-opacity="1.0" stroke-width="3.0" />
            <path d=" M 699.810, 1029.390 700.348, 1019.404 700.394, 1018.543 700.265, 1018.356 694.575, 1010.132 688.886, 1001.908 683.197, 993.684 677.507, 985.461 675.604, 982.709 " fill="none" stroke="rgb(0, 119, 0)" stroke-linecap="butt" stroke-linejoin="round" stroke-opacity="1.0" stroke-width="3.0" />
            <path d=" M 680.018, 892.339 679.531, 902.327 679.043, 912.315 678.555, 922.303 678.067, 932.291 677.579, 942.279 677.091, 952.267 676.603, 962.255 676.115, 972.243 675.604, 982.709 685.564, 981.819 695.524, 980.929 705.485, 980.039 715.445, 979.149 725.405, 978.260 735.366, 977.370 745.326, 976.480 755.286, 975.590 762.533, 974.943 763.180, 964.964 763.828, 954.985 764.476, 945.006 765.123, 935.027 765.771, 925.048 766.419, 915.069 767.067, 905.090 767.714, 895.111 768.298, 886.110 " fill="none" stroke="rgb(0, 119, 0)" stroke-linecap="butt" stroke-linejoin="round" stroke-opacity="1.0" stroke-width="3.0" />
            <path d=" M 810.465, 821.258 811.181, 811.284 811.896, 801.309 812.612, 791.335 813.328, 781.361 814.043, 771.386 814.759, 761.412 815.475, 751.438 816.190, 741.463 816.906, 731.489 817.622, 721.515 818.337, 711.540 819.053, 701.566 819.769, 691.592 820.484, 681.617 821.200, 671.643 821.916, 661.668 822.631, 651.694 823.347, 641.720 824.063, 631.745 824.778, 621.771 825.494, 611.797 826.210, 601.822 826.925, 591.848 827.641, 581.874 828.357, 571.899 829.072, 561.925 829.788, 551.951 830.591, 540.763 831.220, 531.995 " fill="none" stroke="rgb(0, 119, 0)" stroke-linecap="butt" stroke-linejoin="round" stroke-opacity="1.0" stroke-width="3.0" />
            <path d=" M 840.627, 681.663 848.995, 687.140 857.362, 692.616 865.729, 698.092 874.096, 703.568 882.464, 709.044 890.831, 714.521 896.162, 718.010 " fill="none" stroke="rgb(0, 119, 0)" stroke-linecap="butt" stroke-linejoin="round" stroke-opacity="1.0" stroke-width="3.0" />
            <path d=" M 907.879, 717.590 897.885, 717.948 896.162, 718.010 895.309, 727.973 894.456, 737.937 893.603, 747.900 892.750, 757.864 891.897, 767.827 891.044, 777.791 890.191, 787.755 889.992, 790.077 " fill="none" stroke="rgb(0, 119, 0)" stroke-linecap="butt" stroke-linejoin="round" stroke-opacity="1.0" stroke-width="3.0" />
            <path d=" M 851.232, 540.824 850.481, 550.796 849.730, 560.767 848.979, 570.739 848.228, 580.711 847.478, 590.683 846.727, 600.655 845.976, 610.626 845.225, 620.598 844.474, 630.570 843.724, 640.542 842.973, 650.513 842.222, 660.485 841.471, 670.457 840.627, 681.663 850.623, 681.388 851.596, 681.362 " fill="none" stroke="rgb(0, 119, 0)" stroke-linecap="butt" stroke-linejoin="round" stroke-opacity="1.0" stroke-width="3.0" />
            <path d=" M 934.464, 932.717 935.420, 922.763 936.376, 912.809 937.332, 902.854 938.288, 892.900 939.244, 882.946 940.200, 872.992 941.156, 863.038 942.112, 853.083 943.068, 843.129 944.094, 832.448 944.213, 831.205 942.590, 831.304 941.637, 841.259 940.684, 851.213 939.730, 861.168 938.777, 871.122 937.824, 881.077 936.871, 891.031 935.918, 900.986 934.965, 910.940 934.011, 920.894 933.005, 931.406 932.867, 932.850 934.464, 932.717 " fill="none" stroke="rgb(0, 119, 0)" stroke-linecap="butt" stroke-linejoin="round" stroke-opacity="1.0" stroke-width="3.0" />
            <path d=" M 934.464, 932.717 933.005, 931.406 925.568, 924.721 918.131, 918.036 910.694, 911.351 903.256, 904.666 895.819, 897.981 888.382, 891.296 880.945, 884.611 873.508, 877.926 866.071, 871.241 858.634, 864.556 851.197, 857.871 843.760, 851.186 836.322, 844.501 828.885, 837.816 821.448, 831.131 814.011, 824.446 810.465, 821.258 800.481, 821.830 790.498, 822.402 780.514, 822.974 770.530, 823.545 760.547, 824.117 750.563, 824.689 740.579, 825.261 730.596, 825.833 720.612, 826.404 710.628, 826.976 700.645, 827.548 690.661, 828.120 680.678, 828.692 670.694, 829.263 660.710, 829.835 650.727, 830.407 640.743, 830.979 630.759, 831.551 620.776, 832.122 610.792, 832.694 600.808, 833.266 590.825, 833.838 580.841, 834.410 570.858, 834.981 560.874, 835.553 550.890, 836.125 540.907, 836.697 532.514, 837.177 523.018, 837.721 " fill="none" stroke="rgb(0, 119, 0)" stroke-linecap="butt" stroke-linejoin="round" stroke-opacity="1.0" stroke-width="3.0" />
            <path d=" M 909.320, 789.082 899.334, 789.596 889.992, 790.077 897.959, 796.120 905.927, 802.164 913.894, 808.207 921.861, 814.250 929.828, 820.294 937.796, 826.337 944.213, 831.205 " fill="none" stroke="rgb(0, 119, 0)" stroke-linecap="butt" stroke-linejoin="round" stroke-opacity="1.0" stroke-width="3.0" />
            <path d=" M 932.867, 932.850 925.437, 926.157 920.469, 921.681 911.042, 922.442 903.658, 915.699 896.901, 909.529 " fill="none" stroke="rgb(0, 119, 0)" stroke-linecap="butt" stroke-linejoin="round" stroke-opacity="1.0" stroke-width="3.0" />
            <path d=" M 775.174, 893.449 768.298, 886.110 758.323, 886.814 748.348, 887.518 738.373, 888.222 728.398, 888.925 718.422, 889.629 708.447, 890.333 698.472, 891.037 688.497, 891.740 680.018, 892.339 673.802, 884.506 667.585, 876.673 661.369, 868.840 655.152, 861.007 648.935, 853.174 643.349, 846.135 " fill="none" stroke="rgb(0, 119, 0)" stroke-linecap="butt" stroke-linejoin="round" stroke-opacity="1.0" stroke-width="3.0" />
            <path d=" M 639.393, 940.752 639.811, 930.761 640.229, 920.770 640.646, 910.778 641.064, 900.787 641.482, 890.796 641.899, 880.805 642.317, 870.813 642.735, 860.822 643.152, 850.831 643.349, 846.135 633.367, 846.738 623.385, 847.341 613.403, 847.945 603.421, 848.548 593.440, 849.152 583.458, 849.755 573.476, 850.358 563.494, 850.962 553.512, 851.565 543.531, 852.168 533.549, 852.772 532.174, 852.855 " fill="none" stroke="rgb(0, 119, 0)" stroke-linecap="butt" stroke-linejoin="round" stroke-opacity="1.0" stroke-width="3.0" />
            <path d=" M 882.724, 1069.267 883.608, 1059.306 884.492, 1049.345 885.376, 1039.384 886.260, 1029.423 887.144, 1019.463 887.881, 1011.164 888.765, 1001.203 888.871, 1000.011 889.755, 990.050 890.639, 980.089 891.523, 970.128 892.407, 960.167 893.291, 950.207 894.175, 940.246 895.059, 930.285 895.943, 920.324 896.901, 909.529 886.931, 910.303 876.961, 911.077 866.991, 911.852 857.021, 912.626 847.051, 913.400 837.081, 914.174 829.642, 914.752 " fill="none" stroke="rgb(0, 119, 0)" stroke-linecap="butt" stroke-linejoin="round" stroke-opacity="1.0" stroke-width="3.0" />
            <path d=" M 824.083, 987.421 824.846, 977.450 825.609, 967.479 826.371, 957.508 827.134, 947.537 827.897, 937.567 828.660, 927.596 829.422, 917.625 829.642, 914.752 822.615, 907.637 815.588, 900.522 808.561, 893.407 806.376, 891.195 " fill="none" stroke="rgb(0, 119, 0)" stroke-linecap="butt" stroke-linejoin="round" stroke-opacity="1.0" stroke-width="3.0" />
            <path d=" M 801.307, 961.681 802.024, 951.707 802.742, 941.733 803.459, 931.758 804.176, 921.784 804.894, 911.810 805.611, 901.836 806.376, 891.195 796.402, 891.916 786.428, 892.636 776.454, 893.356 775.174, 893.449 774.513, 903.427 773.852, 913.405 773.191, 923.383 772.530, 933.361 771.869, 943.339 771.208, 953.318 770.547, 963.296 770.475, 964.371 " fill="none" stroke="rgb(0, 119, 0)" stroke-linecap="butt" stroke-linejoin="round" stroke-opacity="1.0" stroke-width="3.0" />
            <path d=" M 1084.281, 777.566 1083.151, 776.904 1081.960, 786.833 1080.769, 796.762 1079.578, 806.690 1079.000, 811.508 1078.974, 811.728 1077.793, 821.565 1077.439, 824.521 1076.248, 834.449 1075.819, 838.020 1077.025, 837.942 1080.360, 837.727 1090.339, 837.083 1100.318, 836.439 1110.297, 835.794 1117.092, 835.356 1118.355, 825.436 1119.619, 815.516 1120.411, 809.299 1121.663, 799.465 " fill="none" stroke="rgb(0, 119, 0)" stroke-linecap="butt" stroke-linejoin="round" stroke-opacity="1.0" stroke-width="3.0" />
            <path d=" M 1117.092, 835.356 1108.616, 830.049 1100.140, 824.743 1091.664, 819.437 1083.188, 814.130 1080.117, 812.208 1079.000, 811.508 1070.524, 806.202 1062.048, 800.895 1053.572, 795.589 1045.096, 790.283 1036.620, 784.976 1028.144, 779.670 1019.668, 774.363 1011.192, 769.057 1002.716, 763.750 994.240, 758.444 988.815, 755.047 980.339, 749.741 971.863, 744.435 963.387, 739.128 954.911, 733.822 946.435, 728.515 937.959, 723.209 932.727, 719.933 " fill="none" stroke="rgb(0, 119, 0)" stroke-linecap="butt" stroke-linejoin="round" stroke-opacity="1.0" stroke-width="3.0" />
            <path d=" M 919.222, 720.426 929.216, 720.061 932.727, 719.933 933.644, 709.975 934.561, 700.017 935.479, 690.059 936.396, 680.102 937.313, 670.144 938.230, 660.186 939.148, 650.228 940.065, 640.270 940.982, 630.312 941.899, 620.354 942.817, 610.397 943.734, 600.439 944.651, 590.481 945.569, 580.523 946.486, 570.565 947.403, 560.607 948.320, 550.650 949.238, 540.692 950.155, 530.734 951.072, 520.776 951.990, 510.818 952.907, 500.860 953.824, 490.903 954.741, 480.945 955.659, 470.987 956.576, 461.029 957.493, 451.071 958.411, 441.113 959.328, 431.156 960.245, 421.198 961.162, 411.240 962.080, 401.282 962.997, 391.324 963.914, 381.366 964.831, 371.408 965.493, 364.223 965.733, 361.619 " fill="none" stroke="rgb(0, 119, 0)" stroke-linecap="butt" stroke-linejoin="round" stroke-opacity="1.0" stroke-width="3.0" />
            <path d=" M 1075.819, 838.020 1067.462, 832.528 1059.105, 827.036 1057.173, 825.767 " fill="none" stroke="rgb(0, 119, 0)" stroke-linecap="butt" stroke-linejoin="round" stroke-opacity="1.0" stroke-width="3.0" />
            <path d=" M 1081.989, 824.241 1078.907, 822.276 1077.793, 821.565 1069.362, 816.188 1060.931, 810.810 1052.500, 805.433 1044.069, 800.055 1035.638, 794.678 1027.207, 789.300 1018.776, 783.923 1010.345, 778.545 1001.914, 773.168 993.483, 767.790 987.874, 764.213 979.443, 758.835 971.012, 753.458 962.581, 748.080 954.150, 742.703 945.719, 737.325 937.288, 731.948 928.857, 726.570 920.425, 721.193 919.222, 720.426 920.116, 710.466 921.010, 700.506 921.904, 690.546 922.797, 680.586 923.691, 670.626 924.585, 660.666 925.479, 650.706 926.372, 640.746 927.266, 630.786 928.160, 620.826 929.054, 610.866 929.947, 600.906 930.841, 590.946 931.735, 580.986 932.629, 571.026 933.522, 561.066 934.416, 551.106 935.310, 541.146 936.203, 531.186 937.097, 521.226 937.991, 511.266 938.885, 501.306 939.778, 491.346 940.672, 481.386 941.566, 471.426 942.192, 464.448 " fill="none" stroke="rgb(0, 119, 0)" stroke-linecap="butt" stroke-linejoin="round" stroke-opacity="1.0" stroke-width="3.0" />
            <path d=" M 1081.989, 824.241 1078.646, 824.446 1077.439, 824.521 1067.458, 825.134 1057.477, 825.748 1057.173, 825.767 1056.018, 835.700 1054.862, 845.633 1054.360, 849.947 1053.205, 859.880 1052.049, 869.813 1050.893, 879.746 1050.794, 880.604 1049.638, 890.537 1049.418, 892.428 1048.262, 902.361 1048.173, 903.127 1048.080, 903.932 1047.271, 910.885 1055.705, 910.205 1056.354, 910.152 1066.322, 909.349 1068.463, 909.176 1071.762, 908.911 1072.694, 901.194 1073.893, 891.266 1074.651, 884.990 1075.850, 875.062 1077.007, 865.487 1078.206, 855.559 1079.405, 845.631 1080.360, 837.727 1081.559, 827.799 1081.989, 824.241 " fill="none" stroke="rgb(0, 119, 0)" stroke-linecap="butt" stroke-linejoin="round" stroke-opacity="1.0" stroke-width="3.0" />
            <path d=" M 934.013, 464.286 938.240, 464.370 942.192, 464.448 938.333, 463.320 934.105, 463.235 930.188, 463.156 934.013, 464.286 " fill="none" stroke="rgb(0, 119, 0)" stroke-linecap="butt" stroke-linejoin="round" stroke-opacity="1.0" stroke-width="3.0" />
            <path d=" M 934.013, 464.286 934.105, 463.235 934.985, 453.274 935.865, 443.312 936.746, 433.351 937.626, 423.390 938.506, 413.429 939.386, 403.468 940.266, 393.506 941.146, 383.545 942.026, 373.584 942.906, 363.623 943.168, 360.654 " fill="none" stroke="rgb(0, 119, 0)" stroke-linecap="butt" stroke-linejoin="round" stroke-opacity="1.0" stroke-width="3.0" />
            <path d=" M 1046.100, 374.203 1036.220, 372.656 1026.326, 371.107 1016.446, 369.560 1006.567, 368.013 996.687, 366.466 986.807, 364.919 976.928, 363.372 967.048, 361.825 965.733, 361.619 955.742, 361.192 945.752, 360.764 943.168, 360.654 953.043, 362.232 962.917, 363.811 965.493, 364.223 975.368, 365.801 985.243, 367.380 995.117, 368.958 1002.384, 370.120 1012.258, 371.698 1022.133, 373.277 1032.008, 374.856 1041.882, 376.434 1045.798, 377.060 " fill="none" stroke="rgb(0, 119, 0)" stroke-linecap="butt" stroke-linejoin="round" stroke-opacity="1.0" stroke-width="3.0" />
            <path d=" M 1023.768, 431.356 1023.753, 431.505 1022.728, 441.453 1021.704, 451.400 1020.870, 459.495 1019.846, 469.442 1018.822, 479.389 1018.396, 483.519 1017.372, 493.467 1016.348, 503.414 1015.323, 513.361 1014.299, 523.309 1013.566, 530.430 1014.297, 530.683 1014.323, 530.434 1015.349, 520.487 1016.374, 510.540 1017.400, 500.592 1018.425, 490.645 1019.159, 483.531 1020.185, 473.584 1021.210, 463.637 1021.617, 459.689 " fill="none" stroke="rgb(0, 119, 0)" stroke-linecap="butt" stroke-linejoin="round" stroke-opacity="1.0" stroke-width="3.0" />
            <path d=" M 1013.566, 530.430 1014.323, 530.434 1024.323, 530.488 1034.323, 530.541 1044.323, 530.595 1054.322, 530.649 1063.838, 530.700 " fill="none" stroke="rgb(0, 119, 0)" stroke-linecap="butt" stroke-linejoin="round" stroke-opacity="1.0" stroke-width="3.0" />
            <path d=" M 1063.838, 530.700 1063.107, 537.252 1061.998, 547.191 1060.888, 557.129 1059.779, 567.067 1058.670, 577.006 1057.561, 586.944 1056.452, 596.882 1055.343, 606.821 1054.234, 616.759 1053.125, 626.697 1052.016, 636.635 1050.907, 646.574 1049.798, 656.512 1048.689, 666.450 1047.579, 676.389 1046.470, 686.327 1045.361, 696.265 1044.252, 706.204 1043.143, 716.142 1042.034, 726.080 1040.925, 736.019 1039.816, 745.957 1038.707, 755.895 1037.598, 765.833 1036.489, 775.772 1036.096, 779.291 1044.595, 784.560 1053.094, 789.829 1054.943, 790.975 1056.087, 781.041 1056.407, 778.261 1057.552, 768.326 1058.697, 758.392 1059.841, 748.458 1060.986, 738.523 1062.130, 728.589 1063.275, 718.655 1064.419, 708.721 1065.564, 698.786 1066.708, 688.852 1067.853, 678.918 1068.997, 668.983 1070.142, 659.049 1071.286, 649.115 1072.431, 639.181 1073.576, 629.246 1074.720, 619.312 1075.865, 609.378 1077.009, 599.443 1078.154, 589.509 1079.298, 579.575 1080.443, 569.641 1081.587, 559.706 1082.732, 549.772 1083.876, 539.838 1084.165, 537.334 1074.658, 534.231 1065.152, 531.129 1063.838, 530.700 " fill="none" stroke="rgb(0, 119, 0)" stroke-linecap="butt" stroke-linejoin="round" stroke-opacity="1.0" stroke-width="3.0" />
            <path d=" M 1036.096, 779.291 1046.083, 778.784 1056.070, 778.278 1056.407, 778.261 1066.395, 777.754 1076.382, 777.247 1083.151, 776.904 " fill="none" stroke="rgb(0, 119, 0)" stroke-linecap="butt" stroke-linejoin="round" stroke-opacity="1.0" stroke-width="3.0" />
            <path d=" M 466.716, 673.924 470.880, 673.824 470.983, 663.825 471.085, 653.825 471.087, 653.616 481.085, 653.417 491.083, 653.219 501.081, 653.020 501.431, 653.013 509.628, 652.850 513.224, 652.779 513.401, 642.781 513.577, 632.782 513.753, 622.784 513.929, 612.785 514.105, 602.787 514.281, 592.788 514.457, 582.790 514.633, 572.791 514.809, 562.793 514.985, 552.794 515.161, 542.796 515.338, 532.798 515.514, 522.799 515.690, 512.801 515.866, 502.802 516.042, 492.804 516.236, 481.765 516.336, 476.089 516.406, 472.110 516.436, 470.402 516.510, 466.232 516.513, 466.034 516.523, 465.513 516.562, 463.261 516.738, 453.262 516.776, 451.104 516.837, 447.662 516.930, 442.385 517.106, 432.387 517.282, 422.388 517.392, 416.132 " fill="none" stroke="rgb(0, 119, 0)" stroke-linecap="butt" stroke-linejoin="round" stroke-opacity="1.0" stroke-width="3.0" />
            <path d=" M 470.880, 673.824 466.771, 668.055 " fill="none" stroke="rgb(0, 119, 0)" stroke-linecap="butt" stroke-linejoin="round" stroke-opacity="1.0" stroke-width="3.0" />
            <path d=" M 801.307, 961.681 807.934, 969.170 814.560, 976.659 821.187, 984.148 824.083, 987.421 814.126, 988.349 804.169, 989.277 794.213, 990.205 792.307, 990.383 785.878, 982.723 779.450, 975.063 773.021, 967.404 770.475, 964.371 780.438, 963.502 790.400, 962.633 800.362, 961.764 801.307, 961.681 " fill="none" stroke="rgb(0, 119, 0)" stroke-linecap="butt" stroke-linejoin="round" stroke-opacity="1.0" stroke-width="3.0" />
            <path d=" M 930.188, 463.156 929.314, 473.118 928.441, 483.080 927.567, 493.041 926.694, 503.003 925.820, 512.965 924.947, 522.927 924.073, 532.888 923.200, 542.850 922.327, 552.812 921.453, 562.774 920.580, 572.736 919.706, 582.697 918.833, 592.659 917.959, 602.621 917.086, 612.583 916.212, 622.545 915.339, 632.506 914.466, 642.468 913.592, 652.430 912.719, 662.392 911.845, 672.353 910.972, 682.315 910.098, 692.277 909.225, 702.239 908.351, 712.201 907.879, 717.590 899.470, 712.178 891.062, 706.765 882.653, 701.353 874.244, 695.940 865.836, 690.528 857.427, 685.115 851.596, 681.362 852.366, 671.391 853.136, 661.421 853.906, 651.451 854.675, 641.480 855.445, 631.510 856.215, 621.540 856.985, 611.569 857.755, 601.599 858.525, 591.629 859.295, 581.659 860.065, 571.688 860.835, 561.718 861.605, 551.748 862.375, 541.777 863.144, 531.807 863.914, 521.837 864.684, 511.866 865.454, 501.896 866.224, 491.926 866.994, 481.955 867.764, 471.985 868.534, 462.015 869.304, 452.044 870.074, 442.074 870.844, 432.104 871.614, 422.133 872.383, 412.163 873.153, 402.193 873.923, 392.222 874.693, 382.252 875.463, 372.282 876.233, 362.312 877.003, 352.341 877.498, 345.933 " fill="none" stroke="rgb(0, 119, 0)" stroke-linecap="butt" stroke-linejoin="round" stroke-opacity="1.0" stroke-width="3.0" />
            <path d=" M 493.650, 465.103 494.434, 465.640 " fill="none" stroke="rgb(0, 119, 0)" stroke-linecap="butt" stroke-linejoin="round" stroke-opacity="1.0" stroke-width="3.0" />
            <path d=" M 524.961, 466.184 524.112, 465.649 " fill="none" stroke="rgb(0, 119, 0)" stroke-linecap="butt" stroke-linejoin="round" stroke-opacity="1.0" stroke-width="3.0" />
            <path d=" M 1071.762, 908.911 1068.761, 906.697 1060.714, 900.761 1057.129, 898.117 1049.418, 892.428 1048.454, 891.717 1040.407, 885.781 1032.360, 879.845 1024.312, 873.908 1016.265, 867.972 1008.217, 862.036 1000.170, 856.099 992.123, 850.163 984.075, 844.227 976.028, 838.290 967.981, 832.354 959.933, 826.418 951.886, 820.481 943.839, 814.545 935.791, 808.609 927.744, 802.673 919.696, 796.736 911.649, 790.800 909.320, 789.082 910.208, 779.122 911.095, 769.161 911.982, 759.201 912.869, 749.240 913.756, 739.279 914.643, 729.319 915.530, 719.358 916.417, 709.398 917.304, 699.437 918.192, 689.477 919.079, 679.516 919.966, 669.555 920.853, 659.595 921.740, 649.634 922.627, 639.674 923.514, 629.713 924.401, 619.753 925.288, 609.792 926.176, 599.831 927.063, 589.871 927.950, 579.910 928.837, 569.950 929.724, 559.989 930.611, 550.029 931.498, 540.068 932.385, 530.107 933.272, 520.147 934.159, 510.186 935.047, 500.226 935.934, 490.265 936.821, 480.305 937.708, 470.344 938.240, 464.370 938.333, 463.320 " fill="none" stroke="rgb(0, 119, 0)" stroke-linecap="butt" stroke-linejoin="round" stroke-opacity="1.0" stroke-width="3.0" />
            <path d=" M 1047.271, 910.885 1039.310, 904.833 1031.349, 898.781 1023.388, 892.729 1015.428, 886.677 1007.467, 880.625 999.506, 874.573 991.545, 868.521 983.585, 862.469 975.624, 856.417 967.663, 850.365 959.702, 844.313 951.741, 838.261 944.094, 832.448 942.590, 831.304 " fill="none" stroke="rgb(0, 119, 0)" stroke-linecap="butt" stroke-linejoin="round" stroke-opacity="1.0" stroke-width="3.0" />
            <path d=" M 529.362, 1108.925 539.300, 1107.810 546.895, 1106.958 556.832, 1105.842 566.770, 1104.727 576.707, 1103.612 586.645, 1102.496 596.583, 1101.381 606.520, 1100.266 616.458, 1099.150 626.396, 1098.035 636.333, 1096.920 646.271, 1095.804 656.208, 1094.689 666.146, 1093.574 676.083, 1092.458 686.021, 1091.343 695.959, 1090.228 705.896, 1089.113 715.834, 1087.997 725.772, 1086.882 735.709, 1085.767 745.647, 1084.651 755.584, 1083.536 765.522, 1082.421 775.460, 1081.305 785.397, 1080.190 795.335, 1079.075 805.272, 1077.959 815.210, 1076.844 825.148, 1075.729 835.085, 1074.613 845.023, 1073.498 854.961, 1072.383 864.898, 1071.267 874.836, 1070.152 882.724, 1069.267 889.281, 1076.818 895.837, 1084.368 902.394, 1091.919 908.950, 1099.469 915.507, 1107.020 922.063, 1114.571 928.620, 1122.121 935.176, 1129.672 941.733, 1137.223 948.289, 1144.773 954.846, 1152.324 961.402, 1159.875 967.958, 1167.425 974.515, 1174.976 981.072, 1182.527 987.628, 1190.077 994.185, 1197.628 1000.741, 1205.179 1007.297, 1212.729 1013.854, 1220.280 1019.422, 1226.693 1025.979, 1234.243 1027.030, 1235.454 1033.586, 1243.004 1040.143, 1250.555 1040.564, 1251.040 1047.121, 1258.591 1053.677, 1266.141 1054.116, 1266.647 1060.056, 1273.487 " fill="none" stroke="rgb(0, 119, 0)" stroke-linecap="butt" stroke-linejoin="round" stroke-opacity="1.0" stroke-width="3.0" />
            <path d=" M 629.046, 1343.762 629.365, 1336.364 " fill="none" stroke="rgb(0, 119, 0)" stroke-linecap="butt" stroke-linejoin="round" stroke-opacity="1.0" stroke-width="3.0" />
            <path d=" M 302.903, 632.852 306.316, 642.252 309.730, 651.651 312.520, 659.332 " fill="none" stroke="rgb(0, 119, 0)" stroke-linecap="butt" stroke-linejoin="round" stroke-opacity="1.0" stroke-width="3.0" />
            <path d=" M 309.298, 967.153 317.905, 966.465 327.874, 965.667 337.842, 964.870 347.810, 964.073 357.778, 963.276 367.746, 962.478 377.714, 961.681 387.683, 960.884 397.651, 960.087 407.619, 959.289 417.587, 958.492 427.555, 957.695 437.523, 956.898 447.492, 956.100 457.460, 955.303 467.428, 954.506 477.396, 953.709 487.364, 952.911 497.332, 952.114 507.301, 951.317 513.966, 950.784 523.934, 949.987 533.902, 949.189 541.371, 948.592 551.340, 947.795 561.308, 946.997 571.276, 946.200 581.244, 945.403 591.212, 944.606 601.180, 943.809 611.149, 943.011 621.117, 942.214 631.085, 941.417 639.393, 940.752 645.026, 949.015 650.658, 957.278 656.290, 965.541 661.922, 973.804 667.555, 982.068 673.187, 990.331 678.819, 998.594 684.451, 1006.857 690.083, 1015.120 692.785, 1019.084 698.418, 1027.347 699.810, 1029.390 689.859, 1030.381 688.055, 1030.560 " fill="none" stroke="rgb(0, 119, 0)" stroke-linecap="butt" stroke-linejoin="round" stroke-opacity="1.0" stroke-width="3.0" />
            <path d=" M 687.255, 1046.064 687.770, 1036.077 688.028, 1031.085 688.055, 1030.560 682.513, 1022.236 681.166, 1020.214 675.624, 1011.890 670.081, 1003.566 664.539, 995.243 658.997, 986.919 653.455, 978.595 647.913, 970.272 642.370, 961.948 636.828, 953.624 631.286, 945.300 630.249, 943.743 " fill="none" stroke="rgb(0, 119, 0)" stroke-linecap="butt" stroke-linejoin="round" stroke-opacity="1.0" stroke-width="3.0" />
            <path d=" M 629.686, 957.784 630.087, 947.792 630.249, 943.743 620.281, 944.545 610.314, 945.347 600.346, 946.149 590.378, 946.951 580.410, 947.753 570.442, 948.554 560.475, 949.356 550.507, 950.158 542.555, 950.798 532.588, 951.600 522.620, 952.402 515.071, 953.009 505.103, 953.811 495.135, 954.613 485.168, 955.414 475.200, 956.216 465.232, 957.018 455.264, 957.820 445.296, 958.622 435.329, 959.424 425.361, 960.226 415.393, 961.027 405.425, 961.829 395.457, 962.631 385.490, 963.433 375.522, 964.235 365.554, 965.037 355.586, 965.839 345.618, 966.641 335.651, 967.442 325.683, 968.244 317.948, 968.867 317.619, 968.893 " fill="none" stroke="rgb(0, 119, 0)" stroke-linecap="butt" stroke-linejoin="round" stroke-opacity="1.0" stroke-width="3.0" />
            <path d=" M 344.199, 1136.534 344.068, 1126.535 344.001, 1121.412 " fill="none" stroke="rgb(0, 119, 0)" stroke-linecap="butt" stroke-linejoin="round" stroke-opacity="1.0" stroke-width="3.0" />
            <path d=" M 317.881, 983.769 318.208, 983.741 320.793, 983.526 330.759, 982.696 340.724, 981.865 350.690, 981.035 360.655, 980.204 370.621, 979.374 380.586, 978.543 390.551, 977.713 400.517, 976.882 410.482, 976.052 420.448, 975.221 430.413, 974.391 440.379, 973.560 450.344, 972.730 460.310, 971.899 470.275, 971.069 480.241, 970.238 490.206, 969.408 500.171, 968.577 510.137, 967.747 521.905, 966.766 531.871, 965.935 541.836, 965.105 549.875, 964.435 559.840, 963.605 569.806, 962.774 579.771, 961.944 589.737, 961.113 599.702, 960.283 609.667, 959.452 619.633, 958.622 629.686, 957.784 635.148, 966.160 640.610, 974.537 646.073, 982.913 651.535, 991.289 656.997, 999.666 662.460, 1008.042 667.922, 1016.418 671.039, 1021.199 676.502, 1029.575 678.130, 1032.072 683.592, 1040.448 687.255, 1046.064 677.307, 1047.087 667.359, 1048.109 657.412, 1049.132 647.464, 1050.154 637.517, 1051.177 627.569, 1052.199 617.621, 1053.222 607.674, 1054.245 597.726, 1055.267 587.779, 1056.290 577.831, 1057.312 567.884, 1058.335 557.936, 1059.357 547.988, 1060.380 538.041, 1061.402 530.400, 1062.188 " fill="none" stroke="rgb(0, 119, 0)" stroke-linecap="butt" stroke-linejoin="round" stroke-opacity="1.0" stroke-width="3.0" />
            <path d=" M 547.090, 1099.300 537.151, 1100.400 529.533, 1101.243 519.593, 1102.343 509.654, 1103.443 499.715, 1104.543 489.775, 1105.643 479.836, 1106.743 478.775, 1106.861 " fill="none" stroke="rgb(0, 119, 0)" stroke-linecap="butt" stroke-linejoin="round" stroke-opacity="1.0" stroke-width="3.0" />
            <path d=" M 352.199, 1144.931 352.091, 1135.638 351.996, 1127.384 " fill="none" stroke="rgb(0, 119, 0)" stroke-linecap="butt" stroke-linejoin="round" stroke-opacity="1.0" stroke-width="3.0" />
            <path d=" M 534.506, 1198.040 530.868, 1188.725 527.231, 1179.410 526.216, 1176.812 517.032, 1177.968 513.253, 1178.444 504.972, 1179.486 " fill="none" stroke="rgb(0, 119, 0)" stroke-linecap="butt" stroke-linejoin="round" stroke-opacity="1.0" stroke-width="3.0" />
            <path d=" M 526.216, 1176.812 525.997, 1186.809 525.778, 1196.807 525.726, 1199.184 " fill="none" stroke="rgb(0, 119, 0)" stroke-linecap="butt" stroke-linejoin="round" stroke-opacity="1.0" stroke-width="3.0" />
            <path d=" M 540.431, 946.840 540.196, 956.838 539.960, 966.835 539.724, 976.832 539.488, 986.829 539.252, 996.827 539.143, 1001.465 " fill="none" stroke="rgb(0, 119, 0)" stroke-linecap="butt" stroke-linejoin="round" stroke-opacity="1.0" stroke-width="3.0" />
            <path d=" M 487.291, 1112.238 487.176, 1120.297 487.047, 1129.372 " fill="none" stroke="rgb(0, 119, 0)" stroke-linecap="butt" stroke-linejoin="round" stroke-opacity="1.0" stroke-width="3.0" />
            <path d=" M 525.692, 1200.738 525.131, 1199.262 521.576, 1189.915 518.021, 1180.568 517.032, 1177.968 513.445, 1168.537 509.890, 1159.190 506.336, 1149.843 505.538, 1147.744 505.002, 1146.337 501.448, 1136.991 497.893, 1127.644 494.338, 1118.297 490.783, 1108.950 490.363, 1107.845 480.424, 1108.950 479.577, 1109.044 478.746, 1109.137 475.109, 1109.541 471.306, 1109.964 461.367, 1111.068 451.428, 1112.173 444.154, 1112.981 443.307, 1113.075 444.587, 1117.018 447.126, 1124.845 449.983, 1133.649 453.069, 1143.161 456.155, 1152.673 459.241, 1162.185 462.327, 1171.697 465.413, 1181.208 468.499, 1190.720 469.452, 1193.657 " fill="none" stroke="rgb(0, 119, 0)" stroke-linecap="butt" stroke-linejoin="round" stroke-opacity="1.0" stroke-width="3.0" />
            <path d=" M 490.363, 1107.845 490.215, 1117.844 490.184, 1119.956 " fill="none" stroke="rgb(0, 119, 0)" stroke-linecap="butt" stroke-linejoin="round" stroke-opacity="1.0" stroke-width="3.0" />
            <path d=" M 443.307, 1113.075 443.323, 1110.426 " fill="none" stroke="rgb(0, 119, 0)" stroke-linecap="butt" stroke-linejoin="round" stroke-opacity="1.0" stroke-width="3.0" />
            <path d=" M 478.238, 1149.528 488.168, 1148.344 498.098, 1147.161 505.002, 1146.337 514.932, 1145.154 524.862, 1143.970 534.792, 1142.786 543.305, 1141.771 546.014, 1141.448 " fill="none" stroke="rgb(0, 119, 0)" stroke-linecap="butt" stroke-linejoin="round" stroke-opacity="1.0" stroke-width="3.0" />
            <path d=" M 998.537, 1276.733 1003.374, 1282.729 1009.652, 1290.513 1015.930, 1298.296 1022.208, 1306.080 1028.486, 1313.864 1034.764, 1321.648 1041.042, 1329.431 1045.520, 1334.983 " fill="none" stroke="rgb(0, 119, 0)" stroke-linecap="butt" stroke-linejoin="round" stroke-opacity="1.0" stroke-width="3.0" />
            <path d=" M 984.739, 794.737 994.725, 794.202 1004.711, 793.667 1014.696, 793.132 1024.682, 792.596 1034.668, 792.061 1044.654, 791.526 1054.943, 790.975 " fill="none" stroke="rgb(0, 119, 0)" stroke-linecap="butt" stroke-linejoin="round" stroke-opacity="1.0" stroke-width="3.0" />
            <path d=" M 1084.165, 537.334 1074.165, 537.295 1064.165, 537.257 1063.107, 537.252 1053.107, 537.214 1043.107, 537.175 1033.107, 537.136 1023.107, 537.097 1013.107, 537.059 1011.201, 537.051 " fill="none" stroke="rgb(0, 119, 0)" stroke-linecap="butt" stroke-linejoin="round" stroke-opacity="1.0" stroke-width="3.0" />
            <path d=" M 517.711, 948.649 517.531, 957.960 " fill="none" stroke="rgb(0, 119, 0)" stroke-linecap="butt" stroke-linejoin="round" stroke-opacity="1.0" stroke-width="3.0" />
            <path d=" M 509.378, 932.099 509.216, 941.222 " fill="none" stroke="rgb(0, 119, 0)" stroke-linecap="butt" stroke-linejoin="round" stroke-opacity="1.0" stroke-width="3.0" />
            <path d=" M 268.570, 1003.837 278.533, 1002.976 288.496, 1002.115 298.459, 1001.254 308.422, 1000.394 316.012, 999.738 318.485, 999.524 " fill="none" stroke="rgb(0, 119, 0)" stroke-linecap="butt" stroke-linejoin="round" stroke-opacity="1.0" stroke-width="3.0" />
            <path d=" M 1014.297, 530.683 1004.297, 530.630 994.298, 530.576 992.888, 530.569 " fill="none" stroke="rgb(0, 119, 0)" stroke-linecap="butt" stroke-linejoin="round" stroke-opacity="1.0" stroke-width="3.0" />
            <path d=" M 1046.931, 984.637 1047.904, 985.457 1055.548, 991.905 1058.247, 994.182 " fill="none" stroke="rgb(0, 119, 0)" stroke-linecap="butt" stroke-linejoin="round" stroke-opacity="1.0" stroke-width="3.0" />
            <path d=" M 443.503, 777.382 453.493, 776.939 463.483, 776.496 473.473, 776.053 483.463, 775.609 493.454, 775.166 499.536, 774.896 509.546, 774.452 " fill="none" stroke="rgb(0, 119, 0)" stroke-linecap="butt" stroke-linejoin="round" stroke-opacity="1.0" stroke-width="3.0" />
            <path d=" M 1011.764, 1291.558 1005.480, 1283.779 1004.486, 1282.548 998.693, 1275.377 " fill="none" stroke="rgb(0, 119, 0)" stroke-linecap="butt" stroke-linejoin="round" stroke-opacity="1.0" stroke-width="3.0" />
            <path d=" M 1022.713, 1271.504 1028.638, 1278.610 1035.043, 1286.290 1036.084, 1287.537 " fill="none" stroke="rgb(0, 119, 0)" stroke-linecap="butt" stroke-linejoin="round" stroke-opacity="1.0" stroke-width="3.0" />
            <path d=" M 466.961, 648.093 471.087, 653.616 " fill="none" stroke="rgb(0, 119, 0)" stroke-linecap="butt" stroke-linejoin="round" stroke-opacity="1.0" stroke-width="3.0" />
            <path d=" M 584.459, 1041.409 584.782, 1031.414 584.841, 1029.583 " fill="none" stroke="rgb(0, 119, 0)" stroke-linecap="butt" stroke-linejoin="round" stroke-opacity="1.0" stroke-width="3.0" />
            <path d=" M 1071.340, 885.239 1061.368, 885.989 1058.534, 886.203 " fill="none" stroke="rgb(0, 119, 0)" stroke-linecap="butt" stroke-linejoin="round" stroke-opacity="1.0" stroke-width="3.0" />
            <path d=" M 1080.184, 811.657 1078.974, 811.728 1068.991, 812.313 1059.008, 812.898 1049.025, 813.483 1039.042, 814.068 1029.059, 814.653 1019.076, 815.238 1015.337, 815.457 " fill="none" stroke="rgb(0, 119, 0)" stroke-linecap="butt" stroke-linejoin="round" stroke-opacity="1.0" stroke-width="3.0" />
        </g>
    </g>
</svg>
