<?xml version='1.0' encoding='ascii'?>
<svg xmlns="http://www.w3.org/2000/svg" xmlns:inkscape="http://www.inkscape.org/namespaces/inkscape" height="1500" version="1.1" width="1500">
    <g id="fressstylelayer_LineSet" inkscape:groupmode="lineset" inkscape:label="fressstylelayer_LineSet">
        <g id="strokes" inkscape:groupmode="layer" inkscape:label="strokes">
            <path d=" M 465.643, 695.997 475.639, 695.723 485.635, 695.448 495.632, 695.174 505.628, 694.900 515.624, 694.625 525.620, 694.351 535.617, 694.076 545.613, 693.802 555.609, 693.528 565.605, 693.253 575.602, 692.979 579.980, 692.859 " fill="none" stroke="rgb(157, 20, 170)" stroke-linecap="butt" stroke-linejoin="round" stroke-opacity="1.0" stroke-width="3.0" />
            <path d=" M 722.706, 932.760 715.510, 934.493 709.077, 936.042 706.161, 936.744 701.019, 937.982 698.493, 936.866 689.347, 932.824 680.200, 928.782 671.053, 924.741 661.906, 920.699 652.759, 916.657 643.613, 912.615 634.466, 908.573 625.319, 904.532 615.752, 900.304 606.606, 896.262 597.459, 892.221 588.312, 888.179 579.165, 884.137 576.649, 883.025 576.090, 882.778 566.943, 878.736 557.796, 874.695 548.649, 870.653 545.038, 869.057 546.983, 859.248 548.929, 849.439 550.874, 839.630 552.819, 829.821 554.764, 820.012 556.709, 810.203 558.655, 800.394 560.600, 790.585 562.545, 780.776 564.490, 770.967 566.435, 761.158 568.381, 751.349 570.326, 741.540 572.271, 731.731 574.216, 721.922 576.161, 712.113 578.107, 702.304 579.980, 692.859 570.568, 689.479 561.157, 686.099 551.745, 682.719 542.334, 679.339 532.923, 675.959 523.511, 672.578 514.829, 669.460 " fill="none" stroke="rgb(157, 20, 170)" stroke-linecap="butt" stroke-linejoin="round" stroke-opacity="1.0" stroke-width="3.0" />
            <path d=" M 533.904, 568.854 532.041, 578.679 530.178, 588.504 528.315, 598.329 526.453, 608.154 524.590, 617.979 522.727, 627.804 520.864, 637.629 519.001, 647.454 517.138, 657.279 515.275, 667.104 514.829, 669.460 504.829, 669.548 494.829, 669.636 484.830, 669.724 474.830, 669.812 471.236, 669.844 " fill="none" stroke="rgb(157, 20, 170)" stroke-linecap="butt" stroke-linejoin="round" stroke-opacity="1.0" stroke-width="3.0" />
            <path d=" M 293.147, 580.333 283.159, 579.842 273.171, 579.352 263.183, 578.861 253.195, 578.371 247.098, 578.071 237.110, 577.581 227.122, 577.090 217.134, 576.599 207.146, 576.109 197.158, 575.618 187.170, 575.127 177.182, 574.637 167.194, 574.146 157.206, 573.656 147.218, 573.165 140.920, 572.856 139.521, 582.757 138.123, 592.659 136.724, 602.561 135.325, 612.462 133.926, 622.364 132.528, 632.266 131.129, 642.167 129.730, 652.069 128.332, 661.971 126.933, 671.873 125.534, 681.774 124.135, 691.676 122.737, 701.578 121.338, 711.479 119.939, 721.381 118.541, 731.283 117.142, 741.184 115.743, 751.086 114.344, 760.988 112.946, 770.890 111.547, 780.791 110.148, 790.693 108.750, 800.595 107.351, 810.496 105.952, 820.398 104.553, 830.300 103.155, 840.201 101.756, 850.103 100.357, 860.005 98.959, 869.906 97.560, 879.808 96.161, 889.710 94.762, 899.612 93.364, 909.513 91.965, 919.415 90.566, 929.317 89.168, 939.218 87.769, 949.120 86.370, 959.022 84.971, 968.923 83.573, 978.825 82.174, 988.727 80.876, 997.918 89.353, 1003.222 97.831, 1008.526 106.308, 1013.830 114.786, 1019.134 123.263, 1024.438 131.740, 1029.742 140.218, 1035.046 148.695, 1040.350 157.173, 1045.654 165.650, 1050.958 174.128, 1056.262 182.605, 1061.566 191.083, 1066.870 199.560, 1072.174 208.038, 1077.478 216.515, 1082.782 224.993, 1088.086 233.470, 1093.390 241.948, 1098.694 250.425, 1103.998 258.903, 1109.302 267.380, 1114.606 275.857, 1119.910 284.335, 1125.214 292.812, 1130.518 301.290, 1135.822 309.767, 1141.126 318.245, 1146.430 326.722, 1151.734 335.200, 1157.038 343.677, 1162.342 352.155, 1167.646 360.632, 1172.950 369.110, 1178.254 376.069, 1182.608 385.500, 1179.284 394.932, 1175.960 404.363, 1172.635 413.794, 1169.311 423.225, 1165.987 432.657, 1162.662 442.088, 1159.338 451.519, 1156.014 460.951, 1152.690 470.382, 1149.365 479.813, 1146.041 489.244, 1142.717 498.676, 1139.392 508.107, 1136.068 517.538, 1132.744 526.969, 1129.419 529.302, 1128.597 533.437, 1127.140 " fill="none" stroke="rgb(157, 20, 170)" stroke-linecap="butt" stroke-linejoin="round" stroke-opacity="1.0" stroke-width="3.0" />
            <path d=" M 140.920, 572.856 150.270, 576.401 159.620, 579.947 168.971, 583.493 178.321, 587.039 187.671, 590.585 197.021, 594.130 206.372, 597.676 215.722, 601.222 225.072, 604.768 234.423, 608.314 241.984, 611.181 251.334, 614.727 260.685, 618.273 270.035, 621.819 279.385, 625.364 285.559, 627.706 294.910, 631.252 304.260, 634.797 313.610, 638.343 322.960, 641.889 332.311, 645.435 341.661, 648.981 351.011, 652.526 360.361, 656.072 369.712, 659.618 379.062, 663.164 388.412, 666.710 397.762, 670.255 407.113, 673.801 416.463, 677.347 425.813, 680.893 435.163, 684.439 444.514, 687.984 453.864, 691.530 463.214, 695.076 465.643, 695.997 463.833, 705.832 462.022, 715.667 460.212, 725.501 458.401, 735.336 456.591, 745.171 454.781, 755.006 452.970, 764.840 451.160, 774.675 449.350, 784.510 447.539, 794.345 445.729, 804.179 443.919, 814.014 442.108, 823.849 440.298, 833.684 438.488, 843.518 436.677, 853.353 434.867, 863.188 433.057, 873.023 431.246, 882.857 429.436, 892.692 427.625, 902.527 425.815, 912.362 424.005, 922.197 422.194, 932.031 420.384, 941.866 418.574, 951.701 416.763, 961.536 414.953, 971.370 413.143, 981.205 411.332, 991.040 409.522, 1000.875 407.712, 1010.709 405.901, 1020.544 404.091, 1030.379 402.281, 1040.214 400.470, 1050.049 398.660, 1059.883 396.849, 1069.718 395.039, 1079.553 393.229, 1089.388 391.418, 1099.222 389.608, 1109.057 387.798, 1118.892 385.987, 1128.727 384.177, 1138.561 382.367, 1148.396 380.556, 1158.231 378.746, 1168.066 376.069, 1182.608 " fill="none" stroke="rgb(157, 20, 170)" stroke-linecap="butt" stroke-linejoin="round" stroke-opacity="1.0" stroke-width="3.0" />
            <path d=" M 490.369, 565.954 488.558, 575.789 486.747, 585.623 484.936, 595.458 483.124, 605.293 481.313, 615.127 479.502, 624.962 477.690, 634.796 475.879, 644.631 474.068, 654.466 472.257, 664.300 471.236, 669.844 461.846, 666.403 452.457, 662.963 443.067, 659.522 433.677, 656.082 424.288, 652.642 414.898, 649.201 405.509, 645.761 396.119, 642.320 386.730, 638.880 377.340, 635.439 367.951, 631.999 358.561, 628.559 349.172, 625.118 343.848, 623.168 345.499, 613.305 347.149, 603.442 347.775, 599.697 349.425, 589.834 351.076, 579.971 352.726, 570.108 354.376, 560.245 356.026, 550.382 357.676, 540.519 359.326, 530.656 360.310, 524.776 370.271, 525.655 380.233, 526.534 382.420, 526.727 392.381, 527.606 402.343, 528.484 405.261, 528.742 " fill="none" stroke="rgb(157, 20, 170)" stroke-linecap="butt" stroke-linejoin="round" stroke-opacity="1.0" stroke-width="3.0" />
            <path d=" M 977.344, 390.387 979.668, 380.660 981.993, 370.934 983.874, 363.062 974.389, 359.895 964.904, 356.726 955.419, 353.558 945.934, 350.391 936.449, 347.222 926.964, 344.054 917.479, 340.886 907.995, 337.718 898.510, 334.550 889.025, 331.382 879.540, 328.214 870.055, 325.046 860.570, 321.878 851.085, 318.710 841.600, 315.542 832.115, 312.374 822.630, 309.206 813.145, 306.038 803.660, 302.870 794.175, 299.702 784.691, 296.534 775.206, 293.366 765.721, 290.198 756.236, 287.030 746.751, 283.862 737.266, 280.694 727.781, 277.526 718.296, 274.358 710.005, 271.589 700.143, 269.933 690.281, 268.278 680.419, 266.623 670.557, 264.967 660.695, 263.312 650.833, 261.657 640.971, 260.001 631.109, 258.346 621.247, 256.691 611.385, 255.035 601.523, 253.380 591.661, 251.724 581.799, 250.069 571.937, 248.414 562.075, 246.758 552.213, 245.103 542.351, 243.448 532.489, 241.792 522.627, 240.137 512.765, 238.482 502.903, 236.826 493.040, 235.171 483.178, 233.515 473.316, 231.860 463.454, 230.205 453.592, 228.549 443.730, 226.894 433.868, 225.239 424.006, 223.583 414.144, 221.928 404.282, 220.272 394.420, 218.617 384.558, 216.962 374.696, 215.306 364.834, 213.651 354.972, 211.996 345.110, 210.340 335.248, 208.685 325.386, 207.030 315.524, 205.374 304.934, 203.597 303.408, 213.479 301.881, 223.362 300.355, 233.245 298.829, 243.128 297.302, 253.011 295.776, 262.894 294.249, 272.776 292.723, 282.659 291.197, 292.542 289.670, 302.425 288.144, 312.308 286.618, 322.191 285.091, 332.073 283.565, 341.956 282.039, 351.839 280.512, 361.722 278.986, 371.605 277.459, 381.488 275.933, 391.370 274.407, 401.253 272.880, 411.136 271.354, 421.019 269.828, 430.902 268.301, 440.784 266.775, 450.667 265.249, 460.550 263.722, 470.433 262.196, 480.316 260.669, 490.199 259.143, 500.081 257.617, 509.964 256.090, 519.847 254.564, 529.730 253.038, 539.613 251.511, 549.496 249.985, 559.378 248.459, 569.261 247.098, 578.071 " fill="none" stroke="rgb(157, 20, 170)" stroke-linecap="butt" stroke-linejoin="round" stroke-opacity="1.0" stroke-width="3.0" />
            <path d=" M 529.302, 1128.597 538.029, 1133.480 546.756, 1138.363 555.483, 1143.245 564.210, 1148.128 572.937, 1153.011 581.664, 1157.894 590.391, 1162.776 599.118, 1167.659 607.844, 1172.542 616.571, 1177.425 625.298, 1182.307 634.025, 1187.190 641.023, 1191.105 650.190, 1187.111 659.358, 1183.117 668.526, 1179.123 677.693, 1175.129 686.861, 1171.134 696.029, 1167.140 705.197, 1163.146 714.364, 1159.152 723.532, 1155.158 732.700, 1151.164 741.867, 1147.170 746.863, 1144.993 749.126, 1135.252 751.389, 1125.512 753.652, 1115.771 755.915, 1106.031 758.178, 1096.290 760.441, 1086.550 762.704, 1076.809 764.394, 1069.535 " fill="none" stroke="rgb(157, 20, 170)" stroke-linecap="butt" stroke-linejoin="round" stroke-opacity="1.0" stroke-width="3.0" />
            <path d=" M 641.023, 1191.105 643.168, 1181.338 645.313, 1171.571 647.458, 1161.804 649.604, 1152.036 651.749, 1142.269 653.894, 1132.502 656.039, 1122.735 658.184, 1112.968 660.330, 1103.201 662.475, 1093.433 664.620, 1083.666 665.279, 1080.669 667.424, 1070.902 669.569, 1061.134 671.714, 1051.367 673.859, 1041.600 676.005, 1031.833 677.000, 1027.299 " fill="none" stroke="rgb(157, 20, 170)" stroke-linecap="butt" stroke-linejoin="round" stroke-opacity="1.0" stroke-width="3.0" />
            <path d=" M 840.945, 402.191 831.242, 399.772 821.539, 397.354 820.144, 397.006 810.357, 394.954 800.570, 392.902 790.782, 390.850 780.995, 388.798 771.208, 386.745 761.421, 384.693 751.634, 382.641 741.847, 380.589 732.059, 378.537 729.590, 378.019 723.383, 376.718 713.596, 374.665 703.809, 372.613 694.022, 370.561 684.235, 368.509 674.447, 366.457 664.660, 364.405 654.873, 362.352 645.086, 360.300 635.299, 358.248 625.512, 356.196 615.083, 354.009 605.295, 351.957 595.508, 349.905 585.721, 347.853 575.934, 345.800 566.147, 343.748 561.493, 342.772 555.809, 341.581 546.022, 339.529 536.235, 337.476 526.448, 335.424 516.661, 333.372 506.874, 331.320 497.086, 329.268 487.299, 327.215 477.512, 325.163 467.725, 323.111 457.938, 321.059 448.151, 319.007 438.363, 316.955 428.576, 314.902 418.792, 312.851 417.115, 322.709 415.439, 332.568 413.762, 342.426 412.086, 352.285 410.409, 362.143 408.732, 372.002 407.056, 381.860 405.379, 391.719 403.703, 401.577 402.026, 411.435 400.350, 421.294 398.673, 431.152 396.997, 441.011 395.320, 450.869 393.644, 460.728 391.967, 470.586 390.291, 480.445 388.614, 490.303 386.938, 500.162 385.261, 510.020 383.585, 519.879 382.420, 526.727 " fill="none" stroke="rgb(157, 20, 170)" stroke-linecap="butt" stroke-linejoin="round" stroke-opacity="1.0" stroke-width="3.0" />
            <path d=" M 1178.579, 619.683 1181.192, 610.031 1183.805, 600.378 1186.418, 590.726 1189.031, 581.073 1191.644, 571.421 1194.257, 561.768 1196.870, 552.116 1199.484, 542.463 1202.097, 532.810 1204.710, 523.158 1207.323, 513.505 1209.936, 503.853 1212.549, 494.200 1215.170, 484.521 1205.506, 481.950 1195.842, 479.379 1186.178, 476.808 1176.514, 474.237 1166.850, 471.666 1157.187, 469.094 1147.523, 466.523 1137.859, 463.952 1128.195, 461.381 1118.531, 458.810 1108.867, 456.239 1099.203, 453.668 1089.540, 451.097 1079.876, 448.526 1070.212, 445.955 1060.548, 443.384 1050.884, 440.813 1041.220, 438.242 1031.557, 435.671 1021.893, 433.100 1017.758, 432.000 1012.751, 430.668 1002.959, 428.639 993.167, 426.609 983.375, 424.580 973.583, 422.551 963.791, 420.522 953.999, 418.492 944.208, 416.463 934.416, 414.434 924.624, 412.405 914.832, 410.376 905.040, 408.346 895.248, 406.317 885.456, 404.288 875.664, 402.259 865.872, 400.229 856.080, 398.200 846.288, 396.171 836.496, 394.142 826.717, 392.115 816.925, 390.086 807.133, 388.057 797.341, 386.028 787.549, 383.998 778.473, 382.118 768.681, 380.088 758.889, 378.059 749.097, 376.030 739.305, 374.001 730.797, 372.237 724.583, 370.950 714.791, 368.920 704.999, 366.891 695.207, 364.862 691.164, 364.024 681.372, 361.995 671.580, 359.966 661.788, 357.936 651.996, 355.907 642.204, 353.878 632.412, 351.849 622.620, 349.820 616.158, 348.480 606.366, 346.451 596.574, 344.422 586.782, 342.393 576.990, 340.363 567.198, 338.334 556.819, 336.183 555.809, 341.581 " fill="none" stroke="rgb(157, 20, 170)" stroke-linecap="butt" stroke-linejoin="round" stroke-opacity="1.0" stroke-width="3.0" />
            <path d=" M 1012.751, 430.668 1010.377, 440.382 1008.002, 450.096 1005.628, 459.810 1003.253, 469.524 1000.879, 479.238 998.505, 488.952 996.130, 498.666 993.756, 508.380 991.381, 518.094 989.007, 527.808 986.633, 537.522 984.258, 547.236 981.884, 556.950 979.509, 566.664 977.135, 576.378 974.760, 586.092 972.386, 595.806 971.421, 599.753 970.706, 602.680 968.331, 612.394 965.957, 622.108 963.583, 631.822 961.208, 641.536 958.834, 651.250 956.459, 660.964 954.085, 670.678 951.711, 680.392 949.336, 690.106 946.962, 699.820 944.587, 709.534 943.625, 713.472 942.048, 719.924 939.673, 729.638 937.299, 739.352 935.736, 745.745 933.362, 755.459 930.987, 765.173 928.613, 774.887 926.238, 784.601 923.864, 794.315 921.490, 804.029 919.115, 813.743 916.741, 823.457 914.366, 833.171 911.992, 842.885 909.617, 852.599 907.243, 862.313 904.869, 872.027 902.494, 881.741 900.120, 891.455 897.745, 901.169 895.371, 910.883 892.997, 920.597 890.622, 930.311 888.248, 940.025 885.873, 949.740 883.499, 959.453 881.125, 969.168 878.750, 978.882 876.376, 988.596 874.648, 995.664 872.770, 1003.348 " fill="none" stroke="rgb(157, 20, 170)" stroke-linecap="butt" stroke-linejoin="round" stroke-opacity="1.0" stroke-width="3.0" />
            <path d=" M 715.510, 934.493 724.671, 938.504 733.831, 942.515 742.991, 946.525 745.248, 947.513 754.408, 951.524 763.569, 955.535 769.831, 958.277 778.992, 962.288 788.152, 966.299 797.313, 970.310 806.473, 974.320 815.633, 978.331 824.794, 982.342 833.954, 986.353 843.115, 990.364 852.275, 994.375 861.435, 998.386 870.596, 1002.396 872.770, 1003.348 882.213, 1000.059 883.629, 999.566 " fill="none" stroke="rgb(157, 20, 170)" stroke-linecap="butt" stroke-linejoin="round" stroke-opacity="1.0" stroke-width="3.0" />
            <path d=" M 883.629, 999.566 886.015, 989.855 888.401, 980.144 890.787, 970.433 893.174, 960.722 895.560, 951.011 897.946, 941.300 900.333, 931.589 902.719, 921.878 905.105, 912.166 907.491, 902.455 909.878, 892.744 912.264, 883.033 914.650, 873.322 917.036, 863.611 919.423, 853.900 921.809, 844.189 924.195, 834.477 926.581, 824.766 928.968, 815.055 931.354, 805.344 933.740, 795.633 936.126, 785.922 938.513, 776.211 940.899, 766.500 943.285, 756.789 945.227, 748.888 947.613, 739.177 949.999, 729.465 952.385, 719.754 953.182, 716.512 955.568, 706.801 957.955, 697.090 960.341, 687.379 962.727, 677.667 965.113, 667.956 967.500, 658.245 969.886, 648.534 972.272, 638.823 974.659, 629.112 977.045, 619.401 979.431, 609.690 980.009, 607.337 " fill="none" stroke="rgb(157, 20, 170)" stroke-linecap="butt" stroke-linejoin="round" stroke-opacity="1.0" stroke-width="3.0" />
            <path d=" M 1017.449, 617.624 1007.806, 614.975 1001.573, 613.262 991.930, 610.613 987.750, 609.464 980.009, 607.337 988.160, 607.799 998.144, 608.366 1002.725, 608.626 1012.709, 609.192 1022.693, 609.758 1032.677, 610.325 1042.661, 610.891 1052.645, 611.457 1062.629, 612.024 1072.613, 612.590 1082.597, 613.156 1092.581, 613.723 1102.565, 614.289 1112.549, 614.855 1122.533, 615.422 1132.517, 615.988 1142.501, 616.554 1152.485, 617.121 1162.469, 617.687 1173.260, 618.299 1178.579, 619.683 1188.256, 622.202 1197.934, 624.721 1204.519, 626.435 1201.875, 636.079 1199.230, 645.723 1196.586, 655.368 1193.942, 665.012 1191.298, 674.656 1188.654, 684.300 1186.010, 693.944 1183.366, 703.588 1180.722, 713.232 1178.078, 722.876 1175.434, 732.521 1172.790, 742.165 1170.146, 751.809 1167.502, 761.453 1164.858, 771.097 1162.214, 780.741 1159.570, 790.385 1156.926, 800.029 1154.282, 809.673 1151.638, 819.318 1148.994, 828.962 1146.349, 838.606 1143.705, 848.250 1141.061, 857.894 1138.417, 867.538 1135.773, 877.182 1133.129, 886.826 1130.485, 896.471 1127.841, 906.115 1125.197, 915.759 1122.553, 925.403 1119.909, 935.047 1117.265, 944.691 1114.621, 954.335 1111.977, 963.979 1109.333, 973.623 1106.689, 983.268 1104.045, 992.912 1101.401, 1002.556 1098.756, 1012.200 1096.112, 1021.844 1093.640, 1030.863 1084.637, 1035.216 1075.634, 1039.569 1066.632, 1043.922 1057.629, 1048.275 1048.626, 1052.629 1039.623, 1056.982 1030.621, 1061.335 1021.618, 1065.688 1012.615, 1070.041 1003.612, 1074.395 994.610, 1078.748 985.607, 1083.101 976.604, 1087.454 967.601, 1091.807 958.599, 1096.161 949.596, 1100.514 940.593, 1104.867 931.590, 1109.220 922.588, 1113.574 913.585, 1117.927 904.582, 1122.280 895.579, 1126.633 889.061, 1129.785 880.057, 1125.434 871.054, 1121.082 862.050, 1116.731 853.046, 1112.380 844.043, 1108.028 835.039, 1103.677 826.036, 1099.326 817.032, 1094.974 808.028, 1090.623 799.025, 1086.271 790.021, 1081.920 781.017, 1077.569 772.014, 1073.217 764.394, 1069.535 755.391, 1065.184 746.387, 1060.832 737.383, 1056.481 728.380, 1052.130 719.376, 1047.778 710.372, 1043.427 701.369, 1039.076 692.365, 1034.724 687.689, 1032.464 678.686, 1028.113 677.000, 1027.299 667.997, 1022.947 658.932, 1018.566 649.928, 1014.215 640.924, 1009.864 631.921, 1005.512 622.917, 1001.161 613.913, 996.809 604.910, 992.458 595.906, 988.107 586.902, 983.755 577.899, 979.404 568.895, 975.053 564.796, 973.072 558.966, 970.254 " fill="none" stroke="rgb(157, 20, 170)" stroke-linecap="butt" stroke-linejoin="round" stroke-opacity="1.0" stroke-width="3.0" />
            <path d=" M 360.310, 524.776 369.844, 527.795 379.377, 530.813 381.605, 531.519 391.139, 534.537 400.672, 537.555 403.579, 538.476 410.618, 540.704 420.151, 543.723 429.685, 546.741 439.219, 549.759 448.752, 552.778 458.286, 555.796 467.819, 558.815 477.353, 561.833 486.886, 564.851 490.369, 565.954 500.347, 566.619 510.325, 567.284 520.303, 567.948 530.281, 568.613 533.904, 568.854 524.357, 565.878 514.811, 562.901 505.264, 559.924 495.717, 556.947 486.171, 553.971 476.624, 550.994 467.077, 548.017 459.742, 545.730 450.195, 542.753 440.649, 539.776 431.102, 536.799 421.555, 533.823 412.315, 530.941 405.261, 528.742 " fill="none" stroke="rgb(157, 20, 170)" stroke-linecap="butt" stroke-linejoin="round" stroke-opacity="1.0" stroke-width="3.0" />
            <path d=" M 1204.519, 626.435 1194.530, 625.965 1184.541, 625.494 1177.100, 625.144 1171.484, 624.879 1161.495, 624.409 1151.506, 623.938 1141.517, 623.468 1131.528, 622.997 1121.539, 622.527 1111.550, 622.056 1101.561, 621.586 1091.572, 621.115 1081.583, 620.645 1071.594, 620.174 1061.606, 619.704 1051.617, 619.234 1041.628, 618.763 1031.639, 618.293 1021.650, 617.822 1017.449, 617.624 1015.017, 627.324 1012.585, 637.024 1010.154, 646.724 1007.722, 656.424 1005.291, 666.124 1002.859, 675.823 1000.428, 685.523 997.996, 695.223 995.565, 704.923 993.133, 714.623 990.702, 724.323 988.270, 734.023 985.838, 743.723 984.168, 750.387 981.736, 760.087 979.995, 767.032 977.564, 776.732 975.132, 786.432 972.701, 796.132 970.269, 805.832 967.838, 815.532 965.406, 825.231 962.974, 834.931 960.543, 844.631 958.111, 854.331 955.680, 864.031 953.248, 873.731 950.817, 883.431 948.385, 893.131 945.954, 902.830 943.522, 912.530 941.091, 922.230 938.659, 931.930 936.227, 941.630 933.796, 951.330 931.364, 961.030 928.933, 970.730 926.501, 980.429 924.070, 990.129 921.638, 999.829 919.207, 1009.529 916.238, 1021.372 913.806, 1031.072 911.375, 1040.771 908.943, 1050.471 906.512, 1060.171 904.080, 1069.871 901.649, 1079.571 899.217, 1089.271 896.786, 1098.971 895.482, 1104.171 893.050, 1113.870 890.619, 1123.570 889.061, 1129.785 " fill="none" stroke="rgb(157, 20, 170)" stroke-linecap="butt" stroke-linejoin="round" stroke-opacity="1.0" stroke-width="3.0" />
            <path d=" M 722.706, 932.760 723.342, 929.908 725.517, 920.147 727.692, 910.387 729.868, 900.626 732.043, 890.866 732.617, 888.287 " fill="none" stroke="rgb(157, 20, 170)" stroke-linecap="butt" stroke-linejoin="round" stroke-opacity="1.0" stroke-width="3.0" />
            <path d=" M 823.274, 481.485 825.449, 471.725 827.625, 461.964 829.800, 452.204 831.975, 442.443 834.150, 432.682 836.325, 422.922 838.500, 413.161 840.676, 403.401 840.945, 402.191 " fill="none" stroke="rgb(157, 20, 170)" stroke-linecap="butt" stroke-linejoin="round" stroke-opacity="1.0" stroke-width="3.0" />
            <path d=" M 833.427, 919.714 823.735, 922.175 817.728, 923.701 808.495, 919.859 799.262, 916.017 790.030, 912.176 780.797, 908.334 771.564, 904.492 762.332, 900.651 753.099, 896.809 743.866, 892.967 734.634, 889.126 732.617, 888.287 723.385, 884.445 718.150, 882.267 720.306, 872.502 722.462, 862.737 724.619, 852.972 726.775, 843.208 728.931, 833.443 731.088, 823.678 733.244, 813.914 735.400, 804.149 737.557, 794.384 739.713, 784.619 741.869, 774.854 744.026, 765.090 746.182, 755.325 748.338, 745.560 750.495, 735.796 752.651, 726.031 754.807, 716.266 756.964, 706.501 759.120, 696.737 761.276, 686.972 763.432, 677.207 765.589, 667.442 766.436, 663.605 767.777, 657.534 769.933, 647.769 772.089, 638.004 774.246, 628.239 776.402, 618.475 778.558, 608.710 780.715, 598.945 782.871, 589.180 785.027, 579.416 787.184, 569.651 789.340, 559.886 791.496, 550.121 793.653, 540.357 795.809, 530.592 797.965, 520.827 800.122, 511.062 802.278, 501.298 804.434, 491.533 806.591, 481.768 807.251, 478.778 " fill="none" stroke="rgb(157, 20, 170)" stroke-linecap="butt" stroke-linejoin="round" stroke-opacity="1.0" stroke-width="3.0" />
            <path d=" M 916.007, 505.194 906.289, 502.834 896.572, 500.474 886.854, 498.113 877.137, 495.753 867.419, 493.393 857.702, 491.033 847.985, 488.672 838.267, 486.312 828.550, 483.952 818.832, 481.591 809.115, 479.231 807.251, 478.778 817.111, 480.444 823.274, 481.485 832.993, 483.841 842.711, 486.197 852.430, 488.553 862.148, 490.909 871.867, 493.265 881.585, 495.621 891.304, 497.978 901.022, 500.334 910.741, 502.690 920.459, 505.046 930.989, 507.598 " fill="none" stroke="rgb(157, 20, 170)" stroke-linecap="butt" stroke-linejoin="round" stroke-opacity="1.0" stroke-width="3.0" />
            <path d=" M 820.144, 397.006 819.972, 397.786 817.822, 407.552 815.671, 417.318 813.521, 427.084 811.370, 436.850 809.219, 446.616 807.069, 456.382 804.918, 466.148 802.768, 475.915 800.617, 485.681 798.467, 495.447 796.316, 505.213 794.166, 514.979 792.015, 524.745 789.865, 534.511 787.714, 544.277 785.564, 554.043 783.413, 563.809 781.263, 573.575 779.112, 583.341 776.962, 593.107 774.811, 602.873 772.661, 612.639 770.510, 622.405 768.360, 632.171 766.209, 641.937 764.059, 651.703 763.102, 656.047 761.768, 662.108 759.617, 671.874 757.466, 681.640 755.316, 691.406 753.165, 701.172 751.015, 710.938 748.864, 720.704 746.714, 730.470 744.563, 740.236 742.413, 750.002 740.262, 759.768 738.112, 769.534 735.961, 779.300 733.811, 789.066 731.660, 798.832 729.510, 808.598 727.359, 818.364 725.209, 828.130 723.058, 837.896 720.908, 847.662 718.757, 857.428 716.607, 867.194 714.456, 876.960 712.306, 886.726 710.155, 896.492 708.005, 906.258 705.854, 916.024 704.591, 921.759 703.967, 924.593 702.994, 929.013 701.419, 936.166 701.019, 937.982 " fill="none" stroke="rgb(157, 20, 170)" stroke-linecap="butt" stroke-linejoin="round" stroke-opacity="1.0" stroke-width="3.0" />
            <path d=" M 836.458, 348.010 835.384, 352.874 833.227, 362.638 831.071, 372.403 828.914, 382.168 826.717, 392.115 " fill="none" stroke="rgb(157, 20, 170)" stroke-linecap="butt" stroke-linejoin="round" stroke-opacity="1.0" stroke-width="3.0" />
            <path d=" M 1017.758, 432.000 1020.138, 422.287 1022.518, 412.575 1024.481, 404.565 1014.905, 401.685 1005.329, 398.804 995.753, 395.924 986.176, 393.043 977.344, 390.387 967.768, 387.506 958.192, 384.626 948.615, 381.745 939.039, 378.865 929.463, 375.984 919.887, 373.104 910.311, 370.224 900.735, 367.343 891.158, 364.463 881.582, 361.582 872.006, 358.702 862.430, 355.822 852.854, 352.941 843.278, 350.061 836.458, 348.010 826.633, 346.150 816.807, 344.290 806.982, 342.429 797.156, 340.569 787.779, 338.794 " fill="none" stroke="rgb(157, 20, 170)" stroke-linecap="butt" stroke-linejoin="round" stroke-opacity="1.0" stroke-width="3.0" />
            <path d=" M 817.728, 923.701 819.966, 914.168 822.252, 904.433 824.538, 894.698 826.825, 884.962 829.111, 875.227 831.397, 865.492 833.683, 855.757 835.969, 846.022 838.255, 836.286 840.541, 826.551 842.828, 816.816 845.114, 807.081 847.400, 797.346 849.686, 787.611 851.972, 777.875 854.258, 768.140 856.544, 758.405 858.831, 748.670 861.117, 738.935 863.403, 729.200 865.689, 719.464 867.975, 709.729 870.261, 699.994 870.937, 697.118 872.416, 690.820 874.702, 681.085 876.988, 671.349 879.274, 661.614 881.560, 651.879 883.846, 642.144 886.133, 632.409 888.419, 622.674 890.705, 612.938 892.991, 603.203 895.277, 593.468 897.563, 583.733 899.849, 573.998 902.136, 564.263 904.422, 554.527 906.708, 544.792 908.994, 535.057 911.280, 525.322 913.566, 515.587 916.007, 505.194 925.880, 506.779 930.989, 507.598 928.685, 517.329 926.381, 527.060 924.078, 536.791 921.774, 546.522 919.470, 556.253 917.167, 565.984 914.863, 575.716 912.559, 585.447 910.256, 595.178 907.952, 604.909 905.648, 614.640 903.345, 624.371 901.041, 634.102 898.737, 643.833 896.434, 653.564 894.130, 663.295 891.826, 673.026 889.523, 682.757 887.219, 692.488 886.549, 695.316 885.051, 701.645 882.748, 711.376 880.444, 721.107 878.140, 730.838 875.837, 740.569 873.533, 750.300 871.229, 760.031 868.926, 769.762 866.622, 779.493 864.318, 789.224 862.015, 798.955 859.711, 808.686 857.407, 818.417 855.104, 828.148 852.800, 837.879 850.496, 847.610 848.193, 857.341 845.889, 867.072 843.585, 876.803 841.281, 886.534 838.978, 896.266 836.674, 905.997 834.370, 915.728 833.427, 919.714 " fill="none" stroke="rgb(157, 20, 170)" stroke-linecap="butt" stroke-linejoin="round" stroke-opacity="1.0" stroke-width="3.0" />
            <path d=" M 558.966, 970.254 560.953, 960.454 562.940, 950.653 564.927, 940.852 566.913, 931.052 568.237, 924.520 570.224, 914.719 572.211, 904.919 573.710, 897.526 575.696, 887.725 576.649, 883.025 " fill="none" stroke="rgb(157, 20, 170)" stroke-linecap="butt" stroke-linejoin="round" stroke-opacity="1.0" stroke-width="3.0" />
            <path d=" M 347.775, 599.697 338.350, 596.356 328.924, 593.015 319.499, 589.674 310.074, 586.333 300.648, 582.992 293.147, 580.333 " fill="none" stroke="rgb(157, 20, 170)" stroke-linecap="butt" stroke-linejoin="round" stroke-opacity="1.0" stroke-width="3.0" />
            <path d=" M 564.796, 973.072 562.802, 982.871 560.807, 992.670 558.813, 1002.469 556.818, 1012.268 554.824, 1022.067 552.829, 1031.866 550.834, 1041.665 548.840, 1051.464 546.845, 1061.263 544.851, 1071.062 542.856, 1080.862 540.862, 1090.661 538.867, 1100.460 536.873, 1110.259 534.878, 1120.058 533.437, 1127.140 " fill="none" stroke="rgb(157, 20, 170)" stroke-linecap="butt" stroke-linejoin="round" stroke-opacity="1.0" stroke-width="3.0" />
            <path d=" M 691.164, 364.024 693.161, 354.226 695.159, 344.427 697.156, 334.629 699.153, 324.830 701.150, 315.031 703.148, 305.233 705.145, 295.434 707.142, 285.636 709.139, 275.837 710.005, 271.589 " fill="none" stroke="rgb(157, 20, 170)" stroke-linecap="butt" stroke-linejoin="round" stroke-opacity="1.0" stroke-width="3.0" />
            <path d=" M 778.473, 382.118 780.573, 372.341 782.673, 362.563 784.773, 352.786 786.873, 343.010 787.779, 338.794 " fill="none" stroke="rgb(157, 20, 170)" stroke-linecap="butt" stroke-linejoin="round" stroke-opacity="1.0" stroke-width="3.0" />
        </g>
    </g>
    <g id="fressstylelayer_hidden lines" inkscape:groupmode="lineset" inkscape:label="fressstylelayer_hidden lines" xmlns:inkscape="http://www.inkscape.org/namespaces/inkscape">
        <g id="strokes" inkscape:groupmode="layer" inkscape:label="strokes" xmlns:inkscape="http://www.inkscape.org/namespaces/inkscape">
            <path d=" M 397.312, 617.255 390.382, 614.799 380.957, 611.458 371.531, 608.117 368.747, 607.130 359.321, 603.789 349.896, 600.448 347.775, 599.697 " fill="none" stroke="rgb(0, 119, 0)" stroke-linecap="butt" stroke-linejoin="round" stroke-opacity="1.0" stroke-width="3.0" />
            <path d=" M 343.848, 623.168 353.846, 623.394 363.843, 623.620 373.841, 623.846 383.838, 624.072 388.760, 624.183 389.992, 617.054 390.382, 614.799 392.086, 604.945 393.790, 595.091 395.493, 585.238 397.197, 575.384 398.901, 565.530 400.605, 555.676 402.308, 545.822 403.579, 538.476 405.261, 528.742 " fill="none" stroke="rgb(0, 119, 0)" stroke-linecap="butt" stroke-linejoin="round" stroke-opacity="1.0" stroke-width="3.0" />
            <path d=" M 388.760, 624.183 379.348, 620.803 369.937, 617.423 367.166, 616.428 " fill="none" stroke="rgb(0, 119, 0)" stroke-linecap="butt" stroke-linejoin="round" stroke-opacity="1.0" stroke-width="3.0" />
            <path d=" M 382.420, 526.727 381.605, 531.519 379.929, 541.377 378.252, 551.236 376.576, 561.094 374.899, 570.953 373.223, 580.811 371.546, 590.669 369.870, 600.528 368.747, 607.130 367.166, 616.428 377.162, 616.702 387.158, 616.977 389.992, 617.054 397.312, 617.255 399.025, 607.403 400.737, 597.551 402.450, 587.699 404.162, 577.846 405.874, 567.994 407.587, 558.142 409.299, 548.289 410.618, 540.704 412.315, 530.941 414.027, 521.089 415.740, 511.237 417.452, 501.384 419.164, 491.532 420.877, 481.680 422.589, 471.828 424.302, 461.975 426.014, 452.123 427.727, 442.271 429.439, 432.418 431.152, 422.566 432.864, 412.714 434.577, 402.862 436.289, 393.009 438.001, 383.157 439.714, 373.305 441.426, 363.453 443.139, 353.600 444.851, 343.748 446.564, 333.896 448.276, 324.043 448.972, 320.042 458.758, 322.097 468.544, 324.153 478.331, 326.209 488.117, 328.265 497.904, 330.321 507.690, 332.377 517.476, 334.433 527.263, 336.488 537.049, 338.544 546.836, 340.600 556.622, 342.656 561.329, 343.645 561.360, 343.478 561.493, 342.772 562.469, 337.571 572.261, 339.601 582.053, 341.631 591.845, 343.661 601.636, 345.691 611.428, 347.721 616.116, 348.693 625.908, 350.723 635.700, 352.754 645.492, 354.784 655.283, 356.814 665.075, 358.844 674.867, 360.874 684.659, 362.904 691.119, 364.244 700.821, 366.667 710.523, 369.090 720.225, 371.513 724.257, 372.519 730.417, 374.058 740.119, 376.481 749.821, 378.904 759.523, 381.327 769.225, 383.750 777.670, 385.859 787.458, 387.903 797.247, 389.947 807.036, 391.991 816.825, 394.034 825.876, 395.924 835.573, 398.365 845.271, 400.805 854.969, 403.245 864.666, 405.686 874.364, 408.126 884.062, 410.566 893.759, 413.007 903.457, 415.447 913.155, 417.887 922.852, 420.328 932.550, 422.768 942.248, 425.209 951.945, 427.649 961.643, 430.089 971.341, 432.530 981.038, 434.970 983.176, 435.508 980.834, 445.230 978.491, 454.952 976.148, 464.673 973.805, 474.395 971.462, 484.117 969.119, 493.838 966.777, 503.560 964.434, 513.282 962.091, 523.003 959.748, 532.725 957.405, 542.447 955.062, 552.168 952.720, 561.890 950.377, 571.612 948.034, 581.333 945.691, 591.055 944.613, 595.530 954.257, 598.173 958.952, 599.459 968.597, 602.102 970.706, 602.680 975.599, 604.020 985.244, 606.663 988.238, 607.483 988.160, 607.799 987.750, 609.464 985.354, 619.173 982.958, 628.881 980.563, 638.590 978.167, 648.299 975.771, 658.008 973.376, 667.717 970.980, 677.425 968.584, 687.134 966.189, 696.843 963.793, 706.552 961.398, 716.261 960.742, 718.917 960.185, 721.176 957.789, 730.884 955.394, 740.593 955.305, 740.951 952.910, 750.659 952.734, 751.373 951.237, 757.439 956.905, 759.330 966.391, 762.494 975.877, 765.659 979.995, 767.032 989.481, 770.196 998.968, 773.361 1008.454, 776.525 1017.940, 779.689 1027.426, 782.853 1036.912, 786.018 1046.398, 789.182 1054.147, 791.766 1051.623, 801.443 1049.099, 811.119 1046.575, 820.795 1044.050, 830.471 1041.526, 840.147 1039.002, 849.824 1036.478, 859.500 1033.954, 869.176 1031.430, 878.852 1028.906, 888.529 1026.382, 898.205 1026.045, 899.497 1019.617, 901.349 1017.099, 911.027 1014.582, 920.705 1012.065, 930.383 1009.548, 940.061 1007.031, 949.740 1004.513, 959.417 1001.996, 969.095 999.479, 978.773 996.962, 988.452 996.388, 990.659 987.050, 994.237 977.712, 997.815 968.374, 1001.394 959.036, 1004.972 949.698, 1008.550 942.677, 1011.240 933.339, 1014.819 924.001, 1018.397 916.238, 1021.372 909.256, 1024.047 900.102, 1020.022 890.947, 1015.998 881.793, 1011.973 872.639, 1007.949 863.484, 1003.924 854.330, 999.900 845.175, 995.875 836.021, 991.851 826.867, 987.826 817.712, 983.801 808.558, 979.777 799.404, 975.752 790.249, 971.728 781.095, 967.703 771.940, 963.679 763.565, 959.997 754.411, 955.972 745.256, 951.948 738.904, 949.155 729.750, 945.130 720.595, 941.106 711.441, 937.081 709.077, 936.042 706.560, 934.935 701.419, 936.166 698.493, 936.866 688.768, 939.193 679.042, 941.520 675.467, 942.376 673.346, 952.148 671.225, 961.921 670.133, 966.952 668.012, 976.724 665.892, 986.497 665.822, 986.819 663.701, 996.591 663.325, 998.323 661.204, 1008.096 659.926, 1013.984 658.932, 1018.566 656.811, 1028.339 654.690, 1038.111 652.569, 1047.884 650.448, 1057.656 649.539, 1061.842 647.419, 1071.614 645.298, 1081.387 643.811, 1088.235 653.243, 1084.911 662.674, 1081.587 665.279, 1080.669 674.710, 1077.344 678.021, 1076.177 680.180, 1066.413 682.340, 1056.649 684.500, 1046.885 686.659, 1037.121 687.689, 1032.464 689.849, 1022.700 690.716, 1018.782 691.767, 1014.029 692.212, 1012.015 689.348, 1012.880 691.767, 1014.029 697.429, 1016.718 706.462, 1021.008 715.495, 1025.297 724.529, 1029.587 733.562, 1033.877 742.595, 1038.167 751.628, 1042.456 760.661, 1046.746 768.792, 1050.607 777.825, 1054.897 786.858, 1059.186 795.891, 1063.476 804.924, 1067.766 813.958, 1072.056 822.991, 1076.345 832.024, 1080.635 841.057, 1084.925 850.090, 1089.214 859.124, 1093.504 868.157, 1097.794 877.190, 1102.084 886.223, 1106.373 888.425, 1107.419 895.482, 1104.171 904.566, 1099.989 913.649, 1095.807 922.733, 1091.626 931.817, 1087.444 940.901, 1083.263 949.984, 1079.081 959.068, 1074.899 968.152, 1070.718 977.236, 1066.536 986.319, 1062.355 995.403, 1058.173 1004.487, 1053.991 1013.571, 1049.810 1022.709, 1045.603 1025.274, 1035.938 1027.839, 1026.272 1030.404, 1016.607 1032.970, 1006.942 1033.247, 1005.896 1035.812, 996.231 1038.378, 986.566 1040.943, 976.900 1043.508, 967.235 1046.073, 957.570 1048.639, 947.904 1051.204, 938.239 1053.769, 928.573 1056.334, 918.908 1057.226, 915.547 1058.271, 911.613 1060.836, 901.947 1063.401, 892.282 1065.966, 882.617 1068.532, 872.951 1071.097, 863.286 1073.662, 853.621 1076.228, 843.955 1078.793, 834.290 1081.358, 824.624 1083.923, 814.959 1086.489, 805.294 1089.054, 795.628 1091.728, 785.552 1082.223, 782.444 1072.718, 779.337 1063.214, 776.229 1053.708, 773.122 1044.204, 770.014 1034.699, 766.907 1025.194, 763.799 1015.689, 760.692 1006.184, 757.584 996.679, 754.477 987.174, 751.370 984.168, 750.387 974.663, 747.279 968.741, 745.343 960.994, 742.810 955.305, 740.951 952.763, 740.120 950.371, 749.829 950.197, 750.534 947.805, 760.243 945.413, 769.953 943.020, 779.662 940.628, 789.372 938.235, 799.082 935.843, 808.791 933.450, 818.501 931.058, 828.210 928.665, 837.920 926.273, 847.629 923.880, 857.339 921.488, 867.049 919.095, 876.758 916.703, 886.468 914.311, 896.177 911.918, 905.887 909.526, 915.597 907.133, 925.306 904.741, 935.016 902.348, 944.725 899.956, 954.435 897.444, 964.630 895.887, 970.947 905.276, 967.913 907.679, 958.206 910.081, 948.498 912.484, 938.791 914.887, 929.084 917.290, 919.377 919.692, 909.670 922.095, 899.963 924.498, 890.256 926.900, 880.549 929.303, 870.842 931.706, 861.135 934.109, 851.428 936.511, 841.721 938.914, 832.014 941.317, 822.307 943.719, 812.600 946.122, 802.893 948.525, 793.185 950.927, 783.478 953.330, 773.771 955.733, 764.064 956.905, 759.330 957.543, 756.751 958.409, 753.253 960.812, 743.546 960.994, 742.810 963.396, 733.103 965.799, 723.396 966.458, 720.735 960.742, 718.917 953.182, 716.512 948.402, 714.992 943.625, 713.472 934.095, 710.440 932.148, 709.821 922.618, 706.789 913.089, 703.758 903.559, 700.727 894.030, 697.695 886.549, 695.316 877.020, 692.284 872.416, 690.820 862.886, 687.788 853.357, 684.757 843.827, 681.726 834.298, 678.694 824.768, 675.663 815.239, 672.632 805.709, 669.600 796.180, 666.569 786.651, 663.537 777.121, 660.506 767.777, 657.534 763.102, 656.047 753.752, 653.072 743.752, 653.032 733.752, 652.991 733.336, 652.990 742.858, 656.043 752.429, 659.113 761.768, 662.108 766.436, 663.605 775.958, 666.659 785.481, 669.712 795.003, 672.766 804.525, 675.820 814.048, 678.874 823.570, 681.928 833.092, 684.982 842.615, 688.035 852.137, 691.089 861.659, 694.143 870.937, 697.118 880.459, 700.172 885.051, 701.645 894.574, 704.699 904.096, 707.752 913.618, 710.806 923.140, 713.860 930.587, 716.248 940.109, 719.302 942.048, 719.924 946.819, 721.454 948.402, 714.992 950.783, 705.279 953.163, 695.566 955.543, 685.854 957.924, 676.141 960.304, 666.429 962.684, 656.716 965.065, 647.004 967.445, 637.291 969.826, 627.578 972.206, 617.866 974.586, 608.153 975.599, 604.020 976.318, 601.089 978.698, 591.376 981.078, 581.664 983.458, 571.951 985.839, 562.238 988.219, 552.526 990.600, 542.813 992.980, 533.101 995.360, 523.388 997.741, 513.676 1000.121, 503.963 1002.501, 494.250 1004.882, 484.538 1007.262, 474.825 1009.642, 465.113 1012.023, 455.400 1014.403, 445.688 1015.238, 442.282 1017.618, 432.569 1017.758, 432.000 " fill="none" stroke="rgb(0, 119, 0)" stroke-linecap="butt" stroke-linejoin="round" stroke-opacity="1.0" stroke-width="3.0" />
            <path d=" M 80.876, 997.918 90.699, 996.044 100.522, 994.171 110.345, 992.298 120.168, 990.425 129.991, 988.552 139.814, 986.678 149.637, 984.805 159.460, 982.932 169.283, 981.059 179.106, 979.186 188.929, 977.312 198.752, 975.439 208.575, 973.566 218.398, 971.693 228.221, 969.820 238.044, 967.947 247.867, 966.073 257.690, 964.200 267.513, 962.327 277.335, 960.454 287.158, 958.581 296.981, 956.707 306.804, 954.834 316.627, 952.961 326.450, 951.088 336.273, 949.215 346.096, 947.341 355.919, 945.468 365.742, 943.595 375.565, 941.722 385.388, 939.849 395.211, 937.975 401.182, 936.837 " fill="none" stroke="rgb(0, 119, 0)" stroke-linecap="butt" stroke-linejoin="round" stroke-opacity="1.0" stroke-width="3.0" />
            <path d=" M 442.127, 711.219 440.342, 721.058 438.556, 730.898 436.771, 740.737 434.985, 750.576 433.199, 760.415 431.414, 770.255 429.628, 780.094 427.842, 789.933 426.057, 799.773 424.271, 809.612 422.485, 819.451 420.700, 829.290 418.914, 839.130 417.129, 848.969 415.343, 858.808 413.557, 868.648 411.772, 878.487 409.986, 888.326 408.200, 898.165 406.415, 908.005 404.629, 917.844 402.844, 927.683 401.182, 936.837 410.115, 941.333 419.047, 945.829 427.979, 950.324 436.912, 954.820 445.844, 959.316 454.776, 963.812 463.709, 968.308 472.641, 972.804 481.573, 977.300 490.506, 981.796 499.438, 986.292 508.371, 990.788 517.303, 995.284 526.235, 999.779 535.168, 1004.275 544.100, 1008.771 553.032, 1013.267 561.965, 1017.763 570.897, 1022.259 579.829, 1026.755 588.762, 1031.251 597.694, 1035.747 606.626, 1040.243 615.559, 1044.738 624.491, 1049.234 633.423, 1053.730 642.356, 1058.226 649.539, 1061.842 658.472, 1066.338 667.404, 1070.834 676.337, 1075.330 678.021, 1076.177 " fill="none" stroke="rgb(0, 119, 0)" stroke-linecap="butt" stroke-linejoin="round" stroke-opacity="1.0" stroke-width="3.0" />
            <path d=" M 643.811, 1088.235 634.923, 1083.652 626.035, 1079.070 617.577, 1074.708 " fill="none" stroke="rgb(0, 119, 0)" stroke-linecap="butt" stroke-linejoin="round" stroke-opacity="1.0" stroke-width="3.0" />
            <path d=" M 533.437, 1127.140 524.703, 1122.268 515.970, 1117.397 509.681, 1113.888 506.186, 1111.938 505.517, 1115.289 514.244, 1120.172 522.971, 1125.055 529.302, 1128.597 " fill="none" stroke="rgb(0, 119, 0)" stroke-linecap="butt" stroke-linejoin="round" stroke-opacity="1.0" stroke-width="3.0" />
            <path d=" M 616.918, 1077.800 617.577, 1074.708 608.093, 1077.878 598.608, 1081.048 589.124, 1084.218 579.640, 1087.388 570.155, 1090.558 560.671, 1093.728 551.187, 1096.898 541.703, 1100.067 532.218, 1103.237 522.734, 1106.407 513.250, 1109.577 506.186, 1111.938 " fill="none" stroke="rgb(0, 119, 0)" stroke-linecap="butt" stroke-linejoin="round" stroke-opacity="1.0" stroke-width="3.0" />
            <path d=" M 689.348, 1012.880 691.504, 1003.115 693.660, 993.351 695.817, 983.586 697.973, 973.821 700.129, 964.057 702.286, 954.292 704.442, 944.527 706.161, 936.744 706.560, 934.935 " fill="none" stroke="rgb(0, 119, 0)" stroke-linecap="butt" stroke-linejoin="round" stroke-opacity="1.0" stroke-width="3.0" />
            <path d=" M 983.874, 363.062 974.040, 361.247 964.206, 359.432 954.372, 357.617 944.538, 355.802 934.704, 353.987 924.871, 352.172 915.037, 350.357 905.203, 348.541 895.369, 346.726 885.535, 344.911 875.701, 343.096 865.867, 341.281 856.033, 339.466 846.199, 337.651 836.366, 335.835 826.532, 334.020 816.698, 332.205 806.864, 330.390 797.030, 328.575 787.196, 326.760 777.362, 324.944 767.528, 323.129 757.695, 321.314 747.861, 319.499 738.027, 317.684 728.193, 315.869 718.359, 314.054 708.525, 312.239 698.691, 310.423 688.857, 308.608 679.023, 306.793 669.190, 304.978 659.356, 303.163 649.522, 301.348 639.688, 299.532 629.854, 297.717 626.161, 297.036 " fill="none" stroke="rgb(0, 119, 0)" stroke-linecap="butt" stroke-linejoin="round" stroke-opacity="1.0" stroke-width="3.0" />
            <path d=" M 549.514, 691.196 551.423, 681.380 553.332, 671.564 555.241, 661.748 557.149, 651.932 559.058, 642.116 560.967, 632.299 562.876, 622.483 564.785, 612.667 566.694, 602.851 568.602, 593.035 570.511, 583.219 572.420, 573.403 574.329, 563.587 576.238, 553.770 578.146, 543.954 580.055, 534.138 581.964, 524.322 583.873, 514.506 585.782, 504.690 587.690, 494.874 589.599, 485.057 591.508, 475.241 593.417, 465.425 595.326, 455.609 597.234, 445.793 599.143, 435.977 601.052, 426.161 602.961, 416.345 604.870, 406.528 606.779, 396.712 608.687, 386.896 610.596, 377.080 612.505, 367.264 614.942, 354.730 615.083, 354.009 616.116, 348.693 616.158, 348.480 618.066, 338.664 619.975, 328.848 621.884, 319.032 623.793, 309.216 625.702, 299.400 626.161, 297.036 616.559, 294.243 606.957, 291.450 597.355, 288.657 587.753, 285.864 578.151, 283.071 568.549, 280.277 558.947, 277.484 549.345, 274.691 539.743, 271.898 530.141, 269.105 520.539, 266.312 510.937, 263.519 501.335, 260.726 491.733, 257.933 482.131, 255.140 472.529, 252.347 462.927, 249.554 453.325, 246.761 443.723, 243.968 434.121, 241.175 424.519, 238.382 414.917, 235.589 405.315, 232.796 395.713, 230.003 386.111, 227.209 376.509, 224.417 366.907, 221.623 357.305, 218.830 347.703, 216.037 338.101, 213.244 328.499, 210.451 318.897, 207.658 309.295, 204.865 304.934, 203.597 " fill="none" stroke="rgb(0, 119, 0)" stroke-linecap="butt" stroke-linejoin="round" stroke-opacity="1.0" stroke-width="3.0" />
            <path d=" M 787.779, 338.794 797.368, 341.630 806.957, 344.466 816.547, 347.302 826.136, 350.139 835.384, 352.874 844.974, 355.710 854.563, 358.546 864.152, 361.382 873.742, 364.218 883.331, 367.054 892.920, 369.890 902.510, 372.726 912.099, 375.563 921.689, 378.399 931.278, 381.235 940.867, 384.071 950.457, 386.907 960.046, 389.743 969.636, 392.579 976.346, 394.564 977.344, 390.387 " fill="none" stroke="rgb(0, 119, 0)" stroke-linecap="butt" stroke-linejoin="round" stroke-opacity="1.0" stroke-width="3.0" />
            <path d=" M 976.346, 394.564 966.534, 392.634 956.722, 390.704 946.910, 388.774 937.098, 386.844 927.286, 384.913 917.474, 382.983 907.662, 381.053 897.850, 379.123 888.038, 377.193 878.226, 375.263 868.414, 373.333 858.602, 371.403 848.790, 369.473 838.978, 367.543 829.166, 365.613 819.354, 363.683 809.542, 361.753 799.730, 359.823 789.918, 357.892 780.106, 355.962 770.294, 354.032 760.482, 352.102 750.670, 350.172 740.858, 348.242 729.761, 346.059 " fill="none" stroke="rgb(0, 119, 0)" stroke-linecap="butt" stroke-linejoin="round" stroke-opacity="1.0" stroke-width="3.0" />
            <path d=" M 721.137, 681.278 719.029, 691.053 716.921, 700.828 714.813, 710.603 712.705, 720.379 710.597, 730.154 708.489, 739.929 706.687, 748.282 " fill="none" stroke="rgb(0, 119, 0)" stroke-linecap="butt" stroke-linejoin="round" stroke-opacity="1.0" stroke-width="3.0" />
            <path d=" M 655.337, 752.302 665.307, 751.521 675.276, 750.741 685.246, 749.961 695.215, 749.180 705.185, 748.400 706.687, 748.282 697.288, 744.869 687.889, 741.455 678.490, 738.041 669.090, 734.627 659.691, 731.213 650.292, 727.799 640.893, 724.385 631.494, 720.972 622.094, 717.558 612.695, 714.144 603.296, 710.730 593.897, 707.316 584.497, 703.902 575.098, 700.488 565.699, 697.075 556.300, 693.661 549.514, 691.196 539.517, 691.452 529.521, 691.707 519.524, 691.962 509.527, 692.218 499.530, 692.473 489.534, 692.729 479.537, 692.984 469.540, 693.239 459.544, 693.495 449.547, 693.750 439.550, 694.005 429.553, 694.261 419.557, 694.516 409.560, 694.772 399.563, 695.027 389.566, 695.282 379.570, 695.538 369.573, 695.793 359.576, 696.049 349.579, 696.304 339.583, 696.559 329.586, 696.815 319.589, 697.070 309.592, 697.326 299.596, 697.581 289.599, 697.836 279.602, 698.092 274.264, 698.228 264.267, 698.483 254.270, 698.739 244.274, 698.994 234.277, 699.250 228.359, 699.401 " fill="none" stroke="rgb(0, 119, 0)" stroke-linecap="butt" stroke-linejoin="round" stroke-opacity="1.0" stroke-width="3.0" />
            <path d=" M 735.911, 347.746 729.761, 346.059 727.724, 355.850 725.688, 365.640 724.583, 370.950 724.257, 372.519 723.383, 376.718 723.227, 377.470 721.190, 387.260 719.154, 397.051 717.117, 406.841 715.080, 416.631 713.044, 426.422 711.007, 436.212 708.970, 446.003 706.934, 455.793 704.897, 465.584 702.861, 475.374 700.824, 485.164 698.787, 494.955 696.751, 504.745 694.714, 514.536 692.677, 524.326 690.641, 534.116 688.604, 543.907 686.568, 553.697 684.531, 563.488 682.494, 573.278 680.458, 583.069 678.421, 592.859 676.385, 602.649 674.348, 612.440 672.311, 622.230 670.275, 632.021 668.238, 641.811 666.201, 651.601 663.996, 662.204 " fill="none" stroke="rgb(0, 119, 0)" stroke-linecap="butt" stroke-linejoin="round" stroke-opacity="1.0" stroke-width="3.0" />
            <path d=" M 670.257, 662.180 663.996, 662.204 673.481, 665.370 682.967, 668.536 692.452, 671.703 701.938, 674.869 711.423, 678.035 721.137, 681.278 727.241, 681.151 " fill="none" stroke="rgb(0, 119, 0)" stroke-linecap="butt" stroke-linejoin="round" stroke-opacity="1.0" stroke-width="3.0" />
            <path d=" M 591.535, 728.523 581.550, 729.079 571.565, 729.635 561.581, 730.191 551.596, 730.747 541.612, 731.303 531.627, 731.859 521.643, 732.415 511.658, 732.971 501.674, 733.527 499.583, 733.644 " fill="none" stroke="rgb(0, 119, 0)" stroke-linecap="butt" stroke-linejoin="round" stroke-opacity="1.0" stroke-width="3.0" />
            <path d=" M 475.637, 860.193 477.496, 850.367 479.356, 840.542 481.215, 830.716 483.074, 820.891 484.933, 811.065 486.792, 801.239 488.652, 791.414 490.511, 781.588 492.370, 771.762 494.229, 761.937 496.088, 752.111 497.947, 742.285 499.583, 733.644 490.267, 730.008 480.951, 726.372 471.636, 722.736 462.320, 719.100 453.005, 715.464 443.689, 711.828 442.127, 711.219 432.135, 711.596 422.142, 711.972 412.149, 712.349 402.156, 712.725 392.163, 713.102 382.170, 713.479 372.177, 713.855 362.184, 714.232 352.191, 714.608 342.198, 714.985 332.205, 715.361 322.213, 715.738 312.220, 716.115 302.227, 716.491 292.234, 716.868 282.241, 717.244 271.151, 717.662 " fill="none" stroke="rgb(0, 119, 0)" stroke-linecap="butt" stroke-linejoin="round" stroke-opacity="1.0" stroke-width="3.0" />
            <path d=" M 630.000, 873.363 632.048, 863.576 634.097, 853.788 636.145, 844.000 638.194, 834.212 640.242, 824.424 642.291, 814.636 644.340, 804.848 646.388, 795.060 648.437, 785.272 650.485, 775.484 652.534, 765.696 654.582, 755.908 655.337, 752.302 645.967, 748.809 636.596, 745.317 627.226, 741.825 617.856, 738.333 608.485, 734.841 599.115, 731.348 591.535, 728.523 589.567, 738.328 587.600, 748.132 585.633, 757.937 583.665, 767.742 581.698, 777.546 579.731, 787.351 577.764, 797.155 575.796, 806.960 573.829, 816.765 571.862, 826.569 569.894, 836.374 567.811, 846.757 " fill="none" stroke="rgb(0, 119, 0)" stroke-linecap="butt" stroke-linejoin="round" stroke-opacity="1.0" stroke-width="3.0" />
            <path d=" M 247.098, 578.071 245.572, 587.954 244.045, 597.837 242.519, 607.720 241.984, 611.181 240.458, 621.064 238.931, 630.947 237.405, 640.830 235.879, 650.712 234.352, 660.595 232.826, 670.478 231.300, 680.361 229.773, 690.244 228.359, 699.401 237.556, 703.326 246.754, 707.251 255.951, 711.176 265.149, 715.101 271.151, 717.662 272.733, 707.788 274.264, 698.228 275.845, 688.354 277.427, 678.480 279.008, 668.606 280.590, 658.731 282.172, 648.857 283.753, 638.983 285.335, 629.109 285.559, 627.706 287.141, 617.832 288.722, 607.957 290.304, 598.083 291.886, 588.209 293.147, 580.333 " fill="none" stroke="rgb(0, 119, 0)" stroke-linecap="butt" stroke-linejoin="round" stroke-opacity="1.0" stroke-width="3.0" />
            <path d=" M 691.119, 364.244 691.164, 364.024 " fill="none" stroke="rgb(0, 119, 0)" stroke-linecap="butt" stroke-linejoin="round" stroke-opacity="1.0" stroke-width="3.0" />
            <path d=" M 733.336, 652.990 731.221, 662.763 729.106, 672.537 727.241, 681.151 717.753, 677.992 708.265, 674.834 698.777, 671.675 689.289, 668.516 679.801, 665.357 670.257, 662.180 672.301, 652.391 674.344, 642.602 676.388, 632.813 678.432, 623.024 680.476, 613.235 682.520, 603.446 684.564, 593.657 686.608, 583.868 688.652, 574.080 690.696, 564.291 692.740, 554.502 694.784, 544.713 696.828, 534.924 698.872, 525.135 700.916, 515.346 702.959, 505.557 705.003, 495.768 707.047, 485.979 709.091, 476.191 711.135, 466.402 713.179, 456.613 715.223, 446.824 717.267, 437.035 719.311, 427.246 721.355, 417.457 723.399, 407.668 725.443, 397.880 727.487, 388.091 729.432, 378.773 729.590, 378.019 730.417, 374.058 730.797, 372.237 732.841, 362.448 734.885, 352.660 735.911, 347.746 745.722, 349.678 755.534, 351.610 765.346, 353.542 775.157, 355.473 784.969, 357.405 794.780, 359.337 804.592, 361.269 814.404, 363.201 824.215, 365.133 834.027, 367.065 843.838, 368.997 853.650, 370.929 863.462, 372.860 873.273, 374.792 883.085, 376.724 892.897, 378.656 902.708, 380.588 912.520, 382.520 922.331, 384.452 932.143, 386.384 941.955, 388.316 951.766, 390.247 961.578, 392.179 971.389, 394.111 981.201, 396.043 991.013, 397.975 1000.824, 399.907 1010.636, 401.839 1020.448, 403.771 1024.481, 404.565 " fill="none" stroke="rgb(0, 119, 0)" stroke-linecap="butt" stroke-linejoin="round" stroke-opacity="1.0" stroke-width="3.0" />
            <path d=" M 905.276, 967.913 897.444, 964.630 888.221, 960.766 878.998, 956.901 869.775, 953.036 860.552, 949.171 851.329, 945.306 842.106, 941.441 832.883, 937.577 823.660, 933.712 814.437, 929.847 805.214, 925.982 795.991, 922.117 786.768, 918.253 777.545, 914.388 768.322, 910.523 759.099, 906.658 749.876, 902.793 740.653, 898.928 731.430, 895.064 722.207, 891.199 712.984, 887.334 703.343, 883.294 " fill="none" stroke="rgb(0, 119, 0)" stroke-linecap="butt" stroke-linejoin="round" stroke-opacity="1.0" stroke-width="3.0" />
            <path d=" M 545.379, 913.971 555.196, 912.065 565.012, 910.158 574.829, 908.252 584.646, 906.345 590.731, 905.164 600.547, 903.257 610.364, 901.351 615.752, 900.304 625.569, 898.398 630.767, 897.388 638.228, 895.939 643.033, 895.006 652.849, 893.100 662.666, 891.193 672.482, 889.287 682.299, 887.381 692.115, 885.474 701.932, 883.568 703.343, 883.294 705.482, 873.525 707.621, 863.757 709.760, 853.988 711.899, 844.220 714.037, 834.451 716.176, 824.682 718.315, 814.914 720.454, 805.145 722.593, 795.377 724.732, 785.608 726.871, 775.840 729.010, 766.071 731.149, 756.302 733.288, 746.534 735.427, 736.765 737.565, 726.997 739.704, 717.228 741.843, 707.459 743.982, 697.691 746.121, 687.922 748.260, 678.154 750.399, 668.385 752.429, 659.113 753.752, 653.072 " fill="none" stroke="rgb(0, 119, 0)" stroke-linecap="butt" stroke-linejoin="round" stroke-opacity="1.0" stroke-width="3.0" />
            <path d=" M 804.162, 932.267 794.481, 934.772 784.800, 937.278 775.119, 939.783 765.438, 942.288 756.909, 944.496 747.228, 947.001 745.248, 947.513 738.904, 949.155 729.223, 951.660 719.542, 954.166 709.861, 956.671 700.180, 959.176 690.499, 961.682 680.818, 964.187 671.137, 966.692 670.133, 966.952 663.757, 968.602 " fill="none" stroke="rgb(0, 119, 0)" stroke-linecap="butt" stroke-linejoin="round" stroke-opacity="1.0" stroke-width="3.0" />
            <path d=" M 545.379, 913.971 554.459, 918.161 563.539, 922.352 568.237, 924.520 577.317, 928.710 586.397, 932.901 595.477, 937.091 604.556, 941.281 613.636, 945.471 622.716, 949.662 631.796, 953.852 640.875, 958.042 649.955, 962.233 654.684, 964.415 663.757, 968.602 665.870, 958.828 667.984, 949.054 669.803, 940.645 660.679, 936.551 651.555, 932.457 642.432, 928.363 633.308, 924.269 624.185, 920.175 615.061, 916.081 605.938, 911.987 596.814, 907.893 590.731, 905.164 581.607, 901.070 573.710, 897.526 564.586, 893.432 555.462, 889.338 550.718, 887.209 549.455, 893.539 547.499, 903.346 545.542, 913.153 545.379, 913.971 " fill="none" stroke="rgb(0, 119, 0)" stroke-linecap="butt" stroke-linejoin="round" stroke-opacity="1.0" stroke-width="3.0" />
            <path d=" M 895.887, 970.947 886.673, 967.061 877.459, 963.175 868.245, 959.290 859.030, 955.404 849.816, 951.519 840.602, 947.633 831.388, 943.748 822.173, 939.862 812.959, 935.977 804.162, 932.267 801.890, 942.005 800.027, 949.991 " fill="none" stroke="rgb(0, 119, 0)" stroke-linecap="butt" stroke-linejoin="round" stroke-opacity="1.0" stroke-width="3.0" />
            <path d=" M 550.718, 887.209 560.569, 885.489 570.420, 883.768 576.090, 882.778 585.941, 881.058 591.323, 880.118 598.895, 878.796 603.771, 877.944 613.622, 876.224 623.473, 874.503 630.000, 873.363 620.806, 869.430 611.612, 865.496 602.418, 861.563 593.224, 857.630 584.030, 853.696 574.836, 849.763 567.811, 846.757 557.916, 848.199 548.020, 849.642 538.125, 851.084 528.229, 852.527 518.334, 853.969 508.439, 855.412 498.543, 856.854 488.648, 858.297 478.752, 859.739 475.637, 860.193 484.751, 864.310 493.864, 868.427 502.977, 872.544 512.090, 876.660 521.204, 880.777 530.317, 884.894 539.430, 889.011 548.544, 893.128 549.455, 893.539 558.568, 897.656 567.682, 901.773 576.795, 905.890 585.908, 910.007 595.022, 914.123 604.135, 918.240 613.248, 922.357 622.361, 926.474 631.475, 930.591 640.588, 934.707 649.701, 938.824 659.257, 943.141 " fill="none" stroke="rgb(0, 119, 0)" stroke-linecap="butt" stroke-linejoin="round" stroke-opacity="1.0" stroke-width="3.0" />
            <path d=" M 966.458, 720.735 960.185, 721.176 950.209, 721.876 940.234, 722.577 930.734, 723.244 " fill="none" stroke="rgb(0, 119, 0)" stroke-linecap="butt" stroke-linejoin="round" stroke-opacity="1.0" stroke-width="3.0" />
            <path d=" M 930.734, 723.244 928.371, 732.961 926.044, 742.536 935.537, 745.679 935.736, 745.745 945.227, 748.888 950.197, 750.534 952.734, 751.373 958.409, 753.253 966.138, 755.812 968.551, 746.107 968.741, 745.343 971.153, 735.638 973.565, 725.934 975.978, 716.229 978.390, 706.524 980.802, 696.820 983.215, 687.115 985.627, 677.410 988.039, 667.706 990.452, 658.001 992.864, 648.296 995.277, 638.592 997.689, 628.887 1000.101, 619.182 1001.573, 613.262 1002.725, 608.626 1002.803, 608.315 993.155, 605.683 983.508, 603.051 976.318, 601.089 971.421, 599.753 961.774, 597.121 959.660, 596.544 958.952, 599.459 956.592, 609.177 954.232, 618.894 951.872, 628.612 949.512, 638.329 947.151, 648.047 944.791, 657.764 942.431, 667.482 940.071, 677.199 937.711, 686.917 935.350, 696.634 932.990, 706.352 932.148, 709.821 930.587, 716.248 929.022, 722.691 930.734, 723.244 " fill="none" stroke="rgb(0, 119, 0)" stroke-linecap="butt" stroke-linejoin="round" stroke-opacity="1.0" stroke-width="3.0" />
            <path d=" M 926.044, 742.536 936.003, 741.635 945.962, 740.735 952.763, 740.120 " fill="none" stroke="rgb(0, 119, 0)" stroke-linecap="butt" stroke-linejoin="round" stroke-opacity="1.0" stroke-width="3.0" />
            <path d=" M 505.517, 1115.289 509.681, 1113.888 519.159, 1110.698 528.636, 1107.509 538.114, 1104.319 547.592, 1101.130 557.069, 1097.940 566.547, 1094.751 576.025, 1091.561 585.503, 1088.372 594.980, 1085.182 604.458, 1081.993 613.936, 1078.803 616.918, 1077.800 625.800, 1082.393 634.683, 1086.986 643.566, 1091.579 652.449, 1096.172 661.331, 1100.766 670.214, 1105.359 679.097, 1109.952 687.980, 1114.545 696.862, 1119.138 705.745, 1123.731 714.628, 1128.324 723.510, 1132.918 732.393, 1137.511 741.276, 1142.104 746.863, 1144.993 " fill="none" stroke="rgb(0, 119, 0)" stroke-linecap="butt" stroke-linejoin="round" stroke-opacity="1.0" stroke-width="3.0" />
            <path d=" M 764.394, 1069.535 766.657, 1059.794 768.792, 1050.607 771.055, 1040.866 773.318, 1031.126 775.581, 1021.385 777.844, 1011.645 780.107, 1001.904 782.370, 992.164 782.760, 990.484 773.201, 993.423 763.643, 996.362 754.084, 999.300 744.526, 1002.239 734.968, 1005.177 725.409, 1008.116 715.851, 1011.055 706.292, 1013.993 697.429, 1016.718 690.716, 1018.782 681.157, 1021.721 678.013, 1022.687 669.002, 1018.351 659.926, 1013.984 650.915, 1009.648 641.904, 1005.312 632.893, 1000.976 623.882, 996.640 614.871, 992.304 605.859, 987.968 596.848, 983.633 587.837, 979.297 578.826, 974.961 569.815, 970.625 565.698, 968.644 558.966, 970.254 " fill="none" stroke="rgb(0, 119, 0)" stroke-linecap="butt" stroke-linejoin="round" stroke-opacity="1.0" stroke-width="3.0" />
            <path d=" M 565.698, 968.644 564.796, 973.072 " fill="none" stroke="rgb(0, 119, 0)" stroke-linecap="butt" stroke-linejoin="round" stroke-opacity="1.0" stroke-width="3.0" />
            <path d=" M 669.803, 940.645 660.072, 942.948 659.257, 943.141 657.156, 952.918 655.054, 962.694 654.684, 964.415 652.583, 974.192 650.481, 983.969 648.868, 991.471 " fill="none" stroke="rgb(0, 119, 0)" stroke-linecap="butt" stroke-linejoin="round" stroke-opacity="1.0" stroke-width="3.0" />
            <path d=" M 692.212, 1012.015 683.176, 1007.732 674.140, 1003.449 665.103, 999.166 663.325, 998.323 654.289, 994.040 648.868, 991.471 658.512, 988.825 665.822, 986.819 675.465, 984.173 685.109, 981.526 694.752, 978.880 704.396, 976.234 714.039, 973.587 723.683, 970.941 733.326, 968.295 742.970, 965.648 752.613, 963.002 762.257, 960.356 763.565, 959.997 769.831, 958.277 779.475, 955.631 781.348, 955.117 790.992, 952.470 800.027, 949.991 809.215, 953.936 818.404, 957.882 827.593, 961.827 836.782, 965.773 845.971, 969.718 855.159, 973.663 864.348, 977.609 873.537, 981.554 882.726, 985.499 891.915, 989.445 901.103, 993.390 910.292, 997.335 919.481, 1001.281 928.670, 1005.226 937.859, 1009.172 942.677, 1011.240 951.866, 1015.186 961.055, 1019.131 970.244, 1023.076 979.432, 1027.022 988.621, 1030.967 997.810, 1034.913 1006.999, 1038.858 1016.188, 1042.803 1022.709, 1045.603 " fill="none" stroke="rgb(0, 119, 0)" stroke-linecap="butt" stroke-linejoin="round" stroke-opacity="1.0" stroke-width="3.0" />
            <path d=" M 1091.728, 785.552 1081.862, 787.183 1071.996, 788.815 1062.130, 790.446 1054.147, 791.766 " fill="none" stroke="rgb(0, 119, 0)" stroke-linecap="butt" stroke-linejoin="round" stroke-opacity="1.0" stroke-width="3.0" />
            <path d=" M 909.256, 1024.047 906.832, 1033.749 904.408, 1043.451 901.984, 1053.152 899.560, 1062.854 897.136, 1072.556 894.712, 1082.258 892.288, 1091.959 889.864, 1101.661 888.425, 1107.419 " fill="none" stroke="rgb(0, 119, 0)" stroke-linecap="butt" stroke-linejoin="round" stroke-opacity="1.0" stroke-width="3.0" />
            <path d=" M 448.972, 320.042 439.244, 317.724 429.516, 315.406 419.789, 313.088 418.792, 312.851 " fill="none" stroke="rgb(0, 119, 0)" stroke-linecap="butt" stroke-linejoin="round" stroke-opacity="1.0" stroke-width="3.0" />
            <path d=" M 555.809, 341.581 555.678, 342.285 561.360, 343.478 571.147, 345.533 580.933, 347.588 590.720, 349.644 600.506, 351.699 610.293, 353.754 614.942, 354.730 624.729, 356.785 634.515, 358.841 644.302, 360.896 654.088, 362.951 663.875, 365.006 673.661, 367.061 683.448, 369.116 693.235, 371.172 703.021, 373.227 712.808, 375.282 723.227, 377.470 729.432, 378.773 739.219, 380.828 749.005, 382.883 758.792, 384.938 768.578, 386.994 778.365, 389.049 788.151, 391.104 797.938, 393.159 807.724, 395.214 817.511, 397.269 819.972, 397.786 829.759, 399.841 839.545, 401.897 840.945, 402.191 " fill="none" stroke="rgb(0, 119, 0)" stroke-linecap="butt" stroke-linejoin="round" stroke-opacity="1.0" stroke-width="3.0" />
            <path d=" M 555.678, 342.285 561.329, 343.645 " fill="none" stroke="rgb(0, 119, 0)" stroke-linecap="butt" stroke-linejoin="round" stroke-opacity="1.0" stroke-width="3.0" />
            <path d=" M 562.469, 337.571 556.819, 336.183 " fill="none" stroke="rgb(0, 119, 0)" stroke-linecap="butt" stroke-linejoin="round" stroke-opacity="1.0" stroke-width="3.0" />
            <path d=" M 1215.170, 484.521 1205.385, 482.454 1195.601, 480.387 1185.817, 478.320 1176.033, 476.253 1166.249, 474.185 1156.465, 472.118 1146.681, 470.051 1136.897, 467.984 1127.113, 465.917 1117.329, 463.850 1107.545, 461.783 1097.761, 459.716 1087.977, 457.649 1078.193, 455.582 1068.409, 453.515 1058.625, 451.448 1048.841, 449.381 1039.057, 447.314 1029.273, 445.247 1019.489, 443.180 1015.238, 442.282 1005.454, 440.215 995.670, 438.148 985.885, 436.081 983.176, 435.508 " fill="none" stroke="rgb(0, 119, 0)" stroke-linecap="butt" stroke-linejoin="round" stroke-opacity="1.0" stroke-width="3.0" />
            <path d=" M 1173.260, 618.299 1171.484, 624.879 1168.877, 634.534 1166.270, 644.188 1163.664, 653.842 1161.057, 663.496 1158.450, 673.151 1155.843, 682.805 1153.236, 692.459 1150.630, 702.113 1148.023, 711.768 1145.416, 721.422 1142.809, 731.076 1140.203, 740.730 1137.596, 750.385 1134.989, 760.039 1132.382, 769.693 1129.776, 779.348 1127.169, 789.002 1124.562, 798.656 1121.955, 808.310 1119.349, 817.965 1116.742, 827.619 1114.135, 837.273 1111.528, 846.927 1108.922, 856.582 1106.315, 866.236 1103.708, 875.890 1101.101, 885.544 1098.495, 895.199 1095.888, 904.853 1093.281, 914.507 1090.764, 923.829 1089.691, 927.803 1095.735, 925.698 1098.348, 916.045 1100.962, 906.393 1103.575, 896.740 1106.188, 887.088 1108.801, 877.435 1111.414, 867.783 1114.027, 858.130 1116.640, 848.477 1119.253, 838.825 1121.866, 829.172 1124.479, 819.520 1127.093, 809.867 1129.706, 800.215 1132.319, 790.562 1134.932, 780.910 1137.545, 771.257 1140.158, 761.605 1142.771, 751.952 1145.384, 742.299 1147.998, 732.647 1150.611, 722.994 1153.224, 713.342 1155.837, 703.689 1158.450, 694.037 1161.063, 684.384 1163.676, 674.732 1166.289, 665.079 1168.902, 655.427 1171.516, 645.774 1174.129, 636.121 1177.100, 625.144 1178.579, 619.683 " fill="none" stroke="rgb(0, 119, 0)" stroke-linecap="butt" stroke-linejoin="round" stroke-opacity="1.0" stroke-width="3.0" />
            <path d=" M 833.427, 919.714 824.181, 915.904 819.966, 914.168 810.720, 910.358 801.474, 906.549 792.228, 902.740 782.982, 898.930 773.736, 895.121 764.490, 891.312 755.244, 887.502 745.998, 883.693 736.752, 879.883 734.680, 879.030 724.867, 880.951 718.150, 882.267 " fill="none" stroke="rgb(0, 119, 0)" stroke-linecap="butt" stroke-linejoin="round" stroke-opacity="1.0" stroke-width="3.0" />
            <path d=" M 1093.640, 1030.863 1084.398, 1027.042 1075.157, 1023.222 1065.916, 1019.401 1056.674, 1015.581 1047.432, 1011.761 1038.191, 1007.940 1033.247, 1005.896 1024.006, 1002.076 1014.764, 998.256 1005.523, 994.435 996.388, 990.659 " fill="none" stroke="rgb(0, 119, 0)" stroke-linecap="butt" stroke-linejoin="round" stroke-opacity="1.0" stroke-width="3.0" />
            <path d=" M 1019.617, 901.349 1028.972, 904.881 1038.328, 908.413 1047.683, 911.945 1057.226, 915.547 1066.582, 919.079 1075.938, 922.611 1085.293, 926.143 1089.691, 927.803 " fill="none" stroke="rgb(0, 119, 0)" stroke-linecap="butt" stroke-linejoin="round" stroke-opacity="1.0" stroke-width="3.0" />
            <path d=" M 1026.045, 899.497 1035.405, 903.016 1044.765, 906.535 1054.126, 910.054 1058.271, 911.613 1067.631, 915.132 1076.991, 918.651 1086.352, 922.170 1090.764, 923.829 1095.735, 925.698 " fill="none" stroke="rgb(0, 119, 0)" stroke-linecap="butt" stroke-linejoin="round" stroke-opacity="1.0" stroke-width="3.0" />
            <path d=" M 966.138, 755.812 957.543, 756.751 951.237, 757.439 " fill="none" stroke="rgb(0, 119, 0)" stroke-linecap="butt" stroke-linejoin="round" stroke-opacity="1.0" stroke-width="3.0" />
            <path d=" M 1002.803, 608.315 992.819, 607.745 988.238, 607.483 " fill="none" stroke="rgb(0, 119, 0)" stroke-linecap="butt" stroke-linejoin="round" stroke-opacity="1.0" stroke-width="3.0" />
            <path d=" M 959.660, 596.544 949.683, 595.872 944.613, 595.530 " fill="none" stroke="rgb(0, 119, 0)" stroke-linecap="butt" stroke-linejoin="round" stroke-opacity="1.0" stroke-width="3.0" />
            <path d=" M 929.022, 722.691 938.998, 721.997 946.819, 721.454 " fill="none" stroke="rgb(0, 119, 0)" stroke-linecap="butt" stroke-linejoin="round" stroke-opacity="1.0" stroke-width="3.0" />
            <path d=" M 777.670, 385.859 778.473, 382.118 " fill="none" stroke="rgb(0, 119, 0)" stroke-linecap="butt" stroke-linejoin="round" stroke-opacity="1.0" stroke-width="3.0" />
            <path d=" M 883.629, 999.566 874.648, 995.664 865.477, 991.678 856.305, 987.692 847.134, 983.706 837.963, 979.721 828.791, 975.735 819.620, 971.749 810.449, 967.763 801.277, 963.777 792.106, 959.792 782.934, 955.806 781.348, 955.117 772.177, 951.131 763.006, 947.145 756.909, 944.496 747.738, 940.510 738.566, 936.524 729.395, 932.538 723.342, 929.908 714.171, 925.922 704.999, 921.936 704.591, 921.759 695.420, 917.773 686.249, 913.788 677.077, 909.802 667.906, 905.816 658.735, 901.830 649.563, 897.844 643.033, 895.006 633.861, 891.021 624.690, 887.035 615.518, 883.049 606.347, 879.063 603.771, 877.944 594.600, 873.958 585.429, 869.972 579.792, 867.523 574.873, 868.326 567.238, 869.572 576.398, 873.583 578.387, 874.454 587.547, 878.465 591.323, 880.118 600.483, 884.129 609.644, 888.140 618.804, 892.150 627.964, 896.161 630.767, 897.388 639.927, 901.399 649.088, 905.410 658.248, 909.421 667.409, 913.432 676.569, 917.443 685.729, 921.453 694.890, 925.464 702.994, 929.013 712.154, 933.024 715.510, 934.493 " fill="none" stroke="rgb(0, 119, 0)" stroke-linecap="butt" stroke-linejoin="round" stroke-opacity="1.0" stroke-width="3.0" />
            <path d=" M 567.238, 869.572 568.084, 865.366 " fill="none" stroke="rgb(0, 119, 0)" stroke-linecap="butt" stroke-linejoin="round" stroke-opacity="1.0" stroke-width="3.0" />
            <path d=" M 722.706, 932.760 713.539, 928.765 704.372, 924.769 703.967, 924.593 694.800, 920.597 685.633, 916.601 676.466, 912.606 667.299, 908.610 658.132, 904.615 648.965, 900.619 639.798, 896.624 638.228, 895.939 629.061, 891.944 619.894, 887.948 610.727, 883.953 601.560, 879.957 598.895, 878.796 589.728, 874.800 580.560, 870.805 579.243, 870.230 574.873, 868.326 568.084, 865.366 558.210, 866.948 548.336, 868.529 545.038, 869.057 " fill="none" stroke="rgb(0, 119, 0)" stroke-linecap="butt" stroke-linejoin="round" stroke-opacity="1.0" stroke-width="3.0" />
            <path d=" M 675.467, 942.376 684.592, 946.467 693.716, 950.559 702.841, 954.650 711.966, 958.742 721.091, 962.833 730.215, 966.924 739.340, 971.016 748.465, 975.107 757.590, 979.198 766.714, 983.290 775.839, 987.381 782.760, 990.484 " fill="none" stroke="rgb(0, 119, 0)" stroke-linecap="butt" stroke-linejoin="round" stroke-opacity="1.0" stroke-width="3.0" />
            <path d=" M 576.649, 883.025 578.387, 874.454 579.243, 870.230 579.792, 867.523 " fill="none" stroke="rgb(0, 119, 0)" stroke-linecap="butt" stroke-linejoin="round" stroke-opacity="1.0" stroke-width="3.0" />
            <path d=" M 677.000, 1027.299 678.013, 1022.687 " fill="none" stroke="rgb(0, 119, 0)" stroke-linecap="butt" stroke-linejoin="round" stroke-opacity="1.0" stroke-width="3.0" />
            <path d=" M 732.617, 888.287 734.680, 879.030 " fill="none" stroke="rgb(0, 119, 0)" stroke-linecap="butt" stroke-linejoin="round" stroke-opacity="1.0" stroke-width="3.0" />
            <path d=" M 826.717, 392.115 825.876, 395.924 " fill="none" stroke="rgb(0, 119, 0)" stroke-linecap="butt" stroke-linejoin="round" stroke-opacity="1.0" stroke-width="3.0" />
        </g>
    </g>
</svg>
