<?xml version='1.0' encoding='ascii'?>
<svg xmlns="http://www.w3.org/2000/svg" xmlns:inkscape="http://www.inkscape.org/namespaces/inkscape" height="1500" version="1.1" width="1500">
    <g id="fressstylelayer_LineSet" inkscape:groupmode="lineset" inkscape:label="fressstylelayer_LineSet">
        <g id="strokes" inkscape:groupmode="layer" inkscape:label="strokes">
            <path d=" M 456.654, 548.942 457.945, 550.187 " fill="none" stroke="rgb(157, 20, 170)" stroke-linecap="butt" stroke-linejoin="round" stroke-opacity="1.0" stroke-width="3.0" />
            <path d=" M 487.062, 630.557 483.656, 621.156 480.250, 611.753 476.844, 602.352 473.438, 592.949 470.031, 583.547 466.625, 574.146 464.129, 567.256 460.723, 557.854 457.945, 550.187 467.156, 546.292 476.366, 542.397 485.576, 538.502 494.787, 534.608 503.997, 530.713 513.207, 526.818 522.418, 522.923 531.628, 519.028 540.838, 515.133 550.049, 511.238 559.259, 507.344 568.469, 503.449 577.680, 499.554 586.890, 495.659 596.100, 491.764 605.311, 487.869 614.521, 483.974 623.731, 480.080 632.942, 476.185 639.032, 473.609 648.242, 469.714 657.453, 465.820 666.663, 461.925 675.873, 458.030 685.084, 454.135 694.294, 450.240 703.504, 446.345 712.715, 442.450 721.925, 438.556 731.135, 434.661 740.346, 430.766 749.556, 426.871 758.766, 422.976 767.977, 419.081 777.187, 415.186 786.397, 411.292 795.607, 407.397 804.818, 403.502 814.028, 399.607 823.238, 395.712 832.449, 391.817 841.659, 387.922 850.869, 384.028 860.080, 380.133 866.208, 377.541 875.418, 373.647 884.628, 369.752 893.839, 365.857 903.049, 361.962 912.259, 358.067 921.470, 354.172 930.680, 350.277 938.096, 347.141 947.306, 343.246 956.517, 339.352 965.727, 335.457 974.937, 331.562 984.148, 327.667 993.358, 323.772 1002.568, 319.877 1011.779, 315.982 1020.989, 312.088 1030.199, 308.193 1039.410, 304.298 1048.620, 300.403 1057.830, 296.508 1062.499, 294.534 " fill="none" stroke="rgb(157, 20, 170)" stroke-linecap="butt" stroke-linejoin="round" stroke-opacity="1.0" stroke-width="3.0" />
            <path d=" M 1075.465, 396.167 1074.200, 386.247 1072.934, 376.328 1071.669, 366.408 1070.403, 356.488 1069.138, 346.569 1067.872, 336.649 1066.607, 326.730 1065.341, 316.810 1064.075, 306.890 1062.810, 296.971 1062.499, 294.534 1052.892, 291.756 1043.286, 288.979 1033.679, 286.202 1024.073, 283.424 1014.466, 280.647 1004.860, 277.870 995.253, 275.092 985.646, 272.315 976.040, 269.537 966.433, 266.760 956.827, 263.983 947.220, 261.205 937.614, 258.428 928.007, 255.651 918.400, 252.873 908.794, 250.096 899.187, 247.318 889.581, 244.541 879.974, 241.764 870.368, 238.986 860.761, 236.209 851.154, 233.431 841.548, 230.654 831.941, 227.877 822.335, 225.099 812.728, 222.322 803.122, 219.544 793.515, 216.767 783.909, 213.990 774.302, 211.212 764.695, 208.435 759.658, 206.979 750.310, 210.531 740.963, 214.084 731.615, 217.637 722.268, 221.190 712.920, 224.743 703.573, 228.296 694.225, 231.849 684.878, 235.402 675.530, 238.955 670.047, 241.039 " fill="none" stroke="rgb(157, 20, 170)" stroke-linecap="butt" stroke-linejoin="round" stroke-opacity="1.0" stroke-width="3.0" />
            <path d=" M 118.636, 590.756 114.202, 581.792 109.768, 572.829 105.334, 563.866 100.900, 554.902 96.467, 545.939 92.033, 536.976 90.838, 534.561 88.684, 530.206 84.571, 521.091 80.457, 511.977 76.344, 502.862 72.230, 493.747 68.117, 484.632 67.786, 483.899 63.672, 474.784 59.559, 465.669 55.446, 456.555 54.135, 453.652 50.022, 444.537 45.909, 435.422 41.795, 426.307 37.682, 417.192 33.568, 408.078 29.455, 398.963 25.341, 389.848 21.228, 380.733 17.114, 371.618 15.613, 368.291 25.024, 364.911 34.436, 361.532 43.848, 358.152 53.259, 354.773 62.671, 351.393 72.082, 348.014 81.494, 344.634 90.906, 341.255 100.317, 337.875 109.729, 334.495 119.141, 331.116 128.552, 327.736 137.964, 324.357 147.375, 320.977 156.787, 317.598 166.199, 314.218 175.610, 310.839 185.022, 307.459 194.433, 304.079 203.845, 300.700 213.257, 297.320 222.668, 293.941 232.080, 290.561 241.492, 287.182 250.903, 283.802 260.315, 280.422 269.726, 277.043 279.138, 273.663 288.550, 270.284 297.961, 266.904 307.373, 263.525 316.784, 260.145 326.196, 256.765 335.608, 253.386 345.019, 250.006 354.431, 246.627 363.843, 243.247 373.254, 239.868 382.666, 236.488 392.077, 233.108 401.489, 229.729 410.901, 226.349 420.312, 222.970 429.724, 219.590 439.135, 216.211 448.547, 212.831 457.959, 209.451 467.370, 206.072 476.782, 202.692 486.194, 199.313 495.605, 195.933 505.017, 192.554 514.428, 189.174 520.144, 187.122 529.554, 190.506 538.964, 193.891 548.374, 197.275 557.784, 200.660 567.193, 204.044 576.603, 207.429 586.013, 210.813 595.423, 214.198 604.833, 217.582 614.242, 220.967 623.652, 224.351 633.062, 227.736 642.472, 231.120 651.882, 234.505 661.292, 237.890 670.047, 241.039 679.457, 244.423 688.867, 247.808 696.309, 250.485 705.719, 253.869 710.604, 255.626 720.014, 259.011 729.424, 262.395 738.286, 265.583 747.696, 268.967 751.532, 270.347 753.777, 280.092 756.022, 289.836 758.267, 299.581 760.512, 309.326 762.757, 319.071 765.002, 328.816 767.248, 338.561 768.462, 343.832 759.213, 347.605 749.954, 351.382 740.695, 355.160 731.436, 358.937 727.898, 360.381 " fill="none" stroke="rgb(157, 20, 170)" stroke-linecap="butt" stroke-linejoin="round" stroke-opacity="1.0" stroke-width="3.0" />
            <path d=" M 709.306, 351.675 718.362, 355.916 727.419, 360.156 727.898, 360.381 736.954, 364.621 737.091, 364.685 746.147, 368.926 746.980, 369.316 756.037, 373.557 765.093, 377.797 774.149, 382.038 783.206, 386.278 791.337, 390.085 793.542, 399.839 794.936, 406.003 785.725, 409.896 776.513, 413.788 767.302, 417.680 758.091, 421.572 748.879, 425.465 739.668, 429.357 730.456, 433.249 721.245, 437.141 712.033, 441.034 702.822, 444.926 693.611, 448.818 684.399, 452.710 675.188, 456.602 665.976, 460.495 656.765, 464.387 647.553, 468.279 637.430, 472.557 628.219, 476.449 619.008, 480.341 609.796, 484.233 600.585, 488.126 591.373, 492.018 582.162, 495.910 572.950, 499.802 563.739, 503.694 554.528, 507.587 545.316, 511.479 536.105, 515.371 526.893, 519.263 517.682, 523.156 508.470, 527.048 499.259, 530.940 490.048, 534.832 480.836, 538.725 471.625, 542.617 462.413, 546.509 456.654, 548.942 460.063, 558.344 463.406, 567.564 466.815, 576.965 470.224, 586.366 473.633, 595.767 477.042, 605.168 480.450, 614.569 483.859, 623.970 485.752, 629.192 " fill="none" stroke="rgb(157, 20, 170)" stroke-linecap="butt" stroke-linejoin="round" stroke-opacity="1.0" stroke-width="3.0" />
            <path d=" M 132.880, 780.704 130.183, 781.889 133.621, 791.279 137.060, 800.670 140.498, 810.060 143.936, 819.451 147.374, 828.841 150.812, 838.231 154.251, 847.622 157.689, 857.012 161.127, 866.402 164.565, 875.793 168.003, 885.183 171.441, 894.573 174.880, 903.964 178.318, 913.354 181.756, 922.745 185.194, 932.135 188.632, 941.525 192.071, 950.916 195.509, 960.306 198.947, 969.696 201.012, 975.337 205.776, 984.130 210.539, 992.922 215.303, 1001.715 220.067, 1010.508 224.830, 1019.300 229.594, 1028.093 234.357, 1036.885 239.121, 1045.678 243.884, 1054.470 248.648, 1063.263 253.411, 1072.055 258.175, 1080.848 262.938, 1089.640 267.702, 1098.433 272.466, 1107.225 277.229, 1116.018 281.993, 1124.810 286.756, 1133.603 291.520, 1142.396 296.283, 1151.188 301.047, 1159.981 305.810, 1168.773 310.574, 1177.566 315.337, 1186.358 320.101, 1195.151 324.865, 1203.943 329.628, 1212.736 334.392, 1221.528 339.155, 1230.321 343.919, 1239.113 348.682, 1247.906 353.446, 1256.698 358.209, 1265.491 362.973, 1274.284 365.007, 1278.039 373.771, 1273.222 382.535, 1268.406 391.298, 1263.589 400.062, 1258.773 405.712, 1255.668 " fill="none" stroke="rgb(157, 20, 170)" stroke-linecap="butt" stroke-linejoin="round" stroke-opacity="1.0" stroke-width="3.0" />
            <path d=" M 1112.336, 409.702 1103.223, 413.820 1094.110, 417.938 1084.998, 422.057 1079.108, 424.719 1076.476, 425.908 1067.364, 430.027 1058.251, 434.145 1052.038, 436.953 1042.926, 441.071 1033.813, 445.190 1024.700, 449.308 1015.588, 453.427 1011.414, 455.313 1008.987, 456.410 1001.293, 459.887 992.181, 464.005 983.068, 468.124 973.956, 472.242 964.843, 476.361 955.731, 480.479 946.618, 484.597 937.506, 488.716 928.393, 492.834 919.280, 496.953 910.168, 501.071 901.055, 505.190 891.943, 509.308 882.830, 513.426 873.718, 517.545 864.605, 521.663 855.493, 525.782 846.380, 529.900 837.267, 534.018 828.155, 538.137 819.042, 542.255 809.930, 546.374 800.817, 550.492 791.705, 554.611 782.592, 558.729 773.480, 562.847 764.367, 566.966 755.255, 571.084 746.142, 575.203 737.029, 579.321 727.917, 583.439 718.804, 587.558 709.692, 591.676 700.579, 595.795 691.467, 599.913 682.354, 604.032 673.242, 608.150 664.129, 612.268 655.016, 616.387 645.904, 620.505 636.791, 624.624 627.679, 628.742 618.566, 632.860 609.454, 636.979 600.341, 641.097 591.229, 645.216 582.116, 649.334 573.003, 653.453 563.891, 657.571 554.778, 661.689 545.666, 665.808 536.553, 669.926 527.441, 674.045 518.328, 678.163 509.216, 682.281 500.103, 686.400 490.990, 690.518 481.878, 694.637 472.765, 698.755 463.653, 702.874 452.257, 708.024 " fill="none" stroke="rgb(157, 20, 170)" stroke-linecap="butt" stroke-linejoin="round" stroke-opacity="1.0" stroke-width="3.0" />
            <path d=" M 413.703, 660.891 420.034, 668.631 426.366, 676.371 432.697, 684.112 439.029, 691.852 445.360, 699.592 451.692, 707.333 452.257, 708.024 455.865, 717.350 459.473, 726.677 463.082, 736.003 466.690, 745.329 470.298, 754.656 473.906, 763.982 475.757, 768.767 " fill="none" stroke="rgb(157, 20, 170)" stroke-linecap="butt" stroke-linejoin="round" stroke-opacity="1.0" stroke-width="3.0" />
            <path d=" M 436.663, 719.064 442.845, 726.924 449.027, 734.784 455.210, 742.644 461.392, 750.504 467.574, 758.364 473.757, 766.224 475.757, 768.767 484.823, 764.548 493.890, 760.329 502.956, 756.110 512.023, 751.891 521.089, 747.672 530.155, 743.452 539.222, 739.233 548.288, 735.014 557.354, 730.795 566.421, 726.576 575.487, 722.357 584.554, 718.138 593.620, 713.919 602.686, 709.700 611.753, 705.481 620.819, 701.261 629.886, 697.042 638.952, 692.823 648.018, 688.604 657.085, 684.385 666.151, 680.166 675.217, 675.947 684.284, 671.728 693.350, 667.509 702.417, 663.290 711.483, 659.071 720.549, 654.851 729.616, 650.632 738.682, 646.413 747.749, 642.194 756.815, 637.975 765.881, 633.756 774.948, 629.537 784.014, 625.318 793.080, 621.099 802.147, 616.880 811.213, 612.661 820.280, 608.441 829.346, 604.222 838.412, 600.003 847.479, 595.784 856.545, 591.565 865.611, 587.346 874.678, 583.127 883.744, 578.908 892.811, 574.689 904.151, 569.411 912.783, 574.460 921.415, 579.510 930.046, 584.559 932.828, 586.186 934.694, 596.010 936.559, 605.835 938.425, 615.659 940.290, 625.484 942.155, 635.308 944.021, 645.133 945.886, 654.957 947.752, 664.782 949.617, 674.606 951.483, 684.430 952.312, 688.799 954.178, 698.624 956.043, 708.448 957.909, 718.273 959.774, 728.097 961.640, 737.922 963.505, 747.746 965.370, 757.570 967.236, 767.395 967.509, 768.835 969.375, 778.659 971.240, 788.484 973.106, 798.308 974.971, 808.133 976.837, 817.957 978.702, 827.781 980.568, 837.606 982.433, 847.430 984.298, 857.255 986.232, 867.439 988.098, 877.264 989.963, 887.088 991.829, 896.913 993.694, 906.737 995.366, 915.542 997.232, 925.367 999.097, 935.191 1000.962, 945.016 1002.828, 954.840 1003.997, 960.995 1005.862, 970.820 1005.938, 971.220 1007.803, 981.044 1009.669, 990.868 1011.534, 1000.693 1013.037, 1008.607 1014.903, 1018.432 1015.008, 1018.990 1015.737, 1022.827 1017.603, 1032.651 1019.261, 1041.386 1021.127, 1051.210 1022.992, 1061.035 1024.857, 1070.859 1024.970, 1071.451 1019.197, 1074.812 1010.556, 1079.844 1006.557, 1082.173 997.915, 1087.205 989.273, 1092.237 980.632, 1097.269 971.990, 1102.301 963.348, 1107.333 954.707, 1112.365 946.065, 1117.397 945.062, 1117.981 938.070, 1122.052 929.429, 1127.084 920.787, 1132.116 912.145, 1137.148 903.503, 1142.180 894.862, 1147.212 886.220, 1152.244 877.578, 1157.276 868.937, 1162.308 860.295, 1167.340 851.653, 1172.372 843.012, 1177.404 834.370, 1182.436 825.728, 1187.468 817.086, 1192.500 808.445, 1197.532 799.803, 1202.564 791.161, 1207.596 782.520, 1212.628 773.878, 1217.660 765.236, 1222.692 756.595, 1227.724 747.953, 1232.756 739.311, 1237.788 730.670, 1242.820 722.028, 1247.852 713.386, 1252.884 704.744, 1257.916 696.103, 1262.948 687.461, 1267.980 678.819, 1273.012 670.178, 1278.044 661.536, 1283.076 652.894, 1288.108 644.253, 1293.140 635.611, 1298.172 626.969, 1303.204 618.327, 1308.236 609.686, 1313.268 599.182, 1319.385 598.318, 1319.888 589.676, 1324.920 581.034, 1329.952 572.393, 1334.984 563.751, 1340.016 555.109, 1345.048 546.467, 1350.080 537.826, 1355.112 535.021, 1356.745 534.410, 1357.101 525.768, 1362.133 521.436, 1364.656 517.032, 1355.678 512.627, 1346.700 508.223, 1337.722 503.818, 1328.745 499.414, 1319.767 495.009, 1310.789 490.311, 1301.211 485.906, 1292.233 481.502, 1283.256 477.097, 1274.278 472.693, 1265.300 468.288, 1256.322 463.884, 1247.344 459.479, 1238.367 454.746, 1228.719 452.563, 1224.269 " fill="none" stroke="rgb(157, 20, 170)" stroke-linecap="butt" stroke-linejoin="round" stroke-opacity="1.0" stroke-width="3.0" />
            <path d=" M 1019.261, 1041.386 1027.929, 1036.399 1036.597, 1031.413 1045.265, 1026.426 1053.933, 1021.439 1062.601, 1016.452 1071.269, 1011.466 1079.936, 1006.479 1088.604, 1001.492 1097.272, 996.506 1105.940, 991.519 1114.608, 986.532 1123.276, 981.545 1131.944, 976.559 1140.612, 971.572 1149.280, 966.585 1157.948, 961.599 1166.615, 956.612 1174.835, 951.883 1173.690, 941.949 1172.545, 932.015 1171.399, 922.081 1170.254, 912.146 1169.109, 902.212 1167.964, 892.278 1166.819, 882.344 1165.674, 872.409 1164.528, 862.475 1163.383, 852.541 1162.238, 842.607 1161.093, 832.673 1159.948, 822.738 1158.803, 812.804 1157.657, 802.870 1156.512, 792.936 1155.367, 783.002 1154.222, 773.067 1153.077, 763.133 1151.932, 753.199 1150.787, 743.265 1149.641, 733.330 1148.496, 723.396 1147.351, 713.462 1146.206, 703.528 1145.061, 693.594 1143.916, 683.659 1142.771, 673.725 1141.625, 663.791 1140.480, 653.857 1139.335, 643.922 1138.190, 633.988 1137.045, 624.054 1135.900, 614.120 1134.754, 604.186 1133.609, 594.251 1132.464, 584.317 1131.319, 574.383 1130.174, 564.449 1129.029, 554.515 1127.884, 544.580 1126.738, 534.646 1125.593, 524.712 1124.448, 514.778 1123.303, 504.844 1122.158, 494.909 1121.013, 484.975 1119.867, 475.041 1118.722, 465.107 1117.577, 455.172 1116.432, 445.238 1115.287, 435.304 1114.142, 425.370 1112.996, 415.436 1112.336, 409.702 1102.948, 406.255 1093.561, 402.809 1084.173, 399.363 1075.465, 396.167 1066.078, 392.721 1056.691, 389.275 1047.303, 385.828 1044.875, 384.937 " fill="none" stroke="rgb(157, 20, 170)" stroke-linecap="butt" stroke-linejoin="round" stroke-opacity="1.0" stroke-width="3.0" />
            <path d=" M 1044.875, 384.937 1042.976, 385.774 1033.824, 389.803 1024.672, 393.833 1015.520, 397.863 1006.367, 401.893 997.215, 405.923 988.063, 409.953 978.911, 413.983 969.759, 418.013 965.932, 419.698 956.780, 423.728 947.628, 427.758 938.476, 431.788 929.324, 435.818 920.172, 439.847 911.020, 443.877 901.868, 447.907 892.716, 451.937 883.564, 455.967 874.412, 459.997 865.260, 464.027 856.108, 468.057 846.956, 472.087 837.804, 476.117 828.651, 480.146 819.499, 484.176 810.347, 488.206 801.195, 492.236 792.043, 496.266 782.891, 500.296 773.739, 504.326 764.587, 508.356 755.435, 512.386 746.283, 516.416 737.131, 520.445 727.979, 524.475 718.827, 528.505 709.675, 532.535 700.523, 536.565 691.371, 540.595 682.219, 544.625 673.067, 548.655 663.915, 552.685 654.763, 556.715 645.611, 560.744 636.459, 564.774 627.306, 568.804 618.154, 572.834 609.002, 576.864 599.850, 580.894 590.698, 584.924 581.546, 588.954 572.394, 592.984 563.242, 597.013 554.090, 601.043 544.938, 605.073 535.786, 609.103 526.634, 613.133 517.482, 617.163 508.330, 621.193 499.178, 625.223 487.062, 630.557 485.752, 629.192 476.599, 633.219 467.446, 637.246 458.293, 641.273 449.139, 645.300 439.986, 649.327 430.833, 653.354 421.680, 657.381 413.703, 660.891 417.374, 670.193 421.045, 679.494 424.716, 688.796 428.388, 698.098 432.059, 707.400 435.730, 716.701 436.663, 719.064 427.553, 723.188 418.443, 727.312 409.333, 731.436 400.223, 735.560 391.113, 739.685 382.003, 743.809 372.893, 747.933 363.783, 752.057 354.673, 756.181 345.562, 760.305 343.944, 761.037 334.834, 765.161 325.724, 769.285 316.614, 773.409 307.504, 777.534 298.394, 781.658 289.284, 785.782 283.511, 788.395 282.242, 788.969 273.132, 793.094 264.022, 797.218 254.912, 801.342 249.151, 803.950 " fill="none" stroke="rgb(157, 20, 170)" stroke-linecap="butt" stroke-linejoin="round" stroke-opacity="1.0" stroke-width="3.0" />
            <path d=" M 932.828, 586.186 923.783, 590.451 914.738, 594.716 909.672, 597.105 900.627, 601.370 891.582, 605.635 882.537, 609.900 873.492, 614.165 864.447, 618.431 855.402, 622.696 846.358, 626.961 837.313, 631.226 828.268, 635.491 819.223, 639.756 810.178, 644.021 801.133, 648.286 792.089, 652.551 783.044, 656.816 773.999, 661.081 764.954, 665.346 755.909, 669.611 746.864, 673.876 737.819, 678.141 728.775, 682.406 719.730, 686.671 710.685, 690.937 701.640, 695.202 692.595, 699.467 683.550, 703.732 674.505, 707.997 665.461, 712.262 656.416, 716.527 647.371, 720.792 638.326, 725.057 629.281, 729.322 620.236, 733.587 611.192, 737.852 602.147, 742.117 593.102, 746.382 584.057, 750.647 575.012, 754.912 565.967, 759.177 556.922, 763.442 547.878, 767.708 538.833, 771.973 529.788, 776.238 520.743, 780.503 511.698, 784.768 502.653, 789.033 493.609, 793.298 484.564, 797.563 475.519, 801.828 466.474, 806.093 457.429, 810.358 448.384, 814.623 439.339, 818.888 430.295, 823.153 421.250, 827.418 412.205, 831.683 403.160, 835.948 394.115, 840.214 385.070, 844.479 376.025, 848.744 366.981, 853.009 357.936, 857.274 348.891, 861.539 339.846, 865.804 330.801, 870.069 323.343, 873.586 322.127, 874.159 313.082, 878.424 304.037, 882.689 294.992, 886.954 291.056, 888.810 " fill="none" stroke="rgb(157, 20, 170)" stroke-linecap="butt" stroke-linejoin="round" stroke-opacity="1.0" stroke-width="3.0" />
            <path d=" M 54.135, 453.652 44.776, 457.174 35.417, 460.696 26.058, 464.219 16.699, 467.741 7.854, 471.070 11.160, 480.507 14.465, 489.945 17.771, 499.383 21.076, 508.821 24.381, 518.259 27.687, 527.697 30.992, 537.135 34.298, 546.573 37.603, 556.011 40.908, 565.449 44.214, 574.887 47.519, 584.325 50.825, 593.763 54.130, 603.200 57.435, 612.638 60.741, 622.076 64.046, 631.514 67.352, 640.952 70.657, 650.390 73.962, 659.828 77.268, 669.266 80.573, 678.704 83.394, 686.757 88.054, 695.605 92.715, 704.452 97.375, 713.300 102.035, 722.147 106.696, 730.995 111.356, 739.843 116.017, 748.690 120.677, 757.538 125.338, 766.385 129.998, 775.233 132.880, 780.704 137.541, 789.552 142.201, 798.399 146.862, 807.247 151.522, 816.095 156.183, 824.942 160.843, 833.790 165.504, 842.637 170.164, 851.485 174.825, 860.333 179.485, 869.180 184.146, 878.028 188.806, 886.875 193.467, 895.723 198.127, 904.570 202.788, 913.418 207.448, 922.266 212.109, 931.113 216.769, 939.961 221.429, 948.808 226.090, 957.656 228.470, 962.174 233.130, 971.021 237.791, 979.869 242.451, 988.717 247.112, 997.564 251.772, 1006.412 256.433, 1015.259 261.093, 1024.107 265.754, 1032.955 270.414, 1041.802 275.075, 1050.650 277.191, 1054.667 281.851, 1063.515 286.512, 1072.363 291.172, 1081.210 295.833, 1090.058 300.493, 1098.905 305.154, 1107.753 309.814, 1116.600 314.475, 1125.448 319.135, 1134.296 323.796, 1143.143 328.456, 1151.991 333.117, 1160.838 337.777, 1169.686 342.438, 1178.534 347.098, 1187.381 351.759, 1196.229 356.419, 1205.076 361.079, 1213.924 365.740, 1222.772 370.784, 1232.348 379.577, 1227.584 388.369, 1222.821 388.690, 1222.647 394.037, 1219.750 402.830, 1214.987 411.622, 1210.223 420.415, 1205.460 429.207, 1200.696 438.000, 1195.933 438.659, 1195.576 438.839, 1195.478 434.479, 1186.479 430.119, 1177.479 425.759, 1168.480 421.399, 1159.480 417.039, 1150.481 412.679, 1141.481 408.319, 1132.482 403.959, 1123.482 399.599, 1114.483 395.239, 1105.484 390.879, 1096.484 386.519, 1087.485 382.159, 1078.485 377.799, 1069.486 373.438, 1060.486 369.078, 1051.487 364.718, 1042.488 360.358, 1033.488 355.998, 1024.489 351.638, 1015.489 347.278, 1006.490 342.918, 997.490 338.558, 988.491 334.198, 979.492 329.838, 970.492 325.478, 961.493 321.118, 952.493 316.758, 943.494 312.398, 934.494 308.038, 925.495 303.677, 916.495 299.317, 907.496 294.957, 898.497 290.597, 889.497 286.237, 880.498 281.877, 871.498 277.517, 862.499 273.157, 853.499 268.797, 844.500 264.437, 835.501 260.077, 826.501 255.717, 817.502 251.357, 808.502 249.151, 803.950 253.579, 812.916 258.006, 821.882 262.434, 830.849 266.862, 839.815 271.289, 848.781 275.717, 857.748 280.145, 866.714 284.572, 875.680 289.000, 884.647 291.056, 888.810 295.414, 897.811 299.771, 906.812 304.129, 915.812 308.487, 924.813 312.844, 933.814 317.202, 942.814 321.560, 951.815 325.917, 960.815 330.275, 969.816 334.633, 978.817 338.990, 987.817 343.348, 996.818 347.705, 1005.818 352.063, 1014.819 356.421, 1023.820 360.778, 1032.820 365.136, 1041.821 369.494, 1050.821 373.851, 1059.822 378.209, 1068.823 382.567, 1077.823 386.924, 1086.824 391.282, 1095.825 395.639, 1104.825 399.997, 1113.826 404.355, 1122.826 408.712, 1131.827 413.070, 1140.828 417.428, 1149.828 421.785, 1158.829 426.143, 1167.829 430.501, 1176.830 434.858, 1185.831 439.216, 1194.831 443.534, 1203.751 447.892, 1212.752 452.250, 1221.752 453.278, 1223.877 455.438, 1228.339 459.796, 1237.339 464.154, 1246.340 468.511, 1255.340 472.869, 1264.341 477.226, 1273.342 481.584, 1282.342 485.942, 1291.343 490.631, 1301.029 494.989, 1310.030 499.347, 1319.031 503.704, 1328.031 508.062, 1337.032 512.420, 1346.032 516.777, 1355.033 521.436, 1364.656 " fill="none" stroke="rgb(157, 20, 170)" stroke-linecap="butt" stroke-linejoin="round" stroke-opacity="1.0" stroke-width="3.0" />
            <path d=" M 534.410, 1357.101 538.899, 1366.037 543.387, 1374.973 547.876, 1383.909 548.762, 1385.673 557.377, 1380.596 565.993, 1375.519 574.608, 1370.442 583.223, 1365.364 591.838, 1360.287 600.454, 1355.210 609.069, 1350.133 617.684, 1345.056 626.299, 1339.978 634.914, 1334.901 643.530, 1329.824 652.145, 1324.747 660.760, 1319.670 669.375, 1314.592 677.991, 1309.515 686.606, 1304.438 695.221, 1299.361 703.836, 1294.284 712.452, 1289.206 721.067, 1284.129 729.682, 1279.052 738.297, 1273.975 746.912, 1268.898 755.528, 1263.821 764.143, 1258.743 772.758, 1253.666 781.373, 1248.589 789.989, 1243.512 798.604, 1238.435 807.219, 1233.357 815.834, 1228.280 824.450, 1223.203 833.065, 1218.126 841.680, 1213.049 850.295, 1207.971 858.910, 1202.894 867.526, 1197.817 876.141, 1192.740 884.756, 1187.663 893.371, 1182.586 901.987, 1177.508 910.602, 1172.431 919.217, 1167.354 927.832, 1162.277 936.447, 1157.200 945.063, 1152.122 952.010, 1148.028 950.600, 1141.934 948.348, 1132.191 946.095, 1122.448 945.062, 1117.981 " fill="none" stroke="rgb(157, 20, 170)" stroke-linecap="butt" stroke-linejoin="round" stroke-opacity="1.0" stroke-width="3.0" />
            <path d=" M 950.600, 1141.934 959.221, 1136.866 967.842, 1131.797 976.462, 1126.729 985.083, 1121.661 993.703, 1116.593 1002.324, 1111.525 1010.945, 1106.457 1019.565, 1101.389 1023.837, 1098.878 1021.944, 1089.059 1020.051, 1079.239 1019.197, 1074.812 " fill="none" stroke="rgb(157, 20, 170)" stroke-linecap="butt" stroke-linejoin="round" stroke-opacity="1.0" stroke-width="3.0" />
            <path d=" M 88.684, 530.206 90.706, 529.413 93.224, 528.426 102.534, 524.776 111.844, 521.127 121.154, 517.477 130.464, 513.827 139.774, 510.177 149.085, 506.527 158.395, 502.877 167.705, 499.227 177.015, 495.577 186.325, 491.927 195.635, 488.278 204.945, 484.628 214.255, 480.978 223.566, 477.328 232.876, 473.678 242.186, 470.028 251.496, 466.378 260.806, 462.728 270.116, 459.078 279.426, 455.429 288.736, 451.779 298.046, 448.129 307.357, 444.479 316.667, 440.829 325.977, 437.179 335.287, 433.529 344.597, 429.879 353.907, 426.229 363.217, 422.580 372.527, 418.930 381.838, 415.280 391.148, 411.630 400.458, 407.980 409.768, 404.330 419.078, 400.680 428.388, 397.030 437.698, 393.380 447.008, 389.731 456.319, 386.081 465.629, 382.431 474.939, 378.781 484.249, 375.131 493.559, 371.481 502.869, 367.831 512.179, 364.181 521.489, 360.531 530.799, 356.882 540.110, 353.232 549.420, 349.582 558.730, 345.932 568.040, 342.282 577.350, 338.632 586.660, 334.982 595.970, 331.332 605.280, 327.682 614.591, 324.033 623.901, 320.383 633.211, 316.733 642.521, 313.083 651.831, 309.433 661.141, 305.783 671.083, 301.885 680.393, 298.236 689.704, 294.586 699.014, 290.936 708.324, 287.286 717.634, 283.636 726.944, 279.986 736.254, 276.336 745.564, 272.686 751.532, 270.347 " fill="none" stroke="rgb(157, 20, 170)" stroke-linecap="butt" stroke-linejoin="round" stroke-opacity="1.0" stroke-width="3.0" />
            <path d=" M 388.690, 1222.647 393.272, 1231.535 397.854, 1240.424 402.436, 1249.313 405.712, 1255.668 410.293, 1264.556 414.875, 1273.445 419.457, 1282.334 424.039, 1291.222 428.621, 1300.111 433.203, 1308.999 437.785, 1317.888 442.367, 1326.776 443.011, 1328.027 451.710, 1323.095 460.410, 1318.163 469.109, 1313.231 477.808, 1308.299 486.507, 1303.367 490.311, 1301.211 " fill="none" stroke="rgb(157, 20, 170)" stroke-linecap="butt" stroke-linejoin="round" stroke-opacity="1.0" stroke-width="3.0" />
            <path d=" M 83.394, 686.757 92.616, 682.892 101.839, 679.027 111.062, 675.162 120.285, 671.297 129.508, 667.432 138.731, 663.567 147.954, 659.702 157.177, 655.837 166.400, 651.972 175.623, 648.107 184.846, 644.242 194.068, 640.378 203.291, 636.513 212.514, 632.648 221.737, 628.783 230.960, 624.918 240.183, 621.053 249.406, 617.188 258.629, 613.323 267.852, 609.458 277.075, 605.593 286.298, 601.728 295.520, 597.863 304.743, 593.998 313.966, 590.133 323.189, 586.268 332.412, 582.403 341.635, 578.538 350.858, 574.673 360.081, 570.808 369.304, 566.943 378.527, 563.078 387.750, 559.213 396.972, 555.348 406.195, 551.483 415.418, 547.618 424.641, 543.753 433.864, 539.888 443.087, 536.023 452.310, 532.158 461.533, 528.293 470.756, 524.428 479.979, 520.563 489.202, 516.699 498.424, 512.834 507.647, 508.969 516.870, 505.104 526.093, 501.239 535.316, 497.374 544.539, 493.509 553.762, 489.644 562.985, 485.779 572.208, 481.914 581.431, 478.049 590.654, 474.184 599.876, 470.319 609.099, 466.454 618.322, 462.589 627.545, 458.724 636.768, 454.859 645.991, 450.994 655.214, 447.129 664.437, 443.264 673.660, 439.399 682.883, 435.534 692.105, 431.669 701.328, 427.804 710.551, 423.939 719.774, 420.074 728.997, 416.209 738.220, 412.344 747.443, 408.479 756.666, 404.615 765.889, 400.750 775.614, 396.674 784.837, 392.809 791.337, 390.085 " fill="none" stroke="rgb(157, 20, 170)" stroke-linecap="butt" stroke-linejoin="round" stroke-opacity="1.0" stroke-width="3.0" />
            <path d=" M 709.306, 351.675 700.036, 355.427 690.767, 359.179 681.498, 362.931 672.228, 366.683 662.959, 370.435 653.689, 374.187 644.420, 377.939 635.150, 381.691 625.881, 385.443 616.611, 389.195 607.342, 392.947 598.072, 396.698 588.803, 400.450 579.533, 404.202 570.264, 407.954 560.994, 411.706 551.725, 415.458 542.456, 419.210 533.186, 422.962 523.917, 426.714 514.647, 430.466 505.378, 434.218 496.108, 437.969 486.839, 441.721 477.569, 445.473 468.300, 449.225 459.030, 452.977 449.761, 456.729 440.491, 460.481 431.222, 464.233 421.952, 467.985 412.683, 471.737 403.413, 475.489 394.144, 479.241 384.874, 482.993 375.605, 486.745 366.336, 490.496 357.066, 494.248 347.797, 498.000 338.527, 501.752 329.258, 505.504 319.988, 509.256 310.719, 513.008 301.449, 516.760 292.180, 520.512 282.910, 524.264 273.641, 528.016 264.371, 531.768 255.102, 535.519 245.832, 539.271 236.563, 543.023 227.293, 546.775 218.024, 550.527 208.755, 554.279 199.485, 558.031 190.216, 561.783 180.946, 565.535 171.677, 569.287 162.407, 573.039 153.138, 576.791 143.868, 580.542 134.599, 584.294 125.329, 588.046 118.636, 590.756 " fill="none" stroke="rgb(157, 20, 170)" stroke-linecap="butt" stroke-linejoin="round" stroke-opacity="1.0" stroke-width="3.0" />
            <path d=" M 228.470, 962.174 219.452, 966.497 210.435, 970.820 201.418, 975.143 201.012, 975.337 " fill="none" stroke="rgb(157, 20, 170)" stroke-linecap="butt" stroke-linejoin="round" stroke-opacity="1.0" stroke-width="3.0" />
            <path d=" M 438.659, 1195.576 442.811, 1204.144 447.172, 1213.143 451.533, 1222.142 452.563, 1224.269 " fill="none" stroke="rgb(157, 20, 170)" stroke-linecap="butt" stroke-linejoin="round" stroke-opacity="1.0" stroke-width="3.0" />
            <path d=" M 535.021, 1356.745 539.312, 1365.778 543.602, 1374.811 547.893, 1383.843 548.762, 1385.673 " fill="none" stroke="rgb(157, 20, 170)" stroke-linecap="butt" stroke-linejoin="round" stroke-opacity="1.0" stroke-width="3.0" />
        </g>
    </g>
    <g id="fressstylelayer_hidden lines" inkscape:groupmode="lineset" inkscape:label="fressstylelayer_hidden lines" xmlns:inkscape="http://www.inkscape.org/namespaces/inkscape">
        <g id="strokes" inkscape:groupmode="layer" inkscape:label="strokes" xmlns:inkscape="http://www.inkscape.org/namespaces/inkscape">
            <path d=" M 1070.615, 683.705 1069.193, 673.807 1067.771, 663.909 1066.349, 654.010 1064.927, 644.112 1063.505, 634.214 1062.083, 624.315 1060.661, 614.417 1059.239, 604.518 1057.816, 594.620 1056.394, 584.722 1054.972, 574.823 1053.550, 564.925 1052.128, 555.027 1050.706, 545.128 1049.284, 535.230 1047.861, 525.332 1046.439, 515.433 1045.017, 505.535 1043.595, 495.636 1042.173, 485.738 1040.751, 475.840 1039.567, 467.602 1030.402, 463.602 1021.237, 459.601 1012.072, 455.601 1011.414, 455.313 1008.631, 454.099 1008.987, 456.410 1010.126, 463.810 1011.648, 473.693 1013.170, 483.577 1014.692, 493.460 1016.214, 503.344 1017.736, 513.227 1019.258, 523.111 1020.780, 532.994 1022.302, 542.878 1023.824, 552.761 1025.346, 562.645 1026.868, 572.528 1028.390, 582.412 1029.912, 592.295 1031.434, 602.179 1032.956, 612.062 1034.478, 621.946 1036.000, 631.829 1037.521, 641.713 1039.043, 651.596 1040.565, 661.480 1041.285, 666.151 1032.337, 670.617 1032.010, 670.781 1033.569, 680.658 1035.128, 690.536 1036.687, 700.414 1038.246, 710.291 1039.275, 716.808 1043.709, 719.651 1052.128, 725.047 1060.547, 730.444 1068.965, 735.841 1075.133, 739.794 1076.568, 749.690 1078.004, 759.587 1079.440, 769.483 1080.070, 773.825 1081.505, 783.721 1082.118, 787.946 1073.280, 792.623 1064.441, 797.301 1059.696, 799.813 1061.226, 809.695 1062.757, 819.577 1064.287, 829.459 1065.283, 835.889 1066.813, 845.772 1068.344, 855.654 1069.874, 865.536 1071.203, 874.117 1062.427, 878.911 1053.651, 883.704 1044.875, 888.498 1036.099, 893.292 1027.323, 898.086 1025.688, 898.979 1016.912, 903.773 1008.136, 908.567 999.360, 913.361 995.366, 915.542 986.590, 920.336 977.814, 925.130 975.329, 926.488 968.484, 930.227 970.469, 940.028 972.455, 949.829 974.441, 959.630 976.426, 969.430 977.971, 977.056 969.235, 981.922 960.499, 986.789 951.763, 991.655 950.234, 992.507 952.347, 1002.281 954.460, 1012.055 956.573, 1021.829 958.671, 1031.534 959.859, 1037.031 951.161, 1041.966 942.464, 1046.900 933.766, 1051.835 925.652, 1056.438 923.009, 1057.938 914.311, 1062.872 905.614, 1067.807 896.916, 1072.742 888.218, 1077.676 879.520, 1082.611 871.751, 1087.019 865.008, 1079.634 861.334, 1075.610 854.591, 1068.225 847.848, 1060.840 841.106, 1053.456 834.363, 1046.071 827.620, 1038.686 820.877, 1031.301 814.135, 1023.916 809.255, 1018.573 802.513, 1011.188 798.602, 1006.905 789.814, 1011.677 781.026, 1016.449 772.238, 1021.221 763.450, 1025.993 754.662, 1030.765 745.874, 1035.537 737.087, 1040.309 728.299, 1045.081 719.511, 1049.853 710.723, 1054.625 703.193, 1058.714 706.134, 1067.504 697.354, 1072.289 688.574, 1077.075 679.793, 1081.861 671.013, 1086.647 662.232, 1091.433 653.452, 1096.219 644.672, 1101.005 635.891, 1105.791 627.111, 1110.577 618.330, 1115.362 609.550, 1120.148 600.770, 1124.934 591.989, 1129.720 583.209, 1134.506 574.428, 1139.292 565.648, 1144.078 556.868, 1148.864 548.087, 1153.649 539.307, 1158.435 530.526, 1163.221 521.746, 1168.007 512.966, 1172.793 504.185, 1177.579 495.405, 1182.365 485.289, 1187.879 480.599, 1179.047 475.909, 1170.214 471.220, 1161.382 466.530, 1152.550 461.840, 1143.718 457.151, 1134.886 452.461, 1126.054 447.771, 1117.221 443.082, 1108.389 438.392, 1099.557 433.702, 1090.725 429.013, 1081.893 424.323, 1073.061 419.633, 1064.228 414.944, 1055.396 410.254, 1046.564 405.564, 1037.732 400.875, 1028.900 396.185, 1020.068 391.495, 1011.235 386.806, 1002.403 385.721, 1000.359 384.589, 997.933 380.364, 988.869 376.138, 979.806 371.913, 970.742 367.688, 961.679 363.462, 952.615 359.237, 943.552 355.594, 935.736 350.875, 926.920 346.157, 918.103 341.438, 909.286 336.720, 900.469 332.002, 891.652 330.326, 888.521 326.090, 879.462 323.343, 873.586 319.107, 864.527 314.872, 855.469 310.636, 846.410 306.401, 837.351 302.165, 828.292 297.929, 819.234 293.694, 810.175 289.458, 801.116 285.223, 792.058 283.511, 788.395 279.275, 779.337 275.039, 770.278 270.804, 761.219 266.568, 752.160 262.333, 743.102 258.097, 734.043 253.862, 724.984 249.626, 715.926 245.391, 706.867 241.155, 697.808 236.920, 688.749 232.684, 679.691 228.449, 670.632 227.341, 668.262 236.539, 664.339 245.737, 660.415 254.935, 656.491 264.133, 652.568 273.331, 648.644 282.529, 644.720 291.727, 640.797 300.925, 636.873 310.123, 632.950 319.322, 629.026 328.520, 625.102 337.718, 621.179 346.916, 617.255 356.114, 613.331 365.312, 609.408 374.510, 605.484 383.708, 601.561 392.906, 597.637 402.105, 593.713 411.303, 589.790 420.501, 585.866 429.699, 581.942 438.897, 578.019 448.095, 574.095 457.293, 570.172 463.406, 567.564 464.129, 567.256 473.327, 563.332 482.525, 559.408 491.723, 555.485 500.922, 551.561 510.120, 547.637 519.318, 543.714 528.516, 539.790 537.714, 535.867 546.912, 531.943 556.110, 528.019 565.308, 524.096 574.506, 520.172 583.704, 516.248 592.903, 512.325 602.101, 508.401 611.299, 504.478 620.497, 500.554 627.449, 497.589 635.655, 503.304 643.860, 509.019 648.630, 512.341 656.836, 518.056 659.767, 520.098 668.941, 516.119 678.116, 512.141 687.290, 508.162 689.885, 507.037 681.529, 501.544 673.172, 496.051 664.816, 490.558 656.460, 485.065 648.254, 479.671 639.898, 474.178 639.032, 473.609 637.430, 472.557 637.110, 472.346 627.898, 476.238 621.912, 478.767 612.701, 482.658 603.489, 486.550 594.277, 490.442 585.066, 494.333 575.854, 498.225 566.642, 502.117 557.431, 506.008 548.219, 509.900 539.007, 513.792 529.796, 517.684 520.584, 521.575 511.372, 525.467 502.161, 529.359 492.949, 533.250 483.737, 537.142 474.526, 541.034 465.314, 544.926 456.102, 548.817 446.891, 552.709 437.679, 556.601 428.468, 560.492 419.256, 564.384 410.044, 568.276 400.833, 572.168 391.621, 576.059 382.409, 579.951 373.198, 583.843 363.986, 587.734 354.774, 591.626 345.563, 595.518 336.351, 599.410 327.139, 603.301 317.928, 607.193 308.716, 611.085 299.504, 614.976 290.293, 618.868 281.081, 622.760 271.869, 626.652 262.658, 630.543 253.446, 634.435 244.234, 638.327 235.023, 642.218 225.811, 646.110 217.084, 649.797 221.324, 658.854 225.564, 667.910 229.804, 676.967 234.044, 686.024 238.284, 695.080 242.525, 704.137 246.765, 713.193 251.005, 722.250 255.245, 731.306 259.485, 740.363 263.725, 749.419 267.965, 758.476 272.206, 767.532 276.446, 776.589 280.686, 785.646 282.242, 788.969 286.482, 798.026 290.722, 807.083 294.963, 816.139 299.203, 825.196 303.443, 834.252 307.683, 843.309 311.923, 852.365 316.163, 861.422 320.403, 870.478 322.127, 874.159 326.367, 883.216 329.119, 889.094 333.359, 898.151 337.599, 907.207 341.840, 916.264 346.080, 925.320 350.320, 934.377 351.816, 937.572 356.056, 946.628 360.296, 955.685 364.536, 964.741 368.776, 973.798 373.016, 982.854 377.256, 991.911 380.932, 999.761 382.180, 1002.131 386.841, 1010.978 391.501, 1019.826 396.162, 1028.673 400.823, 1037.521 405.483, 1046.368 410.144, 1055.216 414.805, 1064.063 419.465, 1072.911 424.126, 1081.758 428.787, 1090.606 433.447, 1099.453 438.108, 1108.301 442.769, 1117.148 447.429, 1125.996 452.090, 1134.844 456.751, 1143.691 461.411, 1152.539 466.072, 1161.386 470.732, 1170.234 475.393, 1179.081 480.054, 1187.929 482.198, 1191.999 486.859, 1200.847 491.035, 1208.775 495.696, 1217.622 500.356, 1226.470 505.017, 1235.317 509.678, 1244.165 514.338, 1253.012 518.999, 1261.860 521.749, 1267.081 530.460, 1262.169 539.171, 1257.258 547.882, 1252.347 556.592, 1247.435 557.358, 1247.004 558.183, 1246.538 566.894, 1241.627 575.604, 1236.715 584.315, 1231.804 593.026, 1226.892 601.737, 1221.981 610.447, 1217.070 619.158, 1212.158 627.869, 1207.247 636.580, 1202.335 645.291, 1197.424 654.001, 1192.512 662.712, 1187.601 671.423, 1182.689 680.134, 1177.778 688.844, 1172.866 697.555, 1167.955 706.266, 1163.043 714.977, 1158.132 723.687, 1153.220 732.398, 1148.309 741.109, 1143.398 749.820, 1138.486 758.531, 1133.575 767.241, 1128.663 775.952, 1123.752 784.663, 1118.840 793.374, 1113.929 802.084, 1109.017 810.795, 1104.106 819.506, 1099.194 828.217, 1094.283 836.927, 1089.371 845.638, 1084.460 854.725, 1079.337 861.334, 1075.610 870.045, 1070.699 878.755, 1065.787 887.466, 1060.876 896.177, 1055.964 904.888, 1051.053 913.598, 1046.141 922.309, 1041.230 931.020, 1036.318 939.731, 1031.407 948.442, 1026.495 949.402, 1025.954 947.256, 1016.187 945.109, 1006.420 942.963, 996.653 940.816, 986.886 938.670, 977.119 936.523, 967.352 934.377, 957.586 932.926, 950.984 924.151, 955.780 915.376, 960.576 906.601, 965.371 897.826, 970.167 893.876, 972.326 885.101, 977.121 876.326, 981.917 867.551, 986.713 858.776, 991.508 850.001, 996.304 841.226, 1001.100 832.451, 1005.896 823.676, 1010.691 814.901, 1015.487 809.255, 1018.573 802.911, 1022.040 809.618, 1029.457 816.326, 1036.874 823.033, 1044.291 829.740, 1051.708 836.447, 1059.125 843.155, 1066.542 849.862, 1073.959 854.725, 1079.337 861.432, 1086.754 868.139, 1094.171 871.566, 1097.961 875.853, 1102.701 884.537, 1097.742 893.221, 1092.784 901.905, 1087.825 910.589, 1082.867 919.273, 1077.908 926.703, 1073.665 933.870, 1069.573 942.554, 1064.615 951.238, 1059.656 959.922, 1054.697 968.606, 1049.739 971.371, 1048.160 980.055, 1043.201 988.739, 1038.242 996.700, 1033.697 1005.384, 1028.738 1009.825, 1026.202 1015.737, 1022.827 1024.421, 1017.868 1033.105, 1012.909 1041.789, 1007.951 1050.473, 1002.992 1059.157, 998.034 1067.841, 993.075 1076.525, 988.116 1085.209, 983.158 1093.893, 978.199 1102.577, 973.241 1111.917, 967.908 1110.496, 958.009 1109.076, 948.110 1107.656, 938.212 1106.236, 928.313 1104.816, 918.414 1103.396, 908.516 1101.976, 898.617 1101.749, 897.039 1100.329, 887.140 1098.909, 877.242 1097.489, 867.343 1096.069, 857.444 1094.648, 847.546 1093.228, 837.647 1091.808, 827.748 1090.994, 822.070 1090.925, 821.593 1089.505, 811.694 1088.085, 801.796 1086.665, 791.897 1086.525, 790.923 1085.105, 781.024 1084.494, 776.769 1083.074, 766.871 1081.654, 756.972 1080.234, 747.073 1078.909, 737.837 1070.477, 732.461 1062.045, 727.086 1053.612, 721.710 1045.180, 716.334 1042.971, 714.925 1043.709, 719.651 1045.253, 729.531 1046.797, 739.411 1048.341, 749.291 1048.699, 751.583 1048.937, 753.105 1050.481, 762.985 1052.025, 772.865 1053.569, 782.746 1055.113, 792.626 1056.657, 802.506 1058.201, 812.386 1059.745, 822.266 1061.289, 832.146 1062.138, 837.580 1065.283, 835.889 1074.091, 831.155 1082.899, 826.421 1090.994, 822.070 1091.341, 821.883 1100.150, 817.149 1104.101, 815.025 1112.909, 810.291 1114.180, 809.608 1122.988, 804.873 1125.054, 803.763 1123.779, 793.845 1122.504, 783.926 1121.229, 774.008 1119.954, 764.089 1118.679, 754.171 1117.403, 744.253 1116.128, 734.334 1114.853, 724.416 1113.578, 714.498 1112.303, 704.579 1111.028, 694.661 1109.753, 684.743 1108.478, 674.824 1107.202, 664.906 1105.927, 654.987 1104.652, 645.069 1103.377, 635.151 1102.102, 625.232 1100.827, 615.314 1099.552, 605.396 1098.276, 595.477 1097.001, 585.559 1095.726, 575.641 1094.451, 565.722 1093.176, 555.804 1091.901, 545.885 1090.626, 535.967 1089.351, 526.049 1088.075, 516.130 1086.800, 506.212 1085.525, 496.294 1084.250, 486.375 1082.975, 476.457 1081.700, 466.538 1080.425, 456.620 1079.150, 446.702 1077.874, 436.783 1076.476, 425.908 1075.201, 415.990 1073.926, 406.071 1072.725, 396.732 1063.342, 393.275 1053.958, 389.819 1045.098, 386.555 1042.976, 385.774 1033.592, 382.317 1024.208, 378.861 1014.825, 375.404 1005.441, 371.948 996.057, 368.491 986.674, 365.035 977.290, 361.578 967.906, 358.122 958.523, 354.666 949.139, 351.209 939.755, 347.753 938.096, 347.141 928.712, 343.685 919.329, 340.228 909.945, 336.772 900.561, 333.315 891.178, 329.859 881.794, 326.403 872.411, 322.946 863.027, 319.490 853.643, 316.033 844.260, 312.577 834.876, 309.120 825.492, 305.664 823.774, 305.031 814.505, 308.782 805.235, 312.534 795.965, 316.285 786.696, 320.037 785.017, 320.716 775.747, 324.468 766.478, 328.219 766.225, 328.321 765.002, 328.816 755.733, 332.567 748.813, 335.368 739.721, 339.047 748.877, 343.067 758.034, 347.087 759.213, 347.605 768.370, 351.625 771.945, 353.194 781.197, 349.400 790.557, 345.562 799.767, 349.455 808.978, 353.349 818.189, 357.243 827.400, 361.136 836.265, 364.884 845.476, 368.777 854.687, 372.671 863.897, 376.565 866.208, 377.541 875.418, 381.435 884.629, 385.329 893.840, 389.223 903.051, 393.116 912.262, 397.010 921.472, 400.904 930.683, 404.797 939.894, 408.691 949.105, 412.585 958.316, 416.478 965.932, 419.698 975.143, 423.592 984.354, 427.485 993.565, 431.379 994.270, 431.677 995.829, 441.555 997.388, 451.433 998.529, 458.659 1001.293, 459.887 1010.126, 463.810 1019.266, 467.869 1028.405, 471.927 1029.268, 472.311 1030.729, 482.203 1032.189, 492.096 1033.649, 501.989 1035.109, 511.882 1036.569, 521.775 1038.030, 531.668 1039.490, 541.560 1040.950, 551.453 1042.410, 561.346 1043.870, 571.239 1045.331, 581.132 1046.791, 591.024 1048.251, 600.917 1049.711, 610.810 1051.172, 620.703 1052.632, 630.596 1054.092, 640.489 1055.552, 650.381 1057.012, 660.274 1058.473, 670.167 1059.488, 677.046 1060.948, 686.938 1061.176, 688.481 1070.099, 683.967 1070.615, 683.705 " fill="none" stroke="rgb(0, 119, 0)" stroke-linecap="butt" stroke-linejoin="round" stroke-opacity="1.0" stroke-width="3.0" />
            <path d=" M 1070.615, 683.705 1062.035, 678.570 1059.488, 677.046 1050.907, 671.910 1042.327, 666.775 1041.285, 666.151 " fill="none" stroke="rgb(0, 119, 0)" stroke-linecap="butt" stroke-linejoin="round" stroke-opacity="1.0" stroke-width="3.0" />
            <path d=" M 380.932, 999.761 384.589, 997.933 393.534, 993.462 402.479, 988.991 411.424, 984.520 420.368, 980.048 429.313, 975.577 438.258, 971.106 447.203, 966.635 456.148, 962.164 465.093, 957.693 474.037, 953.222 482.982, 948.751 491.927, 944.280 500.872, 939.809 509.817, 935.338 518.762, 930.867 527.706, 926.396 536.651, 921.925 545.596, 917.454 554.541, 912.983 563.486, 908.512 572.430, 904.041 581.375, 899.570 590.320, 895.099 599.265, 890.628 608.210, 886.157 617.155, 881.686 626.099, 877.215 635.044, 872.744 643.989, 868.273 652.934, 863.802 661.879, 859.331 670.824, 854.860 679.768, 850.389 688.713, 845.918 697.658, 841.447 706.603, 836.976 715.548, 832.505 724.493, 828.034 733.437, 823.562 737.663, 821.450 " fill="none" stroke="rgb(0, 119, 0)" stroke-linecap="butt" stroke-linejoin="round" stroke-opacity="1.0" stroke-width="3.0" />
            <path d=" M 637.110, 472.346 639.878, 481.955 642.646, 491.565 645.413, 501.174 648.181, 510.783 648.630, 512.341 651.397, 521.950 654.165, 531.559 656.933, 541.169 659.701, 550.778 662.469, 560.387 665.236, 569.997 668.004, 579.606 670.772, 589.215 673.540, 598.825 676.308, 608.434 679.075, 618.043 681.843, 627.653 684.611, 637.262 687.379, 646.871 690.146, 656.481 692.914, 666.090 695.682, 675.699 698.450, 685.309 701.218, 694.918 703.985, 704.527 706.753, 714.137 709.521, 723.746 712.289, 733.355 715.057, 742.965 717.824, 752.574 720.592, 762.183 723.360, 771.793 726.128, 781.402 728.896, 791.011 731.663, 800.621 734.431, 810.230 737.663, 821.450 744.856, 828.397 752.049, 835.345 759.242, 842.292 766.434, 849.239 773.627, 856.186 780.820, 863.133 788.013, 870.080 795.206, 877.027 802.399, 883.974 809.592, 890.921 816.785, 897.868 823.978, 904.816 831.171, 911.763 838.363, 918.710 845.556, 925.657 852.749, 932.604 859.942, 939.551 867.135, 946.498 874.328, 953.445 881.521, 960.392 888.714, 967.339 893.876, 972.326 901.069, 979.273 908.262, 986.220 915.455, 993.167 922.648, 1000.114 929.841, 1007.061 937.034, 1014.008 944.227, 1020.955 949.402, 1025.954 " fill="none" stroke="rgb(0, 119, 0)" stroke-linecap="butt" stroke-linejoin="round" stroke-opacity="1.0" stroke-width="3.0" />
            <path d=" M 485.289, 1187.879 486.185, 1189.825 490.366, 1198.908 494.126, 1207.076 498.308, 1216.160 502.490, 1225.243 506.671, 1234.327 510.853, 1243.411 515.034, 1252.495 519.216, 1261.578 521.749, 1267.081 " fill="none" stroke="rgb(0, 119, 0)" stroke-linecap="butt" stroke-linejoin="round" stroke-opacity="1.0" stroke-width="3.0" />
            <path d=" M 802.911, 1022.040 800.173, 1012.422 798.602, 1006.905 " fill="none" stroke="rgb(0, 119, 0)" stroke-linecap="butt" stroke-linejoin="round" stroke-opacity="1.0" stroke-width="3.0" />
            <path d=" M 227.341, 668.262 222.485, 659.520 217.629, 650.779 217.084, 649.797 " fill="none" stroke="rgb(0, 119, 0)" stroke-linecap="butt" stroke-linejoin="round" stroke-opacity="1.0" stroke-width="3.0" />
            <path d=" M 709.306, 351.675 711.743, 361.374 713.019, 366.450 722.024, 370.798 731.030, 375.147 740.035, 379.495 740.774, 379.852 749.780, 384.200 750.651, 384.620 759.656, 388.969 768.661, 393.317 775.614, 396.674 784.620, 401.022 793.625, 405.370 794.936, 406.003 " fill="none" stroke="rgb(0, 119, 0)" stroke-linecap="butt" stroke-linejoin="round" stroke-opacity="1.0" stroke-width="3.0" />
            <path d=" M 670.047, 241.039 660.700, 244.592 651.352, 248.145 642.005, 251.698 632.657, 255.250 623.310, 258.803 613.962, 262.356 604.614, 265.909 595.557, 269.352 604.741, 273.308 613.925, 277.264 619.876, 279.828 629.060, 283.784 638.244, 287.740 647.428, 291.696 656.612, 295.652 658.792, 296.591 667.976, 300.547 671.083, 301.885 680.268, 305.842 689.452, 309.798 698.636, 313.754 707.820, 317.710 717.004, 321.666 726.188, 325.622 727.769, 326.303 736.953, 330.259 746.138, 334.216 748.813, 335.368 757.997, 339.324 767.181, 343.280 768.462, 343.832 " fill="none" stroke="rgb(0, 119, 0)" stroke-linecap="butt" stroke-linejoin="round" stroke-opacity="1.0" stroke-width="3.0" />
            <path d=" M 1044.875, 384.937 1045.098, 386.555 1046.462, 396.462 1047.826, 406.368 1048.015, 407.738 1049.379, 417.645 1050.743, 427.551 1052.038, 436.953 1053.402, 446.859 1054.766, 456.766 1056.131, 466.672 1057.495, 476.579 1058.859, 486.486 1060.223, 496.392 1061.587, 506.299 1062.952, 516.205 1064.316, 526.112 1065.680, 536.018 1067.044, 545.925 1067.267, 547.544 1067.864, 547.837 1069.227, 557.744 1070.589, 567.650 1071.951, 577.557 1073.313, 587.464 1074.675, 597.371 1076.038, 607.278 1077.400, 617.184 1078.762, 627.091 1080.124, 636.998 1081.486, 646.905 1082.849, 656.811 1084.211, 666.718 1085.573, 676.625 1086.935, 686.532 1088.297, 696.439 1089.660, 706.345 1091.022, 716.252 1092.384, 726.159 1093.746, 736.066 1095.108, 745.973 1096.470, 755.879 1097.833, 765.786 1099.195, 775.693 1100.839, 787.647 1101.628, 793.389 1101.714, 794.014 1106.541, 791.442 1108.142, 790.590 1106.807, 780.679 1105.472, 770.769 1104.137, 760.858 1102.802, 750.948 1101.466, 741.037 1100.131, 731.127 1098.796, 721.216 1097.461, 711.306 1096.126, 701.395 1094.791, 691.485 1093.456, 681.574 1092.121, 671.664 1090.786, 661.753 1089.451, 651.843 1088.116, 641.932 1086.781, 632.022 1085.446, 622.111 1084.110, 612.201 1082.776, 602.291 1081.440, 592.380 1080.105, 582.470 1078.770, 572.559 1077.435, 562.649 1076.100, 552.738 1074.983, 544.442 1074.383, 544.151 1074.456, 544.693 1075.793, 554.604 1077.130, 564.514 1078.467, 574.424 1079.804, 584.334 1081.141, 594.244 1082.478, 604.155 1083.815, 614.065 1085.152, 623.975 1086.490, 633.885 1087.827, 643.795 1089.164, 653.706 1090.501, 663.616 1091.838, 673.526 1093.175, 683.436 1094.512, 693.346 1095.849, 703.257 1097.186, 713.167 1098.523, 723.077 1099.860, 732.987 1101.197, 742.898 1102.534, 752.808 1103.872, 762.718 1105.209, 772.628 1106.546, 782.538 1107.582, 790.218 1105.982, 791.070 1101.628, 793.389 1101.156, 793.640 1102.244, 801.543 1103.609, 811.450 1104.101, 815.025 1105.465, 824.932 1106.501, 832.456 1115.295, 827.695 1124.089, 822.933 1129.537, 819.983 1128.271, 810.064 1127.006, 800.144 1125.740, 790.224 1124.475, 780.305 1123.209, 770.385 1121.943, 760.466 1120.678, 750.546 1119.412, 740.626 1118.147, 730.707 1116.881, 720.787 1115.616, 710.868 1114.350, 700.948 1113.084, 691.028 1111.819, 681.109 1110.553, 671.189 1109.288, 661.270 1108.022, 651.350 1106.757, 641.430 1105.491, 631.511 1104.226, 621.591 1102.960, 611.672 1101.694, 601.752 1100.429, 591.832 1099.163, 581.913 1097.898, 571.993 1096.632, 562.074 1095.367, 552.154 1094.101, 542.234 1092.836, 532.315 1091.570, 522.395 1090.304, 512.476 1089.039, 502.556 1087.773, 492.637 1086.508, 482.717 1085.242, 472.797 1083.977, 462.878 1082.711, 452.958 1081.445, 443.039 1080.180, 433.119 1079.108, 424.719 1077.843, 414.799 1076.577, 404.879 1075.465, 396.167 " fill="none" stroke="rgb(0, 119, 0)" stroke-linecap="butt" stroke-linejoin="round" stroke-opacity="1.0" stroke-width="3.0" />
            <path d=" M 1129.537, 819.983 1121.251, 814.385 1114.180, 809.608 1105.894, 804.009 1102.244, 801.543 1093.958, 795.945 1086.525, 790.923 1082.118, 787.946 " fill="none" stroke="rgb(0, 119, 0)" stroke-linecap="butt" stroke-linejoin="round" stroke-opacity="1.0" stroke-width="3.0" />
            <path d=" M 790.557, 345.562 788.380, 335.801 786.204, 326.041 785.017, 320.716 782.841, 310.956 780.665, 301.195 778.488, 291.435 776.312, 281.675 774.136, 271.914 771.960, 262.154 769.784, 252.394 767.608, 242.633 765.431, 232.873 763.255, 223.113 761.079, 213.352 759.658, 206.979 " fill="none" stroke="rgb(0, 119, 0)" stroke-linecap="butt" stroke-linejoin="round" stroke-opacity="1.0" stroke-width="3.0" />
            <path d=" M 1032.010, 670.781 1040.559, 675.969 1049.107, 681.157 1057.656, 686.345 1061.176, 688.481 " fill="none" stroke="rgb(0, 119, 0)" stroke-linecap="butt" stroke-linejoin="round" stroke-opacity="1.0" stroke-width="3.0" />
            <path d=" M 365.007, 1278.039 361.248, 1268.772 357.488, 1259.506 353.728, 1250.240 349.969, 1240.973 346.209, 1231.707 342.449, 1222.441 338.690, 1213.174 334.930, 1203.908 331.170, 1194.642 327.410, 1185.375 323.651, 1176.109 319.891, 1166.843 316.131, 1157.576 312.372, 1148.310 308.612, 1139.044 304.852, 1129.777 301.093, 1120.511 297.333, 1111.245 293.573, 1101.978 289.814, 1092.712 286.054, 1083.446 282.294, 1074.179 278.535, 1064.913 274.852, 1055.837 " fill="none" stroke="rgb(0, 119, 0)" stroke-linecap="butt" stroke-linejoin="round" stroke-opacity="1.0" stroke-width="3.0" />
            <path d=" M 130.183, 781.889 134.853, 790.732 139.523, 799.574 144.192, 808.417 148.862, 817.260 153.532, 826.103 158.202, 834.945 162.871, 843.788 167.541, 852.631 172.211, 861.473 176.881, 870.316 181.550, 879.159 186.220, 888.002 190.890, 896.844 195.560, 905.687 200.229, 914.530 204.899, 923.372 209.569, 932.215 214.238, 941.058 218.908, 949.901 223.578, 958.743 228.248, 967.586 232.917, 976.429 237.587, 985.271 242.257, 994.114 246.927, 1002.957 251.596, 1011.800 256.266, 1020.642 260.936, 1029.485 265.606, 1038.328 270.275, 1047.170 274.852, 1055.837 277.191, 1054.667 286.134, 1050.192 288.293, 1049.112 297.236, 1044.637 306.178, 1040.162 315.121, 1035.687 324.064, 1031.212 333.007, 1026.737 341.950, 1022.262 350.893, 1017.787 359.836, 1013.312 368.778, 1008.837 377.721, 1004.362 382.180, 1002.131 385.721, 1000.359 " fill="none" stroke="rgb(0, 119, 0)" stroke-linecap="butt" stroke-linejoin="round" stroke-opacity="1.0" stroke-width="3.0" />
            <path d=" M 706.134, 1067.504 712.297, 1075.379 713.022, 1076.306 718.749, 1083.625 " fill="none" stroke="rgb(0, 119, 0)" stroke-linecap="butt" stroke-linejoin="round" stroke-opacity="1.0" stroke-width="3.0" />
            <path d=" M 405.712, 1255.668 409.679, 1253.488 418.442, 1248.671 427.206, 1243.855 435.970, 1239.038 444.733, 1234.222 453.497, 1229.405 454.746, 1228.719 455.438, 1228.339 464.202, 1223.522 466.637, 1222.184 466.784, 1222.103 468.283, 1221.279 468.380, 1221.226 477.144, 1216.409 485.908, 1211.593 491.035, 1208.775 494.126, 1207.076 502.890, 1202.260 511.654, 1197.443 520.417, 1192.627 525.293, 1189.947 526.087, 1189.511 534.850, 1184.694 543.614, 1179.878 552.378, 1175.061 561.141, 1170.245 569.905, 1165.429 578.669, 1160.612 587.432, 1155.796 596.196, 1150.979 604.960, 1146.163 613.724, 1141.346 622.487, 1136.530 631.251, 1131.714 640.015, 1126.897 648.778, 1122.081 657.542, 1117.264 666.306, 1112.448 675.069, 1107.631 683.833, 1102.815 692.597, 1097.998 701.360, 1093.182 710.124, 1088.366 718.749, 1083.625 715.817, 1074.775 713.022, 1076.306 704.251, 1081.108 695.479, 1085.911 686.708, 1090.713 677.937, 1095.516 669.166, 1100.319 660.394, 1105.121 651.623, 1109.924 642.852, 1114.726 634.081, 1119.529 625.309, 1124.331 616.538, 1129.134 607.767, 1133.936 598.995, 1138.739 590.224, 1143.542 581.453, 1148.344 572.682, 1153.147 563.910, 1157.949 555.139, 1162.752 546.368, 1167.554 537.596, 1172.357 528.825, 1177.160 521.418, 1181.215 520.628, 1181.648 525.293, 1189.947 530.192, 1198.665 535.091, 1207.383 539.990, 1216.100 544.889, 1224.818 549.789, 1233.536 554.688, 1242.253 557.358, 1247.004 562.257, 1255.721 567.156, 1264.439 567.592, 1265.215 572.492, 1273.933 577.391, 1282.651 582.290, 1291.368 587.189, 1300.086 592.088, 1308.804 596.988, 1317.521 598.318, 1319.888 603.217, 1328.606 608.116, 1337.323 610.632, 1341.801 619.253, 1336.733 627.873, 1331.664 636.494, 1326.596 645.115, 1321.528 653.735, 1316.460 662.356, 1311.392 670.976, 1306.324 679.597, 1301.256 688.218, 1296.188 696.838, 1291.120 705.459, 1286.052 714.079, 1280.984 722.700, 1275.916 731.321, 1270.848 739.941, 1265.780 748.562, 1260.712 757.182, 1255.644 765.803, 1250.576 774.424, 1245.508 783.044, 1240.440 791.665, 1235.372 800.286, 1230.303 808.906, 1225.235 817.527, 1220.167 826.147, 1215.099 834.768, 1210.031 843.389, 1204.963 852.009, 1199.895 860.630, 1194.827 869.250, 1189.759 877.871, 1184.691 886.492, 1179.623 895.112, 1174.555 903.733, 1169.487 912.353, 1164.419 920.974, 1159.351 929.595, 1154.283 938.215, 1149.215 947.837, 1143.558 950.600, 1141.934 " fill="none" stroke="rgb(0, 119, 0)" stroke-linecap="butt" stroke-linejoin="round" stroke-opacity="1.0" stroke-width="3.0" />
            <path d=" M 520.628, 1181.648 516.849, 1173.097 " fill="none" stroke="rgb(0, 119, 0)" stroke-linecap="butt" stroke-linejoin="round" stroke-opacity="1.0" stroke-width="3.0" />
            <path d=" M 1019.197, 1074.812 1017.304, 1064.993 1017.122, 1064.051 1015.229, 1054.232 1013.402, 1044.757 1011.509, 1034.937 1009.825, 1026.202 1009.085, 1022.367 1007.192, 1012.547 1005.718, 1004.902 997.016, 1009.828 992.456, 1012.409 988.841, 1014.455 980.138, 1019.382 979.405, 1019.797 970.703, 1024.723 962.000, 1029.649 958.671, 1031.534 949.968, 1036.460 941.266, 1041.386 932.563, 1046.312 923.861, 1051.238 921.720, 1052.451 923.009, 1057.938 925.231, 1067.396 926.703, 1073.665 928.990, 1083.400 929.901, 1087.279 931.043, 1092.139 933.330, 1101.874 935.617, 1111.609 937.904, 1121.344 938.070, 1122.052 940.357, 1131.787 941.536, 1136.807 932.908, 1141.861 924.279, 1146.915 915.650, 1151.969 907.021, 1157.024 898.393, 1162.078 889.764, 1167.132 881.135, 1172.186 872.507, 1177.241 863.878, 1182.295 855.249, 1187.349 846.620, 1192.403 837.992, 1197.458 829.363, 1202.512 820.734, 1207.566 812.106, 1212.620 803.477, 1217.675 794.848, 1222.729 786.219, 1227.783 777.591, 1232.837 768.962, 1237.892 760.333, 1242.946 751.705, 1248.000 743.076, 1253.054 734.447, 1258.108 725.818, 1263.163 717.190, 1268.217 708.561, 1273.271 699.932, 1278.325 691.304, 1283.380 682.675, 1288.434 674.046, 1293.488 665.417, 1298.542 656.789, 1303.597 648.160, 1308.651 639.531, 1313.705 630.903, 1318.759 622.274, 1323.814 613.645, 1328.868 606.782, 1332.888 601.877, 1324.173 599.182, 1319.385 594.277, 1310.670 589.373, 1301.956 584.468, 1293.241 579.563, 1284.526 574.658, 1275.812 569.754, 1267.097 568.427, 1264.741 563.523, 1256.026 558.618, 1247.312 558.183, 1246.538 553.278, 1237.824 548.373, 1229.109 543.469, 1220.395 538.564, 1211.680 533.659, 1202.965 528.755, 1194.251 526.087, 1189.511 521.418, 1181.215 516.849, 1173.097 508.070, 1177.886 499.291, 1182.675 490.513, 1187.464 486.185, 1189.825 482.198, 1191.999 473.420, 1196.788 464.641, 1201.577 458.229, 1205.075 458.083, 1205.155 462.572, 1214.091 464.418, 1217.766 466.637, 1222.184 471.126, 1231.120 475.615, 1240.056 480.103, 1248.992 484.592, 1257.927 489.081, 1266.863 493.570, 1275.799 498.059, 1284.735 502.783, 1294.140 507.272, 1303.076 511.760, 1312.012 516.249, 1320.948 520.738, 1329.884 525.227, 1338.820 529.715, 1347.756 534.410, 1357.101 " fill="none" stroke="rgb(0, 119, 0)" stroke-linecap="butt" stroke-linejoin="round" stroke-opacity="1.0" stroke-width="3.0" />
            <path d=" M 240.137, 956.580 231.120, 960.903 228.470, 962.174 " fill="none" stroke="rgb(0, 119, 0)" stroke-linecap="butt" stroke-linejoin="round" stroke-opacity="1.0" stroke-width="3.0" />
            <path d=" M 490.311, 1301.211 490.631, 1301.029 499.331, 1296.097 502.783, 1294.140 502.937, 1294.053 498.447, 1285.117 493.958, 1276.182 489.468, 1267.247 484.978, 1258.311 480.488, 1249.376 475.998, 1240.440 471.509, 1231.505 466.784, 1222.103 464.565, 1217.686 460.075, 1208.750 458.229, 1205.075 454.552, 1197.759 445.767, 1202.537 443.534, 1203.751 442.811, 1204.144 434.026, 1208.921 425.241, 1213.699 416.456, 1218.476 407.670, 1223.253 398.885, 1228.030 398.410, 1228.288 394.037, 1219.750 389.479, 1210.849 384.920, 1201.949 380.362, 1193.048 375.804, 1184.147 375.564, 1183.678 371.005, 1174.778 366.447, 1165.877 361.888, 1156.977 357.330, 1148.076 356.138, 1145.748 353.533, 1147.114 352.901, 1147.445 349.941, 1148.997 345.357, 1140.110 344.536, 1138.520 339.952, 1129.632 335.367, 1120.745 330.783, 1111.858 326.198, 1102.971 321.678, 1094.208 313.847, 1098.215 309.231, 1089.344 304.614, 1080.474 299.998, 1071.603 295.381, 1062.732 290.765, 1053.862 288.293, 1049.112 283.676, 1040.241 279.060, 1031.371 274.443, 1022.500 269.827, 1013.629 265.210, 1004.759 260.594, 995.888 255.978, 987.017 251.361, 978.147 246.745, 969.276 242.128, 960.406 240.137, 956.580 236.334, 947.332 232.532, 938.083 228.729, 928.834 224.926, 919.585 221.123, 910.337 217.320, 901.088 213.517, 891.839 209.714, 882.591 205.912, 873.342 202.109, 864.093 198.306, 854.845 194.503, 845.596 190.700, 836.347 186.897, 827.099 183.094, 817.850 179.292, 808.601 175.489, 799.352 172.200, 791.355 179.375, 788.167 175.494, 778.951 175.222, 778.306 184.368, 774.262 193.514, 770.218 202.094, 766.424 197.918, 757.338 195.928, 753.007 195.526, 753.184 186.370, 757.206 177.215, 761.228 168.480, 765.065 167.763, 765.380 160.508, 768.568 151.352, 772.590 142.197, 776.612 132.880, 780.704 " fill="none" stroke="rgb(0, 119, 0)" stroke-linecap="butt" stroke-linejoin="round" stroke-opacity="1.0" stroke-width="3.0" />
            <path d=" M 458.083, 1205.155 454.552, 1197.759 " fill="none" stroke="rgb(0, 119, 0)" stroke-linecap="butt" stroke-linejoin="round" stroke-opacity="1.0" stroke-width="3.0" />
            <path d=" M 299.939, 962.771 308.934, 958.402 317.929, 954.032 326.924, 949.663 335.919, 945.294 344.913, 940.924 351.816, 937.572 355.594, 935.736 " fill="none" stroke="rgb(0, 119, 0)" stroke-linecap="butt" stroke-linejoin="round" stroke-opacity="1.0" stroke-width="3.0" />
            <path d=" M 195.928, 753.007 200.371, 761.966 204.813, 770.925 209.255, 779.884 213.698, 788.843 218.140, 797.803 222.582, 806.762 227.025, 815.721 231.467, 824.680 235.909, 833.639 240.352, 842.598 244.794, 851.557 249.236, 860.516 253.679, 869.475 258.121, 878.435 262.563, 887.394 267.006, 896.353 271.448, 905.312 275.890, 914.271 280.333, 923.230 284.775, 932.189 289.217, 941.148 293.660, 950.108 298.102, 959.067 299.939, 962.771 295.708, 953.710 291.478, 944.649 287.247, 935.588 283.016, 926.527 278.786, 917.466 277.077, 913.807 " fill="none" stroke="rgb(0, 119, 0)" stroke-linecap="butt" stroke-linejoin="round" stroke-opacity="1.0" stroke-width="3.0" />
            <path d=" M 659.128, 1242.750 660.971, 1247.513 " fill="none" stroke="rgb(0, 119, 0)" stroke-linecap="butt" stroke-linejoin="round" stroke-opacity="1.0" stroke-width="3.0" />
            <path d=" M 945.062, 1117.981 942.810, 1108.238 940.557, 1098.495 938.304, 1088.752 938.143, 1088.054 937.019, 1083.192 934.766, 1073.449 933.870, 1069.573 932.420, 1063.302 925.231, 1067.396 916.541, 1072.345 907.852, 1077.294 899.162, 1082.244 890.473, 1087.193 881.783, 1092.142 874.218, 1096.451 871.566, 1097.961 862.877, 1102.910 854.187, 1107.859 845.498, 1112.808 836.808, 1117.757 828.119, 1122.706 819.430, 1127.655 810.740, 1132.604 802.051, 1137.553 793.361, 1142.502 784.672, 1147.451 775.982, 1152.400 767.293, 1157.349 758.603, 1162.298 749.914, 1167.247 741.224, 1172.196 732.535, 1177.146 723.845, 1182.095 715.156, 1187.044 706.466, 1191.993 697.777, 1196.942 689.087, 1201.891 680.398, 1206.840 671.708, 1211.789 663.019, 1216.738 654.330, 1221.687 647.946, 1225.323 647.072, 1225.820 652.467, 1234.240 657.862, 1242.660 660.971, 1247.513 669.639, 1242.526 678.307, 1237.540 686.975, 1232.553 695.643, 1227.566 704.311, 1222.579 712.979, 1217.593 721.647, 1212.606 730.314, 1207.619 738.982, 1202.633 747.650, 1197.646 756.318, 1192.659 764.986, 1187.672 773.654, 1182.686 782.322, 1177.699 790.990, 1172.712 799.658, 1167.726 808.326, 1162.739 816.994, 1157.752 825.661, 1152.765 834.329, 1147.779 842.997, 1142.792 851.665, 1137.805 860.333, 1132.819 869.001, 1127.832 877.669, 1122.845 886.337, 1117.858 895.005, 1112.872 903.673, 1107.885 912.341, 1102.898 921.008, 1097.912 931.043, 1092.139 938.143, 1088.054 946.811, 1083.067 955.479, 1078.081 964.146, 1073.094 972.814, 1068.107 981.482, 1063.120 984.846, 1061.185 993.514, 1056.199 1002.182, 1051.212 1003.005, 1050.738 1011.673, 1045.751 1013.402, 1044.757 1019.261, 1041.386 " fill="none" stroke="rgb(0, 119, 0)" stroke-linecap="butt" stroke-linejoin="round" stroke-opacity="1.0" stroke-width="3.0" />
            <path d=" M 904.151, 569.411 906.106, 579.218 908.061, 589.025 909.672, 597.105 911.626, 606.912 913.581, 616.719 915.536, 626.526 917.491, 636.333 919.446, 646.141 921.401, 655.948 923.356, 665.755 924.223, 670.105 926.178, 679.912 928.133, 689.719 930.088, 699.526 932.043, 709.333 933.998, 719.141 935.952, 728.948 937.907, 738.755 939.906, 748.782 941.861, 758.589 943.816, 768.396 945.771, 778.203 947.726, 788.010 949.681, 797.817 951.636, 807.624 953.590, 817.431 955.545, 827.238 957.500, 837.045 959.261, 845.879 961.216, 855.686 963.171, 865.493 965.126, 875.301 967.081, 885.108 969.036, 894.915 970.991, 904.722 972.945, 914.529 974.900, 924.336 975.329, 926.488 977.284, 936.295 977.659, 938.176 979.614, 947.983 981.569, 957.790 983.524, 967.598 985.479, 977.405 986.421, 982.131 987.035, 985.212 987.724, 988.668 989.679, 998.475 991.634, 1008.282 992.456, 1012.409 994.411, 1022.216 995.936, 1029.863 996.700, 1033.697 998.655, 1043.504 999.424, 1047.361 990.752, 1052.340 982.079, 1057.320 981.306, 1057.764 972.634, 1062.743 963.962, 1067.722 955.290, 1072.702 946.618, 1077.681 937.945, 1082.660 937.019, 1083.192 929.901, 1087.279 921.229, 1092.258 912.557, 1097.237 903.885, 1102.217 895.213, 1107.196 886.541, 1112.175 877.869, 1117.155 869.196, 1122.134 860.524, 1127.113 851.852, 1132.093 843.180, 1137.072 834.508, 1142.051 825.836, 1147.031 817.163, 1152.010 808.491, 1156.989 799.819, 1161.969 791.147, 1166.948 782.475, 1171.927 773.803, 1176.907 765.131, 1181.886 756.458, 1186.865 747.786, 1191.845 739.114, 1196.824 730.442, 1201.803 721.770, 1206.783 713.098, 1211.762 704.425, 1216.741 695.753, 1221.721 687.081, 1226.700 678.409, 1231.679 669.737, 1236.659 659.128, 1242.750 653.728, 1234.333 648.328, 1225.917 647.946, 1225.323 645.227, 1221.086 636.534, 1226.027 627.840, 1230.969 619.146, 1235.911 610.453, 1240.853 601.759, 1245.794 593.065, 1250.736 584.372, 1255.678 575.678, 1260.619 568.427, 1264.741 567.592, 1265.215 558.899, 1270.157 550.205, 1275.099 541.511, 1280.040 532.818, 1284.982 524.124, 1289.924 515.430, 1294.865 507.711, 1299.253 503.210, 1290.324 498.709, 1281.394 494.208, 1272.464 489.706, 1263.534 485.205, 1254.605 480.704, 1245.675 476.203, 1236.745 471.702, 1227.815 468.380, 1221.226 466.156, 1216.813 464.565, 1217.686 464.418, 1217.766 455.651, 1222.575 453.278, 1223.877 452.563, 1224.269 " fill="none" stroke="rgb(0, 119, 0)" stroke-linecap="butt" stroke-linejoin="round" stroke-opacity="1.0" stroke-width="3.0" />
            <path d=" M 645.227, 1221.086 647.072, 1225.820 " fill="none" stroke="rgb(0, 119, 0)" stroke-linecap="butt" stroke-linejoin="round" stroke-opacity="1.0" stroke-width="3.0" />
            <path d=" M 1174.835, 951.883 1166.836, 945.881 1158.838, 939.879 1150.840, 933.877 1142.841, 927.875 1134.843, 921.873 1126.844, 915.870 1118.846, 909.868 1110.848, 903.866 1102.849, 897.864 1101.749, 897.039 1093.751, 891.037 1085.752, 885.035 1077.754, 879.032 1071.203, 874.117 " fill="none" stroke="rgb(0, 119, 0)" stroke-linecap="butt" stroke-linejoin="round" stroke-opacity="1.0" stroke-width="3.0" />
            <path d=" M 1101.156, 793.640 1101.714, 794.014 " fill="none" stroke="rgb(0, 119, 0)" stroke-linecap="butt" stroke-linejoin="round" stroke-opacity="1.0" stroke-width="3.0" />
            <path d=" M 1059.696, 799.813 1067.898, 805.533 1076.100, 811.254 1084.302, 816.974 1090.925, 821.593 1091.341, 821.883 1099.543, 827.604 1106.501, 832.456 " fill="none" stroke="rgb(0, 119, 0)" stroke-linecap="butt" stroke-linejoin="round" stroke-opacity="1.0" stroke-width="3.0" />
            <path d=" M 438.839, 1195.478 434.433, 1186.501 430.026, 1177.525 425.619, 1168.548 421.121, 1159.384 412.297, 1164.090 403.473, 1168.795 394.649, 1173.501 385.826, 1178.206 377.002, 1182.911 375.564, 1183.678 373.434, 1184.814 373.014, 1185.038 370.103, 1186.590 373.876, 1193.908 378.458, 1202.797 383.039, 1211.685 387.621, 1220.574 388.690, 1222.647 " fill="none" stroke="rgb(0, 119, 0)" stroke-linecap="butt" stroke-linejoin="round" stroke-opacity="1.0" stroke-width="3.0" />
            <path d=" M 421.121, 1159.384 425.482, 1168.384 429.842, 1177.383 434.203, 1186.382 438.659, 1195.576 " fill="none" stroke="rgb(0, 119, 0)" stroke-linecap="butt" stroke-linejoin="round" stroke-opacity="1.0" stroke-width="3.0" />
            <path d=" M 1024.970, 1071.451 1017.694, 1064.590 1017.122, 1064.051 1009.847, 1057.190 1003.005, 1050.738 999.424, 1047.361 " fill="none" stroke="rgb(0, 119, 0)" stroke-linecap="butt" stroke-linejoin="round" stroke-opacity="1.0" stroke-width="3.0" />
            <path d=" M 507.711, 1299.253 512.002, 1308.286 516.292, 1317.319 520.583, 1326.351 524.874, 1335.384 529.165, 1344.417 533.455, 1353.450 535.021, 1356.745 " fill="none" stroke="rgb(0, 119, 0)" stroke-linecap="butt" stroke-linejoin="round" stroke-opacity="1.0" stroke-width="3.0" />
            <path d=" M 466.156, 1216.813 468.283, 1221.279 472.582, 1230.308 476.882, 1239.336 481.181, 1248.365 485.480, 1257.394 489.780, 1266.422 494.079, 1275.451 498.378, 1284.479 502.937, 1294.053 " fill="none" stroke="rgb(0, 119, 0)" stroke-linecap="butt" stroke-linejoin="round" stroke-opacity="1.0" stroke-width="3.0" />
            <path d=" M 606.782, 1332.888 610.632, 1341.801 " fill="none" stroke="rgb(0, 119, 0)" stroke-linecap="butt" stroke-linejoin="round" stroke-opacity="1.0" stroke-width="3.0" />
            <path d=" M 520.144, 187.122 523.012, 196.702 525.880, 206.282 528.747, 215.862 531.615, 225.442 534.483, 235.022 537.350, 244.602 540.218, 254.182 543.086, 263.762 545.953, 273.342 548.821, 282.922 551.689, 292.502 553.379, 298.147 555.732, 306.008 " fill="none" stroke="rgb(0, 119, 0)" stroke-linecap="butt" stroke-linejoin="round" stroke-opacity="1.0" stroke-width="3.0" />
            <path d=" M 75.731, 490.423 85.065, 486.836 94.400, 483.250 103.735, 479.664 113.070, 476.077 122.404, 472.491 131.739, 468.904 141.074, 465.318 150.409, 461.732 159.744, 458.145 169.078, 454.559 178.413, 450.972 187.748, 447.386 197.083, 443.800 206.417, 440.213 215.752, 436.627 225.087, 433.041 234.422, 429.454 243.756, 425.868 253.091, 422.281 262.426, 418.695 271.761, 415.109 281.096, 411.522 290.430, 407.936 299.765, 404.349 309.100, 400.763 318.435, 397.177 327.769, 393.590 337.104, 390.004 346.439, 386.418 355.774, 382.831 365.108, 379.245 374.443, 375.658 383.778, 372.072 393.113, 368.486 402.448, 364.899 411.782, 361.313 421.117, 357.727 430.452, 354.140 439.787, 350.554 449.121, 346.967 458.456, 343.381 467.791, 339.795 477.126, 336.208 486.460, 332.622 495.795, 329.036 505.130, 325.449 514.465, 321.863 523.799, 318.276 533.134, 314.690 542.469, 311.104 555.732, 306.008 564.662, 310.508 573.769, 315.097 577.275, 316.864 586.599, 313.248 595.604, 309.755 599.440, 308.267 590.420, 303.951 581.399, 299.634 575.561, 296.840 567.225, 292.851 557.885, 296.424 553.379, 298.147 544.039, 301.720 534.699, 305.293 525.359, 308.866 516.019, 312.439 506.679, 316.011 497.339, 319.584 487.999, 323.157 478.659, 326.730 469.319, 330.302 459.979, 333.875 450.639, 337.448 441.299, 341.021 431.959, 344.594 422.619, 348.166 413.279, 351.739 403.939, 355.312 394.599, 358.885 385.259, 362.457 375.919, 366.030 366.579, 369.603 357.239, 373.176 347.899, 376.749 338.559, 380.321 329.219, 383.894 319.879, 387.467 310.539, 391.040 301.199, 394.612 291.859, 398.185 282.519, 401.758 273.179, 405.331 263.839, 408.904 254.499, 412.476 245.159, 416.049 235.819, 419.622 226.479, 423.195 217.139, 426.767 207.799, 430.340 198.460, 433.913 189.120, 437.486 179.780, 441.059 170.440, 444.631 161.100, 448.204 151.760, 451.777 142.420, 455.350 133.080, 458.922 123.740, 462.495 114.400, 466.068 105.060, 469.641 95.720, 473.214 86.380, 476.786 77.040, 480.359 71.769, 482.375 70.609, 482.819 69.658, 483.183 67.786, 483.899 64.745, 485.062 68.809, 494.199 72.873, 503.336 76.937, 512.473 81.001, 521.610 85.066, 530.747 87.369, 535.925 89.516, 535.081 90.838, 534.561 92.715, 533.824 95.250, 532.828 93.224, 528.426 89.043, 519.342 84.861, 510.259 80.680, 501.175 76.499, 492.091 75.731, 490.423 " fill="none" stroke="rgb(0, 119, 0)" stroke-linecap="butt" stroke-linejoin="round" stroke-opacity="1.0" stroke-width="3.0" />
            <path d=" M 75.731, 490.423 71.769, 482.375 67.353, 473.403 62.937, 464.431 58.520, 455.459 54.104, 446.487 49.688, 437.515 45.271, 428.543 40.855, 419.572 36.439, 410.599 32.022, 401.628 27.606, 392.656 23.190, 383.684 18.773, 374.712 15.613, 368.291 " fill="none" stroke="rgb(0, 119, 0)" stroke-linecap="butt" stroke-linejoin="round" stroke-opacity="1.0" stroke-width="3.0" />
            <path d=" M 595.557, 269.352 598.274, 278.976 600.604, 287.226 603.322, 296.850 606.039, 306.473 608.760, 316.107 " fill="none" stroke="rgb(0, 119, 0)" stroke-linecap="butt" stroke-linejoin="round" stroke-opacity="1.0" stroke-width="3.0" />
            <path d=" M 571.826, 298.274 580.831, 302.622 589.836, 306.970 595.604, 309.755 600.543, 312.140 608.760, 316.107 618.076, 312.473 627.392, 308.839 636.709, 305.205 646.025, 301.571 655.341, 297.937 658.792, 296.591 668.108, 292.957 677.425, 289.323 686.741, 285.689 696.057, 282.055 705.374, 278.421 715.209, 274.585 724.525, 270.951 733.841, 267.317 738.286, 265.583 747.603, 261.949 750.687, 260.746 741.248, 257.445 731.808, 254.144 722.369, 250.843 712.929, 247.542 708.243, 245.903 698.907, 249.487 696.309, 250.485 686.974, 254.069 677.638, 257.653 668.302, 261.237 658.967, 264.821 649.631, 268.405 640.295, 271.989 630.959, 275.573 621.624, 279.156 619.876, 279.828 610.540, 283.411 601.204, 286.995 600.604, 287.226 591.268, 290.810 581.933, 294.394 575.561, 296.840 571.826, 298.274 " fill="none" stroke="rgb(0, 119, 0)" stroke-linecap="butt" stroke-linejoin="round" stroke-opacity="1.0" stroke-width="3.0" />
            <path d=" M 571.826, 298.274 574.639, 307.870 577.275, 316.864 " fill="none" stroke="rgb(0, 119, 0)" stroke-linecap="butt" stroke-linejoin="round" stroke-opacity="1.0" stroke-width="3.0" />
            <path d=" M 398.410, 1228.288 402.492, 1237.417 406.575, 1246.546 409.679, 1253.488 413.761, 1262.616 417.843, 1271.745 421.925, 1280.874 426.008, 1290.003 430.090, 1299.132 434.172, 1308.260 438.254, 1317.389 442.337, 1326.518 443.011, 1328.027 " fill="none" stroke="rgb(0, 119, 0)" stroke-linecap="butt" stroke-linejoin="round" stroke-opacity="1.0" stroke-width="3.0" />
            <path d=" M 370.103, 1186.590 366.080, 1177.435 362.057, 1168.280 358.034, 1159.125 354.010, 1149.970 352.901, 1147.445 348.878, 1138.290 348.149, 1136.634 " fill="none" stroke="rgb(0, 119, 0)" stroke-linecap="butt" stroke-linejoin="round" stroke-opacity="1.0" stroke-width="3.0" />
            <path d=" M 376.774, 1192.358 373.014, 1185.038 368.445, 1176.143 363.876, 1167.248 359.306, 1158.353 354.737, 1149.458 353.533, 1147.114 348.964, 1138.219 348.149, 1136.634 344.536, 1138.520 341.531, 1140.088 346.128, 1148.969 350.725, 1157.850 355.322, 1166.730 359.919, 1175.611 364.516, 1184.492 369.113, 1193.372 370.363, 1195.787 373.876, 1193.908 376.774, 1192.358 " fill="none" stroke="rgb(0, 119, 0)" stroke-linecap="butt" stroke-linejoin="round" stroke-opacity="1.0" stroke-width="3.0" />
            <path d=" M 376.774, 1192.358 373.434, 1184.814 369.386, 1175.670 365.338, 1166.526 361.289, 1157.382 357.241, 1148.238 356.138, 1145.748 " fill="none" stroke="rgb(0, 119, 0)" stroke-linecap="butt" stroke-linejoin="round" stroke-opacity="1.0" stroke-width="3.0" />
            <path d=" M 871.751, 1087.019 874.218, 1096.451 875.853, 1102.701 " fill="none" stroke="rgb(0, 119, 0)" stroke-linecap="butt" stroke-linejoin="round" stroke-opacity="1.0" stroke-width="3.0" />
            <path d=" M 1078.909, 737.837 1075.133, 739.794 " fill="none" stroke="rgb(0, 119, 0)" stroke-linecap="butt" stroke-linejoin="round" stroke-opacity="1.0" stroke-width="3.0" />
            <path d=" M 1111.917, 967.908 1104.106, 961.664 1096.294, 955.420 1088.483, 949.176 1080.672, 942.932 1072.861, 936.688 1065.050, 930.444 1057.239, 924.200 1049.428, 917.956 1041.617, 911.712 1033.806, 905.468 1025.688, 898.979 1017.877, 892.735 1010.066, 886.491 1002.255, 880.247 994.444, 874.003 986.633, 867.759 986.232, 867.439 978.421, 861.195 970.610, 854.951 962.799, 848.707 959.261, 845.879 956.716, 843.844 " fill="none" stroke="rgb(0, 119, 0)" stroke-linecap="butt" stroke-linejoin="round" stroke-opacity="1.0" stroke-width="3.0" />
            <path d=" M 867.223, 891.014 876.070, 886.351 884.916, 881.688 893.763, 877.026 902.609, 872.363 911.455, 867.700 920.302, 863.037 929.148, 858.375 937.995, 853.712 946.841, 849.049 955.687, 844.386 956.716, 843.844 954.752, 834.039 952.789, 824.234 950.826, 814.428 948.863, 804.623 946.899, 794.817 944.936, 785.012 942.973, 775.207 941.010, 765.401 939.046, 755.596 937.304, 746.891 " fill="none" stroke="rgb(0, 119, 0)" stroke-linecap="butt" stroke-linejoin="round" stroke-opacity="1.0" stroke-width="3.0" />
            <path d=" M 843.786, 794.121 852.712, 789.613 861.638, 785.105 870.564, 780.597 879.490, 776.089 888.417, 771.581 897.343, 767.073 906.269, 762.565 915.195, 758.057 924.122, 753.549 933.048, 749.041 937.304, 746.891 939.906, 748.782 947.997, 754.659 956.087, 760.537 964.177, 766.414 967.509, 768.835 975.600, 774.712 983.690, 780.590 991.781, 786.467 999.871, 792.345 1007.962, 798.222 1016.052, 804.100 1024.142, 809.977 1032.233, 815.854 1040.323, 821.732 1048.414, 827.609 1056.504, 833.487 1062.138, 837.580 " fill="none" stroke="rgb(0, 119, 0)" stroke-linecap="butt" stroke-linejoin="round" stroke-opacity="1.0" stroke-width="3.0" />
            <path d=" M 64.745, 485.062 69.183, 494.023 73.621, 502.985 78.059, 511.946 82.497, 520.907 86.935, 529.869 89.516, 535.081 93.954, 544.042 98.392, 553.004 102.830, 561.965 107.268, 570.926 111.706, 579.887 116.144, 588.849 120.582, 597.810 125.020, 606.771 129.458, 615.732 133.896, 624.694 138.334, 633.655 142.772, 642.616 147.210, 651.577 151.648, 660.539 156.086, 669.500 160.524, 678.461 164.962, 687.422 169.400, 696.384 173.838, 705.345 178.276, 714.306 182.714, 723.268 187.152, 732.229 191.590, 741.190 196.028, 750.151 200.466, 759.113 204.904, 768.074 209.342, 777.035 213.780, 785.996 218.218, 794.958 222.656, 803.919 227.094, 812.880 231.532, 821.841 235.970, 830.803 240.408, 839.764 244.846, 848.725 249.284, 857.687 253.722, 866.648 258.160, 875.609 262.598, 884.570 267.036, 893.532 271.474, 902.493 277.077, 913.807 286.111, 909.518 295.144, 905.228 304.177, 900.938 313.210, 896.649 322.243, 892.359 329.119, 889.094 330.326, 888.521 " fill="none" stroke="rgb(0, 119, 0)" stroke-linecap="butt" stroke-linejoin="round" stroke-opacity="1.0" stroke-width="3.0" />
            <path d=" M 567.225, 292.851 570.047, 302.444 572.869, 312.038 573.769, 315.097 576.591, 324.691 579.413, 334.285 582.235, 343.878 585.057, 353.472 587.879, 363.065 590.701, 372.659 593.523, 382.252 596.345, 391.846 599.167, 401.440 601.989, 411.033 604.810, 420.627 607.632, 430.220 610.454, 439.814 613.276, 449.407 616.098, 459.001 618.920, 468.595 621.912, 478.767 624.734, 488.360 627.449, 497.589 " fill="none" stroke="rgb(0, 119, 0)" stroke-linecap="butt" stroke-linejoin="round" stroke-opacity="1.0" stroke-width="3.0" />
            <path d=" M 123.871, 608.731 123.557, 608.859 114.299, 612.639 105.041, 616.419 95.783, 620.199 94.896, 620.561 98.315, 629.092 99.080, 628.778 108.332, 624.984 117.585, 621.190 126.837, 617.396 127.632, 617.071 123.871, 608.731 " fill="none" stroke="rgb(0, 119, 0)" stroke-linecap="butt" stroke-linejoin="round" stroke-opacity="1.0" stroke-width="3.0" />
            <path d=" M 123.871, 608.731 128.315, 617.689 132.759, 626.648 137.202, 635.606 141.646, 644.564 146.090, 653.523 150.534, 662.481 154.977, 671.440 159.421, 680.398 163.865, 689.357 168.309, 698.315 172.752, 707.273 177.196, 716.232 181.640, 725.190 186.083, 734.149 190.527, 743.107 195.526, 753.184 199.969, 762.142 202.094, 766.424 " fill="none" stroke="rgb(0, 119, 0)" stroke-linecap="butt" stroke-linejoin="round" stroke-opacity="1.0" stroke-width="3.0" />
            <path d=" M 175.222, 778.306 170.685, 769.395 168.480, 765.065 163.942, 756.154 159.404, 747.243 154.867, 738.332 150.329, 729.421 145.791, 720.509 141.253, 711.598 136.716, 702.687 132.178, 693.776 127.640, 684.865 123.103, 675.953 118.565, 667.042 114.027, 658.131 109.489, 649.220 104.952, 640.309 100.414, 631.398 99.080, 628.778 94.896, 620.561 " fill="none" stroke="rgb(0, 119, 0)" stroke-linecap="butt" stroke-linejoin="round" stroke-opacity="1.0" stroke-width="3.0" />
            <path d=" M 341.531, 1140.088 337.559, 1130.911 333.588, 1121.733 329.617, 1112.555 325.646, 1103.378 321.678, 1094.208 " fill="none" stroke="rgb(0, 119, 0)" stroke-linecap="butt" stroke-linejoin="round" stroke-opacity="1.0" stroke-width="3.0" />
            <path d=" M 349.941, 1148.997 353.941, 1158.163 357.942, 1167.328 361.942, 1176.493 365.942, 1185.658 369.942, 1194.823 370.363, 1195.787 " fill="none" stroke="rgb(0, 119, 0)" stroke-linecap="butt" stroke-linejoin="round" stroke-opacity="1.0" stroke-width="3.0" />
            <path d=" M 118.636, 590.756 114.492, 581.655 110.348, 572.554 106.204, 563.452 102.061, 554.351 97.917, 545.250 93.773, 536.149 92.715, 533.824 90.706, 529.413 86.563, 520.312 82.419, 511.211 78.275, 502.110 74.131, 493.009 69.988, 483.908 69.658, 483.183 65.514, 474.082 61.370, 464.981 57.227, 455.880 55.908, 452.984 54.135, 453.652 " fill="none" stroke="rgb(0, 119, 0)" stroke-linecap="butt" stroke-linejoin="round" stroke-opacity="1.0" stroke-width="3.0" />
            <path d=" M 55.908, 452.984 60.328, 461.955 64.748, 470.925 69.168, 479.895 70.609, 482.819 75.029, 491.789 79.449, 500.759 83.869, 509.730 88.289, 518.700 92.708, 527.670 95.250, 532.828 " fill="none" stroke="rgb(0, 119, 0)" stroke-linecap="butt" stroke-linejoin="round" stroke-opacity="1.0" stroke-width="3.0" />
            <path d=" M 87.369, 535.925 91.814, 544.883 96.258, 553.841 100.703, 562.799 105.148, 571.757 109.593, 580.714 114.037, 589.672 118.482, 598.630 122.927, 607.588 123.557, 608.859 127.632, 617.071 " fill="none" stroke="rgb(0, 119, 0)" stroke-linecap="butt" stroke-linejoin="round" stroke-opacity="1.0" stroke-width="3.0" />
            <path d=" M 172.200, 791.355 167.635, 782.458 163.070, 773.560 160.508, 768.568 155.942, 759.670 151.377, 750.773 146.812, 741.876 142.246, 732.979 137.681, 724.082 133.116, 715.185 128.550, 706.288 123.985, 697.391 119.420, 688.494 114.855, 679.597 110.289, 670.700 105.724, 661.803 101.159, 652.905 96.593, 644.008 92.028, 635.111 87.463, 626.214 82.897, 617.317 78.332, 608.420 73.767, 599.523 69.202, 590.626 64.636, 581.729 60.071, 572.832 55.506, 563.935 50.940, 555.038 46.375, 546.141 41.810, 537.243 37.244, 528.346 32.679, 519.449 28.114, 510.552 23.549, 501.655 18.983, 492.758 14.418, 483.861 9.853, 474.964 7.854, 471.070 " fill="none" stroke="rgb(0, 119, 0)" stroke-linecap="butt" stroke-linejoin="round" stroke-opacity="1.0" stroke-width="3.0" />
            <path d=" M 98.315, 629.092 102.856, 638.002 107.396, 646.911 111.936, 655.821 116.476, 664.731 121.016, 673.641 125.556, 682.551 130.097, 691.461 134.637, 700.371 139.177, 709.281 143.717, 718.191 148.257, 727.101 152.798, 736.011 157.338, 744.921 161.878, 753.830 166.418, 762.740 167.763, 765.380 172.304, 774.290 176.844, 783.200 179.375, 788.167 " fill="none" stroke="rgb(0, 119, 0)" stroke-linecap="butt" stroke-linejoin="round" stroke-opacity="1.0" stroke-width="3.0" />
            <path d=" M 313.847, 1098.215 317.754, 1107.420 321.662, 1116.625 325.569, 1125.830 329.477, 1135.035 333.384, 1144.240 337.291, 1153.445 341.199, 1162.650 345.106, 1171.855 349.013, 1181.060 352.921, 1190.265 356.828, 1199.470 360.736, 1208.675 364.643, 1217.880 368.550, 1227.085 370.784, 1232.348 " fill="none" stroke="rgb(0, 119, 0)" stroke-linecap="butt" stroke-linejoin="round" stroke-opacity="1.0" stroke-width="3.0" />
            <path d=" M 1125.054, 803.763 1116.729, 798.223 1108.404, 792.682 1106.541, 791.442 1105.982, 791.070 1100.839, 787.647 1092.514, 782.107 1084.494, 776.769 1080.070, 773.825 1071.745, 768.284 1063.420, 762.744 1055.095, 757.204 1048.937, 753.105 1040.612, 747.565 1032.287, 742.025 1023.963, 736.484 1015.638, 730.944 1007.313, 725.403 998.988, 719.863 990.663, 714.322 982.338, 708.782 974.013, 703.242 965.688, 697.701 957.363, 692.161 952.312, 688.799 943.987, 683.259 935.662, 677.718 927.338, 672.178 924.223, 670.105 915.898, 664.565 907.573, 659.024 899.248, 653.484 896.047, 651.354 " fill="none" stroke="rgb(0, 119, 0)" stroke-linecap="butt" stroke-linejoin="round" stroke-opacity="1.0" stroke-width="3.0" />
            <path d=" M 754.703, 719.382 763.714, 715.045 772.725, 710.709 781.735, 706.372 790.746, 702.035 799.757, 697.698 808.767, 693.361 817.778, 689.024 826.789, 684.688 835.799, 680.351 844.810, 676.014 853.821, 671.677 862.831, 667.340 871.842, 663.003 880.853, 658.667 889.863, 654.330 896.047, 651.354 894.004, 641.564 891.961, 631.775 889.919, 621.986 887.876, 612.197 885.833, 602.408 883.790, 592.619 881.747, 582.830 879.704, 573.041 877.661, 563.252 875.619, 553.462 873.576, 543.673 871.533, 533.884 869.490, 524.095 867.447, 514.306 865.404, 504.517 863.362, 494.728 861.319, 484.939 859.276, 475.150 857.233, 465.360 855.190, 455.571 853.147, 445.782 851.104, 435.993 849.062, 426.204 847.019, 416.415 844.976, 406.626 842.933, 396.837 840.890, 387.047 838.847, 377.258 836.265, 364.884 834.222, 355.095 832.179, 345.306 830.136, 335.516 828.094, 325.727 826.051, 315.938 824.008, 306.149 823.774, 305.031 " fill="none" stroke="rgb(0, 119, 0)" stroke-linecap="butt" stroke-linejoin="round" stroke-opacity="1.0" stroke-width="3.0" />
            <path d=" M 1108.142, 790.590 1107.582, 790.218 " fill="none" stroke="rgb(0, 119, 0)" stroke-linecap="butt" stroke-linejoin="round" stroke-opacity="1.0" stroke-width="3.0" />
            <path d=" M 1042.971, 714.925 1039.275, 716.808 " fill="none" stroke="rgb(0, 119, 0)" stroke-linecap="butt" stroke-linejoin="round" stroke-opacity="1.0" stroke-width="3.0" />
            <path d=" M 932.926, 950.984 925.540, 944.242 918.154, 937.501 910.768, 930.759 903.382, 924.018 895.996, 917.276 888.610, 910.535 881.224, 903.793 873.838, 897.052 867.223, 891.014 864.872, 881.294 862.521, 871.575 860.170, 861.855 857.819, 852.135 855.468, 842.416 853.117, 832.696 850.765, 822.976 848.414, 813.257 846.063, 803.537 843.786, 794.121 836.125, 787.694 828.464, 781.266 820.803, 774.839 813.142, 768.412 805.481, 761.984 797.820, 755.557 790.159, 749.129 782.499, 742.702 774.838, 736.275 767.177, 729.847 759.516, 723.420 754.703, 719.382 752.099, 709.727 749.494, 700.073 746.889, 690.418 744.284, 680.763 741.680, 671.108 739.075, 661.453 736.470, 651.799 733.865, 642.144 731.261, 632.489 729.556, 626.170 " fill="none" stroke="rgb(0, 119, 0)" stroke-linecap="butt" stroke-linejoin="round" stroke-opacity="1.0" stroke-width="3.0" />
            <path d=" M 968.484, 930.227 976.042, 936.775 977.659, 938.176 985.217, 944.725 992.775, 951.273 1000.333, 957.821 1003.997, 960.995 1011.554, 967.543 1011.930, 967.869 " fill="none" stroke="rgb(0, 119, 0)" stroke-linecap="butt" stroke-linejoin="round" stroke-opacity="1.0" stroke-width="3.0" />
            <path d=" M 1020.865, 1015.651 1019.027, 1005.821 1017.189, 995.991 1015.351, 986.162 1013.513, 976.332 1011.930, 967.869 1005.938, 971.220 997.209, 976.099 988.481, 980.979 986.421, 982.131 984.688, 983.100 982.752, 984.182 984.724, 993.986 986.696, 1003.789 988.667, 1013.593 988.841, 1014.455 990.813, 1024.259 992.351, 1031.907 995.936, 1029.863 1004.623, 1024.911 1009.085, 1022.367 1015.008, 1018.990 1020.865, 1015.651 " fill="none" stroke="rgb(0, 119, 0)" stroke-linecap="butt" stroke-linejoin="round" stroke-opacity="1.0" stroke-width="3.0" />
            <path d=" M 1020.865, 1015.651 1013.431, 1008.962 1013.037, 1008.607 1005.603, 1001.919 998.169, 995.230 990.736, 988.541 987.035, 985.212 984.688, 983.100 977.971, 977.056 " fill="none" stroke="rgb(0, 119, 0)" stroke-linecap="butt" stroke-linejoin="round" stroke-opacity="1.0" stroke-width="3.0" />
            <path d=" M 994.270, 431.677 1003.405, 427.608 1012.540, 423.540 1021.674, 419.471 1030.809, 415.402 1039.944, 411.333 1048.015, 407.738 1057.150, 403.669 1066.285, 399.601 1072.725, 396.732 " fill="none" stroke="rgb(0, 119, 0)" stroke-linecap="butt" stroke-linejoin="round" stroke-opacity="1.0" stroke-width="3.0" />
            <path d=" M 599.440, 308.267 600.543, 312.140 603.282, 321.757 606.021, 331.375 608.760, 340.992 611.499, 350.610 614.238, 360.228 616.977, 369.845 619.716, 379.463 622.455, 389.080 625.194, 398.698 627.933, 408.316 630.672, 417.933 633.411, 427.551 636.150, 437.168 638.889, 446.786 641.628, 456.404 644.367, 466.021 647.105, 475.639 648.254, 479.671 650.993, 489.289 653.732, 498.906 656.471, 508.524 659.210, 518.142 659.767, 520.098 " fill="none" stroke="rgb(0, 119, 0)" stroke-linecap="butt" stroke-linejoin="round" stroke-opacity="1.0" stroke-width="3.0" />
            <path d=" M 800.723, 593.395 791.640, 597.578 782.557, 601.761 773.474, 605.944 764.391, 610.127 755.308, 614.310 746.225, 618.493 737.142, 622.676 729.556, 626.170 721.593, 620.120 720.470, 619.267 " fill="none" stroke="rgb(0, 119, 0)" stroke-linecap="butt" stroke-linejoin="round" stroke-opacity="1.0" stroke-width="3.0" />
            <path d=" M 689.885, 507.037 692.514, 516.685 695.144, 526.334 697.773, 535.982 700.402, 545.630 703.031, 555.278 705.661, 564.926 708.290, 574.574 710.919, 584.223 713.549, 593.871 716.178, 603.519 718.807, 613.167 720.470, 619.267 729.560, 615.100 738.651, 610.934 747.741, 606.767 756.832, 602.601 765.923, 598.434 775.013, 594.267 784.104, 590.101 791.062, 586.911 " fill="none" stroke="rgb(0, 119, 0)" stroke-linecap="butt" stroke-linejoin="round" stroke-opacity="1.0" stroke-width="3.0" />
            <path d=" M 708.243, 245.903 710.604, 255.626 712.964, 265.344 715.209, 274.585 717.569, 284.302 719.929, 294.020 722.289, 303.737 724.649, 313.455 727.009, 323.172 727.769, 326.303 730.129, 336.021 732.489, 345.738 734.849, 355.456 737.091, 364.685 739.451, 374.403 740.774, 379.852 743.134, 389.569 745.494, 399.287 747.854, 409.004 750.215, 418.722 752.575, 428.439 754.935, 438.157 757.295, 447.874 759.655, 457.592 762.015, 467.309 764.375, 477.027 766.735, 486.744 769.095, 496.462 771.455, 506.179 773.815, 515.897 776.175, 525.614 778.535, 535.332 780.895, 545.049 783.255, 554.767 785.615, 564.485 787.975, 574.202 790.336, 583.920 791.062, 586.911 799.366, 592.484 800.723, 593.395 798.391, 583.671 796.059, 573.947 793.727, 564.223 791.394, 554.498 789.062, 544.774 786.730, 535.050 784.398, 525.326 782.065, 515.601 779.733, 505.877 777.401, 496.153 775.068, 486.429 772.736, 476.704 770.404, 466.980 768.072, 457.256 765.739, 447.532 763.407, 437.808 761.075, 428.083 758.743, 418.359 756.410, 408.635 754.078, 398.911 751.746, 389.186 750.651, 384.620 748.319, 374.896 746.980, 369.316 744.648, 359.592 742.316, 349.867 739.983, 340.143 739.721, 339.047 " fill="none" stroke="rgb(0, 119, 0)" stroke-linecap="butt" stroke-linejoin="round" stroke-opacity="1.0" stroke-width="3.0" />
            <path d=" M 992.351, 1031.907 985.048, 1025.076 979.405, 1019.797 972.103, 1012.965 964.800, 1006.133 957.497, 999.301 950.234, 992.507 " fill="none" stroke="rgb(0, 119, 0)" stroke-linecap="butt" stroke-linejoin="round" stroke-opacity="1.0" stroke-width="3.0" />
            <path d=" M 921.720, 1052.451 925.652, 1056.438 932.420, 1063.302 " fill="none" stroke="rgb(0, 119, 0)" stroke-linecap="butt" stroke-linejoin="round" stroke-opacity="1.0" stroke-width="3.0" />
            <path d=" M 952.010, 1148.028 947.837, 1143.558 941.536, 1136.807 " fill="none" stroke="rgb(0, 119, 0)" stroke-linecap="butt" stroke-linejoin="round" stroke-opacity="1.0" stroke-width="3.0" />
            <path d=" M 1074.983, 544.442 1074.456, 544.693 1067.864, 547.837 " fill="none" stroke="rgb(0, 119, 0)" stroke-linecap="butt" stroke-linejoin="round" stroke-opacity="1.0" stroke-width="3.0" />
            <path d=" M 1005.718, 1004.902 998.293, 998.203 990.868, 991.504 987.724, 988.668 982.752, 984.182 " fill="none" stroke="rgb(0, 119, 0)" stroke-linecap="butt" stroke-linejoin="round" stroke-opacity="1.0" stroke-width="3.0" />
            <path d=" M 1023.837, 1098.878 1016.647, 1091.927 1009.458, 1084.977 1006.557, 1082.173 999.367, 1075.223 992.177, 1068.272 984.846, 1061.185 981.306, 1057.764 974.116, 1050.813 971.371, 1048.160 964.182, 1041.209 959.859, 1037.031 " fill="none" stroke="rgb(0, 119, 0)" stroke-linecap="butt" stroke-linejoin="round" stroke-opacity="1.0" stroke-width="3.0" />
            <path d=" M 715.817, 1074.775 709.638, 1066.913 703.458, 1059.051 703.193, 1058.714 " fill="none" stroke="rgb(0, 119, 0)" stroke-linecap="butt" stroke-linejoin="round" stroke-opacity="1.0" stroke-width="3.0" />
            <path d=" M 771.945, 353.194 769.704, 343.449 767.463, 333.703 766.225, 328.321 763.984, 318.575 761.744, 308.830 759.503, 299.084 757.262, 289.338 755.021, 279.593 752.780, 269.847 750.687, 260.746 " fill="none" stroke="rgb(0, 119, 0)" stroke-linecap="butt" stroke-linejoin="round" stroke-opacity="1.0" stroke-width="3.0" />
            <path d=" M 1074.383, 544.151 1067.267, 547.544 " fill="none" stroke="rgb(0, 119, 0)" stroke-linecap="butt" stroke-linejoin="round" stroke-opacity="1.0" stroke-width="3.0" />
            <path d=" M 998.529, 458.659 1007.643, 454.545 1008.631, 454.099 " fill="none" stroke="rgb(0, 119, 0)" stroke-linecap="butt" stroke-linejoin="round" stroke-opacity="1.0" stroke-width="3.0" />
            <path d=" M 1029.268, 472.311 1038.363, 468.153 1039.567, 467.602 " fill="none" stroke="rgb(0, 119, 0)" stroke-linecap="butt" stroke-linejoin="round" stroke-opacity="1.0" stroke-width="3.0" />
            <path d=" M 727.898, 360.381 718.638, 364.158 713.019, 366.450 " fill="none" stroke="rgb(0, 119, 0)" stroke-linecap="butt" stroke-linejoin="round" stroke-opacity="1.0" stroke-width="3.0" />
        </g>
    </g>
</svg>
