<?xml version='1.0' encoding='ascii'?>
<svg xmlns="http://www.w3.org/2000/svg" xmlns:inkscape="http://www.inkscape.org/namespaces/inkscape" height="1500" version="1.1" width="1500">
    <g id="fressstylelayer_LineSet" inkscape:groupmode="lineset" inkscape:label="fressstylelayer_LineSet">
        <g id="strokes" inkscape:groupmode="layer" inkscape:label="strokes">
            <path d=" M 1027.223, 898.658 1018.173, 902.912 1009.123, 907.166 1000.073, 911.420 994.372, 914.100 985.322, 918.354 984.488, 918.746 975.438, 923.000 966.996, 926.969 957.946, 931.223 948.896, 935.477 939.846, 939.731 930.796, 943.985 921.746, 948.239 912.696, 952.493 903.646, 956.747 894.596, 961.001 885.546, 965.255 876.496, 969.510 873.042, 971.133 " fill="none" stroke="rgb(157, 20, 170)" stroke-linecap="butt" stroke-linejoin="round" stroke-opacity="1.0" stroke-width="3.0" />
            <path d=" M 805.452, 945.314 814.794, 948.883 824.135, 952.451 833.477, 956.020 842.819, 959.588 852.160, 963.156 861.502, 966.725 870.844, 970.293 873.042, 971.133 871.822, 981.058 870.601, 990.984 869.381, 1000.909 868.160, 1010.834 866.940, 1020.759 865.719, 1030.685 864.499, 1040.610 863.279, 1050.535 862.058, 1060.460 860.838, 1070.386 859.617, 1080.311 858.397, 1090.236 857.176, 1100.161 855.956, 1110.087 854.735, 1120.012 853.515, 1129.937 852.294, 1139.862 851.074, 1149.788 849.853, 1159.713 849.072, 1166.067 847.852, 1175.992 847.620, 1177.878 846.399, 1187.803 845.179, 1197.729 843.958, 1207.654 842.738, 1217.579 841.517, 1227.504 840.297, 1237.430 839.076, 1247.355 838.772, 1249.829 " fill="none" stroke="rgb(157, 20, 170)" stroke-linecap="butt" stroke-linejoin="round" stroke-opacity="1.0" stroke-width="3.0" />
            <path d=" M 770.302, 1215.074 779.219, 1219.600 780.493, 1220.247 789.410, 1224.773 798.327, 1229.299 807.244, 1233.826 816.161, 1238.352 825.078, 1242.878 833.995, 1247.404 838.772, 1249.829 847.019, 1244.174 855.267, 1238.519 863.514, 1232.864 871.762, 1227.209 880.009, 1221.554 888.257, 1215.899 896.504, 1210.244 904.752, 1204.589 912.999, 1198.934 921.247, 1193.279 929.494, 1187.624 937.741, 1181.969 945.989, 1176.314 954.236, 1170.659 962.484, 1165.004 970.731, 1159.349 978.979, 1153.693 987.226, 1148.038 990.508, 1145.788 991.978, 1135.897 993.447, 1126.005 994.917, 1116.114 996.386, 1106.222 997.856, 1096.331 999.325, 1086.439 1000.795, 1076.548 1002.264, 1066.657 1003.734, 1056.765 1005.203, 1046.874 1006.673, 1036.982 1008.143, 1027.091 1009.612, 1017.199 1011.082, 1007.308 1012.551, 997.417 1014.021, 987.525 1014.607, 983.580 1016.076, 973.688 1017.546, 963.797 1018.047, 960.425 1019.516, 950.534 1020.986, 940.642 1022.455, 930.751 1023.925, 920.859 1025.395, 910.968 1026.864, 901.076 1027.223, 898.658 1017.726, 895.527 1008.229, 892.396 998.732, 889.265 989.235, 886.134 979.737, 883.003 970.240, 879.872 964.358, 877.932 " fill="none" stroke="rgb(157, 20, 170)" stroke-linecap="butt" stroke-linejoin="round" stroke-opacity="1.0" stroke-width="3.0" />
            <path d=" M 964.358, 877.932 955.151, 881.836 945.945, 885.740 936.738, 889.644 927.532, 893.548 918.325, 897.452 909.119, 901.356 899.912, 905.260 890.706, 909.164 881.499, 913.068 872.293, 916.971 863.086, 920.875 853.880, 924.779 844.673, 928.683 835.467, 932.587 826.260, 936.491 817.054, 940.395 807.847, 944.299 805.452, 945.314 804.355, 955.254 803.258, 965.194 802.160, 975.133 801.063, 985.073 799.966, 995.013 798.869, 1004.952 797.771, 1014.892 796.674, 1024.831 795.577, 1034.771 794.480, 1044.711 793.382, 1054.650 792.285, 1064.590 791.188, 1074.529 790.091, 1084.469 788.993, 1094.409 787.896, 1104.348 787.545, 1107.526 781.719, 1110.706 773.781, 1115.039 765.004, 1119.830 758.451, 1123.407 749.398, 1119.158 740.346, 1114.909 731.294, 1110.660 722.242, 1106.411 719.345, 1105.051 710.293, 1100.802 701.241, 1096.553 699.750, 1095.853 " fill="none" stroke="rgb(157, 20, 170)" stroke-linecap="butt" stroke-linejoin="round" stroke-opacity="1.0" stroke-width="3.0" />
            <path d=" M 109.884, 937.508 110.015, 947.507 110.147, 957.507 110.279, 967.506 110.411, 977.505 110.543, 987.504 110.674, 997.503 110.806, 1007.502 110.938, 1017.501 111.014, 1023.270 119.600, 1028.397 128.185, 1033.524 136.771, 1038.651 145.357, 1043.778 153.943, 1048.905 162.528, 1054.032 171.114, 1059.159 179.700, 1064.286 188.285, 1069.413 196.871, 1074.539 205.457, 1079.666 214.043, 1084.793 222.628, 1089.920 231.214, 1095.047 239.800, 1100.174 248.385, 1105.301 256.971, 1110.428 265.557, 1115.555 274.143, 1120.682 282.728, 1125.809 291.314, 1130.936 299.900, 1136.063 308.486, 1141.190 317.071, 1146.316 325.657, 1151.443 334.243, 1156.570 342.828, 1161.697 351.414, 1166.824 360.000, 1171.951 368.586, 1177.078 377.171, 1182.205 385.757, 1187.332 394.343, 1192.459 402.928, 1197.586 411.514, 1202.713 422.486, 1209.264 431.479, 1204.892 440.472, 1200.519 449.466, 1196.147 458.459, 1191.774 467.453, 1187.402 476.446, 1183.029 485.439, 1178.657 494.433, 1174.285 503.426, 1169.912 512.420, 1165.540 521.413, 1161.167 530.407, 1156.795 539.400, 1152.422 548.393, 1148.050 557.387, 1143.677 563.030, 1140.934 " fill="none" stroke="rgb(157, 20, 170)" stroke-linecap="butt" stroke-linejoin="round" stroke-opacity="1.0" stroke-width="3.0" />
            <path d=" M 714.470, 1154.859 705.713, 1159.688 696.957, 1164.517 688.200, 1169.345 679.443, 1174.174 670.686, 1179.003 664.409, 1182.464 655.652, 1187.292 653.733, 1188.351 644.871, 1183.718 636.009, 1179.085 627.147, 1174.452 618.285, 1169.819 609.423, 1165.186 600.561, 1160.553 591.698, 1155.921 582.836, 1151.288 573.974, 1146.655 565.112, 1142.022 563.030, 1140.934 554.168, 1136.301 545.306, 1131.668 536.444, 1127.035 527.582, 1122.402 522.527, 1119.759 523.146, 1109.778 523.170, 1109.381 523.211, 1108.730 " fill="none" stroke="rgb(157, 20, 170)" stroke-linecap="butt" stroke-linejoin="round" stroke-opacity="1.0" stroke-width="3.0" />
            <path d=" M 605.808, 1136.360 596.855, 1140.813 590.942, 1143.754 582.059, 1139.161 574.605, 1135.306 565.722, 1130.713 556.840, 1126.120 547.957, 1121.526 539.074, 1116.933 534.182, 1114.403 525.299, 1109.810 523.211, 1108.730 514.328, 1104.137 508.998, 1101.381 509.414, 1094.377 510.007, 1084.395 510.599, 1074.412 511.192, 1064.430 511.784, 1054.448 512.377, 1044.465 512.983, 1034.250 " fill="none" stroke="rgb(157, 20, 170)" stroke-linecap="butt" stroke-linejoin="round" stroke-opacity="1.0" stroke-width="3.0" />
            <path d=" M 551.708, 1042.278 542.479, 1046.127 539.863, 1047.218 537.910, 1046.275 530.079, 1042.497 521.072, 1038.152 512.983, 1034.250 503.977, 1029.904 501.670, 1028.791 502.242, 1018.808 502.814, 1008.824 503.385, 998.840 503.957, 988.857 504.529, 978.873 505.100, 968.889 505.457, 962.661 " fill="none" stroke="rgb(157, 20, 170)" stroke-linecap="butt" stroke-linejoin="round" stroke-opacity="1.0" stroke-width="3.0" />
            <path d=" M 664.409, 1182.464 673.291, 1187.059 682.172, 1191.655 691.054, 1196.250 699.935, 1200.846 708.817, 1205.442 717.698, 1210.037 726.580, 1214.633 735.461, 1219.228 744.343, 1223.824 753.224, 1228.420 761.094, 1232.492 769.550, 1227.154 778.006, 1221.816 780.493, 1220.247 " fill="none" stroke="rgb(157, 20, 170)" stroke-linecap="butt" stroke-linejoin="round" stroke-opacity="1.0" stroke-width="3.0" />
            <path d=" M 770.302, 1215.074 771.389, 1205.133 772.477, 1195.193 773.564, 1185.252 774.652, 1175.311 775.739, 1165.370 776.826, 1155.430 777.914, 1145.489 779.001, 1135.548 780.089, 1125.608 781.176, 1115.667 781.719, 1110.706 " fill="none" stroke="rgb(157, 20, 170)" stroke-linecap="butt" stroke-linejoin="round" stroke-opacity="1.0" stroke-width="3.0" />
            <path d=" M 757.114, 425.578 766.991, 427.142 776.868, 428.706 786.174, 430.179 " fill="none" stroke="rgb(157, 20, 170)" stroke-linecap="butt" stroke-linejoin="round" stroke-opacity="1.0" stroke-width="3.0" />
            <path d=" M 779.596, 497.305 780.571, 487.353 781.547, 477.401 782.522, 467.448 783.497, 457.496 783.825, 454.155 784.122, 451.122 785.097, 441.170 786.072, 431.218 786.174, 430.179 796.173, 430.058 806.173, 429.937 816.172, 429.815 826.171, 429.694 836.170, 429.572 846.170, 429.451 856.169, 429.329 866.168, 429.208 876.168, 429.086 886.167, 428.965 896.166, 428.843 906.165, 428.722 916.165, 428.600 926.164, 428.479 936.163, 428.358 946.162, 428.236 956.162, 428.115 966.161, 427.993 974.645, 427.890 " fill="none" stroke="rgb(157, 20, 170)" stroke-linecap="butt" stroke-linejoin="round" stroke-opacity="1.0" stroke-width="3.0" />
            <path d=" M 967.277, 485.172 967.696, 481.911 968.972, 471.992 970.248, 462.074 971.524, 452.156 972.799, 442.238 974.075, 432.319 974.645, 427.890 964.749, 426.453 954.853, 425.015 944.957, 423.577 935.060, 422.140 925.164, 420.702 915.268, 419.264 905.372, 417.827 895.476, 416.389 885.580, 414.951 875.684, 413.514 865.788, 412.076 855.891, 410.639 845.995, 409.201 836.099, 407.763 826.203, 406.326 816.307, 404.888 806.411, 403.450 796.515, 402.013 793.320, 401.549 " fill="none" stroke="rgb(157, 20, 170)" stroke-linecap="butt" stroke-linejoin="round" stroke-opacity="1.0" stroke-width="3.0" />
            <path d=" M -96.908, 230.492 -86.944, 231.344 -76.980, 232.197 -67.017, 233.049 -57.053, 233.901 -47.090, 234.754 -37.126, 235.606 -27.162, 236.459 -17.199, 237.311 -7.235, 238.164 2.728, 239.016 12.692, 239.869 22.656, 240.721 32.619, 241.574 42.583, 242.426 52.546, 243.279 62.510, 244.131 72.474, 244.984 82.437, 245.836 92.401, 246.688 102.364, 247.541 112.328, 248.393 122.292, 249.246 132.255, 250.098 142.219, 250.951 152.182, 251.803 162.146, 252.656 172.110, 253.508 182.073, 254.361 192.037, 255.213 202.000, 256.066 211.964, 256.918 221.928, 257.770 231.891, 258.623 241.855, 259.475 251.818, 260.328 261.782, 261.180 271.746, 262.033 281.709, 262.885 291.673, 263.738 301.636, 264.590 311.600, 265.443 321.564, 266.295 331.527, 267.147 341.491, 268.000 351.454, 268.852 361.418, 269.705 371.382, 270.557 381.345, 271.410 391.309, 272.262 405.143, 273.446 415.086, 274.513 425.029, 275.580 434.972, 276.647 444.914, 277.714 454.857, 278.781 464.800, 279.848 474.743, 280.915 484.686, 281.982 494.629, 283.049 504.572, 284.116 514.515, 285.183 524.458, 286.250 534.401, 287.317 544.344, 288.384 554.286, 289.451 564.229, 290.518 574.172, 291.585 584.115, 292.653 594.058, 293.720 604.001, 294.787 613.944, 295.854 623.887, 296.921 633.830, 297.988 643.773, 299.055 653.716, 300.122 663.658, 301.189 673.601, 302.256 683.544, 303.323 693.487, 304.390 703.430, 305.457 713.373, 306.524 723.316, 307.591 733.259, 308.658 743.202, 309.725 753.145, 310.792 763.088, 311.859 773.030, 312.926 782.973, 313.993 792.916, 315.060 801.762, 316.010 800.780, 325.961 799.798, 335.913 798.816, 345.865 797.833, 355.816 796.851, 365.768 795.869, 375.719 794.887, 385.671 793.904, 395.623 793.320, 401.549 792.337, 411.500 791.355, 421.452 790.976, 425.296 780.976, 425.379 770.976, 425.463 760.977, 425.546 757.114, 425.578 756.186, 435.535 755.258, 445.492 755.186, 446.269 754.906, 449.266 753.978, 459.223 753.906, 459.996 " fill="none" stroke="rgb(157, 20, 170)" stroke-linecap="butt" stroke-linejoin="round" stroke-opacity="1.0" stroke-width="3.0" />
            <path d=" M 699.750, 1095.853 700.688, 1085.897 701.625, 1075.941 702.562, 1065.985 703.499, 1056.029 704.436, 1046.073 705.373, 1036.117 706.310, 1026.161 707.248, 1016.205 708.185, 1006.249 709.122, 996.293 710.059, 986.337 710.996, 976.381 711.933, 966.425 712.870, 956.469 713.808, 946.513 714.745, 936.557 715.682, 926.601 716.619, 916.645 717.512, 907.159 " fill="none" stroke="rgb(157, 20, 170)" stroke-linecap="butt" stroke-linejoin="round" stroke-opacity="1.0" stroke-width="3.0" />
            <path d=" M 703.951, 770.130 694.280, 772.671 689.880, 773.827 " fill="none" stroke="rgb(157, 20, 170)" stroke-linecap="butt" stroke-linejoin="round" stroke-opacity="1.0" stroke-width="3.0" />
            <path d=" M 635.293, 756.172 644.807, 759.250 654.322, 762.327 663.837, 765.404 673.352, 768.481 682.866, 771.559 689.880, 773.827 689.011, 783.789 688.142, 793.751 687.274, 803.713 686.405, 813.676 685.536, 823.638 684.667, 833.600 683.799, 843.562 682.930, 853.524 682.061, 863.487 681.193, 873.449 680.324, 883.411 679.455, 893.373 678.587, 903.335 677.718, 913.298 676.849, 923.260 675.980, 933.222 675.112, 943.184 674.243, 953.146 673.374, 963.109 672.506, 973.071 671.637, 983.033 670.768, 992.995 669.899, 1002.957 669.031, 1012.920 668.162, 1022.882 667.293, 1032.844 666.425, 1042.806 665.556, 1052.768 664.687, 1062.730 663.818, 1072.693 662.950, 1082.655 662.081, 1092.617 661.212, 1102.579 660.344, 1112.542 659.475, 1122.504 659.037, 1127.525 658.168, 1137.487 657.300, 1147.449 656.431, 1157.412 655.562, 1167.374 654.685, 1177.432 653.816, 1187.394 653.733, 1188.351 " fill="none" stroke="rgb(157, 20, 170)" stroke-linecap="butt" stroke-linejoin="round" stroke-opacity="1.0" stroke-width="3.0" />
            <path d=" M 768.997, 906.629 759.655, 910.197 750.313, 913.766 742.629, 916.701 733.280, 913.149 723.932, 909.598 717.512, 907.159 710.850, 904.628 701.502, 901.076 692.528, 897.667 693.420, 887.707 694.312, 877.747 695.204, 867.787 696.096, 857.826 696.989, 847.866 697.881, 837.906 698.773, 827.946 699.665, 817.986 700.557, 808.026 701.449, 798.066 702.341, 788.106 703.234, 778.145 703.951, 770.130 694.426, 767.085 684.901, 764.041 675.376, 760.996 665.851, 757.951 656.325, 754.906 649.562, 752.745 " fill="none" stroke="rgb(157, 20, 170)" stroke-linecap="butt" stroke-linejoin="round" stroke-opacity="1.0" stroke-width="3.0" />
            <path d=" M 655.882, 673.712 655.085, 683.680 654.288, 693.649 653.491, 703.617 652.694, 713.585 651.897, 723.553 651.100, 733.521 650.302, 743.490 649.562, 752.745 639.839, 755.080 635.293, 756.172 634.519, 766.142 633.746, 776.112 632.973, 786.083 632.200, 796.053 631.427, 806.023 630.653, 815.993 629.880, 825.963 629.107, 835.933 628.334, 845.903 627.561, 855.873 626.787, 865.843 626.014, 875.813 625.241, 885.783 624.468, 895.753 623.695, 905.723 622.921, 915.693 622.148, 925.663 621.375, 935.633 620.602, 945.604 619.829, 955.574 619.055, 965.544 618.282, 975.514 617.509, 985.484 616.736, 995.454 615.963, 1005.424 615.189, 1015.394 614.416, 1025.364 613.643, 1035.334 612.870, 1045.304 612.097, 1055.274 611.323, 1065.244 610.550, 1075.214 609.777, 1085.184 609.004, 1095.154 608.429, 1102.570 607.656, 1112.540 606.882, 1122.510 606.109, 1132.480 605.808, 1136.360 " fill="none" stroke="rgb(157, 20, 170)" stroke-linecap="butt" stroke-linejoin="round" stroke-opacity="1.0" stroke-width="3.0" />
            <path d=" M 768.997, 906.629 770.023, 896.681 771.050, 886.734 772.076, 876.787 773.103, 866.840 774.130, 856.893 775.156, 846.946 776.183, 836.998 777.209, 827.051 778.236, 817.104 779.263, 807.157 780.289, 797.210 781.316, 787.263 782.342, 777.315 783.369, 767.368 784.396, 757.421 785.422, 747.474 786.449, 737.527 787.475, 727.580 788.502, 717.633 789.529, 707.685 790.523, 698.051 " fill="none" stroke="rgb(157, 20, 170)" stroke-linecap="butt" stroke-linejoin="round" stroke-opacity="1.0" stroke-width="3.0" />
            <path d=" M 683.656, 668.578 693.296, 671.236 702.936, 673.895 712.576, 676.554 722.216, 679.212 731.856, 681.871 741.496, 684.530 751.136, 687.189 760.777, 689.847 770.417, 692.506 780.057, 695.165 790.523, 698.051 780.764, 700.235 771.005, 702.418 763.621, 704.070 " fill="none" stroke="rgb(157, 20, 170)" stroke-linecap="butt" stroke-linejoin="round" stroke-opacity="1.0" stroke-width="3.0" />
            <path d=" M 684.290, 661.076 683.656, 668.578 673.822, 670.396 663.989, 672.213 655.882, 673.712 665.507, 676.424 675.132, 679.136 684.757, 681.849 694.383, 684.561 704.008, 687.273 713.633, 689.985 723.258, 692.697 732.883, 695.409 742.508, 698.121 752.134, 700.834 761.759, 703.546 763.621, 704.070 762.639, 714.022 761.656, 723.974 760.674, 733.925 759.691, 743.877 758.709, 753.829 757.726, 763.780 756.744, 773.732 755.761, 783.683 754.779, 793.635 753.796, 803.587 752.814, 813.538 751.831, 823.490 750.849, 833.442 749.866, 843.393 748.884, 853.345 747.901, 863.296 746.919, 873.248 745.936, 883.200 744.954, 893.151 744.520, 897.548 743.537, 907.499 742.629, 916.701 " fill="none" stroke="rgb(157, 20, 170)" stroke-linecap="butt" stroke-linejoin="round" stroke-opacity="1.0" stroke-width="3.0" />
            <path d=" M 577.177, 467.515 576.534, 477.495 575.892, 487.474 575.250, 497.453 574.607, 507.433 573.965, 517.412 573.323, 527.391 572.680, 537.371 572.038, 547.350 571.396, 557.329 570.753, 567.309 570.111, 577.288 569.469, 587.267 568.826, 597.247 568.184, 607.226 567.542, 617.205 566.899, 627.185 566.257, 637.164 565.615, 647.143 564.972, 657.123 564.330, 667.102 563.687, 677.082 563.045, 687.061 562.403, 697.040 561.760, 707.020 561.118, 716.999 560.476, 726.978 559.833, 736.958 559.191, 746.937 558.549, 756.916 557.906, 766.896 557.264, 776.875 556.622, 786.854 555.979, 796.834 555.337, 806.813 554.695, 816.792 554.052, 826.772 553.410, 836.751 552.768, 846.730 552.125, 856.710 551.483, 866.689 550.841, 876.669 550.198, 886.648 549.556, 896.627 548.914, 906.607 548.271, 916.586 547.629, 926.565 546.986, 936.545 546.344, 946.524 545.702, 956.503 545.059, 966.483 544.417, 976.462 543.775, 986.441 543.132, 996.421 542.490, 1006.400 541.848, 1016.379 541.205, 1026.359 540.524, 1036.941 539.882, 1046.920 539.863, 1047.218 " fill="none" stroke="rgb(157, 20, 170)" stroke-linecap="butt" stroke-linejoin="round" stroke-opacity="1.0" stroke-width="3.0" />
            <path d=" M 577.276, 657.519 587.144, 655.899 597.013, 654.280 606.880, 652.661 616.749, 651.041 626.617, 649.422 635.892, 647.900 " fill="none" stroke="rgb(157, 20, 170)" stroke-linecap="butt" stroke-linejoin="round" stroke-opacity="1.0" stroke-width="3.0" />
            <path d=" M 626.324, 671.481 636.167, 669.714 646.010, 667.947 655.852, 666.181 665.695, 664.414 675.538, 662.647 684.290, 661.076 674.642, 658.449 664.993, 655.822 655.344, 653.195 645.695, 650.569 635.892, 647.900 636.652, 637.929 637.412, 627.958 638.173, 617.986 638.933, 608.015 639.693, 598.044 640.453, 588.073 641.213, 578.102 641.973, 568.131 642.734, 558.160 643.494, 548.189 644.254, 538.218 645.014, 528.247 645.774, 518.276 646.534, 508.305 647.200, 499.580 " fill="none" stroke="rgb(157, 20, 170)" stroke-linecap="butt" stroke-linejoin="round" stroke-opacity="1.0" stroke-width="3.0" />
            <path d=" M 551.708, 1042.278 552.372, 1032.300 553.035, 1022.322 553.698, 1012.344 554.361, 1002.366 555.024, 992.388 555.687, 982.410 556.350, 972.432 557.013, 962.454 557.676, 952.476 558.339, 942.498 559.002, 932.520 559.665, 922.542 560.328, 912.564 560.991, 902.586 561.654, 892.608 562.317, 882.630 562.980, 872.652 563.643, 862.674 564.307, 852.696 564.970, 842.718 565.633, 832.740 566.296, 822.762 566.959, 812.784 567.622, 802.806 568.285, 792.828 568.948, 782.850 569.611, 772.872 570.274, 762.894 570.937, 752.916 571.600, 742.938 572.263, 732.960 572.926, 722.982 573.589, 713.004 574.252, 703.026 574.915, 693.048 575.578, 683.070 576.242, 673.092 576.905, 663.114 577.276, 657.519 586.894, 660.256 596.512, 662.994 606.130, 665.732 615.748, 668.470 625.366, 671.208 626.324, 671.481 625.577, 681.453 624.830, 691.425 624.083, 701.397 623.336, 711.369 622.589, 721.341 621.842, 731.313 621.095, 741.285 620.347, 751.257 619.600, 761.229 618.853, 771.201 618.106, 781.173 617.359, 791.145 616.612, 801.117 615.865, 811.089 615.118, 821.061 614.371, 831.034 613.624, 841.006 612.876, 850.978 612.129, 860.950 611.382, 870.922 610.635, 880.894 609.888, 890.866 609.141, 900.838 608.394, 910.810 607.647, 920.782 606.900, 930.754 606.153, 940.726 605.405, 950.698 604.658, 960.670 603.911, 970.642 603.164, 980.614 602.417, 990.586 601.670, 1000.558 600.923, 1010.530 600.176, 1020.503 599.429, 1030.475 598.682, 1040.447 597.934, 1050.419 597.187, 1060.391 596.440, 1070.363 595.693, 1080.335 594.946, 1090.307 594.540, 1095.722 593.793, 1105.694 593.046, 1115.666 592.299, 1125.638 592.022, 1129.331 591.275, 1139.303 590.942, 1143.754 " fill="none" stroke="rgb(157, 20, 170)" stroke-linecap="butt" stroke-linejoin="round" stroke-opacity="1.0" stroke-width="3.0" />
            <path d=" M 756.694, 492.989 757.632, 483.033 758.569, 473.077 759.507, 463.121 759.706, 461.005 " fill="none" stroke="rgb(157, 20, 170)" stroke-linecap="butt" stroke-linejoin="round" stroke-opacity="1.0" stroke-width="3.0" />
            <path d=" M -69.910, 839.742 -61.125, 844.519 -52.339, 849.296 -43.554, 854.073 -34.769, 858.850 -25.984, 863.628 -17.199, 868.405 -8.414, 873.182 0.372, 877.959 9.157, 882.736 17.942, 887.513 26.727, 892.290 35.512, 897.067 44.297, 901.844 53.083, 906.622 61.868, 911.399 70.653, 916.176 79.438, 920.953 88.223, 925.730 97.008, 930.507 105.794, 935.284 109.884, 937.508 118.669, 942.285 127.454, 947.062 136.239, 951.840 145.024, 956.617 153.809, 961.394 162.595, 966.171 171.380, 970.948 180.165, 975.725 188.950, 980.502 197.735, 985.279 206.521, 990.056 210.424, 992.179 219.209, 996.956 227.994, 1001.733 236.779, 1006.510 245.564, 1011.287 254.350, 1016.064 263.135, 1020.842 271.920, 1025.619 280.705, 1030.396 289.490, 1035.173 293.694, 1037.459 303.123, 1034.128 312.552, 1030.798 321.981, 1027.467 331.410, 1024.137 340.840, 1020.806 350.269, 1017.476 359.698, 1014.145 369.127, 1010.815 378.556, 1007.484 387.985, 1004.154 397.414, 1000.823 406.843, 997.493 416.272, 994.162 425.701, 990.832 432.294, 988.503 441.723, 985.173 451.152, 981.842 460.581, 978.512 470.010, 975.181 479.439, 971.851 488.868, 968.520 498.298, 965.190 505.457, 962.661 514.886, 959.330 524.315, 956.000 533.744, 952.669 540.438, 950.305 541.070, 940.325 541.702, 930.345 542.334, 920.365 542.967, 910.385 543.599, 900.405 544.232, 890.425 544.864, 880.445 545.496, 870.465 546.129, 860.485 546.761, 850.505 547.393, 840.526 548.026, 830.546 548.658, 820.566 549.290, 810.586 549.923, 800.606 550.555, 790.626 551.187, 780.646 551.820, 770.666 552.452, 760.686 553.084, 750.706 553.717, 740.726 554.349, 730.746 554.981, 720.766 555.614, 710.786 556.246, 700.806 556.878, 690.826 557.511, 680.846 558.143, 670.866 558.775, 660.886 559.408, 650.906 560.040, 640.926 560.672, 630.946 561.305, 620.966 561.937, 610.986 562.569, 601.006 563.202, 591.026 563.834, 581.046 564.466, 571.066 565.099, 561.086 565.731, 551.106 566.363, 541.126 566.996, 531.146 567.628, 521.166 568.260, 511.186 568.893, 501.206 569.525, 491.226 570.157, 481.246 570.790, 471.266 571.101, 466.346 581.095, 465.999 591.089, 465.651 601.083, 465.304 611.077, 464.957 621.071, 464.610 631.065, 464.263 641.059, 463.916 651.053, 463.569 661.047, 463.222 671.041, 462.875 681.035, 462.527 691.029, 462.180 701.023, 461.833 711.017, 461.486 721.011, 461.139 731.005, 460.792 740.999, 460.445 750.993, 460.098 753.906, 459.996 759.706, 461.005 749.712, 461.362 739.719, 461.718 729.725, 462.074 719.731, 462.431 709.738, 462.787 699.744, 463.144 689.750, 463.500 679.757, 463.857 669.763, 464.213 659.769, 464.569 649.776, 464.926 639.782, 465.282 629.788, 465.639 619.795, 465.995 609.801, 466.352 599.807, 466.708 589.814, 467.065 579.820, 467.421 577.177, 467.515 571.101, 466.346 " fill="none" stroke="rgb(157, 20, 170)" stroke-linecap="butt" stroke-linejoin="round" stroke-opacity="1.0" stroke-width="3.0" />
            <path d=" M 820.512, 534.454 810.709, 532.482 800.905, 530.509 791.102, 528.536 781.298, 526.563 771.495, 524.591 761.691, 522.618 751.888, 520.645 742.084, 518.673 732.281, 516.700 722.477, 514.727 712.674, 512.755 702.870, 510.782 693.067, 508.809 683.263, 506.836 673.460, 504.864 663.656, 502.891 653.853, 500.918 647.200, 499.580 657.181, 498.979 667.163, 498.378 677.145, 497.777 687.127, 497.176 697.109, 496.576 707.091, 495.975 717.073, 495.374 727.055, 494.773 737.037, 494.172 747.019, 493.572 756.694, 492.989 766.521, 494.841 776.348, 496.693 779.596, 497.305 789.575, 496.660 799.554, 496.015 809.534, 495.370 819.513, 494.725 829.492, 494.080 839.471, 493.435 849.450, 492.789 859.429, 492.144 869.409, 491.499 879.388, 490.854 889.367, 490.209 899.346, 489.564 909.325, 488.919 919.304, 488.274 929.284, 487.629 939.263, 486.983 949.242, 486.338 959.221, 485.693 967.277, 485.172 " fill="none" stroke="rgb(157, 20, 170)" stroke-linecap="butt" stroke-linejoin="round" stroke-opacity="1.0" stroke-width="3.0" />
            <path d=" M 1112.433, 506.185 1102.480, 507.149 1092.526, 508.113 1082.573, 509.077 1072.619, 510.041 1062.666, 511.005 1052.712, 511.969 1042.759, 512.932 1032.806, 513.896 1022.852, 514.860 1012.899, 515.824 1002.945, 516.788 992.992, 517.752 983.038, 518.716 973.085, 519.680 963.131, 520.643 953.178, 521.607 943.225, 522.571 933.271, 523.535 923.318, 524.499 913.364, 525.463 903.411, 526.427 893.457, 527.391 883.504, 528.354 873.550, 529.318 863.597, 530.282 853.644, 531.246 843.690, 532.210 833.737, 533.174 823.783, 534.138 820.512, 534.454 819.464, 544.399 818.416, 554.344 817.368, 564.289 816.320, 574.234 815.272, 584.179 814.224, 594.124 813.177, 604.069 812.129, 614.014 811.081, 623.959 810.033, 633.904 808.985, 643.849 807.937, 653.794 806.889, 663.739 805.841, 673.683 804.793, 683.628 803.745, 693.573 802.697, 703.518 801.649, 713.463 800.601, 723.408 799.553, 733.353 798.505, 743.298 797.457, 753.243 796.409, 763.188 795.361, 773.133 794.313, 783.078 793.265, 793.023 792.217, 802.968 791.169, 812.913 790.121, 822.858 789.074, 832.802 788.026, 842.747 786.978, 852.692 785.930, 862.637 784.882, 872.582 783.834, 882.527 782.786, 892.472 781.738, 902.417 780.690, 912.362 779.642, 922.307 778.594, 932.252 777.546, 942.197 776.498, 952.142 775.450, 962.087 774.402, 972.032 773.354, 981.977 772.306, 991.921 771.258, 1001.866 770.210, 1011.811 769.162, 1021.756 768.114, 1031.701 767.066, 1041.646 766.018, 1051.591 764.971, 1061.536 763.923, 1071.481 762.875, 1081.426 761.827, 1091.371 760.590, 1103.102 759.542, 1113.047 758.495, 1122.992 758.451, 1123.407 " fill="none" stroke="rgb(157, 20, 170)" stroke-linecap="butt" stroke-linejoin="round" stroke-opacity="1.0" stroke-width="3.0" />
            <path d=" M 1002.938, 532.211 1006.177, 532.812 1004.829, 542.721 1003.480, 552.630 1002.132, 562.538 1000.783, 572.447 999.435, 582.356 998.087, 592.264 996.738, 602.173 995.390, 612.082 994.041, 621.990 992.693, 631.899 991.344, 641.808 989.996, 651.716 988.648, 661.625 987.299, 671.534 985.951, 681.443 985.201, 686.953 975.509, 689.416 965.817, 691.878 956.125, 694.340 946.432, 696.802 936.740, 699.265 927.048, 701.727 917.356, 704.189 907.664, 706.651 900.821, 708.390 897.560, 707.518 898.768, 697.591 899.975, 687.664 901.182, 677.737 902.390, 667.811 903.597, 657.884 904.804, 647.957 906.012, 638.030 907.219, 628.103 908.426, 618.176 909.633, 608.249 910.841, 598.323 912.048, 588.396 913.255, 578.469 914.463, 568.542 915.670, 558.615 916.877, 548.688 917.726, 541.710 " fill="none" stroke="rgb(157, 20, 170)" stroke-linecap="butt" stroke-linejoin="round" stroke-opacity="1.0" stroke-width="3.0" />
            <path d=" M 1014.607, 983.580 1023.384, 978.789 1032.162, 973.997 1040.939, 969.206 1041.650, 968.818 1043.163, 958.933 1044.675, 949.048 1046.187, 939.163 1047.700, 929.278 1049.212, 919.393 1050.725, 909.508 1052.237, 899.623 1053.749, 889.738 1055.262, 879.853 1056.774, 869.968 1058.287, 860.083 1059.799, 850.198 1061.311, 840.313 1062.824, 830.428 1064.336, 820.543 1065.849, 810.658 1067.361, 800.773 1068.873, 790.888 1070.386, 781.003 1071.898, 771.118 1073.411, 761.233 1074.923, 751.348 1076.435, 741.463 1077.948, 731.578 1079.460, 721.693 1080.973, 711.808 1082.485, 701.923 1083.997, 692.039 1085.510, 682.154 1087.022, 672.269 1088.535, 662.384 1090.047, 652.499 1091.559, 642.614 1093.072, 632.729 1094.584, 622.844 1096.097, 612.959 1097.609, 603.074 1099.121, 593.189 1100.634, 583.304 1102.146, 573.419 1103.659, 563.534 1105.171, 553.649 1106.683, 543.764 1108.196, 533.879 1109.708, 523.994 1111.221, 514.109 1112.433, 506.185 1102.571, 504.531 1092.708, 502.877 1082.846, 501.223 1072.984, 499.569 1063.122, 497.915 1053.260, 496.261 1043.397, 494.607 1033.535, 492.953 1023.673, 491.299 1013.810, 489.645 1003.948, 487.991 994.086, 486.337 984.224, 484.683 974.361, 483.029 967.696, 481.911 " fill="none" stroke="rgb(157, 20, 170)" stroke-linecap="butt" stroke-linejoin="round" stroke-opacity="1.0" stroke-width="3.0" />
            <path d=" M 308.736, 277.218 308.538, 287.216 308.341, 297.214 308.143, 307.212 307.945, 317.210 307.747, 327.208 307.549, 337.206 307.352, 347.204 307.154, 357.203 306.956, 367.201 306.758, 377.199 306.560, 387.197 306.362, 397.195 306.165, 407.193 305.967, 417.191 305.769, 427.189 305.571, 437.187 305.373, 447.185 305.175, 457.183 304.978, 467.181 304.780, 477.179 304.582, 487.177 304.384, 497.175 304.186, 507.173 303.989, 517.171 303.791, 527.169 303.593, 537.167 303.395, 547.165 303.197, 557.163 302.999, 567.161 302.802, 577.159 302.604, 587.158 302.406, 597.156 302.208, 607.154 302.010, 617.152 301.812, 627.150 301.615, 637.148 301.417, 647.146 301.219, 657.144 301.021, 667.142 300.823, 677.140 300.626, 687.138 300.428, 697.136 300.230, 707.134 300.032, 717.132 299.834, 727.130 299.636, 737.128 299.439, 747.126 299.241, 757.124 299.043, 767.122 298.845, 777.120 298.647, 787.118 298.450, 797.116 298.252, 807.115 298.054, 817.113 297.856, 827.111 297.658, 837.109 297.460, 847.107 297.263, 857.105 297.065, 867.103 296.867, 877.101 296.669, 887.099 296.476, 896.880 296.278, 906.879 296.080, 916.877 295.882, 926.875 295.684, 936.873 295.486, 946.871 295.289, 956.869 295.091, 966.867 294.893, 976.865 294.695, 986.863 294.497, 996.861 294.300, 1006.859 294.102, 1016.857 293.904, 1026.855 293.694, 1037.459 " fill="none" stroke="rgb(157, 20, 170)" stroke-linecap="butt" stroke-linejoin="round" stroke-opacity="1.0" stroke-width="3.0" />
            <path d=" M 801.762, 316.010 791.793, 315.225 781.824, 314.441 771.855, 313.656 761.886, 312.872 751.916, 312.088 741.947, 311.303 731.978, 310.519 722.009, 309.735 712.040, 308.950 702.070, 308.166 692.101, 307.381 682.132, 306.597 672.163, 305.813 662.194, 305.028 652.224, 304.244 642.255, 303.460 632.286, 302.675 622.317, 301.891 612.348, 301.106 602.378, 300.322 592.409, 299.538 582.440, 298.753 572.471, 297.969 562.502, 297.185 552.533, 296.400 542.563, 295.616 532.594, 294.831 522.625, 294.047 512.656, 293.263 502.687, 292.478 492.717, 291.694 482.748, 290.910 472.779, 290.125 462.810, 289.341 452.841, 288.556 442.871, 287.772 432.902, 286.988 422.933, 286.203 412.964, 285.419 402.995, 284.635 393.026, 283.850 383.056, 283.066 373.087, 282.281 363.118, 281.497 353.149, 280.713 343.180, 279.928 333.210, 279.144 323.241, 278.359 308.736, 277.218 298.802, 276.074 288.868, 274.930 278.933, 273.785 268.999, 272.641 259.065, 271.496 249.130, 270.352 239.196, 269.208 229.262, 268.063 219.327, 266.919 209.393, 265.775 199.459, 264.630 189.525, 263.486 179.590, 262.342 169.656, 261.197 159.722, 260.053 149.787, 258.909 139.853, 257.764 129.919, 256.620 119.984, 255.476 110.050, 254.331 100.116, 253.187 90.181, 252.043 80.247, 250.898 70.313, 249.754 60.379, 248.610 50.444, 247.465 40.510, 246.321 30.576, 245.177 20.641, 244.032 10.707, 242.888 0.773, 241.744 -9.162, 240.599 -19.096, 239.455 -29.030, 238.311 -38.965, 237.166 -48.899, 236.022 -58.833, 234.878 -68.767, 233.733 -78.702, 232.589 -88.636, 231.444 -96.908, 230.492 " fill="none" stroke="rgb(157, 20, 170)" stroke-linecap="butt" stroke-linejoin="round" stroke-opacity="1.0" stroke-width="3.0" />
            <path d=" M 1006.177, 532.812 1002.805, 533.191 992.868, 534.308 982.930, 535.425 972.993, 536.542 963.055, 537.659 953.118, 538.776 943.180, 539.893 933.243, 541.010 923.306, 542.126 921.108, 542.373 " fill="none" stroke="rgb(157, 20, 170)" stroke-linecap="butt" stroke-linejoin="round" stroke-opacity="1.0" stroke-width="3.0" />
            <path d=" M 1002.938, 532.211 992.999, 533.319 983.061, 534.427 973.123, 535.535 963.184, 536.643 953.246, 537.751 943.307, 538.859 933.369, 539.967 923.430, 541.074 917.726, 541.710 921.108, 542.373 919.895, 552.300 918.682, 562.226 917.469, 572.152 916.256, 582.078 915.043, 592.004 913.830, 601.930 912.617, 611.857 911.404, 621.783 910.191, 631.709 908.978, 641.635 907.765, 651.561 906.552, 661.487 905.340, 671.414 904.127, 681.340 902.914, 691.266 901.701, 701.192 901.035, 706.640 900.821, 708.390 " fill="none" stroke="rgb(157, 20, 170)" stroke-linecap="butt" stroke-linejoin="round" stroke-opacity="1.0" stroke-width="3.0" />
            <path d=" M 432.294, 988.503 431.850, 998.493 431.406, 1008.484 430.962, 1018.474 430.518, 1028.464 430.075, 1038.454 429.631, 1048.444 429.187, 1058.434 428.743, 1068.424 428.299, 1078.415 427.855, 1088.405 427.411, 1098.395 426.968, 1108.385 426.524, 1118.375 426.080, 1128.365 425.636, 1138.355 425.192, 1148.346 424.748, 1158.336 424.304, 1168.326 423.861, 1178.316 423.417, 1188.306 422.973, 1198.296 422.486, 1209.264 " fill="none" stroke="rgb(157, 20, 170)" stroke-linecap="butt" stroke-linejoin="round" stroke-opacity="1.0" stroke-width="3.0" />
            <path d=" M 719.345, 1105.051 718.371, 1115.003 717.397, 1124.956 716.423, 1134.908 715.449, 1144.861 714.470, 1154.859 " fill="none" stroke="rgb(157, 20, 170)" stroke-linecap="butt" stroke-linejoin="round" stroke-opacity="1.0" stroke-width="3.0" />
            <path d=" M 773.781, 1115.039 772.707, 1124.981 771.633, 1134.923 770.559, 1144.866 769.485, 1154.808 768.411, 1164.750 767.337, 1174.692 766.263, 1184.634 765.189, 1194.576 764.115, 1204.518 763.041, 1214.461 761.967, 1224.403 761.094, 1232.492 " fill="none" stroke="rgb(157, 20, 170)" stroke-linecap="butt" stroke-linejoin="round" stroke-opacity="1.0" stroke-width="3.0" />
        </g>
    </g>
    <g id="fressstylelayer_hidden lines" inkscape:groupmode="lineset" inkscape:label="fressstylelayer_hidden lines" xmlns:inkscape="http://www.inkscape.org/namespaces/inkscape">
        <g id="strokes" inkscape:groupmode="layer" inkscape:label="strokes" xmlns:inkscape="http://www.inkscape.org/namespaces/inkscape">
            <path d=" M 990.508, 1145.788 981.336, 1141.803 972.164, 1137.819 962.993, 1133.834 953.821, 1129.850 944.649, 1125.865 935.987, 1122.102 926.815, 1118.118 926.418, 1117.945 " fill="none" stroke="rgb(0, 119, 0)" stroke-linecap="butt" stroke-linejoin="round" stroke-opacity="1.0" stroke-width="3.0" />
            <path d=" M 780.493, 1220.247 788.949, 1214.909 797.406, 1209.572 805.862, 1204.234 814.319, 1198.897 822.775, 1193.559 831.232, 1188.222 839.688, 1182.884 847.620, 1177.878 856.076, 1172.541 864.532, 1167.203 872.989, 1161.866 881.445, 1156.528 889.902, 1151.190 898.358, 1145.853 906.815, 1140.515 915.271, 1135.178 923.727, 1129.840 932.184, 1124.503 935.987, 1122.102 944.444, 1116.765 952.900, 1111.427 961.356, 1106.090 969.813, 1100.752 978.269, 1095.415 982.748, 1092.588 984.190, 1082.692 985.632, 1072.797 986.708, 1065.411 987.403, 1060.639 988.845, 1050.743 990.287, 1040.848 991.729, 1030.952 993.171, 1021.057 994.612, 1011.161 996.054, 1001.266 997.251, 993.054 997.939, 988.333 989.146, 993.097 980.354, 997.860 975.929, 1000.257 972.704, 1002.005 967.198, 1004.988 965.805, 1014.890 964.413, 1024.793 963.020, 1034.695 961.628, 1044.598 960.867, 1050.010 952.215, 1055.025 943.564, 1060.041 934.913, 1065.056 933.503, 1065.873 932.689, 1071.852 931.341, 1081.761 929.993, 1091.669 928.645, 1101.578 927.297, 1111.487 926.418, 1117.945 917.927, 1123.228 909.436, 1128.510 900.946, 1133.793 892.455, 1139.076 883.964, 1144.358 875.473, 1149.641 866.982, 1154.924 858.492, 1160.206 850.001, 1165.489 849.072, 1166.067 840.581, 1171.349 832.090, 1176.632 823.600, 1181.914 815.109, 1187.197 806.618, 1192.480 798.127, 1197.762 789.636, 1203.045 781.146, 1208.328 772.655, 1213.610 770.302, 1215.074 " fill="none" stroke="rgb(0, 119, 0)" stroke-linecap="butt" stroke-linejoin="round" stroke-opacity="1.0" stroke-width="3.0" />
            <path d=" M 933.503, 1065.873 942.750, 1069.680 951.997, 1073.486 961.245, 1077.293 964.778, 1078.747 " fill="none" stroke="rgb(0, 119, 0)" stroke-linecap="butt" stroke-linejoin="round" stroke-opacity="1.0" stroke-width="3.0" />
            <path d=" M 964.358, 877.932 963.001, 887.840 961.643, 897.747 960.286, 907.655 958.929, 917.562 958.068, 923.850 966.996, 926.969 976.437, 930.266 982.555, 932.404 985.427, 933.407 984.020, 943.307 983.341, 948.085 981.935, 957.985 980.528, 967.886 979.122, 977.786 978.637, 981.198 977.231, 991.098 975.929, 1000.257 975.246, 1005.066 973.840, 1014.966 972.433, 1024.867 971.026, 1034.767 969.620, 1044.668 968.430, 1053.039 967.024, 1062.940 965.617, 1072.841 964.778, 1078.747 973.322, 1073.551 981.867, 1068.355 986.708, 1065.411 991.716, 1062.366 993.166, 1052.472 994.615, 1042.577 996.065, 1032.683 997.515, 1022.789 998.965, 1012.894 1000.415, 1003.000 1001.865, 993.106 1002.274, 990.312 1003.724, 980.417 1005.174, 970.523 1006.624, 960.629 1007.218, 956.574 1008.668, 946.680 1010.118, 936.786 1011.568, 926.891 1012.536, 920.281 1003.069, 917.060 994.372, 914.100 985.569, 911.105 984.488, 918.746 983.086, 928.648 982.555, 932.404 981.153, 942.305 980.479, 947.067 979.078, 956.968 977.677, 966.870 976.275, 976.771 975.797, 980.148 974.396, 990.049 972.994, 999.950 972.704, 1002.005 972.021, 1006.826 975.246, 1005.066 984.024, 1000.274 992.801, 995.483 997.251, 993.054 1002.274, 990.312 1011.052, 985.520 1014.607, 983.580 " fill="none" stroke="rgb(0, 119, 0)" stroke-linecap="butt" stroke-linejoin="round" stroke-opacity="1.0" stroke-width="3.0" />
            <path d=" M 111.014, 1023.270 120.558, 1020.285 130.102, 1017.300 139.646, 1014.315 149.190, 1011.330 158.734, 1008.345 168.279, 1005.360 177.823, 1002.375 187.367, 999.390 196.911, 996.405 206.455, 993.420 210.424, 992.179 219.968, 989.194 229.512, 986.209 239.056, 983.224 248.600, 980.239 258.144, 977.254 267.688, 974.269 277.232, 971.284 286.776, 968.299 296.321, 965.314 305.865, 962.329 315.409, 959.344 324.953, 956.359 334.497, 953.374 344.041, 950.389 353.585, 947.404 363.129, 944.419 372.673, 941.434 382.217, 938.449 384.517, 937.730 394.061, 934.745 403.605, 931.760 413.150, 928.775 422.694, 925.790 432.238, 922.805 441.782, 919.820 451.326, 916.835 461.207, 913.744 " fill="none" stroke="rgb(0, 119, 0)" stroke-linecap="butt" stroke-linejoin="round" stroke-opacity="1.0" stroke-width="3.0" />
            <path d=" M 479.808, 533.769 479.525, 539.550 479.036, 549.538 478.547, 559.526 478.058, 569.514 477.569, 579.502 477.080, 589.490 476.591, 599.478 476.102, 609.466 475.613, 619.454 475.124, 629.442 474.635, 639.430 474.146, 649.418 473.657, 659.406 473.168, 669.394 472.680, 679.382 472.191, 689.370 471.702, 699.358 471.213, 709.346 470.724, 719.335 470.235, 729.323 469.746, 739.311 469.257, 749.299 468.768, 759.287 468.279, 769.275 467.790, 779.263 467.301, 789.251 466.812, 799.239 466.323, 809.227 465.835, 819.215 465.346, 829.203 464.857, 839.191 464.368, 849.179 463.879, 859.167 463.390, 869.155 462.901, 879.143 462.412, 889.131 461.923, 899.119 461.434, 909.107 461.207, 913.744 470.383, 917.720 479.558, 921.697 488.734, 925.673 497.909, 929.649 507.085, 933.625 516.260, 937.602 525.436, 941.578 534.611, 945.554 543.786, 949.530 552.962, 953.507 562.137, 957.483 571.313, 961.459 580.488, 965.435 589.664, 969.411 598.839, 973.388 608.015, 977.364 617.190, 981.340 626.366, 985.316 635.541, 989.293 644.717, 993.269 647.189, 994.340 " fill="none" stroke="rgb(0, 119, 0)" stroke-linecap="butt" stroke-linejoin="round" stroke-opacity="1.0" stroke-width="3.0" />
            <path d=" M 650.066, 959.671 649.239, 969.637 648.412, 979.602 647.585, 989.568 647.189, 994.340 637.940, 998.143 628.692, 1001.947 619.443, 1005.750 610.195, 1009.553 600.946, 1013.356 591.698, 1017.159 582.449, 1020.962 573.200, 1024.765 563.952, 1028.568 554.703, 1032.371 545.455, 1036.174 541.944, 1037.618 532.695, 1041.421 530.079, 1042.497 520.830, 1046.300 511.581, 1050.103 502.333, 1053.906 493.084, 1057.710 483.836, 1061.513 474.587, 1065.316 465.338, 1069.119 462.498, 1070.287 " fill="none" stroke="rgb(0, 119, 0)" stroke-linecap="butt" stroke-linejoin="round" stroke-opacity="1.0" stroke-width="3.0" />
            <path d=" M 563.030, 1140.934 572.024, 1136.561 573.918, 1135.640 574.605, 1135.306 582.062, 1131.681 573.166, 1127.113 564.270, 1122.545 555.375, 1117.977 546.479, 1113.409 541.692, 1110.952 532.797, 1106.384 523.901, 1101.816 523.648, 1101.686 516.538, 1098.036 509.414, 1094.377 500.518, 1089.809 491.622, 1085.242 482.727, 1080.674 473.831, 1076.106 470.403, 1074.346 462.498, 1070.287 462.119, 1077.791 471.000, 1082.386 479.882, 1086.982 488.763, 1091.578 497.644, 1096.173 506.526, 1100.769 515.407, 1105.364 523.170, 1109.381 532.052, 1113.977 533.490, 1114.721 542.371, 1119.317 551.253, 1123.912 560.134, 1128.508 569.016, 1133.103 573.918, 1135.640 582.800, 1140.236 591.681, 1144.831 600.563, 1149.427 609.444, 1154.022 618.326, 1158.618 627.207, 1163.214 636.089, 1167.809 644.970, 1172.405 653.851, 1177.000 654.685, 1177.432 663.567, 1182.027 664.409, 1182.464 " fill="none" stroke="rgb(0, 119, 0)" stroke-linecap="butt" stroke-linejoin="round" stroke-opacity="1.0" stroke-width="3.0" />
            <path d=" M 582.062, 1131.681 582.586, 1124.519 583.315, 1114.546 584.044, 1104.572 584.773, 1094.599 585.034, 1091.034 " fill="none" stroke="rgb(0, 119, 0)" stroke-linecap="butt" stroke-linejoin="round" stroke-opacity="1.0" stroke-width="3.0" />
            <path d=" M 605.808, 1136.360 596.899, 1131.817 592.022, 1129.331 583.114, 1124.788 582.586, 1124.519 573.677, 1119.977 564.768, 1115.434 555.859, 1110.892 549.206, 1107.499 540.297, 1102.956 531.388, 1098.414 524.082, 1094.689 516.538, 1098.036 508.998, 1101.381 " fill="none" stroke="rgb(0, 119, 0)" stroke-linecap="butt" stroke-linejoin="round" stroke-opacity="1.0" stroke-width="3.0" />
            <path d=" M 714.470, 1154.859 705.501, 1150.437 696.533, 1146.014 687.564, 1141.591 678.595, 1137.169 669.626, 1132.746 660.657, 1128.324 659.037, 1127.525 650.068, 1123.102 641.099, 1118.680 632.130, 1114.257 623.162, 1109.835 614.193, 1105.412 608.429, 1102.570 599.460, 1098.147 594.540, 1095.722 585.571, 1091.299 585.034, 1091.034 575.948, 1095.210 566.861, 1099.385 557.775, 1103.561 549.206, 1107.499 541.692, 1110.952 534.182, 1114.403 533.490, 1114.721 524.404, 1118.897 522.527, 1119.759 " fill="none" stroke="rgb(0, 119, 0)" stroke-linecap="butt" stroke-linejoin="round" stroke-opacity="1.0" stroke-width="3.0" />
            <path d=" M 540.438, 950.305 531.266, 946.321 522.094, 942.336 512.922, 938.351 506.997, 935.777 497.518, 938.964 488.039, 942.151 478.561, 945.337 469.082, 948.524 459.604, 951.711 450.125, 954.898 440.646, 958.085 433.539, 960.474 424.468, 956.266 415.397, 952.057 406.326, 947.848 397.255, 943.639 388.183, 939.431 384.517, 937.730 375.446, 933.521 366.375, 929.312 357.304, 925.103 348.233, 920.894 339.161, 916.686 330.090, 912.477 321.019, 908.268 311.948, 904.059 302.877, 899.850 296.476, 896.880 287.404, 892.672 278.333, 888.463 269.262, 884.254 260.191, 880.045 251.120, 875.837 242.049, 871.628 232.977, 867.419 223.906, 863.210 214.835, 859.001 205.764, 854.793 196.693, 850.584 187.622, 846.375 178.550, 842.166 169.479, 837.957 160.408, 833.749 151.337, 829.540 142.266, 825.331 133.195, 821.122 124.123, 816.914 115.052, 812.705 108.197, 809.524 108.329, 819.523 108.460, 829.522 108.592, 839.521 108.724, 849.521 108.856, 859.520 108.988, 869.519 109.119, 879.518 109.251, 889.517 109.383, 899.516 109.515, 909.515 109.646, 919.514 109.778, 929.514 109.884, 937.508 " fill="none" stroke="rgb(0, 119, 0)" stroke-linecap="butt" stroke-linejoin="round" stroke-opacity="1.0" stroke-width="3.0" />
            <path d=" M 433.539, 960.474 433.095, 970.465 432.651, 980.455 432.294, 988.503 " fill="none" stroke="rgb(0, 119, 0)" stroke-linecap="butt" stroke-linejoin="round" stroke-opacity="1.0" stroke-width="3.0" />
            <path d=" M 551.708, 1042.278 549.760, 1041.348 541.944, 1037.618 540.524, 1036.941 531.499, 1032.634 522.474, 1028.327 513.587, 1024.086 504.286, 1027.758 501.670, 1028.791 " fill="none" stroke="rgb(0, 119, 0)" stroke-linecap="butt" stroke-linejoin="round" stroke-opacity="1.0" stroke-width="3.0" />
            <path d=" M 462.119, 1077.791 470.403, 1074.346 479.637, 1070.506 488.870, 1066.667 498.104, 1062.828 507.337, 1058.988 516.571, 1055.149 525.805, 1051.309 535.038, 1047.470 537.910, 1046.275 547.143, 1042.436 549.760, 1041.348 558.993, 1037.509 568.227, 1033.669 577.460, 1029.830 586.694, 1025.990 595.927, 1022.151 605.161, 1018.311 614.394, 1014.472 623.628, 1010.632 632.862, 1006.793 642.095, 1002.953 651.329, 999.114 660.562, 995.275 669.796, 991.435 679.029, 987.596 688.263, 983.756 697.496, 979.917 704.110, 977.167 " fill="none" stroke="rgb(0, 119, 0)" stroke-linecap="butt" stroke-linejoin="round" stroke-opacity="1.0" stroke-width="3.0" />
            <path d=" M 712.865, 882.942 712.142, 890.723 711.217, 900.681 710.850, 904.628 709.925, 914.585 709.000, 924.542 708.075, 934.499 707.150, 944.456 706.224, 954.413 705.299, 964.370 704.374, 974.328 704.110, 977.167 713.349, 980.994 722.588, 984.820 731.827, 988.648 741.065, 992.475 750.304, 996.302 759.543, 1000.129 768.781, 1003.956 778.020, 1007.783 787.259, 1011.610 796.498, 1015.437 805.736, 1019.264 814.975, 1023.091 824.214, 1026.918 833.453, 1030.745 842.691, 1034.572 851.930, 1038.399 861.169, 1042.226 870.407, 1046.053 879.646, 1049.880 888.885, 1053.707 898.124, 1057.534 907.362, 1061.361 916.601, 1065.188 925.840, 1069.015 932.689, 1071.852 941.928, 1075.679 951.167, 1079.506 960.406, 1083.333 969.644, 1087.160 978.883, 1090.987 982.748, 1092.588 " fill="none" stroke="rgb(0, 119, 0)" stroke-linecap="butt" stroke-linejoin="round" stroke-opacity="1.0" stroke-width="3.0" />
            <path d=" M 787.545, 1107.526 782.327, 1105.144 774.385, 1109.447 765.300, 1105.268 760.590, 1103.102 751.505, 1098.924 742.420, 1094.746 733.335, 1090.567 724.250, 1086.389 721.304, 1085.034 712.367, 1089.520 703.430, 1094.006 699.750, 1095.853 " fill="none" stroke="rgb(0, 119, 0)" stroke-linecap="butt" stroke-linejoin="round" stroke-opacity="1.0" stroke-width="3.0" />
            <path d=" M 774.385, 1109.447 773.781, 1115.039 " fill="none" stroke="rgb(0, 119, 0)" stroke-linecap="butt" stroke-linejoin="round" stroke-opacity="1.0" stroke-width="3.0" />
            <path d=" M 721.304, 1085.034 720.330, 1094.987 719.345, 1105.051 " fill="none" stroke="rgb(0, 119, 0)" stroke-linecap="butt" stroke-linejoin="round" stroke-opacity="1.0" stroke-width="3.0" />
            <path d=" M 675.352, 896.012 684.795, 892.722 694.238, 889.432 703.681, 886.142 712.865, 882.942 722.244, 886.410 731.624, 889.877 741.004, 893.345 750.383, 896.813 759.763, 900.280 769.142, 903.748 778.522, 907.215 787.901, 910.683 797.281, 914.151 806.660, 917.618 816.040, 921.086 825.419, 924.553 834.799, 928.021 844.178, 931.489 853.558, 934.956 862.938, 938.424 872.317, 941.891 881.697, 945.359 891.076, 948.827 900.456, 952.294 909.835, 955.762 919.215, 959.229 928.594, 962.697 937.974, 966.165 947.353, 969.632 956.733, 973.100 966.112, 976.567 975.797, 980.148 978.637, 981.198 988.017, 984.665 997.396, 988.133 997.939, 988.333 " fill="none" stroke="rgb(0, 119, 0)" stroke-linecap="butt" stroke-linejoin="round" stroke-opacity="1.0" stroke-width="3.0" />
            <path d=" M 793.320, 401.549 783.423, 400.111 773.527, 398.673 763.631, 397.236 753.735, 395.798 743.839, 394.360 733.943, 392.923 730.168, 392.374 720.169, 392.206 710.171, 392.037 700.172, 391.869 690.174, 391.700 680.175, 391.531 670.177, 391.363 660.178, 391.194 650.179, 391.025 640.181, 390.857 630.182, 390.688 620.184, 390.520 610.185, 390.351 600.186, 390.182 590.188, 390.014 580.189, 389.845 570.191, 389.676 561.499, 389.530 571.379, 391.070 581.260, 392.610 591.141, 394.150 601.022, 395.690 610.902, 397.230 620.783, 398.770 630.664, 400.310 640.544, 401.850 650.425, 403.390 660.306, 404.930 670.186, 406.470 680.067, 408.010 689.948, 409.550 699.829, 411.090 709.709, 412.630 719.590, 414.170 728.125, 415.500 738.006, 417.040 747.887, 418.580 757.767, 420.120 767.648, 421.660 777.529, 423.200 787.409, 424.740 790.976, 425.296 " fill="none" stroke="rgb(0, 119, 0)" stroke-linecap="butt" stroke-linejoin="round" stroke-opacity="1.0" stroke-width="3.0" />
            <path d=" M 768.997, 906.629 759.621, 903.150 750.245, 899.672 744.520, 897.548 735.144, 894.069 725.768, 890.591 719.297, 888.190 712.142, 890.723 702.715, 894.061 693.288, 897.398 692.528, 897.667 " fill="none" stroke="rgb(0, 119, 0)" stroke-linecap="butt" stroke-linejoin="round" stroke-opacity="1.0" stroke-width="3.0" />
            <path d=" M 1002.938, 532.211 1002.805, 533.191 1001.462, 543.101 1000.119, 553.010 998.776, 562.920 997.433, 572.829 996.090, 582.738 994.747, 592.648 993.404, 602.557 992.061, 612.467 990.717, 622.376 989.374, 632.285 988.031, 642.195 986.688, 652.104 985.345, 662.014 984.002, 671.923 982.659, 681.832 982.071, 686.172 972.375, 688.621 962.680, 691.070 952.984, 693.519 943.289, 695.968 933.593, 698.417 923.898, 700.866 914.202, 703.315 904.507, 705.763 901.035, 706.640 897.560, 707.518 " fill="none" stroke="rgb(0, 119, 0)" stroke-linecap="butt" stroke-linejoin="round" stroke-opacity="1.0" stroke-width="3.0" />
            <path d=" M 958.068, 923.850 967.141, 919.645 976.214, 915.440 978.911, 914.191 985.569, 911.105 " fill="none" stroke="rgb(0, 119, 0)" stroke-linecap="butt" stroke-linejoin="round" stroke-opacity="1.0" stroke-width="3.0" />
            <path d=" M 967.696, 481.911 957.834, 480.257 947.972, 478.603 938.110, 476.949 928.247, 475.294 918.385, 473.640 908.523, 471.986 898.661, 470.332 888.798, 468.678 878.936, 467.024 869.074, 465.370 859.211, 463.716 849.349, 462.062 839.487, 460.408 829.625, 458.754 819.762, 457.100 809.900, 455.446 800.038, 453.792 790.176, 452.138 784.122, 451.122 774.260, 449.468 764.397, 447.814 755.186, 446.269 745.323, 444.615 735.461, 442.961 725.842, 441.348 724.281, 441.086 714.283, 441.284 704.285, 441.481 694.287, 441.679 692.407, 441.716 682.409, 441.914 674.773, 442.065 684.629, 443.760 692.130, 445.050 702.128, 444.828 712.126, 444.606 722.123, 444.384 723.994, 444.343 725.580, 444.308 735.440, 445.975 745.300, 447.642 754.906, 449.266 764.766, 450.933 774.626, 452.600 783.825, 454.155 793.685, 455.822 803.545, 457.489 813.405, 459.156 823.265, 460.824 833.125, 462.491 842.985, 464.158 852.845, 465.825 862.705, 467.492 872.565, 469.159 882.425, 470.826 892.285, 472.493 902.145, 474.160 912.005, 475.827 921.865, 477.495 931.726, 479.162 941.586, 480.829 951.446, 482.496 961.306, 484.163 967.277, 485.172 " fill="none" stroke="rgb(0, 119, 0)" stroke-linecap="butt" stroke-linejoin="round" stroke-opacity="1.0" stroke-width="3.0" />
            <path d=" M 1041.650, 968.818 1032.228, 965.467 1022.806, 962.117 1018.047, 960.425 1008.625, 957.075 1007.218, 956.574 997.796, 953.224 988.374, 949.874 983.341, 948.085 980.479, 947.067 971.057, 943.717 961.635, 940.366 952.213, 937.016 942.791, 933.666 933.369, 930.316 923.947, 926.965 914.525, 923.615 905.103, 920.265 895.681, 916.915 886.258, 913.564 876.836, 910.214 867.414, 906.864 857.992, 903.514 848.570, 900.163 839.148, 896.813 829.726, 893.463 820.304, 890.113 810.882, 886.762 801.460, 883.412 792.038, 880.062 782.615, 876.712 773.193, 873.361 763.771, 870.011 754.349, 866.661 744.927, 863.311 735.505, 859.960 726.083, 856.610 716.661, 853.260 707.239, 849.910 697.817, 846.559 688.848, 843.370 " fill="none" stroke="rgb(0, 119, 0)" stroke-linecap="butt" stroke-linejoin="round" stroke-opacity="1.0" stroke-width="3.0" />
            <path d=" M 605.747, 869.411 615.289, 866.421 624.831, 863.431 634.374, 860.440 643.916, 857.450 653.459, 854.460 663.001, 851.470 672.544, 848.480 682.086, 845.489 688.848, 843.370 689.725, 833.409 690.603, 823.448 691.480, 813.486 692.358, 803.525 693.235, 793.563 694.112, 783.602 694.990, 773.640 695.867, 763.679 696.745, 753.718 697.622, 743.756 698.499, 733.795 699.377, 723.833 700.254, 713.872 701.131, 703.910 702.009, 693.949 702.886, 683.987 703.764, 674.026 704.641, 664.065 705.518, 654.103 706.396, 644.142 707.273, 634.180 708.151, 624.219 709.028, 614.257 709.905, 604.296 710.783, 594.335 711.660, 584.373 712.538, 574.412 713.415, 564.450 714.292, 554.489 715.170, 544.527 716.047, 534.566 716.924, 524.604 717.802, 514.643 718.679, 504.682 719.557, 494.720 720.434, 484.759 721.311, 474.797 722.189, 464.836 723.066, 454.874 723.994, 444.343 724.281, 441.086 " fill="none" stroke="rgb(0, 119, 0)" stroke-linecap="butt" stroke-linejoin="round" stroke-opacity="1.0" stroke-width="3.0" />
            <path d=" M 991.716, 1062.366 987.403, 1060.639 978.120, 1056.920 968.837, 1053.202 968.430, 1053.039 960.867, 1050.010 " fill="none" stroke="rgb(0, 119, 0)" stroke-linecap="butt" stroke-linejoin="round" stroke-opacity="1.0" stroke-width="3.0" />
            <path d=" M 967.198, 1004.988 972.021, 1006.826 " fill="none" stroke="rgb(0, 119, 0)" stroke-linecap="butt" stroke-linejoin="round" stroke-opacity="1.0" stroke-width="3.0" />
            <path d=" M 405.143, 273.446 404.792, 283.440 404.442, 293.434 404.091, 303.427 403.741, 313.421 403.390, 323.415 403.039, 333.409 402.689, 343.403 402.338, 353.397 401.988, 363.391 401.637, 373.384 401.287, 383.378 400.936, 393.372 400.586, 403.366 400.235, 413.360 399.884, 423.354 399.534, 433.348 399.183, 443.341 398.833, 453.335 398.482, 463.329 398.132, 473.323 397.781, 483.317 397.431, 493.311 397.080, 503.305 396.729, 513.298 396.379, 523.292 396.028, 533.286 395.678, 543.280 395.327, 553.274 394.977, 563.268 394.626, 573.261 394.276, 583.255 393.925, 593.249 393.574, 603.243 393.224, 613.237 392.873, 623.231 392.523, 633.225 392.172, 643.218 391.822, 653.212 391.471, 663.206 391.121, 673.200 390.770, 683.194 390.419, 693.188 390.069, 703.182 389.718, 713.175 389.368, 723.169 389.017, 733.163 388.667, 743.157 388.492, 748.131 " fill="none" stroke="rgb(0, 119, 0)" stroke-linecap="butt" stroke-linejoin="round" stroke-opacity="1.0" stroke-width="3.0" />
            <path d=" M 396.649, 751.081 388.492, 748.131 378.686, 750.091 368.880, 752.050 359.074, 754.010 349.268, 755.970 339.462, 757.930 329.656, 759.889 319.850, 761.849 310.043, 763.809 300.237, 765.769 290.431, 767.728 280.625, 769.688 270.819, 771.648 261.013, 773.607 251.207, 775.567 241.401, 777.527 231.595, 779.487 221.789, 781.446 211.983, 783.406 202.176, 785.366 192.370, 787.326 182.564, 789.285 172.758, 791.245 162.952, 793.205 153.146, 795.165 143.340, 797.124 133.534, 799.084 123.728, 801.044 113.922, 803.003 104.116, 804.963 94.309, 806.923 84.503, 808.883 74.697, 810.842 64.891, 812.802 55.085, 814.762 45.279, 816.722 35.473, 818.681 25.667, 820.641 15.861, 822.601 6.055, 824.561 -3.751, 826.520 -13.558, 828.480 -23.364, 830.440 -33.170, 832.399 -42.976, 834.359 -52.782, 836.319 -62.588, 838.279 -69.910, 839.742 " fill="none" stroke="rgb(0, 119, 0)" stroke-linecap="butt" stroke-linejoin="round" stroke-opacity="1.0" stroke-width="3.0" />
            <path d=" M 404.372, 539.463 404.007, 549.456 403.642, 559.450 403.278, 569.443 402.913, 579.437 402.548, 589.430 402.183, 599.423 401.819, 609.417 401.454, 619.410 401.089, 629.403 400.725, 639.397 400.360, 649.390 399.995, 659.383 399.630, 669.377 399.266, 679.370 398.901, 689.363 398.536, 699.357 398.172, 709.350 397.807, 719.343 397.442, 729.337 397.077, 739.330 396.649, 751.081 386.848, 753.067 377.047, 755.053 367.246, 757.039 357.445, 759.024 347.644, 761.010 337.843, 762.996 328.043, 764.982 318.242, 766.967 308.441, 768.953 298.640, 770.939 288.839, 772.924 279.038, 774.910 269.237, 776.896 259.436, 778.882 249.636, 780.867 239.835, 782.853 230.034, 784.839 220.233, 786.825 210.432, 788.810 200.631, 790.796 190.830, 792.782 181.030, 794.768 171.229, 796.753 161.428, 798.739 151.627, 800.725 141.826, 802.711 132.025, 804.696 122.224, 806.682 112.424, 808.668 108.197, 809.524 " fill="none" stroke="rgb(0, 119, 0)" stroke-linecap="butt" stroke-linejoin="round" stroke-opacity="1.0" stroke-width="3.0" />
            <path d=" M 985.201, 686.953 982.071, 686.172 " fill="none" stroke="rgb(0, 119, 0)" stroke-linecap="butt" stroke-linejoin="round" stroke-opacity="1.0" stroke-width="3.0" />
            <path d=" M 672.286, 931.440 673.148, 921.477 674.010, 911.514 674.872, 901.551 675.352, 896.012 666.010, 892.442 656.669, 888.872 647.328, 885.302 637.987, 881.733 628.646, 878.163 619.305, 874.593 609.964, 871.023 605.747, 869.411 606.484, 859.438 607.221, 849.466 607.642, 843.763 " fill="none" stroke="rgb(0, 119, 0)" stroke-linecap="butt" stroke-linejoin="round" stroke-opacity="1.0" stroke-width="3.0" />
            <path d=" M 643.479, 833.152 644.277, 823.184 645.075, 813.216 645.872, 803.248 646.670, 793.280 647.467, 783.312 648.265, 773.344 649.063, 763.375 649.860, 753.407 650.658, 743.439 651.456, 733.471 652.253, 723.503 653.051, 713.535 653.848, 703.567 654.646, 693.598 655.444, 683.630 656.241, 673.662 657.039, 663.694 657.837, 653.726 658.634, 643.758 659.432, 633.790 660.230, 623.821 661.027, 613.853 661.825, 603.885 662.622, 593.917 663.420, 583.949 664.218, 573.981 665.015, 564.013 665.813, 554.044 666.611, 544.076 667.408, 534.108 668.206, 524.140 669.003, 514.172 669.801, 504.204 670.599, 494.236 671.396, 484.268 672.194, 474.299 672.992, 464.331 673.789, 454.363 674.773, 442.065 " fill="none" stroke="rgb(0, 119, 0)" stroke-linecap="butt" stroke-linejoin="round" stroke-opacity="1.0" stroke-width="3.0" />
            <path d=" M 582.193, 834.357 591.573, 837.824 600.952, 841.290 607.642, 843.763 617.231, 840.924 626.819, 838.085 636.408, 835.246 643.479, 833.152 634.065, 829.779 624.652, 826.405 615.238, 823.032 605.824, 819.659 596.410, 816.285 586.996, 812.912 577.583, 809.538 568.169, 806.165 558.755, 802.791 549.341, 799.418 541.780, 796.708 " fill="none" stroke="rgb(0, 119, 0)" stroke-linecap="butt" stroke-linejoin="round" stroke-opacity="1.0" stroke-width="3.0" />
            <path d=" M 578.068, 893.833 578.760, 883.857 579.451, 873.881 580.143, 863.905 580.835, 853.929 581.527, 843.953 582.193, 834.357 572.574, 837.094 562.956, 839.832 561.092, 840.362 " fill="none" stroke="rgb(0, 119, 0)" stroke-linecap="butt" stroke-linejoin="round" stroke-opacity="1.0" stroke-width="3.0" />
            <path d=" M 655.571, 937.678 664.940, 934.182 672.286, 931.440 662.999, 927.732 653.711, 924.025 644.424, 920.318 635.136, 916.611 625.849, 912.904 616.561, 909.197 607.274, 905.490 597.986, 901.783 588.699, 898.076 579.411, 894.369 578.068, 893.833 568.555, 896.915 559.041, 899.997 557.130, 900.617 " fill="none" stroke="rgb(0, 119, 0)" stroke-linecap="butt" stroke-linejoin="round" stroke-opacity="1.0" stroke-width="3.0" />
            <path d=" M 559.647, 419.868 565.110, 419.849 575.110, 419.815 585.110, 419.781 595.110, 419.747 605.110, 419.713 615.110, 419.678 625.110, 419.644 635.110, 419.610 645.110, 419.576 655.110, 419.542 665.110, 419.507 675.110, 419.473 685.110, 419.439 694.256, 419.408 684.382, 417.827 674.507, 416.246 664.633, 414.666 654.759, 413.085 644.885, 411.504 635.010, 409.924 625.136, 408.343 615.262, 406.762 605.387, 405.182 595.513, 403.601 585.639, 402.021 575.765, 400.440 566.405, 398.942 560.928, 398.884 550.928, 398.777 540.929, 398.671 530.930, 398.565 520.930, 398.459 510.931, 398.353 500.931, 398.247 490.932, 398.141 480.932, 398.035 470.933, 397.929 460.934, 397.823 450.934, 397.717 440.935, 397.611 430.935, 397.505 428.605, 397.480 438.462, 399.164 448.319, 400.848 458.176, 402.532 468.033, 404.216 477.890, 405.900 487.748, 407.584 497.605, 409.268 507.462, 410.953 517.319, 412.636 527.176, 414.321 537.034, 416.005 546.891, 417.689 556.748, 419.373 559.647, 419.868 " fill="none" stroke="rgb(0, 119, 0)" stroke-linecap="butt" stroke-linejoin="round" stroke-opacity="1.0" stroke-width="3.0" />
            <path d=" M 694.256, 419.408 693.430, 429.373 692.604, 439.339 692.407, 441.716 692.130, 445.050 " fill="none" stroke="rgb(0, 119, 0)" stroke-linecap="butt" stroke-linejoin="round" stroke-opacity="1.0" stroke-width="3.0" />
            <path d=" M 483.880, 811.307 493.577, 808.862 503.273, 806.417 512.970, 803.972 522.666, 801.527 532.363, 799.082 541.780, 796.708 542.398, 786.727 543.016, 776.746 543.633, 766.765 544.251, 756.784 544.869, 746.804 545.487, 736.823 546.105, 726.842 546.723, 716.861 547.341, 706.880 547.959, 696.899 548.577, 686.918 549.195, 676.937 549.812, 666.956 550.430, 656.976 551.048, 646.995 551.666, 637.014 552.284, 627.033 552.902, 617.052 553.520, 607.071 554.138, 597.090 554.756, 587.109 555.373, 577.128 555.991, 567.147 556.609, 557.167 557.227, 547.186 557.845, 537.205 558.463, 527.224 559.081, 517.243 559.699, 507.262 560.317, 497.281 560.935, 487.300 561.552, 477.319 562.170, 467.339 562.788, 457.358 563.406, 447.377 564.024, 437.396 564.642, 427.415 565.110, 419.849 565.728, 409.869 566.346, 399.888 566.405, 398.942 " fill="none" stroke="rgb(0, 119, 0)" stroke-linecap="butt" stroke-linejoin="round" stroke-opacity="1.0" stroke-width="3.0" />
            <path d=" M 725.580, 444.308 725.842, 441.348 726.722, 431.387 727.602, 421.425 728.125, 415.500 729.005, 405.539 729.885, 395.578 730.168, 392.374 " fill="none" stroke="rgb(0, 119, 0)" stroke-linecap="butt" stroke-linejoin="round" stroke-opacity="1.0" stroke-width="3.0" />
            <path d=" M 561.499, 389.530 560.928, 398.884 560.319, 408.865 559.710, 418.846 559.647, 419.868 " fill="none" stroke="rgb(0, 119, 0)" stroke-linecap="butt" stroke-linejoin="round" stroke-opacity="1.0" stroke-width="3.0" />
            <path d=" M 428.605, 397.480 428.209, 407.472 427.814, 417.464 427.418, 427.457 427.023, 437.449 426.627, 447.441 426.232, 457.433 425.836, 467.425 425.441, 477.418 425.045, 487.410 424.650, 497.402 424.254, 507.394 423.859, 517.386 423.463, 527.378 423.041, 538.054 422.804, 544.038 " fill="none" stroke="rgb(0, 119, 0)" stroke-linecap="butt" stroke-linejoin="round" stroke-opacity="1.0" stroke-width="3.0" />
            <path d=" M 404.372, 539.463 414.077, 541.872 422.804, 544.038 432.773, 543.249 442.741, 542.461 452.710, 541.672 462.679, 540.883 472.648, 540.094 479.525, 539.550 489.493, 538.761 498.092, 538.081 488.359, 535.786 479.808, 533.769 469.836, 534.522 459.864, 535.275 449.893, 536.027 439.921, 536.780 429.949, 537.533 423.041, 538.054 413.069, 538.807 404.372, 539.463 " fill="none" stroke="rgb(0, 119, 0)" stroke-linecap="butt" stroke-linejoin="round" stroke-opacity="1.0" stroke-width="3.0" />
            <path d=" M 626.956, 926.084 636.224, 929.839 645.492, 933.595 654.760, 937.350 655.571, 937.678 654.737, 947.643 653.904, 957.609 653.854, 958.204 " fill="none" stroke="rgb(0, 119, 0)" stroke-linecap="butt" stroke-linejoin="round" stroke-opacity="1.0" stroke-width="3.0" />
            <path d=" M 621.552, 947.794 630.783, 951.639 640.014, 955.484 649.246, 959.329 650.066, 959.671 653.854, 958.204 644.618, 954.370 635.382, 950.536 626.146, 946.702 625.365, 946.378 " fill="none" stroke="rgb(0, 119, 0)" stroke-linecap="butt" stroke-linejoin="round" stroke-opacity="1.0" stroke-width="3.0" />
            <path d=" M 498.092, 538.081 497.573, 548.067 497.054, 558.054 496.534, 568.040 496.015, 578.026 495.495, 588.013 494.976, 598.000 494.456, 607.986 493.937, 617.972 493.417, 627.959 492.898, 637.945 492.378, 647.932 491.859, 657.919 491.340, 667.905 490.820, 677.891 490.301, 687.878 489.781, 697.865 489.262, 707.851 488.742, 717.837 488.223, 727.824 487.703, 737.810 487.184, 747.797 486.664, 757.784 486.145, 767.770 485.625, 777.756 485.106, 787.743 484.587, 797.729 484.067, 807.716 483.880, 811.307 493.240, 814.829 502.599, 818.351 511.958, 821.873 521.317, 825.395 530.677, 828.917 540.036, 832.439 549.395, 835.961 558.754, 839.483 561.092, 840.362 560.436, 850.341 559.779, 860.319 559.123, 870.298 558.467, 880.276 557.811, 890.255 557.130, 900.617 566.394, 904.383 575.657, 908.149 584.921, 911.915 594.185, 915.682 603.448, 919.448 612.712, 923.214 621.976, 926.980 623.134, 927.451 622.358, 937.421 621.583, 947.391 621.552, 947.794 625.365, 946.378 626.146, 936.408 626.928, 926.439 626.956, 926.084 623.134, 927.451 " fill="none" stroke="rgb(0, 119, 0)" stroke-linecap="butt" stroke-linejoin="round" stroke-opacity="1.0" stroke-width="3.0" />
            <path d=" M 985.427, 933.407 994.427, 929.049 1003.428, 924.691 1012.536, 920.281 " fill="none" stroke="rgb(0, 119, 0)" stroke-linecap="butt" stroke-linejoin="round" stroke-opacity="1.0" stroke-width="3.0" />
            <path d=" M 505.457, 962.661 506.029, 952.677 506.601, 942.694 506.997, 935.777 " fill="none" stroke="rgb(0, 119, 0)" stroke-linecap="butt" stroke-linejoin="round" stroke-opacity="1.0" stroke-width="3.0" />
            <path d=" M 512.983, 1034.250 513.576, 1024.267 513.587, 1024.086 " fill="none" stroke="rgb(0, 119, 0)" stroke-linecap="butt" stroke-linejoin="round" stroke-opacity="1.0" stroke-width="3.0" />
            <path d=" M 523.211, 1108.730 523.648, 1101.686 524.082, 1094.689 " fill="none" stroke="rgb(0, 119, 0)" stroke-linecap="butt" stroke-linejoin="round" stroke-opacity="1.0" stroke-width="3.0" />
            <path d=" M 717.512, 907.159 718.449, 897.203 719.297, 888.190 " fill="none" stroke="rgb(0, 119, 0)" stroke-linecap="butt" stroke-linejoin="round" stroke-opacity="1.0" stroke-width="3.0" />
            <path d=" M 781.719, 1110.706 782.327, 1105.144 " fill="none" stroke="rgb(0, 119, 0)" stroke-linecap="butt" stroke-linejoin="round" stroke-opacity="1.0" stroke-width="3.0" />
        </g>
    </g>
</svg>
